<?xml version="1.0" encoding="UTF-8" standalone="no"?>
<!DOCTYPE svg PUBLIC "-//W3C//DTD SVG 1.1//EN"
 "http://www.w3.org/Graphics/SVG/1.1/DTD/svg11.dtd">
<!-- Generated by graphviz version 2.43.0 (0)
 -->
<!-- Title: src/client/client.cpp Pages: 1 -->
<svg width="796pt" height="203pt"
 viewBox="0.00 0.00 795.50 203.00" xmlns="http://www.w3.org/2000/svg" xmlns:xlink="http://www.w3.org/1999/xlink">
<g id="graph0" class="graph" transform="scale(1 1) rotate(0) translate(4 199)">
<title>src/client/client.cpp</title>
<!-- Node1 -->
<g id="Node000001" class="node">
<title>Node1</title>
<g id="a_Node000001"><a xlink:title="The entrypoint to the client.">
<polygon fill="#999999" stroke="#666666" points="446.5,-195 335.5,-195 335.5,-176 446.5,-176 446.5,-195"/>
<text text-anchor="middle" x="391" y="-183" font-family="Helvetica,sans-Serif" font-size="10.00">src/client/client.cpp</text>
</a>
</g>
</g>
<!-- Node2 -->
<g id="Node000002" class="node">
<title>Node2</title>
<g id="a_Node000002"><a xlink:title=" ">
<polygon fill="#e0e0e0" stroke="#999999" points="568,-74 518,-74 518,-55 568,-55 568,-74"/>
<text text-anchor="middle" x="543" y="-62" font-family="Helvetica,sans-Serif" font-size="10.00">cstring</text>
</a>
</g>
</g>
<!-- Node1&#45;&gt;Node2 -->
<g id="edge1_Node000001_Node000002" class="edge">
<title>Node1&#45;&gt;Node2</title>
<g id="a_edge1_Node000001_Node000002"><a xlink:title=" ">
<path fill="none" stroke="#63b8ff" d="M401.93,-175.94C427.44,-155.97 491.19,-106.06 523.53,-80.75"/>
<polygon fill="#63b8ff" stroke="#63b8ff" points="526.04,-83.22 531.76,-74.3 521.73,-77.71 526.04,-83.22"/>
</a>
</g>
</g>
<!-- Node3 -->
<g id="Node000003" class="node">
<title>Node3</title>
<g id="a_Node000003"><a xlink:title=" ">
<polygon fill="#e0e0e0" stroke="#999999" points="646,-74 586,-74 586,-55 646,-55 646,-74"/>
<text text-anchor="middle" x="616" y="-62" font-family="Helvetica,sans-Serif" font-size="10.00">iostream</text>
</a>
</g>
</g>
<!-- Node1&#45;&gt;Node3 -->
<g id="edge2_Node000001_Node000003" class="edge">
<title>Node1&#45;&gt;Node3</title>
<g id="a_edge2_Node000001_Node000003"><a xlink:title=" ">
<path fill="none" stroke="#63b8ff" d="M409.05,-175.87C427.31,-167.07 456.28,-152.92 481,-140 520.26,-119.48 565.17,-94.35 592.03,-79.16"/>
<polygon fill="#63b8ff" stroke="#63b8ff" points="593.76,-82.2 600.73,-74.22 590.31,-76.11 593.76,-82.2"/>
</a>
</g>
</g>
<!-- Node4 -->
<g id="Node000004" class="node">
<title>Node4</title>
<g id="a_Node000004"><a xlink:href="generate__id_8cpp.html" target="_top" xlink:title=" ">
<polygon fill="white" stroke="#666666" points="241.5,-140 126.5,-140 126.5,-110 241.5,-110 241.5,-140"/>
<text text-anchor="start" x="134.5" y="-128" font-family="Helvetica,sans-Serif" font-size="10.00">../common/generate</text>
<text text-anchor="middle" x="184" y="-117" font-family="Helvetica,sans-Serif" font-size="10.00">_id.cpp</text>
</a>
</g>
</g>
<!-- Node1&#45;&gt;Node4 -->
<g id="edge3_Node000001_Node000004" class="edge">
<title>Node1&#45;&gt;Node4</title>
<g id="a_edge3_Node000001_Node000004"><a xlink:title=" ">
<path fill="none" stroke="#63b8ff" d="M360.9,-175.99C330.33,-167.35 282.16,-153.74 243.8,-142.9"/>
<polygon fill="#63b8ff" stroke="#63b8ff" points="244.34,-139.42 233.77,-140.06 242.44,-146.15 244.34,-139.42"/>
</a>
</g>
</g>
<!-- Node7 -->
<g id="Node000007" class="node">
<title>Node7</title>
<g id="a_Node000007"><a xlink:href="endpoint_8hpp.html" target="_top" xlink:title=" ">
<polygon fill="white" stroke="#666666" points="302,-74 174,-74 174,-55 302,-55 302,-74"/>
<text text-anchor="middle" x="238" y="-62" font-family="Helvetica,sans-Serif" font-size="10.00">../models/endpoint.hpp</text>
</a>
</g>
</g>
<!-- Node1&#45;&gt;Node7 -->
<g id="edge17_Node000001_Node000007" class="edge">
<title>Node1&#45;&gt;Node7</title>
<g id="a_edge17_Node000001_Node000007"><a xlink:title=" ">
<path fill="none" stroke="#63b8ff" d="M360.34,-175.86C338.98,-168.75 310.72,-157.04 290,-140 270.83,-124.24 255.58,-99.71 246.68,-83.14"/>
<polygon fill="#63b8ff" stroke="#63b8ff" points="249.66,-81.29 241.97,-74.01 243.44,-84.5 249.66,-81.29"/>
</a>
</g>
</g>
<!-- Node9 -->
<g id="Node000009" class="node">
<title>Node9</title>
<g id="a_Node000009"><a xlink:href="load__tracker__info_8cpp.html" target="_top" xlink:title=" ">
<polygon fill="white" stroke="#666666" points="681.5,-140 550.5,-140 550.5,-110 681.5,-110 681.5,-140"/>
<text text-anchor="start" x="558.5" y="-128" font-family="Helvetica,sans-Serif" font-size="10.00">../common/load_tracker</text>
<text text-anchor="middle" x="616" y="-117" font-family="Helvetica,sans-Serif" font-size="10.00">_info.cpp</text>
</a>
</g>
</g>
<!-- Node1&#45;&gt;Node9 -->
<g id="edge10_Node000001_Node000009" class="edge">
<title>Node1&#45;&gt;Node9</title>
<g id="a_edge10_Node000001_Node000009"><a xlink:title=" ">
<path fill="none" stroke="#63b8ff" d="M423.72,-175.99C457.23,-167.28 510.2,-153.51 552.07,-142.62"/>
<polygon fill="#63b8ff" stroke="#63b8ff" points="553.11,-145.97 561.91,-140.06 551.35,-139.19 553.11,-145.97"/>
</a>
</g>
</g>
<!-- Node13 -->
<g id="Node000013" class="node">
<title>Node13</title>
<g id="a_Node000013"><a xlink:href="network__errors_8hpp.html" target="_top" xlink:title=" ">
<polygon fill="white" stroke="#666666" points="108,-140 0,-140 0,-110 108,-110 108,-140"/>
<text text-anchor="start" x="8" y="-128" font-family="Helvetica,sans-Serif" font-size="10.00">../network/network</text>
<text text-anchor="middle" x="54" y="-117" font-family="Helvetica,sans-Serif" font-size="10.00">_errors.hpp</text>
</a>
</g>
</g>
<!-- Node1&#45;&gt;Node13 -->
<g id="edge18_Node000001_Node000013" class="edge">
<title>Node1&#45;&gt;Node13</title>
<g id="a_edge18_Node000001_Node000013"><a xlink:title=" ">
<path fill="none" stroke="#63b8ff" d="M335.42,-176.34C280.15,-168.01 193,-154.31 118,-140 117.9,-139.98 117.8,-139.96 117.7,-139.94"/>
<polygon fill="#63b8ff" stroke="#63b8ff" points="118.57,-136.55 108.08,-138.04 117.21,-143.41 118.57,-136.55"/>
</a>
</g>
</g>
<!-- Node14 -->
<g id="Node000014" class="node">
<title>Node14</title>
<g id="a_Node000014"><a xlink:href="tcp__socket_8hpp.html" target="_top" xlink:title=" ">
<polygon fill="white" stroke="#666666" points="499.5,-74 358.5,-74 358.5,-55 499.5,-55 499.5,-74"/>
<text text-anchor="middle" x="429" y="-62" font-family="Helvetica,sans-Serif" font-size="10.00">../network/tcp_socket.hpp</text>
</a>
</g>
</g>
<!-- Node1&#45;&gt;Node14 -->
<g id="edge20_Node000001_Node000014" class="edge">
<title>Node1&#45;&gt;Node14</title>
<g id="a_edge20_Node000001_Node000014"><a xlink:title=" ">
<path fill="none" stroke="#63b8ff" d="M396.05,-175.91C401,-167.15 408.46,-153.02 413,-140 419.38,-121.68 423.7,-99.91 426.23,-84.65"/>
<polygon fill="#63b8ff" stroke="#63b8ff" points="429.74,-84.83 427.82,-74.41 422.83,-83.76 429.74,-84.83"/>
</a>
</g>
</g>
<!-- Node18 -->
<g id="Node000018" class="node">
<title>Node18</title>
<g id="a_Node000018"><a xlink:href="process__input_8hpp.html" target="_top" xlink:title=" ">
<polygon fill="white" stroke="#666666" points="403.5,-134.5 298.5,-134.5 298.5,-115.5 403.5,-115.5 403.5,-134.5"/>
<text text-anchor="middle" x="351" y="-122.5" font-family="Helvetica,sans-Serif" font-size="10.00">process_input.hpp</text>
</a>
</g>
</g>
<!-- Node1&#45;&gt;Node18 -->
<g id="edge27_Node000001_Node000018" class="edge">
<title>Node1&#45;&gt;Node18</title>
<g id="a_edge27_Node000001_Node000018"><a xlink:title=" ">
<path fill="none" stroke="#63b8ff" d="M385.1,-175.87C379.25,-167.31 370.13,-153.97 362.79,-143.24"/>
<polygon fill="#63b8ff" stroke="#63b8ff" points="365.46,-140.95 356.93,-134.67 359.68,-144.9 365.46,-140.95"/>
</a>
</g>
</g>
<!-- Node5 -->
<g id="Node000005" class="node">
<title>Node5</title>
<g id="a_Node000005"><a xlink:title=" ">
<polygon fill="#e0e0e0" stroke="#999999" points="204,-19 154,-19 154,0 204,0 204,-19"/>
<text text-anchor="middle" x="179" y="-7" font-family="Helvetica,sans-Serif" font-size="10.00">cstdint</text>
</a>
</g>
</g>
<!-- Node4&#45;&gt;Node5 -->
<g id="edge4_Node000004_Node000005" class="edge">
<title>Node4&#45;&gt;Node5</title>
<g id="a_edge4_Node000004_Node000005"><a xlink:title=" ">
<path fill="none" stroke="#63b8ff" d="M162.44,-109.86C151.08,-101.05 138.23,-88.63 132,-74 124.11,-55.47 140.73,-37.31 156.34,-25.19"/>
<polygon fill="#63b8ff" stroke="#63b8ff" points="158.69,-27.81 164.75,-19.11 154.59,-22.14 158.69,-27.81"/>
</a>
</g>
</g>
<!-- Node6 -->
<g id="Node000006" class="node">
<title>Node6</title>
<g id="a_Node000006"><a xlink:title=" ">
<polygon fill="#e0e0e0" stroke="#999999" points="273,-19 229,-19 229,0 273,0 273,-19"/>
<text text-anchor="middle" x="251" y="-7" font-family="Helvetica,sans-Serif" font-size="10.00">string</text>
</a>
</g>
</g>
<!-- Node4&#45;&gt;Node6 -->
<g id="edge5_Node000004_Node000006" class="edge">
<title>Node4&#45;&gt;Node6</title>
<g id="a_edge5_Node000004_Node000006"><a xlink:title=" ">
<path fill="none" stroke="#63b8ff" d="M173.96,-109.88C164.92,-95.26 154.54,-72.2 165,-55 176.76,-35.68 199.91,-24.37 219.24,-18"/>
<polygon fill="#63b8ff" stroke="#63b8ff" points="220.34,-21.32 228.91,-15.1 218.33,-14.62 220.34,-21.32"/>
</a>
</g>
</g>
<!-- Node4&#45;&gt;Node7 -->
<g id="edge6_Node000004_Node000007" class="edge">
<title>Node4&#45;&gt;Node7</title>
<g id="a_edge6_Node000004_Node000007"><a xlink:title=" ">
<path fill="none" stroke="#63b8ff" d="M197.07,-109.84C204.91,-101.35 214.91,-90.52 223.06,-81.69"/>
<polygon fill="#63b8ff" stroke="#63b8ff" points="225.7,-83.99 229.91,-74.27 220.55,-79.24 225.7,-83.99"/>
</a>
</g>
</g>
<!-- Node7&#45;&gt;Node5 -->
<g id="edge7_Node000007_Node000005" class="edge">
<title>Node7&#45;&gt;Node5</title>
<g id="a_edge7_Node000007_Node000005"><a xlink:title=" ">
<path fill="none" stroke="#63b8ff" d="M228.52,-54.98C219.8,-47.15 206.66,-35.34 196.1,-25.86"/>
<polygon fill="#63b8ff" stroke="#63b8ff" points="198.43,-23.25 188.65,-19.17 193.75,-28.46 198.43,-23.25"/>
</a>
</g>
</g>
<!-- Node7&#45;&gt;Node6 -->
<g id="edge9_Node000007_Node000006" class="edge">
<title>Node7&#45;&gt;Node6</title>
<g id="a_edge9_Node000007_Node000006"><a xlink:title=" ">
<path fill="none" stroke="#63b8ff" d="M240.15,-54.75C241.87,-47.72 244.35,-37.62 246.5,-28.84"/>
<polygon fill="#63b8ff" stroke="#63b8ff" points="249.91,-29.63 248.89,-19.09 243.11,-27.97 249.91,-29.63"/>
</a>
</g>
</g>
<!-- Node8 -->
<g id="Node000008" class="node">
<title>Node8</title>
<g id="a_Node000008"><a xlink:title=" ">
<polygon fill="#e0e0e0" stroke="#999999" points="122.5,-19 57.5,-19 57.5,0 122.5,0 122.5,-19"/>
<text text-anchor="middle" x="90" y="-7" font-family="Helvetica,sans-Serif" font-size="10.00">stdexcept</text>
</a>
</g>
</g>
<!-- Node7&#45;&gt;Node8 -->
<g id="edge8_Node000007_Node000008" class="edge">
<title>Node7&#45;&gt;Node8</title>
<g id="a_edge8_Node000007_Node000008"><a xlink:title=" ">
<path fill="none" stroke="#63b8ff" d="M214.22,-54.98C189.77,-46.23 151.47,-32.51 123.85,-22.62"/>
<polygon fill="#63b8ff" stroke="#63b8ff" points="124.81,-19.25 114.21,-19.17 122.45,-25.84 124.81,-19.25"/>
</a>
</g>
</g>
<!-- Node9&#45;&gt;Node2 -->
<g id="edge12_Node000009_Node000002" class="edge">
<title>Node9&#45;&gt;Node2</title>
<g id="a_edge12_Node000009_Node000002"><a xlink:title=" ">
<path fill="none" stroke="#63b8ff" d="M598.33,-109.84C587.3,-101 573.11,-89.63 561.87,-80.62"/>
<polygon fill="#63b8ff" stroke="#63b8ff" points="563.93,-77.79 553.94,-74.27 559.55,-83.25 563.93,-77.79"/>
</a>
</g>
</g>
<!-- Node9&#45;&gt;Node3 -->
<g id="edge14_Node000009_Node000003" class="edge">
<title>Node9&#45;&gt;Node3</title>
<g id="a_edge14_Node000009_Node000003"><a xlink:title=" ">
<path fill="none" stroke="#63b8ff" d="M616,-109.84C616,-102.21 616,-92.7 616,-84.45"/>
<polygon fill="#63b8ff" stroke="#63b8ff" points="619.5,-84.27 616,-74.27 612.5,-84.27 619.5,-84.27"/>
</a>
</g>
</g>
<!-- Node9&#45;&gt;Node7 -->
<g id="edge11_Node000009_Node000007" class="edge">
<title>Node9&#45;&gt;Node7</title>
<g id="a_edge11_Node000009_Node000007"><a xlink:title=" ">
<path fill="none" stroke="#63b8ff" d="M550.16,-113.81C480.7,-103.06 371.95,-86.23 302.87,-75.54"/>
<polygon fill="#63b8ff" stroke="#63b8ff" points="303.39,-72.08 292.97,-74.01 302.32,-79 303.39,-72.08"/>
</a>
</g>
</g>
<!-- Node10 -->
<g id="Node000010" class="node">
<title>Node10</title>
<g id="a_Node000010"><a xlink:title=" ">
<polygon fill="#e0e0e0" stroke="#999999" points="787.5,-74 740.5,-74 740.5,-55 787.5,-55 787.5,-74"/>
<text text-anchor="middle" x="764" y="-62" font-family="Helvetica,sans-Serif" font-size="10.00">fcntl.h</text>
</a>
</g>
</g>
<!-- Node9&#45;&gt;Node10 -->
<g id="edge13_Node000009_Node000010" class="edge">
<title>Node9&#45;&gt;Node10</title>
<g id="a_edge13_Node000009_Node000010"><a xlink:title=" ">
<path fill="none" stroke="#63b8ff" d="M651.45,-109.99C676.14,-100.23 708.78,-87.33 732.55,-77.93"/>
<polygon fill="#63b8ff" stroke="#63b8ff" points="734.13,-81.07 742.14,-74.14 731.56,-74.56 734.13,-81.07"/>
</a>
</g>
</g>
<!-- Node11 -->
<g id="Node000011" class="node">
<title>Node11</title>
<g id="a_Node000011"><a xlink:title=" ">
<polygon fill="#e0e0e0" stroke="#999999" points="646,-19 590,-19 590,0 646,0 646,-19"/>
<text text-anchor="middle" x="618" y="-7" font-family="Helvetica,sans-Serif" font-size="10.00">unistd.h</text>
</a>
</g>
</g>
<!-- Node9&#45;&gt;Node11 -->
<g id="edge15_Node000009_Node000011" class="edge">
<title>Node9&#45;&gt;Node11</title>
<g id="a_edge15_Node000009_Node000011"><a xlink:title=" ">
<path fill="none" stroke="#63b8ff" d="M631.26,-109.84C640.05,-100.61 650.27,-87.74 655,-74 661.05,-56.41 648.22,-38.27 636.04,-25.9"/>
<polygon fill="#63b8ff" stroke="#63b8ff" points="638.4,-23.32 628.72,-19.01 633.6,-28.41 638.4,-23.32"/>
</a>
</g>
</g>
<!-- Node12 -->
<g id="Node000012" class="node">
<title>Node12</title>
<g id="a_Node000012"><a xlink:title=" ">
<polygon fill="#e0e0e0" stroke="#999999" points="723.5,-19 676.5,-19 676.5,0 723.5,0 723.5,-19"/>
<text text-anchor="middle" x="700" y="-7" font-family="Helvetica,sans-Serif" font-size="10.00">vector</text>
</a>
</g>
</g>
<!-- Node9&#45;&gt;Node12 -->
<g id="edge16_Node000009_Node000012" class="edge">
<title>Node9&#45;&gt;Node12</title>
<g id="a_edge16_Node000009_Node000012"><a xlink:title=" ">
<path fill="none" stroke="#63b8ff" d="M634.29,-109.64C645.32,-100.32 659.1,-87.45 669,-74 679.33,-59.97 687.74,-41.96 693.18,-28.71"/>
<polygon fill="#63b8ff" stroke="#63b8ff" points="696.49,-29.85 696.89,-19.26 689.97,-27.29 696.49,-29.85"/>
</a>
</g>
</g>
<!-- Node13&#45;&gt;Node8 -->
<g id="edge19_Node000013_Node000008" class="edge">
<title>Node13&#45;&gt;Node8</title>
<g id="a_edge19_Node000013_Node000008"><a xlink:title=" ">
<path fill="none" stroke="#63b8ff" d="M58.56,-109.63C65.06,-89.12 77.01,-51.47 84.15,-28.93"/>
<polygon fill="#63b8ff" stroke="#63b8ff" points="87.54,-29.82 87.23,-19.23 80.87,-27.7 87.54,-29.82"/>
</a>
</g>
</g>
<!-- Node14&#45;&gt;Node6 -->
<g id="edge23_Node000014_Node000006" class="edge">
<title>Node14&#45;&gt;Node6</title>
<g id="a_edge23_Node000014_Node000006"><a xlink:title=" ">
<path fill="none" stroke="#63b8ff" d="M400.4,-54.98C368.25,-45.41 316.19,-29.91 282.79,-19.96"/>
<polygon fill="#63b8ff" stroke="#63b8ff" points="283.65,-16.57 273.06,-17.07 281.65,-23.28 283.65,-16.57"/>
</a>
</g>
</g>
<!-- Node14&#45;&gt;Node11 -->
<g id="edge25_Node000014_Node000011" class="edge">
<title>Node14&#45;&gt;Node11</title>
<g id="a_edge25_Node000014_Node000011"><a xlink:title=" ">
<path fill="none" stroke="#63b8ff" d="M459.37,-54.98C492.13,-45.8 544.37,-31.15 579.88,-21.19"/>
<polygon fill="#63b8ff" stroke="#63b8ff" points="581.19,-24.46 589.87,-18.39 579.3,-17.72 581.19,-24.46"/>
</a>
</g>
</g>
<!-- Node14&#45;&gt;Node12 -->
<g id="edge26_Node000014_Node000012" class="edge">
<title>Node14&#45;&gt;Node12</title>
<g id="a_edge26_Node000014_Node000012"><a xlink:title=" ">
<path fill="none" stroke="#63b8ff" d="M472.54,-54.98C526.49,-44.43 617.25,-26.68 666.23,-17.11"/>
<polygon fill="#63b8ff" stroke="#63b8ff" points="667.16,-20.49 676.3,-15.13 665.82,-13.62 667.16,-20.49"/>
</a>
</g>
</g>
<!-- Node15 -->
<g id="Node000015" class="node">
<title>Node15</title>
<g id="a_Node000015"><a xlink:title=" ">
<polygon fill="#e0e0e0" stroke="#999999" points="458,-19 400,-19 400,0 458,0 458,-19"/>
<text text-anchor="middle" x="429" y="-7" font-family="Helvetica,sans-Serif" font-size="10.00">memory</text>
</a>
</g>
</g>
<!-- Node14&#45;&gt;Node15 -->
<g id="edge21_Node000014_Node000015" class="edge">
<title>Node14&#45;&gt;Node15</title>
<g id="a_edge21_Node000014_Node000015"><a xlink:title=" ">
<path fill="none" stroke="#63b8ff" d="M429,-54.75C429,-47.8 429,-37.85 429,-29.13"/>
<polygon fill="#63b8ff" stroke="#63b8ff" points="432.5,-29.09 429,-19.09 425.5,-29.09 432.5,-29.09"/>
</a>
</g>
</g>
<!-- Node16 -->
<g id="Node000016" class="node">
<title>Node16</title>
<g id="a_Node000016"><a xlink:title=" ">
<polygon fill="#e0e0e0" stroke="#999999" points="548,-19 476,-19 476,0 548,0 548,-19"/>
<text text-anchor="middle" x="512" y="-7" font-family="Helvetica,sans-Serif" font-size="10.00">netinet/in.h</text>
</a>
</g>
</g>
<!-- Node14&#45;&gt;Node16 -->
<g id="edge22_Node000014_Node000016" class="edge">
<title>Node14&#45;&gt;Node16</title>
<g id="a_edge22_Node000014_Node000016"><a xlink:title=" ">
<path fill="none" stroke="#63b8ff" d="M442.34,-54.98C455.09,-46.84 474.55,-34.41 489.67,-24.76"/>
<polygon fill="#63b8ff" stroke="#63b8ff" points="491.88,-27.5 498.42,-19.17 488.11,-21.6 491.88,-27.5"/>
</a>
</g>
</g>
<!-- Node17 -->
<g id="Node000017" class="node">
<title>Node17</title>
<g id="a_Node000017"><a xlink:title=" ">
<polygon fill="#e0e0e0" stroke="#999999" points="381.5,-19 304.5,-19 304.5,0 381.5,0 381.5,-19"/>
<text text-anchor="middle" x="343" y="-7" font-family="Helvetica,sans-Serif" font-size="10.00">sys/socket.h</text>
</a>
</g>
</g>
<!-- Node14&#45;&gt;Node17 -->
<g id="edge24_Node000014_Node000017" class="edge">
<title>Node14&#45;&gt;Node17</title>
<g id="a_edge24_Node000014_Node000017"><a xlink:title=" ">
<path fill="none" stroke="#63b8ff" d="M415.18,-54.98C401.85,-46.77 381.42,-34.18 365.69,-24.49"/>
<polygon fill="#63b8ff" stroke="#63b8ff" points="367.42,-21.44 357.07,-19.17 363.75,-27.4 367.42,-21.44"/>
</a>
</g>
</g>
<!-- Node18&#45;&gt;Node6 -->
<g id="edge28_Node000018_Node000006" class="edge">
<title>Node18&#45;&gt;Node6</title>
<g id="a_edge28_Node000018_Node000006"><a xlink:title=" ">
<path fill="none" stroke="#63b8ff" d="M347.31,-115.21C341.21,-101.33 327.97,-74 311,-55 300.47,-43.21 286.36,-32.55 274.47,-24.63"/>
<polygon fill="#63b8ff" stroke="#63b8ff" points="276.21,-21.59 265.9,-19.13 272.43,-27.48 276.21,-21.59"/>
</a>
</g>
</g>
<!-- Node18&#45;&gt;Node7 -->
<g id="edge29_Node000018_Node000007" class="edge">
<title>Node18&#45;&gt;Node7</title>
<g id="a_edge29_Node000018_Node000007"><a xlink:title=" ">
<path fill="none" stroke="#63b8ff" d="M334.33,-115.37C315.72,-105.73 285.38,-90.03 263.72,-78.81"/>
<polygon fill="#63b8ff" stroke="#63b8ff" points="265.23,-75.66 254.74,-74.17 262.01,-81.87 265.23,-75.66"/>
</a>
</g>
</g>
<!-- Node18&#45;&gt;Node14 -->
<g id="edge30_Node000018_Node000014" class="edge">
<title>Node18&#45;&gt;Node14</title>
<g id="a_edge30_Node000018_Node000014"><a xlink:title=" ">
<path fill="none" stroke="#63b8ff" d="M362.51,-115.37C374.84,-106.12 394.62,-91.28 409.41,-80.19"/>
<polygon fill="#63b8ff" stroke="#63b8ff" points="411.54,-82.97 417.44,-74.17 407.34,-77.37 411.54,-82.97"/>
</a>
</g>
</g>
</g>
</svg>
