<?xml version="1.0" encoding="UTF-8" standalone="no"?>
<!DOCTYPE svg PUBLIC "-//W3C//DTD SVG 1.1//EN"
 "http://www.w3.org/Graphics/SVG/1.1/DTD/svg11.dtd">
<!-- Generated by graphviz version 2.43.0 (0)
 -->
<!-- Title: src/client/process_request.cpp Pages: 1 -->
<svg width="1261pt" height="313pt"
 viewBox="0.00 0.00 1260.50 313.00" xmlns="http://www.w3.org/2000/svg" xmlns:xlink="http://www.w3.org/1999/xlink">
<g id="graph0" class="graph" transform="scale(1 1) rotate(0) translate(4 309)">
<title>src/client/process_request.cpp</title>
<!-- Node1 -->
<g id="Node000001" class="node">
<title>Node1</title>
<g id="a_Node000001"><a xlink:title=" ">
<polygon fill="#999999" stroke="#666666" points="632.5,-305 531.5,-305 531.5,-275 632.5,-275 632.5,-305"/>
<text text-anchor="start" x="539.5" y="-293" font-family="Helvetica,sans-Serif" font-size="10.00">src/client/process</text>
<text text-anchor="middle" x="582" y="-282" font-family="Helvetica,sans-Serif" font-size="10.00">_request.cpp</text>
</a>
</g>
</g>
<!-- Node2 -->
<g id="Node000002" class="node">
<title>Node2</title>
<g id="a_Node000002"><a xlink:href="fileinfo_8hpp.html" target="_top" xlink:title=" ">
<polygon fill="white" stroke="#666666" points="283.5,-74 164.5,-74 164.5,-55 283.5,-55 283.5,-74"/>
<text text-anchor="middle" x="224" y="-62" font-family="Helvetica,sans-Serif" font-size="10.00">../models/fileinfo.hpp</text>
</a>
</g>
</g>
<!-- Node1&#45;&gt;Node2 -->
<g id="edge1_Node000001_Node000002" class="edge">
<title>Node1&#45;&gt;Node2</title>
<g id="a_edge1_Node000001_Node000002"><a xlink:title=" ">
<path fill="none" stroke="#63b8ff" d="M531.44,-280.81C461.52,-267.93 332.95,-238.6 236,-184 203.03,-165.43 186.92,-163.33 171,-129 162.02,-109.63 181.34,-91.34 199.13,-79.41"/>
<polygon fill="#63b8ff" stroke="#63b8ff" points="201,-82.37 207.6,-74.09 197.27,-76.44 201,-82.37"/>
</a>
</g>
</g>
<!-- Node3 -->
<g id="Node000003" class="node">
<title>Node3</title>
<g id="a_Node000003"><a xlink:title=" ">
<polygon fill="#e0e0e0" stroke="#999999" points="64,-19 8,-19 8,0 64,0 64,-19"/>
<text text-anchor="middle" x="36" y="-7" font-family="Helvetica,sans-Serif" font-size="10.00">sstream</text>
</a>
</g>
</g>
<!-- Node1&#45;&gt;Node3 -->
<g id="edge52_Node000001_Node000003" class="edge">
<title>Node1&#45;&gt;Node3</title>
<g id="a_edge52_Node000001_Node000003"><a xlink:title=" ">
<path fill="none" stroke="#63b8ff" d="M531.37,-289.8C389.77,-290.69 0,-283.34 0,-175.5 0,-175.5 0,-175.5 0,-118.5 0,-85.21 15.58,-48.97 26.25,-28.08"/>
<polygon fill="#63b8ff" stroke="#63b8ff" points="29.4,-29.61 30.99,-19.13 23.21,-26.32 29.4,-29.61"/>
</a>
</g>
</g>
<!-- Node5 -->
<g id="Node000005" class="node">
<title>Node5</title>
<g id="a_Node000005"><a xlink:title=" ">
<polygon fill="#e0e0e0" stroke="#999999" points="481,-19 437,-19 437,0 481,0 481,-19"/>
<text text-anchor="middle" x="459" y="-7" font-family="Helvetica,sans-Serif" font-size="10.00">string</text>
</a>
</g>
</g>
<!-- Node1&#45;&gt;Node5 -->
<g id="edge53_Node000001_Node000005" class="edge">
<title>Node1&#45;&gt;Node5</title>
<g id="a_edge53_Node000001_Node000005"><a xlink:title=" ">
<path fill="none" stroke="#63b8ff" d="M632.73,-284.67C776.62,-271.72 1177,-230.71 1177,-175.5 1177,-175.5 1177,-175.5 1177,-118.5 1177,-89.04 1181.06,-73.34 1158,-55 1131.59,-34 625.38,-15.96 491.34,-11.54"/>
<polygon fill="#63b8ff" stroke="#63b8ff" points="491.39,-8.04 481.28,-11.21 491.16,-15.03 491.39,-8.04"/>
</a>
</g>
</g>
<!-- Node7 -->
<g id="Node000007" class="node">
<title>Node7</title>
<g id="a_Node000007"><a xlink:href="file__io_8hpp.html" target="_top" xlink:title=" ">
<polygon fill="white" stroke="#666666" points="312.5,-184 245.5,-184 245.5,-165 312.5,-165 312.5,-184"/>
<text text-anchor="middle" x="279" y="-172" font-family="Helvetica,sans-Serif" font-size="10.00">file_io.hpp</text>
</a>
</g>
</g>
<!-- Node1&#45;&gt;Node7 -->
<g id="edge6_Node000001_Node000007" class="edge">
<title>Node1&#45;&gt;Node7</title>
<g id="a_edge6_Node000001_Node000007"><a xlink:title=" ">
<path fill="none" stroke="#63b8ff" d="M544.54,-274.97C484.65,-252.53 368.3,-208.95 311.62,-187.72"/>
<polygon fill="#63b8ff" stroke="#63b8ff" points="312.67,-184.38 302.08,-184.14 310.21,-190.93 312.67,-184.38"/>
</a>
</g>
</g>
<!-- Node13 -->
<g id="Node000013" class="node">
<title>Node13</title>
<g id="a_Node000013"><a xlink:href="client_2process__request_8hpp.html" target="_top" xlink:title=" ">
<polygon fill="white" stroke="#666666" points="640.5,-239 523.5,-239 523.5,-220 640.5,-220 640.5,-239"/>
<text text-anchor="middle" x="582" y="-227" font-family="Helvetica,sans-Serif" font-size="10.00">process_request.hpp</text>
</a>
</g>
</g>
<!-- Node1&#45;&gt;Node13 -->
<g id="edge19_Node000001_Node000013" class="edge">
<title>Node1&#45;&gt;Node13</title>
<g id="a_edge19_Node000001_Node000013"><a xlink:title=" ">
<path fill="none" stroke="#63b8ff" d="M582,-274.84C582,-267.21 582,-257.7 582,-249.45"/>
<polygon fill="#63b8ff" stroke="#63b8ff" points="585.5,-249.27 582,-239.27 578.5,-249.27 585.5,-249.27"/>
</a>
</g>
</g>
<!-- Node17 -->
<g id="Node000017" class="node">
<title>Node17</title>
<g id="a_Node000017"><a xlink:title=" ">
<polygon fill="#e0e0e0" stroke="#999999" points="1149,-74 1093,-74 1093,-55 1149,-55 1149,-74"/>
<text text-anchor="middle" x="1121" y="-62" font-family="Helvetica,sans-Serif" font-size="10.00">unistd.h</text>
</a>
</g>
</g>
<!-- Node1&#45;&gt;Node17 -->
<g id="edge54_Node000001_Node000017" class="edge">
<title>Node1&#45;&gt;Node17</title>
<g id="a_edge54_Node000001_Node000017"><a xlink:title=" ">
<path fill="none" stroke="#63b8ff" d="M632.67,-277.66C708.27,-260.27 854.69,-224.69 976,-184 1037.42,-163.39 1070.76,-179.78 1111,-129 1120.85,-116.56 1122.85,-98.35 1122.67,-84.62"/>
<polygon fill="#63b8ff" stroke="#63b8ff" points="1126.15,-84.16 1122.14,-74.36 1119.16,-84.53 1126.15,-84.16"/>
</a>
</g>
</g>
<!-- Node24 -->
<g id="Node000024" class="node">
<title>Node24</title>
<g id="a_Node000024"><a xlink:title=" ">
<polygon fill="#e0e0e0" stroke="#999999" points="1252.5,-239 1205.5,-239 1205.5,-220 1252.5,-220 1252.5,-239"/>
<text text-anchor="middle" x="1229" y="-227" font-family="Helvetica,sans-Serif" font-size="10.00">fcntl.h</text>
</a>
</g>
</g>
<!-- Node1&#45;&gt;Node24 -->
<g id="edge51_Node000001_Node000024" class="edge">
<title>Node1&#45;&gt;Node24</title>
<g id="a_edge51_Node000001_Node000024"><a xlink:title=" ">
<path fill="none" stroke="#63b8ff" d="M632.8,-287.2C737.66,-282.97 985.44,-270.28 1191,-239 1192.46,-238.78 1193.95,-238.53 1195.45,-238.27"/>
<polygon fill="#63b8ff" stroke="#63b8ff" points="1196.24,-241.68 1205.38,-236.31 1194.89,-234.81 1196.24,-241.68"/>
</a>
</g>
</g>
<!-- Node2&#45;&gt;Node3 -->
<g id="edge2_Node000002_Node000003" class="edge">
<title>Node2&#45;&gt;Node3</title>
<g id="a_edge2_Node000002_Node000003"><a xlink:title=" ">
<path fill="none" stroke="#63b8ff" d="M193.79,-54.98C161.3,-45.82 109.54,-31.23 74.23,-21.28"/>
<polygon fill="#63b8ff" stroke="#63b8ff" points="74.86,-17.82 64.29,-18.47 72.96,-24.56 74.86,-17.82"/>
</a>
</g>
</g>
<!-- Node4 -->
<g id="Node000004" class="node">
<title>Node4</title>
<g id="a_Node000004"><a xlink:title=" ">
<polygon fill="#e0e0e0" stroke="#999999" points="235.5,-19 170.5,-19 170.5,0 235.5,0 235.5,-19"/>
<text text-anchor="middle" x="203" y="-7" font-family="Helvetica,sans-Serif" font-size="10.00">stdexcept</text>
</a>
</g>
</g>
<!-- Node2&#45;&gt;Node4 -->
<g id="edge3_Node000002_Node000004" class="edge">
<title>Node2&#45;&gt;Node4</title>
<g id="a_edge3_Node000002_Node000004"><a xlink:title=" ">
<path fill="none" stroke="#63b8ff" d="M220.53,-54.75C217.72,-47.65 213.66,-37.4 210.15,-28.56"/>
<polygon fill="#63b8ff" stroke="#63b8ff" points="213.34,-27.1 206.4,-19.09 206.83,-29.68 213.34,-27.1"/>
</a>
</g>
</g>
<!-- Node2&#45;&gt;Node5 -->
<g id="edge4_Node000002_Node000005" class="edge">
<title>Node2&#45;&gt;Node5</title>
<g id="a_edge4_Node000002_Node000005"><a xlink:title=" ">
<path fill="none" stroke="#63b8ff" d="M261.76,-54.98C307.54,-44.66 383.92,-27.43 426.96,-17.73"/>
<polygon fill="#63b8ff" stroke="#63b8ff" points="427.91,-21.1 436.9,-15.49 426.37,-14.27 427.91,-21.1"/>
</a>
</g>
</g>
<!-- Node6 -->
<g id="Node000006" class="node">
<title>Node6</title>
<g id="a_Node000006"><a xlink:title=" ">
<polygon fill="#e0e0e0" stroke="#999999" points="852.5,-19 805.5,-19 805.5,0 852.5,0 852.5,-19"/>
<text text-anchor="middle" x="829" y="-7" font-family="Helvetica,sans-Serif" font-size="10.00">vector</text>
</a>
</g>
</g>
<!-- Node2&#45;&gt;Node6 -->
<g id="edge5_Node000002_Node000006" class="edge">
<title>Node2&#45;&gt;Node6</title>
<g id="a_edge5_Node000002_Node000006"><a xlink:title=" ">
<path fill="none" stroke="#63b8ff" d="M283.67,-58.27C409.22,-47.27 697.2,-22.05 795.44,-13.44"/>
<polygon fill="#63b8ff" stroke="#63b8ff" points="795.75,-16.93 805.41,-12.57 795.14,-9.95 795.75,-16.93"/>
</a>
</g>
</g>
<!-- Node7&#45;&gt;Node2 -->
<g id="edge18_Node000007_Node000002" class="edge">
<title>Node7&#45;&gt;Node2</title>
<g id="a_edge18_Node000007_Node000002"><a xlink:title=" ">
<path fill="none" stroke="#63b8ff" d="M245.1,-168.33C221.9,-162.83 192.76,-151.63 178,-129 166.79,-111.81 184.73,-92.85 201.37,-80.16"/>
<polygon fill="#63b8ff" stroke="#63b8ff" points="203.7,-82.8 209.8,-74.14 199.63,-77.11 203.7,-82.8"/>
</a>
</g>
</g>
<!-- Node8 -->
<g id="Node000008" class="node">
<title>Node8</title>
<g id="a_Node000008"><a xlink:title=" ">
<polygon fill="#e0e0e0" stroke="#999999" points="669,-74 611,-74 611,-55 669,-55 669,-74"/>
<text text-anchor="middle" x="640" y="-62" font-family="Helvetica,sans-Serif" font-size="10.00">memory</text>
</a>
</g>
</g>
<!-- Node7&#45;&gt;Node8 -->
<g id="edge7_Node000007_Node000008" class="edge">
<title>Node7&#45;&gt;Node8</title>
<g id="a_edge7_Node000007_Node000008"><a xlink:title=" ">
<path fill="none" stroke="#63b8ff" d="M312.62,-171.46C381.64,-166.8 536.7,-153.83 583,-129 602.92,-118.32 619.34,-97.81 629.36,-82.99"/>
<polygon fill="#63b8ff" stroke="#63b8ff" points="632.53,-84.53 634.99,-74.23 626.64,-80.75 632.53,-84.53"/>
</a>
</g>
</g>
<!-- Node9 -->
<g id="Node000009" class="node">
<title>Node9</title>
<g id="a_Node000009"><a xlink:href="file_8hpp.html" target="_top" xlink:title=" ">
<polygon fill="white" stroke="#666666" points="321.5,-129 220.5,-129 220.5,-110 321.5,-110 321.5,-129"/>
<text text-anchor="middle" x="271" y="-117" font-family="Helvetica,sans-Serif" font-size="10.00">../models/file.hpp</text>
</a>
</g>
</g>
<!-- Node7&#45;&gt;Node9 -->
<g id="edge8_Node000007_Node000009" class="edge">
<title>Node7&#45;&gt;Node9</title>
<g id="a_edge8_Node000007_Node000009"><a xlink:title=" ">
<path fill="none" stroke="#63b8ff" d="M277.68,-164.75C276.63,-157.8 275.13,-147.85 273.81,-139.13"/>
<polygon fill="#63b8ff" stroke="#63b8ff" points="277.25,-138.45 272.3,-129.09 270.33,-139.5 277.25,-138.45"/>
</a>
</g>
</g>
<!-- Node9&#45;&gt;Node2 -->
<g id="edge17_Node000009_Node000002" class="edge">
<title>Node9&#45;&gt;Node2</title>
<g id="a_edge17_Node000009_Node000002"><a xlink:title=" ">
<path fill="none" stroke="#63b8ff" d="M263.24,-109.75C256.53,-102.18 246.66,-91.05 238.49,-81.84"/>
<polygon fill="#63b8ff" stroke="#63b8ff" points="240.87,-79.25 231.62,-74.09 235.63,-83.89 240.87,-79.25"/>
</a>
</g>
</g>
<!-- Node9&#45;&gt;Node3 -->
<g id="edge11_Node000009_Node000003" class="edge">
<title>Node9&#45;&gt;Node3</title>
<g id="a_edge11_Node000009_Node000003"><a xlink:title=" ">
<path fill="none" stroke="#63b8ff" d="M220.46,-113.81C165.01,-107.67 80.72,-95.15 57,-74 44.42,-62.78 39.35,-43.86 37.33,-29.59"/>
<polygon fill="#63b8ff" stroke="#63b8ff" points="40.78,-28.95 36.26,-19.37 33.82,-29.68 40.78,-28.95"/>
</a>
</g>
</g>
<!-- Node9&#45;&gt;Node5 -->
<g id="edge10_Node000009_Node000005" class="edge">
<title>Node9&#45;&gt;Node5</title>
<g id="a_edge10_Node000009_Node000005"><a xlink:title=" ">
<path fill="none" stroke="#63b8ff" d="M277.7,-109.92C288.59,-96.48 311.41,-70.43 336,-55 364.53,-37.1 401.28,-25 427.16,-17.99"/>
<polygon fill="#63b8ff" stroke="#63b8ff" points="428.05,-21.38 436.84,-15.47 426.29,-14.61 428.05,-21.38"/>
</a>
</g>
</g>
<!-- Node9&#45;&gt;Node8 -->
<g id="edge9_Node000009_Node000008" class="edge">
<title>Node9&#45;&gt;Node8</title>
<g id="a_edge9_Node000009_Node000008"><a xlink:title=" ">
<path fill="none" stroke="#63b8ff" d="M321.53,-111.24C395.92,-100.56 533.32,-80.82 600.69,-71.15"/>
<polygon fill="#63b8ff" stroke="#63b8ff" points="601.48,-74.57 610.88,-69.68 600.48,-67.64 601.48,-74.57"/>
</a>
</g>
</g>
<!-- Node10 -->
<g id="Node000010" class="node">
<title>Node10</title>
<g id="a_Node000010"><a xlink:title=" ">
<polygon fill="#e0e0e0" stroke="#999999" points="502,-74 416,-74 416,-55 502,-55 502,-74"/>
<text text-anchor="middle" x="459" y="-62" font-family="Helvetica,sans-Serif" font-size="10.00">unordered_set</text>
</a>
</g>
</g>
<!-- Node9&#45;&gt;Node10 -->
<g id="edge12_Node000009_Node000010" class="edge">
<title>Node9&#45;&gt;Node10</title>
<g id="a_edge12_Node000009_Node000010"><a xlink:title=" ">
<path fill="none" stroke="#63b8ff" d="M301.21,-109.98C333.04,-101.01 383.36,-86.82 418.6,-76.89"/>
<polygon fill="#63b8ff" stroke="#63b8ff" points="419.88,-80.16 428.56,-74.08 417.98,-73.43 419.88,-80.16"/>
</a>
</g>
</g>
<!-- Node11 -->
<g id="Node000011" class="node">
<title>Node11</title>
<g id="a_Node000011"><a xlink:href="endpoint_8hpp.html" target="_top" xlink:title=" ">
<polygon fill="white" stroke="#666666" points="146,-74 66,-74 66,-55 146,-55 146,-74"/>
<text text-anchor="middle" x="106" y="-62" font-family="Helvetica,sans-Serif" font-size="10.00">endpoint.hpp</text>
</a>
</g>
</g>
<!-- Node9&#45;&gt;Node11 -->
<g id="edge13_Node000009_Node000011" class="edge">
<title>Node9&#45;&gt;Node11</title>
<g id="a_edge13_Node000009_Node000011"><a xlink:title=" ">
<path fill="none" stroke="#63b8ff" d="M244.49,-109.98C216.79,-101.09 173.14,-87.07 142.26,-77.15"/>
<polygon fill="#63b8ff" stroke="#63b8ff" points="143.31,-73.81 132.72,-74.08 141.17,-80.47 143.31,-73.81"/>
</a>
</g>
</g>
<!-- Node11&#45;&gt;Node4 -->
<g id="edge15_Node000011_Node000004" class="edge">
<title>Node11&#45;&gt;Node4</title>
<g id="a_edge15_Node000011_Node000004"><a xlink:title=" ">
<path fill="none" stroke="#63b8ff" d="M121.58,-54.98C136.77,-46.69 160.1,-33.94 177.9,-24.22"/>
<polygon fill="#63b8ff" stroke="#63b8ff" points="180.03,-27.04 187.13,-19.17 176.68,-20.89 180.03,-27.04"/>
</a>
</g>
</g>
<!-- Node11&#45;&gt;Node5 -->
<g id="edge16_Node000011_Node000005" class="edge">
<title>Node11&#45;&gt;Node5</title>
<g id="a_edge16_Node000011_Node000005"><a xlink:title=" ">
<path fill="none" stroke="#63b8ff" d="M146.1,-56.46C149.11,-55.95 152.1,-55.46 155,-55 253.96,-39.18 371.42,-22.61 426.91,-14.91"/>
<polygon fill="#63b8ff" stroke="#63b8ff" points="427.42,-18.38 436.85,-13.54 426.46,-11.44 427.42,-18.38"/>
</a>
</g>
</g>
<!-- Node12 -->
<g id="Node000012" class="node">
<title>Node12</title>
<g id="a_Node000012"><a xlink:title=" ">
<polygon fill="#e0e0e0" stroke="#999999" points="132,-19 82,-19 82,0 132,0 132,-19"/>
<text text-anchor="middle" x="107" y="-7" font-family="Helvetica,sans-Serif" font-size="10.00">cstdint</text>
</a>
</g>
</g>
<!-- Node11&#45;&gt;Node12 -->
<g id="edge14_Node000011_Node000012" class="edge">
<title>Node11&#45;&gt;Node12</title>
<g id="a_edge14_Node000011_Node000012"><a xlink:title=" ">
<path fill="none" stroke="#63b8ff" d="M106.17,-54.75C106.3,-47.8 106.48,-37.85 106.65,-29.13"/>
<polygon fill="#63b8ff" stroke="#63b8ff" points="110.15,-29.15 106.84,-19.09 103.15,-29.02 110.15,-29.15"/>
</a>
</g>
</g>
<!-- Node13&#45;&gt;Node5 -->
<g id="edge21_Node000013_Node000005" class="edge">
<title>Node13&#45;&gt;Node5</title>
<g id="a_edge21_Node000013_Node000005"><a xlink:title=" ">
<path fill="none" stroke="#63b8ff" d="M523.38,-220.86C478.19,-213.72 420.82,-201.52 405,-184 366.48,-141.34 369.57,-106.03 396,-55 403.04,-41.41 416.34,-31.09 428.92,-23.82"/>
<polygon fill="#63b8ff" stroke="#63b8ff" points="430.67,-26.86 437.85,-19.07 427.38,-20.68 430.67,-26.86"/>
</a>
</g>
</g>
<!-- Node13&#45;&gt;Node8 -->
<g id="edge20_Node000013_Node000008" class="edge">
<title>Node13&#45;&gt;Node8</title>
<g id="a_edge20_Node000013_Node000008"><a xlink:title=" ">
<path fill="none" stroke="#63b8ff" d="M640.61,-227.25C706.87,-222.19 810.99,-202.26 853,-129 857.2,-121.67 858.33,-116.55 853,-110 831.57,-83.63 735.07,-72.35 679.59,-67.97"/>
<polygon fill="#63b8ff" stroke="#63b8ff" points="679.64,-64.46 669.41,-67.21 679.12,-71.44 679.64,-64.46"/>
</a>
</g>
</g>
<!-- Node13&#45;&gt;Node11 -->
<g id="edge22_Node000013_Node000011" class="edge">
<title>Node13&#45;&gt;Node11</title>
<g id="a_edge22_Node000013_Node000011"><a xlink:title=" ">
<path fill="none" stroke="#63b8ff" d="M523.22,-224.97C438.35,-219.2 286.16,-206.1 236,-184 184.03,-161.1 138.96,-108.93 118.19,-82.11"/>
<polygon fill="#63b8ff" stroke="#63b8ff" points="120.93,-79.92 112.11,-74.06 115.35,-84.15 120.93,-79.92"/>
</a>
</g>
</g>
<!-- Node14 -->
<g id="Node000014" class="node">
<title>Node14</title>
<g id="a_Node000014"><a xlink:href="tcp__socket_8hpp.html" target="_top" xlink:title=" ">
<polygon fill="white" stroke="#666666" points="1101.5,-129 960.5,-129 960.5,-110 1101.5,-110 1101.5,-129"/>
<text text-anchor="middle" x="1031" y="-117" font-family="Helvetica,sans-Serif" font-size="10.00">../network/tcp_socket.hpp</text>
</a>
</g>
</g>
<!-- Node13&#45;&gt;Node14 -->
<g id="edge23_Node000013_Node000014" class="edge">
<title>Node13&#45;&gt;Node14</title>
<g id="a_edge23_Node000013_Node000014"><a xlink:title=" ">
<path fill="none" stroke="#63b8ff" d="M640.73,-225C729.16,-219.11 891.94,-205.7 946,-184 973.08,-173.13 999.19,-151.41 1015.16,-136.42"/>
<polygon fill="#63b8ff" stroke="#63b8ff" points="1017.78,-138.75 1022.54,-129.28 1012.92,-133.72 1017.78,-138.75"/>
</a>
</g>
</g>
<!-- Node18 -->
<g id="Node000018" class="node">
<title>Node18</title>
<g id="a_Node000018"><a xlink:href="filesdb_8hpp.html" target="_top" xlink:title=" ">
<polygon fill="white" stroke="#666666" points="750,-184 680,-184 680,-165 750,-165 750,-184"/>
<text text-anchor="middle" x="715" y="-172" font-family="Helvetica,sans-Serif" font-size="10.00">filesdb.hpp</text>
</a>
</g>
</g>
<!-- Node13&#45;&gt;Node18 -->
<g id="edge30_Node000013_Node000018" class="edge">
<title>Node13&#45;&gt;Node18</title>
<g id="a_edge30_Node000013_Node000018"><a xlink:title=" ">
<path fill="none" stroke="#63b8ff" d="M603.37,-219.98C625.15,-211.3 659.16,-197.75 683.92,-187.88"/>
<polygon fill="#63b8ff" stroke="#63b8ff" points="685.25,-191.12 693.24,-184.17 682.66,-184.62 685.25,-191.12"/>
</a>
</g>
</g>
<!-- Node23 -->
<g id="Node000023" class="node">
<title>Node23</title>
<g id="a_Node000023"><a xlink:href="peerdb_8hpp.html" target="_top" xlink:title=" ">
<polygon fill="white" stroke="#666666" points="485.5,-184 414.5,-184 414.5,-165 485.5,-165 485.5,-184"/>
<text text-anchor="middle" x="450" y="-172" font-family="Helvetica,sans-Serif" font-size="10.00">peerdb.hpp</text>
</a>
</g>
</g>
<!-- Node13&#45;&gt;Node23 -->
<g id="edge42_Node000013_Node000023" class="edge">
<title>Node13&#45;&gt;Node23</title>
<g id="a_edge42_Node000013_Node000023"><a xlink:title=" ">
<path fill="none" stroke="#63b8ff" d="M560.79,-219.98C539.27,-211.34 505.72,-197.87 481.17,-188.02"/>
<polygon fill="#63b8ff" stroke="#63b8ff" points="482.18,-184.65 471.59,-184.17 479.57,-191.14 482.18,-184.65"/>
</a>
</g>
</g>
<!-- Node14&#45;&gt;Node5 -->
<g id="edge26_Node000014_Node000005" class="edge">
<title>Node14&#45;&gt;Node5</title>
<g id="a_edge26_Node000014_Node000005"><a xlink:title=" ">
<path fill="none" stroke="#63b8ff" d="M990.72,-109.95C955.72,-102.07 903.89,-89.29 860,-74 840.27,-67.12 837.14,-60.57 817,-55 700.02,-22.64 555,-13.77 491.42,-11.37"/>
<polygon fill="#63b8ff" stroke="#63b8ff" points="491.35,-7.87 481.23,-11.02 491.1,-14.86 491.35,-7.87"/>
</a>
</g>
</g>
<!-- Node14&#45;&gt;Node6 -->
<g id="edge29_Node000014_Node000006" class="edge">
<title>Node14&#45;&gt;Node6</title>
<g id="a_edge29_Node000014_Node000006"><a xlink:title=" ">
<path fill="none" stroke="#63b8ff" d="M1037.3,-109.65C1045.95,-96.33 1059.03,-70.98 1046,-55 1023.27,-27.13 917.92,-16.23 862.81,-12.38"/>
<polygon fill="#63b8ff" stroke="#63b8ff" points="862.71,-8.87 852.5,-11.7 862.25,-15.85 862.71,-8.87"/>
</a>
</g>
</g>
<!-- Node14&#45;&gt;Node8 -->
<g id="edge24_Node000014_Node000008" class="edge">
<title>Node14&#45;&gt;Node8</title>
<g id="a_edge24_Node000014_Node000008"><a xlink:title=" ">
<path fill="none" stroke="#63b8ff" d="M968.18,-109.98C886.83,-98.96 747.45,-80.06 679.53,-70.86"/>
<polygon fill="#63b8ff" stroke="#63b8ff" points="679.64,-67.34 669.26,-69.47 678.7,-74.28 679.64,-67.34"/>
</a>
</g>
</g>
<!-- Node15 -->
<g id="Node000015" class="node">
<title>Node15</title>
<g id="a_Node000015"><a xlink:title=" ">
<polygon fill="#e0e0e0" stroke="#999999" points="941,-74 869,-74 869,-55 941,-55 941,-74"/>
<text text-anchor="middle" x="905" y="-62" font-family="Helvetica,sans-Serif" font-size="10.00">netinet/in.h</text>
</a>
</g>
</g>
<!-- Node14&#45;&gt;Node15 -->
<g id="edge25_Node000014_Node000015" class="edge">
<title>Node14&#45;&gt;Node15</title>
<g id="a_edge25_Node000014_Node000015"><a xlink:title=" ">
<path fill="none" stroke="#63b8ff" d="M1010.76,-109.98C990.3,-101.38 958.47,-87.99 935.07,-78.15"/>
<polygon fill="#63b8ff" stroke="#63b8ff" points="936.19,-74.82 925.61,-74.17 933.47,-81.27 936.19,-74.82"/>
</a>
</g>
</g>
<!-- Node16 -->
<g id="Node000016" class="node">
<title>Node16</title>
<g id="a_Node000016"><a xlink:title=" ">
<polygon fill="#e0e0e0" stroke="#999999" points="1036.5,-74 959.5,-74 959.5,-55 1036.5,-55 1036.5,-74"/>
<text text-anchor="middle" x="998" y="-62" font-family="Helvetica,sans-Serif" font-size="10.00">sys/socket.h</text>
</a>
</g>
</g>
<!-- Node14&#45;&gt;Node16 -->
<g id="edge27_Node000014_Node000016" class="edge">
<title>Node14&#45;&gt;Node16</title>
<g id="a_edge27_Node000014_Node000016"><a xlink:title=" ">
<path fill="none" stroke="#63b8ff" d="M1025.55,-109.75C1020.99,-102.42 1014.33,-91.73 1008.71,-82.7"/>
<polygon fill="#63b8ff" stroke="#63b8ff" points="1011.6,-80.73 1003.35,-74.09 1005.66,-84.43 1011.6,-80.73"/>
</a>
</g>
</g>
<!-- Node14&#45;&gt;Node17 -->
<g id="edge28_Node000014_Node000017" class="edge">
<title>Node14&#45;&gt;Node17</title>
<g id="a_edge28_Node000014_Node000017"><a xlink:title=" ">
<path fill="none" stroke="#63b8ff" d="M1045.46,-109.98C1059.42,-101.77 1080.79,-89.18 1097.25,-79.49"/>
<polygon fill="#63b8ff" stroke="#63b8ff" points="1099.44,-82.26 1106.28,-74.17 1095.88,-76.23 1099.44,-82.26"/>
</a>
</g>
</g>
<!-- Node18&#45;&gt;Node5 -->
<g id="edge33_Node000018_Node000005" class="edge">
<title>Node18&#45;&gt;Node5</title>
<g id="a_edge33_Node000018_Node000005"><a xlink:title=" ">
<path fill="none" stroke="#63b8ff" d="M750.05,-170.35C799.67,-164.47 881.4,-148.7 853,-110 809.62,-50.9 577,-22.18 490.99,-13.46"/>
<polygon fill="#63b8ff" stroke="#63b8ff" points="491.31,-9.98 481.02,-12.48 490.63,-16.95 491.31,-9.98"/>
</a>
</g>
</g>
<!-- Node18&#45;&gt;Node8 -->
<g id="edge31_Node000018_Node000008" class="edge">
<title>Node18&#45;&gt;Node8</title>
<g id="a_edge31_Node000018_Node000008"><a xlink:title=" ">
<path fill="none" stroke="#63b8ff" d="M750.22,-168.52C794.97,-160.73 863.39,-143.01 837,-110 817.65,-85.79 731.05,-73.79 679.33,-68.69"/>
<polygon fill="#63b8ff" stroke="#63b8ff" points="679.45,-65.18 669.17,-67.73 678.79,-72.15 679.45,-65.18"/>
</a>
</g>
</g>
<!-- Node19 -->
<g id="Node000019" class="node">
<title>Node19</title>
<g id="a_Node000019"><a xlink:title=" ">
<polygon fill="#e0e0e0" stroke="#999999" points="828,-129 780,-129 780,-110 828,-110 828,-129"/>
<text text-anchor="middle" x="804" y="-117" font-family="Helvetica,sans-Serif" font-size="10.00">mutex</text>
</a>
</g>
</g>
<!-- Node18&#45;&gt;Node19 -->
<g id="edge32_Node000018_Node000019" class="edge">
<title>Node18&#45;&gt;Node19</title>
<g id="a_edge32_Node000018_Node000019"><a xlink:title=" ">
<path fill="none" stroke="#63b8ff" d="M729.3,-164.98C743.1,-156.77 764.24,-144.18 780.51,-134.49"/>
<polygon fill="#63b8ff" stroke="#63b8ff" points="782.64,-137.29 789.44,-129.17 779.06,-131.28 782.64,-137.29"/>
</a>
</g>
</g>
<!-- Node20 -->
<g id="Node000020" class="node">
<title>Node20</title>
<g id="a_Node000020"><a xlink:title=" ">
<polygon fill="#e0e0e0" stroke="#999999" points="761.5,-129 668.5,-129 668.5,-110 761.5,-110 761.5,-129"/>
<text text-anchor="middle" x="715" y="-117" font-family="Helvetica,sans-Serif" font-size="10.00">unordered_map</text>
</a>
</g>
</g>
<!-- Node18&#45;&gt;Node20 -->
<g id="edge34_Node000018_Node000020" class="edge">
<title>Node18&#45;&gt;Node20</title>
<g id="a_edge34_Node000018_Node000020"><a xlink:title=" ">
<path fill="none" stroke="#63b8ff" d="M715,-164.75C715,-157.8 715,-147.85 715,-139.13"/>
<polygon fill="#63b8ff" stroke="#63b8ff" points="718.5,-139.09 715,-129.09 711.5,-139.09 718.5,-139.09"/>
</a>
</g>
</g>
<!-- Node21 -->
<g id="Node000021" class="node">
<title>Node21</title>
<g id="a_Node000021"><a xlink:href="file__id_8hpp.html" target="_top" xlink:title=" ">
<polygon fill="white" stroke="#666666" points="483.5,-129 416.5,-129 416.5,-110 483.5,-110 483.5,-129"/>
<text text-anchor="middle" x="450" y="-117" font-family="Helvetica,sans-Serif" font-size="10.00">file_id.hpp</text>
</a>
</g>
</g>
<!-- Node18&#45;&gt;Node21 -->
<g id="edge35_Node000018_Node000021" class="edge">
<title>Node18&#45;&gt;Node21</title>
<g id="a_edge35_Node000018_Node000021"><a xlink:title=" ">
<path fill="none" stroke="#63b8ff" d="M679.81,-166.46C631.76,-156.85 545.68,-139.64 493.6,-129.22"/>
<polygon fill="#63b8ff" stroke="#63b8ff" points="494.15,-125.76 483.66,-127.23 492.78,-132.63 494.15,-125.76"/>
</a>
</g>
</g>
<!-- Node22 -->
<g id="Node000022" class="node">
<title>Node22</title>
<g id="a_Node000022"><a xlink:href="partfile_8hpp.html" target="_top" xlink:title=" ">
<polygon fill="white" stroke="#666666" points="574,-129 502,-129 502,-110 574,-110 574,-129"/>
<text text-anchor="middle" x="538" y="-117" font-family="Helvetica,sans-Serif" font-size="10.00">partfile.hpp</text>
</a>
</g>
</g>
<!-- Node18&#45;&gt;Node22 -->
<g id="edge37_Node000018_Node000022" class="edge">
<title>Node18&#45;&gt;Node22</title>
<g id="a_edge37_Node000018_Node000022"><a xlink:title=" ">
<path fill="none" stroke="#63b8ff" d="M686.56,-164.98C656.72,-156.05 609.62,-141.94 576.47,-132.02"/>
<polygon fill="#63b8ff" stroke="#63b8ff" points="577.24,-128.6 566.66,-129.08 575.24,-135.3 577.24,-128.6"/>
</a>
</g>
</g>
<!-- Node21&#45;&gt;Node5 -->
<g id="edge36_Node000021_Node000005" class="edge">
<title>Node21&#45;&gt;Node5</title>
<g id="a_edge36_Node000021_Node000005"><a xlink:title=" ">
<path fill="none" stroke="#63b8ff" d="M470.2,-109.91C484.47,-102.64 502.51,-90.71 511,-74 520.65,-55.01 501.29,-36.54 483.51,-24.46"/>
<polygon fill="#63b8ff" stroke="#63b8ff" points="485.36,-21.49 475.05,-19.07 481.6,-27.39 485.36,-21.49"/>
</a>
</g>
</g>
<!-- Node22&#45;&gt;Node2 -->
<g id="edge41_Node000022_Node000002" class="edge">
<title>Node22&#45;&gt;Node2</title>
<g id="a_edge41_Node000022_Node000002"><a xlink:title=" ">
<path fill="none" stroke="#63b8ff" d="M501.85,-111.76C498.52,-111.15 495.2,-110.56 492,-110 422.06,-97.73 341.7,-84.5 287.36,-75.69"/>
<polygon fill="#63b8ff" stroke="#63b8ff" points="287.62,-72.18 277.19,-74.04 286.5,-79.09 287.62,-72.18"/>
</a>
</g>
</g>
<!-- Node22&#45;&gt;Node5 -->
<g id="edge39_Node000022_Node000005" class="edge">
<title>Node22&#45;&gt;Node5</title>
<g id="a_edge39_Node000022_Node000005"><a xlink:title=" ">
<path fill="none" stroke="#63b8ff" d="M538.58,-109.92C539.03,-96.93 538.18,-72.02 527,-55 518,-41.3 503.16,-30.87 489.64,-23.56"/>
<polygon fill="#63b8ff" stroke="#63b8ff" points="491.08,-20.37 480.57,-19 487.93,-26.62 491.08,-20.37"/>
</a>
</g>
</g>
<!-- Node22&#45;&gt;Node8 -->
<g id="edge38_Node000022_Node000008" class="edge">
<title>Node22&#45;&gt;Node8</title>
<g id="a_edge38_Node000022_Node000008"><a xlink:title=" ">
<path fill="none" stroke="#63b8ff" d="M554.39,-109.98C570.57,-101.57 595.57,-88.59 614.38,-78.81"/>
<polygon fill="#63b8ff" stroke="#63b8ff" points="616.05,-81.89 623.31,-74.17 612.83,-75.68 616.05,-81.89"/>
</a>
</g>
</g>
<!-- Node22&#45;&gt;Node10 -->
<g id="edge40_Node000022_Node000010" class="edge">
<title>Node22&#45;&gt;Node10</title>
<g id="a_edge40_Node000022_Node000010"><a xlink:title=" ">
<path fill="none" stroke="#63b8ff" d="M525.31,-109.98C513.17,-101.84 494.64,-89.41 480.25,-79.76"/>
<polygon fill="#63b8ff" stroke="#63b8ff" points="482.18,-76.84 471.92,-74.17 478.28,-82.65 482.18,-76.84"/>
</a>
</g>
</g>
<!-- Node23&#45;&gt;Node2 -->
<g id="edge49_Node000023_Node000002" class="edge">
<title>Node23&#45;&gt;Node2</title>
<g id="a_edge49_Node000023_Node000002"><a xlink:title=" ">
<path fill="none" stroke="#63b8ff" d="M414.22,-172.23C353.99,-169.26 236.42,-159.59 211,-129 200.47,-116.32 206.24,-97.37 213.11,-83.47"/>
<polygon fill="#63b8ff" stroke="#63b8ff" points="216.34,-84.85 218.09,-74.4 210.21,-81.48 216.34,-84.85"/>
</a>
</g>
</g>
<!-- Node23&#45;&gt;Node5 -->
<g id="edge45_Node000023_Node000005" class="edge">
<title>Node23&#45;&gt;Node5</title>
<g id="a_edge45_Node000023_Node000005"><a xlink:title=" ">
<path fill="none" stroke="#63b8ff" d="M437.51,-164.93C427.13,-156.99 413.12,-144.14 407,-129 394.67,-98.51 393.25,-84.87 407,-55 412.75,-42.52 423.91,-32.24 434.42,-24.71"/>
<polygon fill="#63b8ff" stroke="#63b8ff" points="436.57,-27.49 442.97,-19.05 432.7,-21.65 436.57,-27.49"/>
</a>
</g>
</g>
<!-- Node23&#45;&gt;Node8 -->
<g id="edge43_Node000023_Node000008" class="edge">
<title>Node23&#45;&gt;Node8</title>
<g id="a_edge43_Node000023_Node000008"><a xlink:title=" ">
<path fill="none" stroke="#63b8ff" d="M485.53,-173.07C522.5,-170.75 579.94,-161.64 616,-129 628.69,-117.52 634.7,-98.63 637.53,-84.44"/>
<polygon fill="#63b8ff" stroke="#63b8ff" points="641.03,-84.72 639.19,-74.29 634.12,-83.6 641.03,-84.72"/>
</a>
</g>
</g>
<!-- Node23&#45;&gt;Node9 -->
<g id="edge48_Node000023_Node000009" class="edge">
<title>Node23&#45;&gt;Node9</title>
<g id="a_edge48_Node000023_Node000009"><a xlink:title=" ">
<path fill="none" stroke="#63b8ff" d="M421.24,-164.98C391.06,-156.05 343.43,-141.94 309.9,-132.02"/>
<polygon fill="#63b8ff" stroke="#63b8ff" points="310.57,-128.57 299.98,-129.08 308.58,-135.28 310.57,-128.57"/>
</a>
</g>
</g>
<!-- Node23&#45;&gt;Node11 -->
<g id="edge47_Node000023_Node000011" class="edge">
<title>Node23&#45;&gt;Node11</title>
<g id="a_edge47_Node000023_Node000011"><a xlink:title=" ">
<path fill="none" stroke="#63b8ff" d="M414.26,-171.63C364.91,-168.04 273.87,-157.79 202,-129 172.35,-117.12 142.3,-95.32 123.91,-80.62"/>
<polygon fill="#63b8ff" stroke="#63b8ff" points="125.83,-77.67 115.87,-74.05 121.4,-83.09 125.83,-77.67"/>
</a>
</g>
</g>
<!-- Node23&#45;&gt;Node19 -->
<g id="edge44_Node000023_Node000019" class="edge">
<title>Node23&#45;&gt;Node19</title>
<g id="a_edge44_Node000023_Node000019"><a xlink:title=" ">
<path fill="none" stroke="#63b8ff" d="M485.85,-169.88C543.66,-163.76 661.19,-150.1 770.09,-128.97"/>
<polygon fill="#63b8ff" stroke="#63b8ff" points="770.79,-132.4 779.92,-127.04 769.43,-125.54 770.79,-132.4"/>
</a>
</g>
</g>
<!-- Node23&#45;&gt;Node20 -->
<g id="edge46_Node000023_Node000020" class="edge">
<title>Node23&#45;&gt;Node20</title>
<g id="a_edge46_Node000023_Node000020"><a xlink:title=" ">
<path fill="none" stroke="#63b8ff" d="M485.74,-166.35C531.17,-157.27 609.97,-141.51 662.3,-131.04"/>
<polygon fill="#63b8ff" stroke="#63b8ff" points="663.27,-134.41 672.39,-129.02 661.9,-127.55 663.27,-134.41"/>
</a>
</g>
</g>
<!-- Node23&#45;&gt;Node21 -->
<g id="edge50_Node000023_Node000021" class="edge">
<title>Node23&#45;&gt;Node21</title>
<g id="a_edge50_Node000023_Node000021"><a xlink:title=" ">
<path fill="none" stroke="#63b8ff" d="M450,-164.75C450,-157.8 450,-147.85 450,-139.13"/>
<polygon fill="#63b8ff" stroke="#63b8ff" points="453.5,-139.09 450,-129.09 446.5,-139.09 453.5,-139.09"/>
</a>
</g>
</g>
</g>
</svg>
