<?xml version="1.0" encoding="UTF-8" standalone="no"?>
<!DOCTYPE svg PUBLIC "-//W3C//DTD SVG 1.1//EN"
 "http://www.w3.org/Graphics/SVG/1.1/DTD/svg11.dtd">
<!-- Generated by graphviz version 2.43.0 (0)
 -->
<!-- Title: src/client/process_request.cpp Pages: 1 -->
<svg width="1303pt" height="313pt"
 viewBox="0.00 0.00 1302.50 313.00" xmlns="http://www.w3.org/2000/svg" xmlns:xlink="http://www.w3.org/1999/xlink">
<g id="graph0" class="graph" transform="scale(1 1) rotate(0) translate(4 309)">
<title>src/client/process_request.cpp</title>
<!-- Node1 -->
<g id="Node000001" class="node">
<title>Node1</title>
<g id="a_Node000001"><a xlink:title=" ">
<polygon fill="#999999" stroke="#666666" points="1213.5,-305 1112.5,-305 1112.5,-275 1213.5,-275 1213.5,-305"/>
<text text-anchor="start" x="1120.5" y="-293" font-family="Helvetica,sans-Serif" font-size="10.00">src/client/process</text>
<text text-anchor="middle" x="1163" y="-282" font-family="Helvetica,sans-Serif" font-size="10.00">_request.cpp</text>
</a>
</g>
</g>
<!-- Node2 -->
<g id="Node000002" class="node">
<title>Node2</title>
<g id="a_Node000002"><a xlink:href="client_2process__request_8hpp.html" target="_top" xlink:title=" ">
<polygon fill="white" stroke="#666666" points="915.5,-239 798.5,-239 798.5,-220 915.5,-220 915.5,-239"/>
<text text-anchor="middle" x="857" y="-227" font-family="Helvetica,sans-Serif" font-size="10.00">process_request.hpp</text>
</a>
</g>
</g>
<!-- Node1&#45;&gt;Node2 -->
<g id="edge1_Node000001_Node000002" class="edge">
<title>Node1&#45;&gt;Node2</title>
<g id="a_edge1_Node000001_Node000002"><a xlink:title=" ">
<path fill="none" stroke="#63b8ff" d="M1112.47,-279.34C1057.06,-268.75 968.47,-251.81 911.53,-240.92"/>
<polygon fill="#63b8ff" stroke="#63b8ff" points="912.11,-237.47 901.63,-239.03 910.79,-244.35 912.11,-237.47"/>
</a>
</g>
</g>
<!-- Node4 -->
<g id="Node000004" class="node">
<title>Node4</title>
<g id="a_Node000004"><a xlink:title=" ">
<polygon fill="#e0e0e0" stroke="#999999" points="377,-19 333,-19 333,0 377,0 377,-19"/>
<text text-anchor="middle" x="355" y="-7" font-family="Helvetica,sans-Serif" font-size="10.00">string</text>
</a>
</g>
</g>
<!-- Node1&#45;&gt;Node4 -->
<g id="edge48_Node000001_Node000004" class="edge">
<title>Node1&#45;&gt;Node4</title>
<g id="a_edge48_Node000001_Node000004"><a xlink:title=" ">
<path fill="none" stroke="#63b8ff" d="M1112.37,-288.67C908.17,-286.7 156,-272.81 156,-175.5 156,-175.5 156,-175.5 156,-118.5 156,-43.53 266.44,-20.33 322.77,-13.36"/>
<polygon fill="#63b8ff" stroke="#63b8ff" points="323.4,-16.81 332.94,-12.21 322.61,-9.86 323.4,-16.81"/>
</a>
</g>
</g>
<!-- Node11 -->
<g id="Node000011" class="node">
<title>Node11</title>
<g id="a_Node000011"><a xlink:title=" ">
<polygon fill="#e0e0e0" stroke="#999999" points="1191,-74 1135,-74 1135,-55 1191,-55 1191,-74"/>
<text text-anchor="middle" x="1163" y="-62" font-family="Helvetica,sans-Serif" font-size="10.00">unistd.h</text>
</a>
</g>
</g>
<!-- Node1&#45;&gt;Node11 -->
<g id="edge49_Node000001_Node000011" class="edge">
<title>Node1&#45;&gt;Node11</title>
<g id="a_edge49_Node000001_Node000011"><a xlink:title=" ">
<path fill="none" stroke="#63b8ff" d="M1163,-274.68C1163,-235.76 1163,-128.07 1163,-84.33"/>
<polygon fill="#63b8ff" stroke="#63b8ff" points="1166.5,-84.23 1163,-74.23 1159.5,-84.23 1166.5,-84.23"/>
</a>
</g>
</g>
<!-- Node20 -->
<g id="Node000020" class="node">
<title>Node20</title>
<g id="a_Node000020"><a xlink:title=" ">
<polygon fill="#e0e0e0" stroke="#999999" points="547,-19 491,-19 491,0 547,0 547,-19"/>
<text text-anchor="middle" x="519" y="-7" font-family="Helvetica,sans-Serif" font-size="10.00">sstream</text>
</a>
</g>
</g>
<!-- Node1&#45;&gt;Node20 -->
<g id="edge47_Node000001_Node000020" class="edge">
<title>Node1&#45;&gt;Node20</title>
<g id="a_edge47_Node000001_Node000020"><a xlink:title=" ">
<path fill="none" stroke="#63b8ff" d="M1175.43,-274.7C1191.93,-254.21 1219,-214.61 1219,-175.5 1219,-175.5 1219,-175.5 1219,-118.5 1219,-89.04 1223.04,-73.35 1200,-55 1149.64,-14.88 693.85,-10.81 557.41,-10.49"/>
<polygon fill="#63b8ff" stroke="#63b8ff" points="557.05,-6.99 547.04,-10.48 557.04,-13.99 557.05,-6.99"/>
</a>
</g>
</g>
<!-- Node23 -->
<g id="Node000023" class="node">
<title>Node23</title>
<g id="a_Node000023"><a xlink:title=" ">
<polygon fill="#e0e0e0" stroke="#999999" points="1294.5,-239 1247.5,-239 1247.5,-220 1294.5,-220 1294.5,-239"/>
<text text-anchor="middle" x="1271" y="-227" font-family="Helvetica,sans-Serif" font-size="10.00">fcntl.h</text>
</a>
</g>
</g>
<!-- Node1&#45;&gt;Node23 -->
<g id="edge46_Node000001_Node000023" class="edge">
<title>Node1&#45;&gt;Node23</title>
<g id="a_edge46_Node000001_Node000023"><a xlink:title=" ">
<path fill="none" stroke="#63b8ff" d="M1188.87,-274.99C1206.24,-265.58 1229.01,-253.24 1246.17,-243.95"/>
<polygon fill="#63b8ff" stroke="#63b8ff" points="1247.92,-246.98 1255.05,-239.14 1244.59,-240.82 1247.92,-246.98"/>
</a>
</g>
</g>
<!-- Node3 -->
<g id="Node000003" class="node">
<title>Node3</title>
<g id="a_Node000003"><a xlink:title=" ">
<polygon fill="#e0e0e0" stroke="#999999" points="757,-74 699,-74 699,-55 757,-55 757,-74"/>
<text text-anchor="middle" x="728" y="-62" font-family="Helvetica,sans-Serif" font-size="10.00">memory</text>
</a>
</g>
</g>
<!-- Node2&#45;&gt;Node3 -->
<g id="edge2_Node000002_Node000003" class="edge">
<title>Node2&#45;&gt;Node3</title>
<g id="a_edge2_Node000002_Node000003"><a xlink:title=" ">
<path fill="none" stroke="#63b8ff" d="M852.31,-219.94C841.01,-199.68 810.77,-147.69 778,-110 768.8,-99.42 757.16,-88.93 747.43,-80.79"/>
<polygon fill="#63b8ff" stroke="#63b8ff" points="749.44,-77.91 739.48,-74.3 745.02,-83.34 749.44,-77.91"/>
</a>
</g>
</g>
<!-- Node2&#45;&gt;Node4 -->
<g id="edge3_Node000002_Node000004" class="edge">
<title>Node2&#45;&gt;Node4</title>
<g id="a_edge3_Node000002_Node000004"><a xlink:title=" ">
<path fill="none" stroke="#63b8ff" d="M856.48,-219.66C854.21,-190.21 842.54,-95.07 785,-55 715.76,-6.77 490.68,-29.81 407,-19 400.57,-18.17 393.71,-17.15 387.16,-16.1"/>
<polygon fill="#63b8ff" stroke="#63b8ff" points="387.66,-12.64 377.22,-14.47 386.52,-19.54 387.66,-12.64"/>
</a>
</g>
</g>
<!-- Node5 -->
<g id="Node000005" class="node">
<title>Node5</title>
<g id="a_Node000005"><a xlink:href="endpoint_8hpp.html" target="_top" xlink:title=" ">
<polygon fill="white" stroke="#666666" points="128,-74 0,-74 0,-55 128,-55 128,-74"/>
<text text-anchor="middle" x="64" y="-62" font-family="Helvetica,sans-Serif" font-size="10.00">../models/endpoint.hpp</text>
</a>
</g>
</g>
<!-- Node2&#45;&gt;Node5 -->
<g id="edge4_Node000002_Node000005" class="edge">
<title>Node2&#45;&gt;Node5</title>
<g id="a_edge4_Node000002_Node000005"><a xlink:title=" ">
<path fill="none" stroke="#63b8ff" d="M798.16,-226.45C703.4,-222.46 511.37,-211.47 351,-184 254.21,-167.42 223.93,-174.67 137,-129 114.13,-116.98 92.39,-96.48 78.68,-82.03"/>
<polygon fill="#63b8ff" stroke="#63b8ff" points="80.93,-79.32 71.58,-74.33 75.78,-84.06 80.93,-79.32"/>
</a>
</g>
</g>
<!-- Node8 -->
<g id="Node000008" class="node">
<title>Node8</title>
<g id="a_Node000008"><a xlink:href="tcp__socket_8hpp.html" target="_top" xlink:title=" ">
<polygon fill="white" stroke="#666666" points="1064.5,-129 923.5,-129 923.5,-110 1064.5,-110 1064.5,-129"/>
<text text-anchor="middle" x="994" y="-117" font-family="Helvetica,sans-Serif" font-size="10.00">../network/tcp_socket.hpp</text>
</a>
</g>
</g>
<!-- Node2&#45;&gt;Node8 -->
<g id="edge8_Node000002_Node000008" class="edge">
<title>Node2&#45;&gt;Node8</title>
<g id="a_edge8_Node000002_Node000008"><a xlink:title=" ">
<path fill="none" stroke="#63b8ff" d="M868.21,-219.66C891.61,-201.22 945.87,-158.45 974.88,-135.57"/>
<polygon fill="#63b8ff" stroke="#63b8ff" points="977.33,-138.1 983.02,-129.16 973,-132.6 977.33,-138.1"/>
</a>
</g>
</g>
<!-- Node13 -->
<g id="Node000013" class="node">
<title>Node13</title>
<g id="a_Node000013"><a xlink:href="filesdb_8hpp.html" target="_top" xlink:title=" ">
<polygon fill="white" stroke="#666666" points="752,-184 682,-184 682,-165 752,-165 752,-184"/>
<text text-anchor="middle" x="717" y="-172" font-family="Helvetica,sans-Serif" font-size="10.00">filesdb.hpp</text>
</a>
</g>
</g>
<!-- Node2&#45;&gt;Node13 -->
<g id="edge15_Node000002_Node000013" class="edge">
<title>Node2&#45;&gt;Node13</title>
<g id="a_edge15_Node000002_Node000013"><a xlink:title=" ">
<path fill="none" stroke="#63b8ff" d="M834.51,-219.98C811.48,-211.27 775.46,-197.63 749.37,-187.75"/>
<polygon fill="#63b8ff" stroke="#63b8ff" points="750.49,-184.44 739.9,-184.17 748.02,-190.98 750.49,-184.44"/>
</a>
</g>
</g>
<!-- Node21 -->
<g id="Node000021" class="node">
<title>Node21</title>
<g id="a_Node000021"><a xlink:href="peerdb_8hpp.html" target="_top" xlink:title=" ">
<polygon fill="white" stroke="#666666" points="431.5,-184 360.5,-184 360.5,-165 431.5,-165 431.5,-184"/>
<text text-anchor="middle" x="396" y="-172" font-family="Helvetica,sans-Serif" font-size="10.00">peerdb.hpp</text>
</a>
</g>
</g>
<!-- Node2&#45;&gt;Node21 -->
<g id="edge31_Node000002_Node000021" class="edge">
<title>Node2&#45;&gt;Node21</title>
<g id="a_edge31_Node000002_Node000021"><a xlink:title=" ">
<path fill="none" stroke="#63b8ff" d="M798.15,-221.73C705.06,-211.03 525.8,-190.42 441.68,-180.75"/>
<polygon fill="#63b8ff" stroke="#63b8ff" points="442,-177.27 431.67,-179.6 441.2,-184.22 442,-177.27"/>
</a>
</g>
</g>
<!-- Node5&#45;&gt;Node4 -->
<g id="edge7_Node000005_Node000004" class="edge">
<title>Node5&#45;&gt;Node4</title>
<g id="a_edge7_Node000005_Node000004"><a xlink:title=" ">
<path fill="none" stroke="#63b8ff" d="M110.75,-54.98C170.28,-44.14 271.54,-25.7 322.98,-16.33"/>
<polygon fill="#63b8ff" stroke="#63b8ff" points="323.66,-19.77 332.87,-14.53 322.4,-12.88 323.66,-19.77"/>
</a>
</g>
</g>
<!-- Node6 -->
<g id="Node000006" class="node">
<title>Node6</title>
<g id="a_Node000006"><a xlink:title=" ">
<polygon fill="#e0e0e0" stroke="#999999" points="89,-19 39,-19 39,0 89,0 89,-19"/>
<text text-anchor="middle" x="64" y="-7" font-family="Helvetica,sans-Serif" font-size="10.00">cstdint</text>
</a>
</g>
</g>
<!-- Node5&#45;&gt;Node6 -->
<g id="edge5_Node000005_Node000006" class="edge">
<title>Node5&#45;&gt;Node6</title>
<g id="a_edge5_Node000005_Node000006"><a xlink:title=" ">
<path fill="none" stroke="#63b8ff" d="M64,-54.75C64,-47.8 64,-37.85 64,-29.13"/>
<polygon fill="#63b8ff" stroke="#63b8ff" points="67.5,-29.09 64,-19.09 60.5,-29.09 67.5,-29.09"/>
</a>
</g>
</g>
<!-- Node7 -->
<g id="Node000007" class="node">
<title>Node7</title>
<g id="a_Node000007"><a xlink:title=" ">
<polygon fill="#e0e0e0" stroke="#999999" points="234.5,-19 169.5,-19 169.5,0 234.5,0 234.5,-19"/>
<text text-anchor="middle" x="202" y="-7" font-family="Helvetica,sans-Serif" font-size="10.00">stdexcept</text>
</a>
</g>
</g>
<!-- Node5&#45;&gt;Node7 -->
<g id="edge6_Node000005_Node000007" class="edge">
<title>Node5&#45;&gt;Node7</title>
<g id="a_edge6_Node000005_Node000007"><a xlink:title=" ">
<path fill="none" stroke="#63b8ff" d="M86.17,-54.98C108.77,-46.3 144.06,-32.75 169.75,-22.88"/>
<polygon fill="#63b8ff" stroke="#63b8ff" points="171.34,-26.02 179.42,-19.17 168.83,-19.49 171.34,-26.02"/>
</a>
</g>
</g>
<!-- Node8&#45;&gt;Node3 -->
<g id="edge9_Node000008_Node000003" class="edge">
<title>Node8&#45;&gt;Node3</title>
<g id="a_edge9_Node000008_Node000003"><a xlink:title=" ">
<path fill="none" stroke="#63b8ff" d="M951.26,-109.98C900.4,-99.85 816.18,-83.07 767.01,-73.27"/>
<polygon fill="#63b8ff" stroke="#63b8ff" points="767.57,-69.81 757.07,-71.29 766.2,-76.68 767.57,-69.81"/>
</a>
</g>
</g>
<!-- Node8&#45;&gt;Node4 -->
<g id="edge11_Node000008_Node000004" class="edge">
<title>Node8&#45;&gt;Node4</title>
<g id="a_edge11_Node000008_Node000004"><a xlink:title=" ">
<path fill="none" stroke="#63b8ff" d="M976.74,-109.95C943.14,-93.39 871.2,-58.24 859,-55 664.23,-3.28 607.06,-43.28 407,-19 400.56,-18.22 393.71,-17.22 387.15,-16.18"/>
<polygon fill="#63b8ff" stroke="#63b8ff" points="387.65,-12.72 377.21,-14.54 386.51,-19.62 387.65,-12.72"/>
</a>
</g>
</g>
<!-- Node9 -->
<g id="Node000009" class="node">
<title>Node9</title>
<g id="a_Node000009"><a xlink:title=" ">
<polygon fill="#e0e0e0" stroke="#999999" points="1079,-74 1007,-74 1007,-55 1079,-55 1079,-74"/>
<text text-anchor="middle" x="1043" y="-62" font-family="Helvetica,sans-Serif" font-size="10.00">netinet/in.h</text>
</a>
</g>
</g>
<!-- Node8&#45;&gt;Node9 -->
<g id="edge10_Node000008_Node000009" class="edge">
<title>Node8&#45;&gt;Node9</title>
<g id="a_edge10_Node000008_Node000009"><a xlink:title=" ">
<path fill="none" stroke="#63b8ff" d="M1002.09,-109.75C1009.16,-102.11 1019.59,-90.82 1028.15,-81.56"/>
<polygon fill="#63b8ff" stroke="#63b8ff" points="1030.84,-83.81 1035.06,-74.09 1025.7,-79.06 1030.84,-83.81"/>
</a>
</g>
</g>
<!-- Node10 -->
<g id="Node000010" class="node">
<title>Node10</title>
<g id="a_Node000010"><a xlink:title=" ">
<polygon fill="#e0e0e0" stroke="#999999" points="988.5,-74 911.5,-74 911.5,-55 988.5,-55 988.5,-74"/>
<text text-anchor="middle" x="950" y="-62" font-family="Helvetica,sans-Serif" font-size="10.00">sys/socket.h</text>
</a>
</g>
</g>
<!-- Node8&#45;&gt;Node10 -->
<g id="edge12_Node000008_Node000010" class="edge">
<title>Node8&#45;&gt;Node10</title>
<g id="a_edge12_Node000008_Node000010"><a xlink:title=" ">
<path fill="none" stroke="#63b8ff" d="M986.73,-109.75C980.46,-102.18 971.21,-91.05 963.57,-81.84"/>
<polygon fill="#63b8ff" stroke="#63b8ff" points="966.21,-79.55 957.13,-74.09 960.83,-84.02 966.21,-79.55"/>
</a>
</g>
</g>
<!-- Node8&#45;&gt;Node11 -->
<g id="edge13_Node000008_Node000011" class="edge">
<title>Node8&#45;&gt;Node11</title>
<g id="a_edge13_Node000008_Node000011"><a xlink:title=" ">
<path fill="none" stroke="#63b8ff" d="M1021.15,-109.98C1049.53,-101.09 1094.23,-87.07 1125.86,-77.15"/>
<polygon fill="#63b8ff" stroke="#63b8ff" points="1127.14,-80.41 1135.63,-74.08 1125.05,-73.73 1127.14,-80.41"/>
</a>
</g>
</g>
<!-- Node12 -->
<g id="Node000012" class="node">
<title>Node12</title>
<g id="a_Node000012"><a xlink:title=" ">
<polygon fill="#e0e0e0" stroke="#999999" points="463.5,-19 416.5,-19 416.5,0 463.5,0 463.5,-19"/>
<text text-anchor="middle" x="440" y="-7" font-family="Helvetica,sans-Serif" font-size="10.00">vector</text>
</a>
</g>
</g>
<!-- Node8&#45;&gt;Node12 -->
<g id="edge14_Node000008_Node000012" class="edge">
<title>Node8&#45;&gt;Node12</title>
<g id="a_edge14_Node000008_Node000012"><a xlink:title=" ">
<path fill="none" stroke="#63b8ff" d="M1026.78,-109.97C1062.26,-99.26 1110.89,-79.29 1088,-55 1041.74,-5.91 548.89,-27.71 482,-19 479.33,-18.65 476.57,-18.23 473.8,-17.77"/>
<polygon fill="#63b8ff" stroke="#63b8ff" points="474.36,-14.31 463.89,-15.94 473.09,-21.19 474.36,-14.31"/>
</a>
</g>
</g>
<!-- Node13&#45;&gt;Node3 -->
<g id="edge16_Node000013_Node000003" class="edge">
<title>Node13&#45;&gt;Node3</title>
<g id="a_edge16_Node000013_Node000003"><a xlink:title=" ">
<path fill="none" stroke="#63b8ff" d="M730.49,-164.75C741.29,-156.87 755.65,-144.21 762,-129 768.96,-112.34 757.25,-94.27 745.72,-81.69"/>
<polygon fill="#63b8ff" stroke="#63b8ff" points="747.9,-78.91 738.37,-74.28 742.93,-83.84 747.9,-78.91"/>
</a>
</g>
</g>
<!-- Node13&#45;&gt;Node4 -->
<g id="edge18_Node000013_Node000004" class="edge">
<title>Node13&#45;&gt;Node4</title>
<g id="a_edge18_Node000013_Node000004"><a xlink:title=" ">
<path fill="none" stroke="#63b8ff" d="M737.2,-164.91C751.47,-157.64 769.51,-145.71 778,-129 787.86,-109.61 777.4,-65.16 766,-55 706.14,-1.65 486.49,-29.47 407,-19 400.57,-18.15 393.72,-17.12 387.17,-16.08"/>
<polygon fill="#63b8ff" stroke="#63b8ff" points="387.66,-12.61 377.22,-14.44 386.52,-19.52 387.66,-12.61"/>
</a>
</g>
</g>
<!-- Node14 -->
<g id="Node000014" class="node">
<title>Node14</title>
<g id="a_Node000014"><a xlink:title=" ">
<polygon fill="#e0e0e0" stroke="#999999" points="551,-129 503,-129 503,-110 551,-110 551,-129"/>
<text text-anchor="middle" x="527" y="-117" font-family="Helvetica,sans-Serif" font-size="10.00">mutex</text>
</a>
</g>
</g>
<!-- Node13&#45;&gt;Node14 -->
<g id="edge17_Node000013_Node000014" class="edge">
<title>Node13&#45;&gt;Node14</title>
<g id="a_edge17_Node000013_Node000014"><a xlink:title=" ">
<path fill="none" stroke="#63b8ff" d="M686.47,-164.98C652.2,-155.42 596.72,-139.95 561.06,-130"/>
<polygon fill="#63b8ff" stroke="#63b8ff" points="561.7,-126.54 551.12,-127.23 559.81,-133.29 561.7,-126.54"/>
</a>
</g>
</g>
<!-- Node15 -->
<g id="Node000015" class="node">
<title>Node15</title>
<g id="a_Node000015"><a xlink:title=" ">
<polygon fill="#e0e0e0" stroke="#999999" points="662.5,-129 569.5,-129 569.5,-110 662.5,-110 662.5,-129"/>
<text text-anchor="middle" x="616" y="-117" font-family="Helvetica,sans-Serif" font-size="10.00">unordered_map</text>
</a>
</g>
</g>
<!-- Node13&#45;&gt;Node15 -->
<g id="edge19_Node000013_Node000015" class="edge">
<title>Node13&#45;&gt;Node15</title>
<g id="a_edge19_Node000013_Node000015"><a xlink:title=" ">
<path fill="none" stroke="#63b8ff" d="M700.77,-164.98C684.82,-156.61 660.22,-143.7 641.62,-133.95"/>
<polygon fill="#63b8ff" stroke="#63b8ff" points="643,-130.72 632.52,-129.17 639.75,-136.92 643,-130.72"/>
</a>
</g>
</g>
<!-- Node16 -->
<g id="Node000016" class="node">
<title>Node16</title>
<g id="a_Node000016"><a xlink:href="file__id_8hpp.html" target="_top" xlink:title=" ">
<polygon fill="white" stroke="#666666" points="327.5,-129 260.5,-129 260.5,-110 327.5,-110 327.5,-129"/>
<text text-anchor="middle" x="294" y="-117" font-family="Helvetica,sans-Serif" font-size="10.00">file_id.hpp</text>
</a>
</g>
</g>
<!-- Node13&#45;&gt;Node16 -->
<g id="edge20_Node000013_Node000016" class="edge">
<title>Node13&#45;&gt;Node16</title>
<g id="a_edge20_Node000013_Node000016"><a xlink:title=" ">
<path fill="none" stroke="#63b8ff" d="M681.93,-170.39C616.27,-164.36 470.13,-149.92 337.79,-129.18"/>
<polygon fill="#63b8ff" stroke="#63b8ff" points="338.31,-125.72 327.88,-127.61 337.21,-132.63 338.31,-125.72"/>
</a>
</g>
</g>
<!-- Node17 -->
<g id="Node000017" class="node">
<title>Node17</title>
<g id="a_Node000017"><a xlink:href="partfile_8hpp.html" target="_top" xlink:title=" ">
<polygon fill="white" stroke="#666666" points="753,-129 681,-129 681,-110 753,-110 753,-129"/>
<text text-anchor="middle" x="717" y="-117" font-family="Helvetica,sans-Serif" font-size="10.00">partfile.hpp</text>
</a>
</g>
</g>
<!-- Node13&#45;&gt;Node17 -->
<g id="edge22_Node000013_Node000017" class="edge">
<title>Node13&#45;&gt;Node17</title>
<g id="a_edge22_Node000013_Node000017"><a xlink:title=" ">
<path fill="none" stroke="#63b8ff" d="M717,-164.75C717,-157.8 717,-147.85 717,-139.13"/>
<polygon fill="#63b8ff" stroke="#63b8ff" points="720.5,-139.09 717,-129.09 713.5,-139.09 720.5,-139.09"/>
</a>
</g>
</g>
<!-- Node16&#45;&gt;Node4 -->
<g id="edge21_Node000016_Node000004" class="edge">
<title>Node16&#45;&gt;Node4</title>
<g id="a_edge21_Node000016_Node000004"><a xlink:title=" ">
<path fill="none" stroke="#63b8ff" d="M298.99,-109.66C309.05,-91.85 331.92,-51.37 345.11,-28.01"/>
<polygon fill="#63b8ff" stroke="#63b8ff" points="348.24,-29.59 350.11,-19.16 342.14,-26.14 348.24,-29.59"/>
</a>
</g>
</g>
<!-- Node17&#45;&gt;Node3 -->
<g id="edge23_Node000017_Node000003" class="edge">
<title>Node17&#45;&gt;Node3</title>
<g id="a_edge23_Node000017_Node000003"><a xlink:title=" ">
<path fill="none" stroke="#63b8ff" d="M718.82,-109.75C720.26,-102.8 722.32,-92.85 724.13,-84.13"/>
<polygon fill="#63b8ff" stroke="#63b8ff" points="727.61,-84.59 726.22,-74.09 720.76,-83.17 727.61,-84.59"/>
</a>
</g>
</g>
<!-- Node17&#45;&gt;Node4 -->
<g id="edge24_Node000017_Node000004" class="edge">
<title>Node17&#45;&gt;Node4</title>
<g id="a_edge24_Node000017_Node000004"><a xlink:title=" ">
<path fill="none" stroke="#63b8ff" d="M709.97,-109.8C698.04,-95.7 672.36,-68.12 644,-55 547.31,-10.26 512.24,-35.59 407,-19 400.54,-17.98 393.63,-16.87 387.02,-15.79"/>
<polygon fill="#63b8ff" stroke="#63b8ff" points="387.44,-12.31 377,-14.15 386.31,-19.22 387.44,-12.31"/>
</a>
</g>
</g>
<!-- Node18 -->
<g id="Node000018" class="node">
<title>Node18</title>
<g id="a_Node000018"><a xlink:title=" ">
<polygon fill="#e0e0e0" stroke="#999999" points="635,-74 549,-74 549,-55 635,-55 635,-74"/>
<text text-anchor="middle" x="592" y="-62" font-family="Helvetica,sans-Serif" font-size="10.00">unordered_set</text>
</a>
</g>
</g>
<!-- Node17&#45;&gt;Node18 -->
<g id="edge25_Node000017_Node000018" class="edge">
<title>Node17&#45;&gt;Node18</title>
<g id="a_edge25_Node000017_Node000018"><a xlink:title=" ">
<path fill="none" stroke="#63b8ff" d="M696.92,-109.98C676.63,-101.38 645.04,-87.99 621.83,-78.15"/>
<polygon fill="#63b8ff" stroke="#63b8ff" points="623.02,-74.85 612.45,-74.17 620.29,-81.3 623.02,-74.85"/>
</a>
</g>
</g>
<!-- Node19 -->
<g id="Node000019" class="node">
<title>Node19</title>
<g id="a_Node000019"><a xlink:href="fileinfo_8hpp.html" target="_top" xlink:title=" ">
<polygon fill="white" stroke="#666666" points="490.5,-74 371.5,-74 371.5,-55 490.5,-55 490.5,-74"/>
<text text-anchor="middle" x="431" y="-62" font-family="Helvetica,sans-Serif" font-size="10.00">../models/fileinfo.hpp</text>
</a>
</g>
</g>
<!-- Node17&#45;&gt;Node19 -->
<g id="edge26_Node000017_Node000019" class="edge">
<title>Node17&#45;&gt;Node19</title>
<g id="a_edge26_Node000017_Node000019"><a xlink:title=" ">
<path fill="none" stroke="#63b8ff" d="M680.78,-111.79C632,-102.75 544.71,-86.57 487.33,-75.94"/>
<polygon fill="#63b8ff" stroke="#63b8ff" points="487.8,-72.47 477.33,-74.09 486.52,-79.35 487.8,-72.47"/>
</a>
</g>
</g>
<!-- Node19&#45;&gt;Node4 -->
<g id="edge29_Node000019_Node000004" class="edge">
<title>Node19&#45;&gt;Node4</title>
<g id="a_edge29_Node000019_Node000004"><a xlink:title=" ">
<path fill="none" stroke="#63b8ff" d="M418.79,-54.98C407.22,-46.92 389.62,-34.65 375.84,-25.03"/>
<polygon fill="#63b8ff" stroke="#63b8ff" points="377.64,-22.02 367.43,-19.17 373.63,-27.76 377.64,-22.02"/>
</a>
</g>
</g>
<!-- Node19&#45;&gt;Node7 -->
<g id="edge28_Node000019_Node000007" class="edge">
<title>Node19&#45;&gt;Node7</title>
<g id="a_edge28_Node000019_Node000007"><a xlink:title=" ">
<path fill="none" stroke="#63b8ff" d="M394.21,-54.98C353.36,-45.53 287.52,-30.29 244.5,-20.34"/>
<polygon fill="#63b8ff" stroke="#63b8ff" points="245.15,-16.9 234.62,-18.05 243.58,-23.71 245.15,-16.9"/>
</a>
</g>
</g>
<!-- Node19&#45;&gt;Node12 -->
<g id="edge30_Node000019_Node000012" class="edge">
<title>Node19&#45;&gt;Node12</title>
<g id="a_edge30_Node000019_Node000012"><a xlink:title=" ">
<path fill="none" stroke="#63b8ff" d="M432.49,-54.75C433.67,-47.8 435.36,-37.85 436.84,-29.13"/>
<polygon fill="#63b8ff" stroke="#63b8ff" points="440.32,-29.53 438.54,-19.09 433.42,-28.36 440.32,-29.53"/>
</a>
</g>
</g>
<!-- Node19&#45;&gt;Node20 -->
<g id="edge27_Node000019_Node000020" class="edge">
<title>Node19&#45;&gt;Node20</title>
<g id="a_edge27_Node000019_Node000020"><a xlink:title=" ">
<path fill="none" stroke="#63b8ff" d="M445.14,-54.98C458.79,-46.77 479.69,-34.18 495.78,-24.49"/>
<polygon fill="#63b8ff" stroke="#63b8ff" points="497.84,-27.33 504.6,-19.17 494.23,-21.33 497.84,-27.33"/>
</a>
</g>
</g>
<!-- Node21&#45;&gt;Node3 -->
<g id="edge32_Node000021_Node000003" class="edge">
<title>Node21&#45;&gt;Node3</title>
<g id="a_edge32_Node000021_Node000003"><a xlink:title=" ">
<path fill="none" stroke="#63b8ff" d="M406.4,-164.78C423.51,-150.91 459.19,-123.96 494,-110 528.78,-96.05 631.58,-79.55 688.67,-71.1"/>
<polygon fill="#63b8ff" stroke="#63b8ff" points="689.38,-74.53 698.77,-69.62 688.37,-67.61 689.38,-74.53"/>
</a>
</g>
</g>
<!-- Node21&#45;&gt;Node4 -->
<g id="edge34_Node000021_Node000004" class="edge">
<title>Node21&#45;&gt;Node4</title>
<g id="a_edge34_Node000021_Node000004"><a xlink:title=" ">
<path fill="none" stroke="#63b8ff" d="M360.49,-168.3C319.35,-161.47 255.36,-148.06 241,-129 209.38,-87.03 282.18,-44.15 325.57,-23.37"/>
<polygon fill="#63b8ff" stroke="#63b8ff" points="327.27,-26.44 334.86,-19.04 324.32,-20.09 327.27,-26.44"/>
</a>
</g>
</g>
<!-- Node21&#45;&gt;Node5 -->
<g id="edge36_Node000021_Node000005" class="edge">
<title>Node21&#45;&gt;Node5</title>
<g id="a_edge36_Node000021_Node000005"><a xlink:title=" ">
<path fill="none" stroke="#63b8ff" d="M360.32,-169.46C316.74,-163.77 241.28,-151.51 180,-129 144.96,-116.13 107.63,-93.99 85.06,-79.55"/>
<polygon fill="#63b8ff" stroke="#63b8ff" points="86.91,-76.58 76.62,-74.06 83.1,-82.45 86.91,-76.58"/>
</a>
</g>
</g>
<!-- Node21&#45;&gt;Node14 -->
<g id="edge33_Node000021_Node000014" class="edge">
<title>Node21&#45;&gt;Node14</title>
<g id="a_edge33_Node000021_Node000014"><a xlink:title=" ">
<path fill="none" stroke="#63b8ff" d="M417.05,-164.98C438.41,-156.34 471.7,-142.87 496.06,-133.02"/>
<polygon fill="#63b8ff" stroke="#63b8ff" points="497.61,-136.17 505.57,-129.17 494.99,-129.68 497.61,-136.17"/>
</a>
</g>
</g>
<!-- Node21&#45;&gt;Node15 -->
<g id="edge35_Node000021_Node000015" class="edge">
<title>Node21&#45;&gt;Node15</title>
<g id="a_edge35_Node000021_Node000015"><a xlink:title=" ">
<path fill="none" stroke="#63b8ff" d="M431.35,-164.98C469.16,-155.87 529.26,-141.4 570.57,-131.45"/>
<polygon fill="#63b8ff" stroke="#63b8ff" points="571.47,-134.83 580.38,-129.08 569.83,-128.02 571.47,-134.83"/>
</a>
</g>
</g>
<!-- Node21&#45;&gt;Node16 -->
<g id="edge45_Node000021_Node000016" class="edge">
<title>Node21&#45;&gt;Node16</title>
<g id="a_edge45_Node000021_Node000016"><a xlink:title=" ">
<path fill="none" stroke="#63b8ff" d="M379.61,-164.98C363.43,-156.57 338.43,-143.59 319.62,-133.81"/>
<polygon fill="#63b8ff" stroke="#63b8ff" points="321.17,-130.68 310.69,-129.17 317.95,-136.89 321.17,-130.68"/>
</a>
</g>
</g>
<!-- Node21&#45;&gt;Node19 -->
<g id="edge44_Node000021_Node000019" class="edge">
<title>Node21&#45;&gt;Node19</title>
<g id="a_edge44_Node000021_Node000019"><a xlink:title=" ">
<path fill="none" stroke="#63b8ff" d="M360.22,-170.66C307.89,-165.12 219.91,-149.71 251,-110 264.79,-92.39 316.66,-80.78 361.2,-73.85"/>
<polygon fill="#63b8ff" stroke="#63b8ff" points="361.79,-77.3 371.16,-72.36 360.76,-70.38 361.79,-77.3"/>
</a>
</g>
</g>
<!-- Node22 -->
<g id="Node000022" class="node">
<title>Node22</title>
<g id="a_Node000022"><a xlink:href="file_8hpp.html" target="_top" xlink:title=" ">
<polygon fill="white" stroke="#666666" points="446.5,-129 345.5,-129 345.5,-110 446.5,-110 446.5,-129"/>
<text text-anchor="middle" x="396" y="-117" font-family="Helvetica,sans-Serif" font-size="10.00">../models/file.hpp</text>
</a>
</g>
</g>
<!-- Node21&#45;&gt;Node22 -->
<g id="edge37_Node000021_Node000022" class="edge">
<title>Node21&#45;&gt;Node22</title>
<g id="a_edge37_Node000021_Node000022"><a xlink:title=" ">
<path fill="none" stroke="#63b8ff" d="M396,-164.75C396,-157.8 396,-147.85 396,-139.13"/>
<polygon fill="#63b8ff" stroke="#63b8ff" points="399.5,-139.09 396,-129.09 392.5,-139.09 399.5,-139.09"/>
</a>
</g>
</g>
<!-- Node22&#45;&gt;Node3 -->
<g id="edge38_Node000022_Node000003" class="edge">
<title>Node22&#45;&gt;Node3</title>
<g id="a_edge38_Node000022_Node000003"><a xlink:title=" ">
<path fill="none" stroke="#63b8ff" d="M446.79,-110.39C513.27,-99.78 628.42,-81.4 688.67,-71.78"/>
<polygon fill="#63b8ff" stroke="#63b8ff" points="689.58,-75.18 698.91,-70.14 688.48,-68.26 689.58,-75.18"/>
</a>
</g>
</g>
<!-- Node22&#45;&gt;Node4 -->
<g id="edge39_Node000022_Node000004" class="edge">
<title>Node22&#45;&gt;Node4</title>
<g id="a_edge39_Node000022_Node000004"><a xlink:title=" ">
<path fill="none" stroke="#63b8ff" d="M387.07,-109.88C379.03,-101.52 367.64,-88.08 362,-74 356.26,-59.67 354.69,-42.14 354.46,-29.14"/>
<polygon fill="#63b8ff" stroke="#63b8ff" points="357.96,-29.09 354.52,-19.07 350.96,-29.04 357.96,-29.09"/>
</a>
</g>
</g>
<!-- Node22&#45;&gt;Node5 -->
<g id="edge42_Node000022_Node000005" class="edge">
<title>Node22&#45;&gt;Node5</title>
<g id="a_edge42_Node000022_Node000005"><a xlink:title=" ">
<path fill="none" stroke="#63b8ff" d="M345.21,-110.39C286.8,-101.07 190.82,-85.75 127.51,-75.64"/>
<polygon fill="#63b8ff" stroke="#63b8ff" points="127.68,-72.12 117.25,-74 126.58,-79.03 127.68,-72.12"/>
</a>
</g>
</g>
<!-- Node22&#45;&gt;Node18 -->
<g id="edge41_Node000022_Node000018" class="edge">
<title>Node22&#45;&gt;Node18</title>
<g id="a_edge41_Node000022_Node000018"><a xlink:title=" ">
<path fill="none" stroke="#63b8ff" d="M427.49,-109.98C460.82,-100.97 513.6,-86.7 550.35,-76.76"/>
<polygon fill="#63b8ff" stroke="#63b8ff" points="551.52,-80.07 560.26,-74.08 549.7,-73.31 551.52,-80.07"/>
</a>
</g>
</g>
<!-- Node22&#45;&gt;Node19 -->
<g id="edge43_Node000022_Node000019" class="edge">
<title>Node22&#45;&gt;Node19</title>
<g id="a_edge43_Node000022_Node000019"><a xlink:title=" ">
<path fill="none" stroke="#63b8ff" d="M401.78,-109.75C406.62,-102.42 413.68,-91.73 419.64,-82.7"/>
<polygon fill="#63b8ff" stroke="#63b8ff" points="422.74,-84.36 425.33,-74.09 416.9,-80.5 422.74,-84.36"/>
</a>
</g>
</g>
<!-- Node22&#45;&gt;Node20 -->
<g id="edge40_Node000022_Node000020" class="edge">
<title>Node22&#45;&gt;Node20</title>
<g id="a_edge40_Node000022_Node000020"><a xlink:title=" ">
<path fill="none" stroke="#63b8ff" d="M435.48,-109.98C456.95,-103.46 482.43,-92.37 499,-74 510.01,-61.8 514.96,-43.56 517.18,-29.76"/>
<polygon fill="#63b8ff" stroke="#63b8ff" points="520.71,-29.79 518.49,-19.44 513.76,-28.92 520.71,-29.79"/>
</a>
</g>
</g>
</g>
</svg>
