<?xml version="1.0" encoding="UTF-8" standalone="no"?>
<!DOCTYPE svg PUBLIC "-//W3C//DTD SVG 1.1//EN"
 "http://www.w3.org/Graphics/SVG/1.1/DTD/svg11.dtd">
<!-- Generated by graphviz version 2.43.0 (0)
 -->
<!-- Title: src/client/process_request.cpp Pages: 1 -->
<svg width="965pt" height="313pt"
 viewBox="0.00 0.00 964.50 313.00" xmlns="http://www.w3.org/2000/svg" xmlns:xlink="http://www.w3.org/1999/xlink">
<g id="graph0" class="graph" transform="scale(1 1) rotate(0) translate(4 309)">
<title>src/client/process_request.cpp</title>
<!-- Node1 -->
<g id="Node000001" class="node">
<title>Node1</title>
<g id="a_Node000001"><a xlink:title=" ">
<polygon fill="#999999" stroke="#666666" points="359.5,-305 258.5,-305 258.5,-275 359.5,-275 359.5,-305"/>
<text text-anchor="start" x="266.5" y="-293" font-family="Helvetica,sans-Serif" font-size="10.00">src/client/process</text>
<text text-anchor="middle" x="309" y="-282" font-family="Helvetica,sans-Serif" font-size="10.00">_request.cpp</text>
</a>
</g>
</g>
<!-- Node2 -->
<g id="Node000002" class="node">
<title>Node2</title>
<g id="a_Node000002"><a xlink:href="fileinfo_8hpp.html" target="_top" xlink:title=" ">
<polygon fill="white" stroke="#666666" points="311.5,-74 192.5,-74 192.5,-55 311.5,-55 311.5,-74"/>
<text text-anchor="middle" x="252" y="-62" font-family="Helvetica,sans-Serif" font-size="10.00">../models/fileinfo.hpp</text>
</a>
</g>
</g>
<!-- Node1&#45;&gt;Node2 -->
<g id="edge1_Node000001_Node000002" class="edge">
<title>Node1&#45;&gt;Node2</title>
<g id="a_edge1_Node000001_Node000002"><a xlink:title=" ">
<path fill="none" stroke="#63b8ff" d="M293.17,-274.59C265.98,-248.65 211.38,-190.97 191,-129 188.36,-120.98 187.17,-117.53 191,-110 197.77,-96.68 210.6,-86.41 222.75,-79.1"/>
<polygon fill="#63b8ff" stroke="#63b8ff" points="224.75,-81.99 231.8,-74.09 221.36,-75.87 224.75,-81.99"/>
</a>
</g>
</g>
<!-- Node3 -->
<g id="Node000003" class="node">
<title>Node3</title>
<g id="a_Node000003"><a xlink:title=" ">
<polygon fill="#e0e0e0" stroke="#999999" points="56,-19 0,-19 0,0 56,0 56,-19"/>
<text text-anchor="middle" x="28" y="-7" font-family="Helvetica,sans-Serif" font-size="10.00">sstream</text>
</a>
</g>
</g>
<!-- Node1&#45;&gt;Node3 -->
<g id="edge39_Node000001_Node000003" class="edge">
<title>Node1&#45;&gt;Node3</title>
<g id="a_edge39_Node000001_Node000003"><a xlink:title=" ">
<path fill="none" stroke="#63b8ff" d="M258.44,-279.36C177.54,-262.48 28,-224.63 28,-175.5 28,-175.5 28,-175.5 28,-118.5 28,-87.19 28,-50.77 28,-29.23"/>
<polygon fill="#63b8ff" stroke="#63b8ff" points="31.5,-29.18 28,-19.18 24.5,-29.18 31.5,-29.18"/>
</a>
</g>
</g>
<!-- Node5 -->
<g id="Node000005" class="node">
<title>Node5</title>
<g id="a_Node000005"><a xlink:title=" ">
<polygon fill="#e0e0e0" stroke="#999999" points="274,-19 230,-19 230,0 274,0 274,-19"/>
<text text-anchor="middle" x="252" y="-7" font-family="Helvetica,sans-Serif" font-size="10.00">string</text>
</a>
</g>
</g>
<!-- Node1&#45;&gt;Node5 -->
<g id="edge40_Node000001_Node000005" class="edge">
<title>Node1&#45;&gt;Node5</title>
<g id="a_edge40_Node000001_Node000005"><a xlink:title=" ">
<path fill="none" stroke="#63b8ff" d="M286.02,-275C272.05,-265.82 254.39,-252.96 241,-239 203.03,-199.41 195.06,-182.93 185,-129 178.96,-96.66 167.26,-83.89 183,-55 191.11,-40.11 206.58,-29.45 220.82,-22.31"/>
<polygon fill="#63b8ff" stroke="#63b8ff" points="222.3,-25.48 229.91,-18.11 219.37,-19.12 222.3,-25.48"/>
</a>
</g>
</g>
<!-- Node7 -->
<g id="Node000007" class="node">
<title>Node7</title>
<g id="a_Node000007"><a xlink:href="file__io_8hpp.html" target="_top" xlink:title=" ">
<polygon fill="white" stroke="#666666" points="342.5,-184 275.5,-184 275.5,-165 342.5,-165 342.5,-184"/>
<text text-anchor="middle" x="309" y="-172" font-family="Helvetica,sans-Serif" font-size="10.00">file_io.hpp</text>
</a>
</g>
</g>
<!-- Node1&#45;&gt;Node7 -->
<g id="edge6_Node000001_Node000007" class="edge">
<title>Node1&#45;&gt;Node7</title>
<g id="a_edge6_Node000001_Node000007"><a xlink:title=" ">
<path fill="none" stroke="#63b8ff" d="M309,-274.63C309,-254.21 309,-216.81 309,-194.24"/>
<polygon fill="#63b8ff" stroke="#63b8ff" points="312.5,-194.23 309,-184.23 305.5,-194.23 312.5,-194.23"/>
</a>
</g>
</g>
<!-- Node13 -->
<g id="Node000013" class="node">
<title>Node13</title>
<g id="a_Node000013"><a xlink:href="client_2process__request_8hpp.html" target="_top" xlink:title=" ">
<polygon fill="white" stroke="#666666" points="536.5,-239 419.5,-239 419.5,-220 536.5,-220 536.5,-239"/>
<text text-anchor="middle" x="478" y="-227" font-family="Helvetica,sans-Serif" font-size="10.00">process_request.hpp</text>
</a>
</g>
</g>
<!-- Node1&#45;&gt;Node13 -->
<g id="edge16_Node000001_Node000013" class="edge">
<title>Node1&#45;&gt;Node13</title>
<g id="a_edge16_Node000001_Node000013"><a xlink:title=" ">
<path fill="none" stroke="#63b8ff" d="M349.48,-274.99C378.18,-265.05 416.28,-251.86 443.53,-242.43"/>
<polygon fill="#63b8ff" stroke="#63b8ff" points="444.74,-245.72 453.04,-239.14 442.45,-239.1 444.74,-245.72"/>
</a>
</g>
</g>
<!-- Node17 -->
<g id="Node000017" class="node">
<title>Node17</title>
<g id="a_Node000017"><a xlink:title=" ">
<polygon fill="#e0e0e0" stroke="#999999" points="909,-74 853,-74 853,-55 909,-55 909,-74"/>
<text text-anchor="middle" x="881" y="-62" font-family="Helvetica,sans-Serif" font-size="10.00">unistd.h</text>
</a>
</g>
</g>
<!-- Node1&#45;&gt;Node17 -->
<g id="edge41_Node000001_Node000017" class="edge">
<title>Node1&#45;&gt;Node17</title>
<g id="a_edge41_Node000001_Node000017"><a xlink:title=" ">
<path fill="none" stroke="#63b8ff" d="M359.63,-280.19C407.72,-271.37 481.86,-256.6 545,-239 688.25,-199.06 757.43,-235.71 861,-129 872.69,-116.96 877.55,-98.15 879.57,-84.12"/>
<polygon fill="#63b8ff" stroke="#63b8ff" points="883.06,-84.44 880.66,-74.12 876.1,-83.69 883.06,-84.44"/>
</a>
</g>
</g>
<!-- Node24 -->
<g id="Node000024" class="node">
<title>Node24</title>
<g id="a_Node000024"><a xlink:title=" ">
<polygon fill="#e0e0e0" stroke="#999999" points="956.5,-239 909.5,-239 909.5,-220 956.5,-220 956.5,-239"/>
<text text-anchor="middle" x="933" y="-227" font-family="Helvetica,sans-Serif" font-size="10.00">fcntl.h</text>
</a>
</g>
</g>
<!-- Node1&#45;&gt;Node24 -->
<g id="edge38_Node000001_Node000024" class="edge">
<title>Node1&#45;&gt;Node24</title>
<g id="a_edge38_Node000001_Node000024"><a xlink:title=" ">
<path fill="none" stroke="#63b8ff" d="M359.83,-286.97C461.82,-282.4 698.46,-269.23 895,-239 896.46,-238.78 897.95,-238.53 899.45,-238.26"/>
<polygon fill="#63b8ff" stroke="#63b8ff" points="900.24,-241.67 909.38,-236.3 898.89,-234.8 900.24,-241.67"/>
</a>
</g>
</g>
<!-- Node2&#45;&gt;Node3 -->
<g id="edge2_Node000002_Node000003" class="edge">
<title>Node2&#45;&gt;Node3</title>
<g id="a_edge2_Node000002_Node000003"><a xlink:title=" ">
<path fill="none" stroke="#63b8ff" d="M216.01,-54.98C174.88,-45.25 107.86,-29.39 65.93,-19.47"/>
<polygon fill="#63b8ff" stroke="#63b8ff" points="66.64,-16.05 56.1,-17.15 65.03,-22.86 66.64,-16.05"/>
</a>
</g>
</g>
<!-- Node4 -->
<g id="Node000004" class="node">
<title>Node4</title>
<g id="a_Node000004"><a xlink:title=" ">
<polygon fill="#e0e0e0" stroke="#999999" points="209.5,-19 144.5,-19 144.5,0 209.5,0 209.5,-19"/>
<text text-anchor="middle" x="177" y="-7" font-family="Helvetica,sans-Serif" font-size="10.00">stdexcept</text>
</a>
</g>
</g>
<!-- Node2&#45;&gt;Node4 -->
<g id="edge3_Node000002_Node000004" class="edge">
<title>Node2&#45;&gt;Node4</title>
<g id="a_edge3_Node000002_Node000004"><a xlink:title=" ">
<path fill="none" stroke="#63b8ff" d="M239.95,-54.98C228.54,-46.92 211.17,-34.65 197.57,-25.03"/>
<polygon fill="#63b8ff" stroke="#63b8ff" points="199.46,-22.08 189.27,-19.17 195.42,-27.8 199.46,-22.08"/>
</a>
</g>
</g>
<!-- Node2&#45;&gt;Node5 -->
<g id="edge4_Node000002_Node000005" class="edge">
<title>Node2&#45;&gt;Node5</title>
<g id="a_edge4_Node000002_Node000005"><a xlink:title=" ">
<path fill="none" stroke="#63b8ff" d="M252,-54.75C252,-47.8 252,-37.85 252,-29.13"/>
<polygon fill="#63b8ff" stroke="#63b8ff" points="255.5,-29.09 252,-19.09 248.5,-29.09 255.5,-29.09"/>
</a>
</g>
</g>
<!-- Node6 -->
<g id="Node000006" class="node">
<title>Node6</title>
<g id="a_Node000006"><a xlink:title=" ">
<polygon fill="#e0e0e0" stroke="#999999" points="479.5,-19 432.5,-19 432.5,0 479.5,0 479.5,-19"/>
<text text-anchor="middle" x="456" y="-7" font-family="Helvetica,sans-Serif" font-size="10.00">vector</text>
</a>
</g>
</g>
<!-- Node2&#45;&gt;Node6 -->
<g id="edge5_Node000002_Node000006" class="edge">
<title>Node2&#45;&gt;Node6</title>
<g id="a_edge5_Node000002_Node000006"><a xlink:title=" ">
<path fill="none" stroke="#63b8ff" d="M284.78,-54.98C322.46,-45.2 384,-29.21 422.13,-19.3"/>
<polygon fill="#63b8ff" stroke="#63b8ff" points="423.43,-22.58 432.23,-16.68 421.67,-15.8 423.43,-22.58"/>
</a>
</g>
</g>
<!-- Node8 -->
<g id="Node000008" class="node">
<title>Node8</title>
<g id="a_Node000008"><a xlink:title=" ">
<polygon fill="#e0e0e0" stroke="#999999" points="568,-74 510,-74 510,-55 568,-55 568,-74"/>
<text text-anchor="middle" x="539" y="-62" font-family="Helvetica,sans-Serif" font-size="10.00">memory</text>
</a>
</g>
</g>
<!-- Node7&#45;&gt;Node8 -->
<g id="edge7_Node000007_Node000008" class="edge">
<title>Node7&#45;&gt;Node8</title>
<g id="a_edge7_Node000007_Node000008"><a xlink:title=" ">
<path fill="none" stroke="#63b8ff" d="M312.08,-164.56C317.36,-150.63 329.48,-123.92 349,-110 372.9,-92.96 451.5,-78.6 499.8,-71.1"/>
<polygon fill="#63b8ff" stroke="#63b8ff" points="500.55,-74.52 509.91,-69.56 499.49,-67.6 500.55,-74.52"/>
</a>
</g>
</g>
<!-- Node9 -->
<g id="Node000009" class="node">
<title>Node9</title>
<g id="a_Node000009"><a xlink:href="file_8hpp.html" target="_top" xlink:title=" ">
<polygon fill="white" stroke="#666666" points="301.5,-129 200.5,-129 200.5,-110 301.5,-110 301.5,-129"/>
<text text-anchor="middle" x="251" y="-117" font-family="Helvetica,sans-Serif" font-size="10.00">../models/file.hpp</text>
</a>
</g>
</g>
<!-- Node7&#45;&gt;Node9 -->
<g id="edge8_Node000007_Node000009" class="edge">
<title>Node7&#45;&gt;Node9</title>
<g id="a_edge8_Node000007_Node000009"><a xlink:title=" ">
<path fill="none" stroke="#63b8ff" d="M299.68,-164.98C291.19,-157.23 278.44,-145.58 268.12,-136.14"/>
<polygon fill="#63b8ff" stroke="#63b8ff" points="270.23,-133.33 260.49,-129.17 265.51,-138.5 270.23,-133.33"/>
</a>
</g>
</g>
<!-- Node9&#45;&gt;Node2 -->
<g id="edge15_Node000009_Node000002" class="edge">
<title>Node9&#45;&gt;Node2</title>
<g id="a_edge15_Node000009_Node000002"><a xlink:title=" ">
<path fill="none" stroke="#63b8ff" d="M251.17,-109.75C251.3,-102.8 251.48,-92.85 251.65,-84.13"/>
<polygon fill="#63b8ff" stroke="#63b8ff" points="255.15,-84.15 251.84,-74.09 248.15,-84.02 255.15,-84.15"/>
</a>
</g>
</g>
<!-- Node9&#45;&gt;Node8 -->
<g id="edge9_Node000009_Node000008" class="edge">
<title>Node9&#45;&gt;Node8</title>
<g id="a_edge9_Node000009_Node000008"><a xlink:title=" ">
<path fill="none" stroke="#63b8ff" d="M297.27,-109.98C353.47,-99.64 447.27,-82.38 499.98,-72.68"/>
<polygon fill="#63b8ff" stroke="#63b8ff" points="500.75,-76.1 509.95,-70.85 499.48,-69.21 500.75,-76.1"/>
</a>
</g>
</g>
<!-- Node10 -->
<g id="Node000010" class="node">
<title>Node10</title>
<g id="a_Node000010"><a xlink:title=" ">
<polygon fill="#e0e0e0" stroke="#999999" points="438,-74 352,-74 352,-55 438,-55 438,-74"/>
<text text-anchor="middle" x="395" y="-62" font-family="Helvetica,sans-Serif" font-size="10.00">unordered_set</text>
</a>
</g>
</g>
<!-- Node9&#45;&gt;Node10 -->
<g id="edge10_Node000009_Node000010" class="edge">
<title>Node9&#45;&gt;Node10</title>
<g id="a_edge10_Node000009_Node000010"><a xlink:title=" ">
<path fill="none" stroke="#63b8ff" d="M274.14,-109.98C297.82,-101.27 334.87,-87.63 361.71,-77.75"/>
<polygon fill="#63b8ff" stroke="#63b8ff" points="363.27,-80.91 371.44,-74.17 360.85,-74.34 363.27,-80.91"/>
</a>
</g>
</g>
<!-- Node11 -->
<g id="Node000011" class="node">
<title>Node11</title>
<g id="a_Node000011"><a xlink:href="endpoint_8hpp.html" target="_top" xlink:title=" ">
<polygon fill="white" stroke="#666666" points="136,-74 56,-74 56,-55 136,-55 136,-74"/>
<text text-anchor="middle" x="96" y="-62" font-family="Helvetica,sans-Serif" font-size="10.00">endpoint.hpp</text>
</a>
</g>
</g>
<!-- Node9&#45;&gt;Node11 -->
<g id="edge11_Node000009_Node000011" class="edge">
<title>Node9&#45;&gt;Node11</title>
<g id="a_edge11_Node000009_Node000011"><a xlink:title=" ">
<path fill="none" stroke="#63b8ff" d="M226.1,-109.98C200.3,-101.16 159.78,-87.31 130.82,-77.41"/>
<polygon fill="#63b8ff" stroke="#63b8ff" points="131.69,-74.01 121.1,-74.08 129.43,-80.63 131.69,-74.01"/>
</a>
</g>
</g>
<!-- Node11&#45;&gt;Node4 -->
<g id="edge13_Node000011_Node000004" class="edge">
<title>Node11&#45;&gt;Node4</title>
<g id="a_edge13_Node000011_Node000004"><a xlink:title=" ">
<path fill="none" stroke="#63b8ff" d="M109.01,-54.98C121.46,-46.84 140.46,-34.41 155.21,-24.76"/>
<polygon fill="#63b8ff" stroke="#63b8ff" points="157.3,-27.57 163.75,-19.17 153.46,-21.72 157.3,-27.57"/>
</a>
</g>
</g>
<!-- Node11&#45;&gt;Node5 -->
<g id="edge14_Node000011_Node000005" class="edge">
<title>Node11&#45;&gt;Node5</title>
<g id="a_edge14_Node000011_Node000005"><a xlink:title=" ">
<path fill="none" stroke="#63b8ff" d="M121.06,-54.98C147.88,-45.88 190.49,-31.4 219.77,-21.45"/>
<polygon fill="#63b8ff" stroke="#63b8ff" points="221.19,-24.67 229.53,-18.13 218.94,-18.04 221.19,-24.67"/>
</a>
</g>
</g>
<!-- Node12 -->
<g id="Node000012" class="node">
<title>Node12</title>
<g id="a_Node000012"><a xlink:title=" ">
<polygon fill="#e0e0e0" stroke="#999999" points="124,-19 74,-19 74,0 124,0 124,-19"/>
<text text-anchor="middle" x="99" y="-7" font-family="Helvetica,sans-Serif" font-size="10.00">cstdint</text>
</a>
</g>
</g>
<!-- Node11&#45;&gt;Node12 -->
<g id="edge12_Node000011_Node000012" class="edge">
<title>Node11&#45;&gt;Node12</title>
<g id="a_edge12_Node000011_Node000012"><a xlink:title=" ">
<path fill="none" stroke="#63b8ff" d="M96.5,-54.75C96.89,-47.8 97.45,-37.85 97.95,-29.13"/>
<polygon fill="#63b8ff" stroke="#63b8ff" points="101.44,-29.27 98.51,-19.09 94.45,-28.88 101.44,-29.27"/>
</a>
</g>
</g>
<!-- Node14 -->
<g id="Node000014" class="node">
<title>Node14</title>
<g id="a_Node000014"><a xlink:href="tcp__socket_8hpp.html" target="_top" xlink:title=" ">
<polygon fill="white" stroke="#666666" points="852.5,-129 711.5,-129 711.5,-110 852.5,-110 852.5,-129"/>
<text text-anchor="middle" x="782" y="-117" font-family="Helvetica,sans-Serif" font-size="10.00">../network/tcp_socket.hpp</text>
</a>
</g>
</g>
<!-- Node13&#45;&gt;Node14 -->
<g id="edge17_Node000013_Node000014" class="edge">
<title>Node13&#45;&gt;Node14</title>
<g id="a_edge17_Node000013_Node000014"><a xlink:title=" ">
<path fill="none" stroke="#63b8ff" d="M502.11,-219.94C555.99,-200.79 686.27,-154.51 748.21,-132.51"/>
<polygon fill="#63b8ff" stroke="#63b8ff" points="749.64,-135.71 757.89,-129.07 747.29,-129.12 749.64,-135.71"/>
</a>
</g>
</g>
<!-- Node18 -->
<g id="Node000018" class="node">
<title>Node18</title>
<g id="a_Node000018"><a xlink:href="filesdb_8hpp.html" target="_top" xlink:title=" ">
<polygon fill="white" stroke="#666666" points="558,-184 488,-184 488,-165 558,-165 558,-184"/>
<text text-anchor="middle" x="523" y="-172" font-family="Helvetica,sans-Serif" font-size="10.00">filesdb.hpp</text>
</a>
</g>
</g>
<!-- Node13&#45;&gt;Node18 -->
<g id="edge24_Node000013_Node000018" class="edge">
<title>Node13&#45;&gt;Node18</title>
<g id="a_edge24_Node000013_Node000018"><a xlink:title=" ">
<path fill="none" stroke="#63b8ff" d="M485.43,-219.75C491.85,-212.18 501.31,-201.05 509.12,-191.84"/>
<polygon fill="#63b8ff" stroke="#63b8ff" points="511.9,-193.98 515.71,-184.09 506.57,-189.45 511.9,-193.98"/>
</a>
</g>
</g>
<!-- Node23 -->
<g id="Node000023" class="node">
<title>Node23</title>
<g id="a_Node000023"><a xlink:href="peerdb_8hpp.html" target="_top" xlink:title=" ">
<polygon fill="white" stroke="#666666" points="469.5,-184 398.5,-184 398.5,-165 469.5,-165 469.5,-184"/>
<text text-anchor="middle" x="434" y="-172" font-family="Helvetica,sans-Serif" font-size="10.00">peerdb.hpp</text>
</a>
</g>
</g>
<!-- Node13&#45;&gt;Node23 -->
<g id="edge33_Node000013_Node000023" class="edge">
<title>Node13&#45;&gt;Node23</title>
<g id="a_edge33_Node000013_Node000023"><a xlink:title=" ">
<path fill="none" stroke="#63b8ff" d="M470.73,-219.75C464.46,-212.18 455.21,-201.05 447.57,-191.84"/>
<polygon fill="#63b8ff" stroke="#63b8ff" points="450.21,-189.55 441.13,-184.09 444.83,-194.02 450.21,-189.55"/>
</a>
</g>
</g>
<!-- Node14&#45;&gt;Node5 -->
<g id="edge20_Node000014_Node000005" class="edge">
<title>Node14&#45;&gt;Node5</title>
<g id="a_edge20_Node000014_Node000005"><a xlink:title=" ">
<path fill="none" stroke="#63b8ff" d="M738.78,-109.97C704.11,-102.46 654.56,-90.19 613,-74 596.14,-67.43 594.22,-60.53 577,-55 473.64,-21.79 343.99,-13.37 284.53,-11.23"/>
<polygon fill="#63b8ff" stroke="#63b8ff" points="284.37,-7.72 274.26,-10.9 284.15,-14.72 284.37,-7.72"/>
</a>
</g>
</g>
<!-- Node14&#45;&gt;Node6 -->
<g id="edge23_Node000014_Node000006" class="edge">
<title>Node14&#45;&gt;Node6</title>
<g id="a_edge23_Node000014_Node000006"><a xlink:title=" ">
<path fill="none" stroke="#63b8ff" d="M756.67,-109.87C731.51,-101.18 691.88,-87.22 658,-74 637.78,-66.11 633.48,-62.2 613,-55 571.03,-40.26 521.49,-26.86 489.45,-18.7"/>
<polygon fill="#63b8ff" stroke="#63b8ff" points="490.24,-15.29 479.69,-16.24 488.53,-22.08 490.24,-15.29"/>
</a>
</g>
</g>
<!-- Node14&#45;&gt;Node8 -->
<g id="edge18_Node000014_Node000008" class="edge">
<title>Node14&#45;&gt;Node8</title>
<g id="a_edge18_Node000014_Node000008"><a xlink:title=" ">
<path fill="none" stroke="#63b8ff" d="M742.96,-109.98C697.65,-100.1 623.38,-83.9 578.07,-74.02"/>
<polygon fill="#63b8ff" stroke="#63b8ff" points="578.55,-70.54 568.03,-71.83 577.06,-77.38 578.55,-70.54"/>
</a>
</g>
</g>
<!-- Node15 -->
<g id="Node000015" class="node">
<title>Node15</title>
<g id="a_Node000015"><a xlink:title=" ">
<polygon fill="#e0e0e0" stroke="#999999" points="739,-74 667,-74 667,-55 739,-55 739,-74"/>
<text text-anchor="middle" x="703" y="-62" font-family="Helvetica,sans-Serif" font-size="10.00">netinet/in.h</text>
</a>
</g>
</g>
<!-- Node14&#45;&gt;Node15 -->
<g id="edge19_Node000014_Node000015" class="edge">
<title>Node14&#45;&gt;Node15</title>
<g id="a_edge19_Node000014_Node000015"><a xlink:title=" ">
<path fill="none" stroke="#63b8ff" d="M769.31,-109.98C757.17,-101.84 738.64,-89.41 724.25,-79.76"/>
<polygon fill="#63b8ff" stroke="#63b8ff" points="726.18,-76.84 715.92,-74.17 722.28,-82.65 726.18,-76.84"/>
</a>
</g>
</g>
<!-- Node16 -->
<g id="Node000016" class="node">
<title>Node16</title>
<g id="a_Node000016"><a xlink:title=" ">
<polygon fill="#e0e0e0" stroke="#999999" points="834.5,-74 757.5,-74 757.5,-55 834.5,-55 834.5,-74"/>
<text text-anchor="middle" x="796" y="-62" font-family="Helvetica,sans-Serif" font-size="10.00">sys/socket.h</text>
</a>
</g>
</g>
<!-- Node14&#45;&gt;Node16 -->
<g id="edge21_Node000014_Node000016" class="edge">
<title>Node14&#45;&gt;Node16</title>
<g id="a_edge21_Node000014_Node000016"><a xlink:title=" ">
<path fill="none" stroke="#63b8ff" d="M784.31,-109.75C786.17,-102.72 788.84,-92.62 791.15,-83.84"/>
<polygon fill="#63b8ff" stroke="#63b8ff" points="794.56,-84.65 793.73,-74.09 787.79,-82.86 794.56,-84.65"/>
</a>
</g>
</g>
<!-- Node14&#45;&gt;Node17 -->
<g id="edge22_Node000014_Node000017" class="edge">
<title>Node14&#45;&gt;Node17</title>
<g id="a_edge22_Node000014_Node000017"><a xlink:title=" ">
<path fill="none" stroke="#63b8ff" d="M797.91,-109.98C813.55,-101.61 837.66,-88.7 855.88,-78.95"/>
<polygon fill="#63b8ff" stroke="#63b8ff" points="857.64,-81.98 864.8,-74.17 854.34,-75.8 857.64,-81.98"/>
</a>
</g>
</g>
<!-- Node19 -->
<g id="Node000019" class="node">
<title>Node19</title>
<g id="a_Node000019"><a xlink:title=" ">
<polygon fill="#e0e0e0" stroke="#999999" points="603,-129 555,-129 555,-110 603,-110 603,-129"/>
<text text-anchor="middle" x="579" y="-117" font-family="Helvetica,sans-Serif" font-size="10.00">mutex</text>
</a>
</g>
</g>
<!-- Node18&#45;&gt;Node19 -->
<g id="edge25_Node000018_Node000019" class="edge">
<title>Node18&#45;&gt;Node19</title>
<g id="a_edge25_Node000018_Node000019"><a xlink:title=" ">
<path fill="none" stroke="#63b8ff" d="M532,-164.98C540.19,-157.23 552.51,-145.58 562.47,-136.14"/>
<polygon fill="#63b8ff" stroke="#63b8ff" points="564.98,-138.59 569.84,-129.17 560.17,-133.5 564.98,-138.59"/>
</a>
</g>
</g>
<!-- Node20 -->
<g id="Node000020" class="node">
<title>Node20</title>
<g id="a_Node000020"><a xlink:title=" ">
<polygon fill="#e0e0e0" stroke="#999999" points="451.5,-129 358.5,-129 358.5,-110 451.5,-110 451.5,-129"/>
<text text-anchor="middle" x="405" y="-117" font-family="Helvetica,sans-Serif" font-size="10.00">unordered_map</text>
</a>
</g>
</g>
<!-- Node18&#45;&gt;Node20 -->
<g id="edge26_Node000018_Node000020" class="edge">
<title>Node18&#45;&gt;Node20</title>
<g id="a_edge26_Node000018_Node000020"><a xlink:title=" ">
<path fill="none" stroke="#63b8ff" d="M504.04,-164.98C484.97,-156.42 455.34,-143.11 433.45,-133.28"/>
<polygon fill="#63b8ff" stroke="#63b8ff" points="434.86,-130.07 424.3,-129.17 431.99,-136.46 434.86,-130.07"/>
</a>
</g>
</g>
<!-- Node21 -->
<g id="Node000021" class="node">
<title>Node21</title>
<g id="a_Node000021"><a xlink:href="file__id_8hpp.html" target="_top" xlink:title=" ">
<polygon fill="white" stroke="#666666" points="536.5,-129 469.5,-129 469.5,-110 536.5,-110 536.5,-129"/>
<text text-anchor="middle" x="503" y="-117" font-family="Helvetica,sans-Serif" font-size="10.00">file_id.hpp</text>
</a>
</g>
</g>
<!-- Node18&#45;&gt;Node21 -->
<g id="edge27_Node000018_Node000021" class="edge">
<title>Node18&#45;&gt;Node21</title>
<g id="a_edge27_Node000018_Node000021"><a xlink:title=" ">
<path fill="none" stroke="#63b8ff" d="M519.7,-164.75C517.02,-157.65 513.15,-147.4 509.81,-138.56"/>
<polygon fill="#63b8ff" stroke="#63b8ff" points="513.05,-137.21 506.24,-129.09 506.5,-139.68 513.05,-137.21"/>
</a>
</g>
</g>
<!-- Node22 -->
<g id="Node000022" class="node">
<title>Node22</title>
<g id="a_Node000022"><a xlink:href="partfile_8hpp.html" target="_top" xlink:title=" ">
<polygon fill="white" stroke="#666666" points="693,-129 621,-129 621,-110 693,-110 693,-129"/>
<text text-anchor="middle" x="657" y="-117" font-family="Helvetica,sans-Serif" font-size="10.00">partfile.hpp</text>
</a>
</g>
</g>
<!-- Node18&#45;&gt;Node22 -->
<g id="edge29_Node000018_Node000022" class="edge">
<title>Node18&#45;&gt;Node22</title>
<g id="a_edge29_Node000018_Node000022"><a xlink:title=" ">
<path fill="none" stroke="#63b8ff" d="M544.53,-164.98C566.47,-156.3 600.74,-142.75 625.69,-132.88"/>
<polygon fill="#63b8ff" stroke="#63b8ff" points="627.07,-136.1 635.08,-129.17 624.49,-129.59 627.07,-136.1"/>
</a>
</g>
</g>
<!-- Node21&#45;&gt;Node5 -->
<g id="edge28_Node000021_Node000005" class="edge">
<title>Node21&#45;&gt;Node5</title>
<g id="a_edge28_Node000021_Node000005"><a xlink:title=" ">
<path fill="none" stroke="#63b8ff" d="M498,-109.99C489.42,-96.16 470.5,-68.97 447,-55 395.48,-24.38 324.81,-14.82 284.21,-11.84"/>
<polygon fill="#63b8ff" stroke="#63b8ff" points="284.29,-8.34 274.09,-11.19 283.84,-15.33 284.29,-8.34"/>
</a>
</g>
</g>
<!-- Node22&#45;&gt;Node2 -->
<g id="edge32_Node000022_Node000002" class="edge">
<title>Node22&#45;&gt;Node2</title>
<g id="a_edge32_Node000022_Node000002"><a xlink:title=" ">
<path fill="none" stroke="#63b8ff" d="M620.69,-111.43C617.75,-110.93 614.83,-110.44 612,-110 511.42,-94.3 394.32,-80.68 321.67,-72.78"/>
<polygon fill="#63b8ff" stroke="#63b8ff" points="322.04,-69.3 311.72,-71.7 321.29,-76.26 322.04,-69.3"/>
</a>
</g>
</g>
<!-- Node22&#45;&gt;Node8 -->
<g id="edge30_Node000022_Node000008" class="edge">
<title>Node22&#45;&gt;Node8</title>
<g id="a_edge30_Node000022_Node000008"><a xlink:title=" ">
<path fill="none" stroke="#63b8ff" d="M638.04,-109.98C618.97,-101.42 589.34,-88.11 567.45,-78.28"/>
<polygon fill="#63b8ff" stroke="#63b8ff" points="568.86,-75.07 558.3,-74.17 565.99,-81.46 568.86,-75.07"/>
</a>
</g>
</g>
<!-- Node22&#45;&gt;Node10 -->
<g id="edge31_Node000022_Node000010" class="edge">
<title>Node22&#45;&gt;Node10</title>
<g id="a_edge31_Node000022_Node000010"><a xlink:title=" ">
<path fill="none" stroke="#63b8ff" d="M620.85,-111.19C575.84,-102.08 498.63,-86.46 447.21,-76.06"/>
<polygon fill="#63b8ff" stroke="#63b8ff" points="447.78,-72.61 437.28,-74.05 446.39,-79.47 447.78,-72.61"/>
</a>
</g>
</g>
<!-- Node23&#45;&gt;Node9 -->
<g id="edge36_Node000023_Node000009" class="edge">
<title>Node23&#45;&gt;Node9</title>
<g id="a_edge36_Node000023_Node000009"><a xlink:title=" ">
<path fill="none" stroke="#63b8ff" d="M404.6,-164.98C373.61,-156.01 324.62,-141.82 290.33,-131.89"/>
<polygon fill="#63b8ff" stroke="#63b8ff" points="291.21,-128.5 280.63,-129.08 289.26,-135.23 291.21,-128.5"/>
</a>
</g>
</g>
<!-- Node23&#45;&gt;Node19 -->
<g id="edge34_Node000023_Node000019" class="edge">
<title>Node23&#45;&gt;Node19</title>
<g id="a_edge34_Node000023_Node000019"><a xlink:title=" ">
<path fill="none" stroke="#63b8ff" d="M457.3,-164.98C481.25,-156.23 518.78,-142.51 545.83,-132.62"/>
<polygon fill="#63b8ff" stroke="#63b8ff" points="547.09,-135.89 555.28,-129.17 544.69,-129.32 547.09,-135.89"/>
</a>
</g>
</g>
<!-- Node23&#45;&gt;Node20 -->
<g id="edge35_Node000023_Node000020" class="edge">
<title>Node23&#45;&gt;Node20</title>
<g id="a_edge35_Node000023_Node000020"><a xlink:title=" ">
<path fill="none" stroke="#63b8ff" d="M429.21,-164.75C425.24,-157.49 419.47,-146.95 414.57,-137.98"/>
<polygon fill="#63b8ff" stroke="#63b8ff" points="417.57,-136.18 409.7,-129.09 411.43,-139.54 417.57,-136.18"/>
</a>
</g>
</g>
<!-- Node23&#45;&gt;Node21 -->
<g id="edge37_Node000023_Node000021" class="edge">
<title>Node23&#45;&gt;Node21</title>
<g id="a_edge37_Node000023_Node000021"><a xlink:title=" ">
<path fill="none" stroke="#63b8ff" d="M445.09,-164.98C455.49,-157 471.26,-144.88 483.72,-135.31"/>
<polygon fill="#63b8ff" stroke="#63b8ff" points="485.91,-138.04 491.71,-129.17 481.65,-132.49 485.91,-138.04"/>
</a>
</g>
</g>
</g>
</svg>
