<?xml version="1.0" encoding="UTF-8" standalone="no"?>
<!DOCTYPE svg PUBLIC "-//W3C//DTD SVG 1.1//EN"
 "http://www.w3.org/Graphics/SVG/1.1/DTD/svg11.dtd">
<!-- Generated by graphviz version 2.43.0 (0)
 -->
<!-- Title: src/client/client.cpp Pages: 1 -->
<svg width="872pt" height="203pt"
 viewBox="0.00 0.00 871.50 203.00" xmlns="http://www.w3.org/2000/svg" xmlns:xlink="http://www.w3.org/1999/xlink">
<g id="graph0" class="graph" transform="scale(1 1) rotate(0) translate(4 199)">
<title>src/client/client.cpp</title>
<!-- Node1 -->
<g id="Node000001" class="node">
<title>Node1</title>
<g id="a_Node000001"><a xlink:title="The entrypoint to the client.">
<polygon fill="#999999" stroke="#666666" points="310.5,-195 199.5,-195 199.5,-176 310.5,-176 310.5,-195"/>
<text text-anchor="middle" x="255" y="-183" font-family="Helvetica,sans-Serif" font-size="10.00">src/client/client.cpp</text>
</a>
</g>
</g>
<!-- Node2 -->
<g id="Node000002" class="node">
<title>Node2</title>
<g id="a_Node000002"><a xlink:title=" ">
<polygon fill="#e0e0e0" stroke="#999999" points="50,-74 0,-74 0,-55 50,-55 50,-74"/>
<text text-anchor="middle" x="25" y="-62" font-family="Helvetica,sans-Serif" font-size="10.00">cstring</text>
</a>
</g>
</g>
<!-- Node1&#45;&gt;Node2 -->
<g id="edge1_Node000001_Node000002" class="edge">
<title>Node1&#45;&gt;Node2</title>
<g id="a_edge1_Node000001_Node000002"><a xlink:title=" ">
<path fill="none" stroke="#63b8ff" d="M228.55,-175.86C205.02,-167.78 169.96,-154.77 141,-140 105.77,-122.04 67.69,-96.22 45.12,-80.18"/>
<polygon fill="#63b8ff" stroke="#63b8ff" points="46.89,-77.14 36.72,-74.15 42.8,-82.83 46.89,-77.14"/>
</a>
</g>
</g>
<!-- Node3 -->
<g id="Node000003" class="node">
<title>Node3</title>
<g id="a_Node000003"><a xlink:title=" ">
<polygon fill="#e0e0e0" stroke="#999999" points="128,-74 68,-74 68,-55 128,-55 128,-74"/>
<text text-anchor="middle" x="98" y="-62" font-family="Helvetica,sans-Serif" font-size="10.00">iostream</text>
</a>
</g>
</g>
<!-- Node1&#45;&gt;Node3 -->
<g id="edge2_Node000001_Node000003" class="edge">
<title>Node1&#45;&gt;Node3</title>
<g id="a_edge2_Node000001_Node000003"><a xlink:title=" ">
<path fill="none" stroke="#63b8ff" d="M238.3,-175.86C222.69,-167.49 198.99,-154.04 180,-140 155.5,-121.89 129.93,-97.67 113.99,-81.84"/>
<polygon fill="#63b8ff" stroke="#63b8ff" points="116.12,-79.02 106.59,-74.39 111.16,-83.95 116.12,-79.02"/>
</a>
</g>
</g>
<!-- Node4 -->
<g id="Node000004" class="node">
<title>Node4</title>
<g id="a_Node000004"><a xlink:href="load__tracker__info_8cpp.html" target="_top" xlink:title="This file should be included directly in the source file. This is to prevent having to create yet ano...">
<polygon fill="white" stroke="#666666" points="320.5,-140 189.5,-140 189.5,-110 320.5,-110 320.5,-140"/>
<text text-anchor="start" x="197.5" y="-128" font-family="Helvetica,sans-Serif" font-size="10.00">../common/load_tracker</text>
<text text-anchor="middle" x="255" y="-117" font-family="Helvetica,sans-Serif" font-size="10.00">_info.cpp</text>
</a>
</g>
</g>
<!-- Node1&#45;&gt;Node4 -->
<g id="edge3_Node000001_Node000004" class="edge">
<title>Node1&#45;&gt;Node4</title>
<g id="a_edge3_Node000001_Node000004"><a xlink:title=" ">
<path fill="none" stroke="#63b8ff" d="M255,-175.87C255,-169.11 255,-159.35 255,-150.26"/>
<polygon fill="#63b8ff" stroke="#63b8ff" points="258.5,-150.11 255,-140.11 251.5,-150.11 258.5,-150.11"/>
</a>
</g>
</g>
<!-- Node11 -->
<g id="Node000011" class="node">
<title>Node11</title>
<g id="a_Node000011"><a xlink:href="network__errors_8hpp.html" target="_top" xlink:title=" ">
<polygon fill="white" stroke="#666666" points="804,-140 696,-140 696,-110 804,-110 804,-140"/>
<text text-anchor="start" x="704" y="-128" font-family="Helvetica,sans-Serif" font-size="10.00">../network/network</text>
<text text-anchor="middle" x="750" y="-117" font-family="Helvetica,sans-Serif" font-size="10.00">_errors.hpp</text>
</a>
</g>
</g>
<!-- Node1&#45;&gt;Node11 -->
<g id="edge12_Node000001_Node000011" class="edge">
<title>Node1&#45;&gt;Node11</title>
<g id="a_edge12_Node000001_Node000011"><a xlink:title=" ">
<path fill="none" stroke="#63b8ff" d="M310.82,-177.9C403.37,-166.97 588.07,-145.14 685.84,-133.58"/>
<polygon fill="#63b8ff" stroke="#63b8ff" points="686.37,-137.04 695.89,-132.39 685.55,-130.09 686.37,-137.04"/>
</a>
</g>
</g>
<!-- Node13 -->
<g id="Node000013" class="node">
<title>Node13</title>
<g id="a_Node000013"><a xlink:href="tcp__socket_8hpp.html" target="_top" xlink:title=" ">
<polygon fill="white" stroke="#666666" points="597.5,-134.5 456.5,-134.5 456.5,-115.5 597.5,-115.5 597.5,-134.5"/>
<text text-anchor="middle" x="527" y="-122.5" font-family="Helvetica,sans-Serif" font-size="10.00">../network/tcp_socket.hpp</text>
</a>
</g>
</g>
<!-- Node1&#45;&gt;Node13 -->
<g id="edge14_Node000001_Node000013" class="edge">
<title>Node1&#45;&gt;Node13</title>
<g id="a_edge14_Node000001_Node000013"><a xlink:title=" ">
<path fill="none" stroke="#63b8ff" d="M294.55,-175.99C342.9,-165.6 424.75,-147.99 477.3,-136.69"/>
<polygon fill="#63b8ff" stroke="#63b8ff" points="478.36,-140.04 487.4,-134.52 476.89,-133.2 478.36,-140.04"/>
</a>
</g>
</g>
<!-- Node4&#45;&gt;Node2 -->
<g id="edge7_Node000004_Node000002" class="edge">
<title>Node4&#45;&gt;Node2</title>
<g id="a_edge7_Node000004_Node000002"><a xlink:title=" ">
<path fill="none" stroke="#63b8ff" d="M199.91,-109.99C156.42,-98.93 97.07,-83.83 59.9,-74.38"/>
<polygon fill="#63b8ff" stroke="#63b8ff" points="60.59,-70.94 50.04,-71.87 58.87,-77.73 60.59,-70.94"/>
</a>
</g>
</g>
<!-- Node4&#45;&gt;Node3 -->
<g id="edge9_Node000004_Node000003" class="edge">
<title>Node4&#45;&gt;Node3</title>
<g id="a_edge9_Node000004_Node000003"><a xlink:title=" ">
<path fill="none" stroke="#63b8ff" d="M217.39,-109.99C190.97,-100.14 155.96,-87.1 130.69,-77.68"/>
<polygon fill="#63b8ff" stroke="#63b8ff" points="131.78,-74.35 121.19,-74.14 129.33,-80.91 131.78,-74.35"/>
</a>
</g>
</g>
<!-- Node5 -->
<g id="Node000005" class="node">
<title>Node5</title>
<g id="a_Node000005"><a xlink:href="endpoint_8hpp.html" target="_top" xlink:title=" ">
<polygon fill="white" stroke="#666666" points="340,-74 212,-74 212,-55 340,-55 340,-74"/>
<text text-anchor="middle" x="276" y="-62" font-family="Helvetica,sans-Serif" font-size="10.00">../models/endpoint.hpp</text>
</a>
</g>
</g>
<!-- Node4&#45;&gt;Node5 -->
<g id="edge4_Node000004_Node000005" class="edge">
<title>Node4&#45;&gt;Node5</title>
<g id="a_edge4_Node000004_Node000005"><a xlink:title=" ">
<path fill="none" stroke="#63b8ff" d="M260.08,-109.84C262.88,-102.04 266.39,-92.27 269.4,-83.89"/>
<polygon fill="#63b8ff" stroke="#63b8ff" points="272.77,-84.86 272.85,-74.27 266.18,-82.5 272.77,-84.86"/>
</a>
</g>
</g>
<!-- Node8 -->
<g id="Node000008" class="node">
<title>Node8</title>
<g id="a_Node000008"><a xlink:title=" ">
<polygon fill="#e0e0e0" stroke="#999999" points="193.5,-74 146.5,-74 146.5,-55 193.5,-55 193.5,-74"/>
<text text-anchor="middle" x="170" y="-62" font-family="Helvetica,sans-Serif" font-size="10.00">fcntl.h</text>
</a>
</g>
</g>
<!-- Node4&#45;&gt;Node8 -->
<g id="edge8_Node000004_Node000008" class="edge">
<title>Node4&#45;&gt;Node8</title>
<g id="a_edge8_Node000004_Node000008"><a xlink:title=" ">
<path fill="none" stroke="#63b8ff" d="M234.42,-109.84C221.33,-100.83 204.41,-89.18 191.2,-80.09"/>
<polygon fill="#63b8ff" stroke="#63b8ff" points="192.96,-77.05 182.74,-74.27 188.99,-82.82 192.96,-77.05"/>
</a>
</g>
</g>
<!-- Node9 -->
<g id="Node000009" class="node">
<title>Node9</title>
<g id="a_Node000009"><a xlink:title=" ">
<polygon fill="#e0e0e0" stroke="#999999" points="480,-74 424,-74 424,-55 480,-55 480,-74"/>
<text text-anchor="middle" x="452" y="-62" font-family="Helvetica,sans-Serif" font-size="10.00">unistd.h</text>
</a>
</g>
</g>
<!-- Node4&#45;&gt;Node9 -->
<g id="edge10_Node000004_Node000009" class="edge">
<title>Node4&#45;&gt;Node9</title>
<g id="a_edge10_Node000004_Node000009"><a xlink:title=" ">
<path fill="none" stroke="#63b8ff" d="M302.19,-109.99C336.39,-99.83 382.05,-86.27 413.93,-76.8"/>
<polygon fill="#63b8ff" stroke="#63b8ff" points="415.18,-80.09 423.77,-73.88 413.19,-73.37 415.18,-80.09"/>
</a>
</g>
</g>
<!-- Node10 -->
<g id="Node000010" class="node">
<title>Node10</title>
<g id="a_Node000010"><a xlink:title=" ">
<polygon fill="#e0e0e0" stroke="#999999" points="405.5,-74 358.5,-74 358.5,-55 405.5,-55 405.5,-74"/>
<text text-anchor="middle" x="382" y="-62" font-family="Helvetica,sans-Serif" font-size="10.00">vector</text>
</a>
</g>
</g>
<!-- Node4&#45;&gt;Node10 -->
<g id="edge11_Node000004_Node000010" class="edge">
<title>Node4&#45;&gt;Node10</title>
<g id="a_edge11_Node000004_Node000010"><a xlink:title=" ">
<path fill="none" stroke="#63b8ff" d="M285.42,-109.99C306.23,-100.4 333.62,-87.79 353.91,-78.44"/>
<polygon fill="#63b8ff" stroke="#63b8ff" points="355.63,-81.5 363.24,-74.14 352.7,-75.14 355.63,-81.5"/>
</a>
</g>
</g>
<!-- Node6 -->
<g id="Node000006" class="node">
<title>Node6</title>
<g id="a_Node000006"><a xlink:title=" ">
<polygon fill="#e0e0e0" stroke="#999999" points="301,-19 251,-19 251,0 301,0 301,-19"/>
<text text-anchor="middle" x="276" y="-7" font-family="Helvetica,sans-Serif" font-size="10.00">cstdint</text>
</a>
</g>
</g>
<!-- Node5&#45;&gt;Node6 -->
<g id="edge5_Node000005_Node000006" class="edge">
<title>Node5&#45;&gt;Node6</title>
<g id="a_edge5_Node000005_Node000006"><a xlink:title=" ">
<path fill="none" stroke="#63b8ff" d="M276,-54.75C276,-47.8 276,-37.85 276,-29.13"/>
<polygon fill="#63b8ff" stroke="#63b8ff" points="279.5,-29.09 276,-19.09 272.5,-29.09 279.5,-29.09"/>
</a>
</g>
</g>
<!-- Node7 -->
<g id="Node000007" class="node">
<title>Node7</title>
<g id="a_Node000007"><a xlink:title=" ">
<polygon fill="#e0e0e0" stroke="#999999" points="577,-19 533,-19 533,0 577,0 577,-19"/>
<text text-anchor="middle" x="555" y="-7" font-family="Helvetica,sans-Serif" font-size="10.00">string</text>
</a>
</g>
</g>
<!-- Node5&#45;&gt;Node7 -->
<g id="edge6_Node000005_Node000007" class="edge">
<title>Node5&#45;&gt;Node7</title>
<g id="a_edge6_Node000005_Node000007"><a xlink:title=" ">
<path fill="none" stroke="#63b8ff" d="M320.83,-54.98C377.34,-44.25 473.11,-26.06 522.86,-16.61"/>
<polygon fill="#63b8ff" stroke="#63b8ff" points="523.57,-20.03 532.74,-14.73 522.26,-13.16 523.57,-20.03"/>
</a>
</g>
</g>
<!-- Node12 -->
<g id="Node000012" class="node">
<title>Node12</title>
<g id="a_Node000012"><a xlink:title=" ">
<polygon fill="#e0e0e0" stroke="#999999" points="863.5,-74 798.5,-74 798.5,-55 863.5,-55 863.5,-74"/>
<text text-anchor="middle" x="831" y="-62" font-family="Helvetica,sans-Serif" font-size="10.00">stdexcept</text>
</a>
</g>
</g>
<!-- Node11&#45;&gt;Node12 -->
<g id="edge13_Node000011_Node000012" class="edge">
<title>Node11&#45;&gt;Node12</title>
<g id="a_edge13_Node000011_Node000012"><a xlink:title=" ">
<path fill="none" stroke="#63b8ff" d="M769.61,-109.84C781.97,-100.91 797.9,-89.41 810.43,-80.35"/>
<polygon fill="#63b8ff" stroke="#63b8ff" points="812.8,-82.96 818.86,-74.27 808.71,-77.28 812.8,-82.96"/>
</a>
</g>
</g>
<!-- Node13&#45;&gt;Node7 -->
<g id="edge17_Node000013_Node000007" class="edge">
<title>Node13&#45;&gt;Node7</title>
<g id="a_edge17_Node000013_Node000007"><a xlink:title=" ">
<path fill="none" stroke="#63b8ff" d="M597.63,-117.75C655.9,-110.96 731.97,-97.75 751,-74 795.28,-18.74 653.85,-10.97 587.47,-10.29"/>
<polygon fill="#63b8ff" stroke="#63b8ff" points="587.14,-6.79 577.12,-10.24 587.1,-13.79 587.14,-6.79"/>
</a>
</g>
</g>
<!-- Node13&#45;&gt;Node9 -->
<g id="edge19_Node000013_Node000009" class="edge">
<title>Node13&#45;&gt;Node9</title>
<g id="a_edge19_Node000013_Node000009"><a xlink:title=" ">
<path fill="none" stroke="#63b8ff" d="M515.93,-115.37C504.19,-106.21 485.41,-91.56 471.24,-80.51"/>
<polygon fill="#63b8ff" stroke="#63b8ff" points="473.15,-77.56 463.11,-74.17 468.84,-83.08 473.15,-77.56"/>
</a>
</g>
</g>
<!-- Node13&#45;&gt;Node10 -->
<g id="edge20_Node000013_Node000010" class="edge">
<title>Node13&#45;&gt;Node10</title>
<g id="a_edge20_Node000013_Node000010"><a xlink:title=" ">
<path fill="none" stroke="#63b8ff" d="M505.92,-115.49C481.32,-105.57 440.47,-89.09 412.44,-77.78"/>
<polygon fill="#63b8ff" stroke="#63b8ff" points="413.69,-74.51 403.11,-74.02 411.07,-81 413.69,-74.51"/>
</a>
</g>
</g>
<!-- Node14 -->
<g id="Node000014" class="node">
<title>Node14</title>
<g id="a_Node000014"><a xlink:title=" ">
<polygon fill="#e0e0e0" stroke="#999999" points="556,-74 498,-74 498,-55 556,-55 556,-74"/>
<text text-anchor="middle" x="527" y="-62" font-family="Helvetica,sans-Serif" font-size="10.00">memory</text>
</a>
</g>
</g>
<!-- Node13&#45;&gt;Node14 -->
<g id="edge15_Node000013_Node000014" class="edge">
<title>Node13&#45;&gt;Node14</title>
<g id="a_edge15_Node000013_Node000014"><a xlink:title=" ">
<path fill="none" stroke="#63b8ff" d="M527,-115.37C527,-107.25 527,-94.81 527,-84.39"/>
<polygon fill="#63b8ff" stroke="#63b8ff" points="530.5,-84.17 527,-74.17 523.5,-84.17 530.5,-84.17"/>
</a>
</g>
</g>
<!-- Node15 -->
<g id="Node000015" class="node">
<title>Node15</title>
<g id="a_Node000015"><a xlink:title=" ">
<polygon fill="#e0e0e0" stroke="#999999" points="646,-74 574,-74 574,-55 646,-55 646,-74"/>
<text text-anchor="middle" x="610" y="-62" font-family="Helvetica,sans-Serif" font-size="10.00">netinet/in.h</text>
</a>
</g>
</g>
<!-- Node13&#45;&gt;Node15 -->
<g id="edge16_Node000013_Node000015" class="edge">
<title>Node13&#45;&gt;Node15</title>
<g id="a_edge16_Node000013_Node000015"><a xlink:title=" ">
<path fill="none" stroke="#63b8ff" d="M539.25,-115.37C552.36,-106.12 573.42,-91.28 589.15,-80.19"/>
<polygon fill="#63b8ff" stroke="#63b8ff" points="591.55,-82.79 597.7,-74.17 587.51,-77.07 591.55,-82.79"/>
</a>
</g>
</g>
<!-- Node16 -->
<g id="Node000016" class="node">
<title>Node16</title>
<g id="a_Node000016"><a xlink:title=" ">
<polygon fill="#e0e0e0" stroke="#999999" points="741.5,-74 664.5,-74 664.5,-55 741.5,-55 741.5,-74"/>
<text text-anchor="middle" x="703" y="-62" font-family="Helvetica,sans-Serif" font-size="10.00">sys/socket.h</text>
</a>
</g>
</g>
<!-- Node13&#45;&gt;Node16 -->
<g id="edge18_Node000013_Node000016" class="edge">
<title>Node13&#45;&gt;Node16</title>
<g id="a_edge18_Node000013_Node000016"><a xlink:title=" ">
<path fill="none" stroke="#63b8ff" d="M552.59,-115.49C582.96,-105.4 633.76,-88.51 667.82,-77.19"/>
<polygon fill="#63b8ff" stroke="#63b8ff" points="668.99,-80.49 677.38,-74.02 666.78,-73.85 668.99,-80.49"/>
</a>
</g>
</g>
</g>
</svg>
