<?xml version="1.0" encoding="UTF-8" standalone="no"?>
<!DOCTYPE svg PUBLIC "-//W3C//DTD SVG 1.1//EN"
 "http://www.w3.org/Graphics/SVG/1.1/DTD/svg11.dtd">
<!-- Generated by graphviz version 2.43.0 (0)
 -->
<!-- Title: src/client/process_request.cpp Pages: 1 -->
<svg width="902pt" height="313pt"
 viewBox="0.00 0.00 901.63 313.00" xmlns="http://www.w3.org/2000/svg" xmlns:xlink="http://www.w3.org/1999/xlink">
<g id="graph0" class="graph" transform="scale(1 1) rotate(0) translate(4 309)">
<title>src/client/process_request.cpp</title>
<!-- Node1 -->
<g id="Node000001" class="node">
<title>Node1</title>
<g id="a_Node000001"><a xlink:title=" ">
<polygon fill="#999999" stroke="#666666" points="227.03,-305 126.03,-305 126.03,-275 227.03,-275 227.03,-305"/>
<text text-anchor="start" x="134.03" y="-293" font-family="Helvetica,sans-Serif" font-size="10.00">src/client/process</text>
<text text-anchor="middle" x="176.53" y="-282" font-family="Helvetica,sans-Serif" font-size="10.00">_request.cpp</text>
</a>
</g>
</g>
<!-- Node2 -->
<g id="Node000002" class="node">
<title>Node2</title>
<g id="a_Node000002"><a xlink:href="client_2process__request_8hpp.html" target="_top" xlink:title=" ">
<polygon fill="white" stroke="#666666" points="520.03,-239 403.03,-239 403.03,-220 520.03,-220 520.03,-239"/>
<text text-anchor="middle" x="461.53" y="-227" font-family="Helvetica,sans-Serif" font-size="10.00">process_request.hpp</text>
</a>
</g>
</g>
<!-- Node1&#45;&gt;Node2 -->
<g id="edge1_Node000001_Node000002" class="edge">
<title>Node1&#45;&gt;Node2</title>
<g id="a_edge1_Node000001_Node000002"><a xlink:title=" ">
<path fill="none" stroke="#63b8ff" d="M227.15,-278.61C278.59,-268.05 357.86,-251.78 409.72,-241.13"/>
<polygon fill="#63b8ff" stroke="#63b8ff" points="410.62,-244.52 419.71,-239.08 409.21,-237.67 410.62,-244.52"/>
</a>
</g>
</g>
<!-- Node17 -->
<g id="Node000017" class="node">
<title>Node17</title>
<g id="a_Node000017"><a xlink:title=" ">
<polygon fill="#e0e0e0" stroke="#999999" points="212.53,-19 156.53,-19 156.53,0 212.53,0 212.53,-19"/>
<text text-anchor="middle" x="184.53" y="-7" font-family="Helvetica,sans-Serif" font-size="10.00">sstream</text>
</a>
</g>
</g>
<!-- Node1&#45;&gt;Node17 -->
<g id="edge33_Node000001_Node000017" class="edge">
<title>Node1&#45;&gt;Node17</title>
<g id="a_edge33_Node000001_Node000017"><a xlink:title=" ">
<path fill="none" stroke="#63b8ff" d="M125.62,-278.91C73.64,-265.3 0.53,-235.49 0.53,-175.5 0.53,-175.5 0.53,-175.5 0.53,-118.5 0.53,-89.04 -1.58,-75.54 19.53,-55 37.45,-37.56 103.33,-23.79 146.23,-16.42"/>
<polygon fill="#63b8ff" stroke="#63b8ff" points="147.05,-19.83 156.33,-14.73 145.89,-12.93 147.05,-19.83"/>
</a>
</g>
</g>
<!-- Node3 -->
<g id="Node000003" class="node">
<title>Node3</title>
<g id="a_Node000003"><a xlink:title=" ">
<polygon fill="#e0e0e0" stroke="#999999" points="540.53,-74 482.53,-74 482.53,-55 540.53,-55 540.53,-74"/>
<text text-anchor="middle" x="511.53" y="-62" font-family="Helvetica,sans-Serif" font-size="10.00">memory</text>
</a>
</g>
</g>
<!-- Node2&#45;&gt;Node3 -->
<g id="edge2_Node000002_Node000003" class="edge">
<title>Node2&#45;&gt;Node3</title>
<g id="a_edge2_Node000002_Node000003"><a xlink:title=" ">
<path fill="none" stroke="#63b8ff" d="M464.93,-219.82C471.59,-202.65 486.54,-163.09 496.53,-129 500.91,-114.03 504.92,-96.8 507.69,-84.07"/>
<polygon fill="#63b8ff" stroke="#63b8ff" points="511.13,-84.71 509.78,-74.2 504.28,-83.26 511.13,-84.71"/>
</a>
</g>
</g>
<!-- Node4 -->
<g id="Node000004" class="node">
<title>Node4</title>
<g id="a_Node000004"><a xlink:title=" ">
<polygon fill="#e0e0e0" stroke="#999999" points="457.53,-19 413.53,-19 413.53,0 457.53,0 457.53,-19"/>
<text text-anchor="middle" x="435.53" y="-7" font-family="Helvetica,sans-Serif" font-size="10.00">string</text>
</a>
</g>
</g>
<!-- Node2&#45;&gt;Node4 -->
<g id="edge3_Node000002_Node000004" class="edge">
<title>Node2&#45;&gt;Node4</title>
<g id="a_edge3_Node000002_Node000004"><a xlink:title=" ">
<path fill="none" stroke="#63b8ff" d="M472.46,-219.76C503.88,-193.55 589.73,-113.84 549.53,-55 531.33,-28.36 494.61,-17.67 467.75,-13.38"/>
<polygon fill="#63b8ff" stroke="#63b8ff" points="468.02,-9.88 457.64,-11.98 467.07,-16.82 468.02,-9.88"/>
</a>
</g>
</g>
<!-- Node5 -->
<g id="Node000005" class="node">
<title>Node5</title>
<g id="a_Node000005"><a xlink:href="endpoint_8hpp.html" target="_top" xlink:title=" ">
<polygon fill="white" stroke="#666666" points="156.53,-74 28.53,-74 28.53,-55 156.53,-55 156.53,-74"/>
<text text-anchor="middle" x="92.53" y="-62" font-family="Helvetica,sans-Serif" font-size="10.00">../models/endpoint.hpp</text>
</a>
</g>
</g>
<!-- Node2&#45;&gt;Node5 -->
<g id="edge4_Node000002_Node000005" class="edge">
<title>Node2&#45;&gt;Node5</title>
<g id="a_edge4_Node000002_Node000005"><a xlink:title=" ">
<path fill="none" stroke="#63b8ff" d="M402.92,-222.57C302.67,-211.08 105,-182.12 63.53,-129 52.41,-114.76 64.07,-95.57 75.75,-82.03"/>
<polygon fill="#63b8ff" stroke="#63b8ff" points="78.58,-84.13 82.83,-74.42 73.46,-79.36 78.58,-84.13"/>
</a>
</g>
</g>
<!-- Node8 -->
<g id="Node000008" class="node">
<title>Node8</title>
<g id="a_Node000008"><a xlink:href="tcp__socket_8hpp.html" target="_top" xlink:title=" ">
<polygon fill="white" stroke="#666666" points="741.03,-129 600.03,-129 600.03,-110 741.03,-110 741.03,-129"/>
<text text-anchor="middle" x="670.53" y="-117" font-family="Helvetica,sans-Serif" font-size="10.00">../network/tcp_socket.hpp</text>
</a>
</g>
</g>
<!-- Node2&#45;&gt;Node8 -->
<g id="edge8_Node000002_Node000008" class="edge">
<title>Node2&#45;&gt;Node8</title>
<g id="a_edge8_Node000002_Node000008"><a xlink:title=" ">
<path fill="none" stroke="#63b8ff" d="M492.65,-219.97C518.17,-212.34 554.8,-199.92 584.53,-184 610.03,-170.35 636.35,-149.79 653.04,-135.79"/>
<polygon fill="#63b8ff" stroke="#63b8ff" points="655.51,-138.29 660.84,-129.13 650.96,-132.96 655.51,-138.29"/>
</a>
</g>
</g>
<!-- Node13 -->
<g id="Node000013" class="node">
<title>Node13</title>
<g id="a_Node000013"><a xlink:href="peerdb_8hpp.html" target="_top" xlink:title=" ">
<polygon fill="white" stroke="#666666" points="407.03,-184 336.03,-184 336.03,-165 407.03,-165 407.03,-184"/>
<text text-anchor="middle" x="371.53" y="-172" font-family="Helvetica,sans-Serif" font-size="10.00">peerdb.hpp</text>
</a>
</g>
</g>
<!-- Node2&#45;&gt;Node13 -->
<g id="edge15_Node000002_Node000013" class="edge">
<title>Node2&#45;&gt;Node13</title>
<g id="a_edge15_Node000002_Node000013"><a xlink:title=" ">
<path fill="none" stroke="#63b8ff" d="M447.07,-219.98C433.11,-211.77 411.73,-199.18 395.28,-189.49"/>
<polygon fill="#63b8ff" stroke="#63b8ff" points="396.64,-186.23 386.25,-184.17 393.09,-192.26 396.64,-186.23"/>
</a>
</g>
</g>
<!-- Node5&#45;&gt;Node4 -->
<g id="edge7_Node000005_Node000004" class="edge">
<title>Node5&#45;&gt;Node4</title>
<g id="a_edge7_Node000005_Node000004"><a xlink:title=" ">
<path fill="none" stroke="#63b8ff" d="M147.64,-54.98C220.02,-43.8 344.77,-24.52 403.36,-15.47"/>
<polygon fill="#63b8ff" stroke="#63b8ff" points="404.16,-18.89 413.51,-13.9 403.09,-11.97 404.16,-18.89"/>
</a>
</g>
</g>
<!-- Node6 -->
<g id="Node000006" class="node">
<title>Node6</title>
<g id="a_Node000006"><a xlink:title=" ">
<polygon fill="#e0e0e0" stroke="#999999" points="117.53,-19 67.53,-19 67.53,0 117.53,0 117.53,-19"/>
<text text-anchor="middle" x="92.53" y="-7" font-family="Helvetica,sans-Serif" font-size="10.00">cstdint</text>
</a>
</g>
</g>
<!-- Node5&#45;&gt;Node6 -->
<g id="edge5_Node000005_Node000006" class="edge">
<title>Node5&#45;&gt;Node6</title>
<g id="a_edge5_Node000005_Node000006"><a xlink:title=" ">
<path fill="none" stroke="#63b8ff" d="M92.53,-54.75C92.53,-47.8 92.53,-37.85 92.53,-29.13"/>
<polygon fill="#63b8ff" stroke="#63b8ff" points="96.03,-29.09 92.53,-19.09 89.03,-29.09 96.03,-29.09"/>
</a>
</g>
</g>
<!-- Node7 -->
<g id="Node000007" class="node">
<title>Node7</title>
<g id="a_Node000007"><a xlink:title=" ">
<polygon fill="#e0e0e0" stroke="#999999" points="355.03,-19 290.03,-19 290.03,0 355.03,0 355.03,-19"/>
<text text-anchor="middle" x="322.53" y="-7" font-family="Helvetica,sans-Serif" font-size="10.00">stdexcept</text>
</a>
</g>
</g>
<!-- Node5&#45;&gt;Node7 -->
<g id="edge6_Node000005_Node000007" class="edge">
<title>Node5&#45;&gt;Node7</title>
<g id="a_edge6_Node000005_Node000007"><a xlink:title=" ">
<path fill="none" stroke="#63b8ff" d="M129.48,-54.98C170.51,-45.53 236.63,-30.29 279.84,-20.34"/>
<polygon fill="#63b8ff" stroke="#63b8ff" points="280.81,-23.71 289.76,-18.05 279.23,-16.89 280.81,-23.71"/>
</a>
</g>
</g>
<!-- Node8&#45;&gt;Node3 -->
<g id="edge9_Node000008_Node000003" class="edge">
<title>Node8&#45;&gt;Node3</title>
<g id="a_edge9_Node000008_Node000003"><a xlink:title=" ">
<path fill="none" stroke="#63b8ff" d="M644.98,-109.98C618.4,-101.13 576.59,-87.19 546.86,-77.28"/>
<polygon fill="#63b8ff" stroke="#63b8ff" points="547.87,-73.92 537.27,-74.08 545.65,-80.56 547.87,-73.92"/>
</a>
</g>
</g>
<!-- Node8&#45;&gt;Node4 -->
<g id="edge11_Node000008_Node000004" class="edge">
<title>Node8&#45;&gt;Node4</title>
<g id="a_edge11_Node000008_Node000004"><a xlink:title=" ">
<path fill="none" stroke="#63b8ff" d="M660.93,-109.91C645.47,-96.45 613.6,-70.37 582.53,-55 545.01,-36.43 498.23,-23.9 467.65,-16.99"/>
<polygon fill="#63b8ff" stroke="#63b8ff" points="468.07,-13.5 457.55,-14.78 466.57,-20.34 468.07,-13.5"/>
</a>
</g>
</g>
<!-- Node9 -->
<g id="Node000009" class="node">
<title>Node9</title>
<g id="a_Node000009"><a xlink:title=" ">
<polygon fill="#e0e0e0" stroke="#999999" points="706.53,-74 634.53,-74 634.53,-55 706.53,-55 706.53,-74"/>
<text text-anchor="middle" x="670.53" y="-62" font-family="Helvetica,sans-Serif" font-size="10.00">netinet/in.h</text>
</a>
</g>
</g>
<!-- Node8&#45;&gt;Node9 -->
<g id="edge10_Node000008_Node000009" class="edge">
<title>Node8&#45;&gt;Node9</title>
<g id="a_edge10_Node000008_Node000009"><a xlink:title=" ">
<path fill="none" stroke="#63b8ff" d="M670.53,-109.75C670.53,-102.8 670.53,-92.85 670.53,-84.13"/>
<polygon fill="#63b8ff" stroke="#63b8ff" points="674.03,-84.09 670.53,-74.09 667.03,-84.09 674.03,-84.09"/>
</a>
</g>
</g>
<!-- Node10 -->
<g id="Node000010" class="node">
<title>Node10</title>
<g id="a_Node000010"><a xlink:title=" ">
<polygon fill="#e0e0e0" stroke="#999999" points="802.03,-74 725.03,-74 725.03,-55 802.03,-55 802.03,-74"/>
<text text-anchor="middle" x="763.53" y="-62" font-family="Helvetica,sans-Serif" font-size="10.00">sys/socket.h</text>
</a>
</g>
</g>
<!-- Node8&#45;&gt;Node10 -->
<g id="edge12_Node000008_Node000010" class="edge">
<title>Node8&#45;&gt;Node10</title>
<g id="a_edge12_Node000008_Node000010"><a xlink:title=" ">
<path fill="none" stroke="#63b8ff" d="M685.47,-109.98C700.03,-101.69 722.4,-88.94 739.46,-79.22"/>
<polygon fill="#63b8ff" stroke="#63b8ff" points="741.36,-82.16 748.31,-74.17 737.89,-76.08 741.36,-82.16"/>
</a>
</g>
</g>
<!-- Node11 -->
<g id="Node000011" class="node">
<title>Node11</title>
<g id="a_Node000011"><a xlink:title=" ">
<polygon fill="#e0e0e0" stroke="#999999" points="876.53,-74 820.53,-74 820.53,-55 876.53,-55 876.53,-74"/>
<text text-anchor="middle" x="848.53" y="-62" font-family="Helvetica,sans-Serif" font-size="10.00">unistd.h</text>
</a>
</g>
</g>
<!-- Node8&#45;&gt;Node11 -->
<g id="edge13_Node000008_Node000011" class="edge">
<title>Node8&#45;&gt;Node11</title>
<g id="a_edge13_Node000008_Node000011"><a xlink:title=" ">
<path fill="none" stroke="#63b8ff" d="M699.13,-109.98C729.32,-100.99 777.07,-86.78 810.44,-76.84"/>
<polygon fill="#63b8ff" stroke="#63b8ff" points="811.71,-80.11 820.29,-73.91 809.71,-73.41 811.71,-80.11"/>
</a>
</g>
</g>
<!-- Node12 -->
<g id="Node000012" class="node">
<title>Node12</title>
<g id="a_Node000012"><a xlink:title=" ">
<polygon fill="#e0e0e0" stroke="#999999" points="735.03,-19 688.03,-19 688.03,0 735.03,0 735.03,-19"/>
<text text-anchor="middle" x="711.53" y="-7" font-family="Helvetica,sans-Serif" font-size="10.00">vector</text>
</a>
</g>
</g>
<!-- Node8&#45;&gt;Node12 -->
<g id="edge14_Node000008_Node000012" class="edge">
<title>Node8&#45;&gt;Node12</title>
<g id="a_edge14_Node000008_Node000012"><a xlink:title=" ">
<path fill="none" stroke="#63b8ff" d="M741.3,-113.33C796.77,-107.64 867.48,-96.17 885.53,-74 924.6,-26.01 806.6,-14.29 745.6,-11.42"/>
<polygon fill="#63b8ff" stroke="#63b8ff" points="745.41,-7.91 735.28,-11 745.12,-14.91 745.41,-7.91"/>
</a>
</g>
</g>
<!-- Node13&#45;&gt;Node3 -->
<g id="edge16_Node000013_Node000003" class="edge">
<title>Node13&#45;&gt;Node3</title>
<g id="a_edge16_Node000013_Node000003"><a xlink:title=" ">
<path fill="none" stroke="#63b8ff" d="M406.02,-164.92C427.93,-158.08 455.77,-146.67 475.53,-129 489.38,-116.61 499.17,-97.58 505.01,-83.59"/>
<polygon fill="#63b8ff" stroke="#63b8ff" points="508.36,-84.64 508.71,-74.05 501.83,-82.11 508.36,-84.64"/>
</a>
</g>
</g>
<!-- Node13&#45;&gt;Node4 -->
<g id="edge18_Node000013_Node000004" class="edge">
<title>Node13&#45;&gt;Node4</title>
<g id="a_edge18_Node000013_Node000004"><a xlink:title=" ">
<path fill="none" stroke="#63b8ff" d="M376.38,-164.97C385.81,-148.08 406.83,-108.98 419.53,-74 424.87,-59.29 429.09,-42.03 431.86,-29.23"/>
<polygon fill="#63b8ff" stroke="#63b8ff" points="435.31,-29.8 433.9,-19.29 428.46,-28.38 435.31,-29.8"/>
</a>
</g>
</g>
<!-- Node13&#45;&gt;Node5 -->
<g id="edge20_Node000013_Node000005" class="edge">
<title>Node13&#45;&gt;Node5</title>
<g id="a_edge20_Node000013_Node000005"><a xlink:title=" ">
<path fill="none" stroke="#63b8ff" d="M336,-165.74C303.51,-158.12 254.43,-145.29 213.53,-129 203.8,-125.13 149.93,-96.39 117.44,-78.93"/>
<polygon fill="#63b8ff" stroke="#63b8ff" points="118.97,-75.78 108.5,-74.12 115.65,-81.94 118.97,-75.78"/>
</a>
</g>
</g>
<!-- Node14 -->
<g id="Node000014" class="node">
<title>Node14</title>
<g id="a_Node000014"><a xlink:title=" ">
<polygon fill="#e0e0e0" stroke="#999999" points="466.53,-129 418.53,-129 418.53,-110 466.53,-110 466.53,-129"/>
<text text-anchor="middle" x="442.53" y="-117" font-family="Helvetica,sans-Serif" font-size="10.00">mutex</text>
</a>
</g>
</g>
<!-- Node13&#45;&gt;Node14 -->
<g id="edge17_Node000013_Node000014" class="edge">
<title>Node13&#45;&gt;Node14</title>
<g id="a_edge17_Node000013_Node000014"><a xlink:title=" ">
<path fill="none" stroke="#63b8ff" d="M382.94,-164.98C393.64,-157 409.87,-144.88 422.69,-135.31"/>
<polygon fill="#63b8ff" stroke="#63b8ff" points="424.99,-137.96 430.91,-129.17 420.81,-132.35 424.99,-137.96"/>
</a>
</g>
</g>
<!-- Node15 -->
<g id="Node000015" class="node">
<title>Node15</title>
<g id="a_Node000015"><a xlink:title=" ">
<polygon fill="#e0e0e0" stroke="#999999" points="166.03,-129 73.03,-129 73.03,-110 166.03,-110 166.03,-129"/>
<text text-anchor="middle" x="119.53" y="-117" font-family="Helvetica,sans-Serif" font-size="10.00">unordered_map</text>
</a>
</g>
</g>
<!-- Node13&#45;&gt;Node15 -->
<g id="edge19_Node000013_Node000015" class="edge">
<title>Node13&#45;&gt;Node15</title>
<g id="a_edge19_Node000013_Node000015"><a xlink:title=" ">
<path fill="none" stroke="#63b8ff" d="M335.96,-166.02C292.67,-156.92 219.3,-141.48 170.14,-131.15"/>
<polygon fill="#63b8ff" stroke="#63b8ff" points="170.85,-127.72 160.35,-129.08 169.41,-134.57 170.85,-127.72"/>
</a>
</g>
</g>
<!-- Node16 -->
<g id="Node000016" class="node">
<title>Node16</title>
<g id="a_Node000016"><a xlink:href="file_8hpp.html" target="_top" xlink:title=" ">
<polygon fill="white" stroke="#666666" points="324.03,-129 223.03,-129 223.03,-110 324.03,-110 324.03,-129"/>
<text text-anchor="middle" x="273.53" y="-117" font-family="Helvetica,sans-Serif" font-size="10.00">../models/file.hpp</text>
</a>
</g>
</g>
<!-- Node13&#45;&gt;Node16 -->
<g id="edge21_Node000013_Node000016" class="edge">
<title>Node13&#45;&gt;Node16</title>
<g id="a_edge21_Node000013_Node000016"><a xlink:title=" ">
<path fill="none" stroke="#63b8ff" d="M355.78,-164.98C340.3,-156.61 316.44,-143.7 298.39,-133.95"/>
<polygon fill="#63b8ff" stroke="#63b8ff" points="300.02,-130.85 289.56,-129.17 296.69,-137.01 300.02,-130.85"/>
</a>
</g>
</g>
<!-- Node19 -->
<g id="Node000019" class="node">
<title>Node19</title>
<g id="a_Node000019"><a xlink:href="fileinfo_8hpp.html" target="_top" xlink:title=" ">
<polygon fill="white" stroke="#666666" points="388.03,-74 317.03,-74 317.03,-55 388.03,-55 388.03,-74"/>
<text text-anchor="middle" x="352.53" y="-62" font-family="Helvetica,sans-Serif" font-size="10.00">fileinfo.hpp</text>
</a>
</g>
</g>
<!-- Node13&#45;&gt;Node19 -->
<g id="edge32_Node000013_Node000019" class="edge">
<title>Node13&#45;&gt;Node19</title>
<g id="a_edge32_Node000013_Node000019"><a xlink:title=" ">
<path fill="none" stroke="#63b8ff" d="M369.97,-164.66C366.9,-147.17 359.97,-107.8 355.83,-84.27"/>
<polygon fill="#63b8ff" stroke="#63b8ff" points="359.23,-83.4 354.05,-74.16 352.34,-84.61 359.23,-83.4"/>
</a>
</g>
</g>
<!-- Node16&#45;&gt;Node3 -->
<g id="edge22_Node000016_Node000003" class="edge">
<title>Node16&#45;&gt;Node3</title>
<g id="a_edge22_Node000016_Node000003"><a xlink:title=" ">
<path fill="none" stroke="#63b8ff" d="M311.77,-109.98C355.9,-100.16 428.08,-84.08 472.53,-74.18"/>
<polygon fill="#63b8ff" stroke="#63b8ff" points="473.39,-77.58 482.39,-71.99 471.86,-70.75 473.39,-77.58"/>
</a>
</g>
</g>
<!-- Node16&#45;&gt;Node4 -->
<g id="edge23_Node000016_Node000004" class="edge">
<title>Node16&#45;&gt;Node4</title>
<g id="a_edge23_Node000016_Node000004"><a xlink:title=" ">
<path fill="none" stroke="#63b8ff" d="M318.42,-109.94C343.48,-103.4 374.08,-92.29 396.53,-74 411.38,-61.9 422.1,-42.56 428.5,-28.39"/>
<polygon fill="#63b8ff" stroke="#63b8ff" points="431.72,-29.75 432.39,-19.18 425.27,-27.03 431.72,-29.75"/>
</a>
</g>
</g>
<!-- Node16&#45;&gt;Node5 -->
<g id="edge26_Node000016_Node000005" class="edge">
<title>Node16&#45;&gt;Node5</title>
<g id="a_edge26_Node000016_Node000005"><a xlink:title=" ">
<path fill="none" stroke="#63b8ff" d="M244.45,-109.98C213.93,-101.05 165.76,-86.94 131.86,-77.02"/>
<polygon fill="#63b8ff" stroke="#63b8ff" points="132.42,-73.53 121.84,-74.08 130.45,-80.25 132.42,-73.53"/>
</a>
</g>
</g>
<!-- Node16&#45;&gt;Node17 -->
<g id="edge24_Node000016_Node000017" class="edge">
<title>Node16&#45;&gt;Node17</title>
<g id="a_edge24_Node000016_Node000017"><a xlink:title=" ">
<path fill="none" stroke="#63b8ff" d="M252.24,-109.9C236.62,-102.55 216.04,-90.54 203.53,-74 193.66,-60.95 188.89,-42.81 186.6,-29.26"/>
<polygon fill="#63b8ff" stroke="#63b8ff" points="190.04,-28.59 185.21,-19.16 183.11,-29.55 190.04,-28.59"/>
</a>
</g>
</g>
<!-- Node18 -->
<g id="Node000018" class="node">
<title>Node18</title>
<g id="a_Node000018"><a xlink:title=" ">
<polygon fill="#e0e0e0" stroke="#999999" points="298.53,-74 212.53,-74 212.53,-55 298.53,-55 298.53,-74"/>
<text text-anchor="middle" x="255.53" y="-62" font-family="Helvetica,sans-Serif" font-size="10.00">unordered_set</text>
</a>
</g>
</g>
<!-- Node16&#45;&gt;Node18 -->
<g id="edge25_Node000016_Node000018" class="edge">
<title>Node16&#45;&gt;Node18</title>
<g id="a_edge25_Node000016_Node000018"><a xlink:title=" ">
<path fill="none" stroke="#63b8ff" d="M270.56,-109.75C268.17,-102.72 264.74,-92.62 261.76,-83.84"/>
<polygon fill="#63b8ff" stroke="#63b8ff" points="264.98,-82.43 258.45,-74.09 258.35,-84.68 264.98,-82.43"/>
</a>
</g>
</g>
<!-- Node16&#45;&gt;Node19 -->
<g id="edge27_Node000016_Node000019" class="edge">
<title>Node16&#45;&gt;Node19</title>
<g id="a_edge27_Node000016_Node000019"><a xlink:title=" ">
<path fill="none" stroke="#63b8ff" d="M286.22,-109.98C298.36,-101.84 316.89,-89.41 331.27,-79.76"/>
<polygon fill="#63b8ff" stroke="#63b8ff" points="333.25,-82.65 339.6,-74.17 329.35,-76.84 333.25,-82.65"/>
</a>
</g>
</g>
<!-- Node19&#45;&gt;Node4 -->
<g id="edge30_Node000019_Node000004" class="edge">
<title>Node19&#45;&gt;Node4</title>
<g id="a_edge30_Node000019_Node000004"><a xlink:title=" ">
<path fill="none" stroke="#63b8ff" d="M365.86,-54.98C378.61,-46.84 398.08,-34.41 413.2,-24.76"/>
<polygon fill="#63b8ff" stroke="#63b8ff" points="415.41,-27.5 421.95,-19.17 411.64,-21.6 415.41,-27.5"/>
</a>
</g>
</g>
<!-- Node19&#45;&gt;Node7 -->
<g id="edge29_Node000019_Node000007" class="edge">
<title>Node19&#45;&gt;Node7</title>
<g id="a_edge29_Node000019_Node000007"><a xlink:title=" ">
<path fill="none" stroke="#63b8ff" d="M347.57,-54.75C343.47,-47.49 337.5,-36.95 332.42,-27.98"/>
<polygon fill="#63b8ff" stroke="#63b8ff" points="335.36,-26.07 327.39,-19.09 329.27,-29.52 335.36,-26.07"/>
</a>
</g>
</g>
<!-- Node19&#45;&gt;Node12 -->
<g id="edge31_Node000019_Node000012" class="edge">
<title>Node19&#45;&gt;Node12</title>
<g id="a_edge31_Node000019_Node000012"><a xlink:title=" ">
<path fill="none" stroke="#63b8ff" d="M388.26,-58.22C457.62,-47.98 609.63,-25.54 677.56,-15.52"/>
<polygon fill="#63b8ff" stroke="#63b8ff" points="678.33,-18.94 687.71,-14.02 677.31,-12.01 678.33,-18.94"/>
</a>
</g>
</g>
<!-- Node19&#45;&gt;Node17 -->
<g id="edge28_Node000019_Node000017" class="edge">
<title>Node19&#45;&gt;Node17</title>
<g id="a_edge28_Node000019_Node000017"><a xlink:title=" ">
<path fill="none" stroke="#63b8ff" d="M325.54,-54.98C297.33,-46.09 252.89,-32.07 221.45,-22.15"/>
<polygon fill="#63b8ff" stroke="#63b8ff" points="222.32,-18.75 211.73,-19.08 220.22,-25.43 222.32,-18.75"/>
</a>
</g>
</g>
</g>
</svg>
