<?xml version="1.0" encoding="UTF-8" standalone="no"?>
<!DOCTYPE svg PUBLIC "-//W3C//DTD SVG 1.1//EN"
 "http://www.w3.org/Graphics/SVG/1.1/DTD/svg11.dtd">
<!-- Generated by graphviz version 2.43.0 (0)
 -->
<!-- Title: src/client/client.cpp Pages: 1 -->
<svg width="1112pt" height="203pt"
 viewBox="0.00 0.00 1112.00 203.00" xmlns="http://www.w3.org/2000/svg" xmlns:xlink="http://www.w3.org/1999/xlink">
<g id="graph0" class="graph" transform="scale(1 1) rotate(0) translate(4 199)">
<title>src/client/client.cpp</title>
<!-- Node1 -->
<g id="Node000001" class="node">
<title>Node1</title>
<g id="a_Node000001"><a xlink:title="The entrypoint to the client.">
<polygon fill="#999999" stroke="#666666" points="410.5,-195 299.5,-195 299.5,-176 410.5,-176 410.5,-195"/>
<text text-anchor="middle" x="355" y="-183" font-family="Helvetica,sans-Serif" font-size="10.00">src/client/client.cpp</text>
</a>
</g>
</g>
<!-- Node2 -->
<g id="Node000002" class="node">
<title>Node2</title>
<g id="a_Node000002"><a xlink:title=" ">
<polygon fill="#e0e0e0" stroke="#999999" points="352,-74 302,-74 302,-55 352,-55 352,-74"/>
<text text-anchor="middle" x="327" y="-62" font-family="Helvetica,sans-Serif" font-size="10.00">cstring</text>
</a>
</g>
</g>
<!-- Node1&#45;&gt;Node2 -->
<g id="edge1_Node000001_Node000002" class="edge">
<title>Node1&#45;&gt;Node2</title>
<g id="a_edge1_Node000001_Node000002"><a xlink:title=" ">
<path fill="none" stroke="#63b8ff" d="M351.9,-175.72C348.83,-166.81 344.15,-152.57 341,-140 336.31,-121.28 332.4,-99.57 329.92,-84.43"/>
<polygon fill="#63b8ff" stroke="#63b8ff" points="333.33,-83.62 328.3,-74.29 326.42,-84.72 333.33,-83.62"/>
</a>
</g>
</g>
<!-- Node3 -->
<g id="Node000003" class="node">
<title>Node3</title>
<g id="a_Node000003"><a xlink:title=" ">
<polygon fill="#e0e0e0" stroke="#999999" points="430,-74 370,-74 370,-55 430,-55 430,-74"/>
<text text-anchor="middle" x="400" y="-62" font-family="Helvetica,sans-Serif" font-size="10.00">iostream</text>
</a>
</g>
</g>
<!-- Node1&#45;&gt;Node3 -->
<g id="edge2_Node000001_Node000003" class="edge">
<title>Node1&#45;&gt;Node3</title>
<g id="a_edge2_Node000001_Node000003"><a xlink:title=" ">
<path fill="none" stroke="#63b8ff" d="M356.65,-175.55C359.44,-161.32 365.7,-132.82 375,-110 378.8,-100.67 384.16,-90.84 388.95,-82.8"/>
<polygon fill="#63b8ff" stroke="#63b8ff" points="392.08,-84.39 394.35,-74.04 386.12,-80.72 392.08,-84.39"/>
</a>
</g>
</g>
<!-- Node4 -->
<g id="Node000004" class="node">
<title>Node4</title>
<g id="a_Node000004"><a xlink:href="generate__id_8cpp.html" target="_top" xlink:title=" ">
<polygon fill="white" stroke="#666666" points="246.5,-140 131.5,-140 131.5,-110 246.5,-110 246.5,-140"/>
<text text-anchor="start" x="139.5" y="-128" font-family="Helvetica,sans-Serif" font-size="10.00">../common/generate</text>
<text text-anchor="middle" x="189" y="-117" font-family="Helvetica,sans-Serif" font-size="10.00">_id.cpp</text>
</a>
</g>
</g>
<!-- Node1&#45;&gt;Node4 -->
<g id="edge3_Node000001_Node000004" class="edge">
<title>Node1&#45;&gt;Node4</title>
<g id="a_edge3_Node000001_Node000004"><a xlink:title=" ">
<path fill="none" stroke="#63b8ff" d="M330.86,-175.99C306.76,-167.5 269.03,-154.2 238.53,-143.45"/>
<polygon fill="#63b8ff" stroke="#63b8ff" points="239.5,-140.09 228.91,-140.06 237.18,-146.69 239.5,-140.09"/>
</a>
</g>
</g>
<!-- Node7 -->
<g id="Node000007" class="node">
<title>Node7</title>
<g id="a_Node000007"><a xlink:href="endpoint_8hpp.html" target="_top" xlink:title=" ">
<polygon fill="white" stroke="#666666" points="284,-74 156,-74 156,-55 284,-55 284,-74"/>
<text text-anchor="middle" x="220" y="-62" font-family="Helvetica,sans-Serif" font-size="10.00">../models/endpoint.hpp</text>
</a>
</g>
</g>
<!-- Node1&#45;&gt;Node7 -->
<g id="edge17_Node000001_Node000007" class="edge">
<title>Node1&#45;&gt;Node7</title>
<g id="a_edge17_Node000001_Node000007"><a xlink:title=" ">
<path fill="none" stroke="#63b8ff" d="M345.29,-175.94C322.73,-156.06 266.5,-106.49 237.67,-81.07"/>
<polygon fill="#63b8ff" stroke="#63b8ff" points="239.8,-78.29 229.99,-74.3 235.17,-83.54 239.8,-78.29"/>
</a>
</g>
</g>
<!-- Node9 -->
<g id="Node000009" class="node">
<title>Node9</title>
<g id="a_Node000009"><a xlink:href="load__tracker__info_8cpp.html" target="_top" xlink:title=" ">
<polygon fill="white" stroke="#666666" points="514.5,-140 383.5,-140 383.5,-110 514.5,-110 514.5,-140"/>
<text text-anchor="start" x="391.5" y="-128" font-family="Helvetica,sans-Serif" font-size="10.00">../common/load_tracker</text>
<text text-anchor="middle" x="449" y="-117" font-family="Helvetica,sans-Serif" font-size="10.00">_info.cpp</text>
</a>
</g>
</g>
<!-- Node1&#45;&gt;Node9 -->
<g id="edge10_Node000001_Node000009" class="edge">
<title>Node1&#45;&gt;Node9</title>
<g id="a_edge10_Node000001_Node000009"><a xlink:title=" ">
<path fill="none" stroke="#63b8ff" d="M368.87,-175.87C381.62,-167.93 401,-155.87 417.51,-145.6"/>
<polygon fill="#63b8ff" stroke="#63b8ff" points="419.68,-148.37 426.32,-140.11 415.98,-142.43 419.68,-148.37"/>
</a>
</g>
</g>
<!-- Node13 -->
<g id="Node000013" class="node">
<title>Node13</title>
<g id="a_Node000013"><a xlink:href="network__errors_8hpp.html" target="_top" xlink:title=" ">
<polygon fill="white" stroke="#666666" points="108,-140 0,-140 0,-110 108,-110 108,-140"/>
<text text-anchor="start" x="8" y="-128" font-family="Helvetica,sans-Serif" font-size="10.00">../network/network</text>
<text text-anchor="middle" x="54" y="-117" font-family="Helvetica,sans-Serif" font-size="10.00">_errors.hpp</text>
</a>
</g>
</g>
<!-- Node1&#45;&gt;Node13 -->
<g id="edge18_Node000001_Node000013" class="edge">
<title>Node1&#45;&gt;Node13</title>
<g id="a_edge18_Node000001_Node000013"><a xlink:title=" ">
<path fill="none" stroke="#63b8ff" d="M309.63,-175.95C262.84,-167.09 187.78,-152.78 123,-140 121.5,-139.7 119.98,-139.4 118.45,-139.1"/>
<polygon fill="#63b8ff" stroke="#63b8ff" points="118.72,-135.58 108.23,-137.06 117.35,-142.45 118.72,-135.58"/>
</a>
</g>
</g>
<!-- Node14 -->
<g id="Node000014" class="node">
<title>Node14</title>
<g id="a_Node000014"><a xlink:href="tcp__socket_8hpp.html" target="_top" xlink:title=" ">
<polygon fill="white" stroke="#666666" points="769.5,-74 628.5,-74 628.5,-55 769.5,-55 769.5,-74"/>
<text text-anchor="middle" x="699" y="-62" font-family="Helvetica,sans-Serif" font-size="10.00">../network/tcp_socket.hpp</text>
</a>
</g>
</g>
<!-- Node1&#45;&gt;Node14 -->
<g id="edge20_Node000001_Node000014" class="edge">
<title>Node1&#45;&gt;Node14</title>
<g id="a_edge20_Node000001_Node000014"><a xlink:title=" ">
<path fill="none" stroke="#63b8ff" d="M410.56,-181.23C483.98,-176.03 608.52,-163.93 647,-140 668.3,-126.76 683.2,-101.22 691.43,-83.78"/>
<polygon fill="#63b8ff" stroke="#63b8ff" points="694.85,-84.7 695.7,-74.14 688.45,-81.87 694.85,-84.7"/>
</a>
</g>
</g>
<!-- Node18 -->
<g id="Node000018" class="node">
<title>Node18</title>
<g id="a_Node000018"><a xlink:href="tcp__server_8hpp.html" target="_top" xlink:title=" ">
<polygon fill="white" stroke="#666666" points="948,-134.5 808,-134.5 808,-115.5 948,-115.5 948,-134.5"/>
<text text-anchor="middle" x="878" y="-122.5" font-family="Helvetica,sans-Serif" font-size="10.00">../network/tcp_server.hpp</text>
</a>
</g>
</g>
<!-- Node1&#45;&gt;Node18 -->
<g id="edge27_Node000001_Node000018" class="edge">
<title>Node1&#45;&gt;Node18</title>
<g id="a_edge27_Node000001_Node000018"><a xlink:title=" ">
<path fill="none" stroke="#63b8ff" d="M410.97,-178.24C504.02,-167.83 690.86,-146.93 797.87,-134.96"/>
<polygon fill="#63b8ff" stroke="#63b8ff" points="798.42,-138.42 807.97,-133.83 797.64,-131.47 798.42,-138.42"/>
</a>
</g>
</g>
<!-- Node24 -->
<g id="Node000024" class="node">
<title>Node24</title>
<g id="a_Node000024"><a xlink:href="process__input_8hpp.html" target="_top" xlink:title=" ">
<polygon fill="white" stroke="#666666" points="637.5,-134.5 532.5,-134.5 532.5,-115.5 637.5,-115.5 637.5,-134.5"/>
<text text-anchor="middle" x="585" y="-122.5" font-family="Helvetica,sans-Serif" font-size="10.00">process_input.hpp</text>
</a>
</g>
</g>
<!-- Node1&#45;&gt;Node24 -->
<g id="edge34_Node000001_Node000024" class="edge">
<title>Node1&#45;&gt;Node24</title>
<g id="a_edge34_Node000001_Node000024"><a xlink:title=" ">
<path fill="none" stroke="#63b8ff" d="M388.44,-175.99C428.9,-165.7 497.1,-148.36 541.58,-137.04"/>
<polygon fill="#63b8ff" stroke="#63b8ff" points="542.69,-140.37 551.52,-134.52 540.96,-133.59 542.69,-140.37"/>
</a>
</g>
</g>
<!-- Node5 -->
<g id="Node000005" class="node">
<title>Node5</title>
<g id="a_Node000005"><a xlink:title=" ">
<polygon fill="#e0e0e0" stroke="#999999" points="209,-19 159,-19 159,0 209,0 209,-19"/>
<text text-anchor="middle" x="184" y="-7" font-family="Helvetica,sans-Serif" font-size="10.00">cstdint</text>
</a>
</g>
</g>
<!-- Node4&#45;&gt;Node5 -->
<g id="edge4_Node000004_Node000005" class="edge">
<title>Node4&#45;&gt;Node5</title>
<g id="a_edge4_Node000004_Node000005"><a xlink:title=" ">
<path fill="none" stroke="#63b8ff" d="M153.93,-109.85C138.77,-101.77 122.57,-90 114,-74 102.45,-52.42 128.14,-34.42 151.58,-23.17"/>
<polygon fill="#63b8ff" stroke="#63b8ff" points="153.03,-26.35 160.71,-19.05 150.15,-19.97 153.03,-26.35"/>
</a>
</g>
</g>
<!-- Node6 -->
<g id="Node000006" class="node">
<title>Node6</title>
<g id="a_Node000006"><a xlink:title=" ">
<polygon fill="#e0e0e0" stroke="#999999" points="278,-19 234,-19 234,0 278,0 278,-19"/>
<text text-anchor="middle" x="256" y="-7" font-family="Helvetica,sans-Serif" font-size="10.00">string</text>
</a>
</g>
</g>
<!-- Node4&#45;&gt;Node6 -->
<g id="edge5_Node000004_Node000006" class="edge">
<title>Node4&#45;&gt;Node6</title>
<g id="a_edge5_Node000004_Node000006"><a xlink:title=" ">
<path fill="none" stroke="#63b8ff" d="M170.12,-109.76C153.78,-95.64 134.56,-73.51 147,-55 155.97,-41.64 195.13,-27.89 223.96,-19.27"/>
<polygon fill="#63b8ff" stroke="#63b8ff" points="225.04,-22.6 233.66,-16.45 223.08,-15.88 225.04,-22.6"/>
</a>
</g>
</g>
<!-- Node4&#45;&gt;Node7 -->
<g id="edge6_Node000004_Node000007" class="edge">
<title>Node4&#45;&gt;Node7</title>
<g id="a_edge6_Node000004_Node000007"><a xlink:title=" ">
<path fill="none" stroke="#63b8ff" d="M196.5,-109.84C200.73,-101.87 206.04,-91.84 210.55,-83.33"/>
<polygon fill="#63b8ff" stroke="#63b8ff" points="213.77,-84.74 215.35,-74.27 207.58,-81.46 213.77,-84.74"/>
</a>
</g>
</g>
<!-- Node7&#45;&gt;Node5 -->
<g id="edge7_Node000007_Node000005" class="edge">
<title>Node7&#45;&gt;Node5</title>
<g id="a_edge7_Node000007_Node000005"><a xlink:title=" ">
<path fill="none" stroke="#63b8ff" d="M214.06,-54.75C209.02,-47.34 201.66,-36.5 195.49,-27.41"/>
<polygon fill="#63b8ff" stroke="#63b8ff" points="198.35,-25.39 189.83,-19.09 192.56,-29.33 198.35,-25.39"/>
</a>
</g>
</g>
<!-- Node7&#45;&gt;Node6 -->
<g id="edge9_Node000007_Node000006" class="edge">
<title>Node7&#45;&gt;Node6</title>
<g id="a_edge9_Node000007_Node000006"><a xlink:title=" ">
<path fill="none" stroke="#63b8ff" d="M225.94,-54.75C230.98,-47.34 238.34,-36.5 244.51,-27.41"/>
<polygon fill="#63b8ff" stroke="#63b8ff" points="247.44,-29.33 250.17,-19.09 241.65,-25.39 247.44,-29.33"/>
</a>
</g>
</g>
<!-- Node8 -->
<g id="Node000008" class="node">
<title>Node8</title>
<g id="a_Node000008"><a xlink:title=" ">
<polygon fill="#e0e0e0" stroke="#999999" points="127.5,-19 62.5,-19 62.5,0 127.5,0 127.5,-19"/>
<text text-anchor="middle" x="95" y="-7" font-family="Helvetica,sans-Serif" font-size="10.00">stdexcept</text>
</a>
</g>
</g>
<!-- Node7&#45;&gt;Node8 -->
<g id="edge8_Node000007_Node000008" class="edge">
<title>Node7&#45;&gt;Node8</title>
<g id="a_edge8_Node000007_Node000008"><a xlink:title=" ">
<path fill="none" stroke="#63b8ff" d="M199.92,-54.98C179.63,-46.38 148.04,-32.99 124.83,-23.15"/>
<polygon fill="#63b8ff" stroke="#63b8ff" points="126.02,-19.85 115.45,-19.17 123.29,-26.3 126.02,-19.85"/>
</a>
</g>
</g>
<!-- Node9&#45;&gt;Node2 -->
<g id="edge12_Node000009_Node000002" class="edge">
<title>Node9&#45;&gt;Node2</title>
<g id="a_edge12_Node000009_Node000002"><a xlink:title=" ">
<path fill="none" stroke="#63b8ff" d="M419.78,-109.99C399.88,-100.45 373.72,-87.9 354.25,-78.57"/>
<polygon fill="#63b8ff" stroke="#63b8ff" points="355.55,-75.31 345.02,-74.14 352.52,-81.62 355.55,-75.31"/>
</a>
</g>
</g>
<!-- Node9&#45;&gt;Node3 -->
<g id="edge14_Node000009_Node000003" class="edge">
<title>Node9&#45;&gt;Node3</title>
<g id="a_edge14_Node000009_Node000003"><a xlink:title=" ">
<path fill="none" stroke="#63b8ff" d="M437.14,-109.84C430.1,-101.43 421.14,-90.74 413.79,-81.96"/>
<polygon fill="#63b8ff" stroke="#63b8ff" points="416.45,-79.68 407.34,-74.27 411.08,-84.18 416.45,-79.68"/>
</a>
</g>
</g>
<!-- Node9&#45;&gt;Node7 -->
<g id="edge11_Node000009_Node000007" class="edge">
<title>Node9&#45;&gt;Node7</title>
<g id="a_edge11_Node000009_Node000007"><a xlink:title=" ">
<path fill="none" stroke="#63b8ff" d="M394.15,-109.99C354.11,-99.76 300.58,-86.09 263.49,-76.61"/>
<polygon fill="#63b8ff" stroke="#63b8ff" points="264.04,-73.14 253.48,-74.05 262.31,-79.92 264.04,-73.14"/>
</a>
</g>
</g>
<!-- Node10 -->
<g id="Node000010" class="node">
<title>Node10</title>
<g id="a_Node000010"><a xlink:title=" ">
<polygon fill="#e0e0e0" stroke="#999999" points="495.5,-74 448.5,-74 448.5,-55 495.5,-55 495.5,-74"/>
<text text-anchor="middle" x="472" y="-62" font-family="Helvetica,sans-Serif" font-size="10.00">fcntl.h</text>
</a>
</g>
</g>
<!-- Node9&#45;&gt;Node10 -->
<g id="edge13_Node000009_Node000010" class="edge">
<title>Node9&#45;&gt;Node10</title>
<g id="a_edge13_Node000009_Node000010"><a xlink:title=" ">
<path fill="none" stroke="#63b8ff" d="M454.57,-109.84C457.67,-101.95 461.56,-92.05 464.88,-83.61"/>
<polygon fill="#63b8ff" stroke="#63b8ff" points="468.15,-84.85 468.55,-74.27 461.64,-82.29 468.15,-84.85"/>
</a>
</g>
</g>
<!-- Node11 -->
<g id="Node000011" class="node">
<title>Node11</title>
<g id="a_Node000011"><a xlink:title=" ">
<polygon fill="#e0e0e0" stroke="#999999" points="586,-19 530,-19 530,0 586,0 586,-19"/>
<text text-anchor="middle" x="558" y="-7" font-family="Helvetica,sans-Serif" font-size="10.00">unistd.h</text>
</a>
</g>
</g>
<!-- Node9&#45;&gt;Node11 -->
<g id="edge15_Node000009_Node000011" class="edge">
<title>Node9&#45;&gt;Node11</title>
<g id="a_edge15_Node000009_Node000011"><a xlink:title=" ">
<path fill="none" stroke="#63b8ff" d="M466.26,-109.74C477.64,-100.06 492.68,-86.74 505,-74 519.6,-58.9 534.82,-40.33 545.18,-27.18"/>
<polygon fill="#63b8ff" stroke="#63b8ff" points="548.13,-29.09 551.51,-19.05 542.6,-24.79 548.13,-29.09"/>
</a>
</g>
</g>
<!-- Node12 -->
<g id="Node000012" class="node">
<title>Node12</title>
<g id="a_Node000012"><a xlink:title=" ">
<polygon fill="#e0e0e0" stroke="#999999" points="651.5,-19 604.5,-19 604.5,0 651.5,0 651.5,-19"/>
<text text-anchor="middle" x="628" y="-7" font-family="Helvetica,sans-Serif" font-size="10.00">vector</text>
</a>
</g>
</g>
<!-- Node9&#45;&gt;Node12 -->
<g id="edge16_Node000009_Node000012" class="edge">
<title>Node9&#45;&gt;Node12</title>
<g id="a_edge16_Node000009_Node000012"><a xlink:title=" ">
<path fill="none" stroke="#63b8ff" d="M471.31,-109.85C505.57,-88.13 570.81,-46.77 605.3,-24.89"/>
<polygon fill="#63b8ff" stroke="#63b8ff" points="607.6,-27.58 614.17,-19.27 603.85,-21.67 607.6,-27.58"/>
</a>
</g>
</g>
<!-- Node13&#45;&gt;Node8 -->
<g id="edge19_Node000013_Node000008" class="edge">
<title>Node13&#45;&gt;Node8</title>
<g id="a_edge19_Node000013_Node000008"><a xlink:title=" ">
<path fill="none" stroke="#63b8ff" d="M59.19,-109.63C66.6,-89.12 80.2,-51.47 88.34,-28.93"/>
<polygon fill="#63b8ff" stroke="#63b8ff" points="91.74,-29.82 91.85,-19.23 85.16,-27.45 91.74,-29.82"/>
</a>
</g>
</g>
<!-- Node14&#45;&gt;Node6 -->
<g id="edge23_Node000014_Node000006" class="edge">
<title>Node14&#45;&gt;Node6</title>
<g id="a_edge23_Node000014_Node000006"><a xlink:title=" ">
<path fill="none" stroke="#63b8ff" d="M628.32,-55.04C530.96,-43.4 359.58,-22.89 288.4,-14.38"/>
<polygon fill="#63b8ff" stroke="#63b8ff" points="288.6,-10.88 278.26,-13.16 287.77,-17.83 288.6,-10.88"/>
</a>
</g>
</g>
<!-- Node14&#45;&gt;Node11 -->
<g id="edge25_Node000014_Node000011" class="edge">
<title>Node14&#45;&gt;Node11</title>
<g id="a_edge25_Node000014_Node000011"><a xlink:title=" ">
<path fill="none" stroke="#63b8ff" d="M676.35,-54.98C653.15,-46.27 616.88,-32.63 590.6,-22.75"/>
<polygon fill="#63b8ff" stroke="#63b8ff" points="591.66,-19.41 581.07,-19.17 589.2,-25.97 591.66,-19.41"/>
</a>
</g>
</g>
<!-- Node14&#45;&gt;Node12 -->
<g id="edge26_Node000014_Node000012" class="edge">
<title>Node14&#45;&gt;Node12</title>
<g id="a_edge26_Node000014_Node000012"><a xlink:title=" ">
<path fill="none" stroke="#63b8ff" d="M687.59,-54.98C676.89,-47 660.66,-34.88 647.84,-25.31"/>
<polygon fill="#63b8ff" stroke="#63b8ff" points="649.72,-22.35 639.61,-19.17 645.53,-27.96 649.72,-22.35"/>
</a>
</g>
</g>
<!-- Node15 -->
<g id="Node000015" class="node">
<title>Node15</title>
<g id="a_Node000015"><a xlink:title=" ">
<polygon fill="#e0e0e0" stroke="#999999" points="728,-19 670,-19 670,0 728,0 728,-19"/>
<text text-anchor="middle" x="699" y="-7" font-family="Helvetica,sans-Serif" font-size="10.00">memory</text>
</a>
</g>
</g>
<!-- Node14&#45;&gt;Node15 -->
<g id="edge21_Node000014_Node000015" class="edge">
<title>Node14&#45;&gt;Node15</title>
<g id="a_edge21_Node000014_Node000015"><a xlink:title=" ">
<path fill="none" stroke="#63b8ff" d="M699,-54.75C699,-47.8 699,-37.85 699,-29.13"/>
<polygon fill="#63b8ff" stroke="#63b8ff" points="702.5,-29.09 699,-19.09 695.5,-29.09 702.5,-29.09"/>
</a>
</g>
</g>
<!-- Node16 -->
<g id="Node000016" class="node">
<title>Node16</title>
<g id="a_Node000016"><a xlink:title=" ">
<polygon fill="#e0e0e0" stroke="#999999" points="818,-19 746,-19 746,0 818,0 818,-19"/>
<text text-anchor="middle" x="782" y="-7" font-family="Helvetica,sans-Serif" font-size="10.00">netinet/in.h</text>
</a>
</g>
</g>
<!-- Node14&#45;&gt;Node16 -->
<g id="edge22_Node000014_Node000016" class="edge">
<title>Node14&#45;&gt;Node16</title>
<g id="a_edge22_Node000014_Node000016"><a xlink:title=" ">
<path fill="none" stroke="#63b8ff" d="M712.34,-54.98C725.09,-46.84 744.55,-34.41 759.67,-24.76"/>
<polygon fill="#63b8ff" stroke="#63b8ff" points="761.88,-27.5 768.42,-19.17 758.11,-21.6 761.88,-27.5"/>
</a>
</g>
</g>
<!-- Node17 -->
<g id="Node000017" class="node">
<title>Node17</title>
<g id="a_Node000017"><a xlink:title=" ">
<polygon fill="#e0e0e0" stroke="#999999" points="913.5,-19 836.5,-19 836.5,0 913.5,0 913.5,-19"/>
<text text-anchor="middle" x="875" y="-7" font-family="Helvetica,sans-Serif" font-size="10.00">sys/socket.h</text>
</a>
</g>
</g>
<!-- Node14&#45;&gt;Node17 -->
<g id="edge24_Node000014_Node000017" class="edge">
<title>Node14&#45;&gt;Node17</title>
<g id="a_edge24_Node000014_Node000017"><a xlink:title=" ">
<path fill="none" stroke="#63b8ff" d="M727.28,-54.98C756.95,-46.05 803.79,-31.94 836.75,-22.02"/>
<polygon fill="#63b8ff" stroke="#63b8ff" points="837.93,-25.32 846.5,-19.08 835.92,-18.61 837.93,-25.32"/>
</a>
</g>
</g>
<!-- Node18&#45;&gt;Node14 -->
<g id="edge33_Node000018_Node000014" class="edge">
<title>Node18&#45;&gt;Node14</title>
<g id="a_edge33_Node000018_Node000014"><a xlink:title=" ">
<path fill="none" stroke="#63b8ff" d="M851.97,-115.49C821.08,-105.4 769.42,-88.51 734.78,-77.19"/>
<polygon fill="#63b8ff" stroke="#63b8ff" points="735.65,-73.8 725.06,-74.02 733.48,-80.45 735.65,-73.8"/>
</a>
</g>
</g>
<!-- Node19 -->
<g id="Node000019" class="node">
<title>Node19</title>
<g id="a_Node000019"><a xlink:title=" ">
<polygon fill="#e0e0e0" stroke="#999999" points="970,-74 920,-74 920,-55 970,-55 970,-74"/>
<text text-anchor="middle" x="945" y="-62" font-family="Helvetica,sans-Serif" font-size="10.00">atomic</text>
</a>
</g>
</g>
<!-- Node18&#45;&gt;Node19 -->
<g id="edge28_Node000018_Node000019" class="edge">
<title>Node18&#45;&gt;Node19</title>
<g id="a_edge28_Node000018_Node000019"><a xlink:title=" ">
<path fill="none" stroke="#63b8ff" d="M887.89,-115.37C898.28,-106.3 914.84,-91.84 927.45,-80.82"/>
<polygon fill="#63b8ff" stroke="#63b8ff" points="929.84,-83.38 935.07,-74.17 925.24,-78.11 929.84,-83.38"/>
</a>
</g>
</g>
<!-- Node20 -->
<g id="Node000020" class="node">
<title>Node20</title>
<g id="a_Node000020"><a xlink:title=" ">
<polygon fill="#e0e0e0" stroke="#999999" points="1053.5,-74 988.5,-74 988.5,-55 1053.5,-55 1053.5,-74"/>
<text text-anchor="middle" x="1021" y="-62" font-family="Helvetica,sans-Serif" font-size="10.00">functional</text>
</a>
</g>
</g>
<!-- Node18&#45;&gt;Node20 -->
<g id="edge29_Node000018_Node000020" class="edge">
<title>Node18&#45;&gt;Node20</title>
<g id="a_edge29_Node000018_Node000020"><a xlink:title=" ">
<path fill="none" stroke="#63b8ff" d="M898.79,-115.49C922.94,-105.62 962.98,-89.23 990.62,-77.93"/>
<polygon fill="#63b8ff" stroke="#63b8ff" points="992.25,-81.04 1000.18,-74.02 989.6,-74.56 992.25,-81.04"/>
</a>
</g>
</g>
<!-- Node21 -->
<g id="Node000021" class="node">
<title>Node21</title>
<g id="a_Node000021"><a xlink:title=" ">
<polygon fill="#e0e0e0" stroke="#999999" points="1104,-74 1072,-74 1072,-55 1104,-55 1104,-74"/>
<text text-anchor="middle" x="1088" y="-62" font-family="Helvetica,sans-Serif" font-size="10.00">list</text>
</a>
</g>
</g>
<!-- Node18&#45;&gt;Node21 -->
<g id="edge30_Node000018_Node000021" class="edge">
<title>Node18&#45;&gt;Node21</title>
<g id="a_edge30_Node000018_Node000021"><a xlink:title=" ">
<path fill="none" stroke="#63b8ff" d="M912.28,-115.43C947.6,-106.45 1004.41,-91.58 1062.25,-74.08"/>
<polygon fill="#63b8ff" stroke="#63b8ff" points="1063.37,-77.4 1071.91,-71.14 1061.32,-70.71 1063.37,-77.4"/>
</a>
</g>
</g>
<!-- Node22 -->
<g id="Node000022" class="node">
<title>Node22</title>
<g id="a_Node000022"><a xlink:title=" ">
<polygon fill="#e0e0e0" stroke="#999999" points="836,-74 788,-74 788,-55 836,-55 836,-74"/>
<text text-anchor="middle" x="812" y="-62" font-family="Helvetica,sans-Serif" font-size="10.00">mutex</text>
</a>
</g>
</g>
<!-- Node18&#45;&gt;Node22 -->
<g id="edge31_Node000018_Node000022" class="edge">
<title>Node18&#45;&gt;Node22</title>
<g id="a_edge31_Node000018_Node000022"><a xlink:title=" ">
<path fill="none" stroke="#63b8ff" d="M868.26,-115.37C858.03,-106.3 841.71,-91.84 829.28,-80.82"/>
<polygon fill="#63b8ff" stroke="#63b8ff" points="831.58,-78.18 821.78,-74.17 826.94,-83.42 831.58,-78.18"/>
</a>
</g>
</g>
<!-- Node23 -->
<g id="Node000023" class="node">
<title>Node23</title>
<g id="a_Node000023"><a xlink:title=" ">
<polygon fill="#e0e0e0" stroke="#999999" points="902,-74 854,-74 854,-55 902,-55 902,-74"/>
<text text-anchor="middle" x="878" y="-62" font-family="Helvetica,sans-Serif" font-size="10.00">thread</text>
</a>
</g>
</g>
<!-- Node18&#45;&gt;Node23 -->
<g id="edge32_Node000018_Node000023" class="edge">
<title>Node18&#45;&gt;Node23</title>
<g id="a_edge32_Node000018_Node000023"><a xlink:title=" ">
<path fill="none" stroke="#63b8ff" d="M878,-115.37C878,-107.25 878,-94.81 878,-84.39"/>
<polygon fill="#63b8ff" stroke="#63b8ff" points="881.5,-84.17 878,-74.17 874.5,-84.17 881.5,-84.17"/>
</a>
</g>
</g>
<!-- Node24&#45;&gt;Node6 -->
<g id="edge35_Node000024_Node000006" class="edge">
<title>Node24&#45;&gt;Node6</title>
<g id="a_edge35_Node000024_Node000006"><a xlink:title=" ">
<path fill="none" stroke="#63b8ff" d="M577.66,-115.12C564.68,-100.09 536.13,-69.82 505,-55 432.78,-20.62 337.28,-12.64 288.19,-10.89"/>
<polygon fill="#63b8ff" stroke="#63b8ff" points="288.26,-7.39 278.16,-10.6 288.05,-14.39 288.26,-7.39"/>
</a>
</g>
</g>
<!-- Node24&#45;&gt;Node7 -->
<g id="edge36_Node000024_Node000007" class="edge">
<title>Node24&#45;&gt;Node7</title>
<g id="a_edge36_Node000024_Node000007"><a xlink:title=" ">
<path fill="none" stroke="#63b8ff" d="M549.94,-115.45C541.48,-113.52 532.44,-111.58 524,-110 445.91,-95.35 355.77,-82.68 294.04,-74.65"/>
<polygon fill="#63b8ff" stroke="#63b8ff" points="294.37,-71.16 284.01,-73.35 293.47,-78.1 294.37,-71.16"/>
</a>
</g>
</g>
<!-- Node24&#45;&gt;Node14 -->
<g id="edge37_Node000024_Node000014" class="edge">
<title>Node24&#45;&gt;Node14</title>
<g id="a_edge37_Node000024_Node000014"><a xlink:title=" ">
<path fill="none" stroke="#63b8ff" d="M601.82,-115.37C620.6,-105.73 651.2,-90.03 673.05,-78.81"/>
<polygon fill="#63b8ff" stroke="#63b8ff" points="674.81,-81.85 682.11,-74.17 671.61,-75.62 674.81,-81.85"/>
</a>
</g>
</g>
</g>
</svg>
