<?xml version="1.0" encoding="UTF-8" standalone="no"?>
<!DOCTYPE svg PUBLIC "-//W3C//DTD SVG 1.1//EN"
 "http://www.w3.org/Graphics/SVG/1.1/DTD/svg11.dtd">
<!-- Generated by graphviz version 2.43.0 (0)
 -->
<!-- Title: src/client/client.cpp Pages: 1 -->
<svg width="1484pt" height="379pt"
 viewBox="0.00 0.00 1483.50 379.00" xmlns="http://www.w3.org/2000/svg" xmlns:xlink="http://www.w3.org/1999/xlink">
<g id="graph0" class="graph" transform="scale(1 1) rotate(0) translate(4 375)">
<title>src/client/client.cpp</title>
<!-- Node1 -->
<g id="Node000001" class="node">
<title>Node1</title>
<g id="a_Node000001"><a xlink:title="The entrypoint to the client.">
<polygon fill="#999999" stroke="#666666" points="693,-371 582,-371 582,-352 693,-352 693,-371"/>
<text text-anchor="middle" x="637.5" y="-359" font-family="Helvetica,sans-Serif" font-size="10.00">src/client/client.cpp</text>
</a>
</g>
</g>
<!-- Node2 -->
<g id="Node000002" class="node">
<title>Node2</title>
<g id="a_Node000002"><a xlink:title=" ">
<polygon fill="#e0e0e0" stroke="#999999" points="196.5,-250 146.5,-250 146.5,-231 196.5,-231 196.5,-250"/>
<text text-anchor="middle" x="171.5" y="-238" font-family="Helvetica,sans-Serif" font-size="10.00">cstring</text>
</a>
</g>
</g>
<!-- Node1&#45;&gt;Node2 -->
<g id="edge1_Node000001_Node000002" class="edge">
<title>Node1&#45;&gt;Node2</title>
<g id="a_edge1_Node000001_Node000002"><a xlink:title=" ">
<path fill="none" stroke="#63b8ff" d="M581.87,-357.78C491.65,-352.72 317.85,-340.13 261.5,-316 230.73,-302.82 202.24,-275.68 185.87,-258.05"/>
<polygon fill="#63b8ff" stroke="#63b8ff" points="188.14,-255.35 178.85,-250.27 182.95,-260.04 188.14,-255.35"/>
</a>
</g>
</g>
<!-- Node3 -->
<g id="Node000003" class="node">
<title>Node3</title>
<g id="a_Node000003"><a xlink:title=" ">
<polygon fill="#e0e0e0" stroke="#999999" points="274.5,-250 214.5,-250 214.5,-231 274.5,-231 274.5,-250"/>
<text text-anchor="middle" x="244.5" y="-238" font-family="Helvetica,sans-Serif" font-size="10.00">iostream</text>
</a>
</g>
</g>
<!-- Node1&#45;&gt;Node3 -->
<g id="edge2_Node000001_Node000003" class="edge">
<title>Node1&#45;&gt;Node3</title>
<g id="a_edge2_Node000001_Node000003"><a xlink:title=" ">
<path fill="none" stroke="#63b8ff" d="M581.82,-358.79C497.26,-355.29 341.34,-345 294.5,-316 273.44,-302.96 259.25,-277.38 251.53,-259.87"/>
<polygon fill="#63b8ff" stroke="#63b8ff" points="254.59,-258.11 247.54,-250.19 248.11,-260.77 254.59,-258.11"/>
</a>
</g>
</g>
<!-- Node4 -->
<g id="Node000004" class="node">
<title>Node4</title>
<g id="a_Node000004"><a xlink:href="generate__id_8cpp.html" target="_top" xlink:title=" ">
<polygon fill="white" stroke="#666666" points="115,-140 0,-140 0,-110 115,-110 115,-140"/>
<text text-anchor="start" x="8" y="-128" font-family="Helvetica,sans-Serif" font-size="10.00">../common/generate</text>
<text text-anchor="middle" x="57.5" y="-117" font-family="Helvetica,sans-Serif" font-size="10.00">_id.cpp</text>
</a>
</g>
</g>
<!-- Node1&#45;&gt;Node4 -->
<g id="edge3_Node000001_Node000004" class="edge">
<title>Node1&#45;&gt;Node4</title>
<g id="a_edge3_Node000001_Node000004"><a xlink:title=" ">
<path fill="none" stroke="#63b8ff" d="M581.6,-359.47C452.18,-356.56 140.23,-346.45 104.5,-316 55.93,-274.61 53.33,-191.71 55.39,-150.47"/>
<polygon fill="#63b8ff" stroke="#63b8ff" points="58.9,-150.44 56.04,-140.24 51.91,-149.99 58.9,-150.44"/>
</a>
</g>
</g>
<!-- Node7 -->
<g id="Node000007" class="node">
<title>Node7</title>
<g id="a_Node000007"><a xlink:href="endpoint_8hpp.html" target="_top" xlink:title=" ">
<polygon fill="white" stroke="#666666" points="435.5,-74 307.5,-74 307.5,-55 435.5,-55 435.5,-74"/>
<text text-anchor="middle" x="371.5" y="-62" font-family="Helvetica,sans-Serif" font-size="10.00">../models/endpoint.hpp</text>
</a>
</g>
</g>
<!-- Node1&#45;&gt;Node7 -->
<g id="edge17_Node000001_Node000007" class="edge">
<title>Node1&#45;&gt;Node7</title>
<g id="a_edge17_Node000001_Node000007"><a xlink:title=" ">
<path fill="none" stroke="#63b8ff" d="M581.62,-358.9C481.62,-355.35 276.45,-344.71 211.5,-316 171.19,-298.18 155.52,-290.22 137.5,-250 109.96,-188.54 129.43,-177.97 224.5,-110 247.58,-93.5 276.87,-83.03 303.22,-76.42"/>
<polygon fill="#63b8ff" stroke="#63b8ff" points="304.23,-79.78 313.16,-74.08 302.62,-72.97 304.23,-79.78"/>
</a>
</g>
</g>
<!-- Node9 -->
<g id="Node000009" class="node">
<title>Node9</title>
<g id="a_Node000009"><a xlink:href="load__tracker__info_8cpp.html" target="_top" xlink:title=" ">
<polygon fill="white" stroke="#666666" points="434,-316 303,-316 303,-286 434,-286 434,-316"/>
<text text-anchor="start" x="311" y="-304" font-family="Helvetica,sans-Serif" font-size="10.00">../common/load_tracker</text>
<text text-anchor="middle" x="368.5" y="-293" font-family="Helvetica,sans-Serif" font-size="10.00">_info.cpp</text>
</a>
</g>
</g>
<!-- Node1&#45;&gt;Node9 -->
<g id="edge10_Node000001_Node000009" class="edge">
<title>Node1&#45;&gt;Node9</title>
<g id="a_edge10_Node000001_Node000009"><a xlink:title=" ">
<path fill="none" stroke="#63b8ff" d="M598.39,-351.99C557.74,-343.16 493.16,-329.11 442.79,-318.16"/>
<polygon fill="#63b8ff" stroke="#63b8ff" points="443.43,-314.71 432.91,-316.01 441.94,-321.55 443.43,-314.71"/>
</a>
</g>
</g>
<!-- Node13 -->
<g id="Node000013" class="node">
<title>Node13</title>
<g id="a_Node000013"><a xlink:href="network__errors_8hpp.html" target="_top" xlink:title=" ">
<polygon fill="white" stroke="#666666" points="1388.5,-316 1280.5,-316 1280.5,-286 1388.5,-286 1388.5,-316"/>
<text text-anchor="start" x="1288.5" y="-304" font-family="Helvetica,sans-Serif" font-size="10.00">../network/network</text>
<text text-anchor="middle" x="1334.5" y="-293" font-family="Helvetica,sans-Serif" font-size="10.00">_errors.hpp</text>
</a>
</g>
</g>
<!-- Node1&#45;&gt;Node13 -->
<g id="edge18_Node000001_Node000013" class="edge">
<title>Node1&#45;&gt;Node13</title>
<g id="a_edge18_Node000001_Node000013"><a xlink:title=" ">
<path fill="none" stroke="#63b8ff" d="M693.07,-355.84C820.68,-345.13 1134.16,-318.81 1269.99,-307.41"/>
<polygon fill="#63b8ff" stroke="#63b8ff" points="1270.57,-310.88 1280.24,-306.55 1269.98,-303.9 1270.57,-310.88"/>
</a>
</g>
</g>
<!-- Node14 -->
<g id="Node000014" class="node">
<title>Node14</title>
<g id="a_Node000014"><a xlink:href="tcp__socket_8hpp.html" target="_top" xlink:title=" ">
<polygon fill="white" stroke="#666666" points="1063,-195 922,-195 922,-176 1063,-176 1063,-195"/>
<text text-anchor="middle" x="992.5" y="-183" font-family="Helvetica,sans-Serif" font-size="10.00">../network/tcp_socket.hpp</text>
</a>
</g>
</g>
<!-- Node1&#45;&gt;Node14 -->
<g id="edge20_Node000001_Node000014" class="edge">
<title>Node1&#45;&gt;Node14</title>
<g id="a_edge20_Node000001_Node000014"><a xlink:title=" ">
<path fill="none" stroke="#63b8ff" d="M693.36,-353.47C733.97,-347.05 789.62,-335.52 835.5,-316 884.5,-295.15 895.16,-284.77 935.5,-250 952.07,-235.72 968.49,-216.79 979.42,-203.32"/>
<polygon fill="#63b8ff" stroke="#63b8ff" points="982.26,-205.37 985.75,-195.36 976.79,-201.01 982.26,-205.37"/>
</a>
</g>
</g>
<!-- Node18 -->
<g id="Node000018" class="node">
<title>Node18</title>
<g id="a_Node000018"><a xlink:href="tcp__server_8hpp.html" target="_top" xlink:title=" ">
<polygon fill="white" stroke="#666666" points="1290.5,-250 1150.5,-250 1150.5,-231 1290.5,-231 1290.5,-250"/>
<text text-anchor="middle" x="1220.5" y="-238" font-family="Helvetica,sans-Serif" font-size="10.00">../network/tcp_server.hpp</text>
</a>
</g>
</g>
<!-- Node1&#45;&gt;Node18 -->
<g id="edge27_Node000001_Node000018" class="edge">
<title>Node1&#45;&gt;Node18</title>
<g id="a_edge27_Node000001_Node000018"><a xlink:title=" ">
<path fill="none" stroke="#63b8ff" d="M693.14,-357.13C764.56,-352 891.96,-340.18 998.5,-316 1068.79,-300.05 1148.19,-270.46 1190.38,-253.77"/>
<polygon fill="#63b8ff" stroke="#63b8ff" points="1191.79,-256.98 1199.78,-250.02 1189.2,-250.48 1191.79,-256.98"/>
</a>
</g>
</g>
<!-- Node24 -->
<g id="Node000024" class="node">
<title>Node24</title>
<g id="a_Node000024"><a xlink:href="downloadmanager_8hpp.html" target="_top" xlink:title=" ">
<polygon fill="white" stroke="#666666" points="897.5,-250 769.5,-250 769.5,-231 897.5,-231 897.5,-250"/>
<text text-anchor="middle" x="833.5" y="-238" font-family="Helvetica,sans-Serif" font-size="10.00">downloadmanager.hpp</text>
</a>
</g>
</g>
<!-- Node1&#45;&gt;Node24 -->
<g id="edge34_Node000001_Node000024" class="edge">
<title>Node1&#45;&gt;Node24</title>
<g id="a_edge34_Node000001_Node000024"><a xlink:title=" ">
<path fill="none" stroke="#63b8ff" d="M693.4,-352.78C738.63,-345.42 797.5,-332.94 814.5,-316 829.1,-301.45 833,-277.36 833.79,-260.52"/>
<polygon fill="#63b8ff" stroke="#63b8ff" points="837.3,-260.28 833.94,-250.23 830.3,-260.18 837.3,-260.28"/>
</a>
</g>
</g>
<!-- Node31 -->
<g id="Node000031" class="node">
<title>Node31</title>
<g id="a_Node000031"><a xlink:href="peerdb_8hpp.html" target="_top" xlink:title=" ">
<polygon fill="white" stroke="#666666" points="707,-195 636,-195 636,-176 707,-176 707,-195"/>
<text text-anchor="middle" x="671.5" y="-183" font-family="Helvetica,sans-Serif" font-size="10.00">peerdb.hpp</text>
</a>
</g>
</g>
<!-- Node1&#45;&gt;Node31 -->
<g id="edge67_Node000001_Node000031" class="edge">
<title>Node1&#45;&gt;Node31</title>
<g id="a_edge67_Node000001_Node000031"><a xlink:title=" ">
<path fill="none" stroke="#63b8ff" d="M639.23,-351.63C644.53,-324.52 660.59,-242.32 667.86,-205.13"/>
<polygon fill="#63b8ff" stroke="#63b8ff" points="671.33,-205.63 669.81,-195.14 664.46,-204.29 671.33,-205.63"/>
</a>
</g>
</g>
<!-- Node33 -->
<g id="Node000033" class="node">
<title>Node33</title>
<g id="a_Node000033"><a xlink:href="process__input_8hpp.html" target="_top" xlink:title=" ">
<polygon fill="white" stroke="#666666" points="805,-310.5 700,-310.5 700,-291.5 805,-291.5 805,-310.5"/>
<text text-anchor="middle" x="752.5" y="-298.5" font-family="Helvetica,sans-Serif" font-size="10.00">process_input.hpp</text>
</a>
</g>
</g>
<!-- Node1&#45;&gt;Node33 -->
<g id="edge68_Node000001_Node000033" class="edge">
<title>Node1&#45;&gt;Node33</title>
<g id="a_edge68_Node000001_Node000033"><a xlink:title=" ">
<path fill="none" stroke="#63b8ff" d="M654.47,-351.87C673.41,-342.23 704.29,-326.53 726.33,-315.31"/>
<polygon fill="#63b8ff" stroke="#63b8ff" points="728.14,-318.32 735.46,-310.67 724.96,-312.08 728.14,-318.32"/>
</a>
</g>
</g>
<!-- Node34 -->
<g id="Node000034" class="node">
<title>Node34</title>
<g id="a_Node000034"><a xlink:href="client_2process__request_8hpp.html" target="_top" xlink:title=" ">
<polygon fill="white" stroke="#666666" points="600,-250 483,-250 483,-231 600,-231 600,-250"/>
<text text-anchor="middle" x="541.5" y="-238" font-family="Helvetica,sans-Serif" font-size="10.00">process_request.hpp</text>
</a>
</g>
</g>
<!-- Node1&#45;&gt;Node34 -->
<g id="edge73_Node000001_Node000034" class="edge">
<title>Node1&#45;&gt;Node34</title>
<g id="a_edge73_Node000001_Node000034"><a xlink:title=" ">
<path fill="none" stroke="#63b8ff" d="M630.6,-351.94C614.83,-332.4 575.93,-284.18 555.13,-258.4"/>
<polygon fill="#63b8ff" stroke="#63b8ff" points="557.6,-255.89 548.6,-250.3 552.16,-260.28 557.6,-255.89"/>
</a>
</g>
</g>
<!-- Node5 -->
<g id="Node000005" class="node">
<title>Node5</title>
<g id="a_Node000005"><a xlink:title=" ">
<polygon fill="#e0e0e0" stroke="#999999" points="241.5,-19 191.5,-19 191.5,0 241.5,0 241.5,-19"/>
<text text-anchor="middle" x="216.5" y="-7" font-family="Helvetica,sans-Serif" font-size="10.00">cstdint</text>
</a>
</g>
</g>
<!-- Node4&#45;&gt;Node5 -->
<g id="edge4_Node000004_Node000005" class="edge">
<title>Node4&#45;&gt;Node5</title>
<g id="a_edge4_Node000004_Node000005"><a xlink:title=" ">
<path fill="none" stroke="#63b8ff" d="M60.56,-109.87C64.63,-94.37 73.27,-69.73 89.5,-55 115.05,-31.82 153.37,-20.58 181.23,-15.21"/>
<polygon fill="#63b8ff" stroke="#63b8ff" points="182.11,-18.61 191.35,-13.43 180.89,-11.72 182.11,-18.61"/>
</a>
</g>
</g>
<!-- Node6 -->
<g id="Node000006" class="node">
<title>Node6</title>
<g id="a_Node000006"><a xlink:title=" ">
<polygon fill="#e0e0e0" stroke="#999999" points="515.5,-19 471.5,-19 471.5,0 515.5,0 515.5,-19"/>
<text text-anchor="middle" x="493.5" y="-7" font-family="Helvetica,sans-Serif" font-size="10.00">string</text>
</a>
</g>
</g>
<!-- Node4&#45;&gt;Node6 -->
<g id="edge5_Node000004_Node000006" class="edge">
<title>Node4&#45;&gt;Node6</title>
<g id="a_edge5_Node000004_Node000006"><a xlink:title=" ">
<path fill="none" stroke="#63b8ff" d="M67.63,-109.85C80.15,-93.59 103.06,-67.54 129.5,-55 188.01,-27.25 383.39,-15.5 461.16,-11.85"/>
<polygon fill="#63b8ff" stroke="#63b8ff" points="461.5,-15.34 471.33,-11.39 461.18,-8.34 461.5,-15.34"/>
</a>
</g>
</g>
<!-- Node4&#45;&gt;Node7 -->
<g id="edge6_Node000004_Node000007" class="edge">
<title>Node4&#45;&gt;Node7</title>
<g id="a_edge6_Node000004_Node000007"><a xlink:title=" ">
<path fill="none" stroke="#63b8ff" d="M115.09,-113.27C172.21,-102.63 259.16,-86.43 315.66,-75.9"/>
<polygon fill="#63b8ff" stroke="#63b8ff" points="316.31,-79.34 325.49,-74.07 315.02,-72.46 316.31,-79.34"/>
</a>
</g>
</g>
<!-- Node7&#45;&gt;Node5 -->
<g id="edge7_Node000007_Node000005" class="edge">
<title>Node7&#45;&gt;Node5</title>
<g id="a_edge7_Node000007_Node000005"><a xlink:title=" ">
<path fill="none" stroke="#63b8ff" d="M346.6,-54.98C320.8,-46.16 280.28,-32.31 251.32,-22.41"/>
<polygon fill="#63b8ff" stroke="#63b8ff" points="252.19,-19.01 241.6,-19.08 249.93,-25.63 252.19,-19.01"/>
</a>
</g>
</g>
<!-- Node7&#45;&gt;Node6 -->
<g id="edge9_Node000007_Node000006" class="edge">
<title>Node7&#45;&gt;Node6</title>
<g id="a_edge9_Node000007_Node000006"><a xlink:title=" ">
<path fill="none" stroke="#63b8ff" d="M391.1,-54.98C410.82,-46.42 441.45,-33.11 464.08,-23.28"/>
<polygon fill="#63b8ff" stroke="#63b8ff" points="465.76,-26.37 473.54,-19.17 462.98,-19.94 465.76,-26.37"/>
</a>
</g>
</g>
<!-- Node8 -->
<g id="Node000008" class="node">
<title>Node8</title>
<g id="a_Node000008"><a xlink:title=" ">
<polygon fill="#e0e0e0" stroke="#999999" points="1117,-19 1052,-19 1052,0 1117,0 1117,-19"/>
<text text-anchor="middle" x="1084.5" y="-7" font-family="Helvetica,sans-Serif" font-size="10.00">stdexcept</text>
</a>
</g>
</g>
<!-- Node7&#45;&gt;Node8 -->
<g id="edge8_Node000007_Node000008" class="edge">
<title>Node7&#45;&gt;Node8</title>
<g id="a_edge8_Node000007_Node000008"><a xlink:title=" ">
<path fill="none" stroke="#63b8ff" d="M435.72,-58.73C578.76,-48.09 920.5,-22.69 1041.3,-13.71"/>
<polygon fill="#63b8ff" stroke="#63b8ff" points="1041.91,-17.18 1051.62,-12.94 1041.39,-10.2 1041.91,-17.18"/>
</a>
</g>
</g>
<!-- Node9&#45;&gt;Node2 -->
<g id="edge12_Node000009_Node000002" class="edge">
<title>Node9&#45;&gt;Node2</title>
<g id="a_edge12_Node000009_Node000002"><a xlink:title=" ">
<path fill="none" stroke="#63b8ff" d="M321.31,-285.99C285.98,-275.5 238.42,-261.37 206.45,-251.88"/>
<polygon fill="#63b8ff" stroke="#63b8ff" points="207.24,-248.46 196.66,-248.97 205.25,-255.17 207.24,-248.46"/>
</a>
</g>
</g>
<!-- Node9&#45;&gt;Node3 -->
<g id="edge14_Node000009_Node000003" class="edge">
<title>Node9&#45;&gt;Node3</title>
<g id="a_edge14_Node000009_Node000003"><a xlink:title=" ">
<path fill="none" stroke="#63b8ff" d="M338.8,-285.99C318.48,-276.4 291.74,-263.79 271.92,-254.44"/>
<polygon fill="#63b8ff" stroke="#63b8ff" points="273.35,-251.24 262.81,-250.14 270.36,-257.57 273.35,-251.24"/>
</a>
</g>
</g>
<!-- Node9&#45;&gt;Node7 -->
<g id="edge11_Node000009_Node000007" class="edge">
<title>Node9&#45;&gt;Node7</title>
<g id="a_edge11_Node000009_Node000007"><a xlink:title=" ">
<path fill="none" stroke="#63b8ff" d="M368.35,-285.98C367.44,-270.56 363.65,-246.01 349.5,-231 315.37,-194.8 272.48,-235.44 243.5,-195 221.5,-164.29 221.61,-140.79 243.5,-110 256.21,-92.12 276.64,-81.37 297.48,-74.91"/>
<polygon fill="#63b8ff" stroke="#63b8ff" points="298.69,-78.21 307.39,-72.16 296.81,-71.47 298.69,-78.21"/>
</a>
</g>
</g>
<!-- Node10 -->
<g id="Node000010" class="node">
<title>Node10</title>
<g id="a_Node000010"><a xlink:title=" ">
<polygon fill="#e0e0e0" stroke="#999999" points="340,-250 293,-250 293,-231 340,-231 340,-250"/>
<text text-anchor="middle" x="316.5" y="-238" font-family="Helvetica,sans-Serif" font-size="10.00">fcntl.h</text>
</a>
</g>
</g>
<!-- Node9&#45;&gt;Node10 -->
<g id="edge13_Node000009_Node000010" class="edge">
<title>Node9&#45;&gt;Node10</title>
<g id="a_edge13_Node000009_Node000010"><a xlink:title=" ">
<path fill="none" stroke="#63b8ff" d="M355.91,-285.84C348.44,-277.43 338.94,-266.74 331.13,-257.96"/>
<polygon fill="#63b8ff" stroke="#63b8ff" points="333.55,-255.41 324.29,-250.27 328.32,-260.07 333.55,-255.41"/>
</a>
</g>
</g>
<!-- Node11 -->
<g id="Node000011" class="node">
<title>Node11</title>
<g id="a_Node000011"><a xlink:title=" ">
<polygon fill="#e0e0e0" stroke="#999999" points="1043.5,-134.5 987.5,-134.5 987.5,-115.5 1043.5,-115.5 1043.5,-134.5"/>
<text text-anchor="middle" x="1015.5" y="-122.5" font-family="Helvetica,sans-Serif" font-size="10.00">unistd.h</text>
</a>
</g>
</g>
<!-- Node9&#45;&gt;Node11 -->
<g id="edge15_Node000009_Node000011" class="edge">
<title>Node9&#45;&gt;Node11</title>
<g id="a_edge15_Node000009_Node000011"><a xlink:title=" ">
<path fill="none" stroke="#63b8ff" d="M434.1,-288.15C482.78,-278.93 550.64,-265.18 609.5,-250 717.17,-222.23 741.96,-207.83 848.5,-176 903.89,-159.45 918.29,-157.14 973.5,-140 975.79,-139.29 978.15,-138.54 980.52,-137.78"/>
<polygon fill="#63b8ff" stroke="#63b8ff" points="981.82,-141.04 990.24,-134.61 979.64,-134.39 981.82,-141.04"/>
</a>
</g>
</g>
<!-- Node12 -->
<g id="Node000012" class="node">
<title>Node12</title>
<g id="a_Node000012"><a xlink:title=" ">
<polygon fill="#e0e0e0" stroke="#999999" points="1319,-19 1272,-19 1272,0 1319,0 1319,-19"/>
<text text-anchor="middle" x="1295.5" y="-7" font-family="Helvetica,sans-Serif" font-size="10.00">vector</text>
</a>
</g>
</g>
<!-- Node9&#45;&gt;Node12 -->
<g id="edge16_Node000009_Node000012" class="edge">
<title>Node9&#45;&gt;Node12</title>
<g id="a_edge16_Node000009_Node000012"><a xlink:title=" ">
<path fill="none" stroke="#63b8ff" d="M434.18,-297C639.35,-287.56 1257.21,-258.57 1299.5,-250 1381,-233.48 1475.5,-269.66 1475.5,-186.5 1475.5,-186.5 1475.5,-186.5 1475.5,-124 1475.5,-55.57 1381.26,-26.74 1329.16,-16.04"/>
<polygon fill="#63b8ff" stroke="#63b8ff" points="1329.52,-12.54 1319.03,-14.07 1328.18,-19.41 1329.52,-12.54"/>
</a>
</g>
</g>
<!-- Node13&#45;&gt;Node8 -->
<g id="edge19_Node000013_Node000008" class="edge">
<title>Node13&#45;&gt;Node8</title>
<g id="a_edge19_Node000013_Node000008"><a xlink:title=" ">
<path fill="none" stroke="#63b8ff" d="M1350.66,-285.98C1370.61,-267.49 1403.48,-232.84 1416.5,-195 1425.94,-167.57 1403.96,-116.64 1397.5,-110 1324.28,-34.74 1194.44,-16.27 1127.33,-11.83"/>
<polygon fill="#63b8ff" stroke="#63b8ff" points="1127.3,-8.32 1117.11,-11.23 1126.89,-15.31 1127.3,-8.32"/>
</a>
</g>
</g>
<!-- Node14&#45;&gt;Node6 -->
<g id="edge23_Node000014_Node000006" class="edge">
<title>Node14&#45;&gt;Node6</title>
<g id="a_edge23_Node000014_Node000006"><a xlink:title=" ">
<path fill="none" stroke="#63b8ff" d="M1012.08,-175.98C1026.17,-168.68 1044.1,-156.68 1052.5,-140 1058.49,-128.09 1059.74,-121.2 1052.5,-110 1020.22,-60.04 987.94,-70.43 930.5,-55 783.39,-15.47 599.8,-10.54 526.22,-10.28"/>
<polygon fill="#63b8ff" stroke="#63b8ff" points="525.78,-6.78 515.78,-10.27 525.78,-13.78 525.78,-6.78"/>
</a>
</g>
</g>
<!-- Node14&#45;&gt;Node11 -->
<g id="edge25_Node000014_Node000011" class="edge">
<title>Node14&#45;&gt;Node11</title>
<g id="a_edge25_Node000014_Node000011"><a xlink:title=" ">
<path fill="none" stroke="#63b8ff" d="M995.89,-175.87C999.16,-167.57 1004.19,-154.78 1008.34,-144.22"/>
<polygon fill="#63b8ff" stroke="#63b8ff" points="1011.69,-145.25 1012.09,-134.67 1005.18,-142.69 1011.69,-145.25"/>
</a>
</g>
</g>
<!-- Node14&#45;&gt;Node12 -->
<g id="edge26_Node000014_Node000012" class="edge">
<title>Node14&#45;&gt;Node12</title>
<g id="a_edge26_Node000014_Node000012"><a xlink:title=" ">
<path fill="none" stroke="#63b8ff" d="M1063.11,-177.8C1142.29,-169.62 1261.64,-155 1276.5,-140 1305.59,-110.63 1302.93,-57.6 1298.95,-29.37"/>
<polygon fill="#63b8ff" stroke="#63b8ff" points="1302.37,-28.56 1297.32,-19.24 1295.46,-29.67 1302.37,-28.56"/>
</a>
</g>
</g>
<!-- Node15 -->
<g id="Node000015" class="node">
<title>Node15</title>
<g id="a_Node000015"><a xlink:title=" ">
<polygon fill="#e0e0e0" stroke="#999999" points="724.5,-74 666.5,-74 666.5,-55 724.5,-55 724.5,-74"/>
<text text-anchor="middle" x="695.5" y="-62" font-family="Helvetica,sans-Serif" font-size="10.00">memory</text>
</a>
</g>
</g>
<!-- Node14&#45;&gt;Node15 -->
<g id="edge21_Node000014_Node000015" class="edge">
<title>Node14&#45;&gt;Node15</title>
<g id="a_edge21_Node000014_Node000015"><a xlink:title=" ">
<path fill="none" stroke="#63b8ff" d="M923.08,-175.99C851.01,-166.63 746.68,-151.41 731.5,-140 713.42,-126.4 703.96,-101.34 699.36,-84.06"/>
<polygon fill="#63b8ff" stroke="#63b8ff" points="702.69,-82.96 696.99,-74.03 695.88,-84.57 702.69,-82.96"/>
</a>
</g>
</g>
<!-- Node16 -->
<g id="Node000016" class="node">
<title>Node16</title>
<g id="a_Node000016"><a xlink:title=" ">
<polygon fill="#e0e0e0" stroke="#999999" points="1171.5,-134.5 1099.5,-134.5 1099.5,-115.5 1171.5,-115.5 1171.5,-134.5"/>
<text text-anchor="middle" x="1135.5" y="-122.5" font-family="Helvetica,sans-Serif" font-size="10.00">netinet/in.h</text>
</a>
</g>
</g>
<!-- Node14&#45;&gt;Node16 -->
<g id="edge22_Node000014_Node000016" class="edge">
<title>Node14&#45;&gt;Node16</title>
<g id="a_edge22_Node000014_Node000016"><a xlink:title=" ">
<path fill="none" stroke="#63b8ff" d="M1013.29,-175.99C1037.44,-166.12 1077.48,-149.73 1105.12,-138.43"/>
<polygon fill="#63b8ff" stroke="#63b8ff" points="1106.75,-141.54 1114.68,-134.52 1104.1,-135.06 1106.75,-141.54"/>
</a>
</g>
</g>
<!-- Node17 -->
<g id="Node000017" class="node">
<title>Node17</title>
<g id="a_Node000017"><a xlink:title=" ">
<polygon fill="#e0e0e0" stroke="#999999" points="1267,-134.5 1190,-134.5 1190,-115.5 1267,-115.5 1267,-134.5"/>
<text text-anchor="middle" x="1228.5" y="-122.5" font-family="Helvetica,sans-Serif" font-size="10.00">sys/socket.h</text>
</a>
</g>
</g>
<!-- Node14&#45;&gt;Node17 -->
<g id="edge24_Node000014_Node000017" class="edge">
<title>Node14&#45;&gt;Node17</title>
<g id="a_edge24_Node000014_Node000017"><a xlink:title=" ">
<path fill="none" stroke="#63b8ff" d="M1031.17,-175.96C1069.28,-167.39 1129.1,-153.57 1180.5,-140 1183.69,-139.16 1186.99,-138.26 1190.3,-137.33"/>
<polygon fill="#63b8ff" stroke="#63b8ff" points="1191.48,-140.64 1200.14,-134.53 1189.56,-133.9 1191.48,-140.64"/>
</a>
</g>
</g>
<!-- Node18&#45;&gt;Node14 -->
<g id="edge33_Node000018_Node000014" class="edge">
<title>Node18&#45;&gt;Node14</title>
<g id="a_edge33_Node000018_Node000014"><a xlink:title=" ">
<path fill="none" stroke="#63b8ff" d="M1183.87,-230.98C1144.59,-221.86 1082.13,-207.33 1039.31,-197.38"/>
<polygon fill="#63b8ff" stroke="#63b8ff" points="1039.95,-193.94 1029.42,-195.08 1038.37,-200.76 1039.95,-193.94"/>
</a>
</g>
</g>
<!-- Node19 -->
<g id="Node000019" class="node">
<title>Node19</title>
<g id="a_Node000019"><a xlink:title=" ">
<polygon fill="#e0e0e0" stroke="#999999" points="1169.5,-195 1119.5,-195 1119.5,-176 1169.5,-176 1169.5,-195"/>
<text text-anchor="middle" x="1144.5" y="-183" font-family="Helvetica,sans-Serif" font-size="10.00">atomic</text>
</a>
</g>
</g>
<!-- Node18&#45;&gt;Node19 -->
<g id="edge28_Node000018_Node000019" class="edge">
<title>Node18&#45;&gt;Node19</title>
<g id="a_edge28_Node000018_Node000019"><a xlink:title=" ">
<path fill="none" stroke="#63b8ff" d="M1208.29,-230.98C1196.72,-222.92 1179.12,-210.65 1165.34,-201.03"/>
<polygon fill="#63b8ff" stroke="#63b8ff" points="1167.14,-198.02 1156.93,-195.17 1163.13,-203.76 1167.14,-198.02"/>
</a>
</g>
</g>
<!-- Node20 -->
<g id="Node000020" class="node">
<title>Node20</title>
<g id="a_Node000020"><a xlink:title=" ">
<polygon fill="#e0e0e0" stroke="#999999" points="1253,-195 1188,-195 1188,-176 1253,-176 1253,-195"/>
<text text-anchor="middle" x="1220.5" y="-183" font-family="Helvetica,sans-Serif" font-size="10.00">functional</text>
</a>
</g>
</g>
<!-- Node18&#45;&gt;Node20 -->
<g id="edge29_Node000018_Node000020" class="edge">
<title>Node18&#45;&gt;Node20</title>
<g id="a_edge29_Node000018_Node000020"><a xlink:title=" ">
<path fill="none" stroke="#63b8ff" d="M1220.5,-230.75C1220.5,-223.8 1220.5,-213.85 1220.5,-205.13"/>
<polygon fill="#63b8ff" stroke="#63b8ff" points="1224,-205.09 1220.5,-195.09 1217,-205.09 1224,-205.09"/>
</a>
</g>
</g>
<!-- Node21 -->
<g id="Node000021" class="node">
<title>Node21</title>
<g id="a_Node000021"><a xlink:title=" ">
<polygon fill="#e0e0e0" stroke="#999999" points="1407.5,-195 1375.5,-195 1375.5,-176 1407.5,-176 1407.5,-195"/>
<text text-anchor="middle" x="1391.5" y="-183" font-family="Helvetica,sans-Serif" font-size="10.00">list</text>
</a>
</g>
</g>
<!-- Node18&#45;&gt;Node21 -->
<g id="edge30_Node000018_Node000021" class="edge">
<title>Node18&#45;&gt;Node21</title>
<g id="a_edge30_Node000018_Node000021"><a xlink:title=" ">
<path fill="none" stroke="#63b8ff" d="M1247.97,-230.98C1280.38,-220.94 1333.83,-204.37 1365.55,-194.54"/>
<polygon fill="#63b8ff" stroke="#63b8ff" points="1366.9,-197.79 1375.42,-191.49 1364.83,-191.1 1366.9,-197.79"/>
</a>
</g>
</g>
<!-- Node22 -->
<g id="Node000022" class="node">
<title>Node22</title>
<g id="a_Node000022"><a xlink:title=" ">
<polygon fill="#e0e0e0" stroke="#999999" points="1371.5,-134.5 1323.5,-134.5 1323.5,-115.5 1371.5,-115.5 1371.5,-134.5"/>
<text text-anchor="middle" x="1347.5" y="-122.5" font-family="Helvetica,sans-Serif" font-size="10.00">mutex</text>
</a>
</g>
</g>
<!-- Node18&#45;&gt;Node22 -->
<g id="edge31_Node000018_Node000022" class="edge">
<title>Node18&#45;&gt;Node22</title>
<g id="a_edge31_Node000018_Node000022"><a xlink:title=" ">
<path fill="none" stroke="#63b8ff" d="M1264.55,-231C1286.6,-224.59 1312.04,-213.61 1328.5,-195 1340.7,-181.21 1345.14,-160.26 1346.72,-145.06"/>
<polygon fill="#63b8ff" stroke="#63b8ff" points="1350.23,-145 1347.45,-134.77 1343.25,-144.5 1350.23,-145"/>
</a>
</g>
</g>
<!-- Node23 -->
<g id="Node000023" class="node">
<title>Node23</title>
<g id="a_Node000023"><a xlink:title=" ">
<polygon fill="#e0e0e0" stroke="#999999" points="1319.5,-195 1271.5,-195 1271.5,-176 1319.5,-176 1319.5,-195"/>
<text text-anchor="middle" x="1295.5" y="-183" font-family="Helvetica,sans-Serif" font-size="10.00">thread</text>
</a>
</g>
</g>
<!-- Node18&#45;&gt;Node23 -->
<g id="edge32_Node000018_Node000023" class="edge">
<title>Node18&#45;&gt;Node23</title>
<g id="a_edge32_Node000018_Node000023"><a xlink:title=" ">
<path fill="none" stroke="#63b8ff" d="M1232.55,-230.98C1243.96,-222.92 1261.33,-210.65 1274.93,-201.03"/>
<polygon fill="#63b8ff" stroke="#63b8ff" points="1277.08,-203.8 1283.23,-195.17 1273.04,-198.08 1277.08,-203.8"/>
</a>
</g>
</g>
<!-- Node24&#45;&gt;Node6 -->
<g id="edge38_Node000024_Node000006" class="edge">
<title>Node24&#45;&gt;Node6</title>
<g id="a_edge38_Node000024_Node000006"><a xlink:title=" ">
<path fill="none" stroke="#63b8ff" d="M769.4,-238.55C696.42,-233.76 579.21,-214.07 516.5,-140 489.91,-108.59 489.36,-57.21 491.36,-29.55"/>
<polygon fill="#63b8ff" stroke="#63b8ff" points="494.88,-29.56 492.31,-19.28 487.91,-28.92 494.88,-29.56"/>
</a>
</g>
</g>
<!-- Node24&#45;&gt;Node7 -->
<g id="edge40_Node000024_Node000007" class="edge">
<title>Node24&#45;&gt;Node7</title>
<g id="a_edge40_Node000024_Node000007"><a xlink:title=" ">
<path fill="none" stroke="#63b8ff" d="M769.35,-234.84C688.56,-228.27 554.83,-214.81 509.5,-195 452.72,-170.19 404.71,-111.66 383.36,-82.55"/>
<polygon fill="#63b8ff" stroke="#63b8ff" points="386.05,-80.3 377.38,-74.21 380.36,-84.38 386.05,-80.3"/>
</a>
</g>
</g>
<!-- Node24&#45;&gt;Node14 -->
<g id="edge53_Node000024_Node000014" class="edge">
<title>Node24&#45;&gt;Node14</title>
<g id="a_edge53_Node000024_Node000014"><a xlink:title=" ">
<path fill="none" stroke="#63b8ff" d="M859.05,-230.98C885.62,-222.13 927.44,-208.19 957.17,-198.28"/>
<polygon fill="#63b8ff" stroke="#63b8ff" points="958.37,-201.56 966.75,-195.08 956.16,-194.92 958.37,-201.56"/>
</a>
</g>
</g>
<!-- Node24&#45;&gt;Node19 -->
<g id="edge35_Node000024_Node000019" class="edge">
<title>Node24&#45;&gt;Node19</title>
<g id="a_edge35_Node000024_Node000019"><a xlink:title=" ">
<path fill="none" stroke="#63b8ff" d="M890.96,-230.99C946.12,-222.62 1031.7,-209.07 1105.5,-195 1106.76,-194.76 1108.05,-194.51 1109.35,-194.25"/>
<polygon fill="#63b8ff" stroke="#63b8ff" points="1110.28,-197.63 1119.36,-192.18 1108.86,-190.78 1110.28,-197.63"/>
</a>
</g>
</g>
<!-- Node24&#45;&gt;Node20 -->
<g id="edge37_Node000024_Node000020" class="edge">
<title>Node24&#45;&gt;Node20</title>
<g id="a_edge37_Node000024_Node000020"><a xlink:title=" ">
<path fill="none" stroke="#63b8ff" d="M897.6,-232.62C964.86,-225.09 1073.86,-211.99 1177.93,-194.98"/>
<polygon fill="#63b8ff" stroke="#63b8ff" points="1178.69,-198.4 1187.98,-193.32 1177.55,-191.49 1178.69,-198.4"/>
</a>
</g>
</g>
<!-- Node24&#45;&gt;Node23 -->
<g id="edge39_Node000024_Node000023" class="edge">
<title>Node24&#45;&gt;Node23</title>
<g id="a_edge39_Node000024_Node000023"><a xlink:title=" ">
<path fill="none" stroke="#63b8ff" d="M897.51,-235.84C979.67,-230.48 1126.68,-218.66 1261.35,-194.94"/>
<polygon fill="#63b8ff" stroke="#63b8ff" points="1262.21,-198.34 1271.44,-193.14 1260.98,-191.45 1262.21,-198.34"/>
</a>
</g>
</g>
<!-- Node25 -->
<g id="Node000025" class="node">
<title>Node25</title>
<g id="a_Node000025"><a xlink:title=" ">
<polygon fill="#e0e0e0" stroke="#999999" points="904,-195 857,-195 857,-176 904,-176 904,-195"/>
<text text-anchor="middle" x="880.5" y="-183" font-family="Helvetica,sans-Serif" font-size="10.00">deque</text>
</a>
</g>
</g>
<!-- Node24&#45;&gt;Node25 -->
<g id="edge36_Node000024_Node000025" class="edge">
<title>Node24&#45;&gt;Node25</title>
<g id="a_edge36_Node000024_Node000025"><a xlink:title=" ">
<path fill="none" stroke="#63b8ff" d="M841.26,-230.75C847.97,-223.18 857.84,-212.05 866.01,-202.84"/>
<polygon fill="#63b8ff" stroke="#63b8ff" points="868.87,-204.89 872.88,-195.09 863.63,-200.25 868.87,-204.89"/>
</a>
</g>
</g>
<!-- Node26 -->
<g id="Node000026" class="node">
<title>Node26</title>
<g id="a_Node000026"><a xlink:href="file_8hpp.html" target="_top" xlink:title=" ">
<polygon fill="white" stroke="#666666" points="841,-134.5 740,-134.5 740,-115.5 841,-115.5 841,-134.5"/>
<text text-anchor="middle" x="790.5" y="-122.5" font-family="Helvetica,sans-Serif" font-size="10.00">../models/file.hpp</text>
</a>
</g>
</g>
<!-- Node24&#45;&gt;Node26 -->
<g id="edge41_Node000024_Node000026" class="edge">
<title>Node24&#45;&gt;Node26</title>
<g id="a_edge41_Node000024_Node000026"><a xlink:title=" ">
<path fill="none" stroke="#63b8ff" d="M829.53,-230.71C825.56,-221.78 819.35,-207.54 814.5,-195 807.93,-178.01 801.18,-158.37 796.52,-144.4"/>
<polygon fill="#63b8ff" stroke="#63b8ff" points="799.73,-142.96 793.27,-134.57 793.08,-145.16 799.73,-142.96"/>
</a>
</g>
</g>
<!-- Node29 -->
<g id="Node000029" class="node">
<title>Node29</title>
<g id="a_Node000029"><a xlink:href="fileinfo_8hpp.html" target="_top" xlink:title=" ">
<polygon fill="white" stroke="#666666" points="1120,-74 1049,-74 1049,-55 1120,-55 1120,-74"/>
<text text-anchor="middle" x="1084.5" y="-62" font-family="Helvetica,sans-Serif" font-size="10.00">fileinfo.hpp</text>
</a>
</g>
</g>
<!-- Node24&#45;&gt;Node29 -->
<g id="edge52_Node000024_Node000029" class="edge">
<title>Node24&#45;&gt;Node29</title>
<g id="a_edge52_Node000024_Node000029"><a xlink:title=" ">
<path fill="none" stroke="#63b8ff" d="M897.63,-232.51C946.46,-226 1014.88,-214.34 1072.5,-195 1090.4,-188.99 1092.45,-181.55 1110.5,-176 1168.36,-158.22 1340.63,-185.54 1380.5,-140 1389.28,-129.97 1389.2,-120.1 1380.5,-110 1364.4,-91.3 1209.19,-75.85 1130.2,-69.12"/>
<polygon fill="#63b8ff" stroke="#63b8ff" points="1130.3,-65.62 1120.04,-68.27 1129.72,-72.59 1130.3,-65.62"/>
</a>
</g>
</g>
<!-- Node30 -->
<g id="Node000030" class="node">
<title>Node30</title>
<g id="a_Node000030"><a xlink:href="partfile_8hpp.html" target="_top" xlink:title=" ">
<polygon fill="white" stroke="#666666" points="931.5,-134.5 859.5,-134.5 859.5,-115.5 931.5,-115.5 931.5,-134.5"/>
<text text-anchor="middle" x="895.5" y="-122.5" font-family="Helvetica,sans-Serif" font-size="10.00">partfile.hpp</text>
</a>
</g>
</g>
<!-- Node24&#45;&gt;Node30 -->
<g id="edge54_Node000024_Node000030" class="edge">
<title>Node24&#45;&gt;Node30</title>
<g id="a_edge54_Node000024_Node000030"><a xlink:title=" ">
<path fill="none" stroke="#63b8ff" d="M834.13,-230.78C835.35,-218.06 838.85,-193.96 848.5,-176 855.55,-162.88 866.92,-150.65 876.71,-141.57"/>
<polygon fill="#63b8ff" stroke="#63b8ff" points="879.27,-143.99 884.44,-134.74 874.63,-138.74 879.27,-143.99"/>
</a>
</g>
</g>
<!-- Node24&#45;&gt;Node31 -->
<g id="edge59_Node000024_Node000031" class="edge">
<title>Node24&#45;&gt;Node31</title>
<g id="a_edge59_Node000024_Node000031"><a xlink:title=" ">
<path fill="none" stroke="#63b8ff" d="M807.47,-230.98C780.39,-222.13 737.79,-208.19 707.49,-198.28"/>
<polygon fill="#63b8ff" stroke="#63b8ff" points="708.32,-194.87 697.73,-195.08 706.15,-201.52 708.32,-194.87"/>
</a>
</g>
</g>
<!-- Node26&#45;&gt;Node6 -->
<g id="edge43_Node000026_Node000006" class="edge">
<title>Node26&#45;&gt;Node6</title>
<g id="a_edge43_Node000026_Node000006"><a xlink:title=" ">
<path fill="none" stroke="#63b8ff" d="M785.9,-115.12C777.62,-100.08 758.68,-69.81 733.5,-55 667.29,-16.04 574.49,-9.94 525.97,-9.7"/>
<polygon fill="#63b8ff" stroke="#63b8ff" points="525.74,-6.2 515.75,-9.74 525.77,-13.2 525.74,-6.2"/>
</a>
</g>
</g>
<!-- Node26&#45;&gt;Node7 -->
<g id="edge46_Node000026_Node000007" class="edge">
<title>Node26&#45;&gt;Node7</title>
<g id="a_edge46_Node000026_Node000007"><a xlink:title=" ">
<path fill="none" stroke="#63b8ff" d="M739.96,-116.94C665.71,-106.58 526.83,-87.19 442.41,-75.4"/>
<polygon fill="#63b8ff" stroke="#63b8ff" points="442.78,-71.92 432.39,-74 441.81,-78.85 442.78,-71.92"/>
</a>
</g>
</g>
<!-- Node26&#45;&gt;Node15 -->
<g id="edge42_Node000026_Node000015" class="edge">
<title>Node26&#45;&gt;Node15</title>
<g id="a_edge42_Node000026_Node000015"><a xlink:title=" ">
<path fill="none" stroke="#63b8ff" d="M776.48,-115.37C761.19,-105.95 736.47,-90.73 718.36,-79.58"/>
<polygon fill="#63b8ff" stroke="#63b8ff" points="719.93,-76.43 709.58,-74.17 716.25,-82.39 719.93,-76.43"/>
</a>
</g>
</g>
<!-- Node27 -->
<g id="Node000027" class="node">
<title>Node27</title>
<g id="a_Node000027"><a xlink:title=" ">
<polygon fill="#e0e0e0" stroke="#999999" points="951.5,-19 895.5,-19 895.5,0 951.5,0 951.5,-19"/>
<text text-anchor="middle" x="923.5" y="-7" font-family="Helvetica,sans-Serif" font-size="10.00">sstream</text>
</a>
</g>
</g>
<!-- Node26&#45;&gt;Node27 -->
<g id="edge44_Node000026_Node000027" class="edge">
<title>Node26&#45;&gt;Node27</title>
<g id="a_edge44_Node000026_Node000027"><a xlink:title=" ">
<path fill="none" stroke="#63b8ff" d="M790.51,-115.19C791.01,-100.81 794.03,-72.16 809.5,-55 829.01,-33.36 860.32,-22.14 885.2,-16.38"/>
<polygon fill="#63b8ff" stroke="#63b8ff" points="886,-19.79 895.06,-14.3 884.56,-12.94 886,-19.79"/>
</a>
</g>
</g>
<!-- Node28 -->
<g id="Node000028" class="node">
<title>Node28</title>
<g id="a_Node000028"><a xlink:title=" ">
<polygon fill="#e0e0e0" stroke="#999999" points="904.5,-74 818.5,-74 818.5,-55 904.5,-55 904.5,-74"/>
<text text-anchor="middle" x="861.5" y="-62" font-family="Helvetica,sans-Serif" font-size="10.00">unordered_set</text>
</a>
</g>
</g>
<!-- Node26&#45;&gt;Node28 -->
<g id="edge45_Node000026_Node000028" class="edge">
<title>Node26&#45;&gt;Node28</title>
<g id="a_edge45_Node000026_Node000028"><a xlink:title=" ">
<path fill="none" stroke="#63b8ff" d="M800.98,-115.37C811.99,-106.3 829.54,-91.84 842.91,-80.82"/>
<polygon fill="#63b8ff" stroke="#63b8ff" points="845.49,-83.23 850.98,-74.17 841.04,-77.83 845.49,-83.23"/>
</a>
</g>
</g>
<!-- Node26&#45;&gt;Node29 -->
<g id="edge47_Node000026_Node000029" class="edge">
<title>Node26&#45;&gt;Node29</title>
<g id="a_edge47_Node000026_Node000029"><a xlink:title=" ">
<path fill="none" stroke="#63b8ff" d="M825.98,-115.47C834.03,-113.6 842.55,-111.68 850.5,-110 915.71,-96.2 991.56,-82.14 1038.81,-73.61"/>
<polygon fill="#63b8ff" stroke="#63b8ff" points="1039.51,-77.04 1048.73,-71.83 1038.27,-70.15 1039.51,-77.04"/>
</a>
</g>
</g>
<!-- Node29&#45;&gt;Node6 -->
<g id="edge50_Node000029_Node000006" class="edge">
<title>Node29&#45;&gt;Node6</title>
<g id="a_edge50_Node000029_Node000006"><a xlink:title=" ">
<path fill="none" stroke="#63b8ff" d="M1048.78,-57.04C1043.99,-56.29 1039.13,-55.58 1034.5,-55 842.36,-30.81 610.1,-16.78 525.93,-12.19"/>
<polygon fill="#63b8ff" stroke="#63b8ff" points="525.9,-8.68 515.73,-11.64 525.53,-15.67 525.9,-8.68"/>
</a>
</g>
</g>
<!-- Node29&#45;&gt;Node8 -->
<g id="edge49_Node000029_Node000008" class="edge">
<title>Node29&#45;&gt;Node8</title>
<g id="a_edge49_Node000029_Node000008"><a xlink:title=" ">
<path fill="none" stroke="#63b8ff" d="M1084.5,-54.75C1084.5,-47.8 1084.5,-37.85 1084.5,-29.13"/>
<polygon fill="#63b8ff" stroke="#63b8ff" points="1088,-29.09 1084.5,-19.09 1081,-29.09 1088,-29.09"/>
</a>
</g>
</g>
<!-- Node29&#45;&gt;Node12 -->
<g id="edge51_Node000029_Node000012" class="edge">
<title>Node29&#45;&gt;Node12</title>
<g id="a_edge51_Node000029_Node000012"><a xlink:title=" ">
<path fill="none" stroke="#63b8ff" d="M1118.4,-54.98C1157.86,-45.07 1222.62,-28.81 1261.94,-18.93"/>
<polygon fill="#63b8ff" stroke="#63b8ff" points="1262.99,-22.28 1271.83,-16.45 1261.28,-15.49 1262.99,-22.28"/>
</a>
</g>
</g>
<!-- Node29&#45;&gt;Node27 -->
<g id="edge48_Node000029_Node000027" class="edge">
<title>Node29&#45;&gt;Node27</title>
<g id="a_edge48_Node000029_Node000027"><a xlink:title=" ">
<path fill="none" stroke="#63b8ff" d="M1058.63,-54.98C1031.72,-46.13 989.38,-32.19 959.27,-22.28"/>
<polygon fill="#63b8ff" stroke="#63b8ff" points="960.16,-18.88 949.57,-19.08 957.97,-25.53 960.16,-18.88"/>
</a>
</g>
</g>
<!-- Node30&#45;&gt;Node6 -->
<g id="edge56_Node000030_Node000006" class="edge">
<title>Node30&#45;&gt;Node6</title>
<g id="a_edge56_Node000030_Node000006"><a xlink:title=" ">
<path fill="none" stroke="#63b8ff" d="M902.26,-115.18C912.42,-100.79 928.9,-72.12 913.5,-55 887.65,-26.26 619.41,-14.67 525.64,-11.48"/>
<polygon fill="#63b8ff" stroke="#63b8ff" points="525.71,-7.98 515.6,-11.15 525.48,-14.98 525.71,-7.98"/>
</a>
</g>
</g>
<!-- Node30&#45;&gt;Node15 -->
<g id="edge55_Node000030_Node000015" class="edge">
<title>Node30&#45;&gt;Node15</title>
<g id="a_edge55_Node000030_Node000015"><a xlink:title=" ">
<path fill="none" stroke="#63b8ff" d="M868.4,-115.46C862.51,-113.64 856.3,-111.73 850.5,-110 811.05,-98.2 765.76,-85.27 734.37,-76.4"/>
<polygon fill="#63b8ff" stroke="#63b8ff" points="735.27,-73.02 724.69,-73.67 733.37,-79.76 735.27,-73.02"/>
</a>
</g>
</g>
<!-- Node30&#45;&gt;Node28 -->
<g id="edge57_Node000030_Node000028" class="edge">
<title>Node30&#45;&gt;Node28</title>
<g id="a_edge57_Node000030_Node000028"><a xlink:title=" ">
<path fill="none" stroke="#63b8ff" d="M890.48,-115.37C885.56,-106.9 877.91,-93.74 871.71,-83.07"/>
<polygon fill="#63b8ff" stroke="#63b8ff" points="874.59,-81.05 866.54,-74.17 868.54,-84.57 874.59,-81.05"/>
</a>
</g>
</g>
<!-- Node30&#45;&gt;Node29 -->
<g id="edge58_Node000030_Node000029" class="edge">
<title>Node30&#45;&gt;Node29</title>
<g id="a_edge58_Node000030_Node000029"><a xlink:title=" ">
<path fill="none" stroke="#63b8ff" d="M922.98,-115.49C955.74,-105.36 1010.62,-88.37 1047.19,-77.05"/>
<polygon fill="#63b8ff" stroke="#63b8ff" points="1048.47,-80.32 1056.98,-74.02 1046.4,-73.63 1048.47,-80.32"/>
</a>
</g>
</g>
<!-- Node31&#45;&gt;Node6 -->
<g id="edge62_Node000031_Node000006" class="edge">
<title>Node31&#45;&gt;Node6</title>
<g id="a_edge62_Node000031_Node000006"><a xlink:title=" ">
<path fill="none" stroke="#63b8ff" d="M635.74,-180.34C607.4,-175.29 568.53,-164.2 543.5,-140 511.98,-109.53 500.01,-56.96 495.72,-29.09"/>
<polygon fill="#63b8ff" stroke="#63b8ff" points="499.17,-28.54 494.35,-19.11 492.24,-29.49 499.17,-28.54"/>
</a>
</g>
</g>
<!-- Node31&#45;&gt;Node7 -->
<g id="edge64_Node000031_Node000007" class="edge">
<title>Node31&#45;&gt;Node7</title>
<g id="a_edge64_Node000031_Node000007"><a xlink:title=" ">
<path fill="none" stroke="#63b8ff" d="M635.98,-177.19C602.65,-169.76 551.73,-156.94 509.5,-140 466.78,-122.86 420.3,-95.87 393.65,-79.51"/>
<polygon fill="#63b8ff" stroke="#63b8ff" points="395.44,-76.5 385.1,-74.2 391.75,-82.45 395.44,-76.5"/>
</a>
</g>
</g>
<!-- Node31&#45;&gt;Node15 -->
<g id="edge60_Node000031_Node000015" class="edge">
<title>Node31&#45;&gt;Node15</title>
<g id="a_edge60_Node000031_Node000015"><a xlink:title=" ">
<path fill="none" stroke="#63b8ff" d="M673.23,-175.94C677.08,-156.82 686.47,-110.27 691.74,-84.12"/>
<polygon fill="#63b8ff" stroke="#63b8ff" points="695.18,-84.8 693.72,-74.3 688.32,-83.41 695.18,-84.8"/>
</a>
</g>
</g>
<!-- Node31&#45;&gt;Node22 -->
<g id="edge61_Node000031_Node000022" class="edge">
<title>Node31&#45;&gt;Node22</title>
<g id="a_edge61_Node000031_Node000022"><a xlink:title=" ">
<path fill="none" stroke="#63b8ff" d="M707.17,-182.45C819.52,-175.89 1165.21,-155.01 1276.5,-140 1288.63,-138.36 1301.82,-135.94 1313.5,-133.58"/>
<polygon fill="#63b8ff" stroke="#63b8ff" points="1314.23,-137 1323.3,-131.53 1312.8,-130.14 1314.23,-137"/>
</a>
</g>
</g>
<!-- Node31&#45;&gt;Node26 -->
<g id="edge65_Node000031_Node000026" class="edge">
<title>Node31&#45;&gt;Node26</title>
<g id="a_edge65_Node000031_Node000026"><a xlink:title=" ">
<path fill="none" stroke="#63b8ff" d="M688.8,-175.99C708.55,-166.29 741.05,-150.31 763.99,-139.03"/>
<polygon fill="#63b8ff" stroke="#63b8ff" points="765.75,-142.07 773.18,-134.52 762.66,-135.79 765.75,-142.07"/>
</a>
</g>
</g>
<!-- Node31&#45;&gt;Node29 -->
<g id="edge66_Node000031_Node000029" class="edge">
<title>Node31&#45;&gt;Node29</title>
<g id="a_edge66_Node000031_Node000029"><a xlink:title=" ">
<path fill="none" stroke="#63b8ff" d="M707.22,-180.83C770.44,-173.97 899.26,-158.22 940.5,-140 960.18,-131.3 959.97,-120.93 978.5,-110 1000.91,-96.78 1027.98,-85.49 1049.16,-77.58"/>
<polygon fill="#63b8ff" stroke="#63b8ff" points="1050.54,-80.81 1058.73,-74.09 1048.14,-74.23 1050.54,-80.81"/>
</a>
</g>
</g>
<!-- Node32 -->
<g id="Node000032" class="node">
<title>Node32</title>
<g id="a_Node000032"><a xlink:title=" ">
<polygon fill="#e0e0e0" stroke="#999999" points="645,-134.5 552,-134.5 552,-115.5 645,-115.5 645,-134.5"/>
<text text-anchor="middle" x="598.5" y="-122.5" font-family="Helvetica,sans-Serif" font-size="10.00">unordered_map</text>
</a>
</g>
</g>
<!-- Node31&#45;&gt;Node32 -->
<g id="edge63_Node000031_Node000032" class="edge">
<title>Node31&#45;&gt;Node32</title>
<g id="a_edge63_Node000031_Node000032"><a xlink:title=" ">
<path fill="none" stroke="#63b8ff" d="M660.73,-175.87C649.3,-166.71 631.02,-152.06 617.22,-141.01"/>
<polygon fill="#63b8ff" stroke="#63b8ff" points="619.31,-138.19 609.32,-134.67 614.93,-143.65 619.31,-138.19"/>
</a>
</g>
</g>
<!-- Node33&#45;&gt;Node6 -->
<g id="edge69_Node000033_Node000006" class="edge">
<title>Node33&#45;&gt;Node6</title>
<g id="a_edge69_Node000033_Node000006"><a xlink:title=" ">
<path fill="none" stroke="#63b8ff" d="M699.81,-295.34C642.99,-289.22 550.46,-276.04 474.5,-250 449.58,-241.46 388.57,-213.17 369.5,-195 318.99,-146.87 255,-109.54 298.5,-55 318.51,-29.91 411.29,-17.85 461.32,-13.09"/>
<polygon fill="#63b8ff" stroke="#63b8ff" points="461.67,-16.57 471.31,-12.18 461.03,-9.6 461.67,-16.57"/>
</a>
</g>
</g>
<!-- Node33&#45;&gt;Node7 -->
<g id="edge70_Node000033_Node000007" class="edge">
<title>Node33&#45;&gt;Node7</title>
<g id="a_edge70_Node000033_Node000007"><a xlink:title=" ">
<path fill="none" stroke="#63b8ff" d="M699.92,-300.88C633.86,-300.02 518.5,-291.85 430.5,-250 375.91,-224.04 360.51,-199.62 350.5,-140 348.29,-126.85 347.58,-123.01 350.5,-110 352.58,-100.74 356.8,-91.14 360.93,-83.23"/>
<polygon fill="#63b8ff" stroke="#63b8ff" points="364.1,-84.72 365.92,-74.28 357.99,-81.31 364.1,-84.72"/>
</a>
</g>
</g>
<!-- Node33&#45;&gt;Node14 -->
<g id="edge71_Node000033_Node000014" class="edge">
<title>Node33&#45;&gt;Node14</title>
<g id="a_edge71_Node000033_Node000014"><a xlink:title=" ">
<path fill="none" stroke="#63b8ff" d="M789.92,-291.46C821.96,-283.32 868.75,-269.41 906.5,-250 932.36,-236.7 958.78,-215.89 975.39,-201.75"/>
<polygon fill="#63b8ff" stroke="#63b8ff" points="977.87,-204.24 983.13,-195.04 973.28,-198.95 977.87,-204.24"/>
</a>
</g>
</g>
<!-- Node33&#45;&gt;Node24 -->
<g id="edge72_Node000033_Node000024" class="edge">
<title>Node33&#45;&gt;Node24</title>
<g id="a_edge72_Node000033_Node000024"><a xlink:title=" ">
<path fill="none" stroke="#63b8ff" d="M764.45,-291.37C777.25,-282.12 797.8,-267.28 813.15,-256.19"/>
<polygon fill="#63b8ff" stroke="#63b8ff" points="815.44,-258.86 821.5,-250.17 811.34,-253.18 815.44,-258.86"/>
</a>
</g>
</g>
<!-- Node34&#45;&gt;Node6 -->
<g id="edge75_Node000034_Node000006" class="edge">
<title>Node34&#45;&gt;Node6</title>
<g id="a_edge75_Node000034_Node000006"><a xlink:title=" ">
<path fill="none" stroke="#63b8ff" d="M482.65,-233.24C447.7,-227.43 403.67,-216.28 369.5,-195 309.31,-157.51 290.15,-140.49 265.5,-74 262.56,-66.08 260.13,-61.52 265.5,-55 289.89,-25.39 403.94,-15.21 460.92,-11.94"/>
<polygon fill="#63b8ff" stroke="#63b8ff" points="461.39,-15.42 471.19,-11.39 461.02,-8.43 461.39,-15.42"/>
</a>
</g>
</g>
<!-- Node34&#45;&gt;Node7 -->
<g id="edge76_Node000034_Node000007" class="edge">
<title>Node34&#45;&gt;Node7</title>
<g id="a_edge76_Node000034_Node000007"><a xlink:title=" ">
<path fill="none" stroke="#63b8ff" d="M483.05,-230.97C454.58,-224.62 421.07,-213.68 395.5,-195 371.51,-177.47 366.35,-168.36 357.5,-140 351.64,-121.22 357.4,-98.96 363.21,-83.7"/>
<polygon fill="#63b8ff" stroke="#63b8ff" points="366.47,-84.96 367.09,-74.38 360.01,-82.26 366.47,-84.96"/>
</a>
</g>
</g>
<!-- Node34&#45;&gt;Node14 -->
<g id="edge77_Node000034_Node000014" class="edge">
<title>Node34&#45;&gt;Node14</title>
<g id="a_edge77_Node000034_Node000014"><a xlink:title=" ">
<path fill="none" stroke="#63b8ff" d="M600.46,-232.57C680.01,-223.22 822.03,-206.53 911.54,-196.01"/>
<polygon fill="#63b8ff" stroke="#63b8ff" points="912.12,-199.47 921.64,-194.83 911.3,-192.52 912.12,-199.47"/>
</a>
</g>
</g>
<!-- Node34&#45;&gt;Node15 -->
<g id="edge74_Node000034_Node000015" class="edge">
<title>Node34&#45;&gt;Node15</title>
<g id="a_edge74_Node000034_Node000015"><a xlink:title=" ">
<path fill="none" stroke="#63b8ff" d="M538.49,-230.83C531.24,-208.25 515.44,-146.85 543.5,-110 569.57,-75.75 620.6,-66.75 656.31,-64.92"/>
<polygon fill="#63b8ff" stroke="#63b8ff" points="656.52,-68.42 666.4,-64.57 656.28,-61.42 656.52,-68.42"/>
</a>
</g>
</g>
<!-- Node34&#45;&gt;Node31 -->
<g id="edge78_Node000034_Node000031" class="edge">
<title>Node34&#45;&gt;Node31</title>
<g id="a_edge78_Node000034_Node000031"><a xlink:title=" ">
<path fill="none" stroke="#63b8ff" d="M562.39,-230.98C583.58,-222.34 616.63,-208.87 640.8,-199.02"/>
<polygon fill="#63b8ff" stroke="#63b8ff" points="642.29,-202.19 650.23,-195.17 639.65,-195.7 642.29,-202.19"/>
</a>
</g>
</g>
</g>
</svg>
