<?xml version="1.0" encoding="UTF-8" standalone="no"?>
<!DOCTYPE svg PUBLIC "-//W3C//DTD SVG 1.1//EN"
 "http://www.w3.org/Graphics/SVG/1.1/DTD/svg11.dtd">
<!-- Generated by graphviz version 2.43.0 (0)
 -->
<!-- Title: src/client/process_request.hpp Pages: 1 -->
<svg width="1199pt" height="258pt"
 viewBox="0.00 0.00 1199.02 258.00" xmlns="http://www.w3.org/2000/svg" xmlns:xlink="http://www.w3.org/1999/xlink">
<g id="graph0" class="graph" transform="scale(1 1) rotate(0) translate(4 254)">
<title>src/client/process_request.hpp</title>
<!-- Node1 -->
<g id="Node000001" class="node">
<title>Node1</title>
<g id="a_Node000001"><a xlink:title=" ">
<polygon fill="#999999" stroke="#666666" points="509.52,-250 408.52,-250 408.52,-220 509.52,-220 509.52,-250"/>
<text text-anchor="start" x="416.52" y="-238" font-family="Helvetica,sans-Serif" font-size="10.00">src/client/process</text>
<text text-anchor="middle" x="459.02" y="-227" font-family="Helvetica,sans-Serif" font-size="10.00">_request.hpp</text>
</a>
</g>
</g>
<!-- Node2 -->
<g id="Node000002" class="node">
<title>Node2</title>
<g id="a_Node000002"><a xlink:title=" ">
<polygon fill="#e0e0e0" stroke="#999999" points="540.02,-74 482.02,-74 482.02,-55 540.02,-55 540.02,-74"/>
<text text-anchor="middle" x="511.02" y="-62" font-family="Helvetica,sans-Serif" font-size="10.00">memory</text>
</a>
</g>
</g>
<!-- Node1&#45;&gt;Node2 -->
<g id="edge1_Node000001_Node000002" class="edge">
<title>Node1&#45;&gt;Node2</title>
<g id="a_edge1_Node000001_Node000002"><a xlink:title=" ">
<path fill="none" stroke="#63b8ff" d="M454.49,-219.74C447.72,-195.72 437.52,-146.27 455.02,-110 461.24,-97.12 473.2,-86.82 484.48,-79.38"/>
<polygon fill="#63b8ff" stroke="#63b8ff" points="486.53,-82.23 493.26,-74.04 482.89,-76.25 486.53,-82.23"/>
</a>
</g>
</g>
<!-- Node3 -->
<g id="Node000003" class="node">
<title>Node3</title>
<g id="a_Node000003"><a xlink:title=" ">
<polygon fill="#e0e0e0" stroke="#999999" points="701.02,-19 657.02,-19 657.02,0 701.02,0 701.02,-19"/>
<text text-anchor="middle" x="679.02" y="-7" font-family="Helvetica,sans-Serif" font-size="10.00">string</text>
</a>
</g>
</g>
<!-- Node1&#45;&gt;Node3 -->
<g id="edge2_Node000001_Node000003" class="edge">
<title>Node1&#45;&gt;Node3</title>
<g id="a_edge2_Node000001_Node000003"><a xlink:title=" ">
<path fill="none" stroke="#63b8ff" d="M453.29,-219.9C440.57,-186.05 414.47,-99.66 459.02,-55 484.96,-29.01 591.91,-17.17 646.56,-12.73"/>
<polygon fill="#63b8ff" stroke="#63b8ff" points="647.05,-16.2 656.75,-11.94 646.51,-9.23 647.05,-16.2"/>
</a>
</g>
</g>
<!-- Node4 -->
<g id="Node000004" class="node">
<title>Node4</title>
<g id="a_Node000004"><a xlink:href="endpoint_8hpp.html" target="_top" xlink:title=" ">
<polygon fill="white" stroke="#666666" points="1191.02,-74 1063.02,-74 1063.02,-55 1191.02,-55 1191.02,-74"/>
<text text-anchor="middle" x="1127.02" y="-62" font-family="Helvetica,sans-Serif" font-size="10.00">../models/endpoint.hpp</text>
</a>
</g>
</g>
<!-- Node1&#45;&gt;Node4 -->
<g id="edge3_Node000001_Node000004" class="edge">
<title>Node1&#45;&gt;Node4</title>
<g id="a_edge3_Node000001_Node000004"><a xlink:title=" ">
<path fill="none" stroke="#63b8ff" d="M509.95,-229.29C636.59,-216.91 962.36,-180.8 1057.02,-129 1079.16,-116.89 1099.97,-96.41 1113.05,-81.99"/>
<polygon fill="#63b8ff" stroke="#63b8ff" points="1115.83,-84.12 1119.81,-74.3 1110.58,-79.5 1115.83,-84.12"/>
</a>
</g>
</g>
<!-- Node7 -->
<g id="Node000007" class="node">
<title>Node7</title>
<g id="a_Node000007"><a xlink:href="tcp__socket_8hpp.html" target="_top" xlink:title=" ">
<polygon fill="white" stroke="#666666" points="298.52,-129 157.52,-129 157.52,-110 298.52,-110 298.52,-129"/>
<text text-anchor="middle" x="228.02" y="-117" font-family="Helvetica,sans-Serif" font-size="10.00">../network/tcp_socket.hpp</text>
</a>
</g>
</g>
<!-- Node1&#45;&gt;Node7 -->
<g id="edge7_Node000001_Node000007" class="edge">
<title>Node1&#45;&gt;Node7</title>
<g id="a_edge7_Node000001_Node000007"><a xlink:title=" ">
<path fill="none" stroke="#63b8ff" d="M408.43,-220.91C379.57,-212.41 343.23,-199.95 313.02,-184 287.64,-170.6 261.66,-149.98 245.22,-135.9"/>
<polygon fill="#63b8ff" stroke="#63b8ff" points="247.38,-133.14 237.55,-129.21 242.78,-138.42 247.38,-133.14"/>
</a>
</g>
</g>
<!-- Node12 -->
<g id="Node000012" class="node">
<title>Node12</title>
<g id="a_Node000012"><a xlink:href="filesdb_8hpp.html" target="_top" xlink:title=" ">
<polygon fill="white" stroke="#666666" points="551.02,-184 481.02,-184 481.02,-165 551.02,-165 551.02,-184"/>
<text text-anchor="middle" x="516.02" y="-172" font-family="Helvetica,sans-Serif" font-size="10.00">filesdb.hpp</text>
</a>
</g>
</g>
<!-- Node1&#45;&gt;Node12 -->
<g id="edge14_Node000001_Node000012" class="edge">
<title>Node1&#45;&gt;Node12</title>
<g id="a_edge14_Node000001_Node000012"><a xlink:title=" ">
<path fill="none" stroke="#63b8ff" d="M472.82,-219.84C481.1,-211.35 491.65,-200.52 500.25,-191.69"/>
<polygon fill="#63b8ff" stroke="#63b8ff" points="503.01,-193.87 507.48,-184.27 498,-188.99 503.01,-193.87"/>
</a>
</g>
</g>
<!-- Node20 -->
<g id="Node000020" class="node">
<title>Node20</title>
<g id="a_Node000020"><a xlink:href="peerdb_8hpp.html" target="_top" xlink:title=" ">
<polygon fill="white" stroke="#666666" points="844.52,-184 773.52,-184 773.52,-165 844.52,-165 844.52,-184"/>
<text text-anchor="middle" x="809.02" y="-172" font-family="Helvetica,sans-Serif" font-size="10.00">peerdb.hpp</text>
</a>
</g>
</g>
<!-- Node1&#45;&gt;Node20 -->
<g id="edge30_Node000001_Node000020" class="edge">
<title>Node1&#45;&gt;Node20</title>
<g id="a_edge30_Node000001_Node000020"><a xlink:title=" ">
<path fill="none" stroke="#63b8ff" d="M509.54,-225.56C577.65,-214.17 697.9,-194.07 763.4,-183.13"/>
<polygon fill="#63b8ff" stroke="#63b8ff" points="764.14,-186.55 773.42,-181.45 762.98,-179.65 764.14,-186.55"/>
</a>
</g>
</g>
<!-- Node4&#45;&gt;Node3 -->
<g id="edge6_Node000004_Node000003" class="edge">
<title>Node4&#45;&gt;Node3</title>
<g id="a_edge6_Node000004_Node000003"><a xlink:title=" ">
<path fill="none" stroke="#63b8ff" d="M1062.84,-55.91C965.75,-44.42 785.1,-23.05 711.49,-14.34"/>
<polygon fill="#63b8ff" stroke="#63b8ff" points="711.78,-10.85 701.43,-13.15 710.95,-17.8 711.78,-10.85"/>
</a>
</g>
</g>
<!-- Node5 -->
<g id="Node000005" class="node">
<title>Node5</title>
<g id="a_Node000005"><a xlink:title=" ">
<polygon fill="#e0e0e0" stroke="#999999" points="1152.02,-19 1102.02,-19 1102.02,0 1152.02,0 1152.02,-19"/>
<text text-anchor="middle" x="1127.02" y="-7" font-family="Helvetica,sans-Serif" font-size="10.00">cstdint</text>
</a>
</g>
</g>
<!-- Node4&#45;&gt;Node5 -->
<g id="edge4_Node000004_Node000005" class="edge">
<title>Node4&#45;&gt;Node5</title>
<g id="a_edge4_Node000004_Node000005"><a xlink:title=" ">
<path fill="none" stroke="#63b8ff" d="M1127.02,-54.75C1127.02,-47.8 1127.02,-37.85 1127.02,-29.13"/>
<polygon fill="#63b8ff" stroke="#63b8ff" points="1130.52,-29.09 1127.02,-19.09 1123.52,-29.09 1130.52,-29.09"/>
</a>
</g>
</g>
<!-- Node6 -->
<g id="Node000006" class="node">
<title>Node6</title>
<g id="a_Node000006"><a xlink:title=" ">
<polygon fill="#e0e0e0" stroke="#999999" points="1071.52,-19 1006.52,-19 1006.52,0 1071.52,0 1071.52,-19"/>
<text text-anchor="middle" x="1039.02" y="-7" font-family="Helvetica,sans-Serif" font-size="10.00">stdexcept</text>
</a>
</g>
</g>
<!-- Node4&#45;&gt;Node6 -->
<g id="edge5_Node000004_Node000006" class="edge">
<title>Node4&#45;&gt;Node6</title>
<g id="a_edge5_Node000004_Node000006"><a xlink:title=" ">
<path fill="none" stroke="#63b8ff" d="M1112.89,-54.98C1099.24,-46.77 1078.34,-34.18 1062.25,-24.49"/>
<polygon fill="#63b8ff" stroke="#63b8ff" points="1063.79,-21.33 1053.42,-19.17 1060.18,-27.33 1063.79,-21.33"/>
</a>
</g>
</g>
<!-- Node7&#45;&gt;Node2 -->
<g id="edge8_Node000007_Node000002" class="edge">
<title>Node7&#45;&gt;Node2</title>
<g id="a_edge8_Node000007_Node000002"><a xlink:title=" ">
<path fill="none" stroke="#63b8ff" d="M273.49,-109.98C328.42,-99.7 419.91,-82.56 471.85,-72.84"/>
<polygon fill="#63b8ff" stroke="#63b8ff" points="472.51,-76.27 481.69,-70.99 471.22,-69.39 472.51,-76.27"/>
</a>
</g>
</g>
<!-- Node7&#45;&gt;Node3 -->
<g id="edge10_Node000007_Node000003" class="edge">
<title>Node7&#45;&gt;Node3</title>
<g id="a_edge10_Node000007_Node000003"><a xlink:title=" ">
<path fill="none" stroke="#63b8ff" d="M236.48,-109.71C250.76,-95.49 281.22,-67.75 313.02,-55 373.46,-30.77 568.96,-16.95 646.71,-12.29"/>
<polygon fill="#63b8ff" stroke="#63b8ff" points="647.09,-15.78 656.87,-11.7 646.68,-8.79 647.09,-15.78"/>
</a>
</g>
</g>
<!-- Node8 -->
<g id="Node000008" class="node">
<title>Node8</title>
<g id="a_Node000008"><a xlink:title=" ">
<polygon fill="#e0e0e0" stroke="#999999" points="91.02,-74 19.02,-74 19.02,-55 91.02,-55 91.02,-74"/>
<text text-anchor="middle" x="55.02" y="-62" font-family="Helvetica,sans-Serif" font-size="10.00">netinet/in.h</text>
</a>
</g>
</g>
<!-- Node7&#45;&gt;Node8 -->
<g id="edge9_Node000007_Node000008" class="edge">
<title>Node7&#45;&gt;Node8</title>
<g id="a_edge9_Node000007_Node000008"><a xlink:title=" ">
<path fill="none" stroke="#63b8ff" d="M200.23,-109.98C171.06,-101.05 125.02,-86.94 92.62,-77.02"/>
<polygon fill="#63b8ff" stroke="#63b8ff" points="93.62,-73.66 83.04,-74.08 91.57,-80.36 93.62,-73.66"/>
</a>
</g>
</g>
<!-- Node9 -->
<g id="Node000009" class="node">
<title>Node9</title>
<g id="a_Node000009"><a xlink:title=" ">
<polygon fill="#e0e0e0" stroke="#999999" points="186.52,-74 109.52,-74 109.52,-55 186.52,-55 186.52,-74"/>
<text text-anchor="middle" x="148.02" y="-62" font-family="Helvetica,sans-Serif" font-size="10.00">sys/socket.h</text>
</a>
</g>
</g>
<!-- Node7&#45;&gt;Node9 -->
<g id="edge11_Node000007_Node000009" class="edge">
<title>Node7&#45;&gt;Node9</title>
<g id="a_edge11_Node000007_Node000009"><a xlink:title=" ">
<path fill="none" stroke="#63b8ff" d="M215.17,-109.98C202.88,-101.84 184.12,-89.41 169.55,-79.76"/>
<polygon fill="#63b8ff" stroke="#63b8ff" points="171.38,-76.78 161.11,-74.17 167.52,-82.61 171.38,-76.78"/>
</a>
</g>
</g>
<!-- Node10 -->
<g id="Node000010" class="node">
<title>Node10</title>
<g id="a_Node000010"><a xlink:title=" ">
<polygon fill="#e0e0e0" stroke="#999999" points="261.02,-74 205.02,-74 205.02,-55 261.02,-55 261.02,-74"/>
<text text-anchor="middle" x="233.02" y="-62" font-family="Helvetica,sans-Serif" font-size="10.00">unistd.h</text>
</a>
</g>
</g>
<!-- Node7&#45;&gt;Node10 -->
<g id="edge12_Node000007_Node000010" class="edge">
<title>Node7&#45;&gt;Node10</title>
<g id="a_edge12_Node000007_Node000010"><a xlink:title=" ">
<path fill="none" stroke="#63b8ff" d="M228.85,-109.75C229.51,-102.8 230.44,-92.85 231.27,-84.13"/>
<polygon fill="#63b8ff" stroke="#63b8ff" points="234.76,-84.37 232.21,-74.09 227.79,-83.72 234.76,-84.37"/>
</a>
</g>
</g>
<!-- Node11 -->
<g id="Node000011" class="node">
<title>Node11</title>
<g id="a_Node000011"><a xlink:title=" ">
<polygon fill="#e0e0e0" stroke="#999999" points="325.52,-19 278.52,-19 278.52,0 325.52,0 325.52,-19"/>
<text text-anchor="middle" x="302.02" y="-7" font-family="Helvetica,sans-Serif" font-size="10.00">vector</text>
</a>
</g>
</g>
<!-- Node7&#45;&gt;Node11 -->
<g id="edge13_Node000007_Node000011" class="edge">
<title>Node7&#45;&gt;Node11</title>
<g id="a_edge13_Node000007_Node000011"><a xlink:title=" ">
<path fill="none" stroke="#63b8ff" d="M157.36,-119.06C78.12,-117.29 -33.9,-106.13 10.02,-55 43,-16.62 198.69,-10.97 268.28,-10.39"/>
<polygon fill="#63b8ff" stroke="#63b8ff" points="268.31,-13.89 278.29,-10.34 268.27,-6.89 268.31,-13.89"/>
</a>
</g>
</g>
<!-- Node12&#45;&gt;Node2 -->
<g id="edge15_Node000012_Node000002" class="edge">
<title>Node12&#45;&gt;Node2</title>
<g id="a_edge15_Node000012_Node000002"><a xlink:title=" ">
<path fill="none" stroke="#63b8ff" d="M498.56,-164.88C485.55,-157.38 468.75,-145.18 461.02,-129 452.07,-110.24 470.23,-91.92 487.12,-79.82"/>
<polygon fill="#63b8ff" stroke="#63b8ff" points="489.32,-82.56 495.68,-74.09 485.43,-76.74 489.32,-82.56"/>
</a>
</g>
</g>
<!-- Node12&#45;&gt;Node3 -->
<g id="edge17_Node000012_Node000003" class="edge">
<title>Node12&#45;&gt;Node3</title>
<g id="a_edge17_Node000012_Node000003"><a xlink:title=" ">
<path fill="none" stroke="#63b8ff" d="M495.83,-164.91C481.56,-157.64 463.52,-145.71 455.02,-129 443.79,-106.9 465.44,-61.84 473.02,-55 498.27,-32.24 595.37,-19.08 646.73,-13.57"/>
<polygon fill="#63b8ff" stroke="#63b8ff" points="647.37,-17.02 656.96,-12.51 646.65,-10.06 647.37,-17.02"/>
</a>
</g>
</g>
<!-- Node13 -->
<g id="Node000013" class="node">
<title>Node13</title>
<g id="a_Node000013"><a xlink:title=" ">
<polygon fill="#e0e0e0" stroke="#999999" points="629.02,-129 581.02,-129 581.02,-110 629.02,-110 629.02,-129"/>
<text text-anchor="middle" x="605.02" y="-117" font-family="Helvetica,sans-Serif" font-size="10.00">mutex</text>
</a>
</g>
</g>
<!-- Node12&#45;&gt;Node13 -->
<g id="edge16_Node000012_Node000013" class="edge">
<title>Node12&#45;&gt;Node13</title>
<g id="a_edge16_Node000012_Node000013"><a xlink:title=" ">
<path fill="none" stroke="#63b8ff" d="M530.32,-164.98C544.13,-156.77 565.26,-144.18 581.54,-134.49"/>
<polygon fill="#63b8ff" stroke="#63b8ff" points="583.66,-137.29 590.46,-129.17 580.08,-131.28 583.66,-137.29"/>
</a>
</g>
</g>
<!-- Node14 -->
<g id="Node000014" class="node">
<title>Node14</title>
<g id="a_Node000014"><a xlink:title=" ">
<polygon fill="#e0e0e0" stroke="#999999" points="562.52,-129 469.52,-129 469.52,-110 562.52,-110 562.52,-129"/>
<text text-anchor="middle" x="516.02" y="-117" font-family="Helvetica,sans-Serif" font-size="10.00">unordered_map</text>
</a>
</g>
</g>
<!-- Node12&#45;&gt;Node14 -->
<g id="edge18_Node000012_Node000014" class="edge">
<title>Node12&#45;&gt;Node14</title>
<g id="a_edge18_Node000012_Node000014"><a xlink:title=" ">
<path fill="none" stroke="#63b8ff" d="M516.02,-164.75C516.02,-157.8 516.02,-147.85 516.02,-139.13"/>
<polygon fill="#63b8ff" stroke="#63b8ff" points="519.52,-139.09 516.02,-129.09 512.52,-139.09 519.52,-139.09"/>
</a>
</g>
</g>
<!-- Node15 -->
<g id="Node000015" class="node">
<title>Node15</title>
<g id="a_Node000015"><a xlink:href="file__id_8hpp.html" target="_top" xlink:title=" ">
<polygon fill="white" stroke="#666666" points="842.52,-129 775.52,-129 775.52,-110 842.52,-110 842.52,-129"/>
<text text-anchor="middle" x="809.02" y="-117" font-family="Helvetica,sans-Serif" font-size="10.00">file_id.hpp</text>
</a>
</g>
</g>
<!-- Node12&#45;&gt;Node15 -->
<g id="edge19_Node000012_Node000015" class="edge">
<title>Node12&#45;&gt;Node15</title>
<g id="a_edge19_Node000012_Node000015"><a xlink:title=" ">
<path fill="none" stroke="#63b8ff" d="M551.25,-167.45C597.8,-159.4 682.59,-144.58 765.18,-129.13"/>
<polygon fill="#63b8ff" stroke="#63b8ff" points="766.05,-132.53 775.23,-127.24 764.76,-125.65 766.05,-132.53"/>
</a>
</g>
</g>
<!-- Node16 -->
<g id="Node000016" class="node">
<title>Node16</title>
<g id="a_Node000016"><a xlink:href="partfile_8hpp.html" target="_top" xlink:title=" ">
<polygon fill="white" stroke="#666666" points="757.02,-129 685.02,-129 685.02,-110 757.02,-110 757.02,-129"/>
<text text-anchor="middle" x="721.02" y="-117" font-family="Helvetica,sans-Serif" font-size="10.00">partfile.hpp</text>
</a>
</g>
</g>
<!-- Node12&#45;&gt;Node16 -->
<g id="edge21_Node000012_Node000016" class="edge">
<title>Node12&#45;&gt;Node16</title>
<g id="a_edge21_Node000012_Node000016"><a xlink:title=" ">
<path fill="none" stroke="#63b8ff" d="M548.96,-164.98C583.97,-155.93 639.49,-141.58 677.95,-131.64"/>
<polygon fill="#63b8ff" stroke="#63b8ff" points="679.02,-134.97 687.83,-129.08 677.27,-128.2 679.02,-134.97"/>
</a>
</g>
</g>
<!-- Node15&#45;&gt;Node3 -->
<g id="edge20_Node000015_Node000003" class="edge">
<title>Node15&#45;&gt;Node3</title>
<g id="a_edge20_Node000015_Node000003"><a xlink:title=" ">
<path fill="none" stroke="#63b8ff" d="M779.7,-109.93C750.8,-100.94 709.37,-86.42 698.02,-74 686.87,-61.79 682.25,-43.27 680.35,-29.37"/>
<polygon fill="#63b8ff" stroke="#63b8ff" points="683.79,-28.63 679.3,-19.03 676.82,-29.33 683.79,-28.63"/>
</a>
</g>
</g>
<!-- Node16&#45;&gt;Node2 -->
<g id="edge22_Node000016_Node000002" class="edge">
<title>Node16&#45;&gt;Node2</title>
<g id="a_edge22_Node000016_Node000002"><a xlink:title=" ">
<path fill="none" stroke="#63b8ff" d="M687.28,-109.98C649.85,-100.54 589.53,-85.31 550.08,-75.36"/>
<polygon fill="#63b8ff" stroke="#63b8ff" points="550.83,-71.94 540.28,-72.88 549.12,-78.72 550.83,-71.94"/>
</a>
</g>
</g>
<!-- Node16&#45;&gt;Node3 -->
<g id="edge23_Node000016_Node000003" class="edge">
<title>Node16&#45;&gt;Node3</title>
<g id="a_edge23_Node000016_Node000003"><a xlink:title=" ">
<path fill="none" stroke="#63b8ff" d="M703.26,-109.96C690.01,-102.51 672.9,-90.33 665.02,-74 657.99,-59.42 663.23,-41.24 669.2,-28.08"/>
<polygon fill="#63b8ff" stroke="#63b8ff" points="672.34,-29.63 673.72,-19.13 666.09,-26.48 672.34,-29.63"/>
</a>
</g>
</g>
<!-- Node17 -->
<g id="Node000017" class="node">
<title>Node17</title>
<g id="a_Node000017"><a xlink:title=" ">
<polygon fill="#e0e0e0" stroke="#999999" points="793.02,-74 707.02,-74 707.02,-55 793.02,-55 793.02,-74"/>
<text text-anchor="middle" x="750.02" y="-62" font-family="Helvetica,sans-Serif" font-size="10.00">unordered_set</text>
</a>
</g>
</g>
<!-- Node16&#45;&gt;Node17 -->
<g id="edge24_Node000016_Node000017" class="edge">
<title>Node16&#45;&gt;Node17</title>
<g id="a_edge24_Node000016_Node000017"><a xlink:title=" ">
<path fill="none" stroke="#63b8ff" d="M725.81,-109.75C729.78,-102.49 735.55,-91.95 740.46,-82.98"/>
<polygon fill="#63b8ff" stroke="#63b8ff" points="743.59,-84.54 745.32,-74.09 737.45,-81.18 743.59,-84.54"/>
</a>
</g>
</g>
<!-- Node18 -->
<g id="Node000018" class="node">
<title>Node18</title>
<g id="a_Node000018"><a xlink:href="fileinfo_8hpp.html" target="_top" xlink:title=" ">
<polygon fill="white" stroke="#666666" points="1006.52,-74 887.52,-74 887.52,-55 1006.52,-55 1006.52,-74"/>
<text text-anchor="middle" x="947.02" y="-62" font-family="Helvetica,sans-Serif" font-size="10.00">../models/fileinfo.hpp</text>
</a>
</g>
</g>
<!-- Node16&#45;&gt;Node18 -->
<g id="edge25_Node000016_Node000018" class="edge">
<title>Node16&#45;&gt;Node18</title>
<g id="a_edge25_Node000016_Node000018"><a xlink:title=" ">
<path fill="none" stroke="#63b8ff" d="M757.08,-110.04C796.08,-100.9 858.36,-86.29 900.89,-76.32"/>
<polygon fill="#63b8ff" stroke="#63b8ff" points="901.78,-79.71 910.72,-74.01 900.18,-72.89 901.78,-79.71"/>
</a>
</g>
</g>
<!-- Node18&#45;&gt;Node3 -->
<g id="edge28_Node000018_Node000003" class="edge">
<title>Node18&#45;&gt;Node3</title>
<g id="a_edge28_Node000018_Node000003"><a xlink:title=" ">
<path fill="none" stroke="#63b8ff" d="M903.97,-54.98C850.07,-44.33 759,-26.32 710.94,-16.81"/>
<polygon fill="#63b8ff" stroke="#63b8ff" points="711.57,-13.37 701.08,-14.86 710.21,-20.24 711.57,-13.37"/>
</a>
</g>
</g>
<!-- Node18&#45;&gt;Node6 -->
<g id="edge27_Node000018_Node000006" class="edge">
<title>Node18&#45;&gt;Node6</title>
<g id="a_edge27_Node000018_Node000006"><a xlink:title=" ">
<path fill="none" stroke="#63b8ff" d="M961.81,-54.98C976.21,-46.69 998.33,-33.94 1015.22,-24.22"/>
<polygon fill="#63b8ff" stroke="#63b8ff" points="1017.06,-27.19 1023.97,-19.17 1013.56,-21.13 1017.06,-27.19"/>
</a>
</g>
</g>
<!-- Node18&#45;&gt;Node11 -->
<g id="edge29_Node000018_Node000011" class="edge">
<title>Node18&#45;&gt;Node11</title>
<g id="a_edge29_Node000018_Node000011"><a xlink:title=" ">
<path fill="none" stroke="#63b8ff" d="M887.5,-58.61C755.12,-47.73 439.82,-21.82 335.9,-13.28"/>
<polygon fill="#63b8ff" stroke="#63b8ff" points="335.93,-9.77 325.67,-12.44 335.35,-16.75 335.93,-9.77"/>
</a>
</g>
</g>
<!-- Node19 -->
<g id="Node000019" class="node">
<title>Node19</title>
<g id="a_Node000019"><a xlink:title=" ">
<polygon fill="#e0e0e0" stroke="#999999" points="981.02,-19 925.02,-19 925.02,0 981.02,0 981.02,-19"/>
<text text-anchor="middle" x="953.02" y="-7" font-family="Helvetica,sans-Serif" font-size="10.00">sstream</text>
</a>
</g>
</g>
<!-- Node18&#45;&gt;Node19 -->
<g id="edge26_Node000018_Node000019" class="edge">
<title>Node18&#45;&gt;Node19</title>
<g id="a_edge26_Node000018_Node000019"><a xlink:title=" ">
<path fill="none" stroke="#63b8ff" d="M948.02,-54.75C948.8,-47.8 949.93,-37.85 950.91,-29.13"/>
<polygon fill="#63b8ff" stroke="#63b8ff" points="954.4,-29.42 952.05,-19.09 947.45,-28.63 954.4,-29.42"/>
</a>
</g>
</g>
<!-- Node20&#45;&gt;Node2 -->
<g id="edge31_Node000020_Node000002" class="edge">
<title>Node20&#45;&gt;Node2</title>
<g id="a_edge31_Node000020_Node000002"><a xlink:title=" ">
<path fill="none" stroke="#63b8ff" d="M779.53,-164.94C752.29,-156.72 710.88,-143.46 676.02,-129 658.58,-121.76 655.41,-117.36 638.02,-110 608.39,-97.46 573.89,-85.53 548.33,-77.19"/>
<polygon fill="#63b8ff" stroke="#63b8ff" points="549.25,-73.81 538.66,-74.06 547.1,-80.47 549.25,-73.81"/>
</a>
</g>
</g>
<!-- Node20&#45;&gt;Node3 -->
<g id="edge33_Node000020_Node000003" class="edge">
<title>Node20&#45;&gt;Node3</title>
<g id="a_edge33_Node000020_Node000003"><a xlink:title=" ">
<path fill="none" stroke="#63b8ff" d="M821.74,-164.98C837.25,-153.43 860.43,-131.73 852.02,-110 829.76,-52.41 754.65,-26.78 711.07,-16.52"/>
<polygon fill="#63b8ff" stroke="#63b8ff" points="711.76,-13.09 701.24,-14.35 710.24,-19.93 711.76,-13.09"/>
</a>
</g>
</g>
<!-- Node20&#45;&gt;Node4 -->
<g id="edge35_Node000020_Node000004" class="edge">
<title>Node20&#45;&gt;Node4</title>
<g id="a_edge35_Node000020_Node000004"><a xlink:title=" ">
<path fill="none" stroke="#63b8ff" d="M844.72,-170.14C888.68,-165.12 965,-153.5 1026.02,-129 1056.86,-116.62 1088.71,-94.82 1108.2,-80.27"/>
<polygon fill="#63b8ff" stroke="#63b8ff" points="1110.4,-82.99 1116.23,-74.15 1106.16,-77.42 1110.4,-82.99"/>
</a>
</g>
</g>
<!-- Node20&#45;&gt;Node13 -->
<g id="edge32_Node000020_Node000013" class="edge">
<title>Node20&#45;&gt;Node13</title>
<g id="a_edge32_Node000020_Node000013"><a xlink:title=" ">
<path fill="none" stroke="#63b8ff" d="M776.25,-164.98C738.67,-155.22 677.36,-139.29 639.21,-129.38"/>
<polygon fill="#63b8ff" stroke="#63b8ff" points="639.66,-125.88 629.1,-126.75 637.89,-132.66 639.66,-125.88"/>
</a>
</g>
</g>
<!-- Node20&#45;&gt;Node14 -->
<g id="edge34_Node000020_Node000014" class="edge">
<title>Node20&#45;&gt;Node14</title>
<g id="a_edge34_Node000020_Node000014"><a xlink:title=" ">
<path fill="none" stroke="#63b8ff" d="M773.39,-167.05C723.44,-158.02 632.06,-141.49 572.71,-130.75"/>
<polygon fill="#63b8ff" stroke="#63b8ff" points="573.21,-127.29 562.75,-128.95 571.97,-134.18 573.21,-127.29"/>
</a>
</g>
</g>
<!-- Node20&#45;&gt;Node15 -->
<g id="edge44_Node000020_Node000015" class="edge">
<title>Node20&#45;&gt;Node15</title>
<g id="a_edge44_Node000020_Node000015"><a xlink:title=" ">
<path fill="none" stroke="#63b8ff" d="M809.02,-164.75C809.02,-157.8 809.02,-147.85 809.02,-139.13"/>
<polygon fill="#63b8ff" stroke="#63b8ff" points="812.52,-139.09 809.02,-129.09 805.52,-139.09 812.52,-139.09"/>
</a>
</g>
</g>
<!-- Node20&#45;&gt;Node18 -->
<g id="edge43_Node000020_Node000018" class="edge">
<title>Node20&#45;&gt;Node18</title>
<g id="a_edge43_Node000020_Node000018"><a xlink:title=" ">
<path fill="none" stroke="#63b8ff" d="M844.6,-170.85C896.66,-166.15 989.66,-154.36 1010.02,-129 1024.98,-110.37 999.22,-91.21 976.27,-78.87"/>
<polygon fill="#63b8ff" stroke="#63b8ff" points="977.56,-75.6 967.06,-74.18 974.39,-81.84 977.56,-75.6"/>
</a>
</g>
</g>
<!-- Node21 -->
<g id="Node000021" class="node">
<title>Node21</title>
<g id="a_Node000021"><a xlink:href="file_8hpp.html" target="_top" xlink:title=" ">
<polygon fill="white" stroke="#666666" points="1000.52,-129 899.52,-129 899.52,-110 1000.52,-110 1000.52,-129"/>
<text text-anchor="middle" x="950.02" y="-117" font-family="Helvetica,sans-Serif" font-size="10.00">../models/file.hpp</text>
</a>
</g>
</g>
<!-- Node20&#45;&gt;Node21 -->
<g id="edge36_Node000020_Node000021" class="edge">
<title>Node20&#45;&gt;Node21</title>
<g id="a_edge36_Node000020_Node000021"><a xlink:title=" ">
<path fill="none" stroke="#63b8ff" d="M831.68,-164.98C854.87,-156.27 891.15,-142.63 917.42,-132.75"/>
<polygon fill="#63b8ff" stroke="#63b8ff" points="918.83,-135.97 926.96,-129.17 916.37,-129.41 918.83,-135.97"/>
</a>
</g>
</g>
<!-- Node21&#45;&gt;Node2 -->
<g id="edge37_Node000021_Node000002" class="edge">
<title>Node21&#45;&gt;Node2</title>
<g id="a_edge37_Node000021_Node000002"><a xlink:title=" ">
<path fill="none" stroke="#63b8ff" d="M899.24,-112.37C810.68,-101.68 629.85,-79.85 550.19,-70.23"/>
<polygon fill="#63b8ff" stroke="#63b8ff" points="550.44,-66.73 540.09,-69.01 549.6,-73.68 550.44,-66.73"/>
</a>
</g>
</g>
<!-- Node21&#45;&gt;Node3 -->
<g id="edge38_Node000021_Node000003" class="edge">
<title>Node21&#45;&gt;Node3</title>
<g id="a_edge38_Node000021_Node000003"><a xlink:title=" ">
<path fill="none" stroke="#63b8ff" d="M936.72,-109.84C915.79,-96.52 873.61,-70.91 835.02,-55 793.62,-37.92 743.46,-24.89 711.4,-17.47"/>
<polygon fill="#63b8ff" stroke="#63b8ff" points="711.78,-13.97 701.26,-15.17 710.24,-20.79 711.78,-13.97"/>
</a>
</g>
</g>
<!-- Node21&#45;&gt;Node4 -->
<g id="edge41_Node000021_Node000004" class="edge">
<title>Node21&#45;&gt;Node4</title>
<g id="a_edge41_Node000021_Node000004"><a xlink:title=" ">
<path fill="none" stroke="#63b8ff" d="M978.46,-109.98C1008.31,-101.05 1055.41,-86.94 1088.56,-77.02"/>
<polygon fill="#63b8ff" stroke="#63b8ff" points="1089.79,-80.3 1098.36,-74.08 1087.78,-73.6 1089.79,-80.3"/>
</a>
</g>
</g>
<!-- Node21&#45;&gt;Node17 -->
<g id="edge40_Node000021_Node000017" class="edge">
<title>Node21&#45;&gt;Node17</title>
<g id="a_edge40_Node000021_Node000017"><a xlink:title=" ">
<path fill="none" stroke="#63b8ff" d="M917.89,-109.98C883.88,-100.97 830.03,-86.7 792.52,-76.76"/>
<polygon fill="#63b8ff" stroke="#63b8ff" points="792.97,-73.26 782.41,-74.08 791.18,-80.03 792.97,-73.26"/>
</a>
</g>
</g>
<!-- Node21&#45;&gt;Node18 -->
<g id="edge42_Node000021_Node000018" class="edge">
<title>Node21&#45;&gt;Node18</title>
<g id="a_edge42_Node000021_Node000018"><a xlink:title=" ">
<path fill="none" stroke="#63b8ff" d="M949.53,-109.75C949.14,-102.8 948.57,-92.85 948.08,-84.13"/>
<polygon fill="#63b8ff" stroke="#63b8ff" points="951.57,-83.88 947.51,-74.09 944.58,-84.27 951.57,-83.88"/>
</a>
</g>
</g>
<!-- Node21&#45;&gt;Node19 -->
<g id="edge39_Node000021_Node000019" class="edge">
<title>Node21&#45;&gt;Node19</title>
<g id="a_edge39_Node000021_Node000019"><a xlink:title=" ">
<path fill="none" stroke="#63b8ff" d="M972.8,-109.89C988.05,-102.79 1006.94,-91.08 1016.02,-74 1026.89,-53.58 1003.78,-35.42 982.55,-23.81"/>
<polygon fill="#63b8ff" stroke="#63b8ff" points="983.87,-20.55 973.37,-19.1 980.67,-26.78 983.87,-20.55"/>
</a>
</g>
</g>
</g>
</svg>
