<?xml version="1.0" encoding="UTF-8" standalone="no"?>
<!DOCTYPE svg PUBLIC "-//W3C//DTD SVG 1.1//EN"
 "http://www.w3.org/Graphics/SVG/1.1/DTD/svg11.dtd">
<!-- Generated by graphviz version 2.43.0 (0)
 -->
<!-- Title: src/client/process_request.hpp Pages: 1 -->
<svg width="845pt" height="258pt"
 viewBox="0.00 0.00 844.74 258.00" xmlns="http://www.w3.org/2000/svg" xmlns:xlink="http://www.w3.org/1999/xlink">
<g id="graph0" class="graph" transform="scale(1 1) rotate(0) translate(4 254)">
<title>src/client/process_request.hpp</title>
<!-- Node1 -->
<g id="Node000001" class="node">
<title>Node1</title>
<g id="a_Node000001"><a xlink:title=" ">
<polygon fill="#999999" stroke="#666666" points="379.24,-250 278.24,-250 278.24,-220 379.24,-220 379.24,-250"/>
<text text-anchor="start" x="286.24" y="-238" font-family="Helvetica,sans-Serif" font-size="10.00">src/client/process</text>
<text text-anchor="middle" x="328.74" y="-227" font-family="Helvetica,sans-Serif" font-size="10.00">_request.hpp</text>
</a>
</g>
</g>
<!-- Node2 -->
<g id="Node000002" class="node">
<title>Node2</title>
<g id="a_Node000002"><a xlink:title=" ">
<polygon fill="#e0e0e0" stroke="#999999" points="382.74,-74 324.74,-74 324.74,-55 382.74,-55 382.74,-74"/>
<text text-anchor="middle" x="353.74" y="-62" font-family="Helvetica,sans-Serif" font-size="10.00">memory</text>
</a>
</g>
</g>
<!-- Node1&#45;&gt;Node2 -->
<g id="edge1_Node000001_Node000002" class="edge">
<title>Node1&#45;&gt;Node2</title>
<g id="a_edge1_Node000001_Node000002"><a xlink:title=" ">
<path fill="none" stroke="#63b8ff" d="M330.83,-219.92C335.32,-189.65 345.9,-118.35 350.95,-84.27"/>
<polygon fill="#63b8ff" stroke="#63b8ff" points="354.43,-84.66 352.44,-74.25 347.51,-83.63 354.43,-84.66"/>
</a>
</g>
</g>
<!-- Node3 -->
<g id="Node000003" class="node">
<title>Node3</title>
<g id="a_Node000003"><a xlink:title=" ">
<polygon fill="#e0e0e0" stroke="#999999" points="451.74,-19 407.74,-19 407.74,0 451.74,0 451.74,-19"/>
<text text-anchor="middle" x="429.74" y="-7" font-family="Helvetica,sans-Serif" font-size="10.00">string</text>
</a>
</g>
</g>
<!-- Node1&#45;&gt;Node3 -->
<g id="edge2_Node000001_Node000003" class="edge">
<title>Node1&#45;&gt;Node3</title>
<g id="a_edge2_Node000001_Node000003"><a xlink:title=" ">
<path fill="none" stroke="#63b8ff" d="M277.85,-225.21C169.96,-204.53 -65.29,-147.48 17.74,-55 42.99,-26.87 304.49,-14.93 397.29,-11.56"/>
<polygon fill="#63b8ff" stroke="#63b8ff" points="397.63,-15.05 407.5,-11.2 397.38,-8.06 397.63,-15.05"/>
</a>
</g>
</g>
<!-- Node4 -->
<g id="Node000004" class="node">
<title>Node4</title>
<g id="a_Node000004"><a xlink:href="endpoint_8hpp.html" target="_top" xlink:title=" ">
<polygon fill="white" stroke="#666666" points="836.74,-74 708.74,-74 708.74,-55 836.74,-55 836.74,-74"/>
<text text-anchor="middle" x="772.74" y="-62" font-family="Helvetica,sans-Serif" font-size="10.00">../models/endpoint.hpp</text>
</a>
</g>
</g>
<!-- Node1&#45;&gt;Node4 -->
<g id="edge3_Node000001_Node000004" class="edge">
<title>Node1&#45;&gt;Node4</title>
<g id="a_edge3_Node000001_Node000004"><a xlink:title=" ">
<path fill="none" stroke="#63b8ff" d="M379.53,-228.39C481.62,-216.06 706.44,-183.32 758.74,-129 770.11,-117.19 773.08,-98.35 773.53,-84.26"/>
<polygon fill="#63b8ff" stroke="#63b8ff" points="777.03,-84.17 773.46,-74.19 770.03,-84.22 777.03,-84.17"/>
</a>
</g>
</g>
<!-- Node7 -->
<g id="Node000007" class="node">
<title>Node7</title>
<g id="a_Node000007"><a xlink:href="tcp__socket_8hpp.html" target="_top" xlink:title=" ">
<polygon fill="white" stroke="#666666" points="300.24,-129 159.24,-129 159.24,-110 300.24,-110 300.24,-129"/>
<text text-anchor="middle" x="229.74" y="-117" font-family="Helvetica,sans-Serif" font-size="10.00">../network/tcp_socket.hpp</text>
</a>
</g>
</g>
<!-- Node1&#45;&gt;Node7 -->
<g id="edge7_Node000001_Node000007" class="edge">
<title>Node1&#45;&gt;Node7</title>
<g id="a_edge7_Node000001_Node000007"><a xlink:title=" ">
<path fill="none" stroke="#63b8ff" d="M316.2,-219.63C297.75,-198.47 263.37,-159.05 243.98,-136.83"/>
<polygon fill="#63b8ff" stroke="#63b8ff" points="246.56,-134.46 237.35,-129.23 241.29,-139.07 246.56,-134.46"/>
</a>
</g>
</g>
<!-- Node12 -->
<g id="Node000012" class="node">
<title>Node12</title>
<g id="a_Node000012"><a xlink:href="peerdb_8hpp.html" target="_top" xlink:title=" ">
<polygon fill="white" stroke="#666666" points="538.24,-184 467.24,-184 467.24,-165 538.24,-165 538.24,-184"/>
<text text-anchor="middle" x="502.74" y="-172" font-family="Helvetica,sans-Serif" font-size="10.00">peerdb.hpp</text>
</a>
</g>
</g>
<!-- Node1&#45;&gt;Node12 -->
<g id="edge14_Node000001_Node000012" class="edge">
<title>Node1&#45;&gt;Node12</title>
<g id="a_edge14_Node000001_Node000012"><a xlink:title=" ">
<path fill="none" stroke="#63b8ff" d="M370.42,-219.99C400.05,-210.02 439.43,-196.78 467.5,-187.35"/>
<polygon fill="#63b8ff" stroke="#63b8ff" points="468.93,-190.56 477.3,-184.05 466.7,-183.92 468.93,-190.56"/>
</a>
</g>
</g>
<!-- Node4&#45;&gt;Node3 -->
<g id="edge6_Node000004_Node000003" class="edge">
<title>Node4&#45;&gt;Node3</title>
<g id="a_edge6_Node000004_Node000003"><a xlink:title=" ">
<path fill="none" stroke="#63b8ff" d="M717.63,-54.98C645.25,-43.8 520.5,-24.52 461.91,-15.47"/>
<polygon fill="#63b8ff" stroke="#63b8ff" points="462.18,-11.97 451.76,-13.9 461.11,-18.89 462.18,-11.97"/>
</a>
</g>
</g>
<!-- Node5 -->
<g id="Node000005" class="node">
<title>Node5</title>
<g id="a_Node000005"><a xlink:title=" ">
<polygon fill="#e0e0e0" stroke="#999999" points="797.74,-19 747.74,-19 747.74,0 797.74,0 797.74,-19"/>
<text text-anchor="middle" x="772.74" y="-7" font-family="Helvetica,sans-Serif" font-size="10.00">cstdint</text>
</a>
</g>
</g>
<!-- Node4&#45;&gt;Node5 -->
<g id="edge4_Node000004_Node000005" class="edge">
<title>Node4&#45;&gt;Node5</title>
<g id="a_edge4_Node000004_Node000005"><a xlink:title=" ">
<path fill="none" stroke="#63b8ff" d="M772.74,-54.75C772.74,-47.8 772.74,-37.85 772.74,-29.13"/>
<polygon fill="#63b8ff" stroke="#63b8ff" points="776.24,-29.09 772.74,-19.09 769.24,-29.09 776.24,-29.09"/>
</a>
</g>
</g>
<!-- Node6 -->
<g id="Node000006" class="node">
<title>Node6</title>
<g id="a_Node000006"><a xlink:title=" ">
<polygon fill="#e0e0e0" stroke="#999999" points="729.24,-19 664.24,-19 664.24,0 729.24,0 729.24,-19"/>
<text text-anchor="middle" x="696.74" y="-7" font-family="Helvetica,sans-Serif" font-size="10.00">stdexcept</text>
</a>
</g>
</g>
<!-- Node4&#45;&gt;Node6 -->
<g id="edge5_Node000004_Node000006" class="edge">
<title>Node4&#45;&gt;Node6</title>
<g id="a_edge5_Node000004_Node000006"><a xlink:title=" ">
<path fill="none" stroke="#63b8ff" d="M760.53,-54.98C748.96,-46.92 731.36,-34.65 717.58,-25.03"/>
<polygon fill="#63b8ff" stroke="#63b8ff" points="719.38,-22.02 709.17,-19.17 715.37,-27.76 719.38,-22.02"/>
</a>
</g>
</g>
<!-- Node7&#45;&gt;Node2 -->
<g id="edge8_Node000007_Node000002" class="edge">
<title>Node7&#45;&gt;Node2</title>
<g id="a_edge8_Node000007_Node000002"><a xlink:title=" ">
<path fill="none" stroke="#63b8ff" d="M249.66,-109.98C269.79,-101.38 301.12,-87.99 324.15,-78.15"/>
<polygon fill="#63b8ff" stroke="#63b8ff" points="325.63,-81.32 333.45,-74.17 322.88,-74.88 325.63,-81.32"/>
</a>
</g>
</g>
<!-- Node7&#45;&gt;Node3 -->
<g id="edge10_Node000007_Node000003" class="edge">
<title>Node7&#45;&gt;Node3</title>
<g id="a_edge10_Node000007_Node000003"><a xlink:title=" ">
<path fill="none" stroke="#63b8ff" d="M239.47,-109.96C254.83,-96.8 286,-71.4 315.74,-55 342.15,-40.43 374.34,-28.33 397.76,-20.45"/>
<polygon fill="#63b8ff" stroke="#63b8ff" points="399.14,-23.68 407.54,-17.23 396.95,-17.03 399.14,-23.68"/>
</a>
</g>
</g>
<!-- Node8 -->
<g id="Node000008" class="node">
<title>Node8</title>
<g id="a_Node000008"><a xlink:title=" ">
<polygon fill="#e0e0e0" stroke="#999999" points="98.74,-74 26.74,-74 26.74,-55 98.74,-55 98.74,-74"/>
<text text-anchor="middle" x="62.74" y="-62" font-family="Helvetica,sans-Serif" font-size="10.00">netinet/in.h</text>
</a>
</g>
</g>
<!-- Node7&#45;&gt;Node8 -->
<g id="edge9_Node000007_Node000008" class="edge">
<title>Node7&#45;&gt;Node8</title>
<g id="a_edge9_Node000007_Node000008"><a xlink:title=" ">
<path fill="none" stroke="#63b8ff" d="M202.91,-109.98C174.87,-101.09 130.69,-87.07 99.44,-77.15"/>
<polygon fill="#63b8ff" stroke="#63b8ff" points="100.37,-73.77 89.78,-74.08 98.25,-80.44 100.37,-73.77"/>
</a>
</g>
</g>
<!-- Node9 -->
<g id="Node000009" class="node">
<title>Node9</title>
<g id="a_Node000009"><a xlink:title=" ">
<polygon fill="#e0e0e0" stroke="#999999" points="194.24,-74 117.24,-74 117.24,-55 194.24,-55 194.24,-74"/>
<text text-anchor="middle" x="155.74" y="-62" font-family="Helvetica,sans-Serif" font-size="10.00">sys/socket.h</text>
</a>
</g>
</g>
<!-- Node7&#45;&gt;Node9 -->
<g id="edge11_Node000007_Node000009" class="edge">
<title>Node7&#45;&gt;Node9</title>
<g id="a_edge11_Node000007_Node000009"><a xlink:title=" ">
<path fill="none" stroke="#63b8ff" d="M217.85,-109.98C206.59,-101.92 189.45,-89.65 176.03,-80.03"/>
<polygon fill="#63b8ff" stroke="#63b8ff" points="178.01,-77.15 167.84,-74.17 173.94,-82.84 178.01,-77.15"/>
</a>
</g>
</g>
<!-- Node10 -->
<g id="Node000010" class="node">
<title>Node10</title>
<g id="a_Node000010"><a xlink:title=" ">
<polygon fill="#e0e0e0" stroke="#999999" points="268.74,-74 212.74,-74 212.74,-55 268.74,-55 268.74,-74"/>
<text text-anchor="middle" x="240.74" y="-62" font-family="Helvetica,sans-Serif" font-size="10.00">unistd.h</text>
</a>
</g>
</g>
<!-- Node7&#45;&gt;Node10 -->
<g id="edge12_Node000007_Node000010" class="edge">
<title>Node7&#45;&gt;Node10</title>
<g id="a_edge12_Node000007_Node000010"><a xlink:title=" ">
<path fill="none" stroke="#63b8ff" d="M231.55,-109.75C233,-102.8 235.06,-92.85 236.87,-84.13"/>
<polygon fill="#63b8ff" stroke="#63b8ff" points="240.35,-84.59 238.96,-74.09 233.5,-83.17 240.35,-84.59"/>
</a>
</g>
</g>
<!-- Node11 -->
<g id="Node000011" class="node">
<title>Node11</title>
<g id="a_Node000011"><a xlink:title=" ">
<polygon fill="#e0e0e0" stroke="#999999" points="215.24,-19 168.24,-19 168.24,0 215.24,0 215.24,-19"/>
<text text-anchor="middle" x="191.74" y="-7" font-family="Helvetica,sans-Serif" font-size="10.00">vector</text>
</a>
</g>
</g>
<!-- Node7&#45;&gt;Node11 -->
<g id="edge13_Node000007_Node000011" class="edge">
<title>Node7&#45;&gt;Node11</title>
<g id="a_edge13_Node000007_Node000011"><a xlink:title=" ">
<path fill="none" stroke="#63b8ff" d="M159.12,-113.11C104.55,-107.3 35.43,-95.79 17.74,-74 -21.27,-25.96 96.7,-14.26 157.68,-11.41"/>
<polygon fill="#63b8ff" stroke="#63b8ff" points="158.15,-14.9 168,-10.99 157.86,-7.9 158.15,-14.9"/>
</a>
</g>
</g>
<!-- Node12&#45;&gt;Node2 -->
<g id="edge15_Node000012_Node000002" class="edge">
<title>Node12&#45;&gt;Node2</title>
<g id="a_edge15_Node000012_Node000002"><a xlink:title=" ">
<path fill="none" stroke="#63b8ff" d="M467.24,-165.86C443.46,-159.3 412.62,-147.84 390.74,-129 376.56,-116.8 366.48,-97.74 360.46,-83.69"/>
<polygon fill="#63b8ff" stroke="#63b8ff" points="363.6,-82.1 356.65,-74.11 357.1,-84.69 363.6,-82.1"/>
</a>
</g>
</g>
<!-- Node12&#45;&gt;Node3 -->
<g id="edge17_Node000012_Node000003" class="edge">
<title>Node12&#45;&gt;Node3</title>
<g id="a_edge17_Node000012_Node000003"><a xlink:title=" ">
<path fill="none" stroke="#63b8ff" d="M472.47,-164.92C454.9,-158.21 434.22,-146.94 423.74,-129 405.45,-97.71 415.14,-53.45 422.98,-28.83"/>
<polygon fill="#63b8ff" stroke="#63b8ff" points="426.32,-29.89 426.25,-19.3 419.7,-27.62 426.32,-29.89"/>
</a>
</g>
</g>
<!-- Node12&#45;&gt;Node4 -->
<g id="edge19_Node000012_Node000004" class="edge">
<title>Node12&#45;&gt;Node4</title>
<g id="a_edge19_Node000012_Node000004"><a xlink:title=" ">
<path fill="none" stroke="#63b8ff" d="M538.64,-170.36C596.11,-164.74 705.47,-151.39 736.74,-129 752.16,-117.96 761.85,-98.12 767.25,-83.55"/>
<polygon fill="#63b8ff" stroke="#63b8ff" points="770.56,-84.66 770.43,-74.07 763.93,-82.43 770.56,-84.66"/>
</a>
</g>
</g>
<!-- Node13 -->
<g id="Node000013" class="node">
<title>Node13</title>
<g id="a_Node000013"><a xlink:title=" ">
<polygon fill="#e0e0e0" stroke="#999999" points="480.74,-129 432.74,-129 432.74,-110 480.74,-110 480.74,-129"/>
<text text-anchor="middle" x="456.74" y="-117" font-family="Helvetica,sans-Serif" font-size="10.00">mutex</text>
</a>
</g>
</g>
<!-- Node12&#45;&gt;Node13 -->
<g id="edge16_Node000012_Node000013" class="edge">
<title>Node12&#45;&gt;Node13</title>
<g id="a_edge16_Node000012_Node000013"><a xlink:title=" ">
<path fill="none" stroke="#63b8ff" d="M495.14,-164.75C488.58,-157.18 478.91,-146.05 470.92,-136.84"/>
<polygon fill="#63b8ff" stroke="#63b8ff" points="473.39,-134.35 464.19,-129.09 468.1,-138.94 473.39,-134.35"/>
</a>
</g>
</g>
<!-- Node14 -->
<g id="Node000014" class="node">
<title>Node14</title>
<g id="a_Node000014"><a xlink:title=" ">
<polygon fill="#e0e0e0" stroke="#999999" points="711.24,-129 618.24,-129 618.24,-110 711.24,-110 711.24,-129"/>
<text text-anchor="middle" x="664.74" y="-117" font-family="Helvetica,sans-Serif" font-size="10.00">unordered_map</text>
</a>
</g>
</g>
<!-- Node12&#45;&gt;Node14 -->
<g id="edge18_Node000012_Node000014" class="edge">
<title>Node12&#45;&gt;Node14</title>
<g id="a_edge18_Node000012_Node000014"><a xlink:title=" ">
<path fill="none" stroke="#63b8ff" d="M528.77,-164.98C555.85,-156.13 598.45,-142.19 628.74,-132.28"/>
<polygon fill="#63b8ff" stroke="#63b8ff" points="630.09,-135.52 638.51,-129.08 627.91,-128.87 630.09,-135.52"/>
</a>
</g>
</g>
<!-- Node15 -->
<g id="Node000015" class="node">
<title>Node15</title>
<g id="a_Node000015"><a xlink:href="file_8hpp.html" target="_top" xlink:title=" ">
<polygon fill="white" stroke="#666666" points="600.24,-129 499.24,-129 499.24,-110 600.24,-110 600.24,-129"/>
<text text-anchor="middle" x="549.74" y="-117" font-family="Helvetica,sans-Serif" font-size="10.00">../models/file.hpp</text>
</a>
</g>
</g>
<!-- Node12&#45;&gt;Node15 -->
<g id="edge20_Node000012_Node000015" class="edge">
<title>Node12&#45;&gt;Node15</title>
<g id="a_edge20_Node000012_Node000015"><a xlink:title=" ">
<path fill="none" stroke="#63b8ff" d="M510.5,-164.75C517.21,-157.18 527.08,-146.05 535.24,-136.84"/>
<polygon fill="#63b8ff" stroke="#63b8ff" points="538.11,-138.89 542.12,-129.09 532.87,-134.25 538.11,-138.89"/>
</a>
</g>
</g>
<!-- Node18 -->
<g id="Node000018" class="node">
<title>Node18</title>
<g id="a_Node000018"><a xlink:href="fileinfo_8hpp.html" target="_top" xlink:title=" ">
<polygon fill="white" stroke="#666666" points="652.24,-74 581.24,-74 581.24,-55 652.24,-55 652.24,-74"/>
<text text-anchor="middle" x="616.74" y="-62" font-family="Helvetica,sans-Serif" font-size="10.00">fileinfo.hpp</text>
</a>
</g>
</g>
<!-- Node12&#45;&gt;Node18 -->
<g id="edge31_Node000012_Node000018" class="edge">
<title>Node12&#45;&gt;Node18</title>
<g id="a_edge31_Node000012_Node000018"><a xlink:title=" ">
<path fill="none" stroke="#63b8ff" d="M538.53,-171.52C594.36,-167.59 698.14,-156.68 720.74,-129 741.5,-103.58 698.9,-85.65 662.12,-75.47"/>
<polygon fill="#63b8ff" stroke="#63b8ff" points="663,-72.08 652.44,-72.92 661.22,-78.85 663,-72.08"/>
</a>
</g>
</g>
<!-- Node15&#45;&gt;Node2 -->
<g id="edge21_Node000015_Node000002" class="edge">
<title>Node15&#45;&gt;Node2</title>
<g id="a_edge21_Node000015_Node000002"><a xlink:title=" ">
<path fill="none" stroke="#63b8ff" d="M518.25,-109.98C484.12,-100.76 429.63,-86.02 392.8,-76.06"/>
<polygon fill="#63b8ff" stroke="#63b8ff" points="393.48,-72.62 382.91,-73.39 391.65,-79.38 393.48,-72.62"/>
</a>
</g>
</g>
<!-- Node15&#45;&gt;Node3 -->
<g id="edge22_Node000015_Node000003" class="edge">
<title>Node15&#45;&gt;Node3</title>
<g id="a_edge22_Node000015_Node000003"><a xlink:title=" ">
<path fill="none" stroke="#63b8ff" d="M526.78,-109.98C509.08,-102.54 484.81,-90.37 467.74,-74 454.29,-61.1 443.88,-42.44 437.39,-28.68"/>
<polygon fill="#63b8ff" stroke="#63b8ff" points="440.47,-27 433.2,-19.29 434.08,-29.85 440.47,-27"/>
</a>
</g>
</g>
<!-- Node15&#45;&gt;Node4 -->
<g id="edge25_Node000015_Node000004" class="edge">
<title>Node15&#45;&gt;Node4</title>
<g id="a_edge25_Node000015_Node000004"><a xlink:title=" ">
<path fill="none" stroke="#63b8ff" d="M585.57,-109.98C623.9,-100.87 684.82,-86.4 726.68,-76.45"/>
<polygon fill="#63b8ff" stroke="#63b8ff" points="727.71,-79.8 736.63,-74.08 726.09,-72.99 727.71,-79.8"/>
</a>
</g>
</g>
<!-- Node16 -->
<g id="Node000016" class="node">
<title>Node16</title>
<g id="a_Node000016"><a xlink:title=" ">
<polygon fill="#e0e0e0" stroke="#999999" points="644.74,-19 588.74,-19 588.74,0 644.74,0 644.74,-19"/>
<text text-anchor="middle" x="616.74" y="-7" font-family="Helvetica,sans-Serif" font-size="10.00">sstream</text>
</a>
</g>
</g>
<!-- Node15&#45;&gt;Node16 -->
<g id="edge23_Node000015_Node000016" class="edge">
<title>Node15&#45;&gt;Node16</title>
<g id="a_edge23_Node000015_Node000016"><a xlink:title=" ">
<path fill="none" stroke="#63b8ff" d="M600.49,-111.38C623.2,-105.39 647.93,-94.34 661.74,-74 673.24,-57.05 655.35,-37.91 638.83,-25.12"/>
<polygon fill="#63b8ff" stroke="#63b8ff" points="640.63,-22.1 630.49,-19.05 636.52,-27.76 640.63,-22.1"/>
</a>
</g>
</g>
<!-- Node17 -->
<g id="Node000017" class="node">
<title>Node17</title>
<g id="a_Node000017"><a xlink:title=" ">
<polygon fill="#e0e0e0" stroke="#999999" points="562.74,-74 476.74,-74 476.74,-55 562.74,-55 562.74,-74"/>
<text text-anchor="middle" x="519.74" y="-62" font-family="Helvetica,sans-Serif" font-size="10.00">unordered_set</text>
</a>
</g>
</g>
<!-- Node15&#45;&gt;Node17 -->
<g id="edge24_Node000015_Node000017" class="edge">
<title>Node15&#45;&gt;Node17</title>
<g id="a_edge24_Node000015_Node000017"><a xlink:title=" ">
<path fill="none" stroke="#63b8ff" d="M544.78,-109.75C540.68,-102.49 534.71,-91.95 529.63,-82.98"/>
<polygon fill="#63b8ff" stroke="#63b8ff" points="532.57,-81.07 524.6,-74.09 526.48,-84.52 532.57,-81.07"/>
</a>
</g>
</g>
<!-- Node15&#45;&gt;Node18 -->
<g id="edge26_Node000015_Node000018" class="edge">
<title>Node15&#45;&gt;Node18</title>
<g id="a_edge26_Node000015_Node000018"><a xlink:title=" ">
<path fill="none" stroke="#63b8ff" d="M560.5,-109.98C570.5,-102.07 585.62,-90.11 597.67,-80.58"/>
<polygon fill="#63b8ff" stroke="#63b8ff" points="600.11,-83.12 605.78,-74.17 595.76,-77.63 600.11,-83.12"/>
</a>
</g>
</g>
<!-- Node18&#45;&gt;Node3 -->
<g id="edge29_Node000018_Node000003" class="edge">
<title>Node18&#45;&gt;Node3</title>
<g id="a_edge29_Node000018_Node000003"><a xlink:title=" ">
<path fill="none" stroke="#63b8ff" d="M586.69,-54.98C552.4,-45.26 496.53,-29.43 461.52,-19.51"/>
<polygon fill="#63b8ff" stroke="#63b8ff" points="462.38,-16.11 451.8,-16.75 460.47,-22.85 462.38,-16.11"/>
</a>
</g>
</g>
<!-- Node18&#45;&gt;Node6 -->
<g id="edge28_Node000018_Node000006" class="edge">
<title>Node18&#45;&gt;Node6</title>
<g id="a_edge28_Node000018_Node000006"><a xlink:title=" ">
<path fill="none" stroke="#63b8ff" d="M629.59,-54.98C641.88,-46.84 660.64,-34.41 675.22,-24.76"/>
<polygon fill="#63b8ff" stroke="#63b8ff" points="677.25,-27.61 683.65,-19.17 673.38,-21.78 677.25,-27.61"/>
</a>
</g>
</g>
<!-- Node18&#45;&gt;Node11 -->
<g id="edge30_Node000018_Node000011" class="edge">
<title>Node18&#45;&gt;Node11</title>
<g id="a_edge30_Node000018_Node000011"><a xlink:title=" ">
<path fill="none" stroke="#63b8ff" d="M580.92,-56.5C577.82,-55.96 574.72,-55.46 571.74,-55 444.54,-35.56 292.26,-20.06 225.69,-13.67"/>
<polygon fill="#63b8ff" stroke="#63b8ff" points="225.67,-10.15 215.38,-12.69 225.01,-17.12 225.67,-10.15"/>
</a>
</g>
</g>
<!-- Node18&#45;&gt;Node16 -->
<g id="edge27_Node000018_Node000016" class="edge">
<title>Node18&#45;&gt;Node16</title>
<g id="a_edge27_Node000018_Node000016"><a xlink:title=" ">
<path fill="none" stroke="#63b8ff" d="M616.74,-54.75C616.74,-47.8 616.74,-37.85 616.74,-29.13"/>
<polygon fill="#63b8ff" stroke="#63b8ff" points="620.24,-29.09 616.74,-19.09 613.24,-29.09 620.24,-29.09"/>
</a>
</g>
</g>
</g>
</svg>
