<?xml version="1.0" encoding="UTF-8" standalone="no"?>
<!DOCTYPE svg PUBLIC "-//W3C//DTD SVG 1.1//EN"
 "http://www.w3.org/Graphics/SVG/1.1/DTD/svg11.dtd">
<!-- Generated by graphviz version 2.43.0 (0)
 -->
<!-- Title: src/client/client.cpp Pages: 1 -->
<svg width="1747pt" height="368pt"
 viewBox="0.00 0.00 1746.87 368.00" xmlns="http://www.w3.org/2000/svg" xmlns:xlink="http://www.w3.org/1999/xlink">
<g id="graph0" class="graph" transform="scale(1 1) rotate(0) translate(4 364)">
<title>src/client/client.cpp</title>
<!-- Node1 -->
<g id="Node000001" class="node">
<title>Node1</title>
<g id="a_Node000001"><a xlink:title="The entrypoint to the client.">
<polygon fill="#999999" stroke="#666666" points="712.5,-360 601.5,-360 601.5,-341 712.5,-341 712.5,-360"/>
<text text-anchor="middle" x="657" y="-348" font-family="Helvetica,sans-Serif" font-size="10.00">src/client/client.cpp</text>
</a>
</g>
</g>
<!-- Node2 -->
<g id="Node000002" class="node">
<title>Node2</title>
<g id="a_Node000002"><a xlink:title=" ">
<polygon fill="#e0e0e0" stroke="#999999" points="50,-239 0,-239 0,-220 50,-220 50,-239"/>
<text text-anchor="middle" x="25" y="-227" font-family="Helvetica,sans-Serif" font-size="10.00">cstring</text>
</a>
</g>
</g>
<!-- Node1&#45;&gt;Node2 -->
<g id="edge1_Node000001_Node000002" class="edge">
<title>Node1&#45;&gt;Node2</title>
<g id="a_edge1_Node000001_Node000002"><a xlink:title=" ">
<path fill="none" stroke="#63b8ff" d="M601.3,-349.13C481.26,-347.67 202.01,-340.43 115,-305 84,-292.38 55.58,-265.08 39.28,-247.26"/>
<polygon fill="#63b8ff" stroke="#63b8ff" points="41.55,-244.55 32.3,-239.39 36.31,-249.19 41.55,-244.55"/>
</a>
</g>
</g>
<!-- Node3 -->
<g id="Node000003" class="node">
<title>Node3</title>
<g id="a_Node000003"><a xlink:title=" ">
<polygon fill="#e0e0e0" stroke="#999999" points="128,-239 68,-239 68,-220 128,-220 128,-239"/>
<text text-anchor="middle" x="98" y="-227" font-family="Helvetica,sans-Serif" font-size="10.00">iostream</text>
</a>
</g>
</g>
<!-- Node1&#45;&gt;Node3 -->
<g id="edge2_Node000001_Node000003" class="edge">
<title>Node1&#45;&gt;Node3</title>
<g id="a_edge2_Node000001_Node000003"><a xlink:title=" ">
<path fill="none" stroke="#63b8ff" d="M601.34,-347.37C477.15,-342.23 185.3,-327.86 147,-305 125.86,-292.39 112.08,-266.7 104.67,-249.05"/>
<polygon fill="#63b8ff" stroke="#63b8ff" points="107.76,-247.34 100.87,-239.28 101.23,-249.87 107.76,-247.34"/>
</a>
</g>
</g>
<!-- Node4 -->
<g id="Node000004" class="node">
<title>Node4</title>
<g id="a_Node000004"><a xlink:href="load__tracker__info_8cpp.html" target="_top" xlink:title=" ">
<polygon fill="white" stroke="#666666" points="287.5,-305 156.5,-305 156.5,-275 287.5,-275 287.5,-305"/>
<text text-anchor="start" x="164.5" y="-293" font-family="Helvetica,sans-Serif" font-size="10.00">../common/load_tracker</text>
<text text-anchor="middle" x="222" y="-282" font-family="Helvetica,sans-Serif" font-size="10.00">_info.cpp</text>
</a>
</g>
</g>
<!-- Node1&#45;&gt;Node4 -->
<g id="edge3_Node000001_Node000004" class="edge">
<title>Node1&#45;&gt;Node4</title>
<g id="a_edge3_Node000001_Node000004"><a xlink:title=" ">
<path fill="none" stroke="#63b8ff" d="M601.48,-342.09C535.55,-333.28 422.25,-318.13 325,-305 316.13,-303.8 306.84,-302.55 297.62,-301.29"/>
<polygon fill="#63b8ff" stroke="#63b8ff" points="298.04,-297.82 287.66,-299.94 297.1,-304.76 298.04,-297.82"/>
</a>
</g>
</g>
<!-- Node5 -->
<g id="Node000005" class="node">
<title>Node5</title>
<g id="a_Node000005"><a xlink:href="endpoint_8hpp.html" target="_top" xlink:title=" ">
<polygon fill="white" stroke="#666666" points="976,-74 848,-74 848,-55 976,-55 976,-74"/>
<text text-anchor="middle" x="912" y="-62" font-family="Helvetica,sans-Serif" font-size="10.00">../models/endpoint.hpp</text>
</a>
</g>
</g>
<!-- Node1&#45;&gt;Node5 -->
<g id="edge13_Node000001_Node000005" class="edge">
<title>Node1&#45;&gt;Node5</title>
<g id="a_edge13_Node000001_Node000005"><a xlink:title=" ">
<path fill="none" stroke="#63b8ff" d="M710.32,-340.99C801,-325.29 978.95,-288.79 1015,-239 1026.52,-223.1 1012.33,-187.84 1000,-165 981.7,-131.12 949.83,-99.1 929.88,-80.93"/>
<polygon fill="#63b8ff" stroke="#63b8ff" points="932.17,-78.29 922.38,-74.24 927.51,-83.51 932.17,-78.29"/>
</a>
</g>
</g>
<!-- Node12 -->
<g id="Node000012" class="node">
<title>Node12</title>
<g id="a_Node000012"><a xlink:href="network__errors_8hpp.html" target="_top" xlink:title=" ">
<polygon fill="white" stroke="#666666" points="442,-305 334,-305 334,-275 442,-275 442,-305"/>
<text text-anchor="start" x="342" y="-293" font-family="Helvetica,sans-Serif" font-size="10.00">../network/network</text>
<text text-anchor="middle" x="388" y="-282" font-family="Helvetica,sans-Serif" font-size="10.00">_errors.hpp</text>
</a>
</g>
</g>
<!-- Node1&#45;&gt;Node12 -->
<g id="edge14_Node000001_Node000012" class="edge">
<title>Node1&#45;&gt;Node12</title>
<g id="a_edge14_Node000001_Node000012"><a xlink:title=" ">
<path fill="none" stroke="#63b8ff" d="M617.89,-340.99C574.44,-331.55 503.65,-316.15 452.09,-304.94"/>
<polygon fill="#63b8ff" stroke="#63b8ff" points="452.56,-301.46 442.04,-302.75 451.07,-308.3 452.56,-301.46"/>
</a>
</g>
</g>
<!-- Node13 -->
<g id="Node000013" class="node">
<title>Node13</title>
<g id="a_Node000013"><a xlink:href="tcp__socket_8hpp.html" target="_top" xlink:title=" ">
<polygon fill="white" stroke="#666666" points="631.5,-184 490.5,-184 490.5,-165 631.5,-165 631.5,-184"/>
<text text-anchor="middle" x="561" y="-172" font-family="Helvetica,sans-Serif" font-size="10.00">../network/tcp_socket.hpp</text>
</a>
</g>
</g>
<!-- Node1&#45;&gt;Node13 -->
<g id="edge16_Node000001_Node000013" class="edge">
<title>Node1&#45;&gt;Node13</title>
<g id="a_edge16_Node000001_Node000013"><a xlink:title=" ">
<path fill="none" stroke="#63b8ff" d="M652.11,-340.63C637.02,-313.29 591.01,-229.9 570.75,-193.18"/>
<polygon fill="#63b8ff" stroke="#63b8ff" points="573.66,-191.21 565.77,-184.14 567.54,-194.59 573.66,-191.21"/>
</a>
</g>
</g>
<!-- Node17 -->
<g id="Node000017" class="node">
<title>Node17</title>
<g id="a_Node000017"><a xlink:href="tcp__server_8hpp.html" target="_top" xlink:title=" ">
<polygon fill="white" stroke="#666666" points="776,-239 636,-239 636,-220 776,-220 776,-239"/>
<text text-anchor="middle" x="706" y="-227" font-family="Helvetica,sans-Serif" font-size="10.00">../network/tcp_server.hpp</text>
</a>
</g>
</g>
<!-- Node1&#45;&gt;Node17 -->
<g id="edge23_Node000001_Node000017" class="edge">
<title>Node1&#45;&gt;Node17</title>
<g id="a_edge23_Node000001_Node000017"><a xlink:title=" ">
<path fill="none" stroke="#63b8ff" d="M660.52,-340.94C668.43,-321.74 687.73,-274.86 698.48,-248.77"/>
<polygon fill="#63b8ff" stroke="#63b8ff" points="701.8,-249.88 702.38,-239.3 695.33,-247.22 701.8,-249.88"/>
</a>
</g>
</g>
<!-- Node23 -->
<g id="Node000023" class="node">
<title>Node23</title>
<g id="a_Node000023"><a xlink:href="downloadmanager_8hpp.html" target="_top" xlink:title=" ">
<polygon fill="white" stroke="#666666" points="1006,-239 878,-239 878,-220 1006,-220 1006,-239"/>
<text text-anchor="middle" x="942" y="-227" font-family="Helvetica,sans-Serif" font-size="10.00">downloadmanager.hpp</text>
</a>
</g>
</g>
<!-- Node1&#45;&gt;Node23 -->
<g id="edge30_Node000001_Node000023" class="edge">
<title>Node1&#45;&gt;Node23</title>
<g id="a_edge30_Node000001_Node000023"><a xlink:title=" ">
<path fill="none" stroke="#63b8ff" d="M677.5,-340.94C727.08,-320.24 853.72,-267.36 911.92,-243.06"/>
<polygon fill="#63b8ff" stroke="#63b8ff" points="913.43,-246.22 921.31,-239.14 910.73,-239.76 913.43,-246.22"/>
</a>
</g>
</g>
<!-- Node29 -->
<g id="Node000029" class="node">
<title>Node29</title>
<g id="a_Node000029"><a xlink:href="filesdb_8hpp.html" target="_top" xlink:title=" ">
<polygon fill="white" stroke="#666666" points="1507,-184 1437,-184 1437,-165 1507,-165 1507,-184"/>
<text text-anchor="middle" x="1472" y="-172" font-family="Helvetica,sans-Serif" font-size="10.00">filesdb.hpp</text>
</a>
</g>
</g>
<!-- Node1&#45;&gt;Node29 -->
<g id="edge72_Node000001_Node000029" class="edge">
<title>Node1&#45;&gt;Node29</title>
<g id="a_edge72_Node000001_Node000029"><a xlink:title=" ">
<path fill="none" stroke="#63b8ff" d="M712.7,-348.12C842.01,-344.48 1159.36,-332.92 1262,-305 1326.06,-287.58 1340.35,-275.21 1396,-239 1418.13,-224.6 1441.06,-204.63 1455.86,-190.95"/>
<polygon fill="#63b8ff" stroke="#63b8ff" points="1458.29,-193.47 1463.2,-184.07 1453.51,-188.36 1458.29,-193.47"/>
</a>
</g>
</g>
<!-- Node33 -->
<g id="Node000033" class="node">
<title>Node33</title>
<g id="a_Node000033"><a xlink:href="peerdb_8hpp.html" target="_top" xlink:title=" ">
<polygon fill="white" stroke="#666666" points="1363.5,-184 1292.5,-184 1292.5,-165 1363.5,-165 1363.5,-184"/>
<text text-anchor="middle" x="1328" y="-172" font-family="Helvetica,sans-Serif" font-size="10.00">peerdb.hpp</text>
</a>
</g>
</g>
<!-- Node1&#45;&gt;Node33 -->
<g id="edge73_Node000001_Node000033" class="edge">
<title>Node1&#45;&gt;Node33</title>
<g id="a_edge73_Node000001_Node000033"><a xlink:title=" ">
<path fill="none" stroke="#63b8ff" d="M712.81,-348.3C824.15,-345.27 1069.89,-335.28 1148,-305 1206.27,-282.42 1208.94,-256.02 1260,-220 1274.99,-209.43 1292.29,-198.12 1305.69,-189.55"/>
<polygon fill="#63b8ff" stroke="#63b8ff" points="1307.71,-192.41 1314.27,-184.09 1303.95,-186.5 1307.71,-192.41"/>
</a>
</g>
</g>
<!-- Node34 -->
<g id="Node000034" class="node">
<title>Node34</title>
<g id="a_Node000034"><a xlink:href="process__input_8hpp.html" target="_top" xlink:title=" ">
<polygon fill="white" stroke="#666666" points="579.5,-299.5 474.5,-299.5 474.5,-280.5 579.5,-280.5 579.5,-299.5"/>
<text text-anchor="middle" x="527" y="-287.5" font-family="Helvetica,sans-Serif" font-size="10.00">process_input.hpp</text>
</a>
</g>
</g>
<!-- Node1&#45;&gt;Node34 -->
<g id="edge74_Node000001_Node000034" class="edge">
<title>Node1&#45;&gt;Node34</title>
<g id="a_edge74_Node000001_Node000034"><a xlink:title=" ">
<path fill="none" stroke="#63b8ff" d="M638.1,-340.99C616.34,-331.2 580.38,-315.02 555.29,-303.73"/>
<polygon fill="#63b8ff" stroke="#63b8ff" points="556.48,-300.43 545.93,-299.52 553.61,-306.81 556.48,-300.43"/>
</a>
</g>
</g>
<!-- Node35 -->
<g id="Node000035" class="node">
<title>Node35</title>
<g id="a_Node000035"><a xlink:href="client_2process__request_8hpp.html" target="_top" xlink:title=" ">
<polygon fill="white" stroke="#666666" points="1386.5,-239 1269.5,-239 1269.5,-220 1386.5,-220 1386.5,-239"/>
<text text-anchor="middle" x="1328" y="-227" font-family="Helvetica,sans-Serif" font-size="10.00">process_request.hpp</text>
</a>
</g>
</g>
<!-- Node1&#45;&gt;Node35 -->
<g id="edge79_Node000001_Node000035" class="edge">
<title>Node1&#45;&gt;Node35</title>
<g id="a_edge79_Node000001_Node000035"><a xlink:title=" ">
<path fill="none" stroke="#63b8ff" d="M712.88,-348.79C836.3,-346.63 1128.52,-338.08 1221,-305 1256.99,-292.13 1292.06,-263.82 1311.76,-246.04"/>
<polygon fill="#63b8ff" stroke="#63b8ff" points="1314.26,-248.5 1319.22,-239.14 1309.5,-243.36 1314.26,-248.5"/>
</a>
</g>
</g>
<!-- Node4&#45;&gt;Node2 -->
<g id="edge8_Node000004_Node000002" class="edge">
<title>Node4&#45;&gt;Node2</title>
<g id="a_edge8_Node000004_Node000002"><a xlink:title=" ">
<path fill="none" stroke="#63b8ff" d="M174.81,-274.99C139.48,-264.5 91.92,-250.37 59.95,-240.88"/>
<polygon fill="#63b8ff" stroke="#63b8ff" points="60.74,-237.46 50.16,-237.97 58.75,-244.17 60.74,-237.46"/>
</a>
</g>
</g>
<!-- Node4&#45;&gt;Node3 -->
<g id="edge10_Node000004_Node000003" class="edge">
<title>Node4&#45;&gt;Node3</title>
<g id="a_edge10_Node000004_Node000003"><a xlink:title=" ">
<path fill="none" stroke="#63b8ff" d="M192.3,-274.99C171.98,-265.4 145.24,-252.79 125.42,-243.44"/>
<polygon fill="#63b8ff" stroke="#63b8ff" points="126.85,-240.24 116.31,-239.14 123.86,-246.57 126.85,-240.24"/>
</a>
</g>
</g>
<!-- Node4&#45;&gt;Node5 -->
<g id="edge4_Node000004_Node000005" class="edge">
<title>Node4&#45;&gt;Node5</title>
<g id="a_edge4_Node000004_Node000005"><a xlink:title=" ">
<path fill="none" stroke="#63b8ff" d="M227.57,-274.84C242.26,-239.66 285.74,-148.36 355,-110 396.22,-87.18 695.62,-73.37 837.63,-68.03"/>
<polygon fill="#63b8ff" stroke="#63b8ff" points="838.13,-71.52 847.99,-67.65 837.87,-64.52 838.13,-71.52"/>
</a>
</g>
</g>
<!-- Node9 -->
<g id="Node000009" class="node">
<title>Node9</title>
<g id="a_Node000009"><a xlink:title=" ">
<polygon fill="#e0e0e0" stroke="#999999" points="193.5,-239 146.5,-239 146.5,-220 193.5,-220 193.5,-239"/>
<text text-anchor="middle" x="170" y="-227" font-family="Helvetica,sans-Serif" font-size="10.00">fcntl.h</text>
</a>
</g>
</g>
<!-- Node4&#45;&gt;Node9 -->
<g id="edge9_Node000004_Node000009" class="edge">
<title>Node4&#45;&gt;Node9</title>
<g id="a_edge9_Node000004_Node000009"><a xlink:title=" ">
<path fill="none" stroke="#63b8ff" d="M209.41,-274.84C201.94,-266.43 192.44,-255.74 184.63,-246.96"/>
<polygon fill="#63b8ff" stroke="#63b8ff" points="187.05,-244.41 177.79,-239.27 181.82,-249.07 187.05,-244.41"/>
</a>
</g>
</g>
<!-- Node10 -->
<g id="Node000010" class="node">
<title>Node10</title>
<g id="a_Node000010"><a xlink:title=" ">
<polygon fill="#e0e0e0" stroke="#999999" points="420,-129 364,-129 364,-110 420,-110 420,-129"/>
<text text-anchor="middle" x="392" y="-117" font-family="Helvetica,sans-Serif" font-size="10.00">unistd.h</text>
</a>
</g>
</g>
<!-- Node4&#45;&gt;Node10 -->
<g id="edge11_Node000004_Node000010" class="edge">
<title>Node4&#45;&gt;Node10</title>
<g id="a_edge11_Node000004_Node000010"><a xlink:title=" ">
<path fill="none" stroke="#63b8ff" d="M237.1,-274.64C247.52,-264.7 261.67,-251.11 274,-239 311.05,-202.59 353.94,-159.2 376.42,-136.36"/>
<polygon fill="#63b8ff" stroke="#63b8ff" points="378.96,-138.77 383.48,-129.19 373.97,-133.86 378.96,-138.77"/>
</a>
</g>
</g>
<!-- Node11 -->
<g id="Node000011" class="node">
<title>Node11</title>
<g id="a_Node000011"><a xlink:title=" ">
<polygon fill="#e0e0e0" stroke="#999999" points="471.5,-19 424.5,-19 424.5,0 471.5,0 471.5,-19"/>
<text text-anchor="middle" x="448" y="-7" font-family="Helvetica,sans-Serif" font-size="10.00">vector</text>
</a>
</g>
</g>
<!-- Node4&#45;&gt;Node11 -->
<g id="edge12_Node000004_Node000011" class="edge">
<title>Node4&#45;&gt;Node11</title>
<g id="a_edge12_Node000004_Node000011"><a xlink:title=" ">
<path fill="none" stroke="#63b8ff" d="M222,-274.67C222,-253.14 222,-211.17 222,-175.5 222,-175.5 222,-175.5 222,-118.5 222,-88.33 223.18,-74.74 246,-55 270.85,-33.51 363.38,-20 414.14,-14.05"/>
<polygon fill="#63b8ff" stroke="#63b8ff" points="414.76,-17.5 424.3,-12.89 413.97,-10.55 414.76,-17.5"/>
</a>
</g>
</g>
<!-- Node6 -->
<g id="Node000006" class="node">
<title>Node6</title>
<g id="a_Node000006"><a xlink:title=" ">
<polygon fill="#e0e0e0" stroke="#999999" points="899,-19 849,-19 849,0 899,0 899,-19"/>
<text text-anchor="middle" x="874" y="-7" font-family="Helvetica,sans-Serif" font-size="10.00">cstdint</text>
</a>
</g>
</g>
<!-- Node5&#45;&gt;Node6 -->
<g id="edge5_Node000005_Node000006" class="edge">
<title>Node5&#45;&gt;Node6</title>
<g id="a_edge5_Node000005_Node000006"><a xlink:title=" ">
<path fill="none" stroke="#63b8ff" d="M905.73,-54.75C900.41,-47.34 892.64,-36.5 886.12,-27.41"/>
<polygon fill="#63b8ff" stroke="#63b8ff" points="888.83,-25.18 880.16,-19.09 883.14,-29.26 888.83,-25.18"/>
</a>
</g>
</g>
<!-- Node7 -->
<g id="Node000007" class="node">
<title>Node7</title>
<g id="a_Node000007"><a xlink:title=" ">
<polygon fill="#e0e0e0" stroke="#999999" points="982.5,-19 917.5,-19 917.5,0 982.5,0 982.5,-19"/>
<text text-anchor="middle" x="950" y="-7" font-family="Helvetica,sans-Serif" font-size="10.00">stdexcept</text>
</a>
</g>
</g>
<!-- Node5&#45;&gt;Node7 -->
<g id="edge6_Node000005_Node000007" class="edge">
<title>Node5&#45;&gt;Node7</title>
<g id="a_edge6_Node000005_Node000007"><a xlink:title=" ">
<path fill="none" stroke="#63b8ff" d="M918.27,-54.75C923.59,-47.34 931.36,-36.5 937.88,-27.41"/>
<polygon fill="#63b8ff" stroke="#63b8ff" points="940.86,-29.26 943.84,-19.09 935.17,-25.18 940.86,-29.26"/>
</a>
</g>
</g>
<!-- Node8 -->
<g id="Node000008" class="node">
<title>Node8</title>
<g id="a_Node000008"><a xlink:title=" ">
<polygon fill="#e0e0e0" stroke="#999999" points="1197,-19 1153,-19 1153,0 1197,0 1197,-19"/>
<text text-anchor="middle" x="1175" y="-7" font-family="Helvetica,sans-Serif" font-size="10.00">string</text>
</a>
</g>
</g>
<!-- Node5&#45;&gt;Node8 -->
<g id="edge7_Node000005_Node000008" class="edge">
<title>Node5&#45;&gt;Node8</title>
<g id="a_edge7_Node000005_Node000008"><a xlink:title=" ">
<path fill="none" stroke="#63b8ff" d="M954.26,-54.98C1006.77,-44.4 1095.23,-26.58 1142.66,-17.02"/>
<polygon fill="#63b8ff" stroke="#63b8ff" points="1143.57,-20.4 1152.68,-15 1142.19,-13.54 1143.57,-20.4"/>
</a>
</g>
</g>
<!-- Node12&#45;&gt;Node7 -->
<g id="edge15_Node000012_Node000007" class="edge">
<title>Node12&#45;&gt;Node7</title>
<g id="a_edge15_Node000012_Node000007"><a xlink:title=" ">
<path fill="none" stroke="#63b8ff" d="M374.46,-274.85C345.69,-243.01 284.07,-164.31 322,-110 362.66,-51.79 402.66,-70.28 472,-55 658.73,-13.85 713.68,-45.25 907.13,-18.93"/>
<polygon fill="#63b8ff" stroke="#63b8ff" points="907.63,-22.4 917.05,-17.55 906.66,-15.46 907.63,-22.4"/>
</a>
</g>
</g>
<!-- Node13&#45;&gt;Node8 -->
<g id="edge19_Node000013_Node000008" class="edge">
<title>Node13&#45;&gt;Node8</title>
<g id="a_edge19_Node000013_Node000008"><a xlink:title=" ">
<path fill="none" stroke="#63b8ff" d="M591.02,-164.98C618.5,-156.84 660.08,-143.67 695,-129 761.34,-101.13 770.25,-76.23 839,-55 962.25,-16.94 999.45,-38.25 1127,-19 1131.97,-18.25 1137.21,-17.39 1142.34,-16.51"/>
<polygon fill="#63b8ff" stroke="#63b8ff" points="1143.33,-19.89 1152.57,-14.72 1142.12,-13 1143.33,-19.89"/>
</a>
</g>
</g>
<!-- Node13&#45;&gt;Node10 -->
<g id="edge21_Node000013_Node000010" class="edge">
<title>Node13&#45;&gt;Node10</title>
<g id="a_edge21_Node000013_Node000010"><a xlink:title=" ">
<path fill="none" stroke="#63b8ff" d="M533.85,-164.98C505.47,-156.09 460.77,-142.07 429.14,-132.15"/>
<polygon fill="#63b8ff" stroke="#63b8ff" points="429.95,-128.73 419.37,-129.08 427.86,-135.41 429.95,-128.73"/>
</a>
</g>
</g>
<!-- Node13&#45;&gt;Node11 -->
<g id="edge22_Node000013_Node000011" class="edge">
<title>Node13&#45;&gt;Node11</title>
<g id="a_edge22_Node000013_Node000011"><a xlink:title=" ">
<path fill="none" stroke="#63b8ff" d="M548.22,-164.77C536.86,-156.54 520.35,-143.35 509,-129 483.74,-97.07 464.39,-53.05 454.75,-28.64"/>
<polygon fill="#63b8ff" stroke="#63b8ff" points="457.98,-27.28 451.13,-19.2 451.44,-29.79 457.98,-27.28"/>
</a>
</g>
</g>
<!-- Node14 -->
<g id="Node000014" class="node">
<title>Node14</title>
<g id="a_Node000014"><a xlink:title=" ">
<polygon fill="#e0e0e0" stroke="#999999" points="1403,-74 1345,-74 1345,-55 1403,-55 1403,-74"/>
<text text-anchor="middle" x="1374" y="-62" font-family="Helvetica,sans-Serif" font-size="10.00">memory</text>
</a>
</g>
</g>
<!-- Node13&#45;&gt;Node14 -->
<g id="edge17_Node000013_Node000014" class="edge">
<title>Node13&#45;&gt;Node14</title>
<g id="a_edge17_Node000013_Node000014"><a xlink:title=" ">
<path fill="none" stroke="#63b8ff" d="M631.64,-167.75C644.4,-166.78 657.59,-165.82 670,-165 742.73,-160.17 1260.49,-162.93 1325,-129 1343.62,-119.2 1357.34,-98.84 1365.44,-83.81"/>
<polygon fill="#63b8ff" stroke="#63b8ff" points="1368.79,-84.95 1370.15,-74.44 1362.53,-81.8 1368.79,-84.95"/>
</a>
</g>
</g>
<!-- Node15 -->
<g id="Node000015" class="node">
<title>Node15</title>
<g id="a_Node000015"><a xlink:title=" ">
<polygon fill="#e0e0e0" stroke="#999999" points="686,-129 614,-129 614,-110 686,-110 686,-129"/>
<text text-anchor="middle" x="650" y="-117" font-family="Helvetica,sans-Serif" font-size="10.00">netinet/in.h</text>
</a>
</g>
</g>
<!-- Node13&#45;&gt;Node15 -->
<g id="edge18_Node000013_Node000015" class="edge">
<title>Node13&#45;&gt;Node15</title>
<g id="a_edge18_Node000013_Node000015"><a xlink:title=" ">
<path fill="none" stroke="#63b8ff" d="M575.3,-164.98C589.1,-156.77 610.24,-144.18 626.51,-134.49"/>
<polygon fill="#63b8ff" stroke="#63b8ff" points="628.64,-137.29 635.44,-129.17 625.06,-131.28 628.64,-137.29"/>
</a>
</g>
</g>
<!-- Node16 -->
<g id="Node000016" class="node">
<title>Node16</title>
<g id="a_Node000016"><a xlink:title=" ">
<polygon fill="#e0e0e0" stroke="#999999" points="595.5,-129 518.5,-129 518.5,-110 595.5,-110 595.5,-129"/>
<text text-anchor="middle" x="557" y="-117" font-family="Helvetica,sans-Serif" font-size="10.00">sys/socket.h</text>
</a>
</g>
</g>
<!-- Node13&#45;&gt;Node16 -->
<g id="edge20_Node000013_Node000016" class="edge">
<title>Node13&#45;&gt;Node16</title>
<g id="a_edge20_Node000013_Node000016"><a xlink:title=" ">
<path fill="none" stroke="#63b8ff" d="M560.34,-164.75C559.82,-157.8 559.06,-147.85 558.41,-139.13"/>
<polygon fill="#63b8ff" stroke="#63b8ff" points="561.89,-138.8 557.65,-129.09 554.91,-139.32 561.89,-138.8"/>
</a>
</g>
</g>
<!-- Node17&#45;&gt;Node13 -->
<g id="edge29_Node000017_Node000013" class="edge">
<title>Node17&#45;&gt;Node13</title>
<g id="a_edge29_Node000017_Node000013"><a xlink:title=" ">
<path fill="none" stroke="#63b8ff" d="M682.7,-219.98C658.75,-211.23 621.22,-197.51 594.17,-187.62"/>
<polygon fill="#63b8ff" stroke="#63b8ff" points="595.31,-184.32 584.72,-184.17 592.91,-190.89 595.31,-184.32"/>
</a>
</g>
</g>
<!-- Node18 -->
<g id="Node000018" class="node">
<title>Node18</title>
<g id="a_Node000018"><a xlink:title=" ">
<polygon fill="#e0e0e0" stroke="#999999" points="822,-184 772,-184 772,-165 822,-165 822,-184"/>
<text text-anchor="middle" x="797" y="-172" font-family="Helvetica,sans-Serif" font-size="10.00">atomic</text>
</a>
</g>
</g>
<!-- Node17&#45;&gt;Node18 -->
<g id="edge24_Node000017_Node000018" class="edge">
<title>Node17&#45;&gt;Node18</title>
<g id="a_edge24_Node000017_Node000018"><a xlink:title=" ">
<path fill="none" stroke="#63b8ff" d="M720.62,-219.98C734.86,-211.69 756.75,-198.94 773.45,-189.22"/>
<polygon fill="#63b8ff" stroke="#63b8ff" points="775.23,-192.23 782.11,-184.17 771.71,-186.18 775.23,-192.23"/>
</a>
</g>
</g>
<!-- Node19 -->
<g id="Node000019" class="node">
<title>Node19</title>
<g id="a_Node000019"><a xlink:title=" ">
<polygon fill="#e0e0e0" stroke="#999999" points="753.5,-184 688.5,-184 688.5,-165 753.5,-165 753.5,-184"/>
<text text-anchor="middle" x="721" y="-172" font-family="Helvetica,sans-Serif" font-size="10.00">functional</text>
</a>
</g>
</g>
<!-- Node17&#45;&gt;Node19 -->
<g id="edge25_Node000017_Node000019" class="edge">
<title>Node17&#45;&gt;Node19</title>
<g id="a_edge25_Node000017_Node000019"><a xlink:title=" ">
<path fill="none" stroke="#63b8ff" d="M708.48,-219.75C710.46,-212.72 713.32,-202.62 715.81,-193.84"/>
<polygon fill="#63b8ff" stroke="#63b8ff" points="719.21,-194.66 718.57,-184.09 712.48,-192.76 719.21,-194.66"/>
</a>
</g>
</g>
<!-- Node20 -->
<g id="Node000020" class="node">
<title>Node20</title>
<g id="a_Node000020"><a xlink:title=" ">
<polygon fill="#e0e0e0" stroke="#999999" points="472,-184 440,-184 440,-165 472,-165 472,-184"/>
<text text-anchor="middle" x="456" y="-172" font-family="Helvetica,sans-Serif" font-size="10.00">list</text>
</a>
</g>
</g>
<!-- Node17&#45;&gt;Node20 -->
<g id="edge26_Node000017_Node000020" class="edge">
<title>Node17&#45;&gt;Node20</title>
<g id="a_edge26_Node000017_Node000020"><a xlink:title=" ">
<path fill="none" stroke="#63b8ff" d="M652.35,-219.95C608.72,-212.53 545.44,-200.72 481.84,-183.93"/>
<polygon fill="#63b8ff" stroke="#63b8ff" points="482.61,-180.51 472.04,-181.3 480.79,-187.27 482.61,-180.51"/>
</a>
</g>
</g>
<!-- Node21 -->
<g id="Node000021" class="node">
<title>Node21</title>
<g id="a_Node000021"><a xlink:title=" ">
<polygon fill="#e0e0e0" stroke="#999999" points="1496,-129 1448,-129 1448,-110 1496,-110 1496,-129"/>
<text text-anchor="middle" x="1472" y="-117" font-family="Helvetica,sans-Serif" font-size="10.00">mutex</text>
</a>
</g>
</g>
<!-- Node17&#45;&gt;Node21 -->
<g id="edge27_Node000017_Node000021" class="edge">
<title>Node17&#45;&gt;Node21</title>
<g id="a_edge27_Node000017_Node000021"><a xlink:title=" ">
<path fill="none" stroke="#63b8ff" d="M696.78,-219.62C683.97,-206.24 664,-180.82 679,-165 704.99,-137.59 1320.3,-131.4 1358,-129 1384.84,-127.29 1415.22,-125.01 1437.86,-123.24"/>
<polygon fill="#63b8ff" stroke="#63b8ff" points="1438.3,-126.71 1447.99,-122.44 1437.75,-119.74 1438.3,-126.71"/>
</a>
</g>
</g>
<!-- Node22 -->
<g id="Node000022" class="node">
<title>Node22</title>
<g id="a_Node000022"><a xlink:title=" ">
<polygon fill="#e0e0e0" stroke="#999999" points="888,-184 840,-184 840,-165 888,-165 888,-184"/>
<text text-anchor="middle" x="864" y="-172" font-family="Helvetica,sans-Serif" font-size="10.00">thread</text>
</a>
</g>
</g>
<!-- Node17&#45;&gt;Node22 -->
<g id="edge28_Node000017_Node000022" class="edge">
<title>Node17&#45;&gt;Node22</title>
<g id="a_edge28_Node000017_Node000022"><a xlink:title=" ">
<path fill="none" stroke="#63b8ff" d="M731.39,-219.98C758.27,-210.97 800.83,-196.69 830.46,-186.75"/>
<polygon fill="#63b8ff" stroke="#63b8ff" points="831.6,-190.06 839.97,-183.56 829.38,-183.42 831.6,-190.06"/>
</a>
</g>
</g>
<!-- Node23&#45;&gt;Node5 -->
<g id="edge36_Node000023_Node000005" class="edge">
<title>Node23&#45;&gt;Node5</title>
<g id="a_edge36_Node000023_Node000005"><a xlink:title=" ">
<path fill="none" stroke="#63b8ff" d="M935.97,-219.98C924.66,-203.42 900.61,-165.31 892,-129 888.25,-113.2 894.64,-95.63 901.17,-82.98"/>
<polygon fill="#63b8ff" stroke="#63b8ff" points="904.36,-84.44 906.24,-74.02 898.27,-80.99 904.36,-84.44"/>
</a>
</g>
</g>
<!-- Node23&#45;&gt;Node8 -->
<g id="edge34_Node000023_Node000008" class="edge">
<title>Node23&#45;&gt;Node8</title>
<g id="a_edge34_Node000023_Node000008"><a xlink:title=" ">
<path fill="none" stroke="#63b8ff" d="M958.89,-219.89C972.13,-212.26 989.94,-199.86 1000,-184 1031.41,-134.45 988.21,-98.11 1028,-55 1043.54,-38.16 1104.45,-23.88 1142.82,-16.31"/>
<polygon fill="#63b8ff" stroke="#63b8ff" points="1143.83,-19.68 1152.99,-14.35 1142.51,-12.8 1143.83,-19.68"/>
</a>
</g>
</g>
<!-- Node23&#45;&gt;Node13 -->
<g id="edge49_Node000023_Node000013" class="edge">
<title>Node23&#45;&gt;Node13</title>
<g id="a_edge49_Node000023_Node000013"><a xlink:title=" ">
<path fill="none" stroke="#63b8ff" d="M880.79,-219.98C813.12,-210.57 704.25,-195.43 632.66,-185.47"/>
<polygon fill="#63b8ff" stroke="#63b8ff" points="632.76,-181.95 622.38,-184.04 631.8,-188.88 632.76,-181.95"/>
</a>
</g>
</g>
<!-- Node23&#45;&gt;Node18 -->
<g id="edge31_Node000023_Node000018" class="edge">
<title>Node23&#45;&gt;Node18</title>
<g id="a_edge31_Node000023_Node000018"><a xlink:title=" ">
<path fill="none" stroke="#63b8ff" d="M918.7,-219.98C894.75,-211.23 857.22,-197.51 830.17,-187.62"/>
<polygon fill="#63b8ff" stroke="#63b8ff" points="831.31,-184.32 820.72,-184.17 828.91,-190.89 831.31,-184.32"/>
</a>
</g>
</g>
<!-- Node23&#45;&gt;Node19 -->
<g id="edge33_Node000023_Node000019" class="edge">
<title>Node23&#45;&gt;Node19</title>
<g id="a_edge33_Node000023_Node000019"><a xlink:title=" ">
<path fill="none" stroke="#63b8ff" d="M906.49,-219.98C867.49,-210.63 804.89,-195.62 763.36,-185.66"/>
<polygon fill="#63b8ff" stroke="#63b8ff" points="764.08,-182.23 753.54,-183.3 762.45,-189.04 764.08,-182.23"/>
</a>
</g>
</g>
<!-- Node23&#45;&gt;Node22 -->
<g id="edge35_Node000023_Node000022" class="edge">
<title>Node23&#45;&gt;Node22</title>
<g id="a_edge35_Node000023_Node000022"><a xlink:title=" ">
<path fill="none" stroke="#63b8ff" d="M929.47,-219.98C917.6,-211.92 899.54,-199.65 885.39,-190.03"/>
<polygon fill="#63b8ff" stroke="#63b8ff" points="887,-186.9 876.76,-184.17 883.06,-192.69 887,-186.9"/>
</a>
</g>
</g>
<!-- Node24 -->
<g id="Node000024" class="node">
<title>Node24</title>
<g id="a_Node000024"><a xlink:title=" ">
<polygon fill="#e0e0e0" stroke="#999999" points="991.5,-184 944.5,-184 944.5,-165 991.5,-165 991.5,-184"/>
<text text-anchor="middle" x="968" y="-172" font-family="Helvetica,sans-Serif" font-size="10.00">deque</text>
</a>
</g>
</g>
<!-- Node23&#45;&gt;Node24 -->
<g id="edge32_Node000023_Node000024" class="edge">
<title>Node23&#45;&gt;Node24</title>
<g id="a_edge32_Node000023_Node000024"><a xlink:title=" ">
<path fill="none" stroke="#63b8ff" d="M946.29,-219.75C949.81,-212.57 954.91,-202.18 959.28,-193.27"/>
<polygon fill="#63b8ff" stroke="#63b8ff" points="962.52,-194.61 963.79,-184.09 956.24,-191.53 962.52,-194.61"/>
</a>
</g>
</g>
<!-- Node25 -->
<g id="Node000025" class="node">
<title>Node25</title>
<g id="a_Node000025"><a xlink:href="file_8hpp.html" target="_top" xlink:title=" ">
<polygon fill="white" stroke="#666666" points="1225.5,-129 1124.5,-129 1124.5,-110 1225.5,-110 1225.5,-129"/>
<text text-anchor="middle" x="1175" y="-117" font-family="Helvetica,sans-Serif" font-size="10.00">../models/file.hpp</text>
</a>
</g>
</g>
<!-- Node23&#45;&gt;Node25 -->
<g id="edge37_Node000023_Node000025" class="edge">
<title>Node23&#45;&gt;Node25</title>
<g id="a_edge37_Node000023_Node000025"><a xlink:title=" ">
<path fill="none" stroke="#63b8ff" d="M973.23,-219.94C1000.05,-212.1 1039.43,-199.38 1072,-184 1102.15,-169.77 1134.5,-148.78 1154.74,-134.88"/>
<polygon fill="#63b8ff" stroke="#63b8ff" points="1156.92,-137.62 1163.13,-129.04 1152.92,-131.88 1156.92,-137.62"/>
</a>
</g>
</g>
<!-- Node28 -->
<g id="Node000028" class="node">
<title>Node28</title>
<g id="a_Node000028"><a xlink:href="fileinfo_8hpp.html" target="_top" xlink:title=" ">
<polygon fill="white" stroke="#666666" points="1108.5,-74 1037.5,-74 1037.5,-55 1108.5,-55 1108.5,-74"/>
<text text-anchor="middle" x="1073" y="-62" font-family="Helvetica,sans-Serif" font-size="10.00">fileinfo.hpp</text>
</a>
</g>
</g>
<!-- Node23&#45;&gt;Node28 -->
<g id="edge48_Node000023_Node000028" class="edge">
<title>Node23&#45;&gt;Node28</title>
<g id="a_edge48_Node000023_Node000028"><a xlink:title=" ">
<path fill="none" stroke="#63b8ff" d="M974.54,-219.85C994.23,-213.07 1018.46,-201.75 1034,-184 1059.24,-155.17 1068.22,-109.6 1071.36,-84.19"/>
<polygon fill="#63b8ff" stroke="#63b8ff" points="1074.86,-84.38 1072.43,-74.07 1067.9,-83.64 1074.86,-84.38"/>
</a>
</g>
</g>
<!-- Node23&#45;&gt;Node29 -->
<g id="edge50_Node000023_Node000029" class="edge">
<title>Node23&#45;&gt;Node29</title>
<g id="a_edge50_Node000023_Node000029"><a xlink:title=" ">
<path fill="none" stroke="#63b8ff" d="M1006.19,-222.08C1114.84,-211.22 1332.33,-189.47 1426.64,-180.04"/>
<polygon fill="#63b8ff" stroke="#63b8ff" points="1427.11,-183.51 1436.72,-179.03 1426.42,-176.54 1427.11,-183.51"/>
</a>
</g>
</g>
<!-- Node32 -->
<g id="Node000032" class="node">
<title>Node32</title>
<g id="a_Node000032"><a xlink:href="partfile_8hpp.html" target="_top" xlink:title=" ">
<polygon fill="white" stroke="#666666" points="1316,-129 1244,-129 1244,-110 1316,-110 1316,-129"/>
<text text-anchor="middle" x="1280" y="-117" font-family="Helvetica,sans-Serif" font-size="10.00">partfile.hpp</text>
</a>
</g>
</g>
<!-- Node23&#45;&gt;Node32 -->
<g id="edge62_Node000023_Node000032" class="edge">
<title>Node23&#45;&gt;Node32</title>
<g id="a_edge62_Node000023_Node000032"><a xlink:title=" ">
<path fill="none" stroke="#63b8ff" d="M976.05,-219.97C1008.98,-211.53 1060.21,-197.89 1104,-184 1155.01,-167.82 1213.25,-146.17 1248.29,-132.79"/>
<polygon fill="#63b8ff" stroke="#63b8ff" points="1249.88,-135.93 1257.96,-129.08 1247.37,-129.39 1249.88,-135.93"/>
</a>
</g>
</g>
<!-- Node23&#45;&gt;Node33 -->
<g id="edge63_Node000023_Node000033" class="edge">
<title>Node23&#45;&gt;Node33</title>
<g id="a_edge63_Node000023_Node000033"><a xlink:title=" ">
<path fill="none" stroke="#63b8ff" d="M1004.02,-219.98C1081.76,-209.31 1213.17,-191.27 1282.32,-181.77"/>
<polygon fill="#63b8ff" stroke="#63b8ff" points="1283.03,-185.21 1292.47,-180.38 1282.08,-178.27 1283.03,-185.21"/>
</a>
</g>
</g>
<!-- Node25&#45;&gt;Node5 -->
<g id="edge42_Node000025_Node000005" class="edge">
<title>Node25&#45;&gt;Node5</title>
<g id="a_edge42_Node000025_Node000005"><a xlink:title=" ">
<path fill="none" stroke="#63b8ff" d="M1132.74,-109.98C1086.96,-100.76 1013.86,-86.03 964.45,-76.07"/>
<polygon fill="#63b8ff" stroke="#63b8ff" points="965.08,-72.63 954.59,-74.08 963.7,-79.49 965.08,-72.63"/>
</a>
</g>
</g>
<!-- Node25&#45;&gt;Node8 -->
<g id="edge39_Node000025_Node000008" class="edge">
<title>Node25&#45;&gt;Node8</title>
<g id="a_edge39_Node000025_Node000008"><a xlink:title=" ">
<path fill="none" stroke="#63b8ff" d="M1175,-109.66C1175,-92.17 1175,-52.8 1175,-29.27"/>
<polygon fill="#63b8ff" stroke="#63b8ff" points="1178.5,-29.16 1175,-19.16 1171.5,-29.16 1178.5,-29.16"/>
</a>
</g>
</g>
<!-- Node25&#45;&gt;Node14 -->
<g id="edge38_Node000025_Node000014" class="edge">
<title>Node25&#45;&gt;Node14</title>
<g id="a_edge38_Node000025_Node000014"><a xlink:title=" ">
<path fill="none" stroke="#63b8ff" d="M1206.97,-109.98C1241.72,-100.73 1297.27,-85.94 1334.67,-75.98"/>
<polygon fill="#63b8ff" stroke="#63b8ff" points="1335.94,-79.26 1344.7,-73.3 1334.14,-72.49 1335.94,-79.26"/>
</a>
</g>
</g>
<!-- Node26 -->
<g id="Node000026" class="node">
<title>Node26</title>
<g id="a_Node000026"><a xlink:title=" ">
<polygon fill="#e0e0e0" stroke="#999999" points="1118,-19 1062,-19 1062,0 1118,0 1118,-19"/>
<text text-anchor="middle" x="1090" y="-7" font-family="Helvetica,sans-Serif" font-size="10.00">sstream</text>
</a>
</g>
</g>
<!-- Node25&#45;&gt;Node26 -->
<g id="edge40_Node000025_Node000026" class="edge">
<title>Node25&#45;&gt;Node26</title>
<g id="a_edge40_Node000025_Node000026"><a xlink:title=" ">
<path fill="none" stroke="#63b8ff" d="M1168.04,-109.66C1153.84,-91.61 1121.31,-50.28 1103.05,-27.08"/>
<polygon fill="#63b8ff" stroke="#63b8ff" points="1105.75,-24.85 1096.81,-19.16 1100.25,-29.18 1105.75,-24.85"/>
</a>
</g>
</g>
<!-- Node27 -->
<g id="Node000027" class="node">
<title>Node27</title>
<g id="a_Node000027"><a xlink:title=" ">
<polygon fill="#e0e0e0" stroke="#999999" points="1289,-74 1203,-74 1203,-55 1289,-55 1289,-74"/>
<text text-anchor="middle" x="1246" y="-62" font-family="Helvetica,sans-Serif" font-size="10.00">unordered_set</text>
</a>
</g>
</g>
<!-- Node25&#45;&gt;Node27 -->
<g id="edge41_Node000025_Node000027" class="edge">
<title>Node25&#45;&gt;Node27</title>
<g id="a_edge41_Node000025_Node000027"><a xlink:title=" ">
<path fill="none" stroke="#63b8ff" d="M1186.41,-109.98C1197.11,-102 1213.34,-89.88 1226.16,-80.31"/>
<polygon fill="#63b8ff" stroke="#63b8ff" points="1228.47,-82.96 1234.39,-74.17 1224.28,-77.35 1228.47,-82.96"/>
</a>
</g>
</g>
<!-- Node25&#45;&gt;Node28 -->
<g id="edge43_Node000025_Node000028" class="edge">
<title>Node25&#45;&gt;Node28</title>
<g id="a_edge43_Node000025_Node000028"><a xlink:title=" ">
<path fill="none" stroke="#63b8ff" d="M1158.61,-109.98C1142.43,-101.57 1117.43,-88.59 1098.62,-78.81"/>
<polygon fill="#63b8ff" stroke="#63b8ff" points="1100.17,-75.68 1089.69,-74.17 1096.95,-81.89 1100.17,-75.68"/>
</a>
</g>
</g>
<!-- Node28&#45;&gt;Node7 -->
<g id="edge45_Node000028_Node000007" class="edge">
<title>Node28&#45;&gt;Node7</title>
<g id="a_edge45_Node000028_Node000007"><a xlink:title=" ">
<path fill="none" stroke="#63b8ff" d="M1053.24,-54.98C1033.27,-46.38 1002.2,-32.99 979.35,-23.15"/>
<polygon fill="#63b8ff" stroke="#63b8ff" points="980.69,-19.91 970.12,-19.17 977.92,-26.34 980.69,-19.91"/>
</a>
</g>
</g>
<!-- Node28&#45;&gt;Node8 -->
<g id="edge46_Node000028_Node000008" class="edge">
<title>Node28&#45;&gt;Node8</title>
<g id="a_edge46_Node000028_Node000008"><a xlink:title=" ">
<path fill="none" stroke="#63b8ff" d="M1089.39,-54.98C1105.57,-46.57 1130.57,-33.59 1149.38,-23.81"/>
<polygon fill="#63b8ff" stroke="#63b8ff" points="1151.05,-26.89 1158.31,-19.17 1147.83,-20.68 1151.05,-26.89"/>
</a>
</g>
</g>
<!-- Node28&#45;&gt;Node11 -->
<g id="edge47_Node000028_Node000011" class="edge">
<title>Node28&#45;&gt;Node11</title>
<g id="a_edge47_Node000028_Node000011"><a xlink:title=" ">
<path fill="none" stroke="#63b8ff" d="M1037.47,-59.96C1021.45,-58.39 1002.27,-56.55 985,-55 794.68,-37.92 566.19,-19.77 481.61,-13.13"/>
<polygon fill="#63b8ff" stroke="#63b8ff" points="481.81,-9.63 471.56,-12.34 481.26,-16.61 481.81,-9.63"/>
</a>
</g>
</g>
<!-- Node28&#45;&gt;Node26 -->
<g id="edge44_Node000028_Node000026" class="edge">
<title>Node28&#45;&gt;Node26</title>
<g id="a_edge44_Node000028_Node000026"><a xlink:title=" ">
<path fill="none" stroke="#63b8ff" d="M1075.81,-54.75C1078.06,-47.72 1081.3,-37.62 1084.12,-28.84"/>
<polygon fill="#63b8ff" stroke="#63b8ff" points="1087.52,-29.68 1087.25,-19.09 1080.86,-27.54 1087.52,-29.68"/>
</a>
</g>
</g>
<!-- Node29&#45;&gt;Node8 -->
<g id="edge53_Node000029_Node000008" class="edge">
<title>Node29&#45;&gt;Node8</title>
<g id="a_edge53_Node000029_Node000008"><a xlink:title=" ">
<path fill="none" stroke="#63b8ff" d="M1507.35,-172.46C1568.86,-169.83 1691.57,-160.64 1718,-129 1723.41,-122.52 1723.26,-116.6 1718,-110 1653.76,-29.38 1314.08,-13.99 1207.21,-11.13"/>
<polygon fill="#63b8ff" stroke="#63b8ff" points="1207.13,-7.63 1197.05,-10.88 1206.96,-14.63 1207.13,-7.63"/>
</a>
</g>
</g>
<!-- Node29&#45;&gt;Node14 -->
<g id="edge51_Node000029_Node000014" class="edge">
<title>Node29&#45;&gt;Node14</title>
<g id="a_edge51_Node000029_Node000014"><a xlink:title=" ">
<path fill="none" stroke="#63b8ff" d="M1507.38,-171.96C1565.63,-168.61 1677.73,-158.41 1702,-129 1707.37,-122.49 1707.56,-116.36 1702,-110 1664.92,-67.54 1492.03,-64.03 1413.27,-64.7"/>
<polygon fill="#63b8ff" stroke="#63b8ff" points="1413.21,-61.2 1403.25,-64.81 1413.29,-68.2 1413.21,-61.2"/>
</a>
</g>
</g>
<!-- Node29&#45;&gt;Node21 -->
<g id="edge52_Node000029_Node000021" class="edge">
<title>Node29&#45;&gt;Node21</title>
<g id="a_edge52_Node000029_Node000021"><a xlink:title=" ">
<path fill="none" stroke="#63b8ff" d="M1472,-164.75C1472,-157.8 1472,-147.85 1472,-139.13"/>
<polygon fill="#63b8ff" stroke="#63b8ff" points="1475.5,-139.09 1472,-129.09 1468.5,-139.09 1475.5,-139.09"/>
</a>
</g>
</g>
<!-- Node30 -->
<g id="Node000030" class="node">
<title>Node30</title>
<g id="a_Node000030"><a xlink:title=" ">
<polygon fill="#e0e0e0" stroke="#999999" points="1692.5,-129 1599.5,-129 1599.5,-110 1692.5,-110 1692.5,-129"/>
<text text-anchor="middle" x="1646" y="-117" font-family="Helvetica,sans-Serif" font-size="10.00">unordered_map</text>
</a>
</g>
</g>
<!-- Node29&#45;&gt;Node30 -->
<g id="edge54_Node000029_Node000030" class="edge">
<title>Node29&#45;&gt;Node30</title>
<g id="a_edge54_Node000029_Node000030"><a xlink:title=" ">
<path fill="none" stroke="#63b8ff" d="M1499.96,-164.98C1529.3,-156.05 1575.6,-141.94 1608.19,-132.02"/>
<polygon fill="#63b8ff" stroke="#63b8ff" points="1609.28,-135.34 1617.82,-129.08 1607.24,-128.65 1609.28,-135.34"/>
</a>
</g>
</g>
<!-- Node31 -->
<g id="Node000031" class="node">
<title>Node31</title>
<g id="a_Node000031"><a xlink:href="file__id_8hpp.html" target="_top" xlink:title=" ">
<polygon fill="white" stroke="#666666" points="1581.5,-129 1514.5,-129 1514.5,-110 1581.5,-110 1581.5,-129"/>
<text text-anchor="middle" x="1548" y="-117" font-family="Helvetica,sans-Serif" font-size="10.00">file_id.hpp</text>
</a>
</g>
</g>
<!-- Node29&#45;&gt;Node31 -->
<g id="edge55_Node000029_Node000031" class="edge">
<title>Node29&#45;&gt;Node31</title>
<g id="a_edge55_Node000029_Node000031"><a xlink:title=" ">
<path fill="none" stroke="#63b8ff" d="M1484.21,-164.98C1495.78,-156.92 1513.38,-144.65 1527.16,-135.03"/>
<polygon fill="#63b8ff" stroke="#63b8ff" points="1529.37,-137.76 1535.57,-129.17 1525.36,-132.02 1529.37,-137.76"/>
</a>
</g>
</g>
<!-- Node29&#45;&gt;Node32 -->
<g id="edge57_Node000029_Node000032" class="edge">
<title>Node29&#45;&gt;Node32</title>
<g id="a_edge57_Node000029_Node000032"><a xlink:title=" ">
<path fill="none" stroke="#63b8ff" d="M1441.15,-164.98C1408.5,-155.97 1356.8,-141.7 1320.8,-131.76"/>
<polygon fill="#63b8ff" stroke="#63b8ff" points="1321.66,-128.37 1311.09,-129.08 1319.8,-135.12 1321.66,-128.37"/>
</a>
</g>
</g>
<!-- Node31&#45;&gt;Node8 -->
<g id="edge56_Node000031_Node000008" class="edge">
<title>Node31&#45;&gt;Node8</title>
<g id="a_edge56_Node000031_Node000008"><a xlink:title=" ">
<path fill="none" stroke="#63b8ff" d="M1537.32,-109.92C1519.39,-96.01 1481.6,-68.69 1445,-55 1362.95,-24.31 1259.03,-14.75 1207.31,-11.79"/>
<polygon fill="#63b8ff" stroke="#63b8ff" points="1207.26,-8.29 1197.09,-11.26 1206.89,-15.28 1207.26,-8.29"/>
</a>
</g>
</g>
<!-- Node32&#45;&gt;Node8 -->
<g id="edge59_Node000032_Node000008" class="edge">
<title>Node32&#45;&gt;Node8</title>
<g id="a_edge59_Node000032_Node000008"><a xlink:title=" ">
<path fill="none" stroke="#63b8ff" d="M1286.65,-109.93C1295.83,-96.96 1309.98,-72.07 1298,-55 1277.67,-26.03 1236.5,-15.84 1207.41,-12.3"/>
<polygon fill="#63b8ff" stroke="#63b8ff" points="1207.6,-8.8 1197.29,-11.28 1206.89,-15.77 1207.6,-8.8"/>
</a>
</g>
</g>
<!-- Node32&#45;&gt;Node14 -->
<g id="edge58_Node000032_Node000014" class="edge">
<title>Node32&#45;&gt;Node14</title>
<g id="a_edge58_Node000032_Node000014"><a xlink:title=" ">
<path fill="none" stroke="#63b8ff" d="M1295.1,-109.98C1309.82,-101.69 1332.42,-88.94 1349.67,-79.22"/>
<polygon fill="#63b8ff" stroke="#63b8ff" points="1351.63,-82.13 1358.62,-74.17 1348.19,-76.03 1351.63,-82.13"/>
</a>
</g>
</g>
<!-- Node32&#45;&gt;Node27 -->
<g id="edge60_Node000032_Node000027" class="edge">
<title>Node32&#45;&gt;Node27</title>
<g id="a_edge60_Node000032_Node000027"><a xlink:title=" ">
<path fill="none" stroke="#63b8ff" d="M1274.39,-109.75C1269.68,-102.42 1262.83,-91.73 1257.03,-82.7"/>
<polygon fill="#63b8ff" stroke="#63b8ff" points="1259.86,-80.62 1251.51,-74.09 1253.96,-84.4 1259.86,-80.62"/>
</a>
</g>
</g>
<!-- Node32&#45;&gt;Node28 -->
<g id="edge61_Node000032_Node000028" class="edge">
<title>Node32&#45;&gt;Node28</title>
<g id="a_edge61_Node000032_Node000028"><a xlink:title=" ">
<path fill="none" stroke="#63b8ff" d="M1246.74,-109.98C1211.39,-100.93 1155.33,-86.58 1116.49,-76.64"/>
<polygon fill="#63b8ff" stroke="#63b8ff" points="1117.07,-73.17 1106.52,-74.08 1115.34,-79.95 1117.07,-73.17"/>
</a>
</g>
</g>
<!-- Node33&#45;&gt;Node5 -->
<g id="edge68_Node000033_Node000005" class="edge">
<title>Node33&#45;&gt;Node5</title>
<g id="a_edge68_Node000033_Node000005"><a xlink:title=" ">
<path fill="none" stroke="#63b8ff" d="M1292.43,-168.53C1245.91,-161.63 1162.06,-147.84 1092,-129 1038.33,-114.56 977.72,-91.78 942.3,-77.79"/>
<polygon fill="#63b8ff" stroke="#63b8ff" points="943.59,-74.54 933,-74.09 941,-81.04 943.59,-74.54"/>
</a>
</g>
</g>
<!-- Node33&#45;&gt;Node8 -->
<g id="edge66_Node000033_Node000008" class="edge">
<title>Node33&#45;&gt;Node8</title>
<g id="a_edge66_Node000033_Node000008"><a xlink:title=" ">
<path fill="none" stroke="#63b8ff" d="M1342.45,-164.84C1374.12,-144.81 1444.37,-94.01 1412,-55 1386.39,-24.14 1266.39,-14.55 1207.61,-11.67"/>
<polygon fill="#63b8ff" stroke="#63b8ff" points="1207.53,-8.17 1197.38,-11.21 1207.21,-15.16 1207.53,-8.17"/>
</a>
</g>
</g>
<!-- Node33&#45;&gt;Node14 -->
<g id="edge64_Node000033_Node000014" class="edge">
<title>Node33&#45;&gt;Node14</title>
<g id="a_edge64_Node000033_Node000014"><a xlink:title=" ">
<path fill="none" stroke="#63b8ff" d="M1335.18,-164.84C1341.98,-156.24 1352,-142.44 1358,-129 1364.45,-114.55 1368.62,-97.03 1371.08,-84.06"/>
<polygon fill="#63b8ff" stroke="#63b8ff" points="1374.56,-84.48 1372.81,-74.03 1367.66,-83.28 1374.56,-84.48"/>
</a>
</g>
</g>
<!-- Node33&#45;&gt;Node21 -->
<g id="edge65_Node000033_Node000021" class="edge">
<title>Node33&#45;&gt;Node21</title>
<g id="a_edge65_Node000033_Node000021"><a xlink:title=" ">
<path fill="none" stroke="#63b8ff" d="M1351.14,-164.98C1374.82,-156.27 1411.87,-142.63 1438.71,-132.75"/>
<polygon fill="#63b8ff" stroke="#63b8ff" points="1440.27,-135.91 1448.44,-129.17 1437.85,-129.34 1440.27,-135.91"/>
</a>
</g>
</g>
<!-- Node33&#45;&gt;Node25 -->
<g id="edge69_Node000033_Node000025" class="edge">
<title>Node33&#45;&gt;Node25</title>
<g id="a_edge69_Node000033_Node000025"><a xlink:title=" ">
<path fill="none" stroke="#63b8ff" d="M1303.42,-164.98C1277.95,-156.16 1237.96,-142.31 1209.37,-132.41"/>
<polygon fill="#63b8ff" stroke="#63b8ff" points="1210.37,-129.05 1199.77,-129.08 1208.08,-135.66 1210.37,-129.05"/>
</a>
</g>
</g>
<!-- Node33&#45;&gt;Node28 -->
<g id="edge70_Node000033_Node000028" class="edge">
<title>Node33&#45;&gt;Node28</title>
<g id="a_edge70_Node000033_Node000028"><a xlink:title=" ">
<path fill="none" stroke="#63b8ff" d="M1292.46,-169.39C1239.63,-162.73 1143.52,-148.36 1115,-129 1098.63,-117.89 1087.05,-98.07 1080.25,-83.51"/>
<polygon fill="#63b8ff" stroke="#63b8ff" points="1083.33,-81.83 1076.14,-74.05 1076.91,-84.62 1083.33,-81.83"/>
</a>
</g>
</g>
<!-- Node33&#45;&gt;Node30 -->
<g id="edge67_Node000033_Node000030" class="edge">
<title>Node33&#45;&gt;Node30</title>
<g id="a_edge67_Node000033_Node000030"><a xlink:title=" ">
<path fill="none" stroke="#63b8ff" d="M1363.55,-167.57C1418.32,-158.45 1523.83,-140.86 1589.24,-129.96"/>
<polygon fill="#63b8ff" stroke="#63b8ff" points="1590.1,-133.37 1599.38,-128.27 1588.95,-126.46 1590.1,-133.37"/>
</a>
</g>
</g>
<!-- Node33&#45;&gt;Node31 -->
<g id="edge71_Node000033_Node000031" class="edge">
<title>Node33&#45;&gt;Node31</title>
<g id="a_edge71_Node000033_Node000031"><a xlink:title=" ">
<path fill="none" stroke="#63b8ff" d="M1363.35,-164.98C1401.72,-155.74 1463.05,-140.96 1504.39,-131.01"/>
<polygon fill="#63b8ff" stroke="#63b8ff" points="1505.28,-134.39 1514.19,-128.65 1503.64,-127.59 1505.28,-134.39"/>
</a>
</g>
</g>
<!-- Node34&#45;&gt;Node5 -->
<g id="edge76_Node000034_Node000005" class="edge">
<title>Node34&#45;&gt;Node5</title>
<g id="a_edge76_Node000034_Node000005"><a xlink:title=" ">
<path fill="none" stroke="#63b8ff" d="M514.53,-280.38C492.64,-264.4 447.98,-227.75 431,-184 413.71,-139.45 464.31,-126.93 509,-110 567.39,-87.88 738.39,-75.05 837.88,-69.25"/>
<polygon fill="#63b8ff" stroke="#63b8ff" points="838.09,-72.75 847.87,-68.68 837.69,-65.76 838.09,-72.75"/>
</a>
</g>
</g>
<!-- Node34&#45;&gt;Node8 -->
<g id="edge75_Node000034_Node000008" class="edge">
<title>Node34&#45;&gt;Node8</title>
<g id="a_edge75_Node000034_Node000008"><a xlink:title=" ">
<path fill="none" stroke="#63b8ff" d="M506.95,-280.5C449.97,-255.22 295.01,-178.05 355,-110 387.22,-73.45 741.61,-60.64 790,-55 939.62,-37.55 977.86,-40.15 1127,-19 1131.98,-18.29 1137.22,-17.46 1142.35,-16.59"/>
<polygon fill="#63b8ff" stroke="#63b8ff" points="1143.34,-19.97 1152.59,-14.8 1142.13,-13.08 1143.34,-19.97"/>
</a>
</g>
</g>
<!-- Node34&#45;&gt;Node13 -->
<g id="edge77_Node000034_Node000013" class="edge">
<title>Node34&#45;&gt;Node13</title>
<g id="a_edge77_Node000034_Node000013"><a xlink:title=" ">
<path fill="none" stroke="#63b8ff" d="M529.56,-280.47C535.04,-262.15 548.06,-218.68 555.52,-193.81"/>
<polygon fill="#63b8ff" stroke="#63b8ff" points="558.9,-194.71 558.41,-184.13 552.19,-192.7 558.9,-194.71"/>
</a>
</g>
</g>
<!-- Node34&#45;&gt;Node23 -->
<g id="edge78_Node000034_Node000023" class="edge">
<title>Node34&#45;&gt;Node23</title>
<g id="a_edge78_Node000034_Node000023"><a xlink:title=" ">
<path fill="none" stroke="#63b8ff" d="M579.56,-281.59C653.57,-271.16 788.69,-252.11 871.4,-240.45"/>
<polygon fill="#63b8ff" stroke="#63b8ff" points="872.06,-243.89 881.47,-239.03 871.08,-236.96 872.06,-243.89"/>
</a>
</g>
</g>
<!-- Node35&#45;&gt;Node5 -->
<g id="edge82_Node000035_Node000005" class="edge">
<title>Node35&#45;&gt;Node5</title>
<g id="a_edge82_Node000035_Node000005"><a xlink:title=" ">
<path fill="none" stroke="#63b8ff" d="M1304.82,-219.92C1270.66,-207.38 1204.71,-183.5 1148,-165 1095.06,-147.73 1079.37,-150.49 1028,-129 993.93,-114.75 956.88,-93.34 934.05,-79.39"/>
<polygon fill="#63b8ff" stroke="#63b8ff" points="935.81,-76.37 925.46,-74.09 932.13,-82.32 935.81,-76.37"/>
</a>
</g>
</g>
<!-- Node35&#45;&gt;Node8 -->
<g id="edge81_Node000035_Node000008" class="edge">
<title>Node35&#45;&gt;Node8</title>
<g id="a_edge81_Node000035_Node000008"><a xlink:title=" ">
<path fill="none" stroke="#63b8ff" d="M1386.59,-227.29C1451.16,-224.36 1557.22,-214.77 1643,-184 1691.74,-166.51 1758.22,-155.23 1733,-110 1681.17,-17.05 1318.58,-10.14 1207.36,-10.23"/>
<polygon fill="#63b8ff" stroke="#63b8ff" points="1207.1,-6.73 1197.11,-10.26 1207.12,-13.73 1207.1,-6.73"/>
</a>
</g>
</g>
<!-- Node35&#45;&gt;Node13 -->
<g id="edge83_Node000035_Node000013" class="edge">
<title>Node35&#45;&gt;Node13</title>
<g id="a_edge83_Node000035_Node000013"><a xlink:title=" ">
<path fill="none" stroke="#63b8ff" d="M1269.38,-224.55C1155.56,-216.86 896.72,-199.31 679,-184 666.87,-183.15 654.05,-182.24 641.5,-181.34"/>
<polygon fill="#63b8ff" stroke="#63b8ff" points="641.73,-177.84 631.51,-180.62 641.23,-184.83 641.73,-177.84"/>
</a>
</g>
</g>
<!-- Node35&#45;&gt;Node14 -->
<g id="edge80_Node000035_Node000014" class="edge">
<title>Node35&#45;&gt;Node14</title>
<g id="a_edge80_Node000035_Node000014"><a xlink:title=" ">
<path fill="none" stroke="#63b8ff" d="M1386.7,-222.31C1485.46,-210.54 1678.01,-181.33 1718,-129 1755.89,-79.41 1511.25,-68.52 1413.28,-66.15"/>
<polygon fill="#63b8ff" stroke="#63b8ff" points="1413.26,-62.65 1403.18,-65.92 1413.1,-69.65 1413.26,-62.65"/>
</a>
</g>
</g>
<!-- Node35&#45;&gt;Node29 -->
<g id="edge84_Node000035_Node000029" class="edge">
<title>Node35&#45;&gt;Node29</title>
<g id="a_edge84_Node000035_Node000029"><a xlink:title=" ">
<path fill="none" stroke="#63b8ff" d="M1351.14,-219.98C1374.82,-211.27 1411.87,-197.63 1438.71,-187.75"/>
<polygon fill="#63b8ff" stroke="#63b8ff" points="1440.27,-190.91 1448.44,-184.17 1437.85,-184.34 1440.27,-190.91"/>
</a>
</g>
</g>
<!-- Node35&#45;&gt;Node33 -->
<g id="edge85_Node000035_Node000033" class="edge">
<title>Node35&#45;&gt;Node33</title>
<g id="a_edge85_Node000035_Node000033"><a xlink:title=" ">
<path fill="none" stroke="#63b8ff" d="M1328,-219.75C1328,-212.8 1328,-202.85 1328,-194.13"/>
<polygon fill="#63b8ff" stroke="#63b8ff" points="1331.5,-194.09 1328,-184.09 1324.5,-194.09 1331.5,-194.09"/>
</a>
</g>
</g>
</g>
</svg>
