<?xml version="1.0" encoding="UTF-8" standalone="no"?>
<!DOCTYPE svg PUBLIC "-//W3C//DTD SVG 1.1//EN"
 "http://www.w3.org/Graphics/SVG/1.1/DTD/svg11.dtd">
<!-- Generated by graphviz version 2.43.0 (0)
 -->
<!-- Title: src/client/client.cpp Pages: 1 -->
<svg width="933pt" height="203pt"
 viewBox="0.00 0.00 933.00 203.00" xmlns="http://www.w3.org/2000/svg" xmlns:xlink="http://www.w3.org/1999/xlink">
<g id="graph0" class="graph" transform="scale(1 1) rotate(0) translate(4 199)">
<title>src/client/client.cpp</title>
<!-- Node1 -->
<g id="Node000001" class="node">
<title>Node1</title>
<g id="a_Node000001"><a xlink:title="The entrypoint to the client.">
<polygon fill="#999999" stroke="#666666" points="335,-195 224,-195 224,-176 335,-176 335,-195"/>
<text text-anchor="middle" x="279.5" y="-183" font-family="Helvetica,sans-Serif" font-size="10.00">src/client/client.cpp</text>
</a>
</g>
</g>
<!-- Node2 -->
<g id="Node000002" class="node">
<title>Node2</title>
<g id="a_Node000002"><a xlink:title=" ">
<polygon fill="#e0e0e0" stroke="#999999" points="259.5,-74 209.5,-74 209.5,-55 259.5,-55 259.5,-74"/>
<text text-anchor="middle" x="234.5" y="-62" font-family="Helvetica,sans-Serif" font-size="10.00">cstring</text>
</a>
</g>
</g>
<!-- Node1&#45;&gt;Node2 -->
<g id="edge1_Node000001_Node000002" class="edge">
<title>Node1&#45;&gt;Node2</title>
<g id="a_edge1_Node000001_Node000002"><a xlink:title=" ">
<path fill="none" stroke="#63b8ff" d="M276.26,-175.94C269,-156.74 251.27,-109.86 241.41,-83.77"/>
<polygon fill="#63b8ff" stroke="#63b8ff" points="244.64,-82.42 237.83,-74.3 238.09,-84.89 244.64,-82.42"/>
</a>
</g>
</g>
<!-- Node3 -->
<g id="Node000003" class="node">
<title>Node3</title>
<g id="a_Node000003"><a xlink:title=" ">
<polygon fill="#e0e0e0" stroke="#999999" points="337.5,-74 277.5,-74 277.5,-55 337.5,-55 337.5,-74"/>
<text text-anchor="middle" x="307.5" y="-62" font-family="Helvetica,sans-Serif" font-size="10.00">iostream</text>
</a>
</g>
</g>
<!-- Node1&#45;&gt;Node3 -->
<g id="edge2_Node000001_Node000003" class="edge">
<title>Node1&#45;&gt;Node3</title>
<g id="a_edge2_Node000001_Node000003"><a xlink:title=" ">
<path fill="none" stroke="#63b8ff" d="M281.51,-175.94C286.01,-156.82 296.96,-110.27 303.12,-84.12"/>
<polygon fill="#63b8ff" stroke="#63b8ff" points="306.55,-84.84 305.43,-74.3 299.73,-83.23 306.55,-84.84"/>
</a>
</g>
</g>
<!-- Node4 -->
<g id="Node000004" class="node">
<title>Node4</title>
<g id="a_Node000004"><a xlink:href="generate__id_8cpp.html" target="_top" xlink:title=" ">
<polygon fill="white" stroke="#666666" points="115,-140 0,-140 0,-110 115,-110 115,-140"/>
<text text-anchor="start" x="8" y="-128" font-family="Helvetica,sans-Serif" font-size="10.00">../common/generate</text>
<text text-anchor="middle" x="57.5" y="-117" font-family="Helvetica,sans-Serif" font-size="10.00">_id.cpp</text>
</a>
</g>
</g>
<!-- Node1&#45;&gt;Node4 -->
<g id="edge3_Node000001_Node000004" class="edge">
<title>Node1&#45;&gt;Node4</title>
<g id="a_edge3_Node000001_Node000004"><a xlink:title=" ">
<path fill="none" stroke="#63b8ff" d="M247.22,-175.99C214.15,-167.28 161.89,-153.51 120.58,-142.62"/>
<polygon fill="#63b8ff" stroke="#63b8ff" points="121.43,-139.23 110.87,-140.06 119.65,-146 121.43,-139.23"/>
</a>
</g>
</g>
<!-- Node7 -->
<g id="Node000007" class="node">
<title>Node7</title>
<g id="a_Node000007"><a xlink:href="endpoint_8hpp.html" target="_top" xlink:title=" ">
<polygon fill="white" stroke="#666666" points="191.5,-74 63.5,-74 63.5,-55 191.5,-55 191.5,-74"/>
<text text-anchor="middle" x="127.5" y="-62" font-family="Helvetica,sans-Serif" font-size="10.00">../models/endpoint.hpp</text>
</a>
</g>
</g>
<!-- Node1&#45;&gt;Node7 -->
<g id="edge16_Node000001_Node000007" class="edge">
<title>Node1&#45;&gt;Node7</title>
<g id="a_edge16_Node000001_Node000007"><a xlink:title=" ">
<path fill="none" stroke="#63b8ff" d="M268.57,-175.94C243.06,-155.97 179.31,-106.06 146.97,-80.75"/>
<polygon fill="#63b8ff" stroke="#63b8ff" points="148.77,-77.71 138.74,-74.3 144.46,-83.22 148.77,-77.71"/>
</a>
</g>
</g>
<!-- Node8 -->
<g id="Node000008" class="node">
<title>Node8</title>
<g id="a_Node000008"><a xlink:href="load__tracker__info_8cpp.html" target="_top" xlink:title=" ">
<polygon fill="white" stroke="#666666" points="439,-140 308,-140 308,-110 439,-110 439,-140"/>
<text text-anchor="start" x="316" y="-128" font-family="Helvetica,sans-Serif" font-size="10.00">../common/load_tracker</text>
<text text-anchor="middle" x="373.5" y="-117" font-family="Helvetica,sans-Serif" font-size="10.00">_info.cpp</text>
</a>
</g>
</g>
<!-- Node1&#45;&gt;Node8 -->
<g id="edge9_Node000001_Node000008" class="edge">
<title>Node1&#45;&gt;Node8</title>
<g id="a_edge9_Node000001_Node000008"><a xlink:title=" ">
<path fill="none" stroke="#63b8ff" d="M293.37,-175.87C306.12,-167.93 325.5,-155.87 342.01,-145.6"/>
<polygon fill="#63b8ff" stroke="#63b8ff" points="344.18,-148.37 350.82,-140.11 340.48,-142.43 344.18,-148.37"/>
</a>
</g>
</g>
<!-- Node12 -->
<g id="Node000012" class="node">
<title>Node12</title>
<g id="a_Node000012"><a xlink:href="network__errors_8hpp.html" target="_top" xlink:title=" ">
<polygon fill="white" stroke="#666666" points="856.5,-140 748.5,-140 748.5,-110 856.5,-110 856.5,-140"/>
<text text-anchor="start" x="756.5" y="-128" font-family="Helvetica,sans-Serif" font-size="10.00">../network/network</text>
<text text-anchor="middle" x="802.5" y="-117" font-family="Helvetica,sans-Serif" font-size="10.00">_errors.hpp</text>
</a>
</g>
</g>
<!-- Node1&#45;&gt;Node12 -->
<g id="edge17_Node000001_Node000012" class="edge">
<title>Node1&#45;&gt;Node12</title>
<g id="a_edge17_Node000001_Node000012"><a xlink:title=" ">
<path fill="none" stroke="#63b8ff" d="M335.47,-178.24C433.4,-167.29 635.21,-144.71 738.52,-133.16"/>
<polygon fill="#63b8ff" stroke="#63b8ff" points="738.95,-136.63 748.5,-132.04 738.17,-129.67 738.95,-136.63"/>
</a>
</g>
</g>
<!-- Node14 -->
<g id="Node000014" class="node">
<title>Node14</title>
<g id="a_Node000014"><a xlink:href="tcp__socket_8hpp.html" target="_top" xlink:title=" ">
<polygon fill="white" stroke="#666666" points="641,-134.5 500,-134.5 500,-115.5 641,-115.5 641,-134.5"/>
<text text-anchor="middle" x="570.5" y="-122.5" font-family="Helvetica,sans-Serif" font-size="10.00">../network/tcp_socket.hpp</text>
</a>
</g>
</g>
<!-- Node1&#45;&gt;Node14 -->
<g id="edge19_Node000001_Node000014" class="edge">
<title>Node1&#45;&gt;Node14</title>
<g id="a_edge19_Node000001_Node000014"><a xlink:title=" ">
<path fill="none" stroke="#63b8ff" d="M321.81,-175.99C373.75,-165.55 461.83,-147.85 518.03,-136.55"/>
<polygon fill="#63b8ff" stroke="#63b8ff" points="519.02,-139.92 528.14,-134.52 517.64,-133.06 519.02,-139.92"/>
</a>
</g>
</g>
<!-- Node5 -->
<g id="Node000005" class="node">
<title>Node5</title>
<g id="a_Node000005"><a xlink:title=" ">
<polygon fill="#e0e0e0" stroke="#999999" points="55.5,-19 5.5,-19 5.5,0 55.5,0 55.5,-19"/>
<text text-anchor="middle" x="30.5" y="-7" font-family="Helvetica,sans-Serif" font-size="10.00">cstdint</text>
</a>
</g>
</g>
<!-- Node4&#45;&gt;Node5 -->
<g id="edge4_Node000004_Node000005" class="edge">
<title>Node4&#45;&gt;Node5</title>
<g id="a_edge4_Node000004_Node000005"><a xlink:title=" ">
<path fill="none" stroke="#63b8ff" d="M43.39,-109.63C35.27,-100.31 25.83,-87.44 21.5,-74 16.75,-59.26 19.81,-41.8 23.61,-28.92"/>
<polygon fill="#63b8ff" stroke="#63b8ff" points="26.96,-29.93 26.81,-19.34 20.32,-27.71 26.96,-29.93"/>
</a>
</g>
</g>
<!-- Node6 -->
<g id="Node000006" class="node">
<title>Node6</title>
<g id="a_Node000006"><a xlink:title=" ">
<polygon fill="#e0e0e0" stroke="#999999" points="149.5,-19 105.5,-19 105.5,0 149.5,0 149.5,-19"/>
<text text-anchor="middle" x="127.5" y="-7" font-family="Helvetica,sans-Serif" font-size="10.00">string</text>
</a>
</g>
</g>
<!-- Node4&#45;&gt;Node6 -->
<g id="edge5_Node000004_Node000006" class="edge">
<title>Node4&#45;&gt;Node6</title>
<g id="a_edge5_Node000004_Node000006"><a xlink:title=" ">
<path fill="none" stroke="#63b8ff" d="M52.74,-109.77C48.72,-95.07 44.99,-71.94 54.5,-55 63.41,-39.14 80.52,-28.26 95.94,-21.24"/>
<polygon fill="#63b8ff" stroke="#63b8ff" points="97.35,-24.44 105.23,-17.35 94.65,-17.98 97.35,-24.44"/>
</a>
</g>
</g>
<!-- Node4&#45;&gt;Node7 -->
<g id="edge6_Node000004_Node000007" class="edge">
<title>Node4&#45;&gt;Node7</title>
<g id="a_edge6_Node000004_Node000007"><a xlink:title=" ">
<path fill="none" stroke="#63b8ff" d="M74.45,-109.84C84.92,-101.09 98.36,-89.85 109.09,-80.88"/>
<polygon fill="#63b8ff" stroke="#63b8ff" points="111.58,-83.36 117.01,-74.27 107.09,-77.99 111.58,-83.36"/>
</a>
</g>
</g>
<!-- Node7&#45;&gt;Node5 -->
<g id="edge7_Node000007_Node000005" class="edge">
<title>Node7&#45;&gt;Node5</title>
<g id="a_edge7_Node000007_Node000005"><a xlink:title=" ">
<path fill="none" stroke="#63b8ff" d="M111.92,-54.98C96.73,-46.69 73.4,-33.94 55.6,-24.22"/>
<polygon fill="#63b8ff" stroke="#63b8ff" points="56.82,-20.89 46.37,-19.17 53.47,-27.04 56.82,-20.89"/>
</a>
</g>
</g>
<!-- Node7&#45;&gt;Node6 -->
<g id="edge8_Node000007_Node000006" class="edge">
<title>Node7&#45;&gt;Node6</title>
<g id="a_edge8_Node000007_Node000006"><a xlink:title=" ">
<path fill="none" stroke="#63b8ff" d="M127.5,-54.75C127.5,-47.8 127.5,-37.85 127.5,-29.13"/>
<polygon fill="#63b8ff" stroke="#63b8ff" points="131,-29.09 127.5,-19.09 124,-29.09 131,-29.09"/>
</a>
</g>
</g>
<!-- Node8&#45;&gt;Node2 -->
<g id="edge11_Node000008_Node000002" class="edge">
<title>Node8&#45;&gt;Node2</title>
<g id="a_edge11_Node000008_Node000002"><a xlink:title=" ">
<path fill="none" stroke="#63b8ff" d="M340.21,-109.99C317.12,-100.27 286.63,-87.44 264.34,-78.06"/>
<polygon fill="#63b8ff" stroke="#63b8ff" points="265.6,-74.79 255.03,-74.14 262.89,-81.24 265.6,-74.79"/>
</a>
</g>
</g>
<!-- Node8&#45;&gt;Node3 -->
<g id="edge13_Node000008_Node000003" class="edge">
<title>Node8&#45;&gt;Node3</title>
<g id="a_edge13_Node000008_Node000003"><a xlink:title=" ">
<path fill="none" stroke="#63b8ff" d="M357.52,-109.84C347.75,-101.17 335.23,-90.08 325.16,-81.15"/>
<polygon fill="#63b8ff" stroke="#63b8ff" points="327.19,-78.28 317.39,-74.27 322.55,-83.52 327.19,-78.28"/>
</a>
</g>
</g>
<!-- Node8&#45;&gt;Node7 -->
<g id="edge10_Node000008_Node000007" class="edge">
<title>Node8&#45;&gt;Node7</title>
<g id="a_edge10_Node000008_Node000007"><a xlink:title=" ">
<path fill="none" stroke="#63b8ff" d="M314.58,-109.99C271.3,-99.7 213.33,-85.91 173.45,-76.43"/>
<polygon fill="#63b8ff" stroke="#63b8ff" points="174.01,-72.96 163.47,-74.05 172.39,-79.77 174.01,-72.96"/>
</a>
</g>
</g>
<!-- Node9 -->
<g id="Node000009" class="node">
<title>Node9</title>
<g id="a_Node000009"><a xlink:title=" ">
<polygon fill="#e0e0e0" stroke="#999999" points="403,-74 356,-74 356,-55 403,-55 403,-74"/>
<text text-anchor="middle" x="379.5" y="-62" font-family="Helvetica,sans-Serif" font-size="10.00">fcntl.h</text>
</a>
</g>
</g>
<!-- Node8&#45;&gt;Node9 -->
<g id="edge12_Node000008_Node000009" class="edge">
<title>Node8&#45;&gt;Node9</title>
<g id="a_edge12_Node000008_Node000009"><a xlink:title=" ">
<path fill="none" stroke="#63b8ff" d="M374.95,-109.84C375.73,-102.21 376.71,-92.7 377.56,-84.45"/>
<polygon fill="#63b8ff" stroke="#63b8ff" points="381.06,-84.57 378.6,-74.27 374.1,-83.86 381.06,-84.57"/>
</a>
</g>
</g>
<!-- Node10 -->
<g id="Node000010" class="node">
<title>Node10</title>
<g id="a_Node000010"><a xlink:title=" ">
<polygon fill="#e0e0e0" stroke="#999999" points="542.5,-74 486.5,-74 486.5,-55 542.5,-55 542.5,-74"/>
<text text-anchor="middle" x="514.5" y="-62" font-family="Helvetica,sans-Serif" font-size="10.00">unistd.h</text>
</a>
</g>
</g>
<!-- Node8&#45;&gt;Node10 -->
<g id="edge14_Node000008_Node000010" class="edge">
<title>Node8&#45;&gt;Node10</title>
<g id="a_edge14_Node000008_Node000010"><a xlink:title=" ">
<path fill="none" stroke="#63b8ff" d="M407.27,-109.99C430.69,-100.27 461.62,-87.44 484.23,-78.06"/>
<polygon fill="#63b8ff" stroke="#63b8ff" points="485.78,-81.2 493.68,-74.14 483.1,-74.74 485.78,-81.2"/>
</a>
</g>
</g>
<!-- Node11 -->
<g id="Node000011" class="node">
<title>Node11</title>
<g id="a_Node000011"><a xlink:title=" ">
<polygon fill="#e0e0e0" stroke="#999999" points="468,-74 421,-74 421,-55 468,-55 468,-74"/>
<text text-anchor="middle" x="444.5" y="-62" font-family="Helvetica,sans-Serif" font-size="10.00">vector</text>
</a>
</g>
</g>
<!-- Node8&#45;&gt;Node11 -->
<g id="edge15_Node000008_Node000011" class="edge">
<title>Node8&#45;&gt;Node11</title>
<g id="a_edge15_Node000008_Node000011"><a xlink:title=" ">
<path fill="none" stroke="#63b8ff" d="M390.69,-109.84C401.31,-101.09 414.94,-89.85 425.83,-80.88"/>
<polygon fill="#63b8ff" stroke="#63b8ff" points="428.37,-83.33 433.86,-74.27 423.92,-77.92 428.37,-83.33"/>
</a>
</g>
</g>
<!-- Node13 -->
<g id="Node000013" class="node">
<title>Node13</title>
<g id="a_Node000013"><a xlink:title=" ">
<polygon fill="#e0e0e0" stroke="#999999" points="925,-74 860,-74 860,-55 925,-55 925,-74"/>
<text text-anchor="middle" x="892.5" y="-62" font-family="Helvetica,sans-Serif" font-size="10.00">stdexcept</text>
</a>
</g>
</g>
<!-- Node12&#45;&gt;Node13 -->
<g id="edge18_Node000012_Node000013" class="edge">
<title>Node12&#45;&gt;Node13</title>
<g id="a_edge18_Node000012_Node000013"><a xlink:title=" ">
<path fill="none" stroke="#63b8ff" d="M824.29,-109.84C838.37,-100.68 856.63,-88.82 870.71,-79.66"/>
<polygon fill="#63b8ff" stroke="#63b8ff" points="872.8,-82.48 879.28,-74.09 868.99,-76.61 872.8,-82.48"/>
</a>
</g>
</g>
<!-- Node14&#45;&gt;Node6 -->
<g id="edge22_Node000014_Node000006" class="edge">
<title>Node14&#45;&gt;Node6</title>
<g id="a_edge22_Node000014_Node000006"><a xlink:title=" ">
<path fill="none" stroke="#63b8ff" d="M570.96,-115.18C571.21,-100.24 569.32,-70.11 551.5,-55 521.74,-29.76 253.32,-15.91 159.61,-11.81"/>
<polygon fill="#63b8ff" stroke="#63b8ff" points="159.72,-8.31 149.57,-11.38 159.41,-15.3 159.72,-8.31"/>
</a>
</g>
</g>
<!-- Node14&#45;&gt;Node10 -->
<g id="edge24_Node000014_Node000010" class="edge">
<title>Node14&#45;&gt;Node10</title>
<g id="a_edge24_Node000014_Node000010"><a xlink:title=" ">
<path fill="none" stroke="#63b8ff" d="M562.24,-115.37C553.72,-106.47 540.24,-92.39 529.77,-81.45"/>
<polygon fill="#63b8ff" stroke="#63b8ff" points="532.24,-78.97 522.8,-74.17 527.18,-83.81 532.24,-78.97"/>
</a>
</g>
</g>
<!-- Node14&#45;&gt;Node11 -->
<g id="edge25_Node000014_Node000011" class="edge">
<title>Node14&#45;&gt;Node11</title>
<g id="a_edge25_Node000014_Node000011"><a xlink:title=" ">
<path fill="none" stroke="#63b8ff" d="M552.18,-115.49C531.09,-105.7 496.24,-89.52 471.92,-78.23"/>
<polygon fill="#63b8ff" stroke="#63b8ff" points="473.39,-75.05 462.84,-74.02 470.44,-81.4 473.39,-75.05"/>
</a>
</g>
</g>
<!-- Node15 -->
<g id="Node000015" class="node">
<title>Node15</title>
<g id="a_Node000015"><a xlink:title=" ">
<polygon fill="#e0e0e0" stroke="#999999" points="656.5,-74 598.5,-74 598.5,-55 656.5,-55 656.5,-74"/>
<text text-anchor="middle" x="627.5" y="-62" font-family="Helvetica,sans-Serif" font-size="10.00">memory</text>
</a>
</g>
</g>
<!-- Node14&#45;&gt;Node15 -->
<g id="edge20_Node000014_Node000015" class="edge">
<title>Node14&#45;&gt;Node15</title>
<g id="a_edge20_Node000014_Node000015"><a xlink:title=" ">
<path fill="none" stroke="#63b8ff" d="M578.91,-115.37C587.58,-106.47 601.3,-92.39 611.96,-81.45"/>
<polygon fill="#63b8ff" stroke="#63b8ff" points="614.58,-83.77 619.05,-74.17 609.57,-78.89 614.58,-83.77"/>
</a>
</g>
</g>
<!-- Node16 -->
<g id="Node000016" class="node">
<title>Node16</title>
<g id="a_Node000016"><a xlink:title=" ">
<polygon fill="#e0e0e0" stroke="#999999" points="746.5,-74 674.5,-74 674.5,-55 746.5,-55 746.5,-74"/>
<text text-anchor="middle" x="710.5" y="-62" font-family="Helvetica,sans-Serif" font-size="10.00">netinet/in.h</text>
</a>
</g>
</g>
<!-- Node14&#45;&gt;Node16 -->
<g id="edge21_Node000014_Node000016" class="edge">
<title>Node14&#45;&gt;Node16</title>
<g id="a_edge21_Node000014_Node000016"><a xlink:title=" ">
<path fill="none" stroke="#63b8ff" d="M590.86,-115.49C614.5,-105.62 653.7,-89.23 680.75,-77.93"/>
<polygon fill="#63b8ff" stroke="#63b8ff" points="682.24,-81.1 690.12,-74.02 679.54,-74.64 682.24,-81.1"/>
</a>
</g>
</g>
<!-- Node17 -->
<g id="Node000017" class="node">
<title>Node17</title>
<g id="a_Node000017"><a xlink:title=" ">
<polygon fill="#e0e0e0" stroke="#999999" points="842,-74 765,-74 765,-55 842,-55 842,-74"/>
<text text-anchor="middle" x="803.5" y="-62" font-family="Helvetica,sans-Serif" font-size="10.00">sys/socket.h</text>
</a>
</g>
</g>
<!-- Node14&#45;&gt;Node17 -->
<g id="edge23_Node000014_Node000017" class="edge">
<title>Node14&#45;&gt;Node17</title>
<g id="a_edge23_Node000014_Node000017"><a xlink:title=" ">
<path fill="none" stroke="#63b8ff" d="M604.38,-115.49C645.45,-105.18 714.74,-87.78 759.8,-76.47"/>
<polygon fill="#63b8ff" stroke="#63b8ff" points="760.73,-79.85 769.58,-74.02 759.03,-73.06 760.73,-79.85"/>
</a>
</g>
</g>
</g>
</svg>
