<?xml version="1.0" encoding="UTF-8" standalone="no"?>
<!DOCTYPE svg PUBLIC "-//W3C//DTD SVG 1.1//EN"
 "http://www.w3.org/Graphics/SVG/1.1/DTD/svg11.dtd">
<!-- Generated by graphviz version 2.43.0 (0)
 -->
<!-- Title: src/client/client.cpp Pages: 1 -->
<svg width="1128pt" height="379pt"
 viewBox="0.00 0.00 1127.84 379.00" xmlns="http://www.w3.org/2000/svg" xmlns:xlink="http://www.w3.org/1999/xlink">
<g id="graph0" class="graph" transform="scale(1 1) rotate(0) translate(4 375)">
<title>src/client/client.cpp</title>
<!-- Node1 -->
<g id="Node000001" class="node">
<title>Node1</title>
<g id="a_Node000001"><a xlink:title="The entrypoint to the client.">
<polygon fill="#999999" stroke="#666666" points="464.84,-371 353.84,-371 353.84,-352 464.84,-352 464.84,-371"/>
<text text-anchor="middle" x="409.34" y="-359" font-family="Helvetica,sans-Serif" font-size="10.00">src/client/client.cpp</text>
</a>
</g>
</g>
<!-- Node2 -->
<g id="Node000002" class="node">
<title>Node2</title>
<g id="a_Node000002"><a xlink:href="load__tracker__info_8cpp.html" target="_top" xlink:title=" ">
<polygon fill="white" stroke="#666666" points="316.84,-140 185.84,-140 185.84,-110 316.84,-110 316.84,-140"/>
<text text-anchor="start" x="193.84" y="-128" font-family="Helvetica,sans-Serif" font-size="10.00">../common/load_tracker</text>
<text text-anchor="middle" x="251.34" y="-117" font-family="Helvetica,sans-Serif" font-size="10.00">_info.cpp</text>
</a>
</g>
</g>
<!-- Node1&#45;&gt;Node2 -->
<g id="edge1_Node000001_Node000002" class="edge">
<title>Node1&#45;&gt;Node2</title>
<g id="a_edge1_Node000001_Node000002"><a xlink:title=" ">
<path fill="none" stroke="#63b8ff" d="M402.83,-351.73C389.1,-333.18 356.34,-288.5 330.34,-250 306.9,-215.3 281.06,-174.15 265.52,-149.07"/>
<polygon fill="#63b8ff" stroke="#63b8ff" points="268.33,-146.96 260.1,-140.29 262.38,-150.64 268.33,-146.96"/>
</a>
</g>
</g>
<!-- Node12 -->
<g id="Node000012" class="node">
<title>Node12</title>
<g id="a_Node000012"><a xlink:href="network__errors_8hpp.html" target="_top" xlink:title=" ">
<polygon fill="white" stroke="#666666" points="141.34,-316 33.34,-316 33.34,-286 141.34,-286 141.34,-316"/>
<text text-anchor="start" x="41.34" y="-304" font-family="Helvetica,sans-Serif" font-size="10.00">../network/network</text>
<text text-anchor="middle" x="87.34" y="-293" font-family="Helvetica,sans-Serif" font-size="10.00">_errors.hpp</text>
</a>
</g>
</g>
<!-- Node1&#45;&gt;Node12 -->
<g id="edge11_Node000001_Node000012" class="edge">
<title>Node1&#45;&gt;Node12</title>
<g id="a_edge11_Node000001_Node000012"><a xlink:title=" ">
<path fill="none" stroke="#63b8ff" d="M362.52,-351.99C306.92,-341.89 213.89,-324.99 151.59,-313.67"/>
<polygon fill="#63b8ff" stroke="#63b8ff" points="151.94,-310.18 141.48,-311.84 150.69,-317.07 151.94,-310.18"/>
</a>
</g>
</g>
<!-- Node13 -->
<g id="Node000013" class="node">
<title>Node13</title>
<g id="a_Node000013"><a xlink:href="tcp__server_8hpp.html" target="_top" xlink:title=" ">
<polygon fill="white" stroke="#666666" points="479.34,-250 339.34,-250 339.34,-231 479.34,-231 479.34,-250"/>
<text text-anchor="middle" x="409.34" y="-238" font-family="Helvetica,sans-Serif" font-size="10.00">../network/tcp_server.hpp</text>
</a>
</g>
</g>
<!-- Node1&#45;&gt;Node13 -->
<g id="edge13_Node000001_Node000013" class="edge">
<title>Node1&#45;&gt;Node13</title>
<g id="a_edge13_Node000001_Node000013"><a xlink:title=" ">
<path fill="none" stroke="#63b8ff" d="M409.34,-351.94C409.34,-332.91 409.34,-286.69 409.34,-260.47"/>
<polygon fill="#63b8ff" stroke="#63b8ff" points="412.84,-260.3 409.34,-250.3 405.84,-260.3 412.84,-260.3"/>
</a>
</g>
</g>
<!-- Node23 -->
<g id="Node000023" class="node">
<title>Node23</title>
<g id="a_Node000023"><a xlink:href="process__input_8hpp.html" target="_top" xlink:title=" ">
<polygon fill="white" stroke="#666666" points="603.84,-310.5 498.84,-310.5 498.84,-291.5 603.84,-291.5 603.84,-310.5"/>
<text text-anchor="middle" x="551.34" y="-298.5" font-family="Helvetica,sans-Serif" font-size="10.00">process_input.hpp</text>
</a>
</g>
</g>
<!-- Node1&#45;&gt;Node23 -->
<g id="edge26_Node000001_Node000023" class="edge">
<title>Node1&#45;&gt;Node23</title>
<g id="a_edge26_Node000001_Node000023"><a xlink:title=" ">
<path fill="none" stroke="#63b8ff" d="M429.99,-351.99C453.96,-342.12 493.73,-325.73 521.17,-314.43"/>
<polygon fill="#63b8ff" stroke="#63b8ff" points="522.75,-317.56 530.67,-310.52 520.09,-311.09 522.75,-317.56"/>
</a>
</g>
</g>
<!-- Node35 -->
<g id="Node000035" class="node">
<title>Node35</title>
<g id="a_Node000035"><a xlink:href="client_2process__request_8hpp.html" target="_top" xlink:title=" ">
<polygon fill="white" stroke="#666666" points="834.84,-250 717.84,-250 717.84,-231 834.84,-231 834.84,-250"/>
<text text-anchor="middle" x="776.34" y="-238" font-family="Helvetica,sans-Serif" font-size="10.00">process_request.hpp</text>
</a>
</g>
</g>
<!-- Node1&#45;&gt;Node35 -->
<g id="edge55_Node000001_Node000035" class="edge">
<title>Node1&#45;&gt;Node35</title>
<g id="a_edge55_Node000001_Node000035"><a xlink:title=" ">
<path fill="none" stroke="#63b8ff" d="M463.44,-351.95C505.06,-344.61 563.65,-332.56 613.34,-316 664.16,-299.06 720.36,-271.2 751.71,-254.78"/>
<polygon fill="#63b8ff" stroke="#63b8ff" points="753.4,-257.84 760.61,-250.07 750.13,-251.66 753.4,-257.84"/>
</a>
</g>
</g>
<!-- Node3 -->
<g id="Node000003" class="node">
<title>Node3</title>
<g id="a_Node000003"><a xlink:href="endpoint_8hpp.html" target="_top" xlink:title=" ">
<polygon fill="white" stroke="#666666" points="519.34,-74 391.34,-74 391.34,-55 519.34,-55 519.34,-74"/>
<text text-anchor="middle" x="455.34" y="-62" font-family="Helvetica,sans-Serif" font-size="10.00">../models/endpoint.hpp</text>
</a>
</g>
</g>
<!-- Node2&#45;&gt;Node3 -->
<g id="edge2_Node000002_Node000003" class="edge">
<title>Node2&#45;&gt;Node3</title>
<g id="a_edge2_Node000002_Node000003"><a xlink:title=" ">
<path fill="none" stroke="#63b8ff" d="M300.2,-109.99C335.56,-99.85 382.74,-86.32 415.75,-76.85"/>
<polygon fill="#63b8ff" stroke="#63b8ff" points="416.86,-80.17 425.51,-74.05 414.93,-73.45 416.86,-80.17"/>
</a>
</g>
</g>
<!-- Node7 -->
<g id="Node000007" class="node">
<title>Node7</title>
<g id="a_Node000007"><a xlink:title=" ">
<polygon fill="#e0e0e0" stroke="#999999" points="79.34,-74 29.34,-74 29.34,-55 79.34,-55 79.34,-74"/>
<text text-anchor="middle" x="54.34" y="-62" font-family="Helvetica,sans-Serif" font-size="10.00">cstring</text>
</a>
</g>
</g>
<!-- Node2&#45;&gt;Node7 -->
<g id="edge6_Node000002_Node000007" class="edge">
<title>Node2&#45;&gt;Node7</title>
<g id="a_edge6_Node000002_Node000007"><a xlink:title=" ">
<path fill="none" stroke="#63b8ff" d="M204.15,-109.99C168.82,-99.5 121.26,-85.37 89.29,-75.88"/>
<polygon fill="#63b8ff" stroke="#63b8ff" points="90.08,-72.46 79.49,-72.97 88.08,-79.17 90.08,-72.46"/>
</a>
</g>
</g>
<!-- Node8 -->
<g id="Node000008" class="node">
<title>Node8</title>
<g id="a_Node000008"><a xlink:title=" ">
<polygon fill="#e0e0e0" stroke="#999999" points="144.84,-74 97.84,-74 97.84,-55 144.84,-55 144.84,-74"/>
<text text-anchor="middle" x="121.34" y="-62" font-family="Helvetica,sans-Serif" font-size="10.00">fcntl.h</text>
</a>
</g>
</g>
<!-- Node2&#45;&gt;Node8 -->
<g id="edge7_Node000002_Node000008" class="edge">
<title>Node2&#45;&gt;Node8</title>
<g id="a_edge7_Node000002_Node000008"><a xlink:title=" ">
<path fill="none" stroke="#63b8ff" d="M220.2,-109.99C198.8,-100.36 170.61,-87.67 149.81,-78.31"/>
<polygon fill="#63b8ff" stroke="#63b8ff" points="151.09,-75.05 140.54,-74.14 148.22,-81.43 151.09,-75.05"/>
</a>
</g>
</g>
<!-- Node9 -->
<g id="Node000009" class="node">
<title>Node9</title>
<g id="a_Node000009"><a xlink:title=" ">
<polygon fill="#e0e0e0" stroke="#999999" points="223.34,-74 163.34,-74 163.34,-55 223.34,-55 223.34,-74"/>
<text text-anchor="middle" x="193.34" y="-62" font-family="Helvetica,sans-Serif" font-size="10.00">iostream</text>
</a>
</g>
</g>
<!-- Node2&#45;&gt;Node9 -->
<g id="edge8_Node000002_Node000009" class="edge">
<title>Node2&#45;&gt;Node9</title>
<g id="a_edge8_Node000002_Node000009"><a xlink:title=" ">
<path fill="none" stroke="#63b8ff" d="M237.3,-109.84C228.79,-101.26 217.92,-90.3 209.12,-81.42"/>
<polygon fill="#63b8ff" stroke="#63b8ff" points="211.56,-78.9 202.03,-74.27 206.58,-83.83 211.56,-78.9"/>
</a>
</g>
</g>
<!-- Node10 -->
<g id="Node000010" class="node">
<title>Node10</title>
<g id="a_Node000010"><a xlink:title=" ">
<polygon fill="#e0e0e0" stroke="#999999" points="335.34,-74 279.34,-74 279.34,-55 335.34,-55 335.34,-74"/>
<text text-anchor="middle" x="307.34" y="-62" font-family="Helvetica,sans-Serif" font-size="10.00">unistd.h</text>
</a>
</g>
</g>
<!-- Node2&#45;&gt;Node10 -->
<g id="edge9_Node000002_Node000010" class="edge">
<title>Node2&#45;&gt;Node10</title>
<g id="a_edge9_Node000002_Node000010"><a xlink:title=" ">
<path fill="none" stroke="#63b8ff" d="M264.89,-109.84C273.02,-101.35 283.39,-90.52 291.84,-81.69"/>
<polygon fill="#63b8ff" stroke="#63b8ff" points="294.56,-83.91 298.95,-74.27 289.5,-79.07 294.56,-83.91"/>
</a>
</g>
</g>
<!-- Node11 -->
<g id="Node000011" class="node">
<title>Node11</title>
<g id="a_Node000011"><a xlink:title=" ">
<polygon fill="#e0e0e0" stroke="#999999" points="386.84,-19 339.84,-19 339.84,0 386.84,0 386.84,-19"/>
<text text-anchor="middle" x="363.34" y="-7" font-family="Helvetica,sans-Serif" font-size="10.00">vector</text>
</a>
</g>
</g>
<!-- Node2&#45;&gt;Node11 -->
<g id="edge10_Node000002_Node000011" class="edge">
<title>Node2&#45;&gt;Node11</title>
<g id="a_edge10_Node000002_Node000011"><a xlink:title=" ">
<path fill="none" stroke="#63b8ff" d="M251.87,-109.73C253.14,-94.55 257.26,-70.63 270.34,-55 285.57,-36.8 309.97,-25.51 329.96,-18.86"/>
<polygon fill="#63b8ff" stroke="#63b8ff" points="331.12,-22.17 339.65,-15.88 329.06,-15.48 331.12,-22.17"/>
</a>
</g>
</g>
<!-- Node4 -->
<g id="Node000004" class="node">
<title>Node4</title>
<g id="a_Node000004"><a xlink:title=" ">
<polygon fill="#e0e0e0" stroke="#999999" points="547.34,-19 497.34,-19 497.34,0 547.34,0 547.34,-19"/>
<text text-anchor="middle" x="522.34" y="-7" font-family="Helvetica,sans-Serif" font-size="10.00">cstdint</text>
</a>
</g>
</g>
<!-- Node3&#45;&gt;Node4 -->
<g id="edge3_Node000003_Node000004" class="edge">
<title>Node3&#45;&gt;Node4</title>
<g id="a_edge3_Node000003_Node000004"><a xlink:title=" ">
<path fill="none" stroke="#63b8ff" d="M466.1,-54.98C476.1,-47.07 491.22,-35.11 503.27,-25.58"/>
<polygon fill="#63b8ff" stroke="#63b8ff" points="505.71,-28.12 511.38,-19.17 501.36,-22.63 505.71,-28.12"/>
</a>
</g>
</g>
<!-- Node5 -->
<g id="Node000005" class="node">
<title>Node5</title>
<g id="a_Node000005"><a xlink:title=" ">
<polygon fill="#e0e0e0" stroke="#999999" points="478.84,-19 413.84,-19 413.84,0 478.84,0 478.84,-19"/>
<text text-anchor="middle" x="446.34" y="-7" font-family="Helvetica,sans-Serif" font-size="10.00">stdexcept</text>
</a>
</g>
</g>
<!-- Node3&#45;&gt;Node5 -->
<g id="edge4_Node000003_Node000005" class="edge">
<title>Node3&#45;&gt;Node5</title>
<g id="a_edge4_Node000003_Node000005"><a xlink:title=" ">
<path fill="none" stroke="#63b8ff" d="M453.85,-54.75C452.67,-47.8 450.98,-37.85 449.5,-29.13"/>
<polygon fill="#63b8ff" stroke="#63b8ff" points="452.92,-28.36 447.8,-19.09 446.02,-29.53 452.92,-28.36"/>
</a>
</g>
</g>
<!-- Node6 -->
<g id="Node000006" class="node">
<title>Node6</title>
<g id="a_Node000006"><a xlink:title=" ">
<polygon fill="#e0e0e0" stroke="#999999" points="855.34,-19 811.34,-19 811.34,0 855.34,0 855.34,-19"/>
<text text-anchor="middle" x="833.34" y="-7" font-family="Helvetica,sans-Serif" font-size="10.00">string</text>
</a>
</g>
</g>
<!-- Node3&#45;&gt;Node6 -->
<g id="edge5_Node000003_Node000006" class="edge">
<title>Node3&#45;&gt;Node6</title>
<g id="a_edge5_Node000003_Node000006"><a xlink:title=" ">
<path fill="none" stroke="#63b8ff" d="M516.07,-54.98C597.15,-43.62 737.87,-23.89 801.03,-15.03"/>
<polygon fill="#63b8ff" stroke="#63b8ff" points="801.77,-18.46 811.18,-13.61 800.8,-11.53 801.77,-18.46"/>
</a>
</g>
</g>
<!-- Node12&#45;&gt;Node5 -->
<g id="edge12_Node000012_Node000005" class="edge">
<title>Node12&#45;&gt;Node5</title>
<g id="a_edge12_Node000012_Node000005"><a xlink:title=" ">
<path fill="none" stroke="#63b8ff" d="M66.52,-285.77C41.07,-266.49 1.34,-229.52 1.34,-186.5 1.34,-186.5 1.34,-186.5 1.34,-124 1.34,-92.19 -4.01,-75.46 20.34,-55 84.6,-1 313.13,-30.04 396.34,-19 398.7,-18.69 401.11,-18.35 403.55,-17.99"/>
<polygon fill="#63b8ff" stroke="#63b8ff" points="404.24,-21.42 413.58,-16.42 403.16,-14.5 404.24,-21.42"/>
</a>
</g>
</g>
<!-- Node14 -->
<g id="Node000014" class="node">
<title>Node14</title>
<g id="a_Node000014"><a xlink:title=" ">
<polygon fill="#e0e0e0" stroke="#999999" points="612.34,-195 562.34,-195 562.34,-176 612.34,-176 612.34,-195"/>
<text text-anchor="middle" x="587.34" y="-183" font-family="Helvetica,sans-Serif" font-size="10.00">atomic</text>
</a>
</g>
</g>
<!-- Node13&#45;&gt;Node14 -->
<g id="edge14_Node000013_Node000014" class="edge">
<title>Node13&#45;&gt;Node14</title>
<g id="a_edge14_Node000013_Node000014"><a xlink:title=" ">
<path fill="none" stroke="#63b8ff" d="M437.94,-230.98C469.11,-221.7 519,-206.85 552.45,-196.89"/>
<polygon fill="#63b8ff" stroke="#63b8ff" points="553.68,-200.17 562.26,-193.97 551.68,-193.47 553.68,-200.17"/>
</a>
</g>
</g>
<!-- Node15 -->
<g id="Node000015" class="node">
<title>Node15</title>
<g id="a_Node000015"><a xlink:title=" ">
<polygon fill="#e0e0e0" stroke="#999999" points="477.84,-195 412.84,-195 412.84,-176 477.84,-176 477.84,-195"/>
<text text-anchor="middle" x="445.34" y="-183" font-family="Helvetica,sans-Serif" font-size="10.00">functional</text>
</a>
</g>
</g>
<!-- Node13&#45;&gt;Node15 -->
<g id="edge15_Node000013_Node000015" class="edge">
<title>Node13&#45;&gt;Node15</title>
<g id="a_edge15_Node000013_Node000015"><a xlink:title=" ">
<path fill="none" stroke="#63b8ff" d="M415.28,-230.75C420.32,-223.34 427.68,-212.5 433.85,-203.41"/>
<polygon fill="#63b8ff" stroke="#63b8ff" points="436.78,-205.33 439.5,-195.09 430.99,-201.39 436.78,-205.33"/>
</a>
</g>
</g>
<!-- Node16 -->
<g id="Node000016" class="node">
<title>Node16</title>
<g id="a_Node000016"><a xlink:title=" ">
<polygon fill="#e0e0e0" stroke="#999999" points="356.34,-195 324.34,-195 324.34,-176 356.34,-176 356.34,-195"/>
<text text-anchor="middle" x="340.34" y="-183" font-family="Helvetica,sans-Serif" font-size="10.00">list</text>
</a>
</g>
</g>
<!-- Node13&#45;&gt;Node16 -->
<g id="edge16_Node000013_Node000016" class="edge">
<title>Node13&#45;&gt;Node16</title>
<g id="a_edge16_Node000013_Node000016"><a xlink:title=" ">
<path fill="none" stroke="#63b8ff" d="M398.25,-230.98C387.85,-223 372.08,-210.88 359.62,-201.31"/>
<polygon fill="#63b8ff" stroke="#63b8ff" points="361.69,-198.49 351.63,-195.17 357.42,-204.04 361.69,-198.49"/>
</a>
</g>
</g>
<!-- Node17 -->
<g id="Node000017" class="node">
<title>Node17</title>
<g id="a_Node000017"><a xlink:title=" ">
<polygon fill="#e0e0e0" stroke="#999999" points="832.34,-134.5 784.34,-134.5 784.34,-115.5 832.34,-115.5 832.34,-134.5"/>
<text text-anchor="middle" x="808.34" y="-122.5" font-family="Helvetica,sans-Serif" font-size="10.00">mutex</text>
</a>
</g>
</g>
<!-- Node13&#45;&gt;Node17 -->
<g id="edge17_Node000013_Node000017" class="edge">
<title>Node13&#45;&gt;Node17</title>
<g id="a_edge17_Node000013_Node000017"><a xlink:title=" ">
<path fill="none" stroke="#63b8ff" d="M405.13,-230.83C399.23,-217.28 390.66,-191.07 404.34,-176 460.01,-114.67 695.06,-160.41 775.34,-140 777.28,-139.51 779.26,-138.91 781.24,-138.26"/>
<polygon fill="#63b8ff" stroke="#63b8ff" points="782.78,-141.41 790.87,-134.58 780.28,-134.87 782.78,-141.41"/>
</a>
</g>
</g>
<!-- Node18 -->
<g id="Node000018" class="node">
<title>Node18</title>
<g id="a_Node000018"><a xlink:title=" ">
<polygon fill="#e0e0e0" stroke="#999999" points="544.34,-195 496.34,-195 496.34,-176 544.34,-176 544.34,-195"/>
<text text-anchor="middle" x="520.34" y="-183" font-family="Helvetica,sans-Serif" font-size="10.00">thread</text>
</a>
</g>
</g>
<!-- Node13&#45;&gt;Node18 -->
<g id="edge18_Node000013_Node000018" class="edge">
<title>Node13&#45;&gt;Node18</title>
<g id="a_edge18_Node000013_Node000018"><a xlink:title=" ">
<path fill="none" stroke="#63b8ff" d="M427.17,-230.98C444.95,-222.5 472.49,-209.35 493.02,-199.54"/>
<polygon fill="#63b8ff" stroke="#63b8ff" points="494.66,-202.64 502.18,-195.17 491.65,-196.32 494.66,-202.64"/>
</a>
</g>
</g>
<!-- Node19 -->
<g id="Node000019" class="node">
<title>Node19</title>
<g id="a_Node000019"><a xlink:href="tcp__socket_8hpp.html" target="_top" xlink:title=" ">
<polygon fill="white" stroke="#666666" points="646.84,-134.5 557.84,-134.5 557.84,-115.5 646.84,-115.5 646.84,-134.5"/>
<text text-anchor="middle" x="602.34" y="-122.5" font-family="Helvetica,sans-Serif" font-size="10.00">tcp_socket.hpp</text>
</a>
</g>
</g>
<!-- Node13&#45;&gt;Node19 -->
<g id="edge19_Node000013_Node000019" class="edge">
<title>Node13&#45;&gt;Node19</title>
<g id="a_edge19_Node000013_Node000019"><a xlink:title=" ">
<path fill="none" stroke="#63b8ff" d="M375.48,-230.94C340.62,-220.53 294.17,-201.17 315.34,-176 344.41,-141.43 472.6,-130.76 547.47,-127.47"/>
<polygon fill="#63b8ff" stroke="#63b8ff" points="547.81,-130.96 557.66,-127.05 547.53,-123.96 547.81,-130.96"/>
</a>
</g>
</g>
<!-- Node19&#45;&gt;Node6 -->
<g id="edge22_Node000019_Node000006" class="edge">
<title>Node19&#45;&gt;Node6</title>
<g id="a_edge22_Node000019_Node000006"><a xlink:title=" ">
<path fill="none" stroke="#63b8ff" d="M622.77,-115.39C645.37,-105.75 682.78,-89.44 714.34,-74 747.62,-57.72 785.21,-37.31 809.08,-24.09"/>
<polygon fill="#63b8ff" stroke="#63b8ff" points="811.07,-26.99 818.11,-19.07 807.67,-20.87 811.07,-26.99"/>
</a>
</g>
</g>
<!-- Node19&#45;&gt;Node10 -->
<g id="edge24_Node000019_Node000010" class="edge">
<title>Node19&#45;&gt;Node10</title>
<g id="a_edge24_Node000019_Node000010"><a xlink:title=" ">
<path fill="none" stroke="#63b8ff" d="M558.9,-115.48C508.49,-105.57 422.88,-88.71 349.34,-74 348.07,-73.75 346.77,-73.49 345.47,-73.22"/>
<polygon fill="#63b8ff" stroke="#63b8ff" points="345.84,-69.73 335.35,-71.19 344.46,-76.59 345.84,-69.73"/>
</a>
</g>
</g>
<!-- Node19&#45;&gt;Node11 -->
<g id="edge25_Node000019_Node000011" class="edge">
<title>Node19&#45;&gt;Node11</title>
<g id="a_edge25_Node000019_Node000011"><a xlink:title=" ">
<path fill="none" stroke="#63b8ff" d="M557.72,-119.18C500.99,-112.18 407.37,-97.41 382.34,-74 370.13,-62.59 365.66,-43.7 364.08,-29.48"/>
<polygon fill="#63b8ff" stroke="#63b8ff" points="367.55,-29.03 363.33,-19.31 360.57,-29.54 367.55,-29.03"/>
</a>
</g>
</g>
<!-- Node20 -->
<g id="Node000020" class="node">
<title>Node20</title>
<g id="a_Node000020"><a xlink:title=" ">
<polygon fill="#e0e0e0" stroke="#999999" points="819.34,-74 761.34,-74 761.34,-55 819.34,-55 819.34,-74"/>
<text text-anchor="middle" x="790.34" y="-62" font-family="Helvetica,sans-Serif" font-size="10.00">memory</text>
</a>
</g>
</g>
<!-- Node19&#45;&gt;Node20 -->
<g id="edge20_Node000019_Node000020" class="edge">
<title>Node19&#45;&gt;Node20</title>
<g id="a_edge20_Node000019_Node000020"><a xlink:title=" ">
<path fill="none" stroke="#63b8ff" d="M629.68,-115.49C662.26,-105.36 716.85,-88.37 753.23,-77.05"/>
<polygon fill="#63b8ff" stroke="#63b8ff" points="754.46,-80.33 762.97,-74.02 752.38,-73.65 754.46,-80.33"/>
</a>
</g>
</g>
<!-- Node21 -->
<g id="Node000021" class="node">
<title>Node21</title>
<g id="a_Node000021"><a xlink:title=" ">
<polygon fill="#e0e0e0" stroke="#999999" points="609.34,-74 537.34,-74 537.34,-55 609.34,-55 609.34,-74"/>
<text text-anchor="middle" x="573.34" y="-62" font-family="Helvetica,sans-Serif" font-size="10.00">netinet/in.h</text>
</a>
</g>
</g>
<!-- Node19&#45;&gt;Node21 -->
<g id="edge21_Node000019_Node000021" class="edge">
<title>Node19&#45;&gt;Node21</title>
<g id="a_edge21_Node000019_Node000021"><a xlink:title=" ">
<path fill="none" stroke="#63b8ff" d="M598.06,-115.37C593.9,-106.99 587.47,-94.01 582.21,-83.39"/>
<polygon fill="#63b8ff" stroke="#63b8ff" points="585.21,-81.57 577.63,-74.17 578.94,-84.68 585.21,-81.57"/>
</a>
</g>
</g>
<!-- Node22 -->
<g id="Node000022" class="node">
<title>Node22</title>
<g id="a_Node000022"><a xlink:title=" ">
<polygon fill="#e0e0e0" stroke="#999999" points="704.84,-74 627.84,-74 627.84,-55 704.84,-55 704.84,-74"/>
<text text-anchor="middle" x="666.34" y="-62" font-family="Helvetica,sans-Serif" font-size="10.00">sys/socket.h</text>
</a>
</g>
</g>
<!-- Node19&#45;&gt;Node22 -->
<g id="edge23_Node000019_Node000022" class="edge">
<title>Node19&#45;&gt;Node22</title>
<g id="a_edge23_Node000019_Node000022"><a xlink:title=" ">
<path fill="none" stroke="#63b8ff" d="M611.78,-115.37C621.61,-106.38 637.22,-92.11 649.23,-81.14"/>
<polygon fill="#63b8ff" stroke="#63b8ff" points="651.84,-83.5 656.86,-74.17 647.11,-78.33 651.84,-83.5"/>
</a>
</g>
</g>
<!-- Node24 -->
<g id="Node000024" class="node">
<title>Node24</title>
<g id="a_Node000024"><a xlink:href="downloadmanager_8hpp.html" target="_top" xlink:title=" ">
<polygon fill="white" stroke="#666666" points="659.34,-250 531.34,-250 531.34,-231 659.34,-231 659.34,-250"/>
<text text-anchor="middle" x="595.34" y="-238" font-family="Helvetica,sans-Serif" font-size="10.00">downloadmanager.hpp</text>
</a>
</g>
</g>
<!-- Node23&#45;&gt;Node24 -->
<g id="edge27_Node000023_Node000024" class="edge">
<title>Node23&#45;&gt;Node24</title>
<g id="a_edge27_Node000023_Node000024"><a xlink:title=" ">
<path fill="none" stroke="#63b8ff" d="M557.83,-291.37C564.33,-282.73 574.5,-269.2 582.62,-258.42"/>
<polygon fill="#63b8ff" stroke="#63b8ff" points="585.61,-260.26 588.82,-250.17 580.01,-256.06 585.61,-260.26"/>
</a>
</g>
</g>
<!-- Node24&#45;&gt;Node14 -->
<g id="edge28_Node000024_Node000014" class="edge">
<title>Node24&#45;&gt;Node14</title>
<g id="a_edge28_Node000024_Node000014"><a xlink:title=" ">
<path fill="none" stroke="#63b8ff" d="M594.02,-230.75C592.97,-223.8 591.47,-213.85 590.15,-205.13"/>
<polygon fill="#63b8ff" stroke="#63b8ff" points="593.59,-204.45 588.63,-195.09 586.67,-205.5 593.59,-204.45"/>
</a>
</g>
</g>
<!-- Node24&#45;&gt;Node15 -->
<g id="edge30_Node000024_Node000015" class="edge">
<title>Node24&#45;&gt;Node15</title>
<g id="a_edge30_Node000024_Node000015"><a xlink:title=" ">
<path fill="none" stroke="#63b8ff" d="M571.24,-230.98C546.46,-222.23 507.63,-208.51 479.65,-198.62"/>
<polygon fill="#63b8ff" stroke="#63b8ff" points="480.47,-195.2 469.88,-195.17 478.14,-201.8 480.47,-195.2"/>
</a>
</g>
</g>
<!-- Node24&#45;&gt;Node18 -->
<g id="edge31_Node000024_Node000018" class="edge">
<title>Node24&#45;&gt;Node18</title>
<g id="a_edge31_Node000024_Node000018"><a xlink:title=" ">
<path fill="none" stroke="#63b8ff" d="M583.29,-230.98C571.88,-222.92 554.51,-210.65 540.9,-201.03"/>
<polygon fill="#63b8ff" stroke="#63b8ff" points="542.79,-198.08 532.61,-195.17 538.75,-203.8 542.79,-198.08"/>
</a>
</g>
</g>
<!-- Node24&#45;&gt;Node19 -->
<g id="edge32_Node000024_Node000019" class="edge">
<title>Node24&#45;&gt;Node19</title>
<g id="a_edge32_Node000024_Node000019"><a xlink:title=" ">
<path fill="none" stroke="#63b8ff" d="M602.23,-230.93C608.61,-222.4 617.64,-208.65 621.34,-195 626.04,-177.63 619.34,-157.83 612.63,-143.9"/>
<polygon fill="#63b8ff" stroke="#63b8ff" points="615.66,-142.15 607.91,-134.93 609.47,-145.41 615.66,-142.15"/>
</a>
</g>
</g>
<!-- Node25 -->
<g id="Node000025" class="node">
<title>Node25</title>
<g id="a_Node000025"><a xlink:title=" ">
<polygon fill="#e0e0e0" stroke="#999999" points="715.84,-195 668.84,-195 668.84,-176 715.84,-176 715.84,-195"/>
<text text-anchor="middle" x="692.34" y="-183" font-family="Helvetica,sans-Serif" font-size="10.00">deque</text>
</a>
</g>
</g>
<!-- Node24&#45;&gt;Node25 -->
<g id="edge29_Node000024_Node000025" class="edge">
<title>Node24&#45;&gt;Node25</title>
<g id="a_edge29_Node000024_Node000025"><a xlink:title=" ">
<path fill="none" stroke="#63b8ff" d="M610.92,-230.98C626.11,-222.69 649.44,-209.94 667.24,-200.22"/>
<polygon fill="#63b8ff" stroke="#63b8ff" points="669.37,-203.04 676.47,-195.17 666.02,-196.89 669.37,-203.04"/>
</a>
</g>
</g>
<!-- Node26 -->
<g id="Node000026" class="node">
<title>Node26</title>
<g id="a_Node000026"><a xlink:href="filesdb_8hpp.html" target="_top" xlink:title=" ">
<polygon fill="white" stroke="#666666" points="932.34,-195 862.34,-195 862.34,-176 932.34,-176 932.34,-195"/>
<text text-anchor="middle" x="897.34" y="-183" font-family="Helvetica,sans-Serif" font-size="10.00">filesdb.hpp</text>
</a>
</g>
</g>
<!-- Node24&#45;&gt;Node26 -->
<g id="edge33_Node000024_Node000026" class="edge">
<title>Node24&#45;&gt;Node26</title>
<g id="a_edge33_Node000024_Node000026"><a xlink:title=" ">
<path fill="none" stroke="#63b8ff" d="M646.79,-230.94C696.77,-222.55 775.05,-209.23 852.37,-195.15"/>
<polygon fill="#63b8ff" stroke="#63b8ff" points="853.08,-198.58 862.29,-193.34 851.82,-191.69 853.08,-198.58"/>
</a>
</g>
</g>
<!-- Node33 -->
<g id="Node000033" class="node">
<title>Node33</title>
<g id="a_Node000033"><a xlink:href="peerdb_8hpp.html" target="_top" xlink:title=" ">
<polygon fill="white" stroke="#666666" points="843.84,-195 772.84,-195 772.84,-176 843.84,-176 843.84,-195"/>
<text text-anchor="middle" x="808.34" y="-183" font-family="Helvetica,sans-Serif" font-size="10.00">peerdb.hpp</text>
</a>
</g>
</g>
<!-- Node24&#45;&gt;Node33 -->
<g id="edge46_Node000024_Node000033" class="edge">
<title>Node24&#45;&gt;Node33</title>
<g id="a_edge46_Node000024_Node000033"><a xlink:title=" ">
<path fill="none" stroke="#63b8ff" d="M629.56,-230.98C666.09,-221.89 724.12,-207.46 764.1,-197.51"/>
<polygon fill="#63b8ff" stroke="#63b8ff" points="764.99,-200.89 773.85,-195.08 763.3,-194.1 764.99,-200.89"/>
</a>
</g>
</g>
<!-- Node26&#45;&gt;Node17 -->
<g id="edge34_Node000026_Node000017" class="edge">
<title>Node26&#45;&gt;Node17</title>
<g id="a_edge34_Node000026_Node000017"><a xlink:title=" ">
<path fill="none" stroke="#63b8ff" d="M884.21,-175.87C870.01,-166.54 847.14,-151.51 830.22,-140.38"/>
<polygon fill="#63b8ff" stroke="#63b8ff" points="831.8,-137.24 821.52,-134.67 827.96,-143.08 831.8,-137.24"/>
</a>
</g>
</g>
<!-- Node27 -->
<g id="Node000027" class="node">
<title>Node27</title>
<g id="a_Node000027"><a xlink:title=" ">
<polygon fill="#e0e0e0" stroke="#999999" points="943.84,-134.5 850.84,-134.5 850.84,-115.5 943.84,-115.5 943.84,-134.5"/>
<text text-anchor="middle" x="897.34" y="-122.5" font-family="Helvetica,sans-Serif" font-size="10.00">unordered_map</text>
</a>
</g>
</g>
<!-- Node26&#45;&gt;Node27 -->
<g id="edge35_Node000026_Node000027" class="edge">
<title>Node26&#45;&gt;Node27</title>
<g id="a_edge35_Node000026_Node000027"><a xlink:title=" ">
<path fill="none" stroke="#63b8ff" d="M897.34,-175.87C897.34,-167.75 897.34,-155.31 897.34,-144.89"/>
<polygon fill="#63b8ff" stroke="#63b8ff" points="900.84,-144.67 897.34,-134.67 893.84,-144.67 900.84,-144.67"/>
</a>
</g>
</g>
<!-- Node28 -->
<g id="Node000028" class="node">
<title>Node28</title>
<g id="a_Node000028"><a xlink:href="file__id_8hpp.html" target="_top" xlink:title=" ">
<polygon fill="white" stroke="#666666" points="1119.84,-134.5 1052.84,-134.5 1052.84,-115.5 1119.84,-115.5 1119.84,-134.5"/>
<text text-anchor="middle" x="1086.34" y="-122.5" font-family="Helvetica,sans-Serif" font-size="10.00">file_id.hpp</text>
</a>
</g>
</g>
<!-- Node26&#45;&gt;Node28 -->
<g id="edge36_Node000026_Node000028" class="edge">
<title>Node26&#45;&gt;Node28</title>
<g id="a_edge36_Node000026_Node000028"><a xlink:title=" ">
<path fill="none" stroke="#63b8ff" d="M925.92,-175.96C955.39,-167.12 1002.65,-152.82 1043.34,-140 1045.76,-139.24 1048.26,-138.44 1050.78,-137.64"/>
<polygon fill="#63b8ff" stroke="#63b8ff" points="1052,-140.92 1060.44,-134.52 1049.85,-134.26 1052,-140.92"/>
</a>
</g>
</g>
<!-- Node29 -->
<g id="Node000029" class="node">
<title>Node29</title>
<g id="a_Node000029"><a xlink:href="partfile_8hpp.html" target="_top" xlink:title=" ">
<polygon fill="white" stroke="#666666" points="1034.34,-134.5 962.34,-134.5 962.34,-115.5 1034.34,-115.5 1034.34,-134.5"/>
<text text-anchor="middle" x="998.34" y="-122.5" font-family="Helvetica,sans-Serif" font-size="10.00">partfile.hpp</text>
</a>
</g>
</g>
<!-- Node26&#45;&gt;Node29 -->
<g id="edge38_Node000026_Node000029" class="edge">
<title>Node26&#45;&gt;Node29</title>
<g id="a_edge38_Node000026_Node000029"><a xlink:title=" ">
<path fill="none" stroke="#63b8ff" d="M912.24,-175.87C928.65,-166.36 955.27,-150.95 974.56,-139.77"/>
<polygon fill="#63b8ff" stroke="#63b8ff" points="976.48,-142.71 983.37,-134.67 972.97,-136.65 976.48,-142.71"/>
</a>
</g>
</g>
<!-- Node28&#45;&gt;Node6 -->
<g id="edge37_Node000028_Node000006" class="edge">
<title>Node28&#45;&gt;Node6</title>
<g id="a_edge37_Node000028_Node000006"><a xlink:title=" ">
<path fill="none" stroke="#63b8ff" d="M1087.08,-115.37C1087.83,-100.71 1087.03,-71 1070.34,-55 1041.46,-27.32 923.62,-16.17 865.74,-12.29"/>
<polygon fill="#63b8ff" stroke="#63b8ff" points="865.86,-8.79 855.66,-11.65 865.42,-15.78 865.86,-8.79"/>
</a>
</g>
</g>
<!-- Node29&#45;&gt;Node20 -->
<g id="edge39_Node000029_Node000020" class="edge">
<title>Node29&#45;&gt;Node20</title>
<g id="a_edge39_Node000029_Node000020"><a xlink:title=" ">
<path fill="none" stroke="#63b8ff" d="M971.26,-115.41C965.36,-113.58 959.15,-111.7 953.34,-110 911.1,-97.67 862.41,-84.51 829.32,-75.73"/>
<polygon fill="#63b8ff" stroke="#63b8ff" points="830.14,-72.33 819.58,-73.15 828.35,-79.09 830.14,-72.33"/>
</a>
</g>
</g>
<!-- Node30 -->
<g id="Node000030" class="node">
<title>Node30</title>
<g id="a_Node000030"><a xlink:title=" ">
<polygon fill="#e0e0e0" stroke="#999999" points="923.34,-74 837.34,-74 837.34,-55 923.34,-55 923.34,-74"/>
<text text-anchor="middle" x="880.34" y="-62" font-family="Helvetica,sans-Serif" font-size="10.00">unordered_set</text>
</a>
</g>
</g>
<!-- Node29&#45;&gt;Node30 -->
<g id="edge40_Node000029_Node000030" class="edge">
<title>Node29&#45;&gt;Node30</title>
<g id="a_edge40_Node000029_Node000030"><a xlink:title=" ">
<path fill="none" stroke="#63b8ff" d="M981.18,-115.49C961.6,-105.79 929.37,-89.81 906.62,-78.53"/>
<polygon fill="#63b8ff" stroke="#63b8ff" points="908.03,-75.32 897.52,-74.02 904.92,-81.59 908.03,-75.32"/>
</a>
</g>
</g>
<!-- Node31 -->
<g id="Node000031" class="node">
<title>Node31</title>
<g id="a_Node000031"><a xlink:href="fileinfo_8hpp.html" target="_top" xlink:title=" ">
<polygon fill="white" stroke="#666666" points="1060.84,-74 941.84,-74 941.84,-55 1060.84,-55 1060.84,-74"/>
<text text-anchor="middle" x="1001.34" y="-62" font-family="Helvetica,sans-Serif" font-size="10.00">../models/fileinfo.hpp</text>
</a>
</g>
</g>
<!-- Node29&#45;&gt;Node31 -->
<g id="edge41_Node000029_Node000031" class="edge">
<title>Node29&#45;&gt;Node31</title>
<g id="a_edge41_Node000029_Node000031"><a xlink:title=" ">
<path fill="none" stroke="#63b8ff" d="M998.78,-115.37C999.2,-107.25 999.84,-94.81 1000.37,-84.39"/>
<polygon fill="#63b8ff" stroke="#63b8ff" points="1003.88,-84.33 1000.89,-74.17 996.89,-83.97 1003.88,-84.33"/>
</a>
</g>
</g>
<!-- Node31&#45;&gt;Node5 -->
<g id="edge43_Node000031_Node000005" class="edge">
<title>Node31&#45;&gt;Node5</title>
<g id="a_edge43_Node000031_Node000005"><a xlink:title=" ">
<path fill="none" stroke="#63b8ff" d="M941.52,-55.98C938.41,-55.63 935.34,-55.31 932.34,-55 738.65,-35.23 686.11,-46.3 489.38,-18.97"/>
<polygon fill="#63b8ff" stroke="#63b8ff" points="489.68,-15.48 479.29,-17.55 488.71,-22.41 489.68,-15.48"/>
</a>
</g>
</g>
<!-- Node31&#45;&gt;Node6 -->
<g id="edge44_Node000031_Node000006" class="edge">
<title>Node31&#45;&gt;Node6</title>
<g id="a_edge44_Node000031_Node000006"><a xlink:title=" ">
<path fill="none" stroke="#63b8ff" d="M974.35,-54.98C944.55,-45.58 896.64,-30.47 865.07,-20.51"/>
<polygon fill="#63b8ff" stroke="#63b8ff" points="866.03,-17.14 855.44,-17.47 863.92,-23.82 866.03,-17.14"/>
</a>
</g>
</g>
<!-- Node31&#45;&gt;Node11 -->
<g id="edge45_Node000031_Node000011" class="edge">
<title>Node31&#45;&gt;Node11</title>
<g id="a_edge45_Node000031_Node000011"><a xlink:title=" ">
<path fill="none" stroke="#63b8ff" d="M941.52,-55.93C938.42,-55.6 935.34,-55.29 932.34,-55 698.64,-32.64 638,-50.35 405.34,-19 402.67,-18.64 399.91,-18.21 397.14,-17.74"/>
<polygon fill="#63b8ff" stroke="#63b8ff" points="397.7,-14.29 387.23,-15.9 396.43,-21.17 397.7,-14.29"/>
</a>
</g>
</g>
<!-- Node32 -->
<g id="Node000032" class="node">
<title>Node32</title>
<g id="a_Node000032"><a xlink:title=" ">
<polygon fill="#e0e0e0" stroke="#999999" points="1029.34,-19 973.34,-19 973.34,0 1029.34,0 1029.34,-19"/>
<text text-anchor="middle" x="1001.34" y="-7" font-family="Helvetica,sans-Serif" font-size="10.00">sstream</text>
</a>
</g>
</g>
<!-- Node31&#45;&gt;Node32 -->
<g id="edge42_Node000031_Node000032" class="edge">
<title>Node31&#45;&gt;Node32</title>
<g id="a_edge42_Node000031_Node000032"><a xlink:title=" ">
<path fill="none" stroke="#63b8ff" d="M1001.34,-54.75C1001.34,-47.8 1001.34,-37.85 1001.34,-29.13"/>
<polygon fill="#63b8ff" stroke="#63b8ff" points="1004.84,-29.09 1001.34,-19.09 997.84,-29.09 1004.84,-29.09"/>
</a>
</g>
</g>
<!-- Node33&#45;&gt;Node17 -->
<g id="edge47_Node000033_Node000017" class="edge">
<title>Node33&#45;&gt;Node17</title>
<g id="a_edge47_Node000033_Node000017"><a xlink:title=" ">
<path fill="none" stroke="#63b8ff" d="M808.34,-175.87C808.34,-167.75 808.34,-155.31 808.34,-144.89"/>
<polygon fill="#63b8ff" stroke="#63b8ff" points="811.84,-144.67 808.34,-134.67 804.84,-144.67 811.84,-144.67"/>
</a>
</g>
</g>
<!-- Node33&#45;&gt;Node27 -->
<g id="edge48_Node000033_Node000027" class="edge">
<title>Node33&#45;&gt;Node27</title>
<g id="a_edge48_Node000033_Node000027"><a xlink:title=" ">
<path fill="none" stroke="#63b8ff" d="M821.47,-175.87C835.67,-166.54 858.53,-151.51 875.46,-140.38"/>
<polygon fill="#63b8ff" stroke="#63b8ff" points="877.72,-143.08 884.15,-134.67 873.87,-137.24 877.72,-143.08"/>
</a>
</g>
</g>
<!-- Node33&#45;&gt;Node28 -->
<g id="edge54_Node000033_Node000028" class="edge">
<title>Node33&#45;&gt;Node28</title>
<g id="a_edge54_Node000033_Node000028"><a xlink:title=" ">
<path fill="none" stroke="#63b8ff" d="M844.06,-177.75C909.52,-165.38 1042.13,-140.31 1043.34,-140 1046.29,-139.24 1049.33,-138.4 1052.36,-137.5"/>
<polygon fill="#63b8ff" stroke="#63b8ff" points="1053.42,-140.84 1061.94,-134.54 1051.35,-134.15 1053.42,-140.84"/>
</a>
</g>
</g>
<!-- Node34 -->
<g id="Node000034" class="node">
<title>Node34</title>
<g id="a_Node000034"><a xlink:href="file_8hpp.html" target="_top" xlink:title=" ">
<polygon fill="white" stroke="#666666" points="765.84,-134.5 664.84,-134.5 664.84,-115.5 765.84,-115.5 765.84,-134.5"/>
<text text-anchor="middle" x="715.34" y="-122.5" font-family="Helvetica,sans-Serif" font-size="10.00">../models/file.hpp</text>
</a>
</g>
</g>
<!-- Node33&#45;&gt;Node34 -->
<g id="edge49_Node000033_Node000034" class="edge">
<title>Node33&#45;&gt;Node34</title>
<g id="a_edge49_Node000033_Node000034"><a xlink:title=" ">
<path fill="none" stroke="#63b8ff" d="M794.62,-175.87C779.64,-166.45 755.44,-151.23 737.72,-140.08"/>
<polygon fill="#63b8ff" stroke="#63b8ff" points="739.45,-137.03 729.12,-134.67 735.72,-142.95 739.45,-137.03"/>
</a>
</g>
</g>
<!-- Node34&#45;&gt;Node3 -->
<g id="edge52_Node000034_Node000003" class="edge">
<title>Node34&#45;&gt;Node3</title>
<g id="a_edge52_Node000034_Node000003"><a xlink:title=" ">
<path fill="none" stroke="#63b8ff" d="M679.79,-115.47C672.06,-113.65 663.93,-111.74 656.34,-110 604.63,-98.14 545.32,-85.08 504.6,-76.19"/>
<polygon fill="#63b8ff" stroke="#63b8ff" points="505.18,-72.73 494.66,-74.02 503.69,-79.57 505.18,-72.73"/>
</a>
</g>
</g>
<!-- Node34&#45;&gt;Node20 -->
<g id="edge50_Node000034_Node000020" class="edge">
<title>Node34&#45;&gt;Node20</title>
<g id="a_edge50_Node000034_Node000020"><a xlink:title=" ">
<path fill="none" stroke="#63b8ff" d="M726.4,-115.37C738.15,-106.21 756.93,-91.56 771.1,-80.51"/>
<polygon fill="#63b8ff" stroke="#63b8ff" points="773.49,-83.08 779.23,-74.17 769.19,-77.56 773.49,-83.08"/>
</a>
</g>
</g>
<!-- Node34&#45;&gt;Node30 -->
<g id="edge51_Node000034_Node000030" class="edge">
<title>Node34&#45;&gt;Node30</title>
<g id="a_edge51_Node000034_Node000030"><a xlink:title=" ">
<path fill="none" stroke="#63b8ff" d="M739.33,-115.49C767.56,-105.49 814.61,-88.8 846.53,-77.49"/>
<polygon fill="#63b8ff" stroke="#63b8ff" points="848.06,-80.66 856.32,-74.02 845.72,-74.06 848.06,-80.66"/>
</a>
</g>
</g>
<!-- Node34&#45;&gt;Node31 -->
<g id="edge53_Node000034_Node000031" class="edge">
<title>Node34&#45;&gt;Node31</title>
<g id="a_edge53_Node000034_Node000031"><a xlink:title=" ">
<path fill="none" stroke="#63b8ff" d="M751.14,-115.43C759.1,-113.59 767.5,-111.69 775.34,-110 833.13,-97.57 899.53,-84.66 945.33,-75.97"/>
<polygon fill="#63b8ff" stroke="#63b8ff" points="946.19,-79.37 955.36,-74.07 944.88,-72.49 946.19,-79.37"/>
</a>
</g>
</g>
<!-- Node35&#45;&gt;Node19 -->
<g id="edge56_Node000035_Node000019" class="edge">
<title>Node35&#45;&gt;Node19</title>
<g id="a_edge56_Node000035_Node000019"><a xlink:title=" ">
<path fill="none" stroke="#63b8ff" d="M771.46,-230.94C763.42,-217.55 746.2,-191.54 725.34,-176 701.43,-158.19 670.28,-145.62 645.32,-137.53"/>
<polygon fill="#63b8ff" stroke="#63b8ff" points="646.32,-134.18 635.73,-134.55 644.24,-140.86 646.32,-134.18"/>
</a>
</g>
</g>
<!-- Node35&#45;&gt;Node26 -->
<g id="edge57_Node000035_Node000026" class="edge">
<title>Node35&#45;&gt;Node26</title>
<g id="a_edge57_Node000035_Node000026"><a xlink:title=" ">
<path fill="none" stroke="#63b8ff" d="M795.78,-230.98C815.33,-222.42 845.72,-209.11 868.16,-199.28"/>
<polygon fill="#63b8ff" stroke="#63b8ff" points="869.79,-202.39 877.54,-195.17 866.98,-195.98 869.79,-202.39"/>
</a>
</g>
</g>
<!-- Node35&#45;&gt;Node33 -->
<g id="edge58_Node000035_Node000033" class="edge">
<title>Node35&#45;&gt;Node33</title>
<g id="a_edge58_Node000035_Node000033"><a xlink:title=" ">
<path fill="none" stroke="#63b8ff" d="M781.62,-230.75C786.05,-223.42 792.5,-212.73 797.96,-203.7"/>
<polygon fill="#63b8ff" stroke="#63b8ff" points="800.98,-205.46 803.15,-195.09 794.99,-201.84 800.98,-205.46"/>
</a>
</g>
</g>
</g>
</svg>
