<?xml version="1.0" encoding="UTF-8" standalone="no"?>
<!DOCTYPE svg PUBLIC "-//W3C//DTD SVG 1.1//EN"
 "http://www.w3.org/Graphics/SVG/1.1/DTD/svg11.dtd">
<!-- Generated by graphviz version 2.43.0 (0)
 -->
<!-- Title: src Pages: 1 -->
<svg width="202pt" height="224pt"
 viewBox="0.00 0.00 202.00 224.00" xmlns="http://www.w3.org/2000/svg" xmlns:xlink="http://www.w3.org/1999/xlink">
<g id="graph0" class="graph" transform="scale(1 1) rotate(0) translate(4 220)">
<title>src</title>
<g id="clust1" class="cluster">
<title>clusterdir_68267d1309a1af8e8297ef4c3efbcdba</title>
<g id="a_clust1"><a xlink:href="dir_68267d1309a1af8e8297ef4c3efbcdba.html" target="_top">
<polygon fill="#daffe9" stroke="#404040" stroke-width="2" points="8,-8 8,-208 186,-208 186,-8 8,-8"/>
</a>
</g>
</g>
<!-- dir_68267d1309a1af8e8297ef4c3efbcdba -->
<g id="node1" class="node">
<title>dir_68267d1309a1af8e8297ef4c3efbcdba</title>
<text text-anchor="middle" x="162" y="-188" font-family="Helvetica,sans-Serif" font-size="10.00">src</text>
</g>
<!-- dir_6908ff505388a07996d238c763adbdab -->
<g id="node2" class="node">
<title>dir_6908ff505388a07996d238c763adbdab</title>
<g id="a_node2"><a xlink:href="dir_6908ff505388a07996d238c763adbdab.html" target="_top" xlink:title="client">
<polygon fill="#4eff97" stroke="#404040" points="128,-200 84,-200 84,-181 128,-181 128,-200"/>
<text text-anchor="middle" x="106" y="-188" font-family="Helvetica,sans-Serif" font-size="10.00">client</text>
</a>
</g>
</g>
<!-- dir_fdedb0aba14d44ce9d99bc100e026e6a -->
<g id="node3" class="node">
<title>dir_fdedb0aba14d44ce9d99bc100e026e6a</title>
<g id="a_node3"><a xlink:href="dir_fdedb0aba14d44ce9d99bc100e026e6a.html" target="_top" xlink:title="common">
<polygon fill="#4eff97" stroke="#404040" points="117.5,-145 58.5,-145 58.5,-126 117.5,-126 117.5,-145"/>
<text text-anchor="middle" x="88" y="-133" font-family="Helvetica,sans-Serif" font-size="10.00">common</text>
</a>
</g>
</g>
<!-- dir_6908ff505388a07996d238c763adbdab&#45;&gt;dir_fdedb0aba14d44ce9d99bc100e026e6a -->
<g id="edge3" class="edge">
<title>dir_6908ff505388a07996d238c763adbdab&#45;&gt;dir_fdedb0aba14d44ce9d99bc100e026e6a</title>
<g id="a_edge3"><a xlink:href="dir_000000_000001.html" target="_top">
<path fill="none" stroke="#63b8ff" d="M103.03,-180.75C100.64,-173.72 97.21,-163.62 94.23,-154.84"/>
<polygon fill="#63b8ff" stroke="#63b8ff" points="97.45,-153.43 90.92,-145.09 90.82,-155.68 97.45,-153.43"/>
</a>
</g>
<g id="a_edge3&#45;headlabel"><a xlink:href="dir_000000_000001.html" target="_top" xlink:title="2">
<text text-anchor="middle" x="101.29" y="-153.42" font-family="Helvetica,sans-Serif" font-size="10.00" fill="#63b8ff">2</text>
</a>
</g>
</g>
<!-- dir_bdeba5f06b852fec80257c0bf4c3c36e -->
<g id="node4" class="node">
<title>dir_bdeba5f06b852fec80257c0bf4c3c36e</title>
<g id="a_node4"><a xlink:href="dir_bdeba5f06b852fec80257c0bf4c3c36e.html" target="_top" xlink:title="models">
<polygon fill="#4eff97" stroke="#404040" points="114.5,-90 61.5,-90 61.5,-71 114.5,-71 114.5,-90"/>
<text text-anchor="middle" x="88" y="-78" font-family="Helvetica,sans-Serif" font-size="10.00">models</text>
</a>
</g>
</g>
<!-- dir_6908ff505388a07996d238c763adbdab&#45;&gt;dir_bdeba5f06b852fec80257c0bf4c3c36e -->
<g id="edge1" class="edge">
<title>dir_6908ff505388a07996d238c763adbdab&#45;&gt;dir_bdeba5f06b852fec80257c0bf4c3c36e</title>
<g id="a_edge1"><a xlink:href="dir_000000_000002.html" target="_top">
<path fill="none" stroke="#63b8ff" d="M112.69,-180.79C121.28,-168.49 134.28,-145.34 127,-126 122.82,-114.89 114.48,-104.75 106.57,-96.96"/>
<polygon fill="#63b8ff" stroke="#63b8ff" points="108.72,-94.19 98.99,-90.01 103.99,-99.35 108.72,-94.19"/>
</a>
</g>
<g id="a_edge1&#45;headlabel"><a xlink:href="dir_000000_000002.html" target="_top" xlink:title="3">
<text text-anchor="middle" x="113.29" y="-92.02" font-family="Helvetica,sans-Serif" font-size="10.00" fill="#63b8ff">3</text>
</a>
</g>
</g>
<!-- dir_fc4c7f03e1a69a98c370fae55a743828 -->
<g id="node5" class="node">
<title>dir_fc4c7f03e1a69a98c370fae55a743828</title>
<g id="a_node5"><a xlink:href="dir_fc4c7f03e1a69a98c370fae55a743828.html" target="_top" xlink:title="network">
<polygon fill="#4eff97" stroke="#404040" points="116,-35 60,-35 60,-16 116,-16 116,-35"/>
<text text-anchor="middle" x="88" y="-23" font-family="Helvetica,sans-Serif" font-size="10.00">network</text>
</a>
</g>
</g>
<!-- dir_6908ff505388a07996d238c763adbdab&#45;&gt;dir_fc4c7f03e1a69a98c370fae55a743828 -->
<g id="edge2" class="edge">
<title>dir_6908ff505388a07996d238c763adbdab&#45;&gt;dir_fc4c7f03e1a69a98c370fae55a743828</title>
<g id="a_edge2"><a xlink:href="dir_000000_000003.html" target="_top">
<path fill="none" stroke="#63b8ff" d="M113.15,-180.97C119.77,-172.48 129.15,-158.75 133,-145 135.27,-136.87 133.68,-134.42 133,-126 130.99,-101.31 134.13,-93.6 124,-71 119.3,-60.5 111.48,-50.4 104.34,-42.48"/>
<polygon fill="#63b8ff" stroke="#63b8ff" points="106.72,-39.91 97.29,-35.09 101.66,-44.74 106.72,-39.91"/>
</a>
</g>
<g id="a_edge2&#45;headlabel"><a xlink:href="dir_000000_000003.html" target="_top" xlink:title="3">
<text text-anchor="middle" x="111.26" y="-38.05" font-family="Helvetica,sans-Serif" font-size="10.00" fill="#63b8ff">3</text>
</a>
</g>
</g>
<!-- dir_fdedb0aba14d44ce9d99bc100e026e6a&#45;&gt;dir_bdeba5f06b852fec80257c0bf4c3c36e -->
<g id="edge4" class="edge">
<title>dir_fdedb0aba14d44ce9d99bc100e026e6a&#45;&gt;dir_bdeba5f06b852fec80257c0bf4c3c36e</title>
<g id="a_edge4"><a xlink:href="dir_000001_000002.html" target="_top">
<path fill="none" stroke="#63b8ff" d="M88,-125.75C88,-118.8 88,-108.85 88,-100.13"/>
<polygon fill="#63b8ff" stroke="#63b8ff" points="91.5,-100.09 88,-90.09 84.5,-100.09 91.5,-100.09"/>
</a>
</g>
<g id="a_edge4&#45;headlabel"><a xlink:href="dir_000001_000002.html" target="_top" xlink:title="2">
<text text-anchor="middle" x="94.34" y="-101.18" font-family="Helvetica,sans-Serif" font-size="10.00" fill="#63b8ff">2</text>
</a>
</g>
</g>
<!-- dir_bdeba5f06b852fec80257c0bf4c3c36e&#45;&gt;dir_fc4c7f03e1a69a98c370fae55a743828 -->
<g id="edge5" class="edge">
<title>dir_bdeba5f06b852fec80257c0bf4c3c36e&#45;&gt;dir_fc4c7f03e1a69a98c370fae55a743828</title>
<g id="a_edge5"><a xlink:href="dir_000002_000003.html" target="_top">
<path fill="none" stroke="#63b8ff" d="M88,-70.75C88,-63.8 88,-53.85 88,-45.13"/>
<polygon fill="#63b8ff" stroke="#63b8ff" points="91.5,-45.09 88,-35.09 84.5,-45.09 91.5,-45.09"/>
</a>
</g>
<g id="a_edge5&#45;headlabel"><a xlink:href="dir_000002_000003.html" target="_top" xlink:title="1">
<text text-anchor="middle" x="94.34" y="-46.18" font-family="Helvetica,sans-Serif" font-size="10.00" fill="#63b8ff">1</text>
</a>
</g>
</g>
<!-- dir_abae130f9471f2a507990a11b6f08446 -->
<g id="node6" class="node">
<title>dir_abae130f9471f2a507990a11b6f08446</title>
<g id="a_node6"><a xlink:href="dir_abae130f9471f2a507990a11b6f08446.html" target="_top" xlink:title="tracker">
<polygon fill="#4eff97" stroke="#404040" points="66,-200 16,-200 16,-181 66,-181 66,-200"/>
<text text-anchor="middle" x="41" y="-188" font-family="Helvetica,sans-Serif" font-size="10.00">tracker</text>
</a>
</g>
</g>
<!-- dir_abae130f9471f2a507990a11b6f08446&#45;&gt;dir_fdedb0aba14d44ce9d99bc100e026e6a -->
<g id="edge8" class="edge">
<title>dir_abae130f9471f2a507990a11b6f08446&#45;&gt;dir_fdedb0aba14d44ce9d99bc100e026e6a</title>
<g id="a_edge8"><a xlink:href="dir_000005_000001.html" target="_top">
<path fill="none" stroke="#63b8ff" d="M48.76,-180.75C55.47,-173.18 65.34,-162.05 73.51,-152.84"/>
<polygon fill="#63b8ff" stroke="#63b8ff" points="76.37,-154.89 80.38,-145.09 71.13,-150.25 76.37,-154.89"/>
</a>
</g>
<g id="a_edge8&#45;headlabel"><a xlink:href="dir_000005_000001.html" target="_top" xlink:title="2">
<text text-anchor="middle" x="76.11" y="-156.97" font-family="Helvetica,sans-Serif" font-size="10.00" fill="#63b8ff">2</text>
</a>
</g>
</g>
<!-- dir_abae130f9471f2a507990a11b6f08446&#45;&gt;dir_bdeba5f06b852fec80257c0bf4c3c36e -->
<g id="edge6" class="edge">
<title>dir_abae130f9471f2a507990a11b6f08446&#45;&gt;dir_bdeba5f06b852fec80257c0bf4c3c36e</title>
<g id="a_edge6"><a xlink:href="dir_000005_000002.html" target="_top">
<path fill="none" stroke="#63b8ff" d="M40.73,-180.86C40.66,-168.24 41.76,-144.27 50,-126 54.83,-115.3 63.03,-105.2 70.59,-97.33"/>
<polygon fill="#63b8ff" stroke="#63b8ff" points="73.09,-99.78 77.77,-90.27 68.19,-94.78 73.09,-99.78"/>
</a>
</g>
<g id="a_edge6&#45;headlabel"><a xlink:href="dir_000005_000002.html" target="_top" xlink:title="5">
<text text-anchor="middle" x="72.52" y="-101.82" font-family="Helvetica,sans-Serif" font-size="10.00" fill="#63b8ff">5</text>
</a>
</g>
</g>
<!-- dir_abae130f9471f2a507990a11b6f08446&#45;&gt;dir_fc4c7f03e1a69a98c370fae55a743828 -->
<g id="edge7" class="edge">
<title>dir_abae130f9471f2a507990a11b6f08446&#45;&gt;dir_fc4c7f03e1a69a98c370fae55a743828</title>
<g id="a_edge7"><a xlink:href="dir_000005_000003.html" target="_top">
<path fill="none" stroke="#63b8ff" d="M39.95,-180.93C37.88,-160.65 34.86,-108.62 53,-71 57.94,-60.75 65.57,-50.67 72.45,-42.7"/>
<polygon fill="#63b8ff" stroke="#63b8ff" points="75.08,-45.01 79.2,-35.24 69.89,-40.31 75.08,-45.01"/>
</a>
</g>
<g id="a_edge7&#45;headlabel"><a xlink:href="dir_000005_000003.html" target="_top" xlink:title="4">
<text text-anchor="middle" x="74.78" y="-47.08" font-family="Helvetica,sans-Serif" font-size="10.00" fill="#63b8ff">4</text>
</a>
</g>
</g>
</g>
</svg>
