<?xml version="1.0" encoding="UTF-8" standalone="no"?>
<!DOCTYPE svg PUBLIC "-//W3C//DTD SVG 1.1//EN"
 "http://www.w3.org/Graphics/SVG/1.1/DTD/svg11.dtd">
<!-- Generated by graphviz version 2.43.0 (0)
 -->
<!-- Title: src/client/downloadmanager.cpp Pages: 1 -->
<svg width="1154pt" height="313pt"
 viewBox="0.00 0.00 1153.65 313.00" xmlns="http://www.w3.org/2000/svg" xmlns:xlink="http://www.w3.org/1999/xlink">
<g id="graph0" class="graph" transform="scale(1 1) rotate(0) translate(4 309)">
<title>src/client/downloadmanager.cpp</title>
<!-- Node1 -->
<g id="Node000001" class="node">
<title>Node1</title>
<g id="a_Node000001"><a xlink:title=" ">
<polygon fill="#999999" stroke="#666666" points="724.78,-305 550.78,-305 550.78,-286 724.78,-286 724.78,-305"/>
<text text-anchor="middle" x="637.78" y="-293" font-family="Helvetica,sans-Serif" font-size="10.00">src/client/downloadmanager.cpp</text>
</a>
</g>
</g>
<!-- Node2 -->
<g id="Node000002" class="node">
<title>Node2</title>
<g id="a_Node000002"><a xlink:title=" ">
<polygon fill="#e0e0e0" stroke="#999999" points="467.78,-244.5 417.78,-244.5 417.78,-225.5 467.78,-225.5 467.78,-244.5"/>
<text text-anchor="middle" x="442.78" y="-232.5" font-family="Helvetica,sans-Serif" font-size="10.00">cstring</text>
</a>
</g>
</g>
<!-- Node1&#45;&gt;Node2 -->
<g id="edge1_Node000001_Node000002" class="edge">
<title>Node1&#45;&gt;Node2</title>
<g id="a_edge1_Node000001_Node000002"><a xlink:title=" ">
<path fill="none" stroke="#63b8ff" d="M602.8,-285.95C570.16,-277.69 520.25,-264.35 477.78,-250 476.12,-249.44 474.42,-248.84 472.71,-248.22"/>
<polygon fill="#63b8ff" stroke="#63b8ff" points="473.59,-244.81 463,-244.52 471.1,-251.35 473.59,-244.81"/>
</a>
</g>
</g>
<!-- Node3 -->
<g id="Node000003" class="node">
<title>Node3</title>
<g id="a_Node000003"><a xlink:title=" ">
<polygon fill="#e0e0e0" stroke="#999999" points="533.28,-244.5 486.28,-244.5 486.28,-225.5 533.28,-225.5 533.28,-244.5"/>
<text text-anchor="middle" x="509.78" y="-232.5" font-family="Helvetica,sans-Serif" font-size="10.00">fcntl.h</text>
</a>
</g>
</g>
<!-- Node1&#45;&gt;Node3 -->
<g id="edge2_Node000001_Node000003" class="edge">
<title>Node1&#45;&gt;Node3</title>
<g id="a_edge2_Node000001_Node000003"><a xlink:title=" ">
<path fill="none" stroke="#63b8ff" d="M619.17,-285.99C597.74,-276.2 562.34,-260.02 537.63,-248.73"/>
<polygon fill="#63b8ff" stroke="#63b8ff" points="538.97,-245.49 528.42,-244.52 536.06,-251.86 538.97,-245.49"/>
</a>
</g>
</g>
<!-- Node4 -->
<g id="Node000004" class="node">
<title>Node4</title>
<g id="a_Node000004"><a xlink:href="network__errors_8hpp.html" target="_top" xlink:title=" ">
<polygon fill="white" stroke="#666666" points="1116.78,-250 1008.78,-250 1008.78,-220 1116.78,-220 1116.78,-250"/>
<text text-anchor="start" x="1016.78" y="-238" font-family="Helvetica,sans-Serif" font-size="10.00">../network/network</text>
<text text-anchor="middle" x="1062.78" y="-227" font-family="Helvetica,sans-Serif" font-size="10.00">_errors.hpp</text>
</a>
</g>
</g>
<!-- Node1&#45;&gt;Node4 -->
<g id="edge3_Node000001_Node000004" class="edge">
<title>Node1&#45;&gt;Node4</title>
<g id="a_edge3_Node000001_Node000004"><a xlink:title=" ">
<path fill="none" stroke="#63b8ff" d="M699.58,-285.99C779.39,-275.01 917.63,-255.98 998.59,-244.84"/>
<polygon fill="#63b8ff" stroke="#63b8ff" points="999.23,-248.28 1008.66,-243.45 998.27,-241.35 999.23,-248.28"/>
</a>
</g>
</g>
<!-- Node6 -->
<g id="Node000006" class="node">
<title>Node6</title>
<g id="a_Node000006"><a xlink:href="downloadmanager_8hpp.html" target="_top" xlink:title=" ">
<polygon fill="white" stroke="#666666" points="758.78,-244.5 630.78,-244.5 630.78,-225.5 758.78,-225.5 758.78,-244.5"/>
<text text-anchor="middle" x="694.78" y="-232.5" font-family="Helvetica,sans-Serif" font-size="10.00">downloadmanager.hpp</text>
</a>
</g>
</g>
<!-- Node1&#45;&gt;Node6 -->
<g id="edge5_Node000001_Node000006" class="edge">
<title>Node1&#45;&gt;Node6</title>
<g id="a_edge5_Node000001_Node000006"><a xlink:title=" ">
<path fill="none" stroke="#63b8ff" d="M646.19,-285.87C654.86,-276.97 668.58,-262.89 679.24,-251.95"/>
<polygon fill="#63b8ff" stroke="#63b8ff" points="681.86,-254.27 686.34,-244.67 676.85,-249.39 681.86,-254.27"/>
</a>
</g>
</g>
<!-- Node30 -->
<g id="Node000030" class="node">
<title>Node30</title>
<g id="a_Node000030"><a xlink:href="file__io_8hpp.html" target="_top" xlink:title=" ">
<polygon fill="white" stroke="#666666" points="1006.28,-184 939.28,-184 939.28,-165 1006.28,-165 1006.28,-184"/>
<text text-anchor="middle" x="972.78" y="-172" font-family="Helvetica,sans-Serif" font-size="10.00">file_io.hpp</text>
</a>
</g>
</g>
<!-- Node1&#45;&gt;Node30 -->
<g id="edge56_Node000001_Node000030" class="edge">
<title>Node1&#45;&gt;Node30</title>
<g id="a_edge56_Node000001_Node000030"><a xlink:title=" ">
<path fill="none" stroke="#63b8ff" d="M663.24,-285.94C689.48,-277.09 731.56,-262.78 767.78,-250 828.85,-228.45 899.81,-202.45 940.19,-187.56"/>
<polygon fill="#63b8ff" stroke="#63b8ff" points="941.6,-190.77 949.77,-184.02 939.18,-184.2 941.6,-190.77"/>
</a>
</g>
</g>
<!-- Node31 -->
<g id="Node000031" class="node">
<title>Node31</title>
<g id="a_Node000031"><a xlink:href="hash_8hpp.html" target="_top" xlink:title=" ">
<polygon fill="white" stroke="#666666" points="612.28,-244.5 551.28,-244.5 551.28,-225.5 612.28,-225.5 612.28,-244.5"/>
<text text-anchor="middle" x="581.78" y="-232.5" font-family="Helvetica,sans-Serif" font-size="10.00">hash.hpp</text>
</a>
</g>
</g>
<!-- Node1&#45;&gt;Node31 -->
<g id="edge60_Node000001_Node000031" class="edge">
<title>Node1&#45;&gt;Node31</title>
<g id="a_edge60_Node000001_Node000031"><a xlink:title=" ">
<path fill="none" stroke="#63b8ff" d="M629.52,-285.87C621,-276.97 607.52,-262.89 597.05,-251.95"/>
<polygon fill="#63b8ff" stroke="#63b8ff" points="599.52,-249.47 590.08,-244.67 594.46,-254.31 599.52,-249.47"/>
</a>
</g>
</g>
<!-- Node5 -->
<g id="Node000005" class="node">
<title>Node5</title>
<g id="a_Node000005"><a xlink:title=" ">
<polygon fill="#e0e0e0" stroke="#999999" points="1141.28,-19 1076.28,-19 1076.28,0 1141.28,0 1141.28,-19"/>
<text text-anchor="middle" x="1108.78" y="-7" font-family="Helvetica,sans-Serif" font-size="10.00">stdexcept</text>
</a>
</g>
</g>
<!-- Node4&#45;&gt;Node5 -->
<g id="edge4_Node000004_Node000005" class="edge">
<title>Node4&#45;&gt;Node5</title>
<g id="a_edge4_Node000004_Node000005"><a xlink:title=" ">
<path fill="none" stroke="#63b8ff" d="M1072.83,-219.9C1091.28,-193.07 1129.9,-132.14 1143.78,-74 1145.74,-65.79 1146.54,-62.98 1143.78,-55 1140.11,-44.38 1132.74,-34.38 1125.7,-26.55"/>
<polygon fill="#63b8ff" stroke="#63b8ff" points="1128.12,-24.02 1118.66,-19.25 1123.09,-28.88 1128.12,-24.02"/>
</a>
</g>
</g>
<!-- Node7 -->
<g id="Node000007" class="node">
<title>Node7</title>
<g id="a_Node000007"><a xlink:title=" ">
<polygon fill="#e0e0e0" stroke="#999999" points="772.78,-184 722.78,-184 722.78,-165 772.78,-165 772.78,-184"/>
<text text-anchor="middle" x="747.78" y="-172" font-family="Helvetica,sans-Serif" font-size="10.00">atomic</text>
</a>
</g>
</g>
<!-- Node6&#45;&gt;Node7 -->
<g id="edge6_Node000006_Node000007" class="edge">
<title>Node6&#45;&gt;Node7</title>
<g id="a_edge6_Node000006_Node000007"><a xlink:title=" ">
<path fill="none" stroke="#63b8ff" d="M702.6,-225.37C710.59,-216.55 723.18,-202.66 733.04,-191.77"/>
<polygon fill="#63b8ff" stroke="#63b8ff" points="735.81,-193.93 739.93,-184.17 730.62,-189.23 735.81,-193.93"/>
</a>
</g>
</g>
<!-- Node8 -->
<g id="Node000008" class="node">
<title>Node8</title>
<g id="a_Node000008"><a xlink:title=" ">
<polygon fill="#e0e0e0" stroke="#999999" points="838.28,-184 791.28,-184 791.28,-165 838.28,-165 838.28,-184"/>
<text text-anchor="middle" x="814.78" y="-172" font-family="Helvetica,sans-Serif" font-size="10.00">deque</text>
</a>
</g>
</g>
<!-- Node6&#45;&gt;Node8 -->
<g id="edge7_Node000006_Node000008" class="edge">
<title>Node6&#45;&gt;Node8</title>
<g id="a_edge7_Node000006_Node000008"><a xlink:title=" ">
<path fill="none" stroke="#63b8ff" d="M712.23,-225.49C732.14,-215.79 764.92,-199.81 788.05,-188.53"/>
<polygon fill="#63b8ff" stroke="#63b8ff" points="789.86,-191.54 797.31,-184.02 786.79,-185.25 789.86,-191.54"/>
</a>
</g>
</g>
<!-- Node9 -->
<g id="Node000009" class="node">
<title>Node9</title>
<g id="a_Node000009"><a xlink:title=" ">
<polygon fill="#e0e0e0" stroke="#999999" points="921.28,-184 856.28,-184 856.28,-165 921.28,-165 921.28,-184"/>
<text text-anchor="middle" x="888.78" y="-172" font-family="Helvetica,sans-Serif" font-size="10.00">functional</text>
</a>
</g>
</g>
<!-- Node6&#45;&gt;Node9 -->
<g id="edge8_Node000006_Node000009" class="edge">
<title>Node6&#45;&gt;Node9</title>
<g id="a_edge8_Node000006_Node000009"><a xlink:title=" ">
<path fill="none" stroke="#63b8ff" d="M722.99,-225.49C756.75,-215.31 813.43,-198.22 850.96,-186.9"/>
<polygon fill="#63b8ff" stroke="#63b8ff" points="851.97,-190.25 860.54,-184.02 849.95,-183.55 851.97,-190.25"/>
</a>
</g>
</g>
<!-- Node10 -->
<g id="Node000010" class="node">
<title>Node10</title>
<g id="a_Node000010"><a xlink:title=" ">
<polygon fill="#e0e0e0" stroke="#999999" points="635.78,-19 591.78,-19 591.78,0 635.78,0 635.78,-19"/>
<text text-anchor="middle" x="613.78" y="-7" font-family="Helvetica,sans-Serif" font-size="10.00">string</text>
</a>
</g>
</g>
<!-- Node6&#45;&gt;Node10 -->
<g id="edge9_Node000006_Node000010" class="edge">
<title>Node6&#45;&gt;Node10</title>
<g id="a_edge9_Node000006_Node000010"><a xlink:title=" ">
<path fill="none" stroke="#63b8ff" d="M693.01,-225.38C690.67,-211.74 687.9,-184.73 697.78,-165 709.09,-142.41 730.96,-151.83 741.78,-129 745.4,-121.37 745.45,-117.61 741.78,-110 721.63,-68.18 674.31,-38.94 643.2,-23.44"/>
<polygon fill="#63b8ff" stroke="#63b8ff" points="644.64,-20.25 634.11,-19.07 641.61,-26.55 644.64,-20.25"/>
</a>
</g>
</g>
<!-- Node11 -->
<g id="Node000011" class="node">
<title>Node11</title>
<g id="a_Node000011"><a xlink:title=" ">
<polygon fill="#e0e0e0" stroke="#999999" points="372.78,-184 324.78,-184 324.78,-165 372.78,-165 372.78,-184"/>
<text text-anchor="middle" x="348.78" y="-172" font-family="Helvetica,sans-Serif" font-size="10.00">thread</text>
</a>
</g>
</g>
<!-- Node6&#45;&gt;Node11 -->
<g id="edge10_Node000006_Node000011" class="edge">
<title>Node6&#45;&gt;Node11</title>
<g id="a_edge10_Node000006_Node000011"><a xlink:title=" ">
<path fill="none" stroke="#63b8ff" d="M651.99,-225.49C642.08,-223.61 631.58,-221.67 621.78,-220 518.58,-202.37 489.19,-205.29 382.72,-184"/>
<polygon fill="#63b8ff" stroke="#63b8ff" points="383.36,-180.56 372.86,-182.01 381.97,-187.42 383.36,-180.56"/>
</a>
</g>
</g>
<!-- Node12 -->
<g id="Node000012" class="node">
<title>Node12</title>
<g id="a_Node000012"><a xlink:href="endpoint_8hpp.html" target="_top" xlink:title=" ">
<polygon fill="white" stroke="#666666" points="1134.78,-74 1006.78,-74 1006.78,-55 1134.78,-55 1134.78,-74"/>
<text text-anchor="middle" x="1070.78" y="-62" font-family="Helvetica,sans-Serif" font-size="10.00">../models/endpoint.hpp</text>
</a>
</g>
</g>
<!-- Node6&#45;&gt;Node12 -->
<g id="edge11_Node000006_Node000012" class="edge">
<title>Node6&#45;&gt;Node12</title>
<g id="a_edge11_Node000006_Node000012"><a xlink:title=" ">
<path fill="none" stroke="#63b8ff" d="M758.81,-232.48C845.36,-229.14 993.53,-218.4 1033.78,-184 1063.04,-158.99 1069.48,-111.21 1070.7,-84.6"/>
<polygon fill="#63b8ff" stroke="#63b8ff" points="1074.21,-84.4 1070.96,-74.32 1067.21,-84.23 1074.21,-84.4"/>
</a>
</g>
</g>
<!-- Node14 -->
<g id="Node000014" class="node">
<title>Node14</title>
<g id="a_Node000014"><a xlink:href="file_8hpp.html" target="_top" xlink:title=" ">
<polygon fill="white" stroke="#666666" points="928.28,-129 827.28,-129 827.28,-110 928.28,-110 928.28,-129"/>
<text text-anchor="middle" x="877.78" y="-117" font-family="Helvetica,sans-Serif" font-size="10.00">../models/file.hpp</text>
</a>
</g>
</g>
<!-- Node6&#45;&gt;Node14 -->
<g id="edge15_Node000006_Node000014" class="edge">
<title>Node6&#45;&gt;Node14</title>
<g id="a_edge15_Node000006_Node000014"><a xlink:title=" ">
<path fill="none" stroke="#63b8ff" d="M694.59,-225.47C694.74,-210.97 697.23,-181.49 713.78,-165 728.52,-150.32 776.8,-138.3 817.19,-130.48"/>
<polygon fill="#63b8ff" stroke="#63b8ff" points="818.08,-133.87 827.26,-128.58 816.79,-126.99 818.08,-133.87"/>
</a>
</g>
</g>
<!-- Node18 -->
<g id="Node000018" class="node">
<title>Node18</title>
<g id="a_Node000018"><a xlink:href="fileinfo_8hpp.html" target="_top" xlink:title=" ">
<polygon fill="white" stroke="#666666" points="950.28,-74 879.28,-74 879.28,-55 950.28,-55 950.28,-74"/>
<text text-anchor="middle" x="914.78" y="-62" font-family="Helvetica,sans-Serif" font-size="10.00">fileinfo.hpp</text>
</a>
</g>
</g>
<!-- Node6&#45;&gt;Node18 -->
<g id="edge26_Node000006_Node000018" class="edge">
<title>Node6&#45;&gt;Node18</title>
<g id="a_edge26_Node000006_Node000018"><a xlink:title=" ">
<path fill="none" stroke="#63b8ff" d="M759.06,-233.47C843.09,-231.25 983.41,-221.81 1015.78,-184 1048.33,-145.98 980.96,-100.97 941.18,-78.97"/>
<polygon fill="#63b8ff" stroke="#63b8ff" points="942.68,-75.8 932.21,-74.14 939.36,-81.96 942.68,-75.8"/>
</a>
</g>
</g>
<!-- Node20 -->
<g id="Node000020" class="node">
<title>Node20</title>
<g id="a_Node000020"><a xlink:href="tcp__socket_8hpp.html" target="_top" xlink:title=" ">
<polygon fill="white" stroke="#666666" points="189.28,-129 48.28,-129 48.28,-110 189.28,-110 189.28,-129"/>
<text text-anchor="middle" x="118.78" y="-117" font-family="Helvetica,sans-Serif" font-size="10.00">../network/tcp_socket.hpp</text>
</a>
</g>
</g>
<!-- Node6&#45;&gt;Node20 -->
<g id="edge27_Node000006_Node000020" class="edge">
<title>Node6&#45;&gt;Node20</title>
<g id="a_edge27_Node000006_Node000020"><a xlink:title=" ">
<path fill="none" stroke="#63b8ff" d="M653.18,-225.48C642.94,-223.53 631.98,-221.58 621.78,-220 486.45,-199.09 449.58,-213.14 315.78,-184 255.99,-170.98 188.58,-147.18 150.14,-132.71"/>
<polygon fill="#63b8ff" stroke="#63b8ff" points="151.15,-129.35 140.55,-129.07 148.66,-135.89 151.15,-129.35"/>
</a>
</g>
</g>
<!-- Node24 -->
<g id="Node000024" class="node">
<title>Node24</title>
<g id="a_Node000024"><a xlink:href="filesdb_8hpp.html" target="_top" xlink:title=" ">
<polygon fill="white" stroke="#666666" points="460.78,-184 390.78,-184 390.78,-165 460.78,-165 460.78,-184"/>
<text text-anchor="middle" x="425.78" y="-172" font-family="Helvetica,sans-Serif" font-size="10.00">filesdb.hpp</text>
</a>
</g>
</g>
<!-- Node6&#45;&gt;Node24 -->
<g id="edge34_Node000006_Node000024" class="edge">
<title>Node6&#45;&gt;Node24</title>
<g id="a_edge34_Node000006_Node000024"><a xlink:title=" ">
<path fill="none" stroke="#63b8ff" d="M655.67,-225.49C606.62,-214.83 522.72,-196.58 470.98,-185.33"/>
<polygon fill="#63b8ff" stroke="#63b8ff" points="471.6,-181.88 461.08,-183.18 470.11,-188.72 471.6,-181.88"/>
</a>
</g>
</g>
<!-- Node28 -->
<g id="Node000028" class="node">
<title>Node28</title>
<g id="a_Node000028"><a xlink:href="partfile_8hpp.html" target="_top" xlink:title=" ">
<polygon fill="white" stroke="#666666" points="732.78,-129 660.78,-129 660.78,-110 732.78,-110 732.78,-129"/>
<text text-anchor="middle" x="696.78" y="-117" font-family="Helvetica,sans-Serif" font-size="10.00">partfile.hpp</text>
</a>
</g>
</g>
<!-- Node6&#45;&gt;Node28 -->
<g id="edge46_Node000006_Node000028" class="edge">
<title>Node6&#45;&gt;Node28</title>
<g id="a_edge46_Node000006_Node000028"><a xlink:title=" ">
<path fill="none" stroke="#63b8ff" d="M680.07,-225.41C660.98,-213.07 631.39,-189.15 642.78,-165 648.79,-152.26 660.44,-141.92 671.39,-134.44"/>
<polygon fill="#63b8ff" stroke="#63b8ff" points="673.32,-137.36 679.89,-129.05 669.57,-131.44 673.32,-137.36"/>
</a>
</g>
</g>
<!-- Node29 -->
<g id="Node000029" class="node">
<title>Node29</title>
<g id="a_Node000029"><a xlink:href="peerdb_8hpp.html" target="_top" xlink:title=" ">
<polygon fill="white" stroke="#666666" points="590.28,-184 519.28,-184 519.28,-165 590.28,-165 590.28,-184"/>
<text text-anchor="middle" x="554.78" y="-172" font-family="Helvetica,sans-Serif" font-size="10.00">peerdb.hpp</text>
</a>
</g>
</g>
<!-- Node6&#45;&gt;Node29 -->
<g id="edge47_Node000006_Node000029" class="edge">
<title>Node6&#45;&gt;Node29</title>
<g id="a_edge47_Node000006_Node000029"><a xlink:title=" ">
<path fill="none" stroke="#63b8ff" d="M674.42,-225.49C650.78,-215.62 611.58,-199.23 584.53,-187.93"/>
<polygon fill="#63b8ff" stroke="#63b8ff" points="585.74,-184.64 575.16,-184.02 583.04,-191.1 585.74,-184.64"/>
</a>
</g>
</g>
<!-- Node12&#45;&gt;Node5 -->
<g id="edge13_Node000012_Node000005" class="edge">
<title>Node12&#45;&gt;Node5</title>
<g id="a_edge13_Node000012_Node000005"><a xlink:title=" ">
<path fill="none" stroke="#63b8ff" d="M1077.06,-54.75C1082.37,-47.34 1090.14,-36.5 1096.66,-27.41"/>
<polygon fill="#63b8ff" stroke="#63b8ff" points="1099.64,-29.26 1102.62,-19.09 1093.95,-25.18 1099.64,-29.26"/>
</a>
</g>
</g>
<!-- Node12&#45;&gt;Node10 -->
<g id="edge14_Node000012_Node000010" class="edge">
<title>Node12&#45;&gt;Node10</title>
<g id="a_edge14_Node000012_Node000010"><a xlink:title=" ">
<path fill="none" stroke="#63b8ff" d="M1006.76,-56.07C907.72,-44.59 720.98,-22.93 646.07,-14.25"/>
<polygon fill="#63b8ff" stroke="#63b8ff" points="646.19,-10.74 635.86,-13.06 645.39,-17.69 646.19,-10.74"/>
</a>
</g>
</g>
<!-- Node13 -->
<g id="Node000013" class="node">
<title>Node13</title>
<g id="a_Node000013"><a xlink:title=" ">
<polygon fill="#e0e0e0" stroke="#999999" points="1057.78,-19 1007.78,-19 1007.78,0 1057.78,0 1057.78,-19"/>
<text text-anchor="middle" x="1032.78" y="-7" font-family="Helvetica,sans-Serif" font-size="10.00">cstdint</text>
</a>
</g>
</g>
<!-- Node12&#45;&gt;Node13 -->
<g id="edge12_Node000012_Node000013" class="edge">
<title>Node12&#45;&gt;Node13</title>
<g id="a_edge12_Node000012_Node000013"><a xlink:title=" ">
<path fill="none" stroke="#63b8ff" d="M1064.51,-54.75C1059.19,-47.34 1051.43,-36.5 1044.91,-27.41"/>
<polygon fill="#63b8ff" stroke="#63b8ff" points="1047.61,-25.18 1038.94,-19.09 1041.92,-29.26 1047.61,-25.18"/>
</a>
</g>
</g>
<!-- Node14&#45;&gt;Node10 -->
<g id="edge17_Node000014_Node000010" class="edge">
<title>Node14&#45;&gt;Node10</title>
<g id="a_edge17_Node000014_Node000010"><a xlink:title=" ">
<path fill="none" stroke="#63b8ff" d="M874.12,-109.93C867.7,-96.02 853.06,-68.72 831.78,-55 773.92,-17.7 690.97,-10.77 645.91,-10"/>
<polygon fill="#63b8ff" stroke="#63b8ff" points="645.86,-6.5 635.83,-9.92 645.8,-13.5 645.86,-6.5"/>
</a>
</g>
</g>
<!-- Node14&#45;&gt;Node12 -->
<g id="edge20_Node000014_Node000012" class="edge">
<title>Node14&#45;&gt;Node12</title>
<g id="a_edge20_Node000014_Node000012"><a xlink:title=" ">
<path fill="none" stroke="#63b8ff" d="M908.79,-109.98C941.61,-100.97 993.58,-86.7 1029.77,-76.76"/>
<polygon fill="#63b8ff" stroke="#63b8ff" points="1030.81,-80.11 1039.53,-74.08 1028.96,-73.36 1030.81,-80.11"/>
</a>
</g>
</g>
<!-- Node15 -->
<g id="Node000015" class="node">
<title>Node15</title>
<g id="a_Node000015"><a xlink:title=" ">
<polygon fill="#e0e0e0" stroke="#999999" points="642.78,-74 584.78,-74 584.78,-55 642.78,-55 642.78,-74"/>
<text text-anchor="middle" x="613.78" y="-62" font-family="Helvetica,sans-Serif" font-size="10.00">memory</text>
</a>
</g>
</g>
<!-- Node14&#45;&gt;Node15 -->
<g id="edge16_Node000014_Node000015" class="edge">
<title>Node14&#45;&gt;Node15</title>
<g id="a_edge16_Node000014_Node000015"><a xlink:title=" ">
<path fill="none" stroke="#63b8ff" d="M835.36,-109.98C785.02,-99.88 701.75,-83.16 652.89,-73.35"/>
<polygon fill="#63b8ff" stroke="#63b8ff" points="653.51,-69.91 643.01,-71.37 652.13,-76.77 653.51,-69.91"/>
</a>
</g>
</g>
<!-- Node16 -->
<g id="Node000016" class="node">
<title>Node16</title>
<g id="a_Node000016"><a xlink:title=" ">
<polygon fill="#e0e0e0" stroke="#999999" points="965.78,-19 909.78,-19 909.78,0 965.78,0 965.78,-19"/>
<text text-anchor="middle" x="937.78" y="-7" font-family="Helvetica,sans-Serif" font-size="10.00">sstream</text>
</a>
</g>
</g>
<!-- Node14&#45;&gt;Node16 -->
<g id="edge18_Node000014_Node000016" class="edge">
<title>Node14&#45;&gt;Node16</title>
<g id="a_edge18_Node000014_Node000016"><a xlink:title=" ">
<path fill="none" stroke="#63b8ff" d="M909.99,-109.92C928.04,-103.29 949.01,-92.09 959.78,-74 968.51,-59.34 960.08,-40.7 951.26,-27.42"/>
<polygon fill="#63b8ff" stroke="#63b8ff" points="953.99,-25.23 945.29,-19.19 948.33,-29.34 953.99,-25.23"/>
</a>
</g>
</g>
<!-- Node17 -->
<g id="Node000017" class="node">
<title>Node17</title>
<g id="a_Node000017"><a xlink:title=" ">
<polygon fill="#e0e0e0" stroke="#999999" points="822.78,-74 736.78,-74 736.78,-55 822.78,-55 822.78,-74"/>
<text text-anchor="middle" x="779.78" y="-62" font-family="Helvetica,sans-Serif" font-size="10.00">unordered_set</text>
</a>
</g>
</g>
<!-- Node14&#45;&gt;Node17 -->
<g id="edge19_Node000014_Node000017" class="edge">
<title>Node14&#45;&gt;Node17</title>
<g id="a_edge19_Node000014_Node000017"><a xlink:title=" ">
<path fill="none" stroke="#63b8ff" d="M862.04,-109.98C846.55,-101.61 822.69,-88.7 804.64,-78.95"/>
<polygon fill="#63b8ff" stroke="#63b8ff" points="806.27,-75.85 795.81,-74.17 802.94,-82.01 806.27,-75.85"/>
</a>
</g>
</g>
<!-- Node14&#45;&gt;Node18 -->
<g id="edge21_Node000014_Node000018" class="edge">
<title>Node14&#45;&gt;Node18</title>
<g id="a_edge21_Node000014_Node000018"><a xlink:title=" ">
<path fill="none" stroke="#63b8ff" d="M883.89,-109.75C889.06,-102.34 896.63,-91.5 902.98,-82.41"/>
<polygon fill="#63b8ff" stroke="#63b8ff" points="905.93,-84.29 908.78,-74.09 900.19,-80.29 905.93,-84.29"/>
</a>
</g>
</g>
<!-- Node18&#45;&gt;Node5 -->
<g id="edge23_Node000018_Node000005" class="edge">
<title>Node18&#45;&gt;Node5</title>
<g id="a_edge23_Node000018_Node000005"><a xlink:title=" ">
<path fill="none" stroke="#63b8ff" d="M945.95,-54.98C978.94,-45.97 1031.18,-31.7 1067.56,-21.76"/>
<polygon fill="#63b8ff" stroke="#63b8ff" points="1068.64,-25.09 1077.37,-19.08 1066.8,-18.34 1068.64,-25.09"/>
</a>
</g>
</g>
<!-- Node18&#45;&gt;Node10 -->
<g id="edge24_Node000018_Node000010" class="edge">
<title>Node18&#45;&gt;Node10</title>
<g id="a_edge24_Node000018_Node000010"><a xlink:title=" ">
<path fill="none" stroke="#63b8ff" d="M879.07,-57.21C819.97,-46.81 702.71,-26.16 645.99,-16.17"/>
<polygon fill="#63b8ff" stroke="#63b8ff" points="646.27,-12.67 635.81,-14.38 645.06,-19.56 646.27,-12.67"/>
</a>
</g>
</g>
<!-- Node18&#45;&gt;Node16 -->
<g id="edge22_Node000018_Node000016" class="edge">
<title>Node18&#45;&gt;Node16</title>
<g id="a_edge22_Node000018_Node000016"><a xlink:title=" ">
<path fill="none" stroke="#63b8ff" d="M918.58,-54.75C921.69,-47.57 926.2,-37.18 930.07,-28.27"/>
<polygon fill="#63b8ff" stroke="#63b8ff" points="933.28,-29.66 934.05,-19.09 926.86,-26.87 933.28,-29.66"/>
</a>
</g>
</g>
<!-- Node19 -->
<g id="Node000019" class="node">
<title>Node19</title>
<g id="a_Node000019"><a xlink:title=" ">
<polygon fill="#e0e0e0" stroke="#999999" points="303.28,-19 256.28,-19 256.28,0 303.28,0 303.28,-19"/>
<text text-anchor="middle" x="279.78" y="-7" font-family="Helvetica,sans-Serif" font-size="10.00">vector</text>
</a>
</g>
</g>
<!-- Node18&#45;&gt;Node19 -->
<g id="edge25_Node000018_Node000019" class="edge">
<title>Node18&#45;&gt;Node19</title>
<g id="a_edge25_Node000018_Node000019"><a xlink:title=" ">
<path fill="none" stroke="#63b8ff" d="M879.25,-59.69C864.57,-58.16 847.36,-56.43 831.78,-55 635.55,-37.04 399.72,-19.32 313.47,-12.96"/>
<polygon fill="#63b8ff" stroke="#63b8ff" points="313.7,-9.47 303.47,-12.23 313.19,-16.45 313.7,-9.47"/>
</a>
</g>
</g>
<!-- Node20&#45;&gt;Node10 -->
<g id="edge30_Node000020_Node000010" class="edge">
<title>Node20&#45;&gt;Node10</title>
<g id="a_edge30_Node000020_Node000010"><a xlink:title=" ">
<path fill="none" stroke="#63b8ff" d="M152.17,-109.99C183.04,-101.82 230.01,-88.58 269.78,-74 289.4,-66.81 292.71,-60.8 312.78,-55 408.13,-27.44 525.66,-16.36 581.45,-12.42"/>
<polygon fill="#63b8ff" stroke="#63b8ff" points="581.7,-15.91 591.44,-11.74 581.23,-8.93 581.7,-15.91"/>
</a>
</g>
</g>
<!-- Node20&#45;&gt;Node15 -->
<g id="edge28_Node000020_Node000015" class="edge">
<title>Node20&#45;&gt;Node15</title>
<g id="a_edge28_Node000020_Node000015"><a xlink:title=" ">
<path fill="none" stroke="#63b8ff" d="M189.44,-110.93C295.24,-99.61 491.27,-78.62 574.63,-69.69"/>
<polygon fill="#63b8ff" stroke="#63b8ff" points="575.12,-73.16 584.69,-68.61 574.38,-66.2 575.12,-73.16"/>
</a>
</g>
</g>
<!-- Node20&#45;&gt;Node19 -->
<g id="edge33_Node000020_Node000019" class="edge">
<title>Node20&#45;&gt;Node19</title>
<g id="a_edge33_Node000020_Node000019"><a xlink:title=" ">
<path fill="none" stroke="#63b8ff" d="M75.83,-109.95C36.26,-100.18 -13.11,-81.97 9.78,-55 39.7,-19.75 180.24,-12.38 245.86,-10.87"/>
<polygon fill="#63b8ff" stroke="#63b8ff" points="246.16,-14.36 256.09,-10.67 246.03,-7.36 246.16,-14.36"/>
</a>
</g>
</g>
<!-- Node21 -->
<g id="Node000021" class="node">
<title>Node21</title>
<g id="a_Node000021"><a xlink:title=" ">
<polygon fill="#e0e0e0" stroke="#999999" points="90.78,-74 18.78,-74 18.78,-55 90.78,-55 90.78,-74"/>
<text text-anchor="middle" x="54.78" y="-62" font-family="Helvetica,sans-Serif" font-size="10.00">netinet/in.h</text>
</a>
</g>
</g>
<!-- Node20&#45;&gt;Node21 -->
<g id="edge29_Node000020_Node000021" class="edge">
<title>Node20&#45;&gt;Node21</title>
<g id="a_edge29_Node000020_Node000021"><a xlink:title=" ">
<path fill="none" stroke="#63b8ff" d="M108.5,-109.98C98.94,-102.07 84.5,-90.11 73,-80.58"/>
<polygon fill="#63b8ff" stroke="#63b8ff" points="75.18,-77.85 65.25,-74.17 70.72,-83.24 75.18,-77.85"/>
</a>
</g>
</g>
<!-- Node22 -->
<g id="Node000022" class="node">
<title>Node22</title>
<g id="a_Node000022"><a xlink:title=" ">
<polygon fill="#e0e0e0" stroke="#999999" points="186.28,-74 109.28,-74 109.28,-55 186.28,-55 186.28,-74"/>
<text text-anchor="middle" x="147.78" y="-62" font-family="Helvetica,sans-Serif" font-size="10.00">sys/socket.h</text>
</a>
</g>
</g>
<!-- Node20&#45;&gt;Node22 -->
<g id="edge31_Node000020_Node000022" class="edge">
<title>Node20&#45;&gt;Node22</title>
<g id="a_edge31_Node000020_Node000022"><a xlink:title=" ">
<path fill="none" stroke="#63b8ff" d="M123.57,-109.75C127.54,-102.49 133.31,-91.95 138.22,-82.98"/>
<polygon fill="#63b8ff" stroke="#63b8ff" points="141.35,-84.54 143.08,-74.09 135.21,-81.18 141.35,-84.54"/>
</a>
</g>
</g>
<!-- Node23 -->
<g id="Node000023" class="node">
<title>Node23</title>
<g id="a_Node000023"><a xlink:title=" ">
<polygon fill="#e0e0e0" stroke="#999999" points="260.78,-74 204.78,-74 204.78,-55 260.78,-55 260.78,-74"/>
<text text-anchor="middle" x="232.78" y="-62" font-family="Helvetica,sans-Serif" font-size="10.00">unistd.h</text>
</a>
</g>
</g>
<!-- Node20&#45;&gt;Node23 -->
<g id="edge32_Node000020_Node000023" class="edge">
<title>Node20&#45;&gt;Node23</title>
<g id="a_edge32_Node000020_Node000023"><a xlink:title=" ">
<path fill="none" stroke="#63b8ff" d="M137.1,-109.98C155.44,-101.46 183.89,-88.23 205.01,-78.41"/>
<polygon fill="#63b8ff" stroke="#63b8ff" points="206.54,-81.56 214.13,-74.17 203.59,-75.21 206.54,-81.56"/>
</a>
</g>
</g>
<!-- Node24&#45;&gt;Node10 -->
<g id="edge37_Node000024_Node000010" class="edge">
<title>Node24&#45;&gt;Node10</title>
<g id="a_edge37_Node000024_Node000010"><a xlink:title=" ">
<path fill="none" stroke="#63b8ff" d="M390.76,-166.04C346.29,-156.22 274.38,-139.02 266.78,-129 261.68,-122.27 261.7,-116.74 266.78,-110 305.23,-58.97 502.58,-26.11 581.3,-14.84"/>
<polygon fill="#63b8ff" stroke="#63b8ff" points="582.18,-18.26 591.59,-13.4 581.2,-11.32 582.18,-18.26"/>
</a>
</g>
</g>
<!-- Node24&#45;&gt;Node15 -->
<g id="edge35_Node000024_Node000015" class="edge">
<title>Node24&#45;&gt;Node15</title>
<g id="a_edge35_Node000024_Node000015"><a xlink:title=" ">
<path fill="none" stroke="#63b8ff" d="M390.69,-165.49C348.33,-155.46 281.86,-138.47 274.78,-129 269.72,-122.24 269.21,-116.35 274.78,-110 294.32,-87.73 489.61,-73.13 574.6,-67.78"/>
<polygon fill="#63b8ff" stroke="#63b8ff" points="574.88,-71.27 584.64,-67.16 574.45,-64.28 574.88,-71.27"/>
</a>
</g>
</g>
<!-- Node25 -->
<g id="Node000025" class="node">
<title>Node25</title>
<g id="a_Node000025"><a xlink:title=" ">
<polygon fill="#e0e0e0" stroke="#999999" points="331.78,-129 283.78,-129 283.78,-110 331.78,-110 331.78,-129"/>
<text text-anchor="middle" x="307.78" y="-117" font-family="Helvetica,sans-Serif" font-size="10.00">mutex</text>
</a>
</g>
</g>
<!-- Node24&#45;&gt;Node25 -->
<g id="edge36_Node000024_Node000025" class="edge">
<title>Node24&#45;&gt;Node25</title>
<g id="a_edge36_Node000024_Node000025"><a xlink:title=" ">
<path fill="none" stroke="#63b8ff" d="M406.82,-164.98C387.75,-156.42 358.12,-143.11 336.23,-133.28"/>
<polygon fill="#63b8ff" stroke="#63b8ff" points="337.64,-130.07 327.08,-129.17 334.77,-136.46 337.64,-130.07"/>
</a>
</g>
</g>
<!-- Node26 -->
<g id="Node000026" class="node">
<title>Node26</title>
<g id="a_Node000026"><a xlink:title=" ">
<polygon fill="#e0e0e0" stroke="#999999" points="528.28,-129 435.28,-129 435.28,-110 528.28,-110 528.28,-129"/>
<text text-anchor="middle" x="481.78" y="-117" font-family="Helvetica,sans-Serif" font-size="10.00">unordered_map</text>
</a>
</g>
</g>
<!-- Node24&#45;&gt;Node26 -->
<g id="edge38_Node000024_Node000026" class="edge">
<title>Node24&#45;&gt;Node26</title>
<g id="a_edge38_Node000024_Node000026"><a xlink:title=" ">
<path fill="none" stroke="#63b8ff" d="M434.78,-164.98C442.98,-157.23 455.29,-145.58 465.25,-136.14"/>
<polygon fill="#63b8ff" stroke="#63b8ff" points="467.76,-138.59 472.62,-129.17 462.95,-133.5 467.76,-138.59"/>
</a>
</g>
</g>
<!-- Node27 -->
<g id="Node000027" class="node">
<title>Node27</title>
<g id="a_Node000027"><a xlink:href="file__id_8hpp.html" target="_top" xlink:title=" ">
<polygon fill="white" stroke="#666666" points="417.28,-129 350.28,-129 350.28,-110 417.28,-110 417.28,-129"/>
<text text-anchor="middle" x="383.78" y="-117" font-family="Helvetica,sans-Serif" font-size="10.00">file_id.hpp</text>
</a>
</g>
</g>
<!-- Node24&#45;&gt;Node27 -->
<g id="edge39_Node000024_Node000027" class="edge">
<title>Node24&#45;&gt;Node27</title>
<g id="a_edge39_Node000024_Node000027"><a xlink:title=" ">
<path fill="none" stroke="#63b8ff" d="M418.85,-164.75C412.91,-157.26 404.21,-146.28 396.96,-137.13"/>
<polygon fill="#63b8ff" stroke="#63b8ff" points="399.54,-134.75 390.59,-129.09 394.05,-139.1 399.54,-134.75"/>
</a>
</g>
</g>
<!-- Node24&#45;&gt;Node28 -->
<g id="edge41_Node000024_Node000028" class="edge">
<title>Node24&#45;&gt;Node28</title>
<g id="a_edge41_Node000024_Node000028"><a xlink:title=" ">
<path fill="none" stroke="#63b8ff" d="M460.93,-166.63C509.37,-157.15 596.72,-140.07 650.45,-129.56"/>
<polygon fill="#63b8ff" stroke="#63b8ff" points="651.25,-132.97 660.4,-127.62 649.91,-126.1 651.25,-132.97"/>
</a>
</g>
</g>
<!-- Node27&#45;&gt;Node10 -->
<g id="edge40_Node000027_Node000010" class="edge">
<title>Node27&#45;&gt;Node10</title>
<g id="a_edge40_Node000027_Node000010"><a xlink:title=" ">
<path fill="none" stroke="#63b8ff" d="M402.21,-109.84C442.6,-90.88 539.08,-45.58 586.51,-23.31"/>
<polygon fill="#63b8ff" stroke="#63b8ff" points="588.02,-26.47 595.58,-19.05 585.04,-20.13 588.02,-26.47"/>
</a>
</g>
</g>
<!-- Node28&#45;&gt;Node10 -->
<g id="edge43_Node000028_Node000010" class="edge">
<title>Node28&#45;&gt;Node10</title>
<g id="a_edge43_Node000028_Node000010"><a xlink:title=" ">
<path fill="none" stroke="#63b8ff" d="M690.91,-109.69C682.54,-97.26 666.56,-73.98 651.78,-55 644.29,-45.38 635.47,-35 628.22,-26.69"/>
<polygon fill="#63b8ff" stroke="#63b8ff" points="630.83,-24.36 621.59,-19.17 625.58,-28.99 630.83,-24.36"/>
</a>
</g>
</g>
<!-- Node28&#45;&gt;Node15 -->
<g id="edge42_Node000028_Node000015" class="edge">
<title>Node28&#45;&gt;Node15</title>
<g id="a_edge42_Node000028_Node000015"><a xlink:title=" ">
<path fill="none" stroke="#63b8ff" d="M683.45,-109.98C670.69,-101.84 651.23,-89.41 636.11,-79.76"/>
<polygon fill="#63b8ff" stroke="#63b8ff" points="637.67,-76.6 627.36,-74.17 633.9,-82.5 637.67,-76.6"/>
</a>
</g>
</g>
<!-- Node28&#45;&gt;Node17 -->
<g id="edge44_Node000028_Node000017" class="edge">
<title>Node28&#45;&gt;Node17</title>
<g id="a_edge44_Node000028_Node000017"><a xlink:title=" ">
<path fill="none" stroke="#63b8ff" d="M710.12,-109.98C722.87,-101.84 742.33,-89.41 757.45,-79.76"/>
<polygon fill="#63b8ff" stroke="#63b8ff" points="759.66,-82.5 766.2,-74.17 755.89,-76.6 759.66,-82.5"/>
</a>
</g>
</g>
<!-- Node28&#45;&gt;Node18 -->
<g id="edge45_Node000028_Node000018" class="edge">
<title>Node28&#45;&gt;Node18</title>
<g id="a_edge45_Node000028_Node000018"><a xlink:title=" ">
<path fill="none" stroke="#63b8ff" d="M731.81,-109.98C769.28,-100.87 828.83,-86.4 869.76,-76.45"/>
<polygon fill="#63b8ff" stroke="#63b8ff" points="870.59,-79.85 879.48,-74.08 868.94,-73.04 870.59,-79.85"/>
</a>
</g>
</g>
<!-- Node29&#45;&gt;Node10 -->
<g id="edge50_Node000029_Node000010" class="edge">
<title>Node29&#45;&gt;Node10</title>
<g id="a_edge50_Node000029_Node000010"><a xlink:title=" ">
<path fill="none" stroke="#63b8ff" d="M554.79,-164.7C555.13,-144.37 557.85,-92.98 575.78,-55 580.86,-44.25 589.23,-34.03 596.83,-26.1"/>
<polygon fill="#63b8ff" stroke="#63b8ff" points="599.36,-28.52 604.01,-19.01 594.44,-23.54 599.36,-28.52"/>
</a>
</g>
</g>
<!-- Node29&#45;&gt;Node12 -->
<g id="edge52_Node000029_Node000012" class="edge">
<title>Node29&#45;&gt;Node12</title>
<g id="a_edge52_Node000029_Node000012"><a xlink:title=" ">
<path fill="none" stroke="#63b8ff" d="M590.35,-170.87C672.41,-164.56 872.89,-147.7 937.78,-129 978.51,-117.26 1022.22,-94.13 1048,-79.26"/>
<polygon fill="#63b8ff" stroke="#63b8ff" points="1049.79,-82.27 1056.64,-74.19 1046.25,-76.23 1049.79,-82.27"/>
</a>
</g>
</g>
<!-- Node29&#45;&gt;Node14 -->
<g id="edge53_Node000029_Node000014" class="edge">
<title>Node29&#45;&gt;Node14</title>
<g id="a_edge53_Node000029_Node000014"><a xlink:title=" ">
<path fill="none" stroke="#63b8ff" d="M590.58,-167.63C645.34,-158.64 750.56,-141.38 817.3,-130.42"/>
<polygon fill="#63b8ff" stroke="#63b8ff" points="817.96,-133.86 827.27,-128.79 816.83,-126.95 817.96,-133.86"/>
</a>
</g>
</g>
<!-- Node29&#45;&gt;Node15 -->
<g id="edge48_Node000029_Node000015" class="edge">
<title>Node29&#45;&gt;Node15</title>
<g id="a_edge48_Node000029_Node000015"><a xlink:title=" ">
<path fill="none" stroke="#63b8ff" d="M559.61,-164.66C569.34,-146.85 591.46,-106.37 604.22,-83.01"/>
<polygon fill="#63b8ff" stroke="#63b8ff" points="607.33,-84.61 609.05,-74.16 601.18,-81.26 607.33,-84.61"/>
</a>
</g>
</g>
<!-- Node29&#45;&gt;Node18 -->
<g id="edge54_Node000029_Node000018" class="edge">
<title>Node29&#45;&gt;Node18</title>
<g id="a_edge54_Node000029_Node000018"><a xlink:title=" ">
<path fill="none" stroke="#63b8ff" d="M590.62,-166.29C628.51,-158.36 689.86,-144.65 741.78,-129 792.66,-113.67 850.35,-91.5 884.59,-77.82"/>
<polygon fill="#63b8ff" stroke="#63b8ff" points="886.04,-81.01 894.01,-74.03 883.43,-74.51 886.04,-81.01"/>
</a>
</g>
</g>
<!-- Node29&#45;&gt;Node25 -->
<g id="edge49_Node000029_Node000025" class="edge">
<title>Node29&#45;&gt;Node25</title>
<g id="a_edge49_Node000029_Node000025"><a xlink:title=" ">
<path fill="none" stroke="#63b8ff" d="M519.26,-166.52C476.9,-158.09 404.01,-143.27 341.78,-129 341.68,-128.98 341.58,-128.95 341.48,-128.93"/>
<polygon fill="#63b8ff" stroke="#63b8ff" points="342.44,-125.56 331.9,-126.65 340.82,-132.37 342.44,-125.56"/>
</a>
</g>
</g>
<!-- Node29&#45;&gt;Node26 -->
<g id="edge51_Node000029_Node000026" class="edge">
<title>Node29&#45;&gt;Node26</title>
<g id="a_edge51_Node000029_Node000026"><a xlink:title=" ">
<path fill="none" stroke="#63b8ff" d="M543.05,-164.98C532.05,-157 515.36,-144.88 502.18,-135.31"/>
<polygon fill="#63b8ff" stroke="#63b8ff" points="503.87,-132.21 493.72,-129.17 499.76,-137.88 503.87,-132.21"/>
</a>
</g>
</g>
<!-- Node29&#45;&gt;Node27 -->
<g id="edge55_Node000029_Node000027" class="edge">
<title>Node29&#45;&gt;Node27</title>
<g id="a_edge55_Node000029_Node000027"><a xlink:title=" ">
<path fill="none" stroke="#63b8ff" d="M527.31,-164.98C498.6,-156.09 453.36,-142.07 421.36,-132.15"/>
<polygon fill="#63b8ff" stroke="#63b8ff" points="422.06,-128.7 411.47,-129.08 419.99,-135.39 422.06,-128.7"/>
</a>
</g>
</g>
<!-- Node30&#45;&gt;Node14 -->
<g id="edge58_Node000030_Node000014" class="edge">
<title>Node30&#45;&gt;Node14</title>
<g id="a_edge58_Node000030_Node000014"><a xlink:title=" ">
<path fill="none" stroke="#63b8ff" d="M957.52,-164.98C942.65,-156.69 919.8,-143.94 902.36,-134.22"/>
<polygon fill="#63b8ff" stroke="#63b8ff" points="903.76,-130.99 893.32,-129.17 900.35,-137.1 903.76,-130.99"/>
</a>
</g>
</g>
<!-- Node30&#45;&gt;Node15 -->
<g id="edge57_Node000030_Node000015" class="edge">
<title>Node30&#45;&gt;Node15</title>
<g id="a_edge57_Node000030_Node000015"><a xlink:title=" ">
<path fill="none" stroke="#63b8ff" d="M938.89,-166.43C936.15,-165.92 933.42,-165.44 930.78,-165 869.11,-154.79 704.07,-163.26 651.78,-129 635.7,-118.46 625.43,-98.54 619.68,-83.81"/>
<polygon fill="#63b8ff" stroke="#63b8ff" points="622.91,-82.46 616.27,-74.21 616.32,-84.8 622.91,-82.46"/>
</a>
</g>
</g>
<!-- Node30&#45;&gt;Node18 -->
<g id="edge59_Node000030_Node000018" class="edge">
<title>Node30&#45;&gt;Node18</title>
<g id="a_edge59_Node000030_Node000018"><a xlink:title=" ">
<path fill="none" stroke="#63b8ff" d="M968.03,-164.66C958.47,-146.85 936.73,-106.37 924.18,-83.01"/>
<polygon fill="#63b8ff" stroke="#63b8ff" points="927.25,-81.31 919.43,-74.16 921.08,-84.62 927.25,-81.31"/>
</a>
</g>
</g>
<!-- Node31&#45;&gt;Node10 -->
<g id="edge61_Node000031_Node000010" class="edge">
<title>Node31&#45;&gt;Node10</title>
<g id="a_edge61_Node000031_Node000010"><a xlink:title=" ">
<path fill="none" stroke="#63b8ff" d="M560.59,-225.42C554.88,-223.38 548.66,-221.39 542.78,-220 321.29,-167.52 216.82,-270.82 38.78,-129 11.15,-106.99 -14.26,-80.88 9.78,-55 29.41,-33.88 458.95,-16.28 581.44,-11.67"/>
<polygon fill="#63b8ff" stroke="#63b8ff" points="581.81,-15.16 591.67,-11.29 581.55,-8.17 581.81,-15.16"/>
</a>
</g>
</g>
</g>
</svg>
