<?xml version="1.0" encoding="UTF-8" standalone="no"?>
<!DOCTYPE svg PUBLIC "-//W3C//DTD SVG 1.1//EN"
 "http://www.w3.org/Graphics/SVG/1.1/DTD/svg11.dtd">
<!-- Generated by graphviz version 2.43.0 (0)
 -->
<!-- Title: src/client/downloadmanager.cpp Pages: 1 -->
<svg width="1003pt" height="313pt"
 viewBox="0.00 0.00 1003.00 313.00" xmlns="http://www.w3.org/2000/svg" xmlns:xlink="http://www.w3.org/1999/xlink">
<g id="graph0" class="graph" transform="scale(1 1) rotate(0) translate(4 309)">
<title>src/client/downloadmanager.cpp</title>
<!-- Node1 -->
<g id="Node000001" class="node">
<title>Node1</title>
<g id="a_Node000001"><a xlink:title=" ">
<polygon fill="#999999" stroke="#666666" points="326,-305 152,-305 152,-286 326,-286 326,-305"/>
<text text-anchor="middle" x="239" y="-293" font-family="Helvetica,sans-Serif" font-size="10.00">src/client/downloadmanager.cpp</text>
</a>
</g>
</g>
<!-- Node2 -->
<g id="Node000002" class="node">
<title>Node2</title>
<g id="a_Node000002"><a xlink:title=" ">
<polygon fill="#e0e0e0" stroke="#999999" points="50,-244.5 0,-244.5 0,-225.5 50,-225.5 50,-244.5"/>
<text text-anchor="middle" x="25" y="-232.5" font-family="Helvetica,sans-Serif" font-size="10.00">cstring</text>
</a>
</g>
</g>
<!-- Node1&#45;&gt;Node2 -->
<g id="edge1_Node000001_Node000002" class="edge">
<title>Node1&#45;&gt;Node2</title>
<g id="a_edge1_Node000001_Node000002"><a xlink:title=" ">
<path fill="none" stroke="#63b8ff" d="M197.04,-285.97C160.24,-278.06 105.5,-265.23 59,-250 57.37,-249.47 55.71,-248.89 54.05,-248.29"/>
<polygon fill="#63b8ff" stroke="#63b8ff" points="55.18,-244.98 44.59,-244.65 52.66,-251.51 55.18,-244.98"/>
</a>
</g>
</g>
<!-- Node3 -->
<g id="Node000003" class="node">
<title>Node3</title>
<g id="a_Node000003"><a xlink:title=" ">
<polygon fill="#e0e0e0" stroke="#999999" points="115.5,-244.5 68.5,-244.5 68.5,-225.5 115.5,-225.5 115.5,-244.5"/>
<text text-anchor="middle" x="92" y="-232.5" font-family="Helvetica,sans-Serif" font-size="10.00">fcntl.h</text>
</a>
</g>
</g>
<!-- Node1&#45;&gt;Node3 -->
<g id="edge2_Node000001_Node000003" class="edge">
<title>Node1&#45;&gt;Node3</title>
<g id="a_edge2_Node000001_Node000003"><a xlink:title=" ">
<path fill="none" stroke="#63b8ff" d="M216.64,-285.99C193.6,-277.18 156.68,-262.9 125,-250 123.8,-249.51 122.58,-249.01 121.34,-248.5"/>
<polygon fill="#63b8ff" stroke="#63b8ff" points="122.43,-245.16 111.85,-244.53 119.73,-251.62 122.43,-245.16"/>
</a>
</g>
</g>
<!-- Node4 -->
<g id="Node000004" class="node">
<title>Node4</title>
<g id="a_Node000004"><a xlink:href="network__errors_8hpp.html" target="_top" xlink:title=" ">
<polygon fill="white" stroke="#666666" points="242,-250 134,-250 134,-220 242,-220 242,-250"/>
<text text-anchor="start" x="142" y="-238" font-family="Helvetica,sans-Serif" font-size="10.00">../network/network</text>
<text text-anchor="middle" x="188" y="-227" font-family="Helvetica,sans-Serif" font-size="10.00">_errors.hpp</text>
</a>
</g>
</g>
<!-- Node1&#45;&gt;Node4 -->
<g id="edge3_Node000001_Node000004" class="edge">
<title>Node1&#45;&gt;Node4</title>
<g id="a_edge3_Node000001_Node000004"><a xlink:title=" ">
<path fill="none" stroke="#63b8ff" d="M231.47,-285.87C225.07,-278.52 215.58,-267.63 207.1,-257.91"/>
<polygon fill="#63b8ff" stroke="#63b8ff" points="209.51,-255.35 200.31,-250.11 204.24,-259.95 209.51,-255.35"/>
</a>
</g>
</g>
<!-- Node6 -->
<g id="Node000006" class="node">
<title>Node6</title>
<g id="a_Node000006"><a xlink:href="downloadmanager_8hpp.html" target="_top" xlink:title=" ">
<polygon fill="white" stroke="#666666" points="522,-244.5 394,-244.5 394,-225.5 522,-225.5 522,-244.5"/>
<text text-anchor="middle" x="458" y="-232.5" font-family="Helvetica,sans-Serif" font-size="10.00">downloadmanager.hpp</text>
</a>
</g>
</g>
<!-- Node1&#45;&gt;Node6 -->
<g id="edge5_Node000001_Node000006" class="edge">
<title>Node1&#45;&gt;Node6</title>
<g id="a_edge5_Node000001_Node000006"><a xlink:title=" ">
<path fill="none" stroke="#63b8ff" d="M270.84,-285.99C309.28,-275.73 374.03,-258.43 416.39,-247.12"/>
<polygon fill="#63b8ff" stroke="#63b8ff" points="417.36,-250.48 426.12,-244.52 415.55,-243.72 417.36,-250.48"/>
</a>
</g>
</g>
<!-- Node30 -->
<g id="Node000030" class="node">
<title>Node30</title>
<g id="a_Node000030"><a xlink:href="file__io_8hpp.html" target="_top" xlink:title=" ">
<polygon fill="white" stroke="#666666" points="767.5,-184 700.5,-184 700.5,-165 767.5,-165 767.5,-184"/>
<text text-anchor="middle" x="734" y="-172" font-family="Helvetica,sans-Serif" font-size="10.00">file_io.hpp</text>
</a>
</g>
</g>
<!-- Node1&#45;&gt;Node30 -->
<g id="edge42_Node000001_Node000030" class="edge">
<title>Node1&#45;&gt;Node30</title>
<g id="a_edge42_Node000001_Node000030"><a xlink:title=" ">
<path fill="none" stroke="#63b8ff" d="M325.2,-285.96C383.83,-279.04 462.83,-267.51 531,-250 594.75,-233.62 666.4,-204.73 705.22,-188.15"/>
<polygon fill="#63b8ff" stroke="#63b8ff" points="707.02,-191.19 714.82,-184.02 704.25,-184.76 707.02,-191.19"/>
</a>
</g>
</g>
<!-- Node31 -->
<g id="Node000031" class="node">
<title>Node31</title>
<g id="a_Node000031"><a xlink:href="hash_8hpp.html" target="_top" xlink:title=" ">
<polygon fill="white" stroke="#666666" points="321.5,-244.5 260.5,-244.5 260.5,-225.5 321.5,-225.5 321.5,-244.5"/>
<text text-anchor="middle" x="291" y="-232.5" font-family="Helvetica,sans-Serif" font-size="10.00">hash.hpp</text>
</a>
</g>
</g>
<!-- Node1&#45;&gt;Node31 -->
<g id="edge45_Node000001_Node000031" class="edge">
<title>Node1&#45;&gt;Node31</title>
<g id="a_edge45_Node000001_Node000031"><a xlink:title=" ">
<path fill="none" stroke="#63b8ff" d="M246.67,-285.87C254.51,-277.05 266.86,-263.16 276.54,-252.27"/>
<polygon fill="#63b8ff" stroke="#63b8ff" points="279.27,-254.47 283.3,-244.67 274.04,-249.82 279.27,-254.47"/>
</a>
</g>
</g>
<!-- Node5 -->
<g id="Node000005" class="node">
<title>Node5</title>
<g id="a_Node000005"><a xlink:title=" ">
<polygon fill="#e0e0e0" stroke="#999999" points="289.5,-19 224.5,-19 224.5,0 289.5,0 289.5,-19"/>
<text text-anchor="middle" x="257" y="-7" font-family="Helvetica,sans-Serif" font-size="10.00">stdexcept</text>
</a>
</g>
</g>
<!-- Node4&#45;&gt;Node5 -->
<g id="edge4_Node000004_Node000005" class="edge">
<title>Node4&#45;&gt;Node5</title>
<g id="a_edge4_Node000004_Node000005"><a xlink:title=" ">
<path fill="none" stroke="#63b8ff" d="M184.11,-219.89C176.2,-188.16 161.35,-109.64 191,-55 198.48,-41.22 212.29,-30.91 225.36,-23.71"/>
<polygon fill="#63b8ff" stroke="#63b8ff" points="227.3,-26.65 234.64,-19 224.13,-20.4 227.3,-26.65"/>
</a>
</g>
</g>
<!-- Node7 -->
<g id="Node000007" class="node">
<title>Node7</title>
<g id="a_Node000007"><a xlink:title=" ">
<polygon fill="#e0e0e0" stroke="#999999" points="379,-184 329,-184 329,-165 379,-165 379,-184"/>
<text text-anchor="middle" x="354" y="-172" font-family="Helvetica,sans-Serif" font-size="10.00">atomic</text>
</a>
</g>
</g>
<!-- Node6&#45;&gt;Node7 -->
<g id="edge6_Node000006_Node000007" class="edge">
<title>Node6&#45;&gt;Node7</title>
<g id="a_edge6_Node000006_Node000007"><a xlink:title=" ">
<path fill="none" stroke="#63b8ff" d="M442.65,-225.37C425.68,-215.82 398.1,-200.31 378.21,-189.12"/>
<polygon fill="#63b8ff" stroke="#63b8ff" points="379.84,-186.02 369.41,-184.17 376.41,-192.12 379.84,-186.02"/>
</a>
</g>
</g>
<!-- Node8 -->
<g id="Node000008" class="node">
<title>Node8</title>
<g id="a_Node000008"><a xlink:title=" ">
<polygon fill="#e0e0e0" stroke="#999999" points="444.5,-184 397.5,-184 397.5,-165 444.5,-165 444.5,-184"/>
<text text-anchor="middle" x="421" y="-172" font-family="Helvetica,sans-Serif" font-size="10.00">deque</text>
</a>
</g>
</g>
<!-- Node6&#45;&gt;Node8 -->
<g id="edge7_Node000006_Node000008" class="edge">
<title>Node6&#45;&gt;Node8</title>
<g id="a_edge7_Node000006_Node000008"><a xlink:title=" ">
<path fill="none" stroke="#63b8ff" d="M452.54,-225.37C447.13,-216.81 438.69,-203.47 431.9,-192.74"/>
<polygon fill="#63b8ff" stroke="#63b8ff" points="434.79,-190.75 426.48,-184.17 428.87,-194.49 434.79,-190.75"/>
</a>
</g>
</g>
<!-- Node9 -->
<g id="Node000009" class="node">
<title>Node9</title>
<g id="a_Node000009"><a xlink:title=" ">
<polygon fill="#e0e0e0" stroke="#999999" points="527.5,-184 462.5,-184 462.5,-165 527.5,-165 527.5,-184"/>
<text text-anchor="middle" x="495" y="-172" font-family="Helvetica,sans-Serif" font-size="10.00">functional</text>
</a>
</g>
</g>
<!-- Node6&#45;&gt;Node9 -->
<g id="edge8_Node000006_Node000009" class="edge">
<title>Node6&#45;&gt;Node9</title>
<g id="a_edge8_Node000006_Node000009"><a xlink:title=" ">
<path fill="none" stroke="#63b8ff" d="M463.46,-225.37C468.87,-216.81 477.31,-203.47 484.1,-192.74"/>
<polygon fill="#63b8ff" stroke="#63b8ff" points="487.13,-194.49 489.52,-184.17 481.21,-190.75 487.13,-194.49"/>
</a>
</g>
</g>
<!-- Node10 -->
<g id="Node000010" class="node">
<title>Node10</title>
<g id="a_Node000010"><a xlink:title=" ">
<polygon fill="#e0e0e0" stroke="#999999" points="594,-184 546,-184 546,-165 594,-165 594,-184"/>
<text text-anchor="middle" x="570" y="-172" font-family="Helvetica,sans-Serif" font-size="10.00">thread</text>
</a>
</g>
</g>
<!-- Node6&#45;&gt;Node10 -->
<g id="edge9_Node000006_Node000010" class="edge">
<title>Node6&#45;&gt;Node10</title>
<g id="a_edge9_Node000006_Node000010"><a xlink:title=" ">
<path fill="none" stroke="#63b8ff" d="M474.53,-225.37C492.97,-215.73 523.04,-200.03 544.51,-188.81"/>
<polygon fill="#63b8ff" stroke="#63b8ff" points="546.16,-191.9 553.41,-184.17 542.92,-185.69 546.16,-191.9"/>
</a>
</g>
</g>
<!-- Node11 -->
<g id="Node000011" class="node">
<title>Node11</title>
<g id="a_Node000011"><a xlink:href="tcp__socket_8hpp.html" target="_top" xlink:title=" ">
<polygon fill="white" stroke="#666666" points="891.5,-129 750.5,-129 750.5,-110 891.5,-110 891.5,-129"/>
<text text-anchor="middle" x="821" y="-117" font-family="Helvetica,sans-Serif" font-size="10.00">../network/tcp_socket.hpp</text>
</a>
</g>
</g>
<!-- Node6&#45;&gt;Node11 -->
<g id="edge10_Node000006_Node000011" class="edge">
<title>Node6&#45;&gt;Node11</title>
<g id="a_edge10_Node000006_Node000011"><a xlink:title=" ">
<path fill="none" stroke="#63b8ff" d="M522.16,-229.9C602.78,-223.74 735.62,-209.95 777,-184 794.17,-173.23 806.4,-153.05 813.54,-138.32"/>
<polygon fill="#63b8ff" stroke="#63b8ff" points="816.75,-139.73 817.67,-129.17 810.37,-136.85 816.75,-139.73"/>
</a>
</g>
</g>
<!-- Node18 -->
<g id="Node000018" class="node">
<title>Node18</title>
<g id="a_Node000018"><a xlink:href="filesdb_8hpp.html" target="_top" xlink:title=" ">
<polygon fill="white" stroke="#666666" points="682,-184 612,-184 612,-165 682,-165 682,-184"/>
<text text-anchor="middle" x="647" y="-172" font-family="Helvetica,sans-Serif" font-size="10.00">filesdb.hpp</text>
</a>
</g>
</g>
<!-- Node6&#45;&gt;Node18 -->
<g id="edge17_Node000006_Node000018" class="edge">
<title>Node6&#45;&gt;Node18</title>
<g id="a_edge17_Node000006_Node000018"><a xlink:title=" ">
<path fill="none" stroke="#63b8ff" d="M485.48,-225.49C518.24,-215.36 573.12,-198.37 609.69,-187.05"/>
<polygon fill="#63b8ff" stroke="#63b8ff" points="610.97,-190.32 619.48,-184.02 608.9,-183.63 610.97,-190.32"/>
</a>
</g>
</g>
<!-- Node26 -->
<g id="Node000026" class="node">
<title>Node26</title>
<g id="a_Node000026"><a xlink:href="peerdb_8hpp.html" target="_top" xlink:title=" ">
<polygon fill="white" stroke="#666666" points="310.5,-184 239.5,-184 239.5,-165 310.5,-165 310.5,-184"/>
<text text-anchor="middle" x="275" y="-172" font-family="Helvetica,sans-Serif" font-size="10.00">peerdb.hpp</text>
</a>
</g>
</g>
<!-- Node6&#45;&gt;Node26 -->
<g id="edge30_Node000006_Node000026" class="edge">
<title>Node6&#45;&gt;Node26</title>
<g id="a_edge30_Node000006_Node000026"><a xlink:title=" ">
<path fill="none" stroke="#63b8ff" d="M431.39,-225.49C399.81,-215.4 346.99,-198.51 311.58,-187.19"/>
<polygon fill="#63b8ff" stroke="#63b8ff" points="312.23,-183.73 301.64,-184.02 310.1,-190.4 312.23,-183.73"/>
</a>
</g>
</g>
<!-- Node12 -->
<g id="Node000012" class="node">
<title>Node12</title>
<g id="a_Node000012"><a xlink:title=" ">
<polygon fill="#e0e0e0" stroke="#999999" points="680,-74 622,-74 622,-55 680,-55 680,-74"/>
<text text-anchor="middle" x="651" y="-62" font-family="Helvetica,sans-Serif" font-size="10.00">memory</text>
</a>
</g>
</g>
<!-- Node11&#45;&gt;Node12 -->
<g id="edge11_Node000011_Node000012" class="edge">
<title>Node11&#45;&gt;Node12</title>
<g id="a_edge11_Node000011_Node000012"><a xlink:title=" ">
<path fill="none" stroke="#63b8ff" d="M793.69,-109.98C765.15,-101.09 720.17,-87.07 688.36,-77.15"/>
<polygon fill="#63b8ff" stroke="#63b8ff" points="689.12,-73.72 678.53,-74.08 687.03,-80.4 689.12,-73.72"/>
</a>
</g>
</g>
<!-- Node13 -->
<g id="Node000013" class="node">
<title>Node13</title>
<g id="a_Node000013"><a xlink:title=" ">
<polygon fill="#e0e0e0" stroke="#999999" points="808,-74 736,-74 736,-55 808,-55 808,-74"/>
<text text-anchor="middle" x="772" y="-62" font-family="Helvetica,sans-Serif" font-size="10.00">netinet/in.h</text>
</a>
</g>
</g>
<!-- Node11&#45;&gt;Node13 -->
<g id="edge12_Node000011_Node000013" class="edge">
<title>Node11&#45;&gt;Node13</title>
<g id="a_edge12_Node000011_Node000013"><a xlink:title=" ">
<path fill="none" stroke="#63b8ff" d="M812.91,-109.75C805.84,-102.11 795.41,-90.82 786.85,-81.56"/>
<polygon fill="#63b8ff" stroke="#63b8ff" points="789.3,-79.06 779.94,-74.09 784.16,-83.81 789.3,-79.06"/>
</a>
</g>
</g>
<!-- Node14 -->
<g id="Node000014" class="node">
<title>Node14</title>
<g id="a_Node000014"><a xlink:title=" ">
<polygon fill="#e0e0e0" stroke="#999999" points="368,-19 324,-19 324,0 368,0 368,-19"/>
<text text-anchor="middle" x="346" y="-7" font-family="Helvetica,sans-Serif" font-size="10.00">string</text>
</a>
</g>
</g>
<!-- Node11&#45;&gt;Node14 -->
<g id="edge13_Node000011_Node000014" class="edge">
<title>Node11&#45;&gt;Node14</title>
<g id="a_edge13_Node000011_Node000014"><a xlink:title=" ">
<path fill="none" stroke="#63b8ff" d="M802.57,-109.92C783.58,-101.04 753.14,-86.72 727,-74 710.02,-65.74 707.07,-60.48 689,-55 566.4,-17.82 529.92,-36.45 403,-19 395.01,-17.9 386.39,-16.65 378.34,-15.45"/>
<polygon fill="#63b8ff" stroke="#63b8ff" points="378.59,-11.95 368.18,-13.93 377.55,-18.87 378.59,-11.95"/>
</a>
</g>
</g>
<!-- Node15 -->
<g id="Node000015" class="node">
<title>Node15</title>
<g id="a_Node000015"><a xlink:title=" ">
<polygon fill="#e0e0e0" stroke="#999999" points="903.5,-74 826.5,-74 826.5,-55 903.5,-55 903.5,-74"/>
<text text-anchor="middle" x="865" y="-62" font-family="Helvetica,sans-Serif" font-size="10.00">sys/socket.h</text>
</a>
</g>
</g>
<!-- Node11&#45;&gt;Node15 -->
<g id="edge14_Node000011_Node000015" class="edge">
<title>Node11&#45;&gt;Node15</title>
<g id="a_edge14_Node000011_Node000015"><a xlink:title=" ">
<path fill="none" stroke="#63b8ff" d="M828.27,-109.75C834.54,-102.18 843.79,-91.05 851.43,-81.84"/>
<polygon fill="#63b8ff" stroke="#63b8ff" points="854.17,-84.02 857.87,-74.09 848.79,-79.55 854.17,-84.02"/>
</a>
</g>
</g>
<!-- Node16 -->
<g id="Node000016" class="node">
<title>Node16</title>
<g id="a_Node000016"><a xlink:title=" ">
<polygon fill="#e0e0e0" stroke="#999999" points="978,-74 922,-74 922,-55 978,-55 978,-74"/>
<text text-anchor="middle" x="950" y="-62" font-family="Helvetica,sans-Serif" font-size="10.00">unistd.h</text>
</a>
</g>
</g>
<!-- Node11&#45;&gt;Node16 -->
<g id="edge15_Node000011_Node000016" class="edge">
<title>Node11&#45;&gt;Node16</title>
<g id="a_edge15_Node000011_Node000016"><a xlink:title=" ">
<path fill="none" stroke="#63b8ff" d="M841.73,-109.98C862.76,-101.34 895.55,-87.87 919.54,-78.02"/>
<polygon fill="#63b8ff" stroke="#63b8ff" points="920.98,-81.21 928.9,-74.17 918.32,-74.73 920.98,-81.21"/>
</a>
</g>
</g>
<!-- Node17 -->
<g id="Node000017" class="node">
<title>Node17</title>
<g id="a_Node000017"><a xlink:title=" ">
<polygon fill="#e0e0e0" stroke="#999999" points="781.5,-19 734.5,-19 734.5,0 781.5,0 781.5,-19"/>
<text text-anchor="middle" x="758" y="-7" font-family="Helvetica,sans-Serif" font-size="10.00">vector</text>
</a>
</g>
</g>
<!-- Node11&#45;&gt;Node17 -->
<g id="edge16_Node000011_Node000017" class="edge">
<title>Node11&#45;&gt;Node17</title>
<g id="a_edge16_Node000011_Node000017"><a xlink:title=" ">
<path fill="none" stroke="#63b8ff" d="M891.77,-113.94C949.72,-107.5 1017.52,-92.02 987,-55 962.63,-25.43 849.17,-15.26 791.64,-11.97"/>
<polygon fill="#63b8ff" stroke="#63b8ff" points="791.76,-8.47 781.58,-11.43 791.38,-15.46 791.76,-8.47"/>
</a>
</g>
</g>
<!-- Node19 -->
<g id="Node000019" class="node">
<title>Node19</title>
<g id="a_Node000019"><a xlink:title=" ">
<polygon fill="#e0e0e0" stroke="#999999" points="373,-129 325,-129 325,-110 373,-110 373,-129"/>
<text text-anchor="middle" x="349" y="-117" font-family="Helvetica,sans-Serif" font-size="10.00">mutex</text>
</a>
</g>
</g>
<!-- Node18&#45;&gt;Node19 -->
<g id="edge18_Node000018_Node000019" class="edge">
<title>Node18&#45;&gt;Node19</title>
<g id="a_edge18_Node000018_Node000019"><a xlink:title=" ">
<path fill="none" stroke="#63b8ff" d="M611.95,-166.64C608.93,-166.07 605.91,-165.52 603,-165 505.46,-147.6 480.03,-149.03 383,-129 382.9,-128.98 382.8,-128.96 382.7,-128.94"/>
<polygon fill="#63b8ff" stroke="#63b8ff" points="383.61,-125.56 373.09,-126.78 382.08,-132.39 383.61,-125.56"/>
</a>
</g>
</g>
<!-- Node20 -->
<g id="Node000020" class="node">
<title>Node20</title>
<g id="a_Node000020"><a xlink:title=" ">
<polygon fill="#e0e0e0" stroke="#999999" points="484.5,-129 391.5,-129 391.5,-110 484.5,-110 484.5,-129"/>
<text text-anchor="middle" x="438" y="-117" font-family="Helvetica,sans-Serif" font-size="10.00">unordered_map</text>
</a>
</g>
</g>
<!-- Node18&#45;&gt;Node20 -->
<g id="edge19_Node000018_Node000020" class="edge">
<title>Node18&#45;&gt;Node20</title>
<g id="a_edge19_Node000018_Node000020"><a xlink:title=" ">
<path fill="none" stroke="#63b8ff" d="M613.42,-164.98C577.65,-155.91 520.88,-141.52 481.66,-131.57"/>
<polygon fill="#63b8ff" stroke="#63b8ff" points="482.4,-128.15 471.84,-129.08 480.68,-134.93 482.4,-128.15"/>
</a>
</g>
</g>
<!-- Node21 -->
<g id="Node000021" class="node">
<title>Node21</title>
<g id="a_Node000021"><a xlink:href="file__id_8hpp.html" target="_top" xlink:title=" ">
<polygon fill="white" stroke="#666666" points="306.5,-129 239.5,-129 239.5,-110 306.5,-110 306.5,-129"/>
<text text-anchor="middle" x="273" y="-117" font-family="Helvetica,sans-Serif" font-size="10.00">file_id.hpp</text>
</a>
</g>
</g>
<!-- Node18&#45;&gt;Node21 -->
<g id="edge20_Node000018_Node000021" class="edge">
<title>Node18&#45;&gt;Node21</title>
<g id="a_edge20_Node000018_Node000021"><a xlink:title=" ">
<path fill="none" stroke="#63b8ff" d="M611.97,-166.52C608.94,-165.98 605.92,-165.46 603,-165 479.27,-145.31 444.66,-149.26 316.94,-129.04"/>
<polygon fill="#63b8ff" stroke="#63b8ff" points="317.19,-125.53 306.76,-127.41 316.08,-132.44 317.19,-125.53"/>
</a>
</g>
</g>
<!-- Node22 -->
<g id="Node000022" class="node">
<title>Node22</title>
<g id="a_Node000022"><a xlink:href="partfile_8hpp.html" target="_top" xlink:title=" ">
<polygon fill="white" stroke="#666666" points="694,-129 622,-129 622,-110 694,-110 694,-129"/>
<text text-anchor="middle" x="658" y="-117" font-family="Helvetica,sans-Serif" font-size="10.00">partfile.hpp</text>
</a>
</g>
</g>
<!-- Node18&#45;&gt;Node22 -->
<g id="edge22_Node000018_Node000022" class="edge">
<title>Node18&#45;&gt;Node22</title>
<g id="a_edge22_Node000018_Node000022"><a xlink:title=" ">
<path fill="none" stroke="#63b8ff" d="M648.82,-164.75C650.26,-157.8 652.32,-147.85 654.13,-139.13"/>
<polygon fill="#63b8ff" stroke="#63b8ff" points="657.61,-139.59 656.22,-129.09 650.76,-138.17 657.61,-139.59"/>
</a>
</g>
</g>
<!-- Node21&#45;&gt;Node14 -->
<g id="edge21_Node000021_Node000014" class="edge">
<title>Node21&#45;&gt;Node14</title>
<g id="a_edge21_Node000021_Node000014"><a xlink:title=" ">
<path fill="none" stroke="#63b8ff" d="M285.4,-109.9C296.34,-101.76 312.05,-88.63 322,-74 331.32,-60.3 337.65,-42.49 341.45,-29.22"/>
<polygon fill="#63b8ff" stroke="#63b8ff" points="344.89,-29.89 344.07,-19.33 338.13,-28.1 344.89,-29.89"/>
</a>
</g>
</g>
<!-- Node22&#45;&gt;Node12 -->
<g id="edge23_Node000022_Node000012" class="edge">
<title>Node22&#45;&gt;Node12</title>
<g id="a_edge23_Node000022_Node000012"><a xlink:title=" ">
<path fill="none" stroke="#63b8ff" d="M656.84,-109.75C655.93,-102.8 654.61,-92.85 653.46,-84.13"/>
<polygon fill="#63b8ff" stroke="#63b8ff" points="656.91,-83.54 652.13,-74.09 649.97,-84.46 656.91,-83.54"/>
</a>
</g>
</g>
<!-- Node23 -->
<g id="Node000023" class="node">
<title>Node23</title>
<g id="a_Node000023"><a xlink:title=" ">
<polygon fill="#e0e0e0" stroke="#999999" points="604,-74 518,-74 518,-55 604,-55 604,-74"/>
<text text-anchor="middle" x="561" y="-62" font-family="Helvetica,sans-Serif" font-size="10.00">unordered_set</text>
</a>
</g>
</g>
<!-- Node22&#45;&gt;Node23 -->
<g id="edge24_Node000022_Node000023" class="edge">
<title>Node22&#45;&gt;Node23</title>
<g id="a_edge24_Node000022_Node000023"><a xlink:title=" ">
<path fill="none" stroke="#63b8ff" d="M642.42,-109.98C627.23,-101.69 603.9,-88.94 586.1,-79.22"/>
<polygon fill="#63b8ff" stroke="#63b8ff" points="587.32,-75.89 576.87,-74.17 583.97,-82.04 587.32,-75.89"/>
</a>
</g>
</g>
<!-- Node24 -->
<g id="Node000024" class="node">
<title>Node24</title>
<g id="a_Node000024"><a xlink:href="fileinfo_8hpp.html" target="_top" xlink:title=" ">
<polygon fill="white" stroke="#666666" points="499.5,-74 380.5,-74 380.5,-55 499.5,-55 499.5,-74"/>
<text text-anchor="middle" x="440" y="-62" font-family="Helvetica,sans-Serif" font-size="10.00">../models/fileinfo.hpp</text>
</a>
</g>
</g>
<!-- Node22&#45;&gt;Node24 -->
<g id="edge25_Node000022_Node000024" class="edge">
<title>Node22&#45;&gt;Node24</title>
<g id="a_edge25_Node000022_Node000024"><a xlink:title=" ">
<path fill="none" stroke="#63b8ff" d="M622.97,-109.98C585.5,-100.87 525.95,-86.4 485.02,-76.45"/>
<polygon fill="#63b8ff" stroke="#63b8ff" points="485.84,-73.04 475.3,-74.08 484.19,-79.85 485.84,-73.04"/>
</a>
</g>
</g>
<!-- Node24&#45;&gt;Node5 -->
<g id="edge27_Node000024_Node000005" class="edge">
<title>Node24&#45;&gt;Node5</title>
<g id="a_edge27_Node000024_Node000005"><a xlink:title=" ">
<path fill="none" stroke="#63b8ff" d="M410.6,-54.98C379.61,-46.01 330.62,-31.82 296.33,-21.89"/>
<polygon fill="#63b8ff" stroke="#63b8ff" points="297.21,-18.5 286.63,-19.08 295.26,-25.23 297.21,-18.5"/>
</a>
</g>
</g>
<!-- Node24&#45;&gt;Node14 -->
<g id="edge28_Node000024_Node000014" class="edge">
<title>Node24&#45;&gt;Node14</title>
<g id="a_edge28_Node000024_Node000014"><a xlink:title=" ">
<path fill="none" stroke="#63b8ff" d="M424.9,-54.98C410.18,-46.69 387.58,-33.94 370.33,-24.22"/>
<polygon fill="#63b8ff" stroke="#63b8ff" points="371.81,-21.03 361.38,-19.17 368.37,-27.13 371.81,-21.03"/>
</a>
</g>
</g>
<!-- Node24&#45;&gt;Node17 -->
<g id="edge29_Node000024_Node000017" class="edge">
<title>Node24&#45;&gt;Node17</title>
<g id="a_edge29_Node000024_Node000017"><a xlink:title=" ">
<path fill="none" stroke="#63b8ff" d="M491.09,-54.98C556.57,-44.07 668.28,-25.45 724.13,-16.15"/>
<polygon fill="#63b8ff" stroke="#63b8ff" points="724.91,-19.56 734.2,-14.47 723.76,-12.66 724.91,-19.56"/>
</a>
</g>
</g>
<!-- Node25 -->
<g id="Node000025" class="node">
<title>Node25</title>
<g id="a_Node000025"><a xlink:title=" ">
<polygon fill="#e0e0e0" stroke="#999999" points="468,-19 412,-19 412,0 468,0 468,-19"/>
<text text-anchor="middle" x="440" y="-7" font-family="Helvetica,sans-Serif" font-size="10.00">sstream</text>
</a>
</g>
</g>
<!-- Node24&#45;&gt;Node25 -->
<g id="edge26_Node000024_Node000025" class="edge">
<title>Node24&#45;&gt;Node25</title>
<g id="a_edge26_Node000024_Node000025"><a xlink:title=" ">
<path fill="none" stroke="#63b8ff" d="M440,-54.75C440,-47.8 440,-37.85 440,-29.13"/>
<polygon fill="#63b8ff" stroke="#63b8ff" points="443.5,-29.09 440,-19.09 436.5,-29.09 443.5,-29.09"/>
</a>
</g>
</g>
<!-- Node26&#45;&gt;Node19 -->
<g id="edge31_Node000026_Node000019" class="edge">
<title>Node26&#45;&gt;Node19</title>
<g id="a_edge31_Node000026_Node000019"><a xlink:title=" ">
<path fill="none" stroke="#63b8ff" d="M286.89,-164.98C298.15,-156.92 315.29,-144.65 328.71,-135.03"/>
<polygon fill="#63b8ff" stroke="#63b8ff" points="330.8,-137.84 336.89,-129.17 326.73,-132.15 330.8,-137.84"/>
</a>
</g>
</g>
<!-- Node26&#45;&gt;Node20 -->
<g id="edge32_Node000026_Node000020" class="edge">
<title>Node26&#45;&gt;Node20</title>
<g id="a_edge32_Node000026_Node000020"><a xlink:title=" ">
<path fill="none" stroke="#63b8ff" d="M301.19,-164.98C328.44,-156.13 371.3,-142.19 401.78,-132.28"/>
<polygon fill="#63b8ff" stroke="#63b8ff" points="403.18,-135.5 411.61,-129.08 401.01,-128.85 403.18,-135.5"/>
</a>
</g>
</g>
<!-- Node26&#45;&gt;Node21 -->
<g id="edge41_Node000026_Node000021" class="edge">
<title>Node26&#45;&gt;Node21</title>
<g id="a_edge41_Node000026_Node000021"><a xlink:title=" ">
<path fill="none" stroke="#63b8ff" d="M274.67,-164.75C274.41,-157.8 274.03,-147.85 273.7,-139.13"/>
<polygon fill="#63b8ff" stroke="#63b8ff" points="277.2,-138.95 273.32,-129.09 270.2,-139.21 277.2,-138.95"/>
</a>
</g>
</g>
<!-- Node27 -->
<g id="Node000027" class="node">
<title>Node27</title>
<g id="a_Node000027"><a xlink:href="file_8hpp.html" target="_top" xlink:title=" ">
<polygon fill="white" stroke="#666666" points="603.5,-129 502.5,-129 502.5,-110 603.5,-110 603.5,-129"/>
<text text-anchor="middle" x="553" y="-117" font-family="Helvetica,sans-Serif" font-size="10.00">../models/file.hpp</text>
</a>
</g>
</g>
<!-- Node26&#45;&gt;Node27 -->
<g id="edge33_Node000026_Node000027" class="edge">
<title>Node26&#45;&gt;Node27</title>
<g id="a_edge33_Node000026_Node000027"><a xlink:title=" ">
<path fill="none" stroke="#63b8ff" d="M310.77,-166.68C358.27,-157.63 442.59,-141.55 498.15,-130.96"/>
<polygon fill="#63b8ff" stroke="#63b8ff" points="499,-134.36 508.17,-129.05 497.69,-127.48 499,-134.36"/>
</a>
</g>
</g>
<!-- Node27&#45;&gt;Node12 -->
<g id="edge34_Node000027_Node000012" class="edge">
<title>Node27&#45;&gt;Node12</title>
<g id="a_edge34_Node000027_Node000012"><a xlink:title=" ">
<path fill="none" stroke="#63b8ff" d="M568.75,-109.98C584.23,-101.61 608.09,-88.7 626.14,-78.95"/>
<polygon fill="#63b8ff" stroke="#63b8ff" points="627.84,-82.01 634.97,-74.17 624.51,-75.85 627.84,-82.01"/>
</a>
</g>
</g>
<!-- Node27&#45;&gt;Node23 -->
<g id="edge35_Node000027_Node000023" class="edge">
<title>Node27&#45;&gt;Node23</title>
<g id="a_edge35_Node000027_Node000023"><a xlink:title=" ">
<path fill="none" stroke="#63b8ff" d="M554.32,-109.75C555.37,-102.8 556.87,-92.85 558.19,-84.13"/>
<polygon fill="#63b8ff" stroke="#63b8ff" points="561.67,-84.5 559.7,-74.09 554.75,-83.45 561.67,-84.5"/>
</a>
</g>
</g>
<!-- Node27&#45;&gt;Node24 -->
<g id="edge40_Node000027_Node000024" class="edge">
<title>Node27&#45;&gt;Node24</title>
<g id="a_edge40_Node000027_Node000024"><a xlink:title=" ">
<path fill="none" stroke="#63b8ff" d="M534.84,-109.98C516.75,-101.5 488.72,-88.35 467.81,-78.54"/>
<polygon fill="#63b8ff" stroke="#63b8ff" points="469.03,-75.25 458.49,-74.17 466.05,-81.59 469.03,-75.25"/>
</a>
</g>
</g>
<!-- Node28 -->
<g id="Node000028" class="node">
<title>Node28</title>
<g id="a_Node000028"><a xlink:href="endpoint_8hpp.html" target="_top" xlink:title=" ">
<polygon fill="white" stroke="#666666" points="280,-74 200,-74 200,-55 280,-55 280,-74"/>
<text text-anchor="middle" x="240" y="-62" font-family="Helvetica,sans-Serif" font-size="10.00">endpoint.hpp</text>
</a>
</g>
</g>
<!-- Node27&#45;&gt;Node28 -->
<g id="edge36_Node000027_Node000028" class="edge">
<title>Node27&#45;&gt;Node28</title>
<g id="a_edge36_Node000027_Node000028"><a xlink:title=" ">
<path fill="none" stroke="#63b8ff" d="M502.71,-109.98C444.35,-100.1 348.68,-83.9 290.31,-74.02"/>
<polygon fill="#63b8ff" stroke="#63b8ff" points="290.66,-70.53 280.21,-72.31 289.49,-77.43 290.66,-70.53"/>
</a>
</g>
</g>
<!-- Node28&#45;&gt;Node5 -->
<g id="edge38_Node000028_Node000005" class="edge">
<title>Node28&#45;&gt;Node5</title>
<g id="a_edge38_Node000028_Node000005"><a xlink:title=" ">
<path fill="none" stroke="#63b8ff" d="M242.81,-54.75C245.06,-47.72 248.3,-37.62 251.12,-28.84"/>
<polygon fill="#63b8ff" stroke="#63b8ff" points="254.52,-29.68 254.25,-19.09 247.86,-27.54 254.52,-29.68"/>
</a>
</g>
</g>
<!-- Node28&#45;&gt;Node14 -->
<g id="edge39_Node000028_Node000014" class="edge">
<title>Node28&#45;&gt;Node14</title>
<g id="a_edge39_Node000028_Node000014"><a xlink:title=" ">
<path fill="none" stroke="#63b8ff" d="M257.03,-54.98C273.93,-46.54 300.06,-33.47 319.64,-23.68"/>
<polygon fill="#63b8ff" stroke="#63b8ff" points="321.28,-26.77 328.66,-19.17 318.15,-20.51 321.28,-26.77"/>
</a>
</g>
</g>
<!-- Node29 -->
<g id="Node000029" class="node">
<title>Node29</title>
<g id="a_Node000029"><a xlink:title=" ">
<polygon fill="#e0e0e0" stroke="#999999" points="206,-19 156,-19 156,0 206,0 206,-19"/>
<text text-anchor="middle" x="181" y="-7" font-family="Helvetica,sans-Serif" font-size="10.00">cstdint</text>
</a>
</g>
</g>
<!-- Node28&#45;&gt;Node29 -->
<g id="edge37_Node000028_Node000029" class="edge">
<title>Node28&#45;&gt;Node29</title>
<g id="a_edge37_Node000028_Node000029"><a xlink:title=" ">
<path fill="none" stroke="#63b8ff" d="M230.52,-54.98C221.8,-47.15 208.66,-35.34 198.1,-25.86"/>
<polygon fill="#63b8ff" stroke="#63b8ff" points="200.43,-23.25 190.65,-19.17 195.75,-28.46 200.43,-23.25"/>
</a>
</g>
</g>
<!-- Node30&#45;&gt;Node12 -->
<g id="edge43_Node000030_Node000012" class="edge">
<title>Node30&#45;&gt;Node12</title>
<g id="a_edge43_Node000030_Node000012"><a xlink:title=" ">
<path fill="none" stroke="#63b8ff" d="M731,-164.65C726.35,-151.76 716.51,-127.46 703,-110 694.25,-98.69 682.24,-88.19 671.97,-80.22"/>
<polygon fill="#63b8ff" stroke="#63b8ff" points="673.96,-77.35 663.85,-74.17 669.78,-82.96 673.96,-77.35"/>
</a>
</g>
</g>
<!-- Node30&#45;&gt;Node27 -->
<g id="edge44_Node000030_Node000027" class="edge">
<title>Node30&#45;&gt;Node27</title>
<g id="a_edge44_Node000030_Node000027"><a xlink:title=" ">
<path fill="none" stroke="#63b8ff" d="M704.92,-164.98C674.4,-156.05 626.24,-141.94 592.34,-132.02"/>
<polygon fill="#63b8ff" stroke="#63b8ff" points="592.89,-128.53 582.31,-129.08 590.92,-135.25 592.89,-128.53"/>
</a>
</g>
</g>
<!-- Node31&#45;&gt;Node14 -->
<g id="edge46_Node000031_Node000014" class="edge">
<title>Node31&#45;&gt;Node14</title>
<g id="a_edge46_Node000031_Node000014"><a xlink:title=" ">
<path fill="none" stroke="#63b8ff" d="M273.95,-225.35C259.51,-216.98 239.8,-202.79 231,-184 217.05,-154.22 215.01,-138.74 231,-110 245.75,-83.49 265.74,-93.48 289,-74 305.95,-59.8 322.52,-40.56 333.38,-27"/>
<polygon fill="#63b8ff" stroke="#63b8ff" points="336.23,-29.04 339.65,-19.01 330.72,-24.72 336.23,-29.04"/>
</a>
</g>
</g>
</g>
</svg>
