<?xml version="1.0" encoding="UTF-8" standalone="no"?>
<!DOCTYPE svg PUBLIC "-//W3C//DTD SVG 1.1//EN"
 "http://www.w3.org/Graphics/SVG/1.1/DTD/svg11.dtd">
<!-- Generated by graphviz version 2.43.0 (0)
 -->
<!-- Title: src/client/downloadmanager.hpp Pages: 1 -->
<svg width="1196pt" height="247pt"
 viewBox="0.00 0.00 1195.50 247.00" xmlns="http://www.w3.org/2000/svg" xmlns:xlink="http://www.w3.org/1999/xlink">
<g id="graph0" class="graph" transform="scale(1 1) rotate(0) translate(4 243)">
<title>src/client/downloadmanager.hpp</title>
<!-- Node1 -->
<g id="Node000001" class="node">
<title>Node1</title>
<g id="a_Node000001"><a xlink:title=" ">
<polygon fill="#999999" stroke="#666666" points="418.5,-239 243.5,-239 243.5,-220 418.5,-220 418.5,-239"/>
<text text-anchor="middle" x="331" y="-227" font-family="Helvetica,sans-Serif" font-size="10.00">src/client/downloadmanager.hpp</text>
</a>
</g>
</g>
<!-- Node2 -->
<g id="Node000002" class="node">
<title>Node2</title>
<g id="a_Node000002"><a xlink:title=" ">
<polygon fill="#e0e0e0" stroke="#999999" points="50,-184 0,-184 0,-165 50,-165 50,-184"/>
<text text-anchor="middle" x="25" y="-172" font-family="Helvetica,sans-Serif" font-size="10.00">atomic</text>
</a>
</g>
</g>
<!-- Node1&#45;&gt;Node2 -->
<g id="edge1_Node000001_Node000002" class="edge">
<title>Node1&#45;&gt;Node2</title>
<g id="a_edge1_Node000001_Node000002"><a xlink:title=" ">
<path fill="none" stroke="#63b8ff" d="M269.97,-219.99C216.94,-212.26 137.86,-199.94 60.16,-184.1"/>
<polygon fill="#63b8ff" stroke="#63b8ff" points="60.7,-180.64 50.2,-182.05 59.29,-187.49 60.7,-180.64"/>
</a>
</g>
</g>
<!-- Node3 -->
<g id="Node000003" class="node">
<title>Node3</title>
<g id="a_Node000003"><a xlink:title=" ">
<polygon fill="#e0e0e0" stroke="#999999" points="115.5,-184 68.5,-184 68.5,-165 115.5,-165 115.5,-184"/>
<text text-anchor="middle" x="92" y="-172" font-family="Helvetica,sans-Serif" font-size="10.00">deque</text>
</a>
</g>
</g>
<!-- Node1&#45;&gt;Node3 -->
<g id="edge2_Node000001_Node000003" class="edge">
<title>Node1&#45;&gt;Node3</title>
<g id="a_edge2_Node000001_Node000003"><a xlink:title=" ">
<path fill="none" stroke="#63b8ff" d="M288.45,-219.97C248.63,-211.86 187.28,-198.99 125.63,-184.31"/>
<polygon fill="#63b8ff" stroke="#63b8ff" points="126.27,-180.87 115.73,-181.94 124.64,-187.67 126.27,-180.87"/>
</a>
</g>
</g>
<!-- Node4 -->
<g id="Node000004" class="node">
<title>Node4</title>
<g id="a_Node000004"><a xlink:title=" ">
<polygon fill="#e0e0e0" stroke="#999999" points="198.5,-184 133.5,-184 133.5,-165 198.5,-165 198.5,-184"/>
<text text-anchor="middle" x="166" y="-172" font-family="Helvetica,sans-Serif" font-size="10.00">functional</text>
</a>
</g>
</g>
<!-- Node1&#45;&gt;Node4 -->
<g id="edge3_Node000001_Node000004" class="edge">
<title>Node1&#45;&gt;Node4</title>
<g id="a_edge3_Node000001_Node000004"><a xlink:title=" ">
<path fill="none" stroke="#63b8ff" d="M304.49,-219.98C276.79,-211.09 233.14,-197.07 202.26,-187.15"/>
<polygon fill="#63b8ff" stroke="#63b8ff" points="203.31,-183.81 192.72,-184.08 201.17,-190.47 203.31,-183.81"/>
</a>
</g>
</g>
<!-- Node5 -->
<g id="Node000005" class="node">
<title>Node5</title>
<g id="a_Node000005"><a xlink:title=" ">
<polygon fill="#e0e0e0" stroke="#999999" points="712,-19 668,-19 668,0 712,0 712,-19"/>
<text text-anchor="middle" x="690" y="-7" font-family="Helvetica,sans-Serif" font-size="10.00">string</text>
</a>
</g>
</g>
<!-- Node1&#45;&gt;Node5 -->
<g id="edge4_Node000001_Node000005" class="edge">
<title>Node1&#45;&gt;Node5</title>
<g id="a_edge4_Node000001_Node000005"><a xlink:title=" ">
<path fill="none" stroke="#63b8ff" d="M418.96,-220.48C536.53,-207.96 736.04,-179.75 787,-129 810.78,-105.32 820.85,-82.77 802,-55 784.26,-28.87 748.5,-18.08 722.13,-13.63"/>
<polygon fill="#63b8ff" stroke="#63b8ff" points="722.6,-10.16 712.2,-12.17 721.58,-17.08 722.6,-10.16"/>
</a>
</g>
</g>
<!-- Node6 -->
<g id="Node000006" class="node">
<title>Node6</title>
<g id="a_Node000006"><a xlink:title=" ">
<polygon fill="#e0e0e0" stroke="#999999" points="303,-184 255,-184 255,-165 303,-165 303,-184"/>
<text text-anchor="middle" x="279" y="-172" font-family="Helvetica,sans-Serif" font-size="10.00">thread</text>
</a>
</g>
</g>
<!-- Node1&#45;&gt;Node6 -->
<g id="edge5_Node000001_Node000006" class="edge">
<title>Node1&#45;&gt;Node6</title>
<g id="a_edge5_Node000001_Node000006"><a xlink:title=" ">
<path fill="none" stroke="#63b8ff" d="M322.41,-219.75C314.84,-212.03 303.62,-200.6 294.49,-191.28"/>
<polygon fill="#63b8ff" stroke="#63b8ff" points="296.93,-188.78 287.43,-184.09 291.93,-193.68 296.93,-188.78"/>
</a>
</g>
</g>
<!-- Node7 -->
<g id="Node000007" class="node">
<title>Node7</title>
<g id="a_Node000007"><a xlink:href="endpoint_8hpp.html" target="_top" xlink:title=" ">
<polygon fill="white" stroke="#666666" points="392,-74 264,-74 264,-55 392,-55 392,-74"/>
<text text-anchor="middle" x="328" y="-62" font-family="Helvetica,sans-Serif" font-size="10.00">../models/endpoint.hpp</text>
</a>
</g>
</g>
<!-- Node1&#45;&gt;Node7 -->
<g id="edge6_Node000001_Node000007" class="edge">
<title>Node1&#45;&gt;Node7</title>
<g id="a_edge6_Node000001_Node000007"><a xlink:title=" ">
<path fill="none" stroke="#63b8ff" d="M296.78,-219.93C278.29,-213.37 257.04,-202.24 246,-184 222.44,-145.07 273.76,-101.63 305.44,-79.75"/>
<polygon fill="#63b8ff" stroke="#63b8ff" points="307.42,-82.64 313.78,-74.17 303.52,-76.83 307.42,-82.64"/>
</a>
</g>
</g>
<!-- Node10 -->
<g id="Node000010" class="node">
<title>Node10</title>
<g id="a_Node000010"><a xlink:href="file_8hpp.html" target="_top" xlink:title=" ">
<polygon fill="white" stroke="#666666" points="470.5,-129 369.5,-129 369.5,-110 470.5,-110 470.5,-129"/>
<text text-anchor="middle" x="420" y="-117" font-family="Helvetica,sans-Serif" font-size="10.00">../models/file.hpp</text>
</a>
</g>
</g>
<!-- Node1&#45;&gt;Node10 -->
<g id="edge10_Node000001_Node000010" class="edge">
<title>Node1&#45;&gt;Node10</title>
<g id="a_edge10_Node000001_Node000010"><a xlink:title=" ">
<path fill="none" stroke="#63b8ff" d="M338.28,-219.66C353.16,-201.61 387.22,-160.28 406.34,-137.08"/>
<polygon fill="#63b8ff" stroke="#63b8ff" points="409.21,-139.1 412.86,-129.16 403.8,-134.65 409.21,-139.1"/>
</a>
</g>
</g>
<!-- Node14 -->
<g id="Node000014" class="node">
<title>Node14</title>
<g id="a_Node000014"><a xlink:href="fileinfo_8hpp.html" target="_top" xlink:title=" ">
<polygon fill="white" stroke="#666666" points="519.5,-74 448.5,-74 448.5,-55 519.5,-55 519.5,-74"/>
<text text-anchor="middle" x="484" y="-62" font-family="Helvetica,sans-Serif" font-size="10.00">fileinfo.hpp</text>
</a>
</g>
</g>
<!-- Node1&#45;&gt;Node14 -->
<g id="edge21_Node000001_Node000014" class="edge">
<title>Node1&#45;&gt;Node14</title>
<g id="a_edge21_Node000001_Node000014"><a xlink:title=" ">
<path fill="none" stroke="#63b8ff" d="M329.72,-219.82C327.06,-198.39 323.34,-142.35 351,-110 372.66,-84.68 409.17,-73.71 438.47,-68.99"/>
<polygon fill="#63b8ff" stroke="#63b8ff" points="439.09,-72.44 448.49,-67.57 438.1,-65.51 439.09,-72.44"/>
</a>
</g>
</g>
<!-- Node16 -->
<g id="Node000016" class="node">
<title>Node16</title>
<g id="a_Node000016"><a xlink:href="tcp__socket_8hpp.html" target="_top" xlink:title=" ">
<polygon fill="white" stroke="#666666" points="1011.5,-129 870.5,-129 870.5,-110 1011.5,-110 1011.5,-129"/>
<text text-anchor="middle" x="941" y="-117" font-family="Helvetica,sans-Serif" font-size="10.00">../network/tcp_socket.hpp</text>
</a>
</g>
</g>
<!-- Node1&#45;&gt;Node16 -->
<g id="edge22_Node000001_Node000016" class="edge">
<title>Node1&#45;&gt;Node16</title>
<g id="a_edge22_Node000001_Node000016"><a xlink:title=" ">
<path fill="none" stroke="#63b8ff" d="M418.53,-226.88C546.62,-223.54 778.35,-213.5 856,-184 883.27,-173.64 909.34,-151.79 925.25,-136.64"/>
<polygon fill="#63b8ff" stroke="#63b8ff" points="927.91,-138.92 932.59,-129.42 923.01,-133.93 927.91,-138.92"/>
</a>
</g>
</g>
<!-- Node20 -->
<g id="Node000020" class="node">
<title>Node20</title>
<g id="a_Node000020"><a xlink:href="partfile_8hpp.html" target="_top" xlink:title=" ">
<polygon fill="white" stroke="#666666" points="738,-129 666,-129 666,-110 738,-110 738,-129"/>
<text text-anchor="middle" x="702" y="-117" font-family="Helvetica,sans-Serif" font-size="10.00">partfile.hpp</text>
</a>
</g>
</g>
<!-- Node1&#45;&gt;Node20 -->
<g id="edge29_Node000001_Node000020" class="edge">
<title>Node1&#45;&gt;Node20</title>
<g id="a_edge29_Node000001_Node000020"><a xlink:title=" ">
<path fill="none" stroke="#63b8ff" d="M383.65,-219.96C426.72,-212.37 488.95,-199.99 542,-184 589.25,-169.75 642.11,-147.47 673.69,-133.44"/>
<polygon fill="#63b8ff" stroke="#63b8ff" points="675.47,-136.48 683.16,-129.19 672.61,-130.09 675.47,-136.48"/>
</a>
</g>
</g>
<!-- Node21 -->
<g id="Node000021" class="node">
<title>Node21</title>
<g id="a_Node000021"><a xlink:href="peerdb_8hpp.html" target="_top" xlink:title=" ">
<polygon fill="white" stroke="#666666" points="532.5,-184 461.5,-184 461.5,-165 532.5,-165 532.5,-184"/>
<text text-anchor="middle" x="497" y="-172" font-family="Helvetica,sans-Serif" font-size="10.00">peerdb.hpp</text>
</a>
</g>
</g>
<!-- Node1&#45;&gt;Node21 -->
<g id="edge34_Node000001_Node000021" class="edge">
<title>Node1&#45;&gt;Node21</title>
<g id="a_edge34_Node000001_Node000021"><a xlink:title=" ">
<path fill="none" stroke="#63b8ff" d="M357.67,-219.98C385.54,-211.09 429.45,-197.07 460.52,-187.15"/>
<polygon fill="#63b8ff" stroke="#63b8ff" points="461.66,-190.46 470.12,-184.08 459.53,-183.79 461.66,-190.46"/>
</a>
</g>
</g>
<!-- Node7&#45;&gt;Node5 -->
<g id="edge9_Node000007_Node000005" class="edge">
<title>Node7&#45;&gt;Node5</title>
<g id="a_edge9_Node000007_Node000005"><a xlink:title=" ">
<path fill="none" stroke="#63b8ff" d="M386.16,-54.98C463.27,-43.69 596.71,-24.16 657.79,-15.22"/>
<polygon fill="#63b8ff" stroke="#63b8ff" points="658.6,-18.64 667.98,-13.72 657.58,-11.71 658.6,-18.64"/>
</a>
</g>
</g>
<!-- Node8 -->
<g id="Node000008" class="node">
<title>Node8</title>
<g id="a_Node000008"><a xlink:title=" ">
<polygon fill="#e0e0e0" stroke="#999999" points="353,-19 303,-19 303,0 353,0 353,-19"/>
<text text-anchor="middle" x="328" y="-7" font-family="Helvetica,sans-Serif" font-size="10.00">cstdint</text>
</a>
</g>
</g>
<!-- Node7&#45;&gt;Node8 -->
<g id="edge7_Node000007_Node000008" class="edge">
<title>Node7&#45;&gt;Node8</title>
<g id="a_edge7_Node000007_Node000008"><a xlink:title=" ">
<path fill="none" stroke="#63b8ff" d="M328,-54.75C328,-47.8 328,-37.85 328,-29.13"/>
<polygon fill="#63b8ff" stroke="#63b8ff" points="331.5,-29.09 328,-19.09 324.5,-29.09 331.5,-29.09"/>
</a>
</g>
</g>
<!-- Node9 -->
<g id="Node000009" class="node">
<title>Node9</title>
<g id="a_Node000009"><a xlink:title=" ">
<polygon fill="#e0e0e0" stroke="#999999" points="437.5,-19 372.5,-19 372.5,0 437.5,0 437.5,-19"/>
<text text-anchor="middle" x="405" y="-7" font-family="Helvetica,sans-Serif" font-size="10.00">stdexcept</text>
</a>
</g>
</g>
<!-- Node7&#45;&gt;Node9 -->
<g id="edge8_Node000007_Node000009" class="edge">
<title>Node7&#45;&gt;Node9</title>
<g id="a_edge8_Node000007_Node000009"><a xlink:title=" ">
<path fill="none" stroke="#63b8ff" d="M340.37,-54.98C352.09,-46.92 369.92,-34.65 383.89,-25.03"/>
<polygon fill="#63b8ff" stroke="#63b8ff" points="386.15,-27.72 392.4,-19.17 382.18,-21.96 386.15,-27.72"/>
</a>
</g>
</g>
<!-- Node10&#45;&gt;Node5 -->
<g id="edge12_Node000010_Node000005" class="edge">
<title>Node10&#45;&gt;Node5</title>
<g id="a_edge12_Node000010_Node000005"><a xlink:title=" ">
<path fill="none" stroke="#63b8ff" d="M442.34,-109.95C464.52,-101.34 499.4,-87.42 529,-74 546.2,-66.2 549.65,-62.45 567,-55 597.45,-41.93 633.14,-29.31 658.21,-20.86"/>
<polygon fill="#63b8ff" stroke="#63b8ff" points="659.55,-24.11 667.93,-17.62 657.33,-17.47 659.55,-24.11"/>
</a>
</g>
</g>
<!-- Node10&#45;&gt;Node7 -->
<g id="edge15_Node000010_Node000007" class="edge">
<title>Node10&#45;&gt;Node7</title>
<g id="a_edge15_Node000010_Node000007"><a xlink:title=" ">
<path fill="none" stroke="#63b8ff" d="M405.22,-109.98C390.82,-101.69 368.69,-88.94 351.81,-79.22"/>
<polygon fill="#63b8ff" stroke="#63b8ff" points="353.46,-76.13 343.05,-74.17 349.97,-82.19 353.46,-76.13"/>
</a>
</g>
</g>
<!-- Node11 -->
<g id="Node000011" class="node">
<title>Node11</title>
<g id="a_Node000011"><a xlink:title=" ">
<polygon fill="#e0e0e0" stroke="#999999" points="776,-74 718,-74 718,-55 776,-55 776,-74"/>
<text text-anchor="middle" x="747" y="-62" font-family="Helvetica,sans-Serif" font-size="10.00">memory</text>
</a>
</g>
</g>
<!-- Node10&#45;&gt;Node11 -->
<g id="edge11_Node000010_Node000011" class="edge">
<title>Node10&#45;&gt;Node11</title>
<g id="a_edge11_Node000010_Node000011"><a xlink:title=" ">
<path fill="none" stroke="#63b8ff" d="M470.73,-110.28C536.06,-99.69 648.2,-81.51 707.53,-71.9"/>
<polygon fill="#63b8ff" stroke="#63b8ff" points="708.31,-75.32 717.62,-70.26 707.19,-68.41 708.31,-75.32"/>
</a>
</g>
</g>
<!-- Node12 -->
<g id="Node000012" class="node">
<title>Node12</title>
<g id="a_Node000012"><a xlink:title=" ">
<polygon fill="#e0e0e0" stroke="#999999" points="512,-19 456,-19 456,0 512,0 512,-19"/>
<text text-anchor="middle" x="484" y="-7" font-family="Helvetica,sans-Serif" font-size="10.00">sstream</text>
</a>
</g>
</g>
<!-- Node10&#45;&gt;Node12 -->
<g id="edge13_Node000010_Node000012" class="edge">
<title>Node10&#45;&gt;Node12</title>
<g id="a_edge13_Node000010_Node000012"><a xlink:title=" ">
<path fill="none" stroke="#63b8ff" d="M421.4,-109.74C423.74,-96.97 429.26,-72.82 440,-55 446.61,-44.03 456.47,-33.72 465.18,-25.8"/>
<polygon fill="#63b8ff" stroke="#63b8ff" points="467.47,-28.44 472.72,-19.24 462.88,-23.16 467.47,-28.44"/>
</a>
</g>
</g>
<!-- Node13 -->
<g id="Node000013" class="node">
<title>Node13</title>
<g id="a_Node000013"><a xlink:title=" ">
<polygon fill="#e0e0e0" stroke="#999999" points="662,-74 576,-74 576,-55 662,-55 662,-74"/>
<text text-anchor="middle" x="619" y="-62" font-family="Helvetica,sans-Serif" font-size="10.00">unordered_set</text>
</a>
</g>
</g>
<!-- Node10&#45;&gt;Node13 -->
<g id="edge14_Node000010_Node000013" class="edge">
<title>Node10&#45;&gt;Node13</title>
<g id="a_edge14_Node000010_Node000013"><a xlink:title=" ">
<path fill="none" stroke="#63b8ff" d="M451.97,-109.98C485.82,-100.97 539.4,-86.7 576.71,-76.76"/>
<polygon fill="#63b8ff" stroke="#63b8ff" points="578.01,-80.04 586.78,-74.08 576.21,-73.27 578.01,-80.04"/>
</a>
</g>
</g>
<!-- Node10&#45;&gt;Node14 -->
<g id="edge16_Node000010_Node000014" class="edge">
<title>Node10&#45;&gt;Node14</title>
<g id="a_edge16_Node000010_Node000014"><a xlink:title=" ">
<path fill="none" stroke="#63b8ff" d="M430.28,-109.98C439.84,-102.07 454.28,-90.11 465.78,-80.58"/>
<polygon fill="#63b8ff" stroke="#63b8ff" points="468.06,-83.24 473.53,-74.17 463.6,-77.85 468.06,-83.24"/>
</a>
</g>
</g>
<!-- Node14&#45;&gt;Node5 -->
<g id="edge19_Node000014_Node000005" class="edge">
<title>Node14&#45;&gt;Node5</title>
<g id="a_edge19_Node000014_Node000005"><a xlink:title=" ">
<path fill="none" stroke="#63b8ff" d="M517.1,-54.98C555.77,-45.03 619.34,-28.68 657.67,-18.82"/>
<polygon fill="#63b8ff" stroke="#63b8ff" points="658.96,-22.1 667.78,-16.22 657.22,-15.32 658.96,-22.1"/>
</a>
</g>
</g>
<!-- Node14&#45;&gt;Node9 -->
<g id="edge18_Node000014_Node000009" class="edge">
<title>Node14&#45;&gt;Node9</title>
<g id="a_edge18_Node000014_Node000009"><a xlink:title=" ">
<path fill="none" stroke="#63b8ff" d="M471.31,-54.98C459.17,-46.84 440.64,-34.41 426.25,-24.76"/>
<polygon fill="#63b8ff" stroke="#63b8ff" points="428.18,-21.84 417.92,-19.17 424.28,-27.65 428.18,-21.84"/>
</a>
</g>
</g>
<!-- Node14&#45;&gt;Node12 -->
<g id="edge17_Node000014_Node000012" class="edge">
<title>Node14&#45;&gt;Node12</title>
<g id="a_edge17_Node000014_Node000012"><a xlink:title=" ">
<path fill="none" stroke="#63b8ff" d="M484,-54.75C484,-47.8 484,-37.85 484,-29.13"/>
<polygon fill="#63b8ff" stroke="#63b8ff" points="487.5,-29.09 484,-19.09 480.5,-29.09 487.5,-29.09"/>
</a>
</g>
</g>
<!-- Node15 -->
<g id="Node000015" class="node">
<title>Node15</title>
<g id="a_Node000015"><a xlink:title=" ">
<polygon fill="#e0e0e0" stroke="#999999" points="896.5,-19 849.5,-19 849.5,0 896.5,0 896.5,-19"/>
<text text-anchor="middle" x="873" y="-7" font-family="Helvetica,sans-Serif" font-size="10.00">vector</text>
</a>
</g>
</g>
<!-- Node14&#45;&gt;Node15 -->
<g id="edge20_Node000014_Node000015" class="edge">
<title>Node14&#45;&gt;Node15</title>
<g id="a_edge20_Node000014_Node000015"><a xlink:title=" ">
<path fill="none" stroke="#63b8ff" d="M519.55,-58.66C594.1,-48.5 765.9,-25.09 839.04,-15.13"/>
<polygon fill="#63b8ff" stroke="#63b8ff" points="839.65,-18.58 849.09,-13.76 838.71,-11.64 839.65,-18.58"/>
</a>
</g>
</g>
<!-- Node16&#45;&gt;Node5 -->
<g id="edge25_Node000016_Node000005" class="edge">
<title>Node16&#45;&gt;Node5</title>
<g id="a_edge25_Node000016_Node000005"><a xlink:title=" ">
<path fill="none" stroke="#63b8ff" d="M931.85,-109.77C917.06,-96.13 886.49,-69.8 856,-55 812.09,-33.69 756.52,-21.45 722.12,-15.38"/>
<polygon fill="#63b8ff" stroke="#63b8ff" points="722.6,-11.91 712.16,-13.69 721.43,-18.81 722.6,-11.91"/>
</a>
</g>
</g>
<!-- Node16&#45;&gt;Node11 -->
<g id="edge23_Node000016_Node000011" class="edge">
<title>Node16&#45;&gt;Node11</title>
<g id="a_edge23_Node000016_Node000011"><a xlink:title=" ">
<path fill="none" stroke="#63b8ff" d="M909.83,-109.98C876.15,-100.78 822.43,-86.11 785.98,-76.15"/>
<polygon fill="#63b8ff" stroke="#63b8ff" points="786.76,-72.73 776.19,-73.47 784.91,-79.49 786.76,-72.73"/>
</a>
</g>
</g>
<!-- Node16&#45;&gt;Node15 -->
<g id="edge28_Node000016_Node000015" class="edge">
<title>Node16&#45;&gt;Node15</title>
<g id="a_edge28_Node000016_Node000015"><a xlink:title=" ">
<path fill="none" stroke="#63b8ff" d="M950.99,-109.96C964.37,-97.46 985.1,-73.63 973,-55 958.46,-32.61 929.76,-21.4 906.83,-15.83"/>
<polygon fill="#63b8ff" stroke="#63b8ff" points="907.28,-12.35 896.76,-13.65 905.8,-19.19 907.28,-12.35"/>
</a>
</g>
</g>
<!-- Node17 -->
<g id="Node000017" class="node">
<title>Node17</title>
<g id="a_Node000017"><a xlink:title=" ">
<polygon fill="#e0e0e0" stroke="#999999" points="1092,-74 1020,-74 1020,-55 1092,-55 1092,-74"/>
<text text-anchor="middle" x="1056" y="-62" font-family="Helvetica,sans-Serif" font-size="10.00">netinet/in.h</text>
</a>
</g>
</g>
<!-- Node16&#45;&gt;Node17 -->
<g id="edge24_Node000016_Node000017" class="edge">
<title>Node16&#45;&gt;Node17</title>
<g id="a_edge24_Node000016_Node000017"><a xlink:title=" ">
<path fill="none" stroke="#63b8ff" d="M959.48,-109.98C977.98,-101.46 1006.68,-88.23 1027.98,-78.41"/>
<polygon fill="#63b8ff" stroke="#63b8ff" points="1029.57,-81.53 1037.19,-74.17 1026.64,-75.18 1029.57,-81.53"/>
</a>
</g>
</g>
<!-- Node18 -->
<g id="Node000018" class="node">
<title>Node18</title>
<g id="a_Node000018"><a xlink:title=" ">
<polygon fill="#e0e0e0" stroke="#999999" points="1187.5,-74 1110.5,-74 1110.5,-55 1187.5,-55 1187.5,-74"/>
<text text-anchor="middle" x="1149" y="-62" font-family="Helvetica,sans-Serif" font-size="10.00">sys/socket.h</text>
</a>
</g>
</g>
<!-- Node16&#45;&gt;Node18 -->
<g id="edge26_Node000016_Node000018" class="edge">
<title>Node16&#45;&gt;Node18</title>
<g id="a_edge26_Node000016_Node000018"><a xlink:title=" ">
<path fill="none" stroke="#63b8ff" d="M974.42,-109.98C1009.94,-100.93 1066.27,-86.58 1105.3,-76.64"/>
<polygon fill="#63b8ff" stroke="#63b8ff" points="1106.49,-79.94 1115.32,-74.08 1104.76,-73.16 1106.49,-79.94"/>
</a>
</g>
</g>
<!-- Node19 -->
<g id="Node000019" class="node">
<title>Node19</title>
<g id="a_Node000019"><a xlink:title=" ">
<polygon fill="#e0e0e0" stroke="#999999" points="964,-74 908,-74 908,-55 964,-55 964,-74"/>
<text text-anchor="middle" x="936" y="-62" font-family="Helvetica,sans-Serif" font-size="10.00">unistd.h</text>
</a>
</g>
</g>
<!-- Node16&#45;&gt;Node19 -->
<g id="edge27_Node000016_Node000019" class="edge">
<title>Node16&#45;&gt;Node19</title>
<g id="a_edge27_Node000016_Node000019"><a xlink:title=" ">
<path fill="none" stroke="#63b8ff" d="M940.17,-109.75C939.52,-102.8 938.58,-92.85 937.76,-84.13"/>
<polygon fill="#63b8ff" stroke="#63b8ff" points="941.23,-83.72 936.81,-74.09 934.27,-84.37 941.23,-83.72"/>
</a>
</g>
</g>
<!-- Node20&#45;&gt;Node5 -->
<g id="edge31_Node000020_Node000005" class="edge">
<title>Node20&#45;&gt;Node5</title>
<g id="a_edge31_Node000020_Node000005"><a xlink:title=" ">
<path fill="none" stroke="#63b8ff" d="M701.02,-109.66C699.07,-92.17 694.7,-52.8 692.09,-29.27"/>
<polygon fill="#63b8ff" stroke="#63b8ff" points="695.55,-28.71 690.96,-19.16 688.59,-29.48 695.55,-28.71"/>
</a>
</g>
</g>
<!-- Node20&#45;&gt;Node11 -->
<g id="edge30_Node000020_Node000011" class="edge">
<title>Node20&#45;&gt;Node11</title>
<g id="a_edge30_Node000020_Node000011"><a xlink:title=" ">
<path fill="none" stroke="#63b8ff" d="M709.43,-109.75C715.85,-102.18 725.31,-91.05 733.12,-81.84"/>
<polygon fill="#63b8ff" stroke="#63b8ff" points="735.9,-83.98 739.71,-74.09 730.57,-79.45 735.9,-83.98"/>
</a>
</g>
</g>
<!-- Node20&#45;&gt;Node13 -->
<g id="edge32_Node000020_Node000013" class="edge">
<title>Node20&#45;&gt;Node13</title>
<g id="a_edge32_Node000020_Node000013"><a xlink:title=" ">
<path fill="none" stroke="#63b8ff" d="M688.66,-109.98C675.91,-101.84 656.45,-89.41 641.33,-79.76"/>
<polygon fill="#63b8ff" stroke="#63b8ff" points="642.89,-76.6 632.58,-74.17 639.12,-82.5 642.89,-76.6"/>
</a>
</g>
</g>
<!-- Node20&#45;&gt;Node14 -->
<g id="edge33_Node000020_Node000014" class="edge">
<title>Node20&#45;&gt;Node14</title>
<g id="a_edge33_Node000020_Node000014"><a xlink:title=" ">
<path fill="none" stroke="#63b8ff" d="M666.97,-109.98C629.5,-100.87 569.95,-86.4 529.02,-76.45"/>
<polygon fill="#63b8ff" stroke="#63b8ff" points="529.84,-73.04 519.3,-74.08 528.19,-79.85 529.84,-73.04"/>
</a>
</g>
</g>
<!-- Node21&#45;&gt;Node5 -->
<g id="edge37_Node000021_Node000005" class="edge">
<title>Node21&#45;&gt;Node5</title>
<g id="a_edge37_Node000021_Node000005"><a xlink:title=" ">
<path fill="none" stroke="#63b8ff" d="M532.67,-171.87C597.04,-168.26 729.17,-157.49 764,-129 790.46,-107.35 803.34,-83.85 785,-55 771.25,-33.37 743.91,-22.08 722.08,-16.29"/>
<polygon fill="#63b8ff" stroke="#63b8ff" points="722.74,-12.85 712.2,-13.93 721.11,-19.66 722.74,-12.85"/>
</a>
</g>
</g>
<!-- Node21&#45;&gt;Node7 -->
<g id="edge39_Node000021_Node000007" class="edge">
<title>Node21&#45;&gt;Node7</title>
<g id="a_edge39_Node000021_Node000007"><a xlink:title=" ">
<path fill="none" stroke="#63b8ff" d="M461.29,-171.46C428.63,-167.76 380.98,-157.47 351,-129 338.66,-117.28 332.92,-98.43 330.26,-84.3"/>
<polygon fill="#63b8ff" stroke="#63b8ff" points="333.69,-83.58 328.72,-74.22 326.77,-84.63 333.69,-83.58"/>
</a>
</g>
</g>
<!-- Node21&#45;&gt;Node10 -->
<g id="edge40_Node000021_Node000010" class="edge">
<title>Node21&#45;&gt;Node10</title>
<g id="a_edge40_Node000021_Node000010"><a xlink:title=" ">
<path fill="none" stroke="#63b8ff" d="M484.63,-164.98C472.91,-156.92 455.08,-144.65 441.11,-135.03"/>
<polygon fill="#63b8ff" stroke="#63b8ff" points="442.82,-131.96 432.6,-129.17 438.85,-137.72 442.82,-131.96"/>
</a>
</g>
</g>
<!-- Node21&#45;&gt;Node11 -->
<g id="edge35_Node000021_Node000011" class="edge">
<title>Node21&#45;&gt;Node11</title>
<g id="a_edge35_Node000021_Node000011"><a xlink:title=" ">
<path fill="none" stroke="#63b8ff" d="M532.92,-172.55C595.42,-170.07 720.11,-161.1 747,-129 757.28,-116.73 755.9,-97.95 752.78,-84"/>
<polygon fill="#63b8ff" stroke="#63b8ff" points="756.08,-82.79 750.09,-74.05 749.32,-84.62 756.08,-82.79"/>
</a>
</g>
</g>
<!-- Node21&#45;&gt;Node14 -->
<g id="edge41_Node000021_Node000014" class="edge">
<title>Node21&#45;&gt;Node14</title>
<g id="a_edge41_Node000021_Node000014"><a xlink:title=" ">
<path fill="none" stroke="#63b8ff" d="M461.37,-172.8C429.27,-170.04 383.75,-160.38 361,-129 337.97,-97.23 394.35,-80.15 438.22,-71.95"/>
<polygon fill="#63b8ff" stroke="#63b8ff" points="438.96,-75.38 448.2,-70.2 437.74,-68.48 438.96,-75.38"/>
</a>
</g>
</g>
<!-- Node22 -->
<g id="Node000022" class="node">
<title>Node22</title>
<g id="a_Node000022"><a xlink:title=" ">
<polygon fill="#e0e0e0" stroke="#999999" points="648,-129 600,-129 600,-110 648,-110 648,-129"/>
<text text-anchor="middle" x="624" y="-117" font-family="Helvetica,sans-Serif" font-size="10.00">mutex</text>
</a>
</g>
</g>
<!-- Node21&#45;&gt;Node22 -->
<g id="edge36_Node000021_Node000022" class="edge">
<title>Node21&#45;&gt;Node22</title>
<g id="a_edge36_Node000021_Node000022"><a xlink:title=" ">
<path fill="none" stroke="#63b8ff" d="M517.4,-164.98C538.02,-156.38 570.11,-142.99 593.69,-133.15"/>
<polygon fill="#63b8ff" stroke="#63b8ff" points="595.34,-136.25 603.22,-129.17 592.65,-129.79 595.34,-136.25"/>
</a>
</g>
</g>
<!-- Node23 -->
<g id="Node000023" class="node">
<title>Node23</title>
<g id="a_Node000023"><a xlink:title=" ">
<polygon fill="#e0e0e0" stroke="#999999" points="581.5,-129 488.5,-129 488.5,-110 581.5,-110 581.5,-129"/>
<text text-anchor="middle" x="535" y="-117" font-family="Helvetica,sans-Serif" font-size="10.00">unordered_map</text>
</a>
</g>
</g>
<!-- Node21&#45;&gt;Node23 -->
<g id="edge38_Node000021_Node000023" class="edge">
<title>Node21&#45;&gt;Node23</title>
<g id="a_edge38_Node000021_Node000023"><a xlink:title=" ">
<path fill="none" stroke="#63b8ff" d="M503.27,-164.75C508.59,-157.34 516.36,-146.5 522.88,-137.41"/>
<polygon fill="#63b8ff" stroke="#63b8ff" points="525.86,-139.26 528.84,-129.09 520.17,-135.18 525.86,-139.26"/>
</a>
</g>
</g>
</g>
</svg>
