<?xml version="1.0" encoding="UTF-8" standalone="no"?>
<!DOCTYPE svg PUBLIC "-//W3C//DTD SVG 1.1//EN"
 "http://www.w3.org/Graphics/SVG/1.1/DTD/svg11.dtd">
<!-- Generated by graphviz version 2.43.0 (0)
 -->
<!-- Title: src/client/downloadmanager.hpp Pages: 1 -->
<svg width="753pt" height="247pt"
 viewBox="0.00 0.00 753.12 247.00" xmlns="http://www.w3.org/2000/svg" xmlns:xlink="http://www.w3.org/1999/xlink">
<g id="graph0" class="graph" transform="scale(1 1) rotate(0) translate(4 243)">
<title>src/client/downloadmanager.hpp</title>
<!-- Node1 -->
<g id="Node000001" class="node">
<title>Node1</title>
<g id="a_Node000001"><a xlink:title=" ">
<polygon fill="#999999" stroke="#666666" points="354.62,-239 179.62,-239 179.62,-220 354.62,-220 354.62,-239"/>
<text text-anchor="middle" x="267.12" y="-227" font-family="Helvetica,sans-Serif" font-size="10.00">src/client/downloadmanager.hpp</text>
</a>
</g>
</g>
<!-- Node2 -->
<g id="Node000002" class="node">
<title>Node2</title>
<g id="a_Node000002"><a xlink:title=" ">
<polygon fill="#e0e0e0" stroke="#999999" points="76.12,-184 26.12,-184 26.12,-165 76.12,-165 76.12,-184"/>
<text text-anchor="middle" x="51.12" y="-172" font-family="Helvetica,sans-Serif" font-size="10.00">atomic</text>
</a>
</g>
</g>
<!-- Node1&#45;&gt;Node2 -->
<g id="edge1_Node000001_Node000002" class="edge">
<title>Node1&#45;&gt;Node2</title>
<g id="a_edge1_Node000001_Node000002"><a xlink:title=" ">
<path fill="none" stroke="#63b8ff" d="M231.87,-219.94C197.21,-211.51 142.51,-198.17 86.16,-184.25"/>
<polygon fill="#63b8ff" stroke="#63b8ff" points="86.91,-180.83 76.36,-181.83 85.23,-187.62 86.91,-180.83"/>
</a>
</g>
</g>
<!-- Node3 -->
<g id="Node000003" class="node">
<title>Node3</title>
<g id="a_Node000003"><a xlink:title=" ">
<polygon fill="#e0e0e0" stroke="#999999" points="141.62,-184 94.62,-184 94.62,-165 141.62,-165 141.62,-184"/>
<text text-anchor="middle" x="118.12" y="-172" font-family="Helvetica,sans-Serif" font-size="10.00">deque</text>
</a>
</g>
</g>
<!-- Node1&#45;&gt;Node3 -->
<g id="edge2_Node000001_Node000003" class="edge">
<title>Node1&#45;&gt;Node3</title>
<g id="a_edge2_Node000001_Node000003"><a xlink:title=" ">
<path fill="none" stroke="#63b8ff" d="M243.18,-219.98C218.41,-211.18 179.54,-197.35 151.71,-187.45"/>
<polygon fill="#63b8ff" stroke="#63b8ff" points="152.59,-184.05 142,-183.99 150.25,-190.64 152.59,-184.05"/>
</a>
</g>
</g>
<!-- Node4 -->
<g id="Node000004" class="node">
<title>Node4</title>
<g id="a_Node000004"><a xlink:title=" ">
<polygon fill="#e0e0e0" stroke="#999999" points="224.62,-184 159.62,-184 159.62,-165 224.62,-165 224.62,-184"/>
<text text-anchor="middle" x="192.12" y="-172" font-family="Helvetica,sans-Serif" font-size="10.00">functional</text>
</a>
</g>
</g>
<!-- Node1&#45;&gt;Node4 -->
<g id="edge3_Node000001_Node000004" class="edge">
<title>Node1&#45;&gt;Node4</title>
<g id="a_edge3_Node000001_Node000004"><a xlink:title=" ">
<path fill="none" stroke="#63b8ff" d="M255.07,-219.98C243.65,-211.92 226.29,-199.65 212.68,-190.03"/>
<polygon fill="#63b8ff" stroke="#63b8ff" points="214.57,-187.08 204.39,-184.17 210.53,-192.8 214.57,-187.08"/>
</a>
</g>
</g>
<!-- Node5 -->
<g id="Node000005" class="node">
<title>Node5</title>
<g id="a_Node000005"><a xlink:title=" ">
<polygon fill="#e0e0e0" stroke="#999999" points="291.12,-184 243.12,-184 243.12,-165 291.12,-165 291.12,-184"/>
<text text-anchor="middle" x="267.12" y="-172" font-family="Helvetica,sans-Serif" font-size="10.00">thread</text>
</a>
</g>
</g>
<!-- Node1&#45;&gt;Node5 -->
<g id="edge4_Node000001_Node000005" class="edge">
<title>Node1&#45;&gt;Node5</title>
<g id="a_edge4_Node000001_Node000005"><a xlink:title=" ">
<path fill="none" stroke="#63b8ff" d="M267.12,-219.75C267.12,-212.8 267.12,-202.85 267.12,-194.13"/>
<polygon fill="#63b8ff" stroke="#63b8ff" points="270.62,-194.09 267.12,-184.09 263.62,-194.09 270.62,-194.09"/>
</a>
</g>
</g>
<!-- Node6 -->
<g id="Node000006" class="node">
<title>Node6</title>
<g id="a_Node000006"><a xlink:href="tcp__socket_8hpp.html" target="_top" xlink:title=" ">
<polygon fill="white" stroke="#666666" points="242.62,-129 101.62,-129 101.62,-110 242.62,-110 242.62,-129"/>
<text text-anchor="middle" x="172.12" y="-117" font-family="Helvetica,sans-Serif" font-size="10.00">../network/tcp_socket.hpp</text>
</a>
</g>
</g>
<!-- Node1&#45;&gt;Node6 -->
<g id="edge5_Node000001_Node000006" class="edge">
<title>Node1&#45;&gt;Node6</title>
<g id="a_edge5_Node000001_Node000006"><a xlink:title=" ">
<path fill="none" stroke="#63b8ff" d="M277.54,-219.85C291.5,-207.21 313.08,-183.23 300.12,-165 288.74,-149 271.18,-138.7 252.67,-132.09"/>
<polygon fill="#63b8ff" stroke="#63b8ff" points="253.53,-128.69 242.94,-128.96 251.38,-135.35 253.53,-128.69"/>
</a>
</g>
</g>
<!-- Node13 -->
<g id="Node000013" class="node">
<title>Node13</title>
<g id="a_Node000013"><a xlink:href="filesdb_8hpp.html" target="_top" xlink:title=" ">
<polygon fill="white" stroke="#666666" points="417.12,-184 347.12,-184 347.12,-165 417.12,-165 417.12,-184"/>
<text text-anchor="middle" x="382.12" y="-172" font-family="Helvetica,sans-Serif" font-size="10.00">filesdb.hpp</text>
</a>
</g>
</g>
<!-- Node1&#45;&gt;Node13 -->
<g id="edge12_Node000001_Node000013" class="edge">
<title>Node1&#45;&gt;Node13</title>
<g id="a_edge12_Node000001_Node000013"><a xlink:title=" ">
<path fill="none" stroke="#63b8ff" d="M285.59,-219.98C304.09,-211.46 332.8,-198.23 354.1,-188.41"/>
<polygon fill="#63b8ff" stroke="#63b8ff" points="355.69,-191.53 363.3,-184.17 352.76,-185.18 355.69,-191.53"/>
</a>
</g>
</g>
<!-- Node22 -->
<g id="Node000022" class="node">
<title>Node22</title>
<g id="a_Node000022"><a xlink:href="peerdb_8hpp.html" target="_top" xlink:title=" ">
<polygon fill="white" stroke="#666666" points="506.62,-184 435.62,-184 435.62,-165 506.62,-165 506.62,-184"/>
<text text-anchor="middle" x="471.12" y="-172" font-family="Helvetica,sans-Serif" font-size="10.00">peerdb.hpp</text>
</a>
</g>
</g>
<!-- Node1&#45;&gt;Node22 -->
<g id="edge25_Node000001_Node000022" class="edge">
<title>Node1&#45;&gt;Node22</title>
<g id="a_edge25_Node000001_Node000022"><a xlink:title=" ">
<path fill="none" stroke="#63b8ff" d="M299.89,-219.98C334.74,-210.93 389.98,-196.58 428.26,-186.64"/>
<polygon fill="#63b8ff" stroke="#63b8ff" points="429.29,-189.98 438.08,-184.08 427.53,-183.21 429.29,-189.98"/>
</a>
</g>
</g>
<!-- Node7 -->
<g id="Node000007" class="node">
<title>Node7</title>
<g id="a_Node000007"><a xlink:title=" ">
<polygon fill="#e0e0e0" stroke="#999999" points="405.12,-74 347.12,-74 347.12,-55 405.12,-55 405.12,-74"/>
<text text-anchor="middle" x="376.12" y="-62" font-family="Helvetica,sans-Serif" font-size="10.00">memory</text>
</a>
</g>
</g>
<!-- Node6&#45;&gt;Node7 -->
<g id="edge6_Node000006_Node000007" class="edge">
<title>Node6&#45;&gt;Node7</title>
<g id="a_edge6_Node000006_Node000007"><a xlink:title=" ">
<path fill="none" stroke="#63b8ff" d="M204.89,-109.98C240.98,-100.61 298.94,-85.55 337.28,-75.59"/>
<polygon fill="#63b8ff" stroke="#63b8ff" points="338.26,-78.95 347.06,-73.05 336.5,-72.18 338.26,-78.95"/>
</a>
</g>
</g>
<!-- Node8 -->
<g id="Node000008" class="node">
<title>Node8</title>
<g id="a_Node000008"><a xlink:title=" ">
<polygon fill="#e0e0e0" stroke="#999999" points="121.12,-74 49.12,-74 49.12,-55 121.12,-55 121.12,-74"/>
<text text-anchor="middle" x="85.12" y="-62" font-family="Helvetica,sans-Serif" font-size="10.00">netinet/in.h</text>
</a>
</g>
</g>
<!-- Node6&#45;&gt;Node8 -->
<g id="edge7_Node000006_Node000008" class="edge">
<title>Node6&#45;&gt;Node8</title>
<g id="a_edge7_Node000006_Node000008"><a xlink:title=" ">
<path fill="none" stroke="#63b8ff" d="M158.14,-109.98C144.65,-101.77 123.98,-89.18 108.08,-79.49"/>
<polygon fill="#63b8ff" stroke="#63b8ff" points="109.71,-76.38 99.35,-74.17 106.07,-82.36 109.71,-76.38"/>
</a>
</g>
</g>
<!-- Node9 -->
<g id="Node000009" class="node">
<title>Node9</title>
<g id="a_Node000009"><a xlink:title=" ">
<polygon fill="#e0e0e0" stroke="#999999" points="389.12,-19 345.12,-19 345.12,0 389.12,0 389.12,-19"/>
<text text-anchor="middle" x="367.12" y="-7" font-family="Helvetica,sans-Serif" font-size="10.00">string</text>
</a>
</g>
</g>
<!-- Node6&#45;&gt;Node9 -->
<g id="edge8_Node000006_Node000009" class="edge">
<title>Node6&#45;&gt;Node9</title>
<g id="a_edge8_Node000006_Node000009"><a xlink:title=" ">
<path fill="none" stroke="#63b8ff" d="M111.88,-109.99C66,-101.04 14.69,-84.12 40.12,-55 59.33,-33 255.4,-17.81 334.4,-12.54"/>
<polygon fill="#63b8ff" stroke="#63b8ff" points="334.99,-16.01 344.74,-11.87 334.53,-9.03 334.99,-16.01"/>
</a>
</g>
</g>
<!-- Node10 -->
<g id="Node000010" class="node">
<title>Node10</title>
<g id="a_Node000010"><a xlink:title=" ">
<polygon fill="#e0e0e0" stroke="#999999" points="216.62,-74 139.62,-74 139.62,-55 216.62,-55 216.62,-74"/>
<text text-anchor="middle" x="178.12" y="-62" font-family="Helvetica,sans-Serif" font-size="10.00">sys/socket.h</text>
</a>
</g>
</g>
<!-- Node6&#45;&gt;Node10 -->
<g id="edge9_Node000006_Node000010" class="edge">
<title>Node6&#45;&gt;Node10</title>
<g id="a_edge9_Node000006_Node000010"><a xlink:title=" ">
<path fill="none" stroke="#63b8ff" d="M173.11,-109.75C173.89,-102.8 175.02,-92.85 176.01,-84.13"/>
<polygon fill="#63b8ff" stroke="#63b8ff" points="179.5,-84.42 177.15,-74.09 172.54,-83.63 179.5,-84.42"/>
</a>
</g>
</g>
<!-- Node11 -->
<g id="Node000011" class="node">
<title>Node11</title>
<g id="a_Node000011"><a xlink:title=" ">
<polygon fill="#e0e0e0" stroke="#999999" points="291.12,-74 235.12,-74 235.12,-55 291.12,-55 291.12,-74"/>
<text text-anchor="middle" x="263.12" y="-62" font-family="Helvetica,sans-Serif" font-size="10.00">unistd.h</text>
</a>
</g>
</g>
<!-- Node6&#45;&gt;Node11 -->
<g id="edge10_Node000006_Node000011" class="edge">
<title>Node6&#45;&gt;Node11</title>
<g id="a_edge10_Node000006_Node000011"><a xlink:title=" ">
<path fill="none" stroke="#63b8ff" d="M186.74,-109.98C200.98,-101.69 222.87,-88.94 239.57,-79.22"/>
<polygon fill="#63b8ff" stroke="#63b8ff" points="241.35,-82.23 248.23,-74.17 237.83,-76.18 241.35,-82.23"/>
</a>
</g>
</g>
<!-- Node12 -->
<g id="Node000012" class="node">
<title>Node12</title>
<g id="a_Node000012"><a xlink:title=" ">
<polygon fill="#e0e0e0" stroke="#999999" points="190.62,-19 143.62,-19 143.62,0 190.62,0 190.62,-19"/>
<text text-anchor="middle" x="167.12" y="-7" font-family="Helvetica,sans-Serif" font-size="10.00">vector</text>
</a>
</g>
</g>
<!-- Node6&#45;&gt;Node12 -->
<g id="edge11_Node000006_Node000012" class="edge">
<title>Node6&#45;&gt;Node12</title>
<g id="a_edge11_Node000006_Node000012"><a xlink:title=" ">
<path fill="none" stroke="#63b8ff" d="M111.59,-109.99C69.99,-102.75 20.02,-90.84 7.12,-74 -27.29,-29.09 76.68,-15.88 133.19,-12.04"/>
<polygon fill="#63b8ff" stroke="#63b8ff" points="133.7,-15.51 143.47,-11.41 133.28,-8.53 133.7,-15.51"/>
</a>
</g>
</g>
<!-- Node14 -->
<g id="Node000014" class="node">
<title>Node14</title>
<g id="a_Node000014"><a xlink:title=" ">
<polygon fill="#e0e0e0" stroke="#999999" points="484.12,-129 436.12,-129 436.12,-110 484.12,-110 484.12,-129"/>
<text text-anchor="middle" x="460.12" y="-117" font-family="Helvetica,sans-Serif" font-size="10.00">mutex</text>
</a>
</g>
</g>
<!-- Node13&#45;&gt;Node14 -->
<g id="edge13_Node000013_Node000014" class="edge">
<title>Node13&#45;&gt;Node14</title>
<g id="a_edge13_Node000013_Node000014"><a xlink:title=" ">
<path fill="none" stroke="#63b8ff" d="M394.65,-164.98C406.52,-156.92 424.58,-144.65 438.73,-135.03"/>
<polygon fill="#63b8ff" stroke="#63b8ff" points="441.05,-137.69 447.36,-129.17 437.12,-131.9 441.05,-137.69"/>
</a>
</g>
</g>
<!-- Node15 -->
<g id="Node000015" class="node">
<title>Node15</title>
<g id="a_Node000015"><a xlink:title=" ">
<polygon fill="#e0e0e0" stroke="#999999" points="595.62,-129 502.62,-129 502.62,-110 595.62,-110 595.62,-129"/>
<text text-anchor="middle" x="549.12" y="-117" font-family="Helvetica,sans-Serif" font-size="10.00">unordered_map</text>
</a>
</g>
</g>
<!-- Node13&#45;&gt;Node15 -->
<g id="edge14_Node000013_Node000015" class="edge">
<title>Node13&#45;&gt;Node15</title>
<g id="a_edge14_Node000013_Node000015"><a xlink:title=" ">
<path fill="none" stroke="#63b8ff" d="M408.95,-164.98C436.99,-156.09 481.16,-142.07 512.42,-132.15"/>
<polygon fill="#63b8ff" stroke="#63b8ff" points="513.6,-135.44 522.08,-129.08 511.49,-128.77 513.6,-135.44"/>
</a>
</g>
</g>
<!-- Node16 -->
<g id="Node000016" class="node">
<title>Node16</title>
<g id="a_Node000016"><a xlink:href="file__id_8hpp.html" target="_top" xlink:title=" ">
<polygon fill="white" stroke="#666666" points="327.62,-129 260.62,-129 260.62,-110 327.62,-110 327.62,-129"/>
<text text-anchor="middle" x="294.12" y="-117" font-family="Helvetica,sans-Serif" font-size="10.00">file_id.hpp</text>
</a>
</g>
</g>
<!-- Node13&#45;&gt;Node16 -->
<g id="edge15_Node000013_Node000016" class="edge">
<title>Node13&#45;&gt;Node16</title>
<g id="a_edge15_Node000013_Node000016"><a xlink:title=" ">
<path fill="none" stroke="#63b8ff" d="M367.98,-164.98C354.33,-156.77 333.43,-144.18 317.34,-134.49"/>
<polygon fill="#63b8ff" stroke="#63b8ff" points="318.89,-131.33 308.51,-129.17 315.27,-137.33 318.89,-131.33"/>
</a>
</g>
</g>
<!-- Node17 -->
<g id="Node000017" class="node">
<title>Node17</title>
<g id="a_Node000017"><a xlink:href="partfile_8hpp.html" target="_top" xlink:title=" ">
<polygon fill="white" stroke="#666666" points="418.12,-129 346.12,-129 346.12,-110 418.12,-110 418.12,-129"/>
<text text-anchor="middle" x="382.12" y="-117" font-family="Helvetica,sans-Serif" font-size="10.00">partfile.hpp</text>
</a>
</g>
</g>
<!-- Node13&#45;&gt;Node17 -->
<g id="edge17_Node000013_Node000017" class="edge">
<title>Node13&#45;&gt;Node17</title>
<g id="a_edge17_Node000013_Node000017"><a xlink:title=" ">
<path fill="none" stroke="#63b8ff" d="M382.12,-164.75C382.12,-157.8 382.12,-147.85 382.12,-139.13"/>
<polygon fill="#63b8ff" stroke="#63b8ff" points="385.62,-139.09 382.12,-129.09 378.62,-139.09 385.62,-139.09"/>
</a>
</g>
</g>
<!-- Node16&#45;&gt;Node9 -->
<g id="edge16_Node000016_Node000009" class="edge">
<title>Node16&#45;&gt;Node9</title>
<g id="a_edge16_Node000016_Node000009"><a xlink:title=" ">
<path fill="none" stroke="#63b8ff" d="M300.09,-109.66C312.18,-91.77 339.74,-51 355.5,-27.69"/>
<polygon fill="#63b8ff" stroke="#63b8ff" points="358.56,-29.4 361.27,-19.16 352.77,-25.48 358.56,-29.4"/>
</a>
</g>
</g>
<!-- Node17&#45;&gt;Node7 -->
<g id="edge18_Node000017_Node000007" class="edge">
<title>Node17&#45;&gt;Node7</title>
<g id="a_edge18_Node000017_Node000007"><a xlink:title=" ">
<path fill="none" stroke="#63b8ff" d="M381.13,-109.75C380.34,-102.8 379.21,-92.85 378.23,-84.13"/>
<polygon fill="#63b8ff" stroke="#63b8ff" points="381.69,-83.63 377.09,-74.09 374.74,-84.42 381.69,-83.63"/>
</a>
</g>
</g>
<!-- Node18 -->
<g id="Node000018" class="node">
<title>Node18</title>
<g id="a_Node000018"><a xlink:title=" ">
<polygon fill="#e0e0e0" stroke="#999999" points="647.12,-74 561.12,-74 561.12,-55 647.12,-55 647.12,-74"/>
<text text-anchor="middle" x="604.12" y="-62" font-family="Helvetica,sans-Serif" font-size="10.00">unordered_set</text>
</a>
</g>
</g>
<!-- Node17&#45;&gt;Node18 -->
<g id="edge19_Node000017_Node000018" class="edge">
<title>Node17&#45;&gt;Node18</title>
<g id="a_edge19_Node000017_Node000018"><a xlink:title=" ">
<path fill="none" stroke="#63b8ff" d="M417.79,-109.98C455.94,-100.87 516.59,-86.4 558.27,-76.45"/>
<polygon fill="#63b8ff" stroke="#63b8ff" points="559.26,-79.81 568.17,-74.08 557.63,-73 559.26,-79.81"/>
</a>
</g>
</g>
<!-- Node19 -->
<g id="Node000019" class="node">
<title>Node19</title>
<g id="a_Node000019"><a xlink:href="fileinfo_8hpp.html" target="_top" xlink:title=" ">
<polygon fill="white" stroke="#666666" points="542.62,-74 423.62,-74 423.62,-55 542.62,-55 542.62,-74"/>
<text text-anchor="middle" x="483.12" y="-62" font-family="Helvetica,sans-Serif" font-size="10.00">../models/fileinfo.hpp</text>
</a>
</g>
</g>
<!-- Node17&#45;&gt;Node19 -->
<g id="edge20_Node000017_Node000019" class="edge">
<title>Node17&#45;&gt;Node19</title>
<g id="a_edge20_Node000017_Node000019"><a xlink:title=" ">
<path fill="none" stroke="#63b8ff" d="M398.34,-109.98C414.3,-101.61 438.9,-88.7 457.49,-78.95"/>
<polygon fill="#63b8ff" stroke="#63b8ff" points="459.37,-81.92 466.59,-74.17 456.11,-75.72 459.37,-81.92"/>
</a>
</g>
</g>
<!-- Node19&#45;&gt;Node9 -->
<g id="edge23_Node000019_Node000009" class="edge">
<title>Node19&#45;&gt;Node9</title>
<g id="a_edge23_Node000019_Node000009"><a xlink:title=" ">
<path fill="none" stroke="#63b8ff" d="M464.48,-54.98C445.82,-46.46 416.87,-33.23 395.38,-23.41"/>
<polygon fill="#63b8ff" stroke="#63b8ff" points="396.64,-20.14 386.09,-19.17 393.74,-26.51 396.64,-20.14"/>
</a>
</g>
</g>
<!-- Node19&#45;&gt;Node12 -->
<g id="edge24_Node000019_Node000012" class="edge">
<title>Node19&#45;&gt;Node12</title>
<g id="a_edge24_Node000019_Node000012"><a xlink:title=" ">
<path fill="none" stroke="#63b8ff" d="M432.35,-54.98C367.28,-44.07 256.27,-25.45 200.78,-16.15"/>
<polygon fill="#63b8ff" stroke="#63b8ff" points="201.21,-12.67 190.77,-14.47 200.05,-19.57 201.21,-12.67"/>
</a>
</g>
</g>
<!-- Node20 -->
<g id="Node000020" class="node">
<title>Node20</title>
<g id="a_Node000020"><a xlink:title=" ">
<polygon fill="#e0e0e0" stroke="#999999" points="511.12,-19 455.12,-19 455.12,0 511.12,0 511.12,-19"/>
<text text-anchor="middle" x="483.12" y="-7" font-family="Helvetica,sans-Serif" font-size="10.00">sstream</text>
</a>
</g>
</g>
<!-- Node19&#45;&gt;Node20 -->
<g id="edge21_Node000019_Node000020" class="edge">
<title>Node19&#45;&gt;Node20</title>
<g id="a_edge21_Node000019_Node000020"><a xlink:title=" ">
<path fill="none" stroke="#63b8ff" d="M483.12,-54.75C483.12,-47.8 483.12,-37.85 483.12,-29.13"/>
<polygon fill="#63b8ff" stroke="#63b8ff" points="486.62,-29.09 483.12,-19.09 479.62,-29.09 486.62,-29.09"/>
</a>
</g>
</g>
<!-- Node21 -->
<g id="Node000021" class="node">
<title>Node21</title>
<g id="a_Node000021"><a xlink:title=" ">
<polygon fill="#e0e0e0" stroke="#999999" points="628.62,-19 563.62,-19 563.62,0 628.62,0 628.62,-19"/>
<text text-anchor="middle" x="596.12" y="-7" font-family="Helvetica,sans-Serif" font-size="10.00">stdexcept</text>
</a>
</g>
</g>
<!-- Node19&#45;&gt;Node21 -->
<g id="edge22_Node000019_Node000021" class="edge">
<title>Node19&#45;&gt;Node21</title>
<g id="a_edge22_Node000019_Node000021"><a xlink:title=" ">
<path fill="none" stroke="#63b8ff" d="M501.27,-54.98C519.37,-46.5 547.4,-33.35 568.3,-23.54"/>
<polygon fill="#63b8ff" stroke="#63b8ff" points="570.06,-26.59 577.63,-19.17 567.09,-20.25 570.06,-26.59"/>
</a>
</g>
</g>
<!-- Node22&#45;&gt;Node14 -->
<g id="edge26_Node000022_Node000014" class="edge">
<title>Node22&#45;&gt;Node14</title>
<g id="a_edge26_Node000022_Node000014"><a xlink:title=" ">
<path fill="none" stroke="#63b8ff" d="M469.3,-164.75C467.86,-157.8 465.79,-147.85 463.99,-139.13"/>
<polygon fill="#63b8ff" stroke="#63b8ff" points="467.36,-138.17 461.9,-129.09 460.51,-139.59 467.36,-138.17"/>
</a>
</g>
</g>
<!-- Node22&#45;&gt;Node15 -->
<g id="edge27_Node000022_Node000015" class="edge">
<title>Node22&#45;&gt;Node15</title>
<g id="a_edge27_Node000022_Node000015"><a xlink:title=" ">
<path fill="none" stroke="#63b8ff" d="M483.65,-164.98C495.52,-156.92 513.58,-144.65 527.73,-135.03"/>
<polygon fill="#63b8ff" stroke="#63b8ff" points="530.05,-137.69 536.36,-129.17 526.12,-131.9 530.05,-137.69"/>
</a>
</g>
</g>
<!-- Node22&#45;&gt;Node16 -->
<g id="edge36_Node000022_Node000016" class="edge">
<title>Node22&#45;&gt;Node16</title>
<g id="a_edge36_Node000022_Node000016"><a xlink:title=" ">
<path fill="none" stroke="#63b8ff" d="M442.68,-164.98C412.83,-156.05 365.73,-141.94 332.58,-132.02"/>
<polygon fill="#63b8ff" stroke="#63b8ff" points="333.36,-128.6 322.78,-129.08 331.35,-135.3 333.36,-128.6"/>
</a>
</g>
</g>
<!-- Node23 -->
<g id="Node000023" class="node">
<title>Node23</title>
<g id="a_Node000023"><a xlink:href="file_8hpp.html" target="_top" xlink:title=" ">
<polygon fill="white" stroke="#666666" points="714.62,-129 613.62,-129 613.62,-110 714.62,-110 714.62,-129"/>
<text text-anchor="middle" x="664.12" y="-117" font-family="Helvetica,sans-Serif" font-size="10.00">../models/file.hpp</text>
</a>
</g>
</g>
<!-- Node22&#45;&gt;Node23 -->
<g id="edge28_Node000022_Node000023" class="edge">
<title>Node22&#45;&gt;Node23</title>
<g id="a_edge28_Node000022_Node000023"><a xlink:title=" ">
<path fill="none" stroke="#63b8ff" d="M502.13,-164.98C534.95,-155.97 586.91,-141.7 623.11,-131.76"/>
<polygon fill="#63b8ff" stroke="#63b8ff" points="624.15,-135.11 632.87,-129.08 622.3,-128.36 624.15,-135.11"/>
</a>
</g>
</g>
<!-- Node23&#45;&gt;Node7 -->
<g id="edge29_Node000023_Node000007" class="edge">
<title>Node23&#45;&gt;Node7</title>
<g id="a_edge29_Node000023_Node000007"><a xlink:title=" ">
<path fill="none" stroke="#63b8ff" d="M613.46,-110.02C565.24,-101.82 490.38,-88.76 415.56,-74.02"/>
<polygon fill="#63b8ff" stroke="#63b8ff" points="415.97,-70.53 405.48,-72.02 414.61,-77.4 415.97,-70.53"/>
</a>
</g>
</g>
<!-- Node23&#45;&gt;Node18 -->
<g id="edge30_Node000023_Node000018" class="edge">
<title>Node23&#45;&gt;Node18</title>
<g id="a_edge30_Node000023_Node000018"><a xlink:title=" ">
<path fill="none" stroke="#63b8ff" d="M654.48,-109.98C645.61,-102.15 632.24,-90.34 621.51,-80.86"/>
<polygon fill="#63b8ff" stroke="#63b8ff" points="623.74,-78.17 613.93,-74.17 619.11,-83.41 623.74,-78.17"/>
</a>
</g>
</g>
<!-- Node23&#45;&gt;Node19 -->
<g id="edge35_Node000023_Node000019" class="edge">
<title>Node23&#45;&gt;Node19</title>
<g id="a_edge35_Node000023_Node000019"><a xlink:title=" ">
<path fill="none" stroke="#63b8ff" d="M635.04,-109.98C604.52,-101.05 556.35,-86.94 522.45,-77.02"/>
<polygon fill="#63b8ff" stroke="#63b8ff" points="523.01,-73.53 512.43,-74.08 521.04,-80.25 523.01,-73.53"/>
</a>
</g>
</g>
<!-- Node24 -->
<g id="Node000024" class="node">
<title>Node24</title>
<g id="a_Node000024"><a xlink:href="endpoint_8hpp.html" target="_top" xlink:title=" ">
<polygon fill="white" stroke="#666666" points="745.12,-74 665.12,-74 665.12,-55 745.12,-55 745.12,-74"/>
<text text-anchor="middle" x="705.12" y="-62" font-family="Helvetica,sans-Serif" font-size="10.00">endpoint.hpp</text>
</a>
</g>
</g>
<!-- Node23&#45;&gt;Node24 -->
<g id="edge31_Node000023_Node000024" class="edge">
<title>Node23&#45;&gt;Node24</title>
<g id="a_edge31_Node000023_Node000024"><a xlink:title=" ">
<path fill="none" stroke="#63b8ff" d="M670.89,-109.75C676.68,-102.26 685.18,-91.28 692.26,-82.13"/>
<polygon fill="#63b8ff" stroke="#63b8ff" points="695.12,-84.14 698.47,-74.09 689.59,-79.86 695.12,-84.14"/>
</a>
</g>
</g>
<!-- Node24&#45;&gt;Node9 -->
<g id="edge34_Node000024_Node000009" class="edge">
<title>Node24&#45;&gt;Node9</title>
<g id="a_edge34_Node000024_Node000009"><a xlink:title=" ">
<path fill="none" stroke="#63b8ff" d="M665.02,-56.48C662.01,-55.97 659.01,-55.47 656.12,-55 563.08,-39.77 452.95,-23.22 399.48,-15.28"/>
<polygon fill="#63b8ff" stroke="#63b8ff" points="399.66,-11.77 389.26,-13.76 398.64,-18.69 399.66,-11.77"/>
</a>
</g>
</g>
<!-- Node24&#45;&gt;Node21 -->
<g id="edge33_Node000024_Node000021" class="edge">
<title>Node24&#45;&gt;Node21</title>
<g id="a_edge33_Node000024_Node000021"><a xlink:title=" ">
<path fill="none" stroke="#63b8ff" d="M687.6,-54.98C670.15,-46.5 643.11,-33.35 622.95,-23.54"/>
<polygon fill="#63b8ff" stroke="#63b8ff" points="624.47,-20.4 613.95,-19.17 621.41,-26.69 624.47,-20.4"/>
</a>
</g>
</g>
<!-- Node25 -->
<g id="Node000025" class="node">
<title>Node25</title>
<g id="a_Node000025"><a xlink:title=" ">
<polygon fill="#e0e0e0" stroke="#999999" points="730.12,-19 680.12,-19 680.12,0 730.12,0 730.12,-19"/>
<text text-anchor="middle" x="705.12" y="-7" font-family="Helvetica,sans-Serif" font-size="10.00">cstdint</text>
</a>
</g>
</g>
<!-- Node24&#45;&gt;Node25 -->
<g id="edge32_Node000024_Node000025" class="edge">
<title>Node24&#45;&gt;Node25</title>
<g id="a_edge32_Node000024_Node000025"><a xlink:title=" ">
<path fill="none" stroke="#63b8ff" d="M705.12,-54.75C705.12,-47.8 705.12,-37.85 705.12,-29.13"/>
<polygon fill="#63b8ff" stroke="#63b8ff" points="708.62,-29.09 705.12,-19.09 701.62,-29.09 708.62,-29.09"/>
</a>
</g>
</g>
</g>
</svg>
