<?xml version="1.0" encoding="UTF-8" standalone="no"?>
<!DOCTYPE svg PUBLIC "-//W3C//DTD SVG 1.1//EN"
 "http://www.w3.org/Graphics/SVG/1.1/DTD/svg11.dtd">
<!-- Generated by graphviz version 2.43.0 (0)
 -->
<!-- Title: src/client/downloadmanager.hpp Pages: 1 -->
<svg width="1332pt" height="247pt"
 viewBox="0.00 0.00 1331.53 247.00" xmlns="http://www.w3.org/2000/svg" xmlns:xlink="http://www.w3.org/1999/xlink">
<g id="graph0" class="graph" transform="scale(1 1) rotate(0) translate(4 243)">
<title>src/client/downloadmanager.hpp</title>
<!-- Node1 -->
<g id="Node000001" class="node">
<title>Node1</title>
<g id="a_Node000001"><a xlink:title=" ">
<polygon fill="#999999" stroke="#666666" points="553.5,-239 378.5,-239 378.5,-220 553.5,-220 553.5,-239"/>
<text text-anchor="middle" x="466" y="-227" font-family="Helvetica,sans-Serif" font-size="10.00">src/client/downloadmanager.hpp</text>
</a>
</g>
</g>
<!-- Node2 -->
<g id="Node000002" class="node">
<title>Node2</title>
<g id="a_Node000002"><a xlink:title=" ">
<polygon fill="#e0e0e0" stroke="#999999" points="50,-184 0,-184 0,-165 50,-165 50,-184"/>
<text text-anchor="middle" x="25" y="-172" font-family="Helvetica,sans-Serif" font-size="10.00">atomic</text>
</a>
</g>
</g>
<!-- Node1&#45;&gt;Node2 -->
<g id="edge1_Node000001_Node000002" class="edge">
<title>Node1&#45;&gt;Node2</title>
<g id="a_edge1_Node000001_Node000002"><a xlink:title=" ">
<path fill="none" stroke="#63b8ff" d="M378.18,-222.37C297.76,-215.96 175.33,-204.21 60.21,-183.99"/>
<polygon fill="#63b8ff" stroke="#63b8ff" points="60.63,-180.51 50.17,-182.2 59.4,-187.4 60.63,-180.51"/>
</a>
</g>
</g>
<!-- Node3 -->
<g id="Node000003" class="node">
<title>Node3</title>
<g id="a_Node000003"><a xlink:title=" ">
<polygon fill="#e0e0e0" stroke="#999999" points="115.5,-184 68.5,-184 68.5,-165 115.5,-165 115.5,-184"/>
<text text-anchor="middle" x="92" y="-172" font-family="Helvetica,sans-Serif" font-size="10.00">deque</text>
</a>
</g>
</g>
<!-- Node1&#45;&gt;Node3 -->
<g id="edge2_Node000001_Node000003" class="edge">
<title>Node1&#45;&gt;Node3</title>
<g id="a_edge2_Node000001_Node000003"><a xlink:title=" ">
<path fill="none" stroke="#63b8ff" d="M378.34,-220.27C311.39,-213.25 216.71,-201.74 125.63,-184.11"/>
<polygon fill="#63b8ff" stroke="#63b8ff" points="126.17,-180.65 115.69,-182.16 124.82,-187.52 126.17,-180.65"/>
</a>
</g>
</g>
<!-- Node4 -->
<g id="Node000004" class="node">
<title>Node4</title>
<g id="a_Node000004"><a xlink:title=" ">
<polygon fill="#e0e0e0" stroke="#999999" points="198.5,-184 133.5,-184 133.5,-165 198.5,-165 198.5,-184"/>
<text text-anchor="middle" x="166" y="-172" font-family="Helvetica,sans-Serif" font-size="10.00">functional</text>
</a>
</g>
</g>
<!-- Node1&#45;&gt;Node4 -->
<g id="edge3_Node000001_Node000004" class="edge">
<title>Node1&#45;&gt;Node4</title>
<g id="a_edge3_Node000001_Node000004"><a xlink:title=" ">
<path fill="none" stroke="#63b8ff" d="M417.01,-219.96C366.04,-211.05 283.91,-196.65 213,-184 211.55,-183.74 210.07,-183.48 208.57,-183.21"/>
<polygon fill="#63b8ff" stroke="#63b8ff" points="209.07,-179.74 198.61,-181.42 207.84,-186.63 209.07,-179.74"/>
</a>
</g>
</g>
<!-- Node5 -->
<g id="Node000005" class="node">
<title>Node5</title>
<g id="a_Node000005"><a xlink:title=" ">
<polygon fill="#e0e0e0" stroke="#999999" points="798,-19 754,-19 754,0 798,0 798,-19"/>
<text text-anchor="middle" x="776" y="-7" font-family="Helvetica,sans-Serif" font-size="10.00">string</text>
</a>
</g>
</g>
<!-- Node1&#45;&gt;Node5 -->
<g id="edge4_Node000001_Node000005" class="edge">
<title>Node1&#45;&gt;Node5</title>
<g id="a_edge4_Node000001_Node000005"><a xlink:title=" ">
<path fill="none" stroke="#63b8ff" d="M553.51,-225.53C684.72,-218.86 921.73,-197.4 965,-129 980.64,-104.28 948.71,-63.86 938,-55 900.83,-24.25 844.07,-14.66 808.55,-11.72"/>
<polygon fill="#63b8ff" stroke="#63b8ff" points="808.47,-8.21 798.25,-11.01 807.99,-15.19 808.47,-8.21"/>
</a>
</g>
</g>
<!-- Node6 -->
<g id="Node000006" class="node">
<title>Node6</title>
<g id="a_Node000006"><a xlink:title=" ">
<polygon fill="#e0e0e0" stroke="#999999" points="1118,-184 1070,-184 1070,-165 1118,-165 1118,-184"/>
<text text-anchor="middle" x="1094" y="-172" font-family="Helvetica,sans-Serif" font-size="10.00">thread</text>
</a>
</g>
</g>
<!-- Node1&#45;&gt;Node6 -->
<g id="edge5_Node000001_Node000006" class="edge">
<title>Node1&#45;&gt;Node6</title>
<g id="a_edge5_Node000001_Node000006"><a xlink:title=" ">
<path fill="none" stroke="#63b8ff" d="M553.91,-225.84C669.58,-221.44 878.96,-210.34 1056,-184 1057.28,-183.81 1058.58,-183.6 1059.89,-183.38"/>
<polygon fill="#63b8ff" stroke="#63b8ff" points="1060.82,-186.76 1069.98,-181.43 1059.49,-179.89 1060.82,-186.76"/>
</a>
</g>
</g>
<!-- Node7 -->
<g id="Node000007" class="node">
<title>Node7</title>
<g id="a_Node000007"><a xlink:href="endpoint_8hpp.html" target="_top" xlink:title=" ">
<polygon fill="white" stroke="#666666" points="343,-74 215,-74 215,-55 343,-55 343,-74"/>
<text text-anchor="middle" x="279" y="-62" font-family="Helvetica,sans-Serif" font-size="10.00">../models/endpoint.hpp</text>
</a>
</g>
</g>
<!-- Node1&#45;&gt;Node7 -->
<g id="edge6_Node000001_Node000007" class="edge">
<title>Node1&#45;&gt;Node7</title>
<g id="a_edge6_Node000001_Node000007"><a xlink:title=" ">
<path fill="none" stroke="#63b8ff" d="M405.16,-220C379.4,-213.73 350.63,-202.85 330,-184 300.47,-157.02 287.32,-110.02 282.07,-84.06"/>
<polygon fill="#63b8ff" stroke="#63b8ff" points="285.48,-83.25 280.23,-74.05 278.6,-84.52 285.48,-83.25"/>
</a>
</g>
</g>
<!-- Node10 -->
<g id="Node000010" class="node">
<title>Node10</title>
<g id="a_Node000010"><a xlink:href="file_8hpp.html" target="_top" xlink:title=" ">
<polygon fill="white" stroke="#666666" points="432.5,-129 331.5,-129 331.5,-110 432.5,-110 432.5,-129"/>
<text text-anchor="middle" x="382" y="-117" font-family="Helvetica,sans-Serif" font-size="10.00">../models/file.hpp</text>
</a>
</g>
</g>
<!-- Node1&#45;&gt;Node10 -->
<g id="edge10_Node000001_Node000010" class="edge">
<title>Node1&#45;&gt;Node10</title>
<g id="a_edge10_Node000001_Node000010"><a xlink:title=" ">
<path fill="none" stroke="#63b8ff" d="M459.13,-219.66C445.09,-201.61 412.94,-160.28 394.89,-137.08"/>
<polygon fill="#63b8ff" stroke="#63b8ff" points="397.64,-134.9 388.73,-129.16 392.11,-139.2 397.64,-134.9"/>
</a>
</g>
</g>
<!-- Node14 -->
<g id="Node000014" class="node">
<title>Node14</title>
<g id="a_Node000014"><a xlink:href="fileinfo_8hpp.html" target="_top" xlink:title=" ">
<polygon fill="white" stroke="#666666" points="508.5,-74 437.5,-74 437.5,-55 508.5,-55 508.5,-74"/>
<text text-anchor="middle" x="473" y="-62" font-family="Helvetica,sans-Serif" font-size="10.00">fileinfo.hpp</text>
</a>
</g>
</g>
<!-- Node1&#45;&gt;Node14 -->
<g id="edge21_Node000001_Node000014" class="edge">
<title>Node1&#45;&gt;Node14</title>
<g id="a_edge21_Node000001_Node000014"><a xlink:title=" ">
<path fill="none" stroke="#63b8ff" d="M438.71,-219.97C387.52,-202.55 285.49,-160.26 323,-110 346.78,-78.14 392.4,-68.16 427.11,-65.46"/>
<polygon fill="#63b8ff" stroke="#63b8ff" points="427.72,-68.93 437.5,-64.84 427.31,-61.95 427.72,-68.93"/>
</a>
</g>
</g>
<!-- Node16 -->
<g id="Node000016" class="node">
<title>Node16</title>
<g id="a_Node000016"><a xlink:href="tcp__socket_8hpp.html" target="_top" xlink:title=" ">
<polygon fill="white" stroke="#666666" points="1231.5,-129 1090.5,-129 1090.5,-110 1231.5,-110 1231.5,-129"/>
<text text-anchor="middle" x="1161" y="-117" font-family="Helvetica,sans-Serif" font-size="10.00">../network/tcp_socket.hpp</text>
</a>
</g>
</g>
<!-- Node1&#45;&gt;Node16 -->
<g id="edge22_Node000001_Node000016" class="edge">
<title>Node1&#45;&gt;Node16</title>
<g id="a_edge22_Node000001_Node000016"><a xlink:title=" ">
<path fill="none" stroke="#63b8ff" d="M553.72,-225.02C686.63,-219.15 932.63,-205.72 1018,-184 1018.75,-183.81 1091.01,-151.66 1132.51,-133.19"/>
<polygon fill="#63b8ff" stroke="#63b8ff" points="1134.13,-136.3 1141.84,-129.03 1131.28,-129.9 1134.13,-136.3"/>
</a>
</g>
</g>
<!-- Node20 -->
<g id="Node000020" class="node">
<title>Node20</title>
<g id="a_Node000020"><a xlink:href="filesdb_8hpp.html" target="_top" xlink:title=" ">
<polygon fill="white" stroke="#666666" points="811,-184 741,-184 741,-165 811,-165 811,-184"/>
<text text-anchor="middle" x="776" y="-172" font-family="Helvetica,sans-Serif" font-size="10.00">filesdb.hpp</text>
</a>
</g>
</g>
<!-- Node1&#45;&gt;Node20 -->
<g id="edge29_Node000001_Node000020" class="edge">
<title>Node1&#45;&gt;Node20</title>
<g id="a_edge29_Node000001_Node000020"><a xlink:title=" ">
<path fill="none" stroke="#63b8ff" d="M515.81,-219.98C575.1,-209.85 673.28,-193.06 730.57,-183.27"/>
<polygon fill="#63b8ff" stroke="#63b8ff" points="731.51,-186.66 740.78,-181.52 730.33,-179.76 731.51,-186.66"/>
</a>
</g>
</g>
<!-- Node24 -->
<g id="Node000024" class="node">
<title>Node24</title>
<g id="a_Node000024"><a xlink:href="partfile_8hpp.html" target="_top" xlink:title=" ">
<polygon fill="white" stroke="#666666" points="938,-129 866,-129 866,-110 938,-110 938,-129"/>
<text text-anchor="middle" x="902" y="-117" font-family="Helvetica,sans-Serif" font-size="10.00">partfile.hpp</text>
</a>
</g>
</g>
<!-- Node1&#45;&gt;Node24 -->
<g id="edge41_Node000001_Node000024" class="edge">
<title>Node1&#45;&gt;Node24</title>
<g id="a_edge41_Node000001_Node000024"><a xlink:title=" ">
<path fill="none" stroke="#63b8ff" d="M553.74,-222.78C642.59,-216.05 773.35,-203.29 820,-184 846.36,-173.1 871.49,-151.38 886.82,-136.4"/>
<polygon fill="#63b8ff" stroke="#63b8ff" points="889.34,-138.84 893.9,-129.28 884.37,-133.9 889.34,-138.84"/>
</a>
</g>
</g>
<!-- Node25 -->
<g id="Node000025" class="node">
<title>Node25</title>
<g id="a_Node000025"><a xlink:href="peerdb_8hpp.html" target="_top" xlink:title=" ">
<polygon fill="white" stroke="#666666" points="534.5,-184 463.5,-184 463.5,-165 534.5,-165 534.5,-184"/>
<text text-anchor="middle" x="499" y="-172" font-family="Helvetica,sans-Serif" font-size="10.00">peerdb.hpp</text>
</a>
</g>
</g>
<!-- Node1&#45;&gt;Node25 -->
<g id="edge42_Node000001_Node000025" class="edge">
<title>Node1&#45;&gt;Node25</title>
<g id="a_edge42_Node000001_Node000025"><a xlink:title=" ">
<path fill="none" stroke="#63b8ff" d="M471.45,-219.75C476.01,-212.42 482.67,-201.73 488.29,-192.7"/>
<polygon fill="#63b8ff" stroke="#63b8ff" points="491.34,-194.43 493.65,-184.09 485.4,-190.73 491.34,-194.43"/>
</a>
</g>
</g>
<!-- Node7&#45;&gt;Node5 -->
<g id="edge9_Node000007_Node000005" class="edge">
<title>Node7&#45;&gt;Node5</title>
<g id="a_edge9_Node000007_Node000005"><a xlink:title=" ">
<path fill="none" stroke="#63b8ff" d="M343.21,-56.65C450.7,-45.19 663.2,-22.53 743.89,-13.92"/>
<polygon fill="#63b8ff" stroke="#63b8ff" points="744.37,-17.39 753.94,-12.85 743.63,-10.43 744.37,-17.39"/>
</a>
</g>
</g>
<!-- Node8 -->
<g id="Node000008" class="node">
<title>Node8</title>
<g id="a_Node000008"><a xlink:title=" ">
<polygon fill="#e0e0e0" stroke="#999999" points="304,-19 254,-19 254,0 304,0 304,-19"/>
<text text-anchor="middle" x="279" y="-7" font-family="Helvetica,sans-Serif" font-size="10.00">cstdint</text>
</a>
</g>
</g>
<!-- Node7&#45;&gt;Node8 -->
<g id="edge7_Node000007_Node000008" class="edge">
<title>Node7&#45;&gt;Node8</title>
<g id="a_edge7_Node000007_Node000008"><a xlink:title=" ">
<path fill="none" stroke="#63b8ff" d="M279,-54.75C279,-47.8 279,-37.85 279,-29.13"/>
<polygon fill="#63b8ff" stroke="#63b8ff" points="282.5,-29.09 279,-19.09 275.5,-29.09 282.5,-29.09"/>
</a>
</g>
</g>
<!-- Node9 -->
<g id="Node000009" class="node">
<title>Node9</title>
<g id="a_Node000009"><a xlink:title=" ">
<polygon fill="#e0e0e0" stroke="#999999" points="397.5,-19 332.5,-19 332.5,0 397.5,0 397.5,-19"/>
<text text-anchor="middle" x="365" y="-7" font-family="Helvetica,sans-Serif" font-size="10.00">stdexcept</text>
</a>
</g>
</g>
<!-- Node7&#45;&gt;Node9 -->
<g id="edge8_Node000007_Node000009" class="edge">
<title>Node7&#45;&gt;Node9</title>
<g id="a_edge8_Node000007_Node000009"><a xlink:title=" ">
<path fill="none" stroke="#63b8ff" d="M292.82,-54.98C306.15,-46.77 326.58,-34.18 342.31,-24.49"/>
<polygon fill="#63b8ff" stroke="#63b8ff" points="344.25,-27.4 350.93,-19.17 340.58,-21.44 344.25,-27.4"/>
</a>
</g>
</g>
<!-- Node10&#45;&gt;Node5 -->
<g id="edge12_Node000010_Node000005" class="edge">
<title>Node10&#45;&gt;Node5</title>
<g id="a_edge12_Node000010_Node000005"><a xlink:title=" ">
<path fill="none" stroke="#63b8ff" d="M385.69,-109.75C392.16,-95.58 407,-67.91 429,-55 481.93,-23.95 667.49,-14.19 743.33,-11.46"/>
<polygon fill="#63b8ff" stroke="#63b8ff" points="743.82,-14.94 753.69,-11.1 743.58,-7.95 743.82,-14.94"/>
</a>
</g>
</g>
<!-- Node10&#45;&gt;Node7 -->
<g id="edge15_Node000010_Node000007" class="edge">
<title>Node10&#45;&gt;Node7</title>
<g id="a_edge15_Node000010_Node000007"><a xlink:title=" ">
<path fill="none" stroke="#63b8ff" d="M365.45,-109.98C349.11,-101.57 323.87,-88.59 304.87,-78.81"/>
<polygon fill="#63b8ff" stroke="#63b8ff" points="306.34,-75.63 295.85,-74.17 303.14,-81.86 306.34,-75.63"/>
</a>
</g>
</g>
<!-- Node11 -->
<g id="Node000011" class="node">
<title>Node11</title>
<g id="a_Node000011"><a xlink:title=" ">
<polygon fill="#e0e0e0" stroke="#999999" points="867,-74 809,-74 809,-55 867,-55 867,-74"/>
<text text-anchor="middle" x="838" y="-62" font-family="Helvetica,sans-Serif" font-size="10.00">memory</text>
</a>
</g>
</g>
<!-- Node10&#45;&gt;Node11 -->
<g id="edge11_Node000010_Node000011" class="edge">
<title>Node10&#45;&gt;Node11</title>
<g id="a_edge11_Node000010_Node000011"><a xlink:title=" ">
<path fill="none" stroke="#63b8ff" d="M432.54,-112.63C524.27,-101.96 716.29,-79.65 798.87,-70.05"/>
<polygon fill="#63b8ff" stroke="#63b8ff" points="799.32,-73.52 808.85,-68.89 798.51,-66.57 799.32,-73.52"/>
</a>
</g>
</g>
<!-- Node12 -->
<g id="Node000012" class="node">
<title>Node12</title>
<g id="a_Node000012"><a xlink:title=" ">
<polygon fill="#e0e0e0" stroke="#999999" points="491,-19 435,-19 435,0 491,0 491,-19"/>
<text text-anchor="middle" x="463" y="-7" font-family="Helvetica,sans-Serif" font-size="10.00">sstream</text>
</a>
</g>
</g>
<!-- Node10&#45;&gt;Node12 -->
<g id="edge13_Node000010_Node000012" class="edge">
<title>Node10&#45;&gt;Node12</title>
<g id="a_edge13_Node000010_Node000012"><a xlink:title=" ">
<path fill="none" stroke="#63b8ff" d="M381.75,-109.9C381.78,-96.89 383.49,-71.94 395,-55 404.21,-41.44 419.07,-31.02 432.55,-23.69"/>
<polygon fill="#63b8ff" stroke="#63b8ff" points="434.24,-26.75 441.58,-19.1 431.07,-20.51 434.24,-26.75"/>
</a>
</g>
</g>
<!-- Node13 -->
<g id="Node000013" class="node">
<title>Node13</title>
<g id="a_Node000013"><a xlink:title=" ">
<polygon fill="#e0e0e0" stroke="#999999" points="705,-74 619,-74 619,-55 705,-55 705,-74"/>
<text text-anchor="middle" x="662" y="-62" font-family="Helvetica,sans-Serif" font-size="10.00">unordered_set</text>
</a>
</g>
</g>
<!-- Node10&#45;&gt;Node13 -->
<g id="edge14_Node000010_Node000013" class="edge">
<title>Node10&#45;&gt;Node13</title>
<g id="a_edge14_Node000010_Node000013"><a xlink:title=" ">
<path fill="none" stroke="#63b8ff" d="M426.99,-109.98C476.55,-100.6 556.2,-85.53 608.82,-75.57"/>
<polygon fill="#63b8ff" stroke="#63b8ff" points="609.79,-78.94 618.96,-73.65 608.49,-72.07 609.79,-78.94"/>
</a>
</g>
</g>
<!-- Node10&#45;&gt;Node14 -->
<g id="edge16_Node000010_Node000014" class="edge">
<title>Node10&#45;&gt;Node14</title>
<g id="a_edge16_Node000010_Node000014"><a xlink:title=" ">
<path fill="none" stroke="#63b8ff" d="M396.62,-109.98C410.86,-101.69 432.75,-88.94 449.45,-79.22"/>
<polygon fill="#63b8ff" stroke="#63b8ff" points="451.23,-82.23 458.11,-74.17 447.71,-76.18 451.23,-82.23"/>
</a>
</g>
</g>
<!-- Node14&#45;&gt;Node5 -->
<g id="edge19_Node000014_Node000005" class="edge">
<title>Node14&#45;&gt;Node5</title>
<g id="a_edge19_Node000014_Node000005"><a xlink:title=" ">
<path fill="none" stroke="#63b8ff" d="M508.65,-57.26C568.15,-46.86 686.77,-26.11 743.85,-16.12"/>
<polygon fill="#63b8ff" stroke="#63b8ff" points="744.52,-19.56 753.77,-14.39 743.31,-12.66 744.52,-19.56"/>
</a>
</g>
</g>
<!-- Node14&#45;&gt;Node9 -->
<g id="edge18_Node000014_Node000009" class="edge">
<title>Node14&#45;&gt;Node9</title>
<g id="a_edge18_Node000014_Node000009"><a xlink:title=" ">
<path fill="none" stroke="#63b8ff" d="M455.65,-54.98C438.43,-46.54 411.8,-33.47 391.85,-23.68"/>
<polygon fill="#63b8ff" stroke="#63b8ff" points="393.19,-20.43 382.67,-19.17 390.1,-26.72 393.19,-20.43"/>
</a>
</g>
</g>
<!-- Node14&#45;&gt;Node12 -->
<g id="edge17_Node000014_Node000012" class="edge">
<title>Node14&#45;&gt;Node12</title>
<g id="a_edge17_Node000014_Node000012"><a xlink:title=" ">
<path fill="none" stroke="#63b8ff" d="M471.35,-54.75C470.04,-47.8 468.16,-37.85 466.52,-29.13"/>
<polygon fill="#63b8ff" stroke="#63b8ff" points="469.91,-28.27 464.62,-19.09 463.04,-29.56 469.91,-28.27"/>
</a>
</g>
</g>
<!-- Node15 -->
<g id="Node000015" class="node">
<title>Node15</title>
<g id="a_Node000015"><a xlink:title=" ">
<polygon fill="#e0e0e0" stroke="#999999" points="1113.5,-19 1066.5,-19 1066.5,0 1113.5,0 1113.5,-19"/>
<text text-anchor="middle" x="1090" y="-7" font-family="Helvetica,sans-Serif" font-size="10.00">vector</text>
</a>
</g>
</g>
<!-- Node14&#45;&gt;Node15 -->
<g id="edge20_Node000014_Node000015" class="edge">
<title>Node14&#45;&gt;Node15</title>
<g id="a_edge20_Node000014_Node000015"><a xlink:title=" ">
<path fill="none" stroke="#63b8ff" d="M508.84,-60.42C618.62,-50.99 949.27,-22.59 1056.23,-13.4"/>
<polygon fill="#63b8ff" stroke="#63b8ff" points="1056.77,-16.87 1066.44,-12.52 1056.17,-9.89 1056.77,-16.87"/>
</a>
</g>
</g>
<!-- Node16&#45;&gt;Node5 -->
<g id="edge25_Node000016_Node000005" class="edge">
<title>Node16&#45;&gt;Node5</title>
<g id="a_edge25_Node000016_Node000005"><a xlink:title=" ">
<path fill="none" stroke="#63b8ff" d="M1212.15,-109.94C1256.04,-100.49 1308.48,-82.82 1283,-55 1250.9,-19.96 914.77,-12.39 808.21,-10.86"/>
<polygon fill="#63b8ff" stroke="#63b8ff" points="808.11,-7.36 798.07,-10.72 808.02,-14.36 808.11,-7.36"/>
</a>
</g>
</g>
<!-- Node16&#45;&gt;Node11 -->
<g id="edge23_Node000016_Node000011" class="edge">
<title>Node16&#45;&gt;Node11</title>
<g id="a_edge23_Node000016_Node000011"><a xlink:title=" ">
<path fill="none" stroke="#63b8ff" d="M1109.1,-109.98C1044.34,-99.36 935.04,-81.42 876.98,-71.9"/>
<polygon fill="#63b8ff" stroke="#63b8ff" points="877.53,-68.44 867.09,-70.27 876.39,-75.35 877.53,-68.44"/>
</a>
</g>
</g>
<!-- Node16&#45;&gt;Node15 -->
<g id="edge28_Node000016_Node000015" class="edge">
<title>Node16&#45;&gt;Node15</title>
<g id="a_edge28_Node000016_Node000015"><a xlink:title=" ">
<path fill="none" stroke="#63b8ff" d="M1231.65,-112.37C1284.76,-104.97 1343.94,-88.97 1316,-55 1292.08,-25.91 1181.01,-15.54 1123.98,-12.09"/>
<polygon fill="#63b8ff" stroke="#63b8ff" points="1123.85,-8.57 1113.67,-11.5 1123.46,-15.56 1123.85,-8.57"/>
</a>
</g>
</g>
<!-- Node17 -->
<g id="Node000017" class="node">
<title>Node17</title>
<g id="a_Node000017"><a xlink:title=" ">
<polygon fill="#e0e0e0" stroke="#999999" points="1104,-74 1032,-74 1032,-55 1104,-55 1104,-74"/>
<text text-anchor="middle" x="1068" y="-62" font-family="Helvetica,sans-Serif" font-size="10.00">netinet/in.h</text>
</a>
</g>
</g>
<!-- Node16&#45;&gt;Node17 -->
<g id="edge24_Node000016_Node000017" class="edge">
<title>Node16&#45;&gt;Node17</title>
<g id="a_edge24_Node000016_Node000017"><a xlink:title=" ">
<path fill="none" stroke="#63b8ff" d="M1146.06,-109.98C1131.5,-101.69 1109.13,-88.94 1092.07,-79.22"/>
<polygon fill="#63b8ff" stroke="#63b8ff" points="1093.64,-76.08 1083.21,-74.17 1090.17,-82.16 1093.64,-76.08"/>
</a>
</g>
</g>
<!-- Node18 -->
<g id="Node000018" class="node">
<title>Node18</title>
<g id="a_Node000018"><a xlink:title=" ">
<polygon fill="#e0e0e0" stroke="#999999" points="1199.5,-74 1122.5,-74 1122.5,-55 1199.5,-55 1199.5,-74"/>
<text text-anchor="middle" x="1161" y="-62" font-family="Helvetica,sans-Serif" font-size="10.00">sys/socket.h</text>
</a>
</g>
</g>
<!-- Node16&#45;&gt;Node18 -->
<g id="edge26_Node000016_Node000018" class="edge">
<title>Node16&#45;&gt;Node18</title>
<g id="a_edge26_Node000016_Node000018"><a xlink:title=" ">
<path fill="none" stroke="#63b8ff" d="M1161,-109.75C1161,-102.8 1161,-92.85 1161,-84.13"/>
<polygon fill="#63b8ff" stroke="#63b8ff" points="1164.5,-84.09 1161,-74.09 1157.5,-84.09 1164.5,-84.09"/>
</a>
</g>
</g>
<!-- Node19 -->
<g id="Node000019" class="node">
<title>Node19</title>
<g id="a_Node000019"><a xlink:title=" ">
<polygon fill="#e0e0e0" stroke="#999999" points="1274,-74 1218,-74 1218,-55 1274,-55 1274,-74"/>
<text text-anchor="middle" x="1246" y="-62" font-family="Helvetica,sans-Serif" font-size="10.00">unistd.h</text>
</a>
</g>
</g>
<!-- Node16&#45;&gt;Node19 -->
<g id="edge27_Node000016_Node000019" class="edge">
<title>Node16&#45;&gt;Node19</title>
<g id="a_edge27_Node000016_Node000019"><a xlink:title=" ">
<path fill="none" stroke="#63b8ff" d="M1174.66,-109.98C1187.84,-101.77 1208.03,-89.18 1223.57,-79.49"/>
<polygon fill="#63b8ff" stroke="#63b8ff" points="1225.46,-82.43 1232.09,-74.17 1221.76,-76.49 1225.46,-82.43"/>
</a>
</g>
</g>
<!-- Node20&#45;&gt;Node5 -->
<g id="edge32_Node000020_Node000005" class="edge">
<title>Node20&#45;&gt;Node5</title>
<g id="a_edge32_Node000020_Node000005"><a xlink:title=" ">
<path fill="none" stroke="#63b8ff" d="M811.21,-169.38C856.28,-163.31 930.54,-150.3 947,-129 990.02,-73.35 868.64,-33.8 808.09,-18.05"/>
<polygon fill="#63b8ff" stroke="#63b8ff" points="808.78,-14.62 798.23,-15.56 807.07,-21.4 808.78,-14.62"/>
</a>
</g>
</g>
<!-- Node20&#45;&gt;Node11 -->
<g id="edge30_Node000020_Node000011" class="edge">
<title>Node20&#45;&gt;Node11</title>
<g id="a_edge30_Node000020_Node000011"><a xlink:title=" ">
<path fill="none" stroke="#63b8ff" d="M787.06,-164.74C796.78,-156.48 810.64,-143.28 819,-129 827.09,-115.17 832,-97.61 834.8,-84.45"/>
<polygon fill="#63b8ff" stroke="#63b8ff" points="838.31,-84.72 836.74,-74.24 831.43,-83.41 838.31,-84.72"/>
</a>
</g>
</g>
<!-- Node21 -->
<g id="Node000021" class="node">
<title>Node21</title>
<g id="a_Node000021"><a xlink:title=" ">
<polygon fill="#e0e0e0" stroke="#999999" points="613,-129 565,-129 565,-110 613,-110 613,-129"/>
<text text-anchor="middle" x="589" y="-117" font-family="Helvetica,sans-Serif" font-size="10.00">mutex</text>
</a>
</g>
</g>
<!-- Node20&#45;&gt;Node21 -->
<g id="edge31_Node000020_Node000021" class="edge">
<title>Node20&#45;&gt;Node21</title>
<g id="a_edge31_Node000020_Node000021"><a xlink:title=" ">
<path fill="none" stroke="#63b8ff" d="M745.96,-164.98C712.31,-155.45 657.92,-140.03 622.82,-130.09"/>
<polygon fill="#63b8ff" stroke="#63b8ff" points="623.6,-126.67 613.03,-127.31 621.69,-133.4 623.6,-126.67"/>
</a>
</g>
</g>
<!-- Node22 -->
<g id="Node000022" class="node">
<title>Node22</title>
<g id="a_Node000022"><a xlink:title=" ">
<polygon fill="#e0e0e0" stroke="#999999" points="724.5,-129 631.5,-129 631.5,-110 724.5,-110 724.5,-129"/>
<text text-anchor="middle" x="678" y="-117" font-family="Helvetica,sans-Serif" font-size="10.00">unordered_map</text>
</a>
</g>
</g>
<!-- Node20&#45;&gt;Node22 -->
<g id="edge33_Node000020_Node000022" class="edge">
<title>Node20&#45;&gt;Node22</title>
<g id="a_edge33_Node000020_Node000022"><a xlink:title=" ">
<path fill="none" stroke="#63b8ff" d="M760.25,-164.98C744.77,-156.61 720.91,-143.7 702.86,-133.95"/>
<polygon fill="#63b8ff" stroke="#63b8ff" points="704.49,-130.85 694.03,-129.17 701.16,-137.01 704.49,-130.85"/>
</a>
</g>
</g>
<!-- Node23 -->
<g id="Node000023" class="node">
<title>Node23</title>
<g id="a_Node000023"><a xlink:href="file__id_8hpp.html" target="_top" xlink:title=" ">
<polygon fill="white" stroke="#666666" points="809.5,-129 742.5,-129 742.5,-110 809.5,-110 809.5,-129"/>
<text text-anchor="middle" x="776" y="-117" font-family="Helvetica,sans-Serif" font-size="10.00">file_id.hpp</text>
</a>
</g>
</g>
<!-- Node20&#45;&gt;Node23 -->
<g id="edge34_Node000020_Node000023" class="edge">
<title>Node20&#45;&gt;Node23</title>
<g id="a_edge34_Node000020_Node000023"><a xlink:title=" ">
<path fill="none" stroke="#63b8ff" d="M776,-164.75C776,-157.8 776,-147.85 776,-139.13"/>
<polygon fill="#63b8ff" stroke="#63b8ff" points="779.5,-139.09 776,-129.09 772.5,-139.09 779.5,-139.09"/>
</a>
</g>
</g>
<!-- Node20&#45;&gt;Node24 -->
<g id="edge36_Node000020_Node000024" class="edge">
<title>Node20&#45;&gt;Node24</title>
<g id="a_edge36_Node000020_Node000024"><a xlink:title=" ">
<path fill="none" stroke="#63b8ff" d="M796.24,-164.98C816.7,-156.38 848.53,-142.99 871.93,-133.15"/>
<polygon fill="#63b8ff" stroke="#63b8ff" points="873.53,-136.27 881.39,-129.17 870.81,-129.82 873.53,-136.27"/>
</a>
</g>
</g>
<!-- Node23&#45;&gt;Node5 -->
<g id="edge35_Node000023_Node000005" class="edge">
<title>Node23&#45;&gt;Node5</title>
<g id="a_edge35_Node000023_Node000005"><a xlink:title=" ">
<path fill="none" stroke="#63b8ff" d="M776,-109.66C776,-92.17 776,-52.8 776,-29.27"/>
<polygon fill="#63b8ff" stroke="#63b8ff" points="779.5,-29.16 776,-19.16 772.5,-29.16 779.5,-29.16"/>
</a>
</g>
</g>
<!-- Node24&#45;&gt;Node5 -->
<g id="edge38_Node000024_Node000005" class="edge">
<title>Node24&#45;&gt;Node5</title>
<g id="a_edge38_Node000024_Node000005"><a xlink:title=" ">
<path fill="none" stroke="#63b8ff" d="M900.61,-109.99C898.02,-96.65 891.26,-70.73 876,-55 857.61,-36.05 829.71,-24.56 808.05,-18.01"/>
<polygon fill="#63b8ff" stroke="#63b8ff" points="808.86,-14.61 798.29,-15.27 806.97,-21.34 808.86,-14.61"/>
</a>
</g>
</g>
<!-- Node24&#45;&gt;Node11 -->
<g id="edge37_Node000024_Node000011" class="edge">
<title>Node24&#45;&gt;Node11</title>
<g id="a_edge37_Node000024_Node000011"><a xlink:title=" ">
<path fill="none" stroke="#63b8ff" d="M891.72,-109.98C882.16,-102.07 867.72,-90.11 856.22,-80.58"/>
<polygon fill="#63b8ff" stroke="#63b8ff" points="858.4,-77.85 848.47,-74.17 853.94,-83.24 858.4,-77.85"/>
</a>
</g>
</g>
<!-- Node24&#45;&gt;Node13 -->
<g id="edge39_Node000024_Node000013" class="edge">
<title>Node24&#45;&gt;Node13</title>
<g id="a_edge39_Node000024_Node000013"><a xlink:title=" ">
<path fill="none" stroke="#63b8ff" d="M865.81,-110.51C824.54,-101.39 756.85,-86.45 710.91,-76.3"/>
<polygon fill="#63b8ff" stroke="#63b8ff" points="711.4,-72.82 700.88,-74.09 709.89,-79.66 711.4,-72.82"/>
</a>
</g>
</g>
<!-- Node24&#45;&gt;Node14 -->
<g id="edge40_Node000024_Node000014" class="edge">
<title>Node24&#45;&gt;Node14</title>
<g id="a_edge40_Node000024_Node000014"><a xlink:title=" ">
<path fill="none" stroke="#63b8ff" d="M865.79,-114.03C787.86,-104.4 604.34,-81.73 518.61,-71.14"/>
<polygon fill="#63b8ff" stroke="#63b8ff" points="519.01,-67.66 508.66,-69.91 518.15,-74.6 519.01,-67.66"/>
</a>
</g>
</g>
<!-- Node25&#45;&gt;Node5 -->
<g id="edge45_Node000025_Node000005" class="edge">
<title>Node25&#45;&gt;Node5</title>
<g id="a_edge45_Node000025_Node000005"><a xlink:title=" ">
<path fill="none" stroke="#63b8ff" d="M501.29,-164.86C505.09,-151.81 513.72,-126.81 528,-110 556.41,-76.56 570.05,-73.15 610,-55 654.44,-34.82 709.86,-22.26 744.09,-15.82"/>
<polygon fill="#63b8ff" stroke="#63b8ff" points="744.78,-19.25 754,-14.02 743.53,-12.36 744.78,-19.25"/>
</a>
</g>
</g>
<!-- Node25&#45;&gt;Node7 -->
<g id="edge47_Node000025_Node000007" class="edge">
<title>Node25&#45;&gt;Node7</title>
<g id="a_edge47_Node000025_Node000007"><a xlink:title=" ">
<path fill="none" stroke="#63b8ff" d="M463.26,-171.77C425.39,-168.37 365.35,-158.36 323,-129 306.68,-117.68 294.52,-98.22 287.17,-83.81"/>
<polygon fill="#63b8ff" stroke="#63b8ff" points="290.14,-81.92 282.67,-74.41 283.83,-84.94 290.14,-81.92"/>
</a>
</g>
</g>
<!-- Node25&#45;&gt;Node10 -->
<g id="edge48_Node000025_Node000010" class="edge">
<title>Node25&#45;&gt;Node10</title>
<g id="a_edge48_Node000025_Node000010"><a xlink:title=" ">
<path fill="none" stroke="#63b8ff" d="M480.2,-164.98C461.38,-156.46 432.18,-143.23 410.5,-133.41"/>
<polygon fill="#63b8ff" stroke="#63b8ff" points="411.69,-130.11 401.14,-129.17 408.8,-136.48 411.69,-130.11"/>
</a>
</g>
</g>
<!-- Node25&#45;&gt;Node11 -->
<g id="edge43_Node000025_Node000011" class="edge">
<title>Node25&#45;&gt;Node11</title>
<g id="a_edge43_Node000025_Node000011"><a xlink:title=" ">
<path fill="none" stroke="#63b8ff" d="M504.02,-164.8C512.67,-150.72 531.79,-123.16 556,-110 597.13,-87.64 731.1,-74.05 798.51,-68.46"/>
<polygon fill="#63b8ff" stroke="#63b8ff" points="799.04,-71.93 808.73,-67.63 798.48,-64.95 799.04,-71.93"/>
</a>
</g>
</g>
<!-- Node25&#45;&gt;Node14 -->
<g id="edge49_Node000025_Node000014" class="edge">
<title>Node25&#45;&gt;Node14</title>
<g id="a_edge49_Node000025_Node000014"><a xlink:title=" ">
<path fill="none" stroke="#63b8ff" d="M495.9,-164.72C492.83,-155.81 488.15,-141.57 485,-129 481.28,-114.17 478.12,-97.13 475.98,-84.44"/>
<polygon fill="#63b8ff" stroke="#63b8ff" points="479.37,-83.51 474.31,-74.2 472.46,-84.63 479.37,-83.51"/>
</a>
</g>
</g>
<!-- Node25&#45;&gt;Node21 -->
<g id="edge44_Node000025_Node000021" class="edge">
<title>Node25&#45;&gt;Node21</title>
<g id="a_edge44_Node000025_Node000021"><a xlink:title=" ">
<path fill="none" stroke="#63b8ff" d="M513.46,-164.98C527.42,-156.77 548.79,-144.18 565.25,-134.49"/>
<polygon fill="#63b8ff" stroke="#63b8ff" points="567.44,-137.26 574.28,-129.17 563.88,-131.23 567.44,-137.26"/>
</a>
</g>
</g>
<!-- Node25&#45;&gt;Node22 -->
<g id="edge46_Node000025_Node000022" class="edge">
<title>Node25&#45;&gt;Node22</title>
<g id="a_edge46_Node000025_Node000022"><a xlink:title=" ">
<path fill="none" stroke="#63b8ff" d="M527.76,-164.98C557.94,-156.05 605.57,-141.94 639.1,-132.02"/>
<polygon fill="#63b8ff" stroke="#63b8ff" points="640.42,-135.28 649.02,-129.08 638.43,-128.57 640.42,-135.28"/>
</a>
</g>
</g>
<!-- Node25&#45;&gt;Node23 -->
<g id="edge50_Node000025_Node000023" class="edge">
<title>Node25&#45;&gt;Node23</title>
<g id="a_edge50_Node000025_Node000023"><a xlink:title=" ">
<path fill="none" stroke="#63b8ff" d="M534.86,-166.85C578.99,-158.64 656.48,-144.12 731.93,-129.39"/>
<polygon fill="#63b8ff" stroke="#63b8ff" points="732.94,-132.76 742.08,-127.4 731.6,-125.89 732.94,-132.76"/>
</a>
</g>
</g>
</g>
</svg>
