<?xml version="1.0" encoding="UTF-8" standalone="no"?>
<!DOCTYPE svg PUBLIC "-//W3C//DTD SVG 1.1//EN"
 "http://www.w3.org/Graphics/SVG/1.1/DTD/svg11.dtd">
<!-- Generated by graphviz version 2.43.0 (0)
 -->
<!-- Title: src/client/downloadmanager.cpp Pages: 1 -->
<svg width="1162pt" height="302pt"
 viewBox="0.00 0.00 1162.04 302.00" xmlns="http://www.w3.org/2000/svg" xmlns:xlink="http://www.w3.org/1999/xlink">
<g id="graph0" class="graph" transform="scale(1 1) rotate(0) translate(4 298)">
<title>src/client/downloadmanager.cpp</title>
<!-- Node1 -->
<g id="Node000001" class="node">
<title>Node1</title>
<g id="a_Node000001"><a xlink:title=" ">
<polygon fill="#999999" stroke="#666666" points="813,-294 639,-294 639,-275 813,-275 813,-294"/>
<text text-anchor="middle" x="726" y="-282" font-family="Helvetica,sans-Serif" font-size="10.00">src/client/downloadmanager.cpp</text>
</a>
</g>
</g>
<!-- Node2 -->
<g id="Node000002" class="node">
<title>Node2</title>
<g id="a_Node000002"><a xlink:title=" ">
<polygon fill="#e0e0e0" stroke="#999999" points="631,-239 581,-239 581,-220 631,-220 631,-239"/>
<text text-anchor="middle" x="606" y="-227" font-family="Helvetica,sans-Serif" font-size="10.00">cstring</text>
</a>
</g>
</g>
<!-- Node1&#45;&gt;Node2 -->
<g id="edge1_Node000001_Node000002" class="edge">
<title>Node1&#45;&gt;Node2</title>
<g id="a_edge1_Node000001_Node000002"><a xlink:title=" ">
<path fill="none" stroke="#63b8ff" d="M706.72,-274.98C687.33,-266.42 657.19,-253.11 634.93,-243.28"/>
<polygon fill="#63b8ff" stroke="#63b8ff" points="636.19,-240.01 625.63,-239.17 633.36,-246.41 636.19,-240.01"/>
</a>
</g>
</g>
<!-- Node3 -->
<g id="Node000003" class="node">
<title>Node3</title>
<g id="a_Node000003"><a xlink:title=" ">
<polygon fill="#e0e0e0" stroke="#999999" points="696.5,-239 649.5,-239 649.5,-220 696.5,-220 696.5,-239"/>
<text text-anchor="middle" x="673" y="-227" font-family="Helvetica,sans-Serif" font-size="10.00">fcntl.h</text>
</a>
</g>
</g>
<!-- Node1&#45;&gt;Node3 -->
<g id="edge2_Node000001_Node000003" class="edge">
<title>Node1&#45;&gt;Node3</title>
<g id="a_edge2_Node000001_Node000003"><a xlink:title=" ">
<path fill="none" stroke="#63b8ff" d="M717.25,-274.75C709.53,-267.03 698.1,-255.6 688.78,-246.28"/>
<polygon fill="#63b8ff" stroke="#63b8ff" points="691.14,-243.69 681.59,-239.09 686.19,-248.64 691.14,-243.69"/>
</a>
</g>
</g>
<!-- Node4 -->
<g id="Node000004" class="node">
<title>Node4</title>
<g id="a_Node000004"><a xlink:href="downloadmanager_8hpp.html" target="_top" xlink:title=" ">
<polygon fill="white" stroke="#666666" points="843,-239 715,-239 715,-220 843,-220 843,-239"/>
<text text-anchor="middle" x="779" y="-227" font-family="Helvetica,sans-Serif" font-size="10.00">downloadmanager.hpp</text>
</a>
</g>
</g>
<!-- Node1&#45;&gt;Node4 -->
<g id="edge3_Node000001_Node000004" class="edge">
<title>Node1&#45;&gt;Node4</title>
<g id="a_edge3_Node000001_Node000004"><a xlink:title=" ">
<path fill="none" stroke="#63b8ff" d="M734.75,-274.75C742.47,-267.03 753.9,-255.6 763.22,-246.28"/>
<polygon fill="#63b8ff" stroke="#63b8ff" points="765.81,-248.64 770.41,-239.09 760.86,-243.69 765.81,-248.64"/>
</a>
</g>
</g>
<!-- Node29 -->
<g id="Node000029" class="node">
<title>Node29</title>
<g id="a_Node000029"><a xlink:href="hash_8hpp.html" target="_top" xlink:title=" ">
<polygon fill="white" stroke="#666666" points="1071.5,-239 1010.5,-239 1010.5,-220 1071.5,-220 1071.5,-239"/>
<text text-anchor="middle" x="1041" y="-227" font-family="Helvetica,sans-Serif" font-size="10.00">hash.hpp</text>
</a>
</g>
</g>
<!-- Node1&#45;&gt;Node29 -->
<g id="edge54_Node000001_Node000029" class="edge">
<title>Node1&#45;&gt;Node29</title>
<g id="a_edge54_Node000001_Node000029"><a xlink:title=" ">
<path fill="none" stroke="#63b8ff" d="M776.61,-274.98C838.66,-264.54 942.62,-247.05 999.95,-237.41"/>
<polygon fill="#63b8ff" stroke="#63b8ff" points="1000.81,-240.81 1010.09,-235.7 999.65,-233.91 1000.81,-240.81"/>
</a>
</g>
</g>
<!-- Node5 -->
<g id="Node000005" class="node">
<title>Node5</title>
<g id="a_Node000005"><a xlink:title=" ">
<polygon fill="#e0e0e0" stroke="#999999" points="961,-184 911,-184 911,-165 961,-165 961,-184"/>
<text text-anchor="middle" x="936" y="-172" font-family="Helvetica,sans-Serif" font-size="10.00">atomic</text>
</a>
</g>
</g>
<!-- Node4&#45;&gt;Node5 -->
<g id="edge4_Node000004_Node000005" class="edge">
<title>Node4&#45;&gt;Node5</title>
<g id="a_edge4_Node000004_Node000005"><a xlink:title=" ">
<path fill="none" stroke="#63b8ff" d="M804.22,-219.98C830.43,-211.14 871.64,-197.23 900.99,-187.32"/>
<polygon fill="#63b8ff" stroke="#63b8ff" points="902.48,-190.51 910.84,-183.99 900.24,-183.88 902.48,-190.51"/>
</a>
</g>
</g>
<!-- Node6 -->
<g id="Node000006" class="node">
<title>Node6</title>
<g id="a_Node000006"><a xlink:title=" ">
<polygon fill="#e0e0e0" stroke="#999999" points="1026.5,-184 979.5,-184 979.5,-165 1026.5,-165 1026.5,-184"/>
<text text-anchor="middle" x="1003" y="-172" font-family="Helvetica,sans-Serif" font-size="10.00">deque</text>
</a>
</g>
</g>
<!-- Node4&#45;&gt;Node6 -->
<g id="edge5_Node000004_Node000006" class="edge">
<title>Node4&#45;&gt;Node6</title>
<g id="a_edge5_Node000004_Node000006"><a xlink:title=" ">
<path fill="none" stroke="#63b8ff" d="M816.75,-219.98C853.29,-211.67 910.49,-198.5 969.38,-184.11"/>
<polygon fill="#63b8ff" stroke="#63b8ff" points="970.34,-187.47 979.22,-181.69 968.68,-180.68 970.34,-187.47"/>
</a>
</g>
</g>
<!-- Node7 -->
<g id="Node000007" class="node">
<title>Node7</title>
<g id="a_Node000007"><a xlink:title=" ">
<polygon fill="#e0e0e0" stroke="#999999" points="1109.5,-184 1044.5,-184 1044.5,-165 1109.5,-165 1109.5,-184"/>
<text text-anchor="middle" x="1077" y="-172" font-family="Helvetica,sans-Serif" font-size="10.00">functional</text>
</a>
</g>
</g>
<!-- Node4&#45;&gt;Node7 -->
<g id="edge6_Node000004_Node000007" class="edge">
<title>Node4&#45;&gt;Node7</title>
<g id="a_edge6_Node000004_Node000007"><a xlink:title=" ">
<path fill="none" stroke="#63b8ff" d="M830.56,-219.97C880.19,-211.66 957.61,-198.44 1034.59,-184.03"/>
<polygon fill="#63b8ff" stroke="#63b8ff" points="1035.28,-187.46 1044.46,-182.18 1033.98,-180.58 1035.28,-187.46"/>
</a>
</g>
</g>
<!-- Node8 -->
<g id="Node000008" class="node">
<title>Node8</title>
<g id="a_Node000008"><a xlink:title=" ">
<polygon fill="#e0e0e0" stroke="#999999" points="568,-19 524,-19 524,0 568,0 568,-19"/>
<text text-anchor="middle" x="546" y="-7" font-family="Helvetica,sans-Serif" font-size="10.00">string</text>
</a>
</g>
</g>
<!-- Node4&#45;&gt;Node8 -->
<g id="edge7_Node000004_Node000008" class="edge">
<title>Node4&#45;&gt;Node8</title>
<g id="a_edge7_Node000004_Node000008"><a xlink:title=" ">
<path fill="none" stroke="#63b8ff" d="M778.59,-219.71C777.35,-199.39 772.47,-148.01 754,-110 740.08,-81.34 734.81,-72.23 708,-55 667.75,-29.14 612.57,-18.15 578.12,-13.59"/>
<polygon fill="#63b8ff" stroke="#63b8ff" points="578.48,-10.11 568.13,-12.37 577.63,-17.06 578.48,-10.11"/>
</a>
</g>
</g>
<!-- Node9 -->
<g id="Node000009" class="node">
<title>Node9</title>
<g id="a_Node000009"><a xlink:title=" ">
<polygon fill="#e0e0e0" stroke="#999999" points="893,-184 845,-184 845,-165 893,-165 893,-184"/>
<text text-anchor="middle" x="869" y="-172" font-family="Helvetica,sans-Serif" font-size="10.00">thread</text>
</a>
</g>
</g>
<!-- Node4&#45;&gt;Node9 -->
<g id="edge8_Node000004_Node000009" class="edge">
<title>Node4&#45;&gt;Node9</title>
<g id="a_edge8_Node000004_Node000009"><a xlink:title=" ">
<path fill="none" stroke="#63b8ff" d="M793.46,-219.98C807.42,-211.77 828.79,-199.18 845.25,-189.49"/>
<polygon fill="#63b8ff" stroke="#63b8ff" points="847.44,-192.26 854.28,-184.17 843.88,-186.23 847.44,-192.26"/>
</a>
</g>
</g>
<!-- Node10 -->
<g id="Node000010" class="node">
<title>Node10</title>
<g id="a_Node000010"><a xlink:href="endpoint_8hpp.html" target="_top" xlink:title=" ">
<polygon fill="white" stroke="#666666" points="128,-74 0,-74 0,-55 128,-55 128,-74"/>
<text text-anchor="middle" x="64" y="-62" font-family="Helvetica,sans-Serif" font-size="10.00">../models/endpoint.hpp</text>
</a>
</g>
</g>
<!-- Node4&#45;&gt;Node10 -->
<g id="edge9_Node000004_Node000010" class="edge">
<title>Node4&#45;&gt;Node10</title>
<g id="a_edge9_Node000004_Node000010"><a xlink:title=" ">
<path fill="none" stroke="#63b8ff" d="M714.84,-220.95C711.52,-220.61 708.22,-220.29 705,-220 588.33,-209.31 285.43,-233 179,-184 130.78,-161.8 92.15,-109.72 74.47,-82.6"/>
<polygon fill="#63b8ff" stroke="#63b8ff" points="77.41,-80.71 69.1,-74.13 71.5,-84.45 77.41,-80.71"/>
</a>
</g>
</g>
<!-- Node13 -->
<g id="Node000013" class="node">
<title>Node13</title>
<g id="a_Node000013"><a xlink:href="file_8hpp.html" target="_top" xlink:title=" ">
<polygon fill="white" stroke="#666666" points="244.5,-129 143.5,-129 143.5,-110 244.5,-110 244.5,-129"/>
<text text-anchor="middle" x="194" y="-117" font-family="Helvetica,sans-Serif" font-size="10.00">../models/file.hpp</text>
</a>
</g>
</g>
<!-- Node4&#45;&gt;Node13 -->
<g id="edge13_Node000004_Node000013" class="edge">
<title>Node4&#45;&gt;Node13</title>
<g id="a_edge13_Node000004_Node000013"><a xlink:title=" ">
<path fill="none" stroke="#63b8ff" d="M714.83,-221.1C711.5,-220.72 708.21,-220.36 705,-220 554.85,-203.38 514.13,-218.29 367,-184 314.11,-171.67 255.3,-147.78 221.67,-133.07"/>
<polygon fill="#63b8ff" stroke="#63b8ff" points="223.04,-129.85 212.48,-129.01 220.21,-136.25 223.04,-129.85"/>
</a>
</g>
</g>
<!-- Node17 -->
<g id="Node000017" class="node">
<title>Node17</title>
<g id="a_Node000017"><a xlink:href="fileinfo_8hpp.html" target="_top" xlink:title=" ">
<polygon fill="white" stroke="#666666" points="293.5,-74 222.5,-74 222.5,-55 293.5,-55 293.5,-74"/>
<text text-anchor="middle" x="258" y="-62" font-family="Helvetica,sans-Serif" font-size="10.00">fileinfo.hpp</text>
</a>
</g>
</g>
<!-- Node4&#45;&gt;Node17 -->
<g id="edge24_Node000004_Node000017" class="edge">
<title>Node4&#45;&gt;Node17</title>
<g id="a_edge24_Node000004_Node000017"><a xlink:title=" ">
<path fill="none" stroke="#63b8ff" d="M714.84,-221.03C711.51,-220.67 708.22,-220.33 705,-220 577.17,-206.98 209.22,-233.17 134,-129 110.81,-96.89 168.02,-79.88 212.26,-71.79"/>
<polygon fill="#63b8ff" stroke="#63b8ff" points="213.06,-75.2 222.32,-70.06 211.87,-68.3 213.06,-75.2"/>
</a>
</g>
</g>
<!-- Node19 -->
<g id="Node000019" class="node">
<title>Node19</title>
<g id="a_Node000019"><a xlink:href="tcp__socket_8hpp.html" target="_top" xlink:title=" ">
<polygon fill="white" stroke="#666666" points="986.5,-129 845.5,-129 845.5,-110 986.5,-110 986.5,-129"/>
<text text-anchor="middle" x="916" y="-117" font-family="Helvetica,sans-Serif" font-size="10.00">../network/tcp_socket.hpp</text>
</a>
</g>
</g>
<!-- Node4&#45;&gt;Node19 -->
<g id="edge25_Node000004_Node000019" class="edge">
<title>Node4&#45;&gt;Node19</title>
<g id="a_edge25_Node000004_Node000019"><a xlink:title=" ">
<path fill="none" stroke="#63b8ff" d="M785.25,-219.87C795.01,-206.82 814.92,-181.82 836,-165 851.64,-152.52 871.24,-141.56 887.12,-133.63"/>
<polygon fill="#63b8ff" stroke="#63b8ff" points="888.99,-136.62 896.47,-129.11 885.94,-130.32 888.99,-136.62"/>
</a>
</g>
</g>
<!-- Node23 -->
<g id="Node000023" class="node">
<title>Node23</title>
<g id="a_Node000023"><a xlink:href="filesdb_8hpp.html" target="_top" xlink:title=" ">
<polygon fill="white" stroke="#666666" points="714,-184 644,-184 644,-165 714,-165 714,-184"/>
<text text-anchor="middle" x="679" y="-172" font-family="Helvetica,sans-Serif" font-size="10.00">filesdb.hpp</text>
</a>
</g>
</g>
<!-- Node4&#45;&gt;Node23 -->
<g id="edge32_Node000004_Node000023" class="edge">
<title>Node4&#45;&gt;Node23</title>
<g id="a_edge32_Node000004_Node000023"><a xlink:title=" ">
<path fill="none" stroke="#63b8ff" d="M762.93,-219.98C747.14,-211.61 722.78,-198.7 704.37,-188.95"/>
<polygon fill="#63b8ff" stroke="#63b8ff" points="705.83,-185.76 695.36,-184.17 702.56,-191.95 705.83,-185.76"/>
</a>
</g>
</g>
<!-- Node27 -->
<g id="Node000027" class="node">
<title>Node27</title>
<g id="a_Node000027"><a xlink:href="partfile_8hpp.html" target="_top" xlink:title=" ">
<polygon fill="white" stroke="#666666" points="373,-129 301,-129 301,-110 373,-110 373,-129"/>
<text text-anchor="middle" x="337" y="-117" font-family="Helvetica,sans-Serif" font-size="10.00">partfile.hpp</text>
</a>
</g>
</g>
<!-- Node4&#45;&gt;Node27 -->
<g id="edge44_Node000004_Node000027" class="edge">
<title>Node4&#45;&gt;Node27</title>
<g id="a_edge44_Node000004_Node000027"><a xlink:title=" ">
<path fill="none" stroke="#63b8ff" d="M714.65,-221.1C605.19,-208.5 394.44,-184.23 394,-184 373.92,-173.62 357.53,-153.06 347.56,-138.13"/>
<polygon fill="#63b8ff" stroke="#63b8ff" points="350.28,-135.88 341.96,-129.31 344.36,-139.63 350.28,-135.88"/>
</a>
</g>
</g>
<!-- Node28 -->
<g id="Node000028" class="node">
<title>Node28</title>
<g id="a_Node000028"><a xlink:href="peerdb_8hpp.html" target="_top" xlink:title=" ">
<polygon fill="white" stroke="#666666" points="474.5,-184 403.5,-184 403.5,-165 474.5,-165 474.5,-184"/>
<text text-anchor="middle" x="439" y="-172" font-family="Helvetica,sans-Serif" font-size="10.00">peerdb.hpp</text>
</a>
</g>
</g>
<!-- Node4&#45;&gt;Node28 -->
<g id="edge45_Node000004_Node000028" class="edge">
<title>Node4&#45;&gt;Node28</title>
<g id="a_edge45_Node000004_Node000028"><a xlink:title=" ">
<path fill="none" stroke="#63b8ff" d="M724.37,-219.98C657.87,-209.62 546.77,-192.3 484.63,-182.61"/>
<polygon fill="#63b8ff" stroke="#63b8ff" points="485.14,-179.15 474.72,-181.07 484.06,-186.07 485.14,-179.15"/>
</a>
</g>
</g>
<!-- Node10&#45;&gt;Node8 -->
<g id="edge12_Node000010_Node000008" class="edge">
<title>Node10&#45;&gt;Node8</title>
<g id="a_edge12_Node000010_Node000008"><a xlink:title=" ">
<path fill="none" stroke="#63b8ff" d="M128.01,-56.46C232.2,-45.01 434.75,-22.73 513.54,-14.07"/>
<polygon fill="#63b8ff" stroke="#63b8ff" points="514.26,-17.51 523.82,-12.94 513.49,-10.55 514.26,-17.51"/>
</a>
</g>
</g>
<!-- Node11 -->
<g id="Node000011" class="node">
<title>Node11</title>
<g id="a_Node000011"><a xlink:title=" ">
<polygon fill="#e0e0e0" stroke="#999999" points="89,-19 39,-19 39,0 89,0 89,-19"/>
<text text-anchor="middle" x="64" y="-7" font-family="Helvetica,sans-Serif" font-size="10.00">cstdint</text>
</a>
</g>
</g>
<!-- Node10&#45;&gt;Node11 -->
<g id="edge10_Node000010_Node000011" class="edge">
<title>Node10&#45;&gt;Node11</title>
<g id="a_edge10_Node000010_Node000011"><a xlink:title=" ">
<path fill="none" stroke="#63b8ff" d="M64,-54.75C64,-47.8 64,-37.85 64,-29.13"/>
<polygon fill="#63b8ff" stroke="#63b8ff" points="67.5,-29.09 64,-19.09 60.5,-29.09 67.5,-29.09"/>
</a>
</g>
</g>
<!-- Node12 -->
<g id="Node000012" class="node">
<title>Node12</title>
<g id="a_Node000012"><a xlink:title=" ">
<polygon fill="#e0e0e0" stroke="#999999" points="182.5,-19 117.5,-19 117.5,0 182.5,0 182.5,-19"/>
<text text-anchor="middle" x="150" y="-7" font-family="Helvetica,sans-Serif" font-size="10.00">stdexcept</text>
</a>
</g>
</g>
<!-- Node10&#45;&gt;Node12 -->
<g id="edge11_Node000010_Node000012" class="edge">
<title>Node10&#45;&gt;Node12</title>
<g id="a_edge11_Node000010_Node000012"><a xlink:title=" ">
<path fill="none" stroke="#63b8ff" d="M77.82,-54.98C91.15,-46.77 111.58,-34.18 127.31,-24.49"/>
<polygon fill="#63b8ff" stroke="#63b8ff" points="129.25,-27.4 135.93,-19.17 125.58,-21.44 129.25,-27.4"/>
</a>
</g>
</g>
<!-- Node13&#45;&gt;Node8 -->
<g id="edge15_Node000013_Node000008" class="edge">
<title>Node13&#45;&gt;Node8</title>
<g id="a_edge15_Node000013_Node000008"><a xlink:title=" ">
<path fill="none" stroke="#63b8ff" d="M193.83,-109.97C194.07,-96.12 196.72,-68.89 213,-55 257.72,-16.84 438.49,-11.18 513.32,-10.5"/>
<polygon fill="#63b8ff" stroke="#63b8ff" points="513.59,-14 523.57,-10.44 513.54,-7 513.59,-14"/>
</a>
</g>
</g>
<!-- Node13&#45;&gt;Node10 -->
<g id="edge18_Node000013_Node000010" class="edge">
<title>Node13&#45;&gt;Node10</title>
<g id="a_edge18_Node000013_Node000010"><a xlink:title=" ">
<path fill="none" stroke="#63b8ff" d="M173.11,-109.98C151.92,-101.34 118.87,-87.87 94.7,-78.02"/>
<polygon fill="#63b8ff" stroke="#63b8ff" points="95.85,-74.7 85.27,-74.17 93.21,-81.19 95.85,-74.7"/>
</a>
</g>
</g>
<!-- Node14 -->
<g id="Node000014" class="node">
<title>Node14</title>
<g id="a_Node000014"><a xlink:title=" ">
<polygon fill="#e0e0e0" stroke="#999999" points="550,-74 492,-74 492,-55 550,-55 550,-74"/>
<text text-anchor="middle" x="521" y="-62" font-family="Helvetica,sans-Serif" font-size="10.00">memory</text>
</a>
</g>
</g>
<!-- Node13&#45;&gt;Node14 -->
<g id="edge14_Node000013_Node000014" class="edge">
<title>Node13&#45;&gt;Node14</title>
<g id="a_edge14_Node000013_Node000014"><a xlink:title=" ">
<path fill="none" stroke="#63b8ff" d="M244.73,-110.28C310.06,-99.69 422.2,-81.51 481.53,-71.9"/>
<polygon fill="#63b8ff" stroke="#63b8ff" points="482.31,-75.32 491.62,-70.26 481.19,-68.41 482.31,-75.32"/>
</a>
</g>
</g>
<!-- Node15 -->
<g id="Node000015" class="node">
<title>Node15</title>
<g id="a_Node000015"><a xlink:title=" ">
<polygon fill="#e0e0e0" stroke="#999999" points="267,-19 211,-19 211,0 267,0 267,-19"/>
<text text-anchor="middle" x="239" y="-7" font-family="Helvetica,sans-Serif" font-size="10.00">sstream</text>
</a>
</g>
</g>
<!-- Node13&#45;&gt;Node15 -->
<g id="edge16_Node000013_Node000015" class="edge">
<title>Node13&#45;&gt;Node15</title>
<g id="a_edge16_Node000013_Node000015"><a xlink:title=" ">
<path fill="none" stroke="#63b8ff" d="M188.63,-109.84C181.54,-97.19 170.94,-73.19 180,-55 186.57,-41.82 199.1,-31.52 210.93,-24.16"/>
<polygon fill="#63b8ff" stroke="#63b8ff" points="212.8,-27.12 219.73,-19.1 209.32,-21.05 212.8,-27.12"/>
</a>
</g>
</g>
<!-- Node16 -->
<g id="Node000016" class="node">
<title>Node16</title>
<g id="a_Node000016"><a xlink:title=" ">
<polygon fill="#e0e0e0" stroke="#999999" points="398,-74 312,-74 312,-55 398,-55 398,-74"/>
<text text-anchor="middle" x="355" y="-62" font-family="Helvetica,sans-Serif" font-size="10.00">unordered_set</text>
</a>
</g>
</g>
<!-- Node13&#45;&gt;Node16 -->
<g id="edge17_Node000013_Node000016" class="edge">
<title>Node13&#45;&gt;Node16</title>
<g id="a_edge17_Node000013_Node000016"><a xlink:title=" ">
<path fill="none" stroke="#63b8ff" d="M219.87,-109.98C246.78,-101.13 289.12,-87.19 319.23,-77.28"/>
<polygon fill="#63b8ff" stroke="#63b8ff" points="320.53,-80.53 328.93,-74.08 318.34,-73.88 320.53,-80.53"/>
</a>
</g>
</g>
<!-- Node13&#45;&gt;Node17 -->
<g id="edge19_Node000013_Node000017" class="edge">
<title>Node13&#45;&gt;Node17</title>
<g id="a_edge19_Node000013_Node000017"><a xlink:title=" ">
<path fill="none" stroke="#63b8ff" d="M204.28,-109.98C213.84,-102.07 228.28,-90.11 239.78,-80.58"/>
<polygon fill="#63b8ff" stroke="#63b8ff" points="242.06,-83.24 247.53,-74.17 237.6,-77.85 242.06,-83.24"/>
</a>
</g>
</g>
<!-- Node17&#45;&gt;Node8 -->
<g id="edge22_Node000017_Node000008" class="edge">
<title>Node17&#45;&gt;Node8</title>
<g id="a_edge22_Node000017_Node000008"><a xlink:title=" ">
<path fill="none" stroke="#63b8ff" d="M293.86,-56.71C296.95,-56.13 300.03,-55.55 303,-55 378.5,-40.96 467.26,-24.79 513.8,-16.34"/>
<polygon fill="#63b8ff" stroke="#63b8ff" points="514.67,-19.74 523.88,-14.51 513.41,-12.85 514.67,-19.74"/>
</a>
</g>
</g>
<!-- Node17&#45;&gt;Node12 -->
<g id="edge21_Node000017_Node000012" class="edge">
<title>Node17&#45;&gt;Node12</title>
<g id="a_edge21_Node000017_Node000012"><a xlink:title=" ">
<path fill="none" stroke="#63b8ff" d="M240.65,-54.98C223.43,-46.54 196.8,-33.47 176.85,-23.68"/>
<polygon fill="#63b8ff" stroke="#63b8ff" points="178.19,-20.43 167.67,-19.17 175.1,-26.72 178.19,-20.43"/>
</a>
</g>
</g>
<!-- Node17&#45;&gt;Node15 -->
<g id="edge20_Node000017_Node000015" class="edge">
<title>Node17&#45;&gt;Node15</title>
<g id="a_edge20_Node000017_Node000015"><a xlink:title=" ">
<path fill="none" stroke="#63b8ff" d="M254.86,-54.75C252.32,-47.65 248.64,-37.4 245.47,-28.56"/>
<polygon fill="#63b8ff" stroke="#63b8ff" points="248.75,-27.32 242.08,-19.09 242.16,-29.68 248.75,-27.32"/>
</a>
</g>
</g>
<!-- Node18 -->
<g id="Node000018" class="node">
<title>Node18</title>
<g id="a_Node000018"><a xlink:title=" ">
<polygon fill="#e0e0e0" stroke="#999999" points="945.5,-19 898.5,-19 898.5,0 945.5,0 945.5,-19"/>
<text text-anchor="middle" x="922" y="-7" font-family="Helvetica,sans-Serif" font-size="10.00">vector</text>
</a>
</g>
</g>
<!-- Node17&#45;&gt;Node18 -->
<g id="edge23_Node000017_Node000018" class="edge">
<title>Node17&#45;&gt;Node18</title>
<g id="a_edge23_Node000017_Node000018"><a xlink:title=" ">
<path fill="none" stroke="#63b8ff" d="M293.8,-56.35C296.91,-55.85 300,-55.39 303,-55 525.22,-26.12 794.93,-14.79 888.29,-11.56"/>
<polygon fill="#63b8ff" stroke="#63b8ff" points="888.41,-15.06 898.29,-11.22 888.18,-8.06 888.41,-15.06"/>
</a>
</g>
</g>
<!-- Node19&#45;&gt;Node8 -->
<g id="edge28_Node000019_Node000008" class="edge">
<title>Node19&#45;&gt;Node8</title>
<g id="a_edge28_Node000019_Node000008"><a xlink:title=" ">
<path fill="none" stroke="#63b8ff" d="M907.49,-109.83C893.14,-95.79 862.58,-68.29 831,-55 744.67,-18.68 632.36,-11.68 578.11,-10.54"/>
<polygon fill="#63b8ff" stroke="#63b8ff" points="578.12,-7.04 568.06,-10.38 578.01,-14.04 578.12,-7.04"/>
</a>
</g>
</g>
<!-- Node19&#45;&gt;Node14 -->
<g id="edge26_Node000019_Node000014" class="edge">
<title>Node19&#45;&gt;Node14</title>
<g id="a_edge26_Node000019_Node000014"><a xlink:title=" ">
<path fill="none" stroke="#63b8ff" d="M852.54,-109.98C769.98,-98.91 628.26,-79.89 559.99,-70.73"/>
<polygon fill="#63b8ff" stroke="#63b8ff" points="560.46,-67.26 550.08,-69.4 559.53,-74.2 560.46,-67.26"/>
</a>
</g>
</g>
<!-- Node19&#45;&gt;Node18 -->
<g id="edge31_Node000019_Node000018" class="edge">
<title>Node19&#45;&gt;Node18</title>
<g id="a_edge31_Node000019_Node000018"><a xlink:title=" ">
<path fill="none" stroke="#63b8ff" d="M986.59,-113.51C1042.69,-107.9 1114.68,-96.46 1133,-74 1181.07,-15.07 1027.25,-9.37 956.1,-9.77"/>
<polygon fill="#63b8ff" stroke="#63b8ff" points="955.8,-6.27 945.84,-9.87 955.87,-13.27 955.8,-6.27"/>
</a>
</g>
</g>
<!-- Node20 -->
<g id="Node000020" class="node">
<title>Node20</title>
<g id="a_Node000020"><a xlink:title=" ">
<polygon fill="#e0e0e0" stroke="#999999" points="1029,-74 957,-74 957,-55 1029,-55 1029,-74"/>
<text text-anchor="middle" x="993" y="-62" font-family="Helvetica,sans-Serif" font-size="10.00">netinet/in.h</text>
</a>
</g>
</g>
<!-- Node19&#45;&gt;Node20 -->
<g id="edge27_Node000019_Node000020" class="edge">
<title>Node19&#45;&gt;Node20</title>
<g id="a_edge27_Node000019_Node000020"><a xlink:title=" ">
<path fill="none" stroke="#63b8ff" d="M928.37,-109.98C940.09,-101.92 957.92,-89.65 971.89,-80.03"/>
<polygon fill="#63b8ff" stroke="#63b8ff" points="974.15,-82.72 980.4,-74.17 970.18,-76.96 974.15,-82.72"/>
</a>
</g>
</g>
<!-- Node21 -->
<g id="Node000021" class="node">
<title>Node21</title>
<g id="a_Node000021"><a xlink:title=" ">
<polygon fill="#e0e0e0" stroke="#999999" points="1124.5,-74 1047.5,-74 1047.5,-55 1124.5,-55 1124.5,-74"/>
<text text-anchor="middle" x="1086" y="-62" font-family="Helvetica,sans-Serif" font-size="10.00">sys/socket.h</text>
</a>
</g>
</g>
<!-- Node19&#45;&gt;Node21 -->
<g id="edge29_Node000019_Node000021" class="edge">
<title>Node19&#45;&gt;Node21</title>
<g id="a_edge29_Node000019_Node000021"><a xlink:title=" ">
<path fill="none" stroke="#63b8ff" d="M943.31,-109.98C971.85,-101.09 1016.83,-87.07 1048.64,-77.15"/>
<polygon fill="#63b8ff" stroke="#63b8ff" points="1049.97,-80.4 1058.47,-74.08 1047.88,-73.72 1049.97,-80.4"/>
</a>
</g>
</g>
<!-- Node22 -->
<g id="Node000022" class="node">
<title>Node22</title>
<g id="a_Node000022"><a xlink:title=" ">
<polygon fill="#e0e0e0" stroke="#999999" points="939,-74 883,-74 883,-55 939,-55 939,-74"/>
<text text-anchor="middle" x="911" y="-62" font-family="Helvetica,sans-Serif" font-size="10.00">unistd.h</text>
</a>
</g>
</g>
<!-- Node19&#45;&gt;Node22 -->
<g id="edge30_Node000019_Node000022" class="edge">
<title>Node19&#45;&gt;Node22</title>
<g id="a_edge30_Node000019_Node000022"><a xlink:title=" ">
<path fill="none" stroke="#63b8ff" d="M915.17,-109.75C914.52,-102.8 913.58,-92.85 912.76,-84.13"/>
<polygon fill="#63b8ff" stroke="#63b8ff" points="916.23,-83.72 911.81,-74.09 909.27,-84.37 916.23,-83.72"/>
</a>
</g>
</g>
<!-- Node23&#45;&gt;Node8 -->
<g id="edge35_Node000023_Node000008" class="edge">
<title>Node23&#45;&gt;Node8</title>
<g id="a_edge35_Node000023_Node000008"><a xlink:title=" ">
<path fill="none" stroke="#63b8ff" d="M697.85,-164.82C719.83,-153.42 751.53,-132.24 738,-110 703.07,-52.56 623.08,-26.8 578.14,-16.5"/>
<polygon fill="#63b8ff" stroke="#63b8ff" points="578.84,-13.07 568.32,-14.36 577.35,-19.91 578.84,-13.07"/>
</a>
</g>
</g>
<!-- Node23&#45;&gt;Node14 -->
<g id="edge33_Node000023_Node000014" class="edge">
<title>Node23&#45;&gt;Node14</title>
<g id="a_edge33_Node000023_Node000014"><a xlink:title=" ">
<path fill="none" stroke="#63b8ff" d="M691.84,-164.94C709.07,-152.41 735.88,-128.56 721,-110 701.23,-85.35 612.58,-73.48 560.17,-68.53"/>
<polygon fill="#63b8ff" stroke="#63b8ff" points="560.48,-65.04 550.21,-67.63 559.85,-72.01 560.48,-65.04"/>
</a>
</g>
</g>
<!-- Node24 -->
<g id="Node000024" class="node">
<title>Node24</title>
<g id="a_Node000024"><a xlink:title=" ">
<polygon fill="#e0e0e0" stroke="#999999" points="627,-129 579,-129 579,-110 627,-110 627,-129"/>
<text text-anchor="middle" x="603" y="-117" font-family="Helvetica,sans-Serif" font-size="10.00">mutex</text>
</a>
</g>
</g>
<!-- Node23&#45;&gt;Node24 -->
<g id="edge34_Node000023_Node000024" class="edge">
<title>Node23&#45;&gt;Node24</title>
<g id="a_edge34_Node000023_Node000024"><a xlink:title=" ">
<path fill="none" stroke="#63b8ff" d="M666.79,-164.98C655.22,-156.92 637.62,-144.65 623.84,-135.03"/>
<polygon fill="#63b8ff" stroke="#63b8ff" points="625.64,-132.02 615.43,-129.17 621.63,-137.76 625.64,-132.02"/>
</a>
</g>
</g>
<!-- Node25 -->
<g id="Node000025" class="node">
<title>Node25</title>
<g id="a_Node000025"><a xlink:title=" ">
<polygon fill="#e0e0e0" stroke="#999999" points="560.5,-129 467.5,-129 467.5,-110 560.5,-110 560.5,-129"/>
<text text-anchor="middle" x="514" y="-117" font-family="Helvetica,sans-Serif" font-size="10.00">unordered_map</text>
</a>
</g>
</g>
<!-- Node23&#45;&gt;Node25 -->
<g id="edge36_Node000023_Node000025" class="edge">
<title>Node23&#45;&gt;Node25</title>
<g id="a_edge36_Node000023_Node000025"><a xlink:title=" ">
<path fill="none" stroke="#63b8ff" d="M652.49,-164.98C624.79,-156.09 581.14,-142.07 550.26,-132.15"/>
<polygon fill="#63b8ff" stroke="#63b8ff" points="551.31,-128.81 540.72,-129.08 549.17,-135.47 551.31,-128.81"/>
</a>
</g>
</g>
<!-- Node26 -->
<g id="Node000026" class="node">
<title>Node26</title>
<g id="a_Node000026"><a xlink:href="file__id_8hpp.html" target="_top" xlink:title=" ">
<polygon fill="white" stroke="#666666" points="712.5,-129 645.5,-129 645.5,-110 712.5,-110 712.5,-129"/>
<text text-anchor="middle" x="679" y="-117" font-family="Helvetica,sans-Serif" font-size="10.00">file_id.hpp</text>
</a>
</g>
</g>
<!-- Node23&#45;&gt;Node26 -->
<g id="edge37_Node000023_Node000026" class="edge">
<title>Node23&#45;&gt;Node26</title>
<g id="a_edge37_Node000023_Node000026"><a xlink:title=" ">
<path fill="none" stroke="#63b8ff" d="M679,-164.75C679,-157.8 679,-147.85 679,-139.13"/>
<polygon fill="#63b8ff" stroke="#63b8ff" points="682.5,-139.09 679,-129.09 675.5,-139.09 682.5,-139.09"/>
</a>
</g>
</g>
<!-- Node23&#45;&gt;Node27 -->
<g id="edge39_Node000023_Node000027" class="edge">
<title>Node23&#45;&gt;Node27</title>
<g id="a_edge39_Node000023_Node000027"><a xlink:title=" ">
<path fill="none" stroke="#63b8ff" d="M643.69,-168.03C581.52,-158.39 452.55,-138.41 383.32,-127.68"/>
<polygon fill="#63b8ff" stroke="#63b8ff" points="383.57,-124.17 373.15,-126.1 382.49,-131.09 383.57,-124.17"/>
</a>
</g>
</g>
<!-- Node26&#45;&gt;Node8 -->
<g id="edge38_Node000026_Node000008" class="edge">
<title>Node26&#45;&gt;Node8</title>
<g id="a_edge38_Node000026_Node000008"><a xlink:title=" ">
<path fill="none" stroke="#63b8ff" d="M668.12,-109.66C645.4,-91.22 592.73,-48.45 564.56,-25.57"/>
<polygon fill="#63b8ff" stroke="#63b8ff" points="566.63,-22.75 556.66,-19.16 562.22,-28.18 566.63,-22.75"/>
</a>
</g>
</g>
<!-- Node27&#45;&gt;Node8 -->
<g id="edge41_Node000027_Node000008" class="edge">
<title>Node27&#45;&gt;Node8</title>
<g id="a_edge41_Node000027_Node000008"><a xlink:title=" ">
<path fill="none" stroke="#63b8ff" d="M351.43,-109.91C372.72,-97.35 413.94,-73.45 450,-55 472.14,-43.67 497.72,-31.88 516.9,-23.28"/>
<polygon fill="#63b8ff" stroke="#63b8ff" points="518.58,-26.36 526.3,-19.09 515.74,-19.96 518.58,-26.36"/>
</a>
</g>
</g>
<!-- Node27&#45;&gt;Node14 -->
<g id="edge40_Node000027_Node000014" class="edge">
<title>Node27&#45;&gt;Node14</title>
<g id="a_edge40_Node000027_Node000014"><a xlink:title=" ">
<path fill="none" stroke="#63b8ff" d="M366.56,-109.98C397.91,-100.96 447.56,-86.65 482.07,-76.71"/>
<polygon fill="#63b8ff" stroke="#63b8ff" points="483.17,-80.04 491.81,-73.91 481.24,-73.31 483.17,-80.04"/>
</a>
</g>
</g>
<!-- Node27&#45;&gt;Node16 -->
<g id="edge42_Node000027_Node000016" class="edge">
<title>Node27&#45;&gt;Node16</title>
<g id="a_edge42_Node000027_Node000016"><a xlink:title=" ">
<path fill="none" stroke="#63b8ff" d="M339.97,-109.75C342.36,-102.72 345.79,-92.62 348.77,-83.84"/>
<polygon fill="#63b8ff" stroke="#63b8ff" points="352.18,-84.68 352.08,-74.09 345.55,-82.43 352.18,-84.68"/>
</a>
</g>
</g>
<!-- Node27&#45;&gt;Node17 -->
<g id="edge43_Node000027_Node000017" class="edge">
<title>Node27&#45;&gt;Node17</title>
<g id="a_edge43_Node000027_Node000017"><a xlink:title=" ">
<path fill="none" stroke="#63b8ff" d="M324.31,-109.98C312.17,-101.84 293.64,-89.41 279.25,-79.76"/>
<polygon fill="#63b8ff" stroke="#63b8ff" points="281.18,-76.84 270.92,-74.17 277.28,-82.65 281.18,-76.84"/>
</a>
</g>
</g>
<!-- Node28&#45;&gt;Node8 -->
<g id="edge48_Node000028_Node000008" class="edge">
<title>Node28&#45;&gt;Node8</title>
<g id="a_edge48_Node000028_Node000008"><a xlink:title=" ">
<path fill="none" stroke="#63b8ff" d="M438.47,-164.98C437.98,-152.51 438.18,-128.73 445,-110 455.17,-82.08 462.1,-76.12 483,-55 494.67,-43.21 509.81,-32.4 522.32,-24.39"/>
<polygon fill="#63b8ff" stroke="#63b8ff" points="524.22,-27.33 530.87,-19.08 520.53,-21.38 524.22,-27.33"/>
</a>
</g>
</g>
<!-- Node28&#45;&gt;Node10 -->
<g id="edge50_Node000028_Node000010" class="edge">
<title>Node28&#45;&gt;Node10</title>
<g id="a_edge50_Node000028_Node000010"><a xlink:title=" ">
<path fill="none" stroke="#63b8ff" d="M403.34,-170.92C333.45,-165.43 181.19,-151.26 134,-129 110.93,-118.11 90.06,-97.03 77.23,-82.15"/>
<polygon fill="#63b8ff" stroke="#63b8ff" points="79.73,-79.68 70.65,-74.23 74.35,-84.15 79.73,-79.68"/>
</a>
</g>
</g>
<!-- Node28&#45;&gt;Node13 -->
<g id="edge51_Node000028_Node000013" class="edge">
<title>Node28&#45;&gt;Node13</title>
<g id="a_edge51_Node000028_Node000013"><a xlink:title=" ">
<path fill="none" stroke="#63b8ff" d="M403.37,-165.79C361.21,-156.67 290.76,-141.43 243.36,-131.18"/>
<polygon fill="#63b8ff" stroke="#63b8ff" points="243.83,-127.7 233.32,-129.01 242.35,-134.54 243.83,-127.7"/>
</a>
</g>
</g>
<!-- Node28&#45;&gt;Node14 -->
<g id="edge46_Node000028_Node000014" class="edge">
<title>Node28&#45;&gt;Node14</title>
<g id="a_edge46_Node000028_Node000014"><a xlink:title=" ">
<path fill="none" stroke="#63b8ff" d="M439.78,-164.91C441.33,-151.93 445.78,-127.01 458,-110 467.25,-97.14 481.4,-86.66 493.95,-79.11"/>
<polygon fill="#63b8ff" stroke="#63b8ff" points="495.74,-82.12 502.71,-74.14 492.29,-76.03 495.74,-82.12"/>
</a>
</g>
</g>
<!-- Node28&#45;&gt;Node17 -->
<g id="edge52_Node000028_Node000017" class="edge">
<title>Node28&#45;&gt;Node17</title>
<g id="a_edge52_Node000028_Node000017"><a xlink:title=" ">
<path fill="none" stroke="#63b8ff" d="M403.34,-170.42C371.11,-165.99 323.97,-155.2 292,-129 277.82,-117.38 268.73,-98.24 263.55,-84"/>
<polygon fill="#63b8ff" stroke="#63b8ff" points="266.8,-82.68 260.33,-74.28 260.15,-84.88 266.8,-82.68"/>
</a>
</g>
</g>
<!-- Node28&#45;&gt;Node24 -->
<g id="edge47_Node000028_Node000024" class="edge">
<title>Node28&#45;&gt;Node24</title>
<g id="a_edge47_Node000028_Node000024"><a xlink:title=" ">
<path fill="none" stroke="#63b8ff" d="M465.35,-164.98C493.5,-155.89 538.21,-141.44 568.99,-131.49"/>
<polygon fill="#63b8ff" stroke="#63b8ff" points="570.41,-134.71 578.85,-128.3 568.26,-128.05 570.41,-134.71"/>
</a>
</g>
</g>
<!-- Node28&#45;&gt;Node25 -->
<g id="edge49_Node000028_Node000025" class="edge">
<title>Node28&#45;&gt;Node25</title>
<g id="a_edge49_Node000028_Node000025"><a xlink:title=" ">
<path fill="none" stroke="#63b8ff" d="M451.05,-164.98C462.46,-156.92 479.83,-144.65 493.43,-135.03"/>
<polygon fill="#63b8ff" stroke="#63b8ff" points="495.58,-137.8 501.73,-129.17 491.54,-132.08 495.58,-137.8"/>
</a>
</g>
</g>
<!-- Node28&#45;&gt;Node26 -->
<g id="edge53_Node000028_Node000026" class="edge">
<title>Node28&#45;&gt;Node26</title>
<g id="a_edge53_Node000028_Node000026"><a xlink:title=" ">
<path fill="none" stroke="#63b8ff" d="M474.67,-165.62C517.52,-156.16 589.39,-140.29 635.47,-130.11"/>
<polygon fill="#63b8ff" stroke="#63b8ff" points="636.45,-133.48 645.46,-127.91 634.94,-126.65 636.45,-133.48"/>
</a>
</g>
</g>
<!-- Node29&#45;&gt;Node8 -->
<g id="edge55_Node000029_Node000008" class="edge">
<title>Node29&#45;&gt;Node8</title>
<g id="a_edge55_Node000029_Node000008"><a xlink:title=" ">
<path fill="none" stroke="#63b8ff" d="M1067.8,-219.98C1084.99,-213.07 1106.21,-201.56 1118,-184 1150.17,-136.08 1172.24,-97.33 1133,-55 1113.99,-34.49 698.32,-16.52 578.22,-11.74"/>
<polygon fill="#63b8ff" stroke="#63b8ff" points="578.31,-8.24 568.18,-11.34 578.03,-15.24 578.31,-8.24"/>
</a>
</g>
</g>
</g>
</svg>
