<?xml version="1.0" encoding="UTF-8" standalone="no"?>
<!DOCTYPE svg PUBLIC "-//W3C//DTD SVG 1.1//EN"
 "http://www.w3.org/Graphics/SVG/1.1/DTD/svg11.dtd">
<!-- Generated by graphviz version 2.43.0 (0)
 -->
<!-- Title: src/client/downloadmanager.cpp Pages: 1 -->
<svg width="1047pt" height="302pt"
 viewBox="0.00 0.00 1047.44 302.00" xmlns="http://www.w3.org/2000/svg" xmlns:xlink="http://www.w3.org/1999/xlink">
<g id="graph0" class="graph" transform="scale(1 1) rotate(0) translate(4 298)">
<title>src/client/downloadmanager.cpp</title>
<!-- Node1 -->
<g id="Node000001" class="node">
<title>Node1</title>
<g id="a_Node000001"><a xlink:title=" ">
<polygon fill="#999999" stroke="#666666" points="425.5,-294 251.5,-294 251.5,-275 425.5,-275 425.5,-294"/>
<text text-anchor="middle" x="338.5" y="-282" font-family="Helvetica,sans-Serif" font-size="10.00">src/client/downloadmanager.cpp</text>
</a>
</g>
</g>
<!-- Node2 -->
<g id="Node000002" class="node">
<title>Node2</title>
<g id="a_Node000002"><a xlink:title=" ">
<polygon fill="#e0e0e0" stroke="#999999" points="243.5,-239 193.5,-239 193.5,-220 243.5,-220 243.5,-239"/>
<text text-anchor="middle" x="218.5" y="-227" font-family="Helvetica,sans-Serif" font-size="10.00">cstring</text>
</a>
</g>
</g>
<!-- Node1&#45;&gt;Node2 -->
<g id="edge1_Node000001_Node000002" class="edge">
<title>Node1&#45;&gt;Node2</title>
<g id="a_edge1_Node000001_Node000002"><a xlink:title=" ">
<path fill="none" stroke="#63b8ff" d="M319.22,-274.98C299.83,-266.42 269.69,-253.11 247.43,-243.28"/>
<polygon fill="#63b8ff" stroke="#63b8ff" points="248.69,-240.01 238.13,-239.17 245.86,-246.41 248.69,-240.01"/>
</a>
</g>
</g>
<!-- Node3 -->
<g id="Node000003" class="node">
<title>Node3</title>
<g id="a_Node000003"><a xlink:title=" ">
<polygon fill="#e0e0e0" stroke="#999999" points="309,-239 262,-239 262,-220 309,-220 309,-239"/>
<text text-anchor="middle" x="285.5" y="-227" font-family="Helvetica,sans-Serif" font-size="10.00">fcntl.h</text>
</a>
</g>
</g>
<!-- Node1&#45;&gt;Node3 -->
<g id="edge2_Node000001_Node000003" class="edge">
<title>Node1&#45;&gt;Node3</title>
<g id="a_edge2_Node000001_Node000003"><a xlink:title=" ">
<path fill="none" stroke="#63b8ff" d="M329.75,-274.75C322.03,-267.03 310.6,-255.6 301.28,-246.28"/>
<polygon fill="#63b8ff" stroke="#63b8ff" points="303.64,-243.69 294.09,-239.09 298.69,-248.64 303.64,-243.69"/>
</a>
</g>
</g>
<!-- Node4 -->
<g id="Node000004" class="node">
<title>Node4</title>
<g id="a_Node000004"><a xlink:href="downloadmanager_8hpp.html" target="_top" xlink:title=" ">
<polygon fill="white" stroke="#666666" points="455.5,-239 327.5,-239 327.5,-220 455.5,-220 455.5,-239"/>
<text text-anchor="middle" x="391.5" y="-227" font-family="Helvetica,sans-Serif" font-size="10.00">downloadmanager.hpp</text>
</a>
</g>
</g>
<!-- Node1&#45;&gt;Node4 -->
<g id="edge3_Node000001_Node000004" class="edge">
<title>Node1&#45;&gt;Node4</title>
<g id="a_edge3_Node000001_Node000004"><a xlink:title=" ">
<path fill="none" stroke="#63b8ff" d="M347.25,-274.75C354.97,-267.03 366.4,-255.6 375.72,-246.28"/>
<polygon fill="#63b8ff" stroke="#63b8ff" points="378.31,-248.64 382.91,-239.09 373.36,-243.69 378.31,-248.64"/>
</a>
</g>
</g>
<!-- Node27 -->
<g id="Node000027" class="node">
<title>Node27</title>
<g id="a_Node000027"><a xlink:href="hash_8hpp.html" target="_top" xlink:title=" ">
<polygon fill="white" stroke="#666666" points="832,-239 771,-239 771,-220 832,-220 832,-239"/>
<text text-anchor="middle" x="801.5" y="-227" font-family="Helvetica,sans-Serif" font-size="10.00">hash.hpp</text>
</a>
</g>
</g>
<!-- Node1&#45;&gt;Node27 -->
<g id="edge45_Node000001_Node000027" class="edge">
<title>Node1&#45;&gt;Node27</title>
<g id="a_edge45_Node000001_Node000027"><a xlink:title=" ">
<path fill="none" stroke="#63b8ff" d="M412.89,-274.98C511.64,-263.68 682.62,-244.11 760.6,-235.18"/>
<polygon fill="#63b8ff" stroke="#63b8ff" points="761.44,-238.61 770.97,-233.99 760.64,-231.65 761.44,-238.61"/>
</a>
</g>
</g>
<!-- Node5 -->
<g id="Node000005" class="node">
<title>Node5</title>
<g id="a_Node000005"><a xlink:title=" ">
<polygon fill="#e0e0e0" stroke="#999999" points="852.5,-184 802.5,-184 802.5,-165 852.5,-165 852.5,-184"/>
<text text-anchor="middle" x="827.5" y="-172" font-family="Helvetica,sans-Serif" font-size="10.00">atomic</text>
</a>
</g>
</g>
<!-- Node4&#45;&gt;Node5 -->
<g id="edge4_Node000004_Node000005" class="edge">
<title>Node4&#45;&gt;Node5</title>
<g id="a_edge4_Node000004_Node000005"><a xlink:title=" ">
<path fill="none" stroke="#63b8ff" d="M455.72,-223.35C534.46,-216.57 671.82,-203.2 788.5,-184 789.77,-183.79 791.06,-183.57 792.36,-183.33"/>
<polygon fill="#63b8ff" stroke="#63b8ff" points="793.26,-186.72 802.4,-181.37 791.91,-179.85 793.26,-186.72"/>
</a>
</g>
</g>
<!-- Node6 -->
<g id="Node000006" class="node">
<title>Node6</title>
<g id="a_Node000006"><a xlink:title=" ">
<polygon fill="#e0e0e0" stroke="#999999" points="47,-184 0,-184 0,-165 47,-165 47,-184"/>
<text text-anchor="middle" x="23.5" y="-172" font-family="Helvetica,sans-Serif" font-size="10.00">deque</text>
</a>
</g>
</g>
<!-- Node4&#45;&gt;Node6 -->
<g id="edge5_Node000004_Node000006" class="edge">
<title>Node4&#45;&gt;Node6</title>
<g id="a_edge5_Node000004_Node000006"><a xlink:title=" ">
<path fill="none" stroke="#63b8ff" d="M327.39,-221C249.22,-211.7 120.56,-195.81 57.15,-184.07"/>
<polygon fill="#63b8ff" stroke="#63b8ff" points="57.67,-180.61 47.19,-182.15 56.34,-187.48 57.67,-180.61"/>
</a>
</g>
</g>
<!-- Node7 -->
<g id="Node000007" class="node">
<title>Node7</title>
<g id="a_Node000007"><a xlink:title=" ">
<polygon fill="#e0e0e0" stroke="#999999" points="130,-184 65,-184 65,-165 130,-165 130,-184"/>
<text text-anchor="middle" x="97.5" y="-172" font-family="Helvetica,sans-Serif" font-size="10.00">functional</text>
</a>
</g>
</g>
<!-- Node4&#45;&gt;Node7 -->
<g id="edge6_Node000004_Node000007" class="edge">
<title>Node4&#45;&gt;Node7</title>
<g id="a_edge6_Node000004_Node000007"><a xlink:title=" ">
<path fill="none" stroke="#63b8ff" d="M344.15,-219.98C294.42,-211.03 213.96,-196.54 144.5,-184 143.05,-183.74 141.57,-183.47 140.07,-183.2"/>
<polygon fill="#63b8ff" stroke="#63b8ff" points="140.58,-179.74 130.12,-181.4 139.33,-186.62 140.58,-179.74"/>
</a>
</g>
</g>
<!-- Node8 -->
<g id="Node000008" class="node">
<title>Node8</title>
<g id="a_Node000008"><a xlink:title=" ">
<polygon fill="#e0e0e0" stroke="#999999" points="583.5,-19 539.5,-19 539.5,0 583.5,0 583.5,-19"/>
<text text-anchor="middle" x="561.5" y="-7" font-family="Helvetica,sans-Serif" font-size="10.00">string</text>
</a>
</g>
</g>
<!-- Node4&#45;&gt;Node8 -->
<g id="edge7_Node000004_Node000008" class="edge">
<title>Node4&#45;&gt;Node8</title>
<g id="a_edge7_Node000004_Node000008"><a xlink:title=" ">
<path fill="none" stroke="#63b8ff" d="M450.6,-219.98C539.38,-205.82 700.43,-174.46 734.5,-129 758.33,-97.2 711.67,-71.05 688.5,-55 659.67,-35.04 621,-23.19 593.93,-16.8"/>
<polygon fill="#63b8ff" stroke="#63b8ff" points="594.34,-13.3 583.81,-14.54 592.81,-20.13 594.34,-13.3"/>
</a>
</g>
</g>
<!-- Node9 -->
<g id="Node000009" class="node">
<title>Node9</title>
<g id="a_Node000009"><a xlink:title=" ">
<polygon fill="#e0e0e0" stroke="#999999" points="234.5,-184 186.5,-184 186.5,-165 234.5,-165 234.5,-184"/>
<text text-anchor="middle" x="210.5" y="-172" font-family="Helvetica,sans-Serif" font-size="10.00">thread</text>
</a>
</g>
</g>
<!-- Node4&#45;&gt;Node9 -->
<g id="edge8_Node000004_Node000009" class="edge">
<title>Node4&#45;&gt;Node9</title>
<g id="a_edge8_Node000004_Node000009"><a xlink:title=" ">
<path fill="none" stroke="#63b8ff" d="M362.42,-219.98C330.27,-210.57 278.54,-195.42 244.53,-185.46"/>
<polygon fill="#63b8ff" stroke="#63b8ff" points="245.17,-182 234.59,-182.55 243.2,-188.72 245.17,-182"/>
</a>
</g>
</g>
<!-- Node10 -->
<g id="Node000010" class="node">
<title>Node10</title>
<g id="a_Node000010"><a xlink:href="endpoint_8hpp.html" target="_top" xlink:title=" ">
<polygon fill="white" stroke="#666666" points="233.5,-74 105.5,-74 105.5,-55 233.5,-55 233.5,-74"/>
<text text-anchor="middle" x="169.5" y="-62" font-family="Helvetica,sans-Serif" font-size="10.00">../models/endpoint.hpp</text>
</a>
</g>
</g>
<!-- Node4&#45;&gt;Node10 -->
<g id="edge9_Node000004_Node000010" class="edge">
<title>Node4&#45;&gt;Node10</title>
<g id="a_edge9_Node000004_Node000010"><a xlink:title=" ">
<path fill="none" stroke="#63b8ff" d="M332.68,-219.98C272.93,-210.74 187.73,-195.75 177.5,-184 153.43,-156.37 158.92,-110 164.53,-84.22"/>
<polygon fill="#63b8ff" stroke="#63b8ff" points="167.99,-84.8 166.94,-74.26 161.19,-83.16 167.99,-84.8"/>
</a>
</g>
</g>
<!-- Node13 -->
<g id="Node000013" class="node">
<title>Node13</title>
<g id="a_Node000013"><a xlink:href="file_8hpp.html" target="_top" xlink:title=" ">
<polygon fill="white" stroke="#666666" points="402,-129 301,-129 301,-110 402,-110 402,-129"/>
<text text-anchor="middle" x="351.5" y="-117" font-family="Helvetica,sans-Serif" font-size="10.00">../models/file.hpp</text>
</a>
</g>
</g>
<!-- Node4&#45;&gt;Node13 -->
<g id="edge13_Node000004_Node000013" class="edge">
<title>Node4&#45;&gt;Node13</title>
<g id="a_edge13_Node000004_Node000013"><a xlink:title=" ">
<path fill="none" stroke="#63b8ff" d="M388.23,-219.66C381.69,-202.01 366.9,-162.09 358.22,-138.64"/>
<polygon fill="#63b8ff" stroke="#63b8ff" points="361.46,-137.32 354.71,-129.16 354.9,-139.75 361.46,-137.32"/>
</a>
</g>
</g>
<!-- Node17 -->
<g id="Node000017" class="node">
<title>Node17</title>
<g id="a_Node000017"><a xlink:href="fileinfo_8hpp.html" target="_top" xlink:title=" ">
<polygon fill="white" stroke="#666666" points="323,-74 252,-74 252,-55 323,-55 323,-74"/>
<text text-anchor="middle" x="287.5" y="-62" font-family="Helvetica,sans-Serif" font-size="10.00">fileinfo.hpp</text>
</a>
</g>
</g>
<!-- Node4&#45;&gt;Node17 -->
<g id="edge24_Node000004_Node000017" class="edge">
<title>Node4&#45;&gt;Node17</title>
<g id="a_edge24_Node000004_Node000017"><a xlink:title=" ">
<path fill="none" stroke="#63b8ff" d="M375.13,-219.87C349.3,-205.21 300.02,-172.72 280.5,-129 274.14,-114.76 276.88,-97 280.64,-83.89"/>
<polygon fill="#63b8ff" stroke="#63b8ff" points="284.05,-84.74 283.86,-74.15 277.4,-82.54 284.05,-84.74"/>
</a>
</g>
</g>
<!-- Node19 -->
<g id="Node000019" class="node">
<title>Node19</title>
<g id="a_Node000019"><a xlink:href="tcp__socket_8hpp.html" target="_top" xlink:title=" ">
<polygon fill="white" stroke="#666666" points="951,-129 810,-129 810,-110 951,-110 951,-129"/>
<text text-anchor="middle" x="880.5" y="-117" font-family="Helvetica,sans-Serif" font-size="10.00">../network/tcp_socket.hpp</text>
</a>
</g>
</g>
<!-- Node4&#45;&gt;Node19 -->
<g id="edge25_Node000004_Node000019" class="edge">
<title>Node4&#45;&gt;Node19</title>
<g id="a_edge25_Node000004_Node000019"><a xlink:title=" ">
<path fill="none" stroke="#63b8ff" d="M455.91,-226.35C577.36,-221.74 830.81,-209.19 861.5,-184 874.56,-173.29 878.89,-153.99 880.2,-139.47"/>
<polygon fill="#63b8ff" stroke="#63b8ff" points="883.72,-139.26 880.73,-129.1 876.73,-138.91 883.72,-139.26"/>
</a>
</g>
</g>
<!-- Node23 -->
<g id="Node000023" class="node">
<title>Node23</title>
<g id="a_Node000023"><a xlink:href="partfile_8hpp.html" target="_top" xlink:title=" ">
<polygon fill="white" stroke="#666666" points="708.5,-129 636.5,-129 636.5,-110 708.5,-110 708.5,-129"/>
<text text-anchor="middle" x="672.5" y="-117" font-family="Helvetica,sans-Serif" font-size="10.00">partfile.hpp</text>
</a>
</g>
</g>
<!-- Node4&#45;&gt;Node23 -->
<g id="edge32_Node000004_Node000023" class="edge">
<title>Node4&#45;&gt;Node23</title>
<g id="a_edge32_Node000004_Node000023"><a xlink:title=" ">
<path fill="none" stroke="#63b8ff" d="M414.02,-219.84C463.78,-200.72 583.21,-154.82 640.62,-132.75"/>
<polygon fill="#63b8ff" stroke="#63b8ff" points="642.18,-135.9 650.26,-129.05 639.67,-129.37 642.18,-135.9"/>
</a>
</g>
</g>
<!-- Node24 -->
<g id="Node000024" class="node">
<title>Node24</title>
<g id="a_Node000024"><a xlink:href="peerdb_8hpp.html" target="_top" xlink:title=" ">
<polygon fill="white" stroke="#666666" points="459,-184 388,-184 388,-165 459,-165 459,-184"/>
<text text-anchor="middle" x="423.5" y="-172" font-family="Helvetica,sans-Serif" font-size="10.00">peerdb.hpp</text>
</a>
</g>
</g>
<!-- Node4&#45;&gt;Node24 -->
<g id="edge37_Node000004_Node000024" class="edge">
<title>Node4&#45;&gt;Node24</title>
<g id="a_edge37_Node000004_Node000024"><a xlink:title=" ">
<path fill="none" stroke="#63b8ff" d="M396.78,-219.75C401.21,-212.42 407.66,-201.73 413.12,-192.7"/>
<polygon fill="#63b8ff" stroke="#63b8ff" points="416.14,-194.46 418.31,-184.09 410.15,-190.84 416.14,-194.46"/>
</a>
</g>
</g>
<!-- Node10&#45;&gt;Node8 -->
<g id="edge12_Node000010_Node000008" class="edge">
<title>Node10&#45;&gt;Node8</title>
<g id="a_edge12_Node000010_Node000008"><a xlink:title=" ">
<path fill="none" stroke="#63b8ff" d="M232.48,-54.98C317.15,-43.54 464.53,-23.61 529.35,-14.85"/>
<polygon fill="#63b8ff" stroke="#63b8ff" points="529.94,-18.3 539.38,-13.49 529,-11.36 529.94,-18.3"/>
</a>
</g>
</g>
<!-- Node11 -->
<g id="Node000011" class="node">
<title>Node11</title>
<g id="a_Node000011"><a xlink:title=" ">
<polygon fill="#e0e0e0" stroke="#999999" points="194.5,-19 144.5,-19 144.5,0 194.5,0 194.5,-19"/>
<text text-anchor="middle" x="169.5" y="-7" font-family="Helvetica,sans-Serif" font-size="10.00">cstdint</text>
</a>
</g>
</g>
<!-- Node10&#45;&gt;Node11 -->
<g id="edge10_Node000010_Node000011" class="edge">
<title>Node10&#45;&gt;Node11</title>
<g id="a_edge10_Node000010_Node000011"><a xlink:title=" ">
<path fill="none" stroke="#63b8ff" d="M169.5,-54.75C169.5,-47.8 169.5,-37.85 169.5,-29.13"/>
<polygon fill="#63b8ff" stroke="#63b8ff" points="173,-29.09 169.5,-19.09 166,-29.09 173,-29.09"/>
</a>
</g>
</g>
<!-- Node12 -->
<g id="Node000012" class="node">
<title>Node12</title>
<g id="a_Node000012"><a xlink:title=" ">
<polygon fill="#e0e0e0" stroke="#999999" points="285,-19 220,-19 220,0 285,0 285,-19"/>
<text text-anchor="middle" x="252.5" y="-7" font-family="Helvetica,sans-Serif" font-size="10.00">stdexcept</text>
</a>
</g>
</g>
<!-- Node10&#45;&gt;Node12 -->
<g id="edge11_Node000010_Node000012" class="edge">
<title>Node10&#45;&gt;Node12</title>
<g id="a_edge11_Node000010_Node000012"><a xlink:title=" ">
<path fill="none" stroke="#63b8ff" d="M182.84,-54.98C195.59,-46.84 215.05,-34.41 230.17,-24.76"/>
<polygon fill="#63b8ff" stroke="#63b8ff" points="232.38,-27.5 238.92,-19.17 228.61,-21.6 232.38,-27.5"/>
</a>
</g>
</g>
<!-- Node13&#45;&gt;Node8 -->
<g id="edge15_Node000013_Node000008" class="edge">
<title>Node13&#45;&gt;Node8</title>
<g id="a_edge15_Node000013_Node000008"><a xlink:title=" ">
<path fill="none" stroke="#63b8ff" d="M357.01,-109.7C366.07,-95.96 385.42,-69.51 408.5,-55 446.06,-31.39 496.6,-19.9 529.12,-14.61"/>
<polygon fill="#63b8ff" stroke="#63b8ff" points="530.06,-18 539.42,-13.04 529.01,-11.08 530.06,-18"/>
</a>
</g>
</g>
<!-- Node13&#45;&gt;Node10 -->
<g id="edge18_Node000013_Node000010" class="edge">
<title>Node13&#45;&gt;Node10</title>
<g id="a_edge18_Node000013_Node000010"><a xlink:title=" ">
<path fill="none" stroke="#63b8ff" d="M322.26,-109.98C291.44,-101.01 242.72,-86.82 208.61,-76.89"/>
<polygon fill="#63b8ff" stroke="#63b8ff" points="209.55,-73.52 198.97,-74.08 207.59,-80.24 209.55,-73.52"/>
</a>
</g>
</g>
<!-- Node14 -->
<g id="Node000014" class="node">
<title>Node14</title>
<g id="a_Node000014"><a xlink:title=" ">
<polygon fill="#e0e0e0" stroke="#999999" points="679.5,-74 621.5,-74 621.5,-55 679.5,-55 679.5,-74"/>
<text text-anchor="middle" x="650.5" y="-62" font-family="Helvetica,sans-Serif" font-size="10.00">memory</text>
</a>
</g>
</g>
<!-- Node13&#45;&gt;Node14 -->
<g id="edge14_Node000013_Node000014" class="edge">
<title>Node13&#45;&gt;Node14</title>
<g id="a_edge14_Node000013_Node000014"><a xlink:title=" ">
<path fill="none" stroke="#63b8ff" d="M399.54,-109.98C458.32,-99.57 556.71,-82.13 611.2,-72.47"/>
<polygon fill="#63b8ff" stroke="#63b8ff" points="611.92,-75.89 621.16,-70.7 610.7,-69 611.92,-75.89"/>
</a>
</g>
</g>
<!-- Node15 -->
<g id="Node000015" class="node">
<title>Node15</title>
<g id="a_Node000015"><a xlink:title=" ">
<polygon fill="#e0e0e0" stroke="#999999" points="366.5,-19 310.5,-19 310.5,0 366.5,0 366.5,-19"/>
<text text-anchor="middle" x="338.5" y="-7" font-family="Helvetica,sans-Serif" font-size="10.00">sstream</text>
</a>
</g>
</g>
<!-- Node13&#45;&gt;Node15 -->
<g id="edge16_Node000013_Node000015" class="edge">
<title>Node13&#45;&gt;Node15</title>
<g id="a_edge16_Node000013_Node000015"><a xlink:title=" ">
<path fill="none" stroke="#63b8ff" d="M350.44,-109.66C348.33,-92.17 343.59,-52.8 340.76,-29.27"/>
<polygon fill="#63b8ff" stroke="#63b8ff" points="344.21,-28.67 339.54,-19.16 337.26,-29.51 344.21,-28.67"/>
</a>
</g>
</g>
<!-- Node16 -->
<g id="Node000016" class="node">
<title>Node16</title>
<g id="a_Node000016"><a xlink:title=" ">
<polygon fill="#e0e0e0" stroke="#999999" points="503.5,-74 417.5,-74 417.5,-55 503.5,-55 503.5,-74"/>
<text text-anchor="middle" x="460.5" y="-62" font-family="Helvetica,sans-Serif" font-size="10.00">unordered_set</text>
</a>
</g>
</g>
<!-- Node13&#45;&gt;Node16 -->
<g id="edge17_Node000013_Node000016" class="edge">
<title>Node13&#45;&gt;Node16</title>
<g id="a_edge17_Node000013_Node000016"><a xlink:title=" ">
<path fill="none" stroke="#63b8ff" d="M369.01,-109.98C386.47,-101.5 413.51,-88.35 433.67,-78.54"/>
<polygon fill="#63b8ff" stroke="#63b8ff" points="435.21,-81.69 442.67,-74.17 432.14,-75.4 435.21,-81.69"/>
</a>
</g>
</g>
<!-- Node13&#45;&gt;Node17 -->
<g id="edge19_Node000013_Node000017" class="edge">
<title>Node13&#45;&gt;Node17</title>
<g id="a_edge19_Node000013_Node000017"><a xlink:title=" ">
<path fill="none" stroke="#63b8ff" d="M341.22,-109.98C331.66,-102.07 317.22,-90.11 305.72,-80.58"/>
<polygon fill="#63b8ff" stroke="#63b8ff" points="307.9,-77.85 297.97,-74.17 303.44,-83.24 307.9,-77.85"/>
</a>
</g>
</g>
<!-- Node17&#45;&gt;Node8 -->
<g id="edge22_Node000017_Node000008" class="edge">
<title>Node17&#45;&gt;Node8</title>
<g id="a_edge22_Node000017_Node000008"><a xlink:title=" ">
<path fill="none" stroke="#63b8ff" d="M323.04,-56.63C376.68,-46.25 477.55,-26.74 529.21,-16.75"/>
<polygon fill="#63b8ff" stroke="#63b8ff" points="530,-20.16 539.16,-14.82 528.67,-13.28 530,-20.16"/>
</a>
</g>
</g>
<!-- Node17&#45;&gt;Node12 -->
<g id="edge21_Node000017_Node000012" class="edge">
<title>Node17&#45;&gt;Node12</title>
<g id="a_edge21_Node000017_Node000012"><a xlink:title=" ">
<path fill="none" stroke="#63b8ff" d="M281.72,-54.75C276.88,-47.42 269.82,-36.73 263.86,-27.7"/>
<polygon fill="#63b8ff" stroke="#63b8ff" points="266.6,-25.5 258.17,-19.09 260.76,-29.36 266.6,-25.5"/>
</a>
</g>
</g>
<!-- Node17&#45;&gt;Node15 -->
<g id="edge20_Node000017_Node000015" class="edge">
<title>Node17&#45;&gt;Node15</title>
<g id="a_edge20_Node000017_Node000015"><a xlink:title=" ">
<path fill="none" stroke="#63b8ff" d="M295.92,-54.75C303.27,-47.11 314.13,-35.82 323.04,-26.56"/>
<polygon fill="#63b8ff" stroke="#63b8ff" points="325.82,-28.72 330.24,-19.09 320.78,-23.87 325.82,-28.72"/>
</a>
</g>
</g>
<!-- Node18 -->
<g id="Node000018" class="node">
<title>Node18</title>
<g id="a_Node000018"><a xlink:title=" ">
<polygon fill="#e0e0e0" stroke="#999999" points="862,-19 815,-19 815,0 862,0 862,-19"/>
<text text-anchor="middle" x="838.5" y="-7" font-family="Helvetica,sans-Serif" font-size="10.00">vector</text>
</a>
</g>
</g>
<!-- Node17&#45;&gt;Node18 -->
<g id="edge23_Node000017_Node000018" class="edge">
<title>Node17&#45;&gt;Node18</title>
<g id="a_edge23_Node000017_Node000018"><a xlink:title=" ">
<path fill="none" stroke="#63b8ff" d="M323.23,-60.06C423.56,-50.41 706.94,-23.15 804.78,-13.74"/>
<polygon fill="#63b8ff" stroke="#63b8ff" points="805.36,-17.2 814.98,-12.76 804.69,-10.24 805.36,-17.2"/>
</a>
</g>
</g>
<!-- Node19&#45;&gt;Node8 -->
<g id="edge28_Node000019_Node000008" class="edge">
<title>Node19&#45;&gt;Node8</title>
<g id="a_edge28_Node000019_Node000008"><a xlink:title=" ">
<path fill="none" stroke="#63b8ff" d="M857.26,-109.97C833.74,-101.25 796.4,-87.16 764.5,-74 745.18,-66.03 741.17,-62.04 721.5,-55 677.9,-39.4 626.03,-25.86 593.42,-17.93"/>
<polygon fill="#63b8ff" stroke="#63b8ff" points="594.09,-14.49 583.55,-15.56 592.46,-21.3 594.09,-14.49"/>
</a>
</g>
</g>
<!-- Node19&#45;&gt;Node14 -->
<g id="edge26_Node000019_Node000014" class="edge">
<title>Node19&#45;&gt;Node14</title>
<g id="a_edge26_Node000019_Node000014"><a xlink:title=" ">
<path fill="none" stroke="#63b8ff" d="M843.55,-109.98C801.34,-100.26 732.59,-84.42 689.53,-74.49"/>
<polygon fill="#63b8ff" stroke="#63b8ff" points="690.23,-71.06 679.7,-72.23 688.66,-77.89 690.23,-71.06"/>
</a>
</g>
</g>
<!-- Node19&#45;&gt;Node18 -->
<g id="edge31_Node000019_Node000018" class="edge">
<title>Node19&#45;&gt;Node18</title>
<g id="a_edge31_Node000019_Node000018"><a xlink:title=" ">
<path fill="none" stroke="#63b8ff" d="M951.1,-110.75C998.9,-102.57 1049.21,-86.32 1024.5,-55 1005.87,-31.38 920.42,-18.9 872.08,-13.63"/>
<polygon fill="#63b8ff" stroke="#63b8ff" points="872.39,-10.14 862.08,-12.58 871.66,-17.1 872.39,-10.14"/>
</a>
</g>
</g>
<!-- Node20 -->
<g id="Node000020" class="node">
<title>Node20</title>
<g id="a_Node000020"><a xlink:title=" ">
<polygon fill="#e0e0e0" stroke="#999999" points="845.5,-74 773.5,-74 773.5,-55 845.5,-55 845.5,-74"/>
<text text-anchor="middle" x="809.5" y="-62" font-family="Helvetica,sans-Serif" font-size="10.00">netinet/in.h</text>
</a>
</g>
</g>
<!-- Node19&#45;&gt;Node20 -->
<g id="edge27_Node000019_Node000020" class="edge">
<title>Node19&#45;&gt;Node20</title>
<g id="a_edge27_Node000019_Node000020"><a xlink:title=" ">
<path fill="none" stroke="#63b8ff" d="M869.09,-109.98C858.39,-102 842.16,-89.88 829.34,-80.31"/>
<polygon fill="#63b8ff" stroke="#63b8ff" points="831.22,-77.35 821.11,-74.17 827.03,-82.96 831.22,-77.35"/>
</a>
</g>
</g>
<!-- Node21 -->
<g id="Node000021" class="node">
<title>Node21</title>
<g id="a_Node000021"><a xlink:title=" ">
<polygon fill="#e0e0e0" stroke="#999999" points="941,-74 864,-74 864,-55 941,-55 941,-74"/>
<text text-anchor="middle" x="902.5" y="-62" font-family="Helvetica,sans-Serif" font-size="10.00">sys/socket.h</text>
</a>
</g>
</g>
<!-- Node19&#45;&gt;Node21 -->
<g id="edge29_Node000019_Node000021" class="edge">
<title>Node19&#45;&gt;Node21</title>
<g id="a_edge29_Node000019_Node000021"><a xlink:title=" ">
<path fill="none" stroke="#63b8ff" d="M884.13,-109.75C887.08,-102.65 891.33,-92.4 895.01,-83.56"/>
<polygon fill="#63b8ff" stroke="#63b8ff" points="898.33,-84.67 898.93,-74.09 891.87,-81.98 898.33,-84.67"/>
</a>
</g>
</g>
<!-- Node22 -->
<g id="Node000022" class="node">
<title>Node22</title>
<g id="a_Node000022"><a xlink:title=" ">
<polygon fill="#e0e0e0" stroke="#999999" points="1015.5,-74 959.5,-74 959.5,-55 1015.5,-55 1015.5,-74"/>
<text text-anchor="middle" x="987.5" y="-62" font-family="Helvetica,sans-Serif" font-size="10.00">unistd.h</text>
</a>
</g>
</g>
<!-- Node19&#45;&gt;Node22 -->
<g id="edge30_Node000019_Node000022" class="edge">
<title>Node19&#45;&gt;Node22</title>
<g id="a_edge30_Node000019_Node000022"><a xlink:title=" ">
<path fill="none" stroke="#63b8ff" d="M897.69,-109.98C914.75,-101.54 941.13,-88.47 960.9,-78.68"/>
<polygon fill="#63b8ff" stroke="#63b8ff" points="962.59,-81.75 970,-74.17 959.48,-75.47 962.59,-81.75"/>
</a>
</g>
</g>
<!-- Node23&#45;&gt;Node8 -->
<g id="edge34_Node000023_Node000008" class="edge">
<title>Node23&#45;&gt;Node8</title>
<g id="a_edge34_Node000023_Node000008"><a xlink:title=" ">
<path fill="none" stroke="#63b8ff" d="M658.86,-109.86C646.17,-101.48 627.08,-88.03 612.5,-74 597.6,-59.66 583.08,-40.98 573.37,-27.6"/>
<polygon fill="#63b8ff" stroke="#63b8ff" points="576.11,-25.42 567.47,-19.3 570.41,-29.48 576.11,-25.42"/>
</a>
</g>
</g>
<!-- Node23&#45;&gt;Node14 -->
<g id="edge33_Node000023_Node000014" class="edge">
<title>Node23&#45;&gt;Node14</title>
<g id="a_edge33_Node000023_Node000014"><a xlink:title=" ">
<path fill="none" stroke="#63b8ff" d="M668.87,-109.75C665.92,-102.65 661.67,-92.4 657.99,-83.56"/>
<polygon fill="#63b8ff" stroke="#63b8ff" points="661.13,-81.98 654.07,-74.09 654.67,-84.67 661.13,-81.98"/>
</a>
</g>
</g>
<!-- Node23&#45;&gt;Node16 -->
<g id="edge35_Node000023_Node000016" class="edge">
<title>Node23&#45;&gt;Node16</title>
<g id="a_edge35_Node000023_Node000016"><a xlink:title=" ">
<path fill="none" stroke="#63b8ff" d="M638.44,-109.98C602.08,-100.89 544.33,-86.46 504.53,-76.51"/>
<polygon fill="#63b8ff" stroke="#63b8ff" points="505.38,-73.11 494.83,-74.08 503.68,-79.9 505.38,-73.11"/>
</a>
</g>
</g>
<!-- Node23&#45;&gt;Node17 -->
<g id="edge36_Node000023_Node000017" class="edge">
<title>Node23&#45;&gt;Node17</title>
<g id="a_edge36_Node000023_Node000017"><a xlink:title=" ">
<path fill="none" stroke="#63b8ff" d="M636.37,-111.64C633.04,-111.06 629.71,-110.51 626.5,-110 521.87,-93.48 398.38,-78.37 333.17,-70.73"/>
<polygon fill="#63b8ff" stroke="#63b8ff" points="333.56,-67.25 323.22,-69.57 332.74,-74.2 333.56,-67.25"/>
</a>
</g>
</g>
<!-- Node24&#45;&gt;Node8 -->
<g id="edge40_Node000024_Node000008" class="edge">
<title>Node24&#45;&gt;Node8</title>
<g id="a_edge40_Node000024_Node000008"><a xlink:title=" ">
<path fill="none" stroke="#63b8ff" d="M425.18,-164.74C428.09,-151.52 435.2,-126.3 449.5,-110 470.77,-85.76 488.18,-95.18 512.5,-74 528.03,-60.48 541.97,-41.39 550.97,-27.68"/>
<polygon fill="#63b8ff" stroke="#63b8ff" points="553.96,-29.5 556.38,-19.18 548.06,-25.74 553.96,-29.5"/>
</a>
</g>
</g>
<!-- Node24&#45;&gt;Node10 -->
<g id="edge42_Node000024_Node000010" class="edge">
<title>Node24&#45;&gt;Node10</title>
<g id="a_edge42_Node000024_Node000010"><a xlink:title=" ">
<path fill="none" stroke="#63b8ff" d="M388.64,-164.94C359.21,-157.17 316.26,-144.57 280.5,-129 247.91,-114.81 212.66,-93.53 190.83,-79.58"/>
<polygon fill="#63b8ff" stroke="#63b8ff" points="192.64,-76.58 182.34,-74.09 188.84,-82.46 192.64,-76.58"/>
</a>
</g>
</g>
<!-- Node24&#45;&gt;Node13 -->
<g id="edge43_Node000024_Node000013" class="edge">
<title>Node24&#45;&gt;Node13</title>
<g id="a_edge43_Node000024_Node000013"><a xlink:title=" ">
<path fill="none" stroke="#63b8ff" d="M411.93,-164.98C401.08,-157 384.62,-144.88 371.62,-135.31"/>
<polygon fill="#63b8ff" stroke="#63b8ff" points="373.41,-132.28 363.28,-129.17 369.26,-137.92 373.41,-132.28"/>
</a>
</g>
</g>
<!-- Node24&#45;&gt;Node14 -->
<g id="edge38_Node000024_Node000014" class="edge">
<title>Node24&#45;&gt;Node14</title>
<g id="a_edge38_Node000024_Node000014"><a xlink:title=" ">
<path fill="none" stroke="#63b8ff" d="M459.21,-173.63C530.09,-173.05 684.55,-167.31 717.5,-129 733.72,-110.15 705.66,-90.82 681.04,-78.52"/>
<polygon fill="#63b8ff" stroke="#63b8ff" points="682.4,-75.29 671.87,-74.16 679.4,-81.61 682.4,-75.29"/>
</a>
</g>
</g>
<!-- Node24&#45;&gt;Node17 -->
<g id="edge44_Node000024_Node000017" class="edge">
<title>Node24&#45;&gt;Node17</title>
<g id="a_edge44_Node000024_Node000017"><a xlink:title=" ">
<path fill="none" stroke="#63b8ff" d="M387.83,-171.98C357.05,-168.59 314.09,-158.46 291.5,-129 281.94,-116.54 281.77,-98.33 283.5,-84.6"/>
<polygon fill="#63b8ff" stroke="#63b8ff" points="287.02,-84.8 285.24,-74.35 280.12,-83.62 287.02,-84.8"/>
</a>
</g>
</g>
<!-- Node25 -->
<g id="Node000025" class="node">
<title>Node25</title>
<g id="a_Node000025"><a xlink:title=" ">
<polygon fill="#e0e0e0" stroke="#999999" points="506.5,-129 458.5,-129 458.5,-110 506.5,-110 506.5,-129"/>
<text text-anchor="middle" x="482.5" y="-117" font-family="Helvetica,sans-Serif" font-size="10.00">mutex</text>
</a>
</g>
</g>
<!-- Node24&#45;&gt;Node25 -->
<g id="edge39_Node000024_Node000025" class="edge">
<title>Node24&#45;&gt;Node25</title>
<g id="a_edge39_Node000024_Node000025"><a xlink:title=" ">
<path fill="none" stroke="#63b8ff" d="M432.98,-164.98C441.7,-157.15 454.84,-145.34 465.4,-135.86"/>
<polygon fill="#63b8ff" stroke="#63b8ff" points="467.75,-138.46 472.85,-129.17 463.07,-133.25 467.75,-138.46"/>
</a>
</g>
</g>
<!-- Node26 -->
<g id="Node000026" class="node">
<title>Node26</title>
<g id="a_Node000026"><a xlink:title=" ">
<polygon fill="#e0e0e0" stroke="#999999" points="618,-129 525,-129 525,-110 618,-110 618,-129"/>
<text text-anchor="middle" x="571.5" y="-117" font-family="Helvetica,sans-Serif" font-size="10.00">unordered_map</text>
</a>
</g>
</g>
<!-- Node24&#45;&gt;Node26 -->
<g id="edge41_Node000024_Node000026" class="edge">
<title>Node24&#45;&gt;Node26</title>
<g id="a_edge41_Node000024_Node000026"><a xlink:title=" ">
<path fill="none" stroke="#63b8ff" d="M447.28,-164.98C471.73,-156.23 510.03,-142.51 537.65,-132.62"/>
<polygon fill="#63b8ff" stroke="#63b8ff" points="539.05,-135.84 547.29,-129.17 536.69,-129.25 539.05,-135.84"/>
</a>
</g>
</g>
<!-- Node27&#45;&gt;Node8 -->
<g id="edge46_Node000027_Node000008" class="edge">
<title>Node27&#45;&gt;Node8</title>
<g id="a_edge46_Node000027_Node000008"><a xlink:title=" ">
<path fill="none" stroke="#63b8ff" d="M830.93,-219.96C905.74,-196.88 1092.61,-129.97 1024.5,-55 995.59,-23.17 694.29,-13.5 593.87,-11.15"/>
<polygon fill="#63b8ff" stroke="#63b8ff" points="593.79,-7.65 583.71,-10.92 593.63,-14.65 593.79,-7.65"/>
</a>
</g>
</g>
</g>
</svg>
