<?xml version="1.0" encoding="UTF-8" standalone="no"?>
<!DOCTYPE svg PUBLIC "-//W3C//DTD SVG 1.1//EN"
 "http://www.w3.org/Graphics/SVG/1.1/DTD/svg11.dtd">
<!-- Generated by graphviz version 2.43.0 (0)
 -->
<!-- Title: src/models/endpoint.hpp Pages: 1 -->
<svg width="970pt" height="225pt"
 viewBox="0.00 0.00 970.00 225.00" xmlns="http://www.w3.org/2000/svg" xmlns:xlink="http://www.w3.org/1999/xlink">
<g id="graph0" class="graph" transform="scale(1 1) rotate(0) translate(4 221)">
<title>src/models/endpoint.hpp</title>
<!-- Node1 -->
<g id="Node000001" class="node">
<title>Node1</title>
<g id="a_Node000001"><a xlink:title=" ">
<polygon fill="#999999" stroke="#666666" points="389,-217 252,-217 252,-198 389,-198 389,-217"/>
<text text-anchor="middle" x="320.5" y="-205" font-family="Helvetica,sans-Serif" font-size="10.00">src/models/endpoint.hpp</text>
</a>
</g>
</g>
<!-- Node2 -->
<g id="Node000002" class="node">
<title>Node2</title>
<g id="a_Node000002"><a xlink:href="client_8cpp.html" target="_top" xlink:title="The entrypoint to the client.">
<polygon fill="white" stroke="#666666" points="230,-90.5 119,-90.5 119,-71.5 230,-71.5 230,-90.5"/>
<text text-anchor="middle" x="174.5" y="-78.5" font-family="Helvetica,sans-Serif" font-size="10.00">src/client/client.cpp</text>
</a>
</g>
</g>
<!-- Node1&#45;&gt;Node2 -->
<g id="edge1_Node000001_Node000002" class="edge">
<title>Node1&#45;&gt;Node2</title>
<g id="a_edge1_Node000001_Node000002"><a xlink:title=" ">
<path fill="none" stroke="#63b8ff" d="M241.99,-200.9C216.33,-194.89 190.37,-183.43 174.5,-162 158.71,-140.68 166.48,-106.64 171.45,-90.73"/>
<polygon fill="#63b8ff" stroke="#63b8ff" points="241.28,-204.33 251.79,-202.95 242.72,-197.48 241.28,-204.33"/>
</a>
</g>
</g>
<!-- Node3 -->
<g id="Node000003" class="node">
<title>Node3</title>
<g id="a_Node000003"><a xlink:href="process__input_8hpp.html" target="_top" xlink:title=" ">
<polygon fill="white" stroke="#666666" points="127,-162 26,-162 26,-132 127,-132 127,-162"/>
<text text-anchor="start" x="34" y="-150" font-family="Helvetica,sans-Serif" font-size="10.00">src/client/process</text>
<text text-anchor="middle" x="76.5" y="-139" font-family="Helvetica,sans-Serif" font-size="10.00">_input.hpp</text>
</a>
</g>
</g>
<!-- Node1&#45;&gt;Node3 -->
<g id="edge2_Node000001_Node000003" class="edge">
<title>Node1&#45;&gt;Node3</title>
<g id="a_edge2_Node000001_Node000003"><a xlink:title=" ">
<path fill="none" stroke="#63b8ff" d="M275.08,-195.61C233.13,-185.55 170.9,-170.63 127.31,-160.18"/>
<polygon fill="#63b8ff" stroke="#63b8ff" points="274.48,-199.07 285.02,-197.99 276.11,-192.26 274.48,-199.07"/>
</a>
</g>
</g>
<!-- Node5 -->
<g id="Node000005" class="node">
<title>Node5</title>
<g id="a_Node000005"><a xlink:href="generate__id_8cpp.html" target="_top" xlink:title=" ">
<polygon fill="white" stroke="#666666" points="307,-162 184,-162 184,-132 307,-132 307,-162"/>
<text text-anchor="start" x="192" y="-150" font-family="Helvetica,sans-Serif" font-size="10.00">src/common/generate</text>
<text text-anchor="middle" x="245.5" y="-139" font-family="Helvetica,sans-Serif" font-size="10.00">_id.cpp</text>
</a>
</g>
</g>
<!-- Node1&#45;&gt;Node5 -->
<g id="edge5_Node000001_Node000005" class="edge">
<title>Node1&#45;&gt;Node5</title>
<g id="a_edge5_Node000001_Node000005"><a xlink:title=" ">
<path fill="none" stroke="#63b8ff" d="M301.27,-191.5C289.67,-182.45 274.99,-171 263.6,-162.11"/>
<polygon fill="#63b8ff" stroke="#63b8ff" points="299.4,-194.48 309.43,-197.87 303.7,-188.96 299.4,-194.48"/>
</a>
</g>
</g>
<!-- Node7 -->
<g id="Node000007" class="node">
<title>Node7</title>
<g id="a_Node000007"><a xlink:href="load__tracker__info_8cpp.html" target="_top" xlink:title=" ">
<polygon fill="white" stroke="#666666" points="465.5,-162 325.5,-162 325.5,-132 465.5,-132 465.5,-162"/>
<text text-anchor="start" x="333.5" y="-150" font-family="Helvetica,sans-Serif" font-size="10.00">src/common/load_tracker</text>
<text text-anchor="middle" x="395.5" y="-139" font-family="Helvetica,sans-Serif" font-size="10.00">_info.cpp</text>
</a>
</g>
</g>
<!-- Node1&#45;&gt;Node7 -->
<g id="edge8_Node000001_Node000007" class="edge">
<title>Node1&#45;&gt;Node7</title>
<g id="a_edge8_Node000001_Node000007"><a xlink:title=" ">
<path fill="none" stroke="#63b8ff" d="M339.73,-191.5C351.33,-182.45 366.01,-171 377.4,-162.11"/>
<polygon fill="#63b8ff" stroke="#63b8ff" points="337.3,-188.96 331.57,-197.87 341.6,-194.48 337.3,-188.96"/>
</a>
</g>
</g>
<!-- Node8 -->
<g id="Node000008" class="node">
<title>Node8</title>
<g id="a_Node000008"><a xlink:href="group_8hpp.html" target="_top" xlink:title=" ">
<polygon fill="white" stroke="#666666" points="865.5,-156.5 743.5,-156.5 743.5,-137.5 865.5,-137.5 865.5,-156.5"/>
<text text-anchor="middle" x="804.5" y="-144.5" font-family="Helvetica,sans-Serif" font-size="10.00">src/models/group.hpp</text>
</a>
</g>
</g>
<!-- Node1&#45;&gt;Node8 -->
<g id="edge11_Node000001_Node000008" class="edge">
<title>Node1&#45;&gt;Node8</title>
<g id="a_edge11_Node000001_Node000008"><a xlink:title=" ">
<path fill="none" stroke="#63b8ff" d="M399.04,-197.01C495.22,-185.38 656.08,-165.94 743.48,-155.38"/>
<polygon fill="#63b8ff" stroke="#63b8ff" points="398.58,-193.54 389.07,-198.21 399.42,-200.49 398.58,-193.54"/>
</a>
</g>
</g>
<!-- Node12 -->
<g id="Node000012" class="node">
<title>Node12</title>
<g id="a_Node000012"><a xlink:href="transaction_8hpp.html" target="_top" xlink:title=" ">
<polygon fill="white" stroke="#666666" points="633,-156.5 484,-156.5 484,-137.5 633,-137.5 633,-156.5"/>
<text text-anchor="middle" x="558.5" y="-144.5" font-family="Helvetica,sans-Serif" font-size="10.00">src/models/transaction.hpp</text>
</a>
</g>
</g>
<!-- Node1&#45;&gt;Node12 -->
<g id="edge15_Node000001_Node000012" class="edge">
<title>Node1&#45;&gt;Node12</title>
<g id="a_edge15_Node000001_Node000012"><a xlink:title=" ">
<path fill="none" stroke="#63b8ff" d="M365.1,-195.54C411.1,-184.23 481.88,-166.83 523.85,-156.52"/>
<polygon fill="#63b8ff" stroke="#63b8ff" points="363.98,-192.21 355.11,-197.99 365.65,-199.01 363.98,-192.21"/>
</a>
</g>
</g>
<!-- Node3&#45;&gt;Node2 -->
<g id="edge3_Node000003_Node000002" class="edge">
<title>Node3&#45;&gt;Node2</title>
<g id="a_edge3_Node000003_Node000002"><a xlink:title=" ">
<path fill="none" stroke="#63b8ff" d="M106.82,-126.2C125.06,-114.29 147.35,-99.73 161.24,-90.66"/>
<polygon fill="#63b8ff" stroke="#63b8ff" points="104.71,-123.4 98.25,-131.8 108.54,-129.26 104.71,-123.4"/>
</a>
</g>
</g>
<!-- Node4 -->
<g id="Node000004" class="node">
<title>Node4</title>
<g id="a_Node000004"><a xlink:href="process__input_8cpp.html" target="_top" xlink:title=" ">
<polygon fill="white" stroke="#666666" points="101,-96 0,-96 0,-66 101,-66 101,-96"/>
<text text-anchor="start" x="8" y="-84" font-family="Helvetica,sans-Serif" font-size="10.00">src/client/process</text>
<text text-anchor="middle" x="50.5" y="-73" font-family="Helvetica,sans-Serif" font-size="10.00">_input.cpp</text>
</a>
</g>
</g>
<!-- Node3&#45;&gt;Node4 -->
<g id="edge4_Node000003_Node000004" class="edge">
<title>Node3&#45;&gt;Node4</title>
<g id="a_edge4_Node000003_Node000004"><a xlink:title=" ">
<path fill="none" stroke="#63b8ff" d="M66.91,-122.39C63.33,-113.59 59.38,-103.86 56.25,-96.16"/>
<polygon fill="#63b8ff" stroke="#63b8ff" points="63.72,-123.85 70.73,-131.8 70.21,-121.21 63.72,-123.85"/>
</a>
</g>
</g>
<!-- Node5&#45;&gt;Node2 -->
<g id="edge6_Node000005_Node000002" class="edge">
<title>Node5&#45;&gt;Node2</title>
<g id="a_edge6_Node000005_Node000002"><a xlink:title=" ">
<path fill="none" stroke="#63b8ff" d="M222.13,-124.93C209.28,-113.35 194.03,-99.61 184.31,-90.84"/>
<polygon fill="#63b8ff" stroke="#63b8ff" points="219.97,-127.7 229.74,-131.8 224.66,-122.5 219.97,-127.7"/>
</a>
</g>
</g>
<!-- Node6 -->
<g id="Node000006" class="node">
<title>Node6</title>
<g id="a_Node000006"><a xlink:href="tracker_8cpp.html" target="_top" xlink:title="The tracker.">
<polygon fill="white" stroke="#666666" points="472.5,-24.5 348.5,-24.5 348.5,-5.5 472.5,-5.5 472.5,-24.5"/>
<text text-anchor="middle" x="410.5" y="-12.5" font-family="Helvetica,sans-Serif" font-size="10.00">src/tracker/tracker.cpp</text>
</a>
</g>
</g>
<!-- Node5&#45;&gt;Node6 -->
<g id="edge7_Node000005_Node000006" class="edge">
<title>Node5&#45;&gt;Node6</title>
<g id="a_edge7_Node000005_Node000006"><a xlink:title=" ">
<path fill="none" stroke="#63b8ff" d="M258.86,-122.99C269.88,-105.58 286.85,-82.01 306.5,-66 330.11,-46.76 362.34,-32.74 384.64,-24.53"/>
<polygon fill="#63b8ff" stroke="#63b8ff" points="255.61,-121.59 253.37,-131.94 261.58,-125.25 255.61,-121.59"/>
</a>
</g>
</g>
<!-- Node7&#45;&gt;Node2 -->
<g id="edge9_Node000007_Node000002" class="edge">
<title>Node7&#45;&gt;Node2</title>
<g id="a_edge9_Node000007_Node000002"><a xlink:title=" ">
<path fill="none" stroke="#63b8ff" d="M337.24,-129.13C294.35,-116.71 237.81,-100.33 203.91,-90.52"/>
<polygon fill="#63b8ff" stroke="#63b8ff" points="336.42,-132.54 347,-131.95 338.37,-125.81 336.42,-132.54"/>
</a>
</g>
</g>
<!-- Node7&#45;&gt;Node6 -->
<g id="edge10_Node000007_Node000006" class="edge">
<title>Node7&#45;&gt;Node6</title>
<g id="a_edge10_Node000007_Node000006"><a xlink:title=" ">
<path fill="none" stroke="#63b8ff" d="M348.33,-127.11C335.36,-119.48 322.85,-109.27 315.5,-96 309.04,-84.34 308.61,-77.41 315.5,-66 328.5,-44.46 354.21,-31.73 375.61,-24.51"/>
<polygon fill="#63b8ff" stroke="#63b8ff" points="346.86,-130.3 357.32,-131.99 350.2,-124.15 346.86,-130.3"/>
</a>
</g>
</g>
<!-- Node9 -->
<g id="Node000009" class="node">
<title>Node9</title>
<g id="a_Node000009"><a xlink:href="groupdb_8hpp.html" target="_top" xlink:title=" ">
<polygon fill="white" stroke="#666666" points="962,-90.5 831,-90.5 831,-71.5 962,-71.5 962,-90.5"/>
<text text-anchor="middle" x="896.5" y="-78.5" font-family="Helvetica,sans-Serif" font-size="10.00">src/tracker/groupdb.hpp</text>
</a>
</g>
</g>
<!-- Node8&#45;&gt;Node9 -->
<g id="edge12_Node000008_Node000009" class="edge">
<title>Node8&#45;&gt;Node9</title>
<g id="a_edge12_Node000008_Node000009"><a xlink:title=" ">
<path fill="none" stroke="#63b8ff" d="M825.58,-131.33C843.63,-118.78 869,-101.13 884,-90.7"/>
<polygon fill="#63b8ff" stroke="#63b8ff" points="823.12,-128.78 816.91,-137.37 827.12,-134.53 823.12,-128.78"/>
</a>
</g>
</g>
<!-- Node10 -->
<g id="Node000010" class="node">
<title>Node10</title>
<g id="a_Node000010"><a xlink:href="groupdb_8cpp.html" target="_top" xlink:title=" ">
<polygon fill="white" stroke="#666666" points="962,-24.5 831,-24.5 831,-5.5 962,-5.5 962,-24.5"/>
<text text-anchor="middle" x="896.5" y="-12.5" font-family="Helvetica,sans-Serif" font-size="10.00">src/tracker/groupdb.cpp</text>
</a>
</g>
</g>
<!-- Node9&#45;&gt;Node10 -->
<g id="edge13_Node000009_Node000010" class="edge">
<title>Node9&#45;&gt;Node10</title>
<g id="a_edge13_Node000009_Node000010"><a xlink:title=" ">
<path fill="none" stroke="#63b8ff" d="M896.5,-61.08C896.5,-49.13 896.5,-34.22 896.5,-24.91"/>
<polygon fill="#63b8ff" stroke="#63b8ff" points="893,-61.37 896.5,-71.37 900,-61.37 893,-61.37"/>
</a>
</g>
</g>
<!-- Node11 -->
<g id="Node000011" class="node">
<title>Node11</title>
<g id="a_Node000011"><a xlink:href="process__request_8cpp.html" target="_top" xlink:title=" ">
<polygon fill="white" stroke="#666666" points="803.5,-30 695.5,-30 695.5,0 803.5,0 803.5,-30"/>
<text text-anchor="start" x="703.5" y="-18" font-family="Helvetica,sans-Serif" font-size="10.00">src/tracker/process</text>
<text text-anchor="middle" x="749.5" y="-7" font-family="Helvetica,sans-Serif" font-size="10.00">_request.cpp</text>
</a>
</g>
</g>
<!-- Node9&#45;&gt;Node11 -->
<g id="edge14_Node000009_Node000011" class="edge">
<title>Node9&#45;&gt;Node11</title>
<g id="a_edge14_Node000009_Node000011"><a xlink:title=" ">
<path fill="none" stroke="#63b8ff" d="M867.47,-67.36C842.83,-56.63 807.49,-41.25 781.92,-30.12"/>
<polygon fill="#63b8ff" stroke="#63b8ff" points="866.11,-70.59 876.67,-71.37 868.9,-64.17 866.11,-70.59"/>
</a>
</g>
</g>
<!-- Node13 -->
<g id="Node000013" class="node">
<title>Node13</title>
<g id="a_Node000013"><a xlink:href="parse__request_8hpp.html" target="_top" xlink:title=" ">
<polygon fill="white" stroke="#666666" points="486,-90.5 325,-90.5 325,-71.5 486,-71.5 486,-90.5"/>
<text text-anchor="middle" x="405.5" y="-78.5" font-family="Helvetica,sans-Serif" font-size="10.00">src/tracker/parse_request.hpp</text>
</a>
</g>
</g>
<!-- Node12&#45;&gt;Node13 -->
<g id="edge16_Node000012_Node000013" class="edge">
<title>Node12&#45;&gt;Node13</title>
<g id="a_edge16_Node000012_Node000013"><a xlink:title=" ">
<path fill="none" stroke="#63b8ff" d="M528.28,-133.36C498.13,-120.75 452.61,-101.71 426.3,-90.7"/>
<polygon fill="#63b8ff" stroke="#63b8ff" points="527.29,-136.74 537.87,-137.37 529.99,-130.28 527.29,-136.74"/>
</a>
</g>
</g>
<!-- Node15 -->
<g id="Node000015" class="node">
<title>Node15</title>
<g id="a_Node000015"><a xlink:href="process__request_8hpp.html" target="_top" xlink:title=" ">
<polygon fill="white" stroke="#666666" points="612.5,-96 504.5,-96 504.5,-66 612.5,-66 612.5,-96"/>
<text text-anchor="start" x="512.5" y="-84" font-family="Helvetica,sans-Serif" font-size="10.00">src/tracker/process</text>
<text text-anchor="middle" x="558.5" y="-73" font-family="Helvetica,sans-Serif" font-size="10.00">_request.hpp</text>
</a>
</g>
</g>
<!-- Node12&#45;&gt;Node15 -->
<g id="edge19_Node000012_Node000015" class="edge">
<title>Node12&#45;&gt;Node15</title>
<g id="a_edge19_Node000012_Node000015"><a xlink:title=" ">
<path fill="none" stroke="#63b8ff" d="M558.5,-127.35C558.5,-117.47 558.5,-105.51 558.5,-96.36"/>
<polygon fill="#63b8ff" stroke="#63b8ff" points="555,-127.37 558.5,-137.37 562,-127.37 555,-127.37"/>
</a>
</g>
</g>
<!-- Node16 -->
<g id="Node000016" class="node">
<title>Node16</title>
<g id="a_Node000016"><a xlink:href="transactionsrecord_8hpp.html" target="_top" xlink:title=" ">
<polygon fill="white" stroke="#666666" points="812.5,-90.5 630.5,-90.5 630.5,-71.5 812.5,-71.5 812.5,-90.5"/>
<text text-anchor="middle" x="721.5" y="-78.5" font-family="Helvetica,sans-Serif" font-size="10.00">src/tracker/transactionsrecord.hpp</text>
</a>
</g>
</g>
<!-- Node12&#45;&gt;Node16 -->
<g id="edge22_Node000012_Node000016" class="edge">
<title>Node12&#45;&gt;Node16</title>
<g id="a_edge22_Node000012_Node000016"><a xlink:title=" ">
<path fill="none" stroke="#63b8ff" d="M589.89,-133.68C622.1,-121.03 671.38,-101.68 699.61,-90.6"/>
<polygon fill="#63b8ff" stroke="#63b8ff" points="588.51,-130.46 580.48,-137.37 591.07,-136.97 588.51,-130.46"/>
</a>
</g>
</g>
<!-- Node13&#45;&gt;Node6 -->
<g id="edge18_Node000013_Node000006" class="edge">
<title>Node13&#45;&gt;Node6</title>
<g id="a_edge18_Node000013_Node000006"><a xlink:title=" ">
<path fill="none" stroke="#63b8ff" d="M406.98,-61.08C407.91,-49.13 409.08,-34.22 409.8,-24.91"/>
<polygon fill="#63b8ff" stroke="#63b8ff" points="403.46,-61.13 406.17,-71.37 410.44,-61.67 403.46,-61.13"/>
</a>
</g>
</g>
<!-- Node14 -->
<g id="Node000014" class="node">
<title>Node14</title>
<g id="a_Node000014"><a xlink:href="parse__request_8cpp.html" target="_top" xlink:title=" ">
<polygon fill="white" stroke="#666666" points="330.5,-24.5 170.5,-24.5 170.5,-5.5 330.5,-5.5 330.5,-24.5"/>
<text text-anchor="middle" x="250.5" y="-12.5" font-family="Helvetica,sans-Serif" font-size="10.00">src/tracker/parse_request.cpp</text>
</a>
</g>
</g>
<!-- Node13&#45;&gt;Node14 -->
<g id="edge17_Node000013_Node000014" class="edge">
<title>Node13&#45;&gt;Node14</title>
<g id="a_edge17_Node000013_Node000014"><a xlink:title=" ">
<path fill="none" stroke="#63b8ff" d="M375.28,-67.52C344.74,-54.91 298.34,-35.75 271.57,-24.7"/>
<polygon fill="#63b8ff" stroke="#63b8ff" points="374.02,-70.79 384.6,-71.37 376.69,-64.32 374.02,-70.79"/>
</a>
</g>
</g>
<!-- Node15&#45;&gt;Node6 -->
<g id="edge21_Node000015_Node000006" class="edge">
<title>Node15&#45;&gt;Node6</title>
<g id="a_edge21_Node000015_Node000006"><a xlink:title=" ">
<path fill="none" stroke="#63b8ff" d="M516.74,-61.94C488.38,-49.68 452.18,-34.02 430.2,-24.52"/>
<polygon fill="#63b8ff" stroke="#63b8ff" points="515.45,-65.2 526.02,-65.95 518.23,-58.77 515.45,-65.2"/>
</a>
</g>
</g>
<!-- Node15&#45;&gt;Node11 -->
<g id="edge20_Node000015_Node000011" class="edge">
<title>Node15&#45;&gt;Node11</title>
<g id="a_edge20_Node000015_Node000011"><a xlink:title=" ">
<path fill="none" stroke="#63b8ff" d="M610.06,-62.72C640.66,-52.47 678.97,-39.63 707.68,-30.01"/>
<polygon fill="#63b8ff" stroke="#63b8ff" points="608.79,-59.46 600.42,-65.95 611.01,-66.1 608.79,-59.46"/>
</a>
</g>
</g>
<!-- Node16&#45;&gt;Node6 -->
<g id="edge24_Node000016_Node000006" class="edge">
<title>Node16&#45;&gt;Node6</title>
<g id="a_edge24_Node000016_Node000006"><a xlink:title=" ">
<path fill="none" stroke="#63b8ff" d="M670.06,-69.41C608.94,-56.84 508.19,-36.1 451.87,-24.51"/>
<polygon fill="#63b8ff" stroke="#63b8ff" points="669.38,-72.85 679.88,-71.44 670.79,-65.99 669.38,-72.85"/>
</a>
</g>
</g>
<!-- Node16&#45;&gt;Node11 -->
<g id="edge23_Node000016_Node000011" class="edge">
<title>Node16&#45;&gt;Node11</title>
<g id="a_edge23_Node000016_Node000011"><a xlink:title=" ">
<path fill="none" stroke="#63b8ff" d="M729.38,-61.98C733.76,-51.98 739.13,-39.71 743.22,-30.36"/>
<polygon fill="#63b8ff" stroke="#63b8ff" points="726.08,-60.8 725.28,-71.37 732.49,-63.61 726.08,-60.8"/>
</a>
</g>
</g>
<!-- Node17 -->
<g id="Node000017" class="node">
<title>Node17</title>
<g id="a_Node000017"><a xlink:href="transactionsrecord_8cpp.html" target="_top" xlink:title=" ">
<polygon fill="white" stroke="#666666" points="677.5,-24.5 495.5,-24.5 495.5,-5.5 677.5,-5.5 677.5,-24.5"/>
<text text-anchor="middle" x="586.5" y="-12.5" font-family="Helvetica,sans-Serif" font-size="10.00">src/tracker/transactionsrecord.cpp</text>
</a>
</g>
</g>
<!-- Node16&#45;&gt;Node17 -->
<g id="edge25_Node000016_Node000017" class="edge">
<title>Node16&#45;&gt;Node17</title>
<g id="a_edge25_Node000016_Node000017"><a xlink:title=" ">
<path fill="none" stroke="#63b8ff" d="M694.14,-67.03C667.53,-54.42 627.87,-35.61 604.85,-24.7"/>
<polygon fill="#63b8ff" stroke="#63b8ff" points="692.76,-70.25 703.29,-71.37 695.76,-63.92 692.76,-70.25"/>
</a>
</g>
</g>
</g>
</svg>
