<?xml version="1.0" encoding="UTF-8" standalone="no"?>
<!DOCTYPE svg PUBLIC "-//W3C//DTD SVG 1.1//EN"
 "http://www.w3.org/Graphics/SVG/1.1/DTD/svg11.dtd">
<!-- Generated by graphviz version 2.43.0 (0)
 -->
<!-- Title: src/models/endpoint.hpp Pages: 1 -->
<svg width="970pt" height="280pt"
 viewBox="0.00 0.00 970.00 280.00" xmlns="http://www.w3.org/2000/svg" xmlns:xlink="http://www.w3.org/1999/xlink">
<g id="graph0" class="graph" transform="scale(1 1) rotate(0) translate(4 276)">
<title>src/models/endpoint.hpp</title>
<!-- Node1 -->
<g id="Node000001" class="node">
<title>Node1</title>
<g id="a_Node000001"><a xlink:title=" ">
<polygon fill="#999999" stroke="#666666" points="470,-272 333,-272 333,-253 470,-253 470,-272"/>
<text text-anchor="middle" x="401.5" y="-260" font-family="Helvetica,sans-Serif" font-size="10.00">src/models/endpoint.hpp</text>
</a>
</g>
</g>
<!-- Node2 -->
<g id="Node000002" class="node">
<title>Node2</title>
<g id="a_Node000002"><a xlink:href="client_8cpp.html" target="_top" xlink:title="The entrypoint to the client.">
<polygon fill="white" stroke="#666666" points="230,-145.5 119,-145.5 119,-126.5 230,-126.5 230,-145.5"/>
<text text-anchor="middle" x="174.5" y="-133.5" font-family="Helvetica,sans-Serif" font-size="10.00">src/client/client.cpp</text>
</a>
</g>
</g>
<!-- Node1&#45;&gt;Node2 -->
<g id="edge1_Node000001_Node000002" class="edge">
<title>Node1&#45;&gt;Node2</title>
<g id="a_edge1_Node000001_Node000002"><a xlink:title=" ">
<path fill="none" stroke="#63b8ff" d="M322.64,-255.56C267,-249.6 199.19,-238.16 180.5,-217 162.8,-196.96 168.27,-161.98 172.12,-145.74"/>
<polygon fill="#63b8ff" stroke="#63b8ff" points="322.56,-259.07 332.87,-256.61 323.28,-252.11 322.56,-259.07"/>
</a>
</g>
</g>
<!-- Node3 -->
<g id="Node000003" class="node">
<title>Node3</title>
<g id="a_Node000003"><a xlink:href="process__input_8hpp.html" target="_top" xlink:title=" ">
<polygon fill="white" stroke="#666666" points="133,-217 32,-217 32,-187 133,-187 133,-217"/>
<text text-anchor="start" x="40" y="-205" font-family="Helvetica,sans-Serif" font-size="10.00">src/client/process</text>
<text text-anchor="middle" x="82.5" y="-194" font-family="Helvetica,sans-Serif" font-size="10.00">_input.hpp</text>
</a>
</g>
</g>
<!-- Node1&#45;&gt;Node3 -->
<g id="edge2_Node000001_Node000003" class="edge">
<title>Node1&#45;&gt;Node3</title>
<g id="a_edge2_Node000001_Node000003"><a xlink:title=" ">
<path fill="none" stroke="#63b8ff" d="M339.36,-251.3C287.86,-242.69 212.79,-229.75 147.5,-217 142.85,-216.09 138.03,-215.12 133.2,-214.12"/>
<polygon fill="#63b8ff" stroke="#63b8ff" points="338.9,-254.78 349.34,-252.97 340.05,-247.87 338.9,-254.78"/>
</a>
</g>
</g>
<!-- Node5 -->
<g id="Node000005" class="node">
<title>Node5</title>
<g id="a_Node000005"><a xlink:href="generate__id_8cpp.html" target="_top" xlink:title=" ">
<polygon fill="white" stroke="#666666" points="313,-217 190,-217 190,-187 313,-187 313,-217"/>
<text text-anchor="start" x="198" y="-205" font-family="Helvetica,sans-Serif" font-size="10.00">src/common/generate</text>
<text text-anchor="middle" x="251.5" y="-194" font-family="Helvetica,sans-Serif" font-size="10.00">_id.cpp</text>
</a>
</g>
</g>
<!-- Node1&#45;&gt;Node5 -->
<g id="edge5_Node000001_Node000005" class="edge">
<title>Node1&#45;&gt;Node5</title>
<g id="a_edge5_Node000001_Node000005"><a xlink:title=" ">
<path fill="none" stroke="#63b8ff" d="M370.3,-249.33C346.2,-239.93 312.81,-226.91 287.56,-217.06"/>
<polygon fill="#63b8ff" stroke="#63b8ff" points="369.1,-252.62 379.69,-252.99 371.64,-246.1 369.1,-252.62"/>
</a>
</g>
</g>
<!-- Node7 -->
<g id="Node000007" class="node">
<title>Node7</title>
<g id="a_Node000007"><a xlink:href="load__tracker__info_8cpp.html" target="_top" xlink:title=" ">
<polygon fill="white" stroke="#666666" points="471.5,-217 331.5,-217 331.5,-187 471.5,-187 471.5,-217"/>
<text text-anchor="start" x="339.5" y="-205" font-family="Helvetica,sans-Serif" font-size="10.00">src/common/load_tracker</text>
<text text-anchor="middle" x="401.5" y="-194" font-family="Helvetica,sans-Serif" font-size="10.00">_info.cpp</text>
</a>
</g>
</g>
<!-- Node1&#45;&gt;Node7 -->
<g id="edge8_Node000001_Node000007" class="edge">
<title>Node1&#45;&gt;Node7</title>
<g id="a_edge8_Node000001_Node000007"><a xlink:title=" ">
<path fill="none" stroke="#63b8ff" d="M401.5,-242.65C401.5,-234.36 401.5,-224.78 401.5,-217.11"/>
<polygon fill="#63b8ff" stroke="#63b8ff" points="398,-242.87 401.5,-252.87 405,-242.87 398,-242.87"/>
</a>
</g>
</g>
<!-- Node8 -->
<g id="Node000008" class="node">
<title>Node8</title>
<g id="a_Node000008"><a xlink:href="file_8hpp.html" target="_top" xlink:title=" ">
<polygon fill="white" stroke="#666666" points="817,-211.5 708,-211.5 708,-192.5 817,-192.5 817,-211.5"/>
<text text-anchor="middle" x="762.5" y="-199.5" font-family="Helvetica,sans-Serif" font-size="10.00">src/models/file.hpp</text>
</a>
</g>
</g>
<!-- Node1&#45;&gt;Node8 -->
<g id="edge11_Node000001_Node000008" class="edge">
<title>Node1&#45;&gt;Node8</title>
<g id="a_edge11_Node000001_Node000008"><a xlink:title=" ">
<path fill="none" stroke="#63b8ff" d="M463.94,-251.38C533.48,-240.11 644.68,-222.09 709.94,-211.52"/>
<polygon fill="#63b8ff" stroke="#63b8ff" points="463.3,-247.94 453.99,-252.99 464.42,-254.85 463.3,-247.94"/>
</a>
</g>
</g>
<!-- Node9 -->
<g id="Node000009" class="node">
<title>Node9</title>
<g id="a_Node000009"><a xlink:href="group_8hpp.html" target="_top" xlink:title=" ">
<polygon fill="white" stroke="#666666" points="952.5,-145.5 830.5,-145.5 830.5,-126.5 952.5,-126.5 952.5,-145.5"/>
<text text-anchor="middle" x="891.5" y="-133.5" font-family="Helvetica,sans-Serif" font-size="10.00">src/models/group.hpp</text>
</a>
</g>
</g>
<!-- Node1&#45;&gt;Node9 -->
<g id="edge16_Node000001_Node000009" class="edge">
<title>Node1&#45;&gt;Node9</title>
<g id="a_edge16_Node000001_Node000009"><a xlink:title=" ">
<path fill="none" stroke="#63b8ff" d="M480.07,-260.37C586.13,-257.65 768.52,-248.41 826.5,-217 857.18,-200.38 878.84,-162.66 887.41,-145.63"/>
<polygon fill="#63b8ff" stroke="#63b8ff" points="479.96,-256.87 470.05,-260.61 480.13,-263.87 479.96,-256.87"/>
</a>
</g>
</g>
<!-- Node13 -->
<g id="Node000013" class="node">
<title>Node13</title>
<g id="a_Node000013"><a xlink:href="transaction_8hpp.html" target="_top" xlink:title=" ">
<polygon fill="white" stroke="#666666" points="639,-211.5 490,-211.5 490,-192.5 639,-192.5 639,-211.5"/>
<text text-anchor="middle" x="564.5" y="-199.5" font-family="Helvetica,sans-Serif" font-size="10.00">src/models/transaction.hpp</text>
</a>
</g>
</g>
<!-- Node1&#45;&gt;Node13 -->
<g id="edge17_Node000001_Node000013" class="edge">
<title>Node1&#45;&gt;Node13</title>
<g id="a_edge17_Node000001_Node000013"><a xlink:title=" ">
<path fill="none" stroke="#63b8ff" d="M434.87,-249.52C466.38,-238.21 512.87,-221.53 540.77,-211.52"/>
<polygon fill="#63b8ff" stroke="#63b8ff" points="433.43,-246.32 425.2,-252.99 435.8,-252.91 433.43,-246.32"/>
</a>
</g>
</g>
<!-- Node3&#45;&gt;Node2 -->
<g id="edge3_Node000003_Node000002" class="edge">
<title>Node3&#45;&gt;Node2</title>
<g id="a_edge3_Node000003_Node000002"><a xlink:title=" ">
<path fill="none" stroke="#63b8ff" d="M111.43,-180.87C128.46,-169.03 149.13,-154.65 162.05,-145.66"/>
<polygon fill="#63b8ff" stroke="#63b8ff" points="109.13,-178.21 102.92,-186.8 113.13,-183.96 109.13,-178.21"/>
</a>
</g>
</g>
<!-- Node4 -->
<g id="Node000004" class="node">
<title>Node4</title>
<g id="a_Node000004"><a xlink:href="process__input_8cpp.html" target="_top" xlink:title=" ">
<polygon fill="white" stroke="#666666" points="101,-151 0,-151 0,-121 101,-121 101,-151"/>
<text text-anchor="start" x="8" y="-139" font-family="Helvetica,sans-Serif" font-size="10.00">src/client/process</text>
<text text-anchor="middle" x="50.5" y="-128" font-family="Helvetica,sans-Serif" font-size="10.00">_input.cpp</text>
</a>
</g>
</g>
<!-- Node3&#45;&gt;Node4 -->
<g id="edge4_Node000003_Node000004" class="edge">
<title>Node3&#45;&gt;Node4</title>
<g id="a_edge4_Node000003_Node000004"><a xlink:title=" ">
<path fill="none" stroke="#63b8ff" d="M70.84,-177.68C66.4,-168.79 61.47,-158.95 57.58,-151.16"/>
<polygon fill="#63b8ff" stroke="#63b8ff" points="67.8,-179.42 75.4,-186.8 74.06,-176.29 67.8,-179.42"/>
</a>
</g>
</g>
<!-- Node5&#45;&gt;Node2 -->
<g id="edge6_Node000005_Node000002" class="edge">
<title>Node5&#45;&gt;Node2</title>
<g id="a_edge6_Node000005_Node000002"><a xlink:title=" ">
<path fill="none" stroke="#63b8ff" d="M226.55,-180.26C212.54,-168.61 195.78,-154.69 185.14,-145.84"/>
<polygon fill="#63b8ff" stroke="#63b8ff" points="224.48,-183.1 234.41,-186.8 228.96,-177.71 224.48,-183.1"/>
</a>
</g>
</g>
<!-- Node6 -->
<g id="Node000006" class="node">
<title>Node6</title>
<g id="a_Node000006"><a xlink:href="tracker_8cpp.html" target="_top" xlink:title="The tracker.">
<polygon fill="white" stroke="#666666" points="358.5,-85 234.5,-85 234.5,-66 358.5,-66 358.5,-85"/>
<text text-anchor="middle" x="296.5" y="-73" font-family="Helvetica,sans-Serif" font-size="10.00">src/tracker/tracker.cpp</text>
</a>
</g>
</g>
<!-- Node5&#45;&gt;Node6 -->
<g id="edge7_Node000005_Node000006" class="edge">
<title>Node5&#45;&gt;Node6</title>
<g id="a_edge7_Node000005_Node000006"><a xlink:title=" ">
<path fill="none" stroke="#63b8ff" d="M260.09,-177.23C270.25,-149.13 286.62,-103.84 293.4,-85.07"/>
<polygon fill="#63b8ff" stroke="#63b8ff" points="256.77,-176.12 256.66,-186.72 263.35,-178.5 256.77,-176.12"/>
</a>
</g>
</g>
<!-- Node7&#45;&gt;Node2 -->
<g id="edge9_Node000007_Node000002" class="edge">
<title>Node7&#45;&gt;Node2</title>
<g id="a_edge9_Node000007_Node000002"><a xlink:title=" ">
<path fill="none" stroke="#63b8ff" d="M341.94,-184.21C297.84,-171.78 239.6,-155.35 204.71,-145.52"/>
<polygon fill="#63b8ff" stroke="#63b8ff" points="341.11,-187.61 351.68,-186.95 343.01,-180.87 341.11,-187.61"/>
</a>
</g>
</g>
<!-- Node7&#45;&gt;Node6 -->
<g id="edge10_Node000007_Node000006" class="edge">
<title>Node7&#45;&gt;Node6</title>
<g id="a_edge10_Node000007_Node000006"><a xlink:title=" ">
<path fill="none" stroke="#63b8ff" d="M354.04,-182.12C339.83,-174.39 325.41,-164.11 315.5,-151 300.37,-130.98 297.22,-100.18 296.61,-85.24"/>
<polygon fill="#63b8ff" stroke="#63b8ff" points="352.81,-185.42 363.31,-186.84 355.98,-179.18 352.81,-185.42"/>
</a>
</g>
</g>
<!-- Node8&#45;&gt;Node9 -->
<g id="edge12_Node000008_Node000009" class="edge">
<title>Node8&#45;&gt;Node9</title>
<g id="a_edge12_Node000008_Node000009"><a xlink:title=" ">
<path fill="none" stroke="#63b8ff" d="M788.98,-187.86C814.4,-175.25 852.07,-156.56 873.97,-145.7"/>
<polygon fill="#63b8ff" stroke="#63b8ff" points="787.3,-184.79 779.9,-192.37 790.41,-191.06 787.3,-184.79"/>
</a>
</g>
</g>
<!-- Node10 -->
<g id="Node000010" class="node">
<title>Node10</title>
<g id="a_Node000010"><a xlink:href="groupdb_8hpp.html" target="_top" xlink:title=" ">
<polygon fill="white" stroke="#666666" points="962,-85 831,-85 831,-66 962,-66 962,-85"/>
<text text-anchor="middle" x="896.5" y="-73" font-family="Helvetica,sans-Serif" font-size="10.00">src/tracker/groupdb.hpp</text>
</a>
</g>
</g>
<!-- Node9&#45;&gt;Node10 -->
<g id="edge13_Node000009_Node000010" class="edge">
<title>Node9&#45;&gt;Node10</title>
<g id="a_edge13_Node000009_Node000010"><a xlink:title=" ">
<path fill="none" stroke="#63b8ff" d="M893.11,-116.16C894,-105.74 895.06,-93.3 895.76,-85.17"/>
<polygon fill="#63b8ff" stroke="#63b8ff" points="889.6,-116.11 892.24,-126.37 896.58,-116.7 889.6,-116.11"/>
</a>
</g>
</g>
<!-- Node11 -->
<g id="Node000011" class="node">
<title>Node11</title>
<g id="a_Node000011"><a xlink:href="groupdb_8cpp.html" target="_top" xlink:title=" ">
<polygon fill="white" stroke="#666666" points="962,-24.5 831,-24.5 831,-5.5 962,-5.5 962,-24.5"/>
<text text-anchor="middle" x="896.5" y="-12.5" font-family="Helvetica,sans-Serif" font-size="10.00">src/tracker/groupdb.cpp</text>
</a>
</g>
</g>
<!-- Node10&#45;&gt;Node11 -->
<g id="edge14_Node000010_Node000011" class="edge">
<title>Node10&#45;&gt;Node11</title>
<g id="a_edge14_Node000010_Node000011"><a xlink:title=" ">
<path fill="none" stroke="#63b8ff" d="M896.5,-55.66C896.5,-45.24 896.5,-32.8 896.5,-24.67"/>
<polygon fill="#63b8ff" stroke="#63b8ff" points="893,-55.87 896.5,-65.87 900,-55.87 893,-55.87"/>
</a>
</g>
</g>
<!-- Node12 -->
<g id="Node000012" class="node">
<title>Node12</title>
<g id="a_Node000012"><a xlink:href="process__request_8cpp.html" target="_top" xlink:title=" ">
<polygon fill="white" stroke="#666666" points="656.5,-30 548.5,-30 548.5,0 656.5,0 656.5,-30"/>
<text text-anchor="start" x="556.5" y="-18" font-family="Helvetica,sans-Serif" font-size="10.00">src/tracker/process</text>
<text text-anchor="middle" x="602.5" y="-7" font-family="Helvetica,sans-Serif" font-size="10.00">_request.cpp</text>
</a>
</g>
</g>
<!-- Node10&#45;&gt;Node12 -->
<g id="edge15_Node000010_Node000012" class="edge">
<title>Node10&#45;&gt;Node12</title>
<g id="a_edge15_Node000010_Node000012"><a xlink:title=" ">
<path fill="none" stroke="#63b8ff" d="M843.89,-64.03C791.02,-53.51 709.92,-37.37 656.55,-26.75"/>
<polygon fill="#63b8ff" stroke="#63b8ff" points="843.26,-67.47 853.75,-65.99 844.63,-60.61 843.26,-67.47"/>
</a>
</g>
</g>
<!-- Node14 -->
<g id="Node000014" class="node">
<title>Node14</title>
<g id="a_Node000014"><a xlink:href="parse__request_8hpp.html" target="_top" xlink:title=" ">
<polygon fill="white" stroke="#666666" points="486,-145.5 325,-145.5 325,-126.5 486,-126.5 486,-145.5"/>
<text text-anchor="middle" x="405.5" y="-133.5" font-family="Helvetica,sans-Serif" font-size="10.00">src/tracker/parse_request.hpp</text>
</a>
</g>
</g>
<!-- Node13&#45;&gt;Node14 -->
<g id="edge18_Node000013_Node000014" class="edge">
<title>Node13&#45;&gt;Node14</title>
<g id="a_edge18_Node000013_Node000014"><a xlink:title=" ">
<path fill="none" stroke="#63b8ff" d="M533.47,-188.51C502.05,-175.86 454.27,-156.63 426.86,-145.6"/>
<polygon fill="#63b8ff" stroke="#63b8ff" points="532.47,-191.88 543.06,-192.37 535.09,-185.39 532.47,-191.88"/>
</a>
</g>
</g>
<!-- Node16 -->
<g id="Node000016" class="node">
<title>Node16</title>
<g id="a_Node000016"><a xlink:href="process__request_8hpp.html" target="_top" xlink:title=" ">
<polygon fill="white" stroke="#666666" points="612.5,-151 504.5,-151 504.5,-121 612.5,-121 612.5,-151"/>
<text text-anchor="start" x="512.5" y="-139" font-family="Helvetica,sans-Serif" font-size="10.00">src/tracker/process</text>
<text text-anchor="middle" x="558.5" y="-128" font-family="Helvetica,sans-Serif" font-size="10.00">_request.hpp</text>
</a>
</g>
</g>
<!-- Node13&#45;&gt;Node16 -->
<g id="edge21_Node000013_Node000016" class="edge">
<title>Node13&#45;&gt;Node16</title>
<g id="a_edge21_Node000013_Node000016"><a xlink:title=" ">
<path fill="none" stroke="#63b8ff" d="M562.75,-182.35C561.82,-172.47 560.7,-160.51 559.85,-151.36"/>
<polygon fill="#63b8ff" stroke="#63b8ff" points="559.27,-182.74 563.69,-192.37 566.24,-182.09 559.27,-182.74"/>
</a>
</g>
</g>
<!-- Node17 -->
<g id="Node000017" class="node">
<title>Node17</title>
<g id="a_Node000017"><a xlink:href="transactionsrecord_8hpp.html" target="_top" xlink:title=" ">
<polygon fill="white" stroke="#666666" points="812.5,-145.5 630.5,-145.5 630.5,-126.5 812.5,-126.5 812.5,-145.5"/>
<text text-anchor="middle" x="721.5" y="-133.5" font-family="Helvetica,sans-Serif" font-size="10.00">src/tracker/transactionsrecord.hpp</text>
</a>
</g>
</g>
<!-- Node13&#45;&gt;Node17 -->
<g id="edge24_Node000013_Node000017" class="edge">
<title>Node13&#45;&gt;Node17</title>
<g id="a_edge24_Node000013_Node000017"><a xlink:title=" ">
<path fill="none" stroke="#63b8ff" d="M595.14,-188.51C626.17,-175.86 673.34,-156.63 700.41,-145.6"/>
<polygon fill="#63b8ff" stroke="#63b8ff" points="593.61,-185.35 585.67,-192.37 596.26,-191.83 593.61,-185.35"/>
</a>
</g>
</g>
<!-- Node14&#45;&gt;Node6 -->
<g id="edge20_Node000014_Node000006" class="edge">
<title>Node14&#45;&gt;Node6</title>
<g id="a_edge20_Node000014_Node000006"><a xlink:title=" ">
<path fill="none" stroke="#63b8ff" d="M380.49,-121.58C359.64,-110.38 330.55,-94.77 312.65,-85.17"/>
<polygon fill="#63b8ff" stroke="#63b8ff" points="378.95,-124.72 389.42,-126.37 382.26,-118.56 378.95,-124.72"/>
</a>
</g>
</g>
<!-- Node15 -->
<g id="Node000015" class="node">
<title>Node15</title>
<g id="a_Node000015"><a xlink:href="parse__request_8cpp.html" target="_top" xlink:title=" ">
<polygon fill="white" stroke="#666666" points="536.5,-85 376.5,-85 376.5,-66 536.5,-66 536.5,-85"/>
<text text-anchor="middle" x="456.5" y="-73" font-family="Helvetica,sans-Serif" font-size="10.00">src/tracker/parse_request.cpp</text>
</a>
</g>
</g>
<!-- Node14&#45;&gt;Node15 -->
<g id="edge19_Node000014_Node000015" class="edge">
<title>Node14&#45;&gt;Node15</title>
<g id="a_edge19_Node000014_Node000015"><a xlink:title=" ">
<path fill="none" stroke="#63b8ff" d="M419.65,-118.77C429.13,-107.89 441.25,-93.99 448.94,-85.17"/>
<polygon fill="#63b8ff" stroke="#63b8ff" points="416.96,-116.53 413.03,-126.37 422.23,-121.13 416.96,-116.53"/>
</a>
</g>
</g>
<!-- Node16&#45;&gt;Node6 -->
<g id="edge23_Node000016_Node000006" class="edge">
<title>Node16&#45;&gt;Node6</title>
<g id="a_edge23_Node000016_Node000006"><a xlink:title=" ">
<path fill="none" stroke="#63b8ff" d="M494.45,-120.7C444.38,-109.52 376.47,-94.36 334.61,-85.01"/>
<polygon fill="#63b8ff" stroke="#63b8ff" points="493.69,-124.12 504.21,-122.88 495.22,-117.28 493.69,-124.12"/>
</a>
</g>
</g>
<!-- Node16&#45;&gt;Node12 -->
<g id="edge22_Node000016_Node000012" class="edge">
<title>Node16&#45;&gt;Node12</title>
<g id="a_edge22_Node000016_Node000012"><a xlink:title=" ">
<path fill="none" stroke="#63b8ff" d="M567.25,-111.34C576.22,-87.08 589.88,-50.13 597.29,-30.1"/>
<polygon fill="#63b8ff" stroke="#63b8ff" points="563.91,-110.29 563.72,-120.88 570.47,-112.72 563.91,-110.29"/>
</a>
</g>
</g>
<!-- Node17&#45;&gt;Node6 -->
<g id="edge26_Node000017_Node000006" class="edge">
<title>Node17&#45;&gt;Node6</title>
<g id="a_edge26_Node000017_Node000006"><a xlink:title=" ">
<path fill="none" stroke="#63b8ff" d="M650.78,-125.07C640.95,-123.7 630.97,-122.31 621.5,-121 529.97,-108.33 423.91,-93.84 358.51,-84.93"/>
<polygon fill="#63b8ff" stroke="#63b8ff" points="650.57,-128.58 660.96,-126.49 651.54,-121.64 650.57,-128.58"/>
</a>
</g>
</g>
<!-- Node17&#45;&gt;Node12 -->
<g id="edge25_Node000017_Node000012" class="edge">
<title>Node17&#45;&gt;Node12</title>
<g id="a_edge25_Node000017_Node000012"><a xlink:title=" ">
<path fill="none" stroke="#63b8ff" d="M679.5,-122.96C659.31,-115.17 636.33,-103.04 621.5,-85 608.56,-69.26 604.4,-45.37 603.08,-30.23"/>
<polygon fill="#63b8ff" stroke="#63b8ff" points="678.54,-126.33 689.14,-126.44 680.92,-119.75 678.54,-126.33"/>
</a>
</g>
</g>
<!-- Node18 -->
<g id="Node000018" class="node">
<title>Node18</title>
<g id="a_Node000018"><a xlink:href="transactionsrecord_8cpp.html" target="_top" xlink:title=" ">
<polygon fill="white" stroke="#666666" points="812.5,-85 630.5,-85 630.5,-66 812.5,-66 812.5,-85"/>
<text text-anchor="middle" x="721.5" y="-73" font-family="Helvetica,sans-Serif" font-size="10.00">src/tracker/transactionsrecord.cpp</text>
</a>
</g>
</g>
<!-- Node17&#45;&gt;Node18 -->
<g id="edge27_Node000017_Node000018" class="edge">
<title>Node17&#45;&gt;Node18</title>
<g id="a_edge27_Node000017_Node000018"><a xlink:title=" ">
<path fill="none" stroke="#63b8ff" d="M721.5,-116.16C721.5,-105.74 721.5,-93.3 721.5,-85.17"/>
<polygon fill="#63b8ff" stroke="#63b8ff" points="718,-116.37 721.5,-126.37 725,-116.37 718,-116.37"/>
</a>
</g>
</g>
</g>
</svg>
