<?xml version="1.0" encoding="UTF-8" standalone="no"?>
<!DOCTYPE svg PUBLIC "-//W3C//DTD SVG 1.1//EN"
 "http://www.w3.org/Graphics/SVG/1.1/DTD/svg11.dtd">
<!-- Generated by graphviz version 2.43.0 (0)
 -->
<!-- Title: src/models/endpoint.hpp Pages: 1 -->
<svg width="1592pt" height="335pt"
 viewBox="0.00 0.00 1591.56 335.00" xmlns="http://www.w3.org/2000/svg" xmlns:xlink="http://www.w3.org/1999/xlink">
<g id="graph0" class="graph" transform="scale(1 1) rotate(0) translate(4 331)">
<title>src/models/endpoint.hpp</title>
<!-- Node1 -->
<g id="Node000001" class="node">
<title>Node1</title>
<g id="a_Node000001"><a xlink:title=" ">
<polygon fill="#999999" stroke="#666666" points="660.56,-327 523.56,-327 523.56,-308 660.56,-308 660.56,-327"/>
<text text-anchor="middle" x="592.06" y="-315" font-family="Helvetica,sans-Serif" font-size="10.00">src/models/endpoint.hpp</text>
</a>
</g>
</g>
<!-- Node2 -->
<g id="Node000002" class="node">
<title>Node2</title>
<g id="a_Node000002"><a xlink:href="client_8cpp.html" target="_top" xlink:title="The entrypoint to the client.">
<polygon fill="white" stroke="#666666" points="483.56,-24.5 372.56,-24.5 372.56,-5.5 483.56,-5.5 483.56,-24.5"/>
<text text-anchor="middle" x="428.06" y="-12.5" font-family="Helvetica,sans-Serif" font-size="10.00">src/client/client.cpp</text>
</a>
</g>
</g>
<!-- Node1&#45;&gt;Node2 -->
<g id="edge1_Node000001_Node000002" class="edge">
<title>Node1&#45;&gt;Node2</title>
<g id="a_edge1_Node000001_Node000002"><a xlink:title=" ">
<path fill="none" stroke="#63b8ff" d="M513.21,-310.17C352.48,-296.2 2.06,-259.86 2.06,-208.5 2.06,-208.5 2.06,-208.5 2.06,-146 2.06,-109.46 -6.18,-90.37 21.06,-66 71.72,-20.67 273.35,-15.15 372.47,-15.27"/>
<polygon fill="#63b8ff" stroke="#63b8ff" points="513.25,-313.69 523.51,-311.06 513.85,-306.71 513.25,-313.69"/>
</a>
</g>
</g>
<!-- Node3 -->
<g id="Node000003" class="node">
<title>Node3</title>
<g id="a_Node000003"><a xlink:href="downloadmanager_8hpp.html" target="_top" xlink:title=" ">
<polygon fill="white" stroke="#666666" points="537.56,-156.5 362.56,-156.5 362.56,-137.5 537.56,-137.5 537.56,-156.5"/>
<text text-anchor="middle" x="450.06" y="-144.5" font-family="Helvetica,sans-Serif" font-size="10.00">src/client/downloadmanager.hpp</text>
</a>
</g>
</g>
<!-- Node1&#45;&gt;Node3 -->
<g id="edge2_Node000001_Node000003" class="edge">
<title>Node1&#45;&gt;Node3</title>
<g id="a_edge2_Node000001_Node000003"><a xlink:title=" ">
<path fill="none" stroke="#63b8ff" d="M571.32,-301.91C560.49,-293.76 547.38,-283.05 537.06,-272 500.62,-232.98 467.27,-177.87 455.02,-156.73"/>
<polygon fill="#63b8ff" stroke="#63b8ff" points="569.29,-304.76 579.42,-307.85 573.43,-299.11 569.29,-304.76"/>
</a>
</g>
</g>
<!-- Node5 -->
<g id="Node000005" class="node">
<title>Node5</title>
<g id="a_Node000005"><a xlink:href="process__input_8hpp.html" target="_top" xlink:title=" ">
<polygon fill="white" stroke="#666666" points="557.56,-96 456.56,-96 456.56,-66 557.56,-66 557.56,-96"/>
<text text-anchor="start" x="464.56" y="-84" font-family="Helvetica,sans-Serif" font-size="10.00">src/client/process</text>
<text text-anchor="middle" x="507.06" y="-73" font-family="Helvetica,sans-Serif" font-size="10.00">_input.hpp</text>
</a>
</g>
</g>
<!-- Node1&#45;&gt;Node5 -->
<g id="edge15_Node000001_Node000005" class="edge">
<title>Node1&#45;&gt;Node5</title>
<g id="a_edge15_Node000001_Node000005"><a xlink:title=" ">
<path fill="none" stroke="#63b8ff" d="M582.41,-298.86C578.39,-290.86 573.98,-281.16 571.06,-272 551.85,-211.78 571.81,-189.72 546.06,-132 540.05,-118.53 529.65,-105.46 521.09,-96.06"/>
<polygon fill="#63b8ff" stroke="#63b8ff" points="579.42,-300.69 587.17,-307.91 585.62,-297.43 579.42,-300.69"/>
</a>
</g>
</g>
<!-- Node7 -->
<g id="Node000007" class="node">
<title>Node7</title>
<g id="a_Node000007"><a xlink:href="peerdb_8hpp.html" target="_top" xlink:title=" ">
<polygon fill="white" stroke="#666666" points="391.56,-217 272.56,-217 272.56,-198 391.56,-198 391.56,-217"/>
<text text-anchor="middle" x="332.06" y="-205" font-family="Helvetica,sans-Serif" font-size="10.00">src/client/peerdb.hpp</text>
</a>
</g>
</g>
<!-- Node1&#45;&gt;Node7 -->
<g id="edge8_Node000001_Node000007" class="edge">
<title>Node1&#45;&gt;Node7</title>
<g id="a_edge8_Node000001_Node000007"><a xlink:title=" ">
<path fill="none" stroke="#63b8ff" d="M545.99,-305.5C516.3,-297.72 477.2,-286.16 444.06,-272 406.45,-255.92 365.38,-230.38 345.01,-217.12"/>
<polygon fill="#63b8ff" stroke="#63b8ff" points="545.12,-308.89 555.68,-307.99 546.87,-302.11 545.12,-308.89"/>
</a>
</g>
</g>
<!-- Node9 -->
<g id="Node000009" class="node">
<title>Node9</title>
<g id="a_Node000009"><a xlink:href="client_2process__request_8hpp.html" target="_top" xlink:title=" ">
<polygon fill="white" stroke="#666666" points="169.56,-162 68.56,-162 68.56,-132 169.56,-132 169.56,-162"/>
<text text-anchor="start" x="76.56" y="-150" font-family="Helvetica,sans-Serif" font-size="10.00">src/client/process</text>
<text text-anchor="middle" x="119.06" y="-139" font-family="Helvetica,sans-Serif" font-size="10.00">_request.hpp</text>
</a>
</g>
</g>
<!-- Node1&#45;&gt;Node9 -->
<g id="edge16_Node000001_Node000009" class="edge">
<title>Node1&#45;&gt;Node9</title>
<g id="a_edge16_Node000001_Node000009"><a xlink:title=" ">
<path fill="none" stroke="#63b8ff" d="M537.5,-305.94C499.21,-297.99 447.02,-286.08 402.06,-272 338.66,-252.15 323.94,-243.59 263.06,-217 222.16,-199.14 175.75,-176.45 146.93,-162.07"/>
<polygon fill="#63b8ff" stroke="#63b8ff" points="536.91,-309.39 547.41,-307.97 538.32,-302.54 536.91,-309.39"/>
</a>
</g>
</g>
<!-- Node11 -->
<g id="Node000011" class="node">
<title>Node11</title>
<g id="a_Node000011"><a xlink:href="generate__id_8cpp.html" target="_top" xlink:title=" ">
<polygon fill="white" stroke="#666666" points="928.56,-162 805.56,-162 805.56,-132 928.56,-132 928.56,-162"/>
<text text-anchor="start" x="813.56" y="-150" font-family="Helvetica,sans-Serif" font-size="10.00">src/common/generate</text>
<text text-anchor="middle" x="867.06" y="-139" font-family="Helvetica,sans-Serif" font-size="10.00">_id.cpp</text>
</a>
</g>
</g>
<!-- Node1&#45;&gt;Node11 -->
<g id="edge17_Node000001_Node000011" class="edge">
<title>Node1&#45;&gt;Node11</title>
<g id="a_edge17_Node000001_Node000011"><a xlink:title=" ">
<path fill="none" stroke="#63b8ff" d="M643.96,-305.21C667.78,-298.3 695.45,-287.7 717.06,-272 750.65,-247.6 742.41,-224.87 774.06,-198 791.67,-183.05 814.47,-170.71 833.09,-162.02"/>
<polygon fill="#63b8ff" stroke="#63b8ff" points="642.73,-301.92 634.02,-307.95 644.59,-308.67 642.73,-301.92"/>
</a>
</g>
</g>
<!-- Node13 -->
<g id="Node000013" class="node">
<title>Node13</title>
<g id="a_Node000013"><a xlink:href="load__tracker__info_8cpp.html" target="_top" xlink:title=" ">
<polygon fill="white" stroke="#666666" points="787.06,-162 647.06,-162 647.06,-132 787.06,-132 787.06,-162"/>
<text text-anchor="start" x="655.06" y="-150" font-family="Helvetica,sans-Serif" font-size="10.00">src/common/load_tracker</text>
<text text-anchor="middle" x="717.06" y="-139" font-family="Helvetica,sans-Serif" font-size="10.00">_info.cpp</text>
</a>
</g>
</g>
<!-- Node1&#45;&gt;Node13 -->
<g id="edge20_Node000001_Node000013" class="edge">
<title>Node1&#45;&gt;Node13</title>
<g id="a_edge20_Node000001_Node000013"><a xlink:title=" ">
<path fill="none" stroke="#63b8ff" d="M647.75,-304.86C666.41,-298.24 685.62,-287.94 698.06,-272 723.38,-239.55 721.67,-187.43 719.04,-162.37"/>
<polygon fill="#63b8ff" stroke="#63b8ff" points="646.52,-301.58 638.08,-307.99 648.68,-308.24 646.52,-301.58"/>
</a>
</g>
</g>
<!-- Node14 -->
<g id="Node000014" class="node">
<title>Node14</title>
<g id="a_Node000014"><a xlink:href="file_8hpp.html" target="_top" xlink:title=" ">
<polygon fill="white" stroke="#666666" points="688.56,-272 579.56,-272 579.56,-253 688.56,-253 688.56,-272"/>
<text text-anchor="middle" x="634.06" y="-260" font-family="Helvetica,sans-Serif" font-size="10.00">src/models/file.hpp</text>
</a>
</g>
</g>
<!-- Node1&#45;&gt;Node14 -->
<g id="edge23_Node000001_Node000014" class="edge">
<title>Node1&#45;&gt;Node14</title>
<g id="a_edge23_Node000001_Node000014"><a xlink:title=" ">
<path fill="none" stroke="#63b8ff" d="M605.39,-299.67C612.67,-290.5 621.36,-279.52 627.25,-272.09"/>
<polygon fill="#63b8ff" stroke="#63b8ff" points="602.46,-297.74 598.99,-307.75 607.95,-302.08 602.46,-297.74"/>
</a>
</g>
</g>
<!-- Node15 -->
<g id="Node000015" class="node">
<title>Node15</title>
<g id="a_Node000015"><a xlink:href="group_8hpp.html" target="_top" xlink:title=" ">
<polygon fill="white" stroke="#666666" points="905.06,-217 783.06,-217 783.06,-198 905.06,-198 905.06,-217"/>
<text text-anchor="middle" x="844.06" y="-205" font-family="Helvetica,sans-Serif" font-size="10.00">src/models/group.hpp</text>
</a>
</g>
</g>
<!-- Node1&#45;&gt;Node15 -->
<g id="edge31_Node000001_Node000015" class="edge">
<title>Node1&#45;&gt;Node15</title>
<g id="a_edge31_Node000001_Node000015"><a xlink:title=" ">
<path fill="none" stroke="#63b8ff" d="M664.41,-306.04C697.57,-299.33 736.62,-288.66 769.06,-272 796.98,-257.66 823.51,-231.13 836.22,-217.34"/>
<polygon fill="#63b8ff" stroke="#63b8ff" points="663.48,-302.65 654.33,-307.99 664.81,-309.53 663.48,-302.65"/>
</a>
</g>
</g>
<!-- Node19 -->
<g id="Node000019" class="node">
<title>Node19</title>
<g id="a_Node000019"><a xlink:href="transaction_8hpp.html" target="_top" xlink:title=" ">
<polygon fill="white" stroke="#666666" points="1305.56,-217 1156.56,-217 1156.56,-198 1305.56,-198 1305.56,-217"/>
<text text-anchor="middle" x="1231.06" y="-205" font-family="Helvetica,sans-Serif" font-size="10.00">src/models/transaction.hpp</text>
</a>
</g>
</g>
<!-- Node1&#45;&gt;Node19 -->
<g id="edge32_Node000001_Node000019" class="edge">
<title>Node1&#45;&gt;Node19</title>
<g id="a_edge32_Node000001_Node000019"><a xlink:title=" ">
<path fill="none" stroke="#63b8ff" d="M652.67,-306.26C778.21,-285.04 1064.64,-236.63 1180.76,-217"/>
<polygon fill="#63b8ff" stroke="#63b8ff" points="651.74,-302.86 642.47,-307.98 652.91,-309.76 651.74,-302.86"/>
</a>
</g>
</g>
<!-- Node3&#45;&gt;Node2 -->
<g id="edge3_Node000003_Node000002" class="edge">
<title>Node3&#45;&gt;Node2</title>
<g id="a_edge3_Node000003_Node000002"><a xlink:title=" ">
<path fill="none" stroke="#63b8ff" d="M446.88,-127.23C442.06,-98.72 433.07,-45.59 429.54,-24.73"/>
<polygon fill="#63b8ff" stroke="#63b8ff" points="443.5,-128.19 448.61,-137.47 450.4,-127.03 443.5,-128.19"/>
</a>
</g>
</g>
<!-- Node4 -->
<g id="Node000004" class="node">
<title>Node4</title>
<g id="a_Node000004"><a xlink:href="downloadmanager_8cpp.html" target="_top" xlink:title=" ">
<polygon fill="white" stroke="#666666" points="400.06,-90.5 226.06,-90.5 226.06,-71.5 400.06,-71.5 400.06,-90.5"/>
<text text-anchor="middle" x="313.06" y="-78.5" font-family="Helvetica,sans-Serif" font-size="10.00">src/client/downloadmanager.cpp</text>
</a>
</g>
</g>
<!-- Node3&#45;&gt;Node4 -->
<g id="edge4_Node000003_Node000004" class="edge">
<title>Node3&#45;&gt;Node4</title>
<g id="a_edge4_Node000003_Node000004"><a xlink:title=" ">
<path fill="none" stroke="#63b8ff" d="M422.29,-133.03C395.29,-120.42 355.04,-101.61 331.68,-90.7"/>
<polygon fill="#63b8ff" stroke="#63b8ff" points="421.04,-136.31 431.58,-137.37 424,-129.97 421.04,-136.31"/>
</a>
</g>
</g>
<!-- Node3&#45;&gt;Node5 -->
<g id="edge5_Node000003_Node000005" class="edge">
<title>Node3&#45;&gt;Node5</title>
<g id="a_edge5_Node000003_Node000005"><a xlink:title=" ">
<path fill="none" stroke="#63b8ff" d="M464.44,-129.85C473.62,-119.54 485.42,-106.3 494.27,-96.36"/>
<polygon fill="#63b8ff" stroke="#63b8ff" points="461.78,-127.57 457.75,-137.37 467.01,-132.23 461.78,-127.57"/>
</a>
</g>
</g>
<!-- Node5&#45;&gt;Node2 -->
<g id="edge6_Node000005_Node000002" class="edge">
<title>Node5&#45;&gt;Node2</title>
<g id="a_edge6_Node000005_Node000002"><a xlink:title=" ">
<path fill="none" stroke="#63b8ff" d="M481.46,-59.26C467.08,-47.61 449.89,-33.69 438.98,-24.84"/>
<polygon fill="#63b8ff" stroke="#63b8ff" points="479.55,-62.22 489.53,-65.8 483.96,-56.78 479.55,-62.22"/>
</a>
</g>
</g>
<!-- Node6 -->
<g id="Node000006" class="node">
<title>Node6</title>
<g id="a_Node000006"><a xlink:href="process__input_8cpp.html" target="_top" xlink:title=" ">
<polygon fill="white" stroke="#666666" points="657.56,-30 556.56,-30 556.56,0 657.56,0 657.56,-30"/>
<text text-anchor="start" x="564.56" y="-18" font-family="Helvetica,sans-Serif" font-size="10.00">src/client/process</text>
<text text-anchor="middle" x="607.06" y="-7" font-family="Helvetica,sans-Serif" font-size="10.00">_input.cpp</text>
</a>
</g>
</g>
<!-- Node5&#45;&gt;Node6 -->
<g id="edge7_Node000005_Node000006" class="edge">
<title>Node5&#45;&gt;Node6</title>
<g id="a_edge7_Node000005_Node000006"><a xlink:title=" ">
<path fill="none" stroke="#63b8ff" d="M537.84,-60.3C553.06,-50.56 571.09,-39.02 584.93,-30.16"/>
<polygon fill="#63b8ff" stroke="#63b8ff" points="535.79,-57.46 529.25,-65.8 539.56,-63.35 535.79,-57.46"/>
</a>
</g>
</g>
<!-- Node7&#45;&gt;Node2 -->
<g id="edge9_Node000007_Node000002" class="edge">
<title>Node7&#45;&gt;Node2</title>
<g id="a_edge9_Node000007_Node000002"><a xlink:title=" ">
<path fill="none" stroke="#63b8ff" d="M263.86,-194.83C245.67,-188.27 228.03,-178.02 217.06,-162 192.94,-126.8 190.59,-99.47 217.06,-66 236.12,-41.9 316.67,-28.2 372.54,-21.44"/>
<polygon fill="#63b8ff" stroke="#63b8ff" points="262.8,-198.17 273.39,-197.94 264.97,-191.51 262.8,-198.17"/>
</a>
</g>
</g>
<!-- Node7&#45;&gt;Node3 -->
<g id="edge10_Node000007_Node000003" class="edge">
<title>Node7&#45;&gt;Node3</title>
<g id="a_edge10_Node000007_Node000003"><a xlink:title=" ">
<path fill="none" stroke="#63b8ff" d="M358.32,-193.48C381.06,-182.21 413.3,-166.23 432.88,-156.52"/>
<polygon fill="#63b8ff" stroke="#63b8ff" points="356.62,-190.42 349.22,-197.99 359.73,-196.69 356.62,-190.42"/>
</a>
</g>
</g>
<!-- Node8 -->
<g id="Node000008" class="node">
<title>Node8</title>
<g id="a_Node000008"><a xlink:href="peerdb_8cpp.html" target="_top" xlink:title=" ">
<polygon fill="white" stroke="#666666" points="344.06,-156.5 226.06,-156.5 226.06,-137.5 344.06,-137.5 344.06,-156.5"/>
<text text-anchor="middle" x="285.06" y="-144.5" font-family="Helvetica,sans-Serif" font-size="10.00">src/client/peerdb.cpp</text>
</a>
</g>
</g>
<!-- Node7&#45;&gt;Node8 -->
<g id="edge11_Node000007_Node000008" class="edge">
<title>Node7&#45;&gt;Node8</title>
<g id="a_edge11_Node000007_Node000008"><a xlink:title=" ">
<path fill="none" stroke="#63b8ff" d="M318.76,-189.95C310.06,-179.12 299.04,-165.41 292.02,-156.67"/>
<polygon fill="#63b8ff" stroke="#63b8ff" points="316.13,-192.26 325.12,-197.87 321.59,-187.88 316.13,-192.26"/>
</a>
</g>
</g>
<!-- Node7&#45;&gt;Node9 -->
<g id="edge12_Node000007_Node000009" class="edge">
<title>Node7&#45;&gt;Node9</title>
<g id="a_edge12_Node000007_Node000009"><a xlink:title=" ">
<path fill="none" stroke="#63b8ff" d="M291.32,-195.31C256.76,-185.82 207.01,-172.16 169.86,-161.95"/>
<polygon fill="#63b8ff" stroke="#63b8ff" points="290.52,-198.72 301.09,-197.99 292.37,-191.97 290.52,-198.72"/>
</a>
</g>
</g>
<!-- Node9&#45;&gt;Node2 -->
<g id="edge13_Node000009_Node000002" class="edge">
<title>Node9&#45;&gt;Node2</title>
<g id="a_edge13_Node000009_Node000002"><a xlink:title=" ">
<path fill="none" stroke="#63b8ff" d="M131.52,-123.26C142.81,-104.9 161.15,-79.9 184.06,-66 241.92,-30.9 320.22,-20.03 372.35,-16.88"/>
<polygon fill="#63b8ff" stroke="#63b8ff" points="128.48,-121.53 126.42,-131.92 134.51,-125.08 128.48,-121.53"/>
</a>
</g>
</g>
<!-- Node10 -->
<g id="Node000010" class="node">
<title>Node10</title>
<g id="a_Node000010"><a xlink:href="client_2process__request_8cpp.html" target="_top" xlink:title=" ">
<polygon fill="white" stroke="#666666" points="131.56,-96 30.56,-96 30.56,-66 131.56,-66 131.56,-96"/>
<text text-anchor="start" x="38.56" y="-84" font-family="Helvetica,sans-Serif" font-size="10.00">src/client/process</text>
<text text-anchor="middle" x="81.06" y="-73" font-family="Helvetica,sans-Serif" font-size="10.00">_request.cpp</text>
</a>
</g>
</g>
<!-- Node9&#45;&gt;Node10 -->
<g id="edge14_Node000009_Node000010" class="edge">
<title>Node9&#45;&gt;Node10</title>
<g id="a_edge14_Node000009_Node000010"><a xlink:title=" ">
<path fill="none" stroke="#63b8ff" d="M105.38,-122.96C100.06,-114 94.14,-104.03 89.47,-96.16"/>
<polygon fill="#63b8ff" stroke="#63b8ff" points="102.51,-124.98 110.63,-131.8 108.53,-121.41 102.51,-124.98"/>
</a>
</g>
</g>
<!-- Node11&#45;&gt;Node2 -->
<g id="edge18_Node000011_Node000002" class="edge">
<title>Node11&#45;&gt;Node2</title>
<g id="a_edge18_Node000011_Node000002"><a xlink:title=" ">
<path fill="none" stroke="#63b8ff" d="M811.51,-128.99C757.93,-112.65 674.53,-87.35 602.06,-66 551.71,-51.17 493,-34.41 458.27,-24.55"/>
<polygon fill="#63b8ff" stroke="#63b8ff" points="810.57,-132.37 821.16,-131.94 812.61,-125.67 810.57,-132.37"/>
</a>
</g>
</g>
<!-- Node12 -->
<g id="Node000012" class="node">
<title>Node12</title>
<g id="a_Node000012"><a xlink:href="tracker_8cpp.html" target="_top" xlink:title="The tracker.">
<polygon fill="white" stroke="#666666" points="1078.06,-90.5 954.06,-90.5 954.06,-71.5 1078.06,-71.5 1078.06,-90.5"/>
<text text-anchor="middle" x="1016.06" y="-78.5" font-family="Helvetica,sans-Serif" font-size="10.00">src/tracker/tracker.cpp</text>
</a>
</g>
</g>
<!-- Node11&#45;&gt;Node12 -->
<g id="edge19_Node000011_Node000012" class="edge">
<title>Node11&#45;&gt;Node12</title>
<g id="a_edge19_Node000011_Node000012"><a xlink:title=" ">
<path fill="none" stroke="#63b8ff" d="M909.1,-127.94C937.65,-115.68 974.1,-100.02 996.23,-90.52"/>
<polygon fill="#63b8ff" stroke="#63b8ff" points="907.56,-124.79 899.76,-131.95 910.33,-131.22 907.56,-124.79"/>
</a>
</g>
</g>
<!-- Node13&#45;&gt;Node2 -->
<g id="edge21_Node000013_Node000002" class="edge">
<title>Node13&#45;&gt;Node2</title>
<g id="a_edge21_Node000013_Node000002"><a xlink:title=" ">
<path fill="none" stroke="#63b8ff" d="M673.66,-127.76C653.86,-118.93 630.36,-107.71 610.06,-96 589.87,-84.36 587.76,-76.7 567.06,-66 531.52,-47.62 487.68,-33.08 458.85,-24.52"/>
<polygon fill="#63b8ff" stroke="#63b8ff" points="672.49,-131.07 683.05,-131.9 675.31,-124.67 672.49,-131.07"/>
</a>
</g>
</g>
<!-- Node13&#45;&gt;Node12 -->
<g id="edge22_Node000013_Node000012" class="edge">
<title>Node13&#45;&gt;Node12</title>
<g id="a_edge22_Node000013_Node000012"><a xlink:title=" ">
<path fill="none" stroke="#63b8ff" d="M792.6,-129.83C851,-117.33 929.54,-100.52 976.27,-90.52"/>
<polygon fill="#63b8ff" stroke="#63b8ff" points="791.72,-126.44 782.68,-131.95 793.19,-133.28 791.72,-126.44"/>
</a>
</g>
</g>
<!-- Node14&#45;&gt;Node3 -->
<g id="edge24_Node000014_Node000003" class="edge">
<title>Node14&#45;&gt;Node3</title>
<g id="a_edge24_Node000014_Node000003"><a xlink:title=" ">
<path fill="none" stroke="#63b8ff" d="M611.3,-247.46C572.74,-223.67 495.64,-176.12 464.05,-156.63"/>
<polygon fill="#63b8ff" stroke="#63b8ff" points="609.88,-250.7 620.23,-252.97 613.56,-244.74 609.88,-250.7"/>
</a>
</g>
</g>
<!-- Node14&#45;&gt;Node6 -->
<g id="edge26_Node000014_Node000006" class="edge">
<title>Node14&#45;&gt;Node6</title>
<g id="a_edge26_Node000014_Node000006"><a xlink:title=" ">
<path fill="none" stroke="#63b8ff" d="M631.99,-242.68C626.78,-195.3 613.2,-71.87 608.61,-30.08"/>
<polygon fill="#63b8ff" stroke="#63b8ff" points="628.53,-243.21 633.1,-252.76 635.48,-242.44 628.53,-243.21"/>
</a>
</g>
</g>
<!-- Node14&#45;&gt;Node7 -->
<g id="edge25_Node000014_Node000007" class="edge">
<title>Node14&#45;&gt;Node7</title>
<g id="a_edge25_Node000014_Node000007"><a xlink:title=" ">
<path fill="none" stroke="#63b8ff" d="M575.64,-251.25C518.93,-241.3 433.85,-226.36 380.71,-217.04"/>
<polygon fill="#63b8ff" stroke="#63b8ff" points="575.08,-254.7 585.54,-252.98 576.29,-247.81 575.08,-254.7"/>
</a>
</g>
</g>
<!-- Node14&#45;&gt;Node15 -->
<g id="edge27_Node000014_Node000015" class="edge">
<title>Node14&#45;&gt;Node15</title>
<g id="a_edge27_Node000014_Node000015"><a xlink:title=" ">
<path fill="none" stroke="#63b8ff" d="M677.64,-250.5C716.96,-240.58 774.01,-226.18 810.05,-217.08"/>
<polygon fill="#63b8ff" stroke="#63b8ff" points="676.64,-247.14 667.8,-252.98 678.35,-253.93 676.64,-247.14"/>
</a>
</g>
</g>
<!-- Node16 -->
<g id="Node000016" class="node">
<title>Node16</title>
<g id="a_Node000016"><a xlink:href="groupdb_8hpp.html" target="_top" xlink:title=" ">
<polygon fill="white" stroke="#666666" points="1077.56,-156.5 946.56,-156.5 946.56,-137.5 1077.56,-137.5 1077.56,-156.5"/>
<text text-anchor="middle" x="1012.06" y="-144.5" font-family="Helvetica,sans-Serif" font-size="10.00">src/tracker/groupdb.hpp</text>
</a>
</g>
</g>
<!-- Node15&#45;&gt;Node16 -->
<g id="edge28_Node000015_Node000016" class="edge">
<title>Node15&#45;&gt;Node16</title>
<g id="a_edge28_Node000015_Node000016"><a xlink:title=" ">
<path fill="none" stroke="#63b8ff" d="M878.03,-194.67C910.52,-183.36 958.72,-166.57 987.6,-156.52"/>
<polygon fill="#63b8ff" stroke="#63b8ff" points="876.78,-191.4 868.49,-197.99 879.08,-198.01 876.78,-191.4"/>
</a>
</g>
</g>
<!-- Node17 -->
<g id="Node000017" class="node">
<title>Node17</title>
<g id="a_Node000017"><a xlink:href="groupdb_8cpp.html" target="_top" xlink:title=" ">
<polygon fill="white" stroke="#666666" points="935.56,-90.5 804.56,-90.5 804.56,-71.5 935.56,-71.5 935.56,-90.5"/>
<text text-anchor="middle" x="870.06" y="-78.5" font-family="Helvetica,sans-Serif" font-size="10.00">src/tracker/groupdb.cpp</text>
</a>
</g>
</g>
<!-- Node16&#45;&gt;Node17 -->
<g id="edge29_Node000016_Node000017" class="edge">
<title>Node16&#45;&gt;Node17</title>
<g id="a_edge29_Node000016_Node000017"><a xlink:title=" ">
<path fill="none" stroke="#63b8ff" d="M983.64,-133.19C955.66,-120.58 913.68,-101.66 889.36,-90.7"/>
<polygon fill="#63b8ff" stroke="#63b8ff" points="982.35,-136.45 992.91,-137.37 985.23,-130.07 982.35,-136.45"/>
</a>
</g>
</g>
<!-- Node18 -->
<g id="Node000018" class="node">
<title>Node18</title>
<g id="a_Node000018"><a xlink:href="tracker_2process__request_8cpp.html" target="_top" xlink:title=" ">
<polygon fill="white" stroke="#666666" points="1204.06,-96 1096.06,-96 1096.06,-66 1204.06,-66 1204.06,-96"/>
<text text-anchor="start" x="1104.06" y="-84" font-family="Helvetica,sans-Serif" font-size="10.00">src/tracker/process</text>
<text text-anchor="middle" x="1150.06" y="-73" font-family="Helvetica,sans-Serif" font-size="10.00">_request.cpp</text>
</a>
</g>
</g>
<!-- Node16&#45;&gt;Node18 -->
<g id="edge30_Node000016_Node000018" class="edge">
<title>Node16&#45;&gt;Node18</title>
<g id="a_edge30_Node000016_Node000018"><a xlink:title=" ">
<path fill="none" stroke="#63b8ff" d="M1039.92,-133.08C1063.03,-122.36 1095.83,-107.15 1119.62,-96.12"/>
<polygon fill="#63b8ff" stroke="#63b8ff" points="1038.27,-129.99 1030.67,-137.37 1041.21,-136.34 1038.27,-129.99"/>
</a>
</g>
</g>
<!-- Node20 -->
<g id="Node000020" class="node">
<title>Node20</title>
<g id="a_Node000020"><a xlink:href="parse__request_8hpp.html" target="_top" xlink:title=" ">
<polygon fill="white" stroke="#666666" points="1583.56,-156.5 1422.56,-156.5 1422.56,-137.5 1583.56,-137.5 1583.56,-156.5"/>
<text text-anchor="middle" x="1503.06" y="-144.5" font-family="Helvetica,sans-Serif" font-size="10.00">src/tracker/parse_request.hpp</text>
</a>
</g>
</g>
<!-- Node19&#45;&gt;Node20 -->
<g id="edge33_Node000019_Node000020" class="edge">
<title>Node19&#45;&gt;Node20</title>
<g id="a_edge33_Node000019_Node000020"><a xlink:title=" ">
<path fill="none" stroke="#63b8ff" d="M1280.71,-195.82C1333.24,-184.52 1415.09,-166.92 1463.46,-156.52"/>
<polygon fill="#63b8ff" stroke="#63b8ff" points="1279.65,-192.47 1270.61,-197.99 1281.12,-199.31 1279.65,-192.47"/>
</a>
</g>
</g>
<!-- Node22 -->
<g id="Node000022" class="node">
<title>Node22</title>
<g id="a_Node000022"><a xlink:href="tracker_2process__request_8hpp.html" target="_top" xlink:title=" ">
<polygon fill="white" stroke="#666666" points="1204.06,-162 1096.06,-162 1096.06,-132 1204.06,-132 1204.06,-162"/>
<text text-anchor="start" x="1104.06" y="-150" font-family="Helvetica,sans-Serif" font-size="10.00">src/tracker/process</text>
<text text-anchor="middle" x="1150.06" y="-139" font-family="Helvetica,sans-Serif" font-size="10.00">_request.hpp</text>
</a>
</g>
</g>
<!-- Node19&#45;&gt;Node22 -->
<g id="edge36_Node000019_Node000022" class="edge">
<title>Node19&#45;&gt;Node22</title>
<g id="a_edge36_Node000019_Node000022"><a xlink:title=" ">
<path fill="none" stroke="#63b8ff" d="M1210.66,-191.77C1198.07,-182.68 1182.02,-171.09 1169.6,-162.11"/>
<polygon fill="#63b8ff" stroke="#63b8ff" points="1208.95,-194.85 1219.11,-197.87 1213.05,-189.18 1208.95,-194.85"/>
</a>
</g>
</g>
<!-- Node23 -->
<g id="Node000023" class="node">
<title>Node23</title>
<g id="a_Node000023"><a xlink:href="transactionsrecord_8hpp.html" target="_top" xlink:title=" ">
<polygon fill="white" stroke="#666666" points="1404.06,-156.5 1222.06,-156.5 1222.06,-137.5 1404.06,-137.5 1404.06,-156.5"/>
<text text-anchor="middle" x="1313.06" y="-144.5" font-family="Helvetica,sans-Serif" font-size="10.00">src/tracker/transactionsrecord.hpp</text>
</a>
</g>
</g>
<!-- Node19&#45;&gt;Node23 -->
<g id="edge39_Node000019_Node000023" class="edge">
<title>Node19&#45;&gt;Node23</title>
<g id="a_edge39_Node000019_Node000023"><a xlink:title=" ">
<path fill="none" stroke="#63b8ff" d="M1251.6,-191.85C1267.13,-180.77 1287.93,-165.93 1300.91,-156.67"/>
<polygon fill="#63b8ff" stroke="#63b8ff" points="1249.27,-189.21 1243.16,-197.87 1253.33,-194.91 1249.27,-189.21"/>
</a>
</g>
</g>
<!-- Node20&#45;&gt;Node12 -->
<g id="edge35_Node000020_Node000012" class="edge">
<title>Node20&#45;&gt;Node12</title>
<g id="a_edge35_Node000020_Node000012"><a xlink:title=" ">
<path fill="none" stroke="#63b8ff" d="M1440.79,-135.95C1431.5,-134.55 1422.04,-133.19 1413.06,-132 1268.56,-112.79 1231.14,-118.12 1087.06,-96 1077,-94.46 1066.2,-92.49 1056.13,-90.52"/>
<polygon fill="#63b8ff" stroke="#63b8ff" points="1440.35,-139.42 1450.77,-137.46 1441.41,-132.5 1440.35,-139.42"/>
</a>
</g>
</g>
<!-- Node21 -->
<g id="Node000021" class="node">
<title>Node21</title>
<g id="a_Node000021"><a xlink:href="parse__request_8cpp.html" target="_top" xlink:title=" ">
<polygon fill="white" stroke="#666666" points="1583.06,-90.5 1423.06,-90.5 1423.06,-71.5 1583.06,-71.5 1583.06,-90.5"/>
<text text-anchor="middle" x="1503.06" y="-78.5" font-family="Helvetica,sans-Serif" font-size="10.00">src/tracker/parse_request.cpp</text>
</a>
</g>
</g>
<!-- Node20&#45;&gt;Node21 -->
<g id="edge34_Node000020_Node000021" class="edge">
<title>Node20&#45;&gt;Node21</title>
<g id="a_edge34_Node000020_Node000021"><a xlink:title=" ">
<path fill="none" stroke="#63b8ff" d="M1503.06,-127.08C1503.06,-115.13 1503.06,-100.22 1503.06,-90.91"/>
<polygon fill="#63b8ff" stroke="#63b8ff" points="1499.56,-127.37 1503.06,-137.37 1506.56,-127.37 1499.56,-127.37"/>
</a>
</g>
</g>
<!-- Node22&#45;&gt;Node12 -->
<g id="edge38_Node000022_Node000012" class="edge">
<title>Node22&#45;&gt;Node12</title>
<g id="a_edge38_Node000022_Node000012"><a xlink:title=" ">
<path fill="none" stroke="#63b8ff" d="M1111.58,-127.62C1086,-115.41 1053.62,-99.94 1033.89,-90.52"/>
<polygon fill="#63b8ff" stroke="#63b8ff" points="1110.12,-130.8 1120.65,-131.95 1113.14,-124.49 1110.12,-130.8"/>
</a>
</g>
</g>
<!-- Node22&#45;&gt;Node18 -->
<g id="edge37_Node000022_Node000018" class="edge">
<title>Node22&#45;&gt;Node18</title>
<g id="a_edge37_Node000022_Node000018"><a xlink:title=" ">
<path fill="none" stroke="#63b8ff" d="M1150.06,-121.54C1150.06,-112.96 1150.06,-103.61 1150.06,-96.16"/>
<polygon fill="#63b8ff" stroke="#63b8ff" points="1146.56,-121.8 1150.06,-131.8 1153.56,-121.8 1146.56,-121.8"/>
</a>
</g>
</g>
<!-- Node23&#45;&gt;Node12 -->
<g id="edge41_Node000023_Node000012" class="edge">
<title>Node23&#45;&gt;Node12</title>
<g id="a_edge41_Node000023_Node000012"><a xlink:title=" ">
<path fill="none" stroke="#63b8ff" d="M1263.21,-135.26C1204.77,-122.67 1109.13,-102.06 1055.57,-90.51"/>
<polygon fill="#63b8ff" stroke="#63b8ff" points="1262.8,-138.75 1273.31,-137.44 1264.27,-131.91 1262.8,-138.75"/>
</a>
</g>
</g>
<!-- Node23&#45;&gt;Node18 -->
<g id="edge40_Node000023_Node000018" class="edge">
<title>Node23&#45;&gt;Node18</title>
<g id="a_edge40_Node000023_Node000018"><a xlink:title=" ">
<path fill="none" stroke="#63b8ff" d="M1281.59,-133.65C1254.24,-122.9 1214.61,-107.35 1186.01,-96.12"/>
<polygon fill="#63b8ff" stroke="#63b8ff" points="1280.49,-136.97 1291.08,-137.37 1283.05,-130.46 1280.49,-136.97"/>
</a>
</g>
</g>
<!-- Node24 -->
<g id="Node000024" class="node">
<title>Node24</title>
<g id="a_Node000024"><a xlink:href="transactionsrecord_8cpp.html" target="_top" xlink:title=" ">
<polygon fill="white" stroke="#666666" points="1404.06,-90.5 1222.06,-90.5 1222.06,-71.5 1404.06,-71.5 1404.06,-90.5"/>
<text text-anchor="middle" x="1313.06" y="-78.5" font-family="Helvetica,sans-Serif" font-size="10.00">src/tracker/transactionsrecord.cpp</text>
</a>
</g>
</g>
<!-- Node23&#45;&gt;Node24 -->
<g id="edge42_Node000023_Node000024" class="edge">
<title>Node23&#45;&gt;Node24</title>
<g id="a_edge42_Node000023_Node000024"><a xlink:title=" ">
<path fill="none" stroke="#63b8ff" d="M1313.06,-127.08C1313.06,-115.13 1313.06,-100.22 1313.06,-90.91"/>
<polygon fill="#63b8ff" stroke="#63b8ff" points="1309.56,-127.37 1313.06,-137.37 1316.56,-127.37 1309.56,-127.37"/>
</a>
</g>
</g>
</g>
</svg>
