<?xml version="1.0" encoding="UTF-8" standalone="no"?>
<!DOCTYPE svg PUBLIC "-//W3C//DTD SVG 1.1//EN"
 "http://www.w3.org/Graphics/SVG/1.1/DTD/svg11.dtd">
<!-- Generated by graphviz version 2.43.0 (0)
 -->
<!-- Title: src/models/endpoint.hpp Pages: 1 -->
<svg width="1641pt" height="335pt"
 viewBox="0.00 0.00 1641.00 335.00" xmlns="http://www.w3.org/2000/svg" xmlns:xlink="http://www.w3.org/1999/xlink">
<g id="graph0" class="graph" transform="scale(1 1) rotate(0) translate(4 331)">
<title>src/models/endpoint.hpp</title>
<!-- Node1 -->
<g id="Node000001" class="node">
<title>Node1</title>
<g id="a_Node000001"><a xlink:title=" ">
<polygon fill="#999999" stroke="#666666" points="641.5,-327 504.5,-327 504.5,-308 641.5,-308 641.5,-327"/>
<text text-anchor="middle" x="573" y="-315" font-family="Helvetica,sans-Serif" font-size="10.00">src/models/endpoint.hpp</text>
</a>
</g>
</g>
<!-- Node2 -->
<g id="Node000002" class="node">
<title>Node2</title>
<g id="a_Node000002"><a xlink:href="client_8cpp.html" target="_top" xlink:title="The entrypoint to the client.">
<polygon fill="white" stroke="#666666" points="246.5,-24.5 135.5,-24.5 135.5,-5.5 246.5,-5.5 246.5,-24.5"/>
<text text-anchor="middle" x="191" y="-12.5" font-family="Helvetica,sans-Serif" font-size="10.00">src/client/client.cpp</text>
</a>
</g>
</g>
<!-- Node1&#45;&gt;Node2 -->
<g id="edge1_Node000001_Node000002" class="edge">
<title>Node1&#45;&gt;Node2</title>
<g id="a_edge1_Node000001_Node000002"><a xlink:title=" ">
<path fill="none" stroke="#63b8ff" d="M494.38,-309.75C337.38,-295.22 0,-258.21 0,-208.5 0,-208.5 0,-208.5 0,-146 0,-74 93.9,-39.06 150.03,-24.6"/>
<polygon fill="#63b8ff" stroke="#63b8ff" points="494.17,-313.25 504.45,-310.68 494.81,-306.28 494.17,-313.25"/>
</a>
</g>
</g>
<!-- Node3 -->
<g id="Node000003" class="node">
<title>Node3</title>
<g id="a_Node000003"><a xlink:href="downloadmanager_8hpp.html" target="_top" xlink:title=" ">
<polygon fill="white" stroke="#666666" points="497.5,-156.5 322.5,-156.5 322.5,-137.5 497.5,-137.5 497.5,-156.5"/>
<text text-anchor="middle" x="410" y="-144.5" font-family="Helvetica,sans-Serif" font-size="10.00">src/client/downloadmanager.hpp</text>
</a>
</g>
</g>
<!-- Node1&#45;&gt;Node3 -->
<g id="edge2_Node000001_Node000003" class="edge">
<title>Node1&#45;&gt;Node3</title>
<g id="a_edge2_Node000001_Node000003"><a xlink:title=" ">
<path fill="none" stroke="#63b8ff" d="M549.49,-302.5C536.83,-294.39 521.32,-283.53 509,-272 467.97,-233.6 429.47,-177.66 415.52,-156.52"/>
<polygon fill="#63b8ff" stroke="#63b8ff" points="547.79,-305.56 558.13,-307.88 551.49,-299.62 547.79,-305.56"/>
</a>
</g>
</g>
<!-- Node5 -->
<g id="Node000005" class="node">
<title>Node5</title>
<g id="a_Node000005"><a xlink:href="process__input_8hpp.html" target="_top" xlink:title=" ">
<polygon fill="white" stroke="#666666" points="722.5,-96 621.5,-96 621.5,-66 722.5,-66 722.5,-96"/>
<text text-anchor="start" x="629.5" y="-84" font-family="Helvetica,sans-Serif" font-size="10.00">src/client/process</text>
<text text-anchor="middle" x="672" y="-73" font-family="Helvetica,sans-Serif" font-size="10.00">_input.hpp</text>
</a>
</g>
</g>
<!-- Node1&#45;&gt;Node5 -->
<g id="edge15_Node000001_Node000005" class="edge">
<title>Node1&#45;&gt;Node5</title>
<g id="a_edge15_Node000001_Node000005"><a xlink:title=" ">
<path fill="none" stroke="#63b8ff" d="M601.63,-303.1C614.39,-295.69 628.44,-285.27 637,-272 673.72,-215.06 674.28,-129.68 672.89,-96.19"/>
<polygon fill="#63b8ff" stroke="#63b8ff" points="599.79,-300.12 592.66,-307.96 603.12,-306.27 599.79,-300.12"/>
</a>
</g>
</g>
<!-- Node7 -->
<g id="Node000007" class="node">
<title>Node7</title>
<g id="a_Node000007"><a xlink:href="peerdb_8hpp.html" target="_top" xlink:title=" ">
<polygon fill="white" stroke="#666666" points="342.5,-217 223.5,-217 223.5,-198 342.5,-198 342.5,-217"/>
<text text-anchor="middle" x="283" y="-205" font-family="Helvetica,sans-Serif" font-size="10.00">src/client/peerdb.hpp</text>
</a>
</g>
</g>
<!-- Node1&#45;&gt;Node7 -->
<g id="edge8_Node000001_Node000007" class="edge">
<title>Node1&#45;&gt;Node7</title>
<g id="a_edge8_Node000001_Node000007"><a xlink:title=" ">
<path fill="none" stroke="#63b8ff" d="M527.35,-305.45C496.14,-297.4 454.06,-285.56 418,-272 373.88,-255.41 324.26,-230.31 299.26,-217.19"/>
<polygon fill="#63b8ff" stroke="#63b8ff" points="526.52,-308.85 537.08,-307.93 528.25,-302.07 526.52,-308.85"/>
</a>
</g>
</g>
<!-- Node9 -->
<g id="Node000009" class="node">
<title>Node9</title>
<g id="a_Node000009"><a xlink:href="client_2process__request_8hpp.html" target="_top" xlink:title=" ">
<polygon fill="white" stroke="#666666" points="129.5,-162 28.5,-162 28.5,-132 129.5,-132 129.5,-162"/>
<text text-anchor="start" x="36.5" y="-150" font-family="Helvetica,sans-Serif" font-size="10.00">src/client/process</text>
<text text-anchor="middle" x="79" y="-139" font-family="Helvetica,sans-Serif" font-size="10.00">_request.hpp</text>
</a>
</g>
</g>
<!-- Node1&#45;&gt;Node9 -->
<g id="edge16_Node000001_Node000009" class="edge">
<title>Node1&#45;&gt;Node9</title>
<g id="a_edge16_Node000001_Node000009"><a xlink:title=" ">
<path fill="none" stroke="#63b8ff" d="M516.14,-306.1C474.95,-298.08 418.11,-286.01 369,-272 298.71,-251.95 281.13,-245.92 214,-217 174.84,-200.13 131.18,-176.98 104.4,-162.25"/>
<polygon fill="#63b8ff" stroke="#63b8ff" points="515.51,-309.54 526,-308 516.84,-302.67 515.51,-309.54"/>
</a>
</g>
</g>
<!-- Node11 -->
<g id="Node000011" class="node">
<title>Node11</title>
<g id="a_Node000011"><a xlink:href="load__tracker__info_8cpp.html" target="_top" xlink:title=" ">
<polygon fill="white" stroke="#666666" points="1042,-162 902,-162 902,-132 1042,-132 1042,-162"/>
<text text-anchor="start" x="910" y="-150" font-family="Helvetica,sans-Serif" font-size="10.00">src/common/load_tracker</text>
<text text-anchor="middle" x="972" y="-139" font-family="Helvetica,sans-Serif" font-size="10.00">_info.cpp</text>
</a>
</g>
</g>
<!-- Node1&#45;&gt;Node11 -->
<g id="edge17_Node000001_Node000011" class="edge">
<title>Node1&#45;&gt;Node11</title>
<g id="a_edge17_Node000001_Node000011"><a xlink:title=" ">
<path fill="none" stroke="#63b8ff" d="M628.86,-305.91C665.53,-298.23 714.26,-286.64 756,-272 810.6,-252.85 823.93,-245.99 874,-217 903.17,-200.11 934.67,-176.97 953.86,-162.25"/>
<polygon fill="#63b8ff" stroke="#63b8ff" points="627.94,-302.53 618.85,-307.97 629.35,-309.39 627.94,-302.53"/>
</a>
</g>
</g>
<!-- Node13 -->
<g id="Node000013" class="node">
<title>Node13</title>
<g id="a_Node000013"><a xlink:href="file_8hpp.html" target="_top" xlink:title=" ">
<polygon fill="white" stroke="#666666" points="627.5,-272 518.5,-272 518.5,-253 627.5,-253 627.5,-272"/>
<text text-anchor="middle" x="573" y="-260" font-family="Helvetica,sans-Serif" font-size="10.00">src/models/file.hpp</text>
</a>
</g>
</g>
<!-- Node1&#45;&gt;Node13 -->
<g id="edge20_Node000001_Node000013" class="edge">
<title>Node1&#45;&gt;Node13</title>
<g id="a_edge20_Node000001_Node000013"><a xlink:title=" ">
<path fill="none" stroke="#63b8ff" d="M573,-297.66C573,-288.93 573,-278.99 573,-272.09"/>
<polygon fill="#63b8ff" stroke="#63b8ff" points="569.5,-297.75 573,-307.75 576.5,-297.75 569.5,-297.75"/>
</a>
</g>
</g>
<!-- Node16 -->
<g id="Node000016" class="node">
<title>Node16</title>
<g id="a_Node000016"><a xlink:href="group_8hpp.html" target="_top" xlink:title=" ">
<polygon fill="white" stroke="#666666" points="865,-217 743,-217 743,-198 865,-198 865,-217"/>
<text text-anchor="middle" x="804" y="-205" font-family="Helvetica,sans-Serif" font-size="10.00">src/models/group.hpp</text>
</a>
</g>
</g>
<!-- Node1&#45;&gt;Node16 -->
<g id="edge33_Node000001_Node000016" class="edge">
<title>Node1&#45;&gt;Node16</title>
<g id="a_edge33_Node000001_Node000016"><a xlink:title=" ">
<path fill="none" stroke="#63b8ff" d="M632.43,-305.78C662.54,-298.83 698.98,-288.02 729,-272 756.7,-257.22 783.32,-230.88 796.11,-217.24"/>
<polygon fill="#63b8ff" stroke="#63b8ff" points="631.48,-302.41 622.48,-308 633,-309.24 631.48,-302.41"/>
</a>
</g>
</g>
<!-- Node20 -->
<g id="Node000020" class="node">
<title>Node20</title>
<g id="a_Node000020"><a xlink:href="transaction_8hpp.html" target="_top" xlink:title=" ">
<polygon fill="white" stroke="#666666" points="1269.5,-217 1120.5,-217 1120.5,-198 1269.5,-198 1269.5,-217"/>
<text text-anchor="middle" x="1195" y="-205" font-family="Helvetica,sans-Serif" font-size="10.00">src/models/transaction.hpp</text>
</a>
</g>
</g>
<!-- Node1&#45;&gt;Node20 -->
<g id="edge34_Node000001_Node000020" class="edge">
<title>Node1&#45;&gt;Node20</title>
<g id="a_edge34_Node000001_Node000020"><a xlink:title=" ">
<path fill="none" stroke="#63b8ff" d="M651.79,-310.4C728.59,-303.71 848.45,-291.29 951,-272 1030.37,-257.07 1122.07,-230.68 1167.1,-217.1"/>
<polygon fill="#63b8ff" stroke="#63b8ff" points="651.38,-306.92 641.72,-311.27 651.98,-313.9 651.38,-306.92"/>
</a>
</g>
</g>
<!-- Node3&#45;&gt;Node2 -->
<g id="edge3_Node000003_Node000002" class="edge">
<title>Node3&#45;&gt;Node2</title>
<g id="a_edge3_Node000003_Node000002"><a xlink:title=" ">
<path fill="none" stroke="#63b8ff" d="M373.26,-134C348.56,-125.18 315.76,-111.98 289,-96 279.52,-90.34 224.51,-44.25 201.31,-24.71"/>
<polygon fill="#63b8ff" stroke="#63b8ff" points="372.38,-137.4 382.97,-137.39 374.69,-130.79 372.38,-137.4"/>
</a>
</g>
</g>
<!-- Node4 -->
<g id="Node000004" class="node">
<title>Node4</title>
<g id="a_Node000004"><a xlink:href="downloadmanager_8cpp.html" target="_top" xlink:title=" ">
<polygon fill="white" stroke="#666666" points="472,-90.5 298,-90.5 298,-71.5 472,-71.5 472,-90.5"/>
<text text-anchor="middle" x="385" y="-78.5" font-family="Helvetica,sans-Serif" font-size="10.00">src/client/downloadmanager.cpp</text>
</a>
</g>
</g>
<!-- Node3&#45;&gt;Node4 -->
<g id="edge4_Node000003_Node000004" class="edge">
<title>Node3&#45;&gt;Node4</title>
<g id="a_edge4_Node000003_Node000004"><a xlink:title=" ">
<path fill="none" stroke="#63b8ff" d="M402.9,-127.82C398.18,-115.74 392.19,-100.41 388.48,-90.91"/>
<polygon fill="#63b8ff" stroke="#63b8ff" points="399.73,-129.33 406.63,-137.37 406.25,-126.78 399.73,-129.33"/>
</a>
</g>
</g>
<!-- Node3&#45;&gt;Node5 -->
<g id="edge5_Node000003_Node000005" class="edge">
<title>Node3&#45;&gt;Node5</title>
<g id="a_edge5_Node000003_Node000005"><a xlink:title=" ">
<path fill="none" stroke="#63b8ff" d="M454.81,-135.05C501.08,-123.75 573.15,-106.15 621.43,-94.35"/>
<polygon fill="#63b8ff" stroke="#63b8ff" points="453.95,-131.66 445.06,-137.44 455.61,-138.46 453.95,-131.66"/>
</a>
</g>
</g>
<!-- Node5&#45;&gt;Node2 -->
<g id="edge6_Node000005_Node000002" class="edge">
<title>Node5&#45;&gt;Node2</title>
<g id="a_edge6_Node000005_Node000002"><a xlink:title=" ">
<path fill="none" stroke="#63b8ff" d="M611.05,-65.77C475.08,-42.14 325.62,-27.43 246.6,-20.53"/>
<polygon fill="#63b8ff" stroke="#63b8ff" points="610.77,-69.28 621.23,-67.56 611.99,-62.38 610.77,-69.28"/>
</a>
</g>
</g>
<!-- Node6 -->
<g id="Node000006" class="node">
<title>Node6</title>
<g id="a_Node000006"><a xlink:href="process__input_8cpp.html" target="_top" xlink:title=" ">
<polygon fill="white" stroke="#666666" points="801.5,-30 700.5,-30 700.5,0 801.5,0 801.5,-30"/>
<text text-anchor="start" x="708.5" y="-18" font-family="Helvetica,sans-Serif" font-size="10.00">src/client/process</text>
<text text-anchor="middle" x="751" y="-7" font-family="Helvetica,sans-Serif" font-size="10.00">_input.cpp</text>
</a>
</g>
</g>
<!-- Node5&#45;&gt;Node6 -->
<g id="edge7_Node000005_Node000006" class="edge">
<title>Node5&#45;&gt;Node6</title>
<g id="a_edge7_Node000005_Node000006"><a xlink:title=" ">
<path fill="none" stroke="#63b8ff" d="M697.33,-59.48C709.14,-49.91 722.89,-38.77 733.52,-30.16"/>
<polygon fill="#63b8ff" stroke="#63b8ff" points="695.1,-56.78 689.53,-65.8 699.51,-62.22 695.1,-56.78"/>
</a>
</g>
</g>
<!-- Node7&#45;&gt;Node2 -->
<g id="edge9_Node000007_Node000002" class="edge">
<title>Node7&#45;&gt;Node2</title>
<g id="a_edge9_Node000007_Node000002"><a xlink:title=" ">
<path fill="none" stroke="#63b8ff" d="M240.08,-194.66C219.51,-187.52 195.41,-176.88 177,-162 149.19,-139.52 141.71,-130.11 131,-96 127,-83.28 125.34,-78.07 131,-66 139.8,-47.21 159.51,-33.02 173.95,-24.65"/>
<polygon fill="#63b8ff" stroke="#63b8ff" points="239.26,-198.08 249.85,-197.89 241.45,-191.43 239.26,-198.08"/>
</a>
</g>
</g>
<!-- Node7&#45;&gt;Node3 -->
<g id="edge10_Node000007_Node000003" class="edge">
<title>Node7&#45;&gt;Node3</title>
<g id="a_edge10_Node000007_Node000003"><a xlink:title=" ">
<path fill="none" stroke="#63b8ff" d="M310.61,-193.78C335.12,-182.49 370.24,-166.31 391.51,-156.52"/>
<polygon fill="#63b8ff" stroke="#63b8ff" points="309.09,-190.63 301.47,-197.99 312.01,-196.99 309.09,-190.63"/>
</a>
</g>
</g>
<!-- Node8 -->
<g id="Node000008" class="node">
<title>Node8</title>
<g id="a_Node000008"><a xlink:href="peerdb_8cpp.html" target="_top" xlink:title=" ">
<polygon fill="white" stroke="#666666" points="304,-156.5 186,-156.5 186,-137.5 304,-137.5 304,-156.5"/>
<text text-anchor="middle" x="245" y="-144.5" font-family="Helvetica,sans-Serif" font-size="10.00">src/client/peerdb.cpp</text>
</a>
</g>
</g>
<!-- Node7&#45;&gt;Node8 -->
<g id="edge11_Node000007_Node000008" class="edge">
<title>Node7&#45;&gt;Node8</title>
<g id="a_edge11_Node000007_Node000008"><a xlink:title=" ">
<path fill="none" stroke="#63b8ff" d="M271.83,-189.3C264.86,-178.58 256.2,-165.23 250.63,-156.67"/>
<polygon fill="#63b8ff" stroke="#63b8ff" points="269.01,-191.39 277.39,-197.87 274.88,-187.58 269.01,-191.39"/>
</a>
</g>
</g>
<!-- Node7&#45;&gt;Node9 -->
<g id="edge12_Node000007_Node000009" class="edge">
<title>Node7&#45;&gt;Node9</title>
<g id="a_edge12_Node000007_Node000009"><a xlink:title=" ">
<path fill="none" stroke="#63b8ff" d="M243.59,-195.2C210.63,-185.75 163.45,-172.22 128.04,-162.06"/>
<polygon fill="#63b8ff" stroke="#63b8ff" points="242.76,-198.6 253.34,-197.99 244.69,-191.87 242.76,-198.6"/>
</a>
</g>
</g>
<!-- Node9&#45;&gt;Node2 -->
<g id="edge13_Node000009_Node000002" class="edge">
<title>Node9&#45;&gt;Node2</title>
<g id="a_edge13_Node000009_Node000002"><a xlink:title=" ">
<path fill="none" stroke="#63b8ff" d="M79.66,-121.47C81.26,-104.37 85.8,-81.88 98,-66 113.86,-45.36 140.74,-32.24 161.54,-24.64"/>
<polygon fill="#63b8ff" stroke="#63b8ff" points="76.14,-121.59 78.97,-131.8 83.13,-122.05 76.14,-121.59"/>
</a>
</g>
</g>
<!-- Node10 -->
<g id="Node000010" class="node">
<title>Node10</title>
<g id="a_Node000010"><a xlink:href="client_2process__request_8cpp.html" target="_top" xlink:title=" ">
<polygon fill="white" stroke="#666666" points="241.5,-96 140.5,-96 140.5,-66 241.5,-66 241.5,-96"/>
<text text-anchor="start" x="148.5" y="-84" font-family="Helvetica,sans-Serif" font-size="10.00">src/client/process</text>
<text text-anchor="middle" x="191" y="-73" font-family="Helvetica,sans-Serif" font-size="10.00">_request.cpp</text>
</a>
</g>
</g>
<!-- Node9&#45;&gt;Node10 -->
<g id="edge14_Node000009_Node000010" class="edge">
<title>Node9&#45;&gt;Node10</title>
<g id="a_edge14_Node000009_Node000010"><a xlink:title=" ">
<path fill="none" stroke="#63b8ff" d="M112.31,-126.97C129.69,-117.03 150.59,-105.09 166.48,-96.01"/>
<polygon fill="#63b8ff" stroke="#63b8ff" points="110.52,-123.95 103.58,-131.95 114,-130.03 110.52,-123.95"/>
</a>
</g>
</g>
<!-- Node11&#45;&gt;Node2 -->
<g id="edge18_Node000011_Node000002" class="edge">
<title>Node11&#45;&gt;Node2</title>
<g id="a_edge18_Node000011_Node000002"><a xlink:title=" ">
<path fill="none" stroke="#63b8ff" d="M974.96,-121.85C975.71,-103.71 973.28,-79.71 958,-66 931.57,-42.29 418.74,-23.44 246.71,-17.76"/>
<polygon fill="#63b8ff" stroke="#63b8ff" points="971.46,-121.76 974.2,-131.99 978.44,-122.28 971.46,-121.76"/>
</a>
</g>
</g>
<!-- Node12 -->
<g id="Node000012" class="node">
<title>Node12</title>
<g id="a_Node000012"><a xlink:href="tracker_8cpp.html" target="_top" xlink:title="The tracker.">
<polygon fill="white" stroke="#666666" points="1255,-90.5 1131,-90.5 1131,-71.5 1255,-71.5 1255,-90.5"/>
<text text-anchor="middle" x="1193" y="-78.5" font-family="Helvetica,sans-Serif" font-size="10.00">src/tracker/tracker.cpp</text>
</a>
</g>
</g>
<!-- Node11&#45;&gt;Node12 -->
<g id="edge19_Node000011_Node000012" class="edge">
<title>Node11&#45;&gt;Node12</title>
<g id="a_edge19_Node000011_Node000012"><a xlink:title=" ">
<path fill="none" stroke="#63b8ff" d="M1030.26,-129.13C1073.15,-116.71 1129.69,-100.33 1163.59,-90.52"/>
<polygon fill="#63b8ff" stroke="#63b8ff" points="1029.13,-125.81 1020.5,-131.95 1031.08,-132.54 1029.13,-125.81"/>
</a>
</g>
</g>
<!-- Node13&#45;&gt;Node3 -->
<g id="edge21_Node000013_Node000003" class="edge">
<title>Node13&#45;&gt;Node3</title>
<g id="a_edge21_Node000013_Node000003"><a xlink:title=" ">
<path fill="none" stroke="#63b8ff" d="M552.41,-247.16C518.1,-223.27 450.26,-176.03 422.39,-156.63"/>
<polygon fill="#63b8ff" stroke="#63b8ff" points="550.54,-250.13 560.75,-252.97 554.54,-244.38 550.54,-250.13"/>
</a>
</g>
</g>
<!-- Node13&#45;&gt;Node6 -->
<g id="edge28_Node000013_Node000006" class="edge">
<title>Node13&#45;&gt;Node6</title>
<g id="a_edge28_Node000013_Node000006"><a xlink:title=" ">
<path fill="none" stroke="#63b8ff" d="M597.96,-247.91C639.4,-223.73 721.02,-168.84 753,-96 762.38,-74.63 758.59,-46.85 754.87,-30.28"/>
<polygon fill="#63b8ff" stroke="#63b8ff" points="596,-245 589.05,-253 599.47,-251.08 596,-245"/>
</a>
</g>
</g>
<!-- Node13&#45;&gt;Node7 -->
<g id="edge27_Node000013_Node000007" class="edge">
<title>Node13&#45;&gt;Node7</title>
<g id="a_edge27_Node000013_Node000007"><a xlink:title=" ">
<path fill="none" stroke="#63b8ff" d="M516.24,-251.13C461.87,-241.19 380.79,-226.37 329.96,-217.08"/>
<polygon fill="#63b8ff" stroke="#63b8ff" points="515.94,-254.63 526.41,-252.98 517.2,-247.74 515.94,-254.63"/>
</a>
</g>
</g>
<!-- Node14 -->
<g id="Node000014" class="node">
<title>Node14</title>
<g id="a_Node000014"><a xlink:href="file__io_8hpp.html" target="_top" xlink:title=" ">
<polygon fill="white" stroke="#666666" points="630,-156.5 516,-156.5 516,-137.5 630,-137.5 630,-156.5"/>
<text text-anchor="middle" x="573" y="-144.5" font-family="Helvetica,sans-Serif" font-size="10.00">src/client/file_io.hpp</text>
</a>
</g>
</g>
<!-- Node13&#45;&gt;Node14 -->
<g id="edge22_Node000013_Node000014" class="edge">
<title>Node13&#45;&gt;Node14</title>
<g id="a_edge22_Node000013_Node000014"><a xlink:title=" ">
<path fill="none" stroke="#63b8ff" d="M573,-242.65C573,-217.74 573,-174.88 573,-156.63"/>
<polygon fill="#63b8ff" stroke="#63b8ff" points="569.5,-242.97 573,-252.97 576.5,-242.97 569.5,-242.97"/>
</a>
</g>
</g>
<!-- Node13&#45;&gt;Node16 -->
<g id="edge29_Node000013_Node000016" class="edge">
<title>Node13&#45;&gt;Node16</title>
<g id="a_edge29_Node000013_Node000016"><a xlink:title=" ">
<path fill="none" stroke="#63b8ff" d="M620.11,-250.69C663.39,-240.76 726.69,-226.24 766.59,-217.08"/>
<polygon fill="#63b8ff" stroke="#63b8ff" points="619.08,-247.34 610.11,-252.98 620.64,-254.16 619.08,-247.34"/>
</a>
</g>
</g>
<!-- Node14&#45;&gt;Node4 -->
<g id="edge23_Node000014_Node000004" class="edge">
<title>Node14&#45;&gt;Node4</title>
<g id="a_edge23_Node000014_Node000004"><a xlink:title=" ">
<path fill="none" stroke="#63b8ff" d="M537.75,-134C500.63,-121.36 443.09,-101.78 410.25,-90.6"/>
<polygon fill="#63b8ff" stroke="#63b8ff" points="537.05,-137.46 547.65,-137.37 539.31,-130.83 537.05,-137.46"/>
</a>
</g>
</g>
<!-- Node14&#45;&gt;Node6 -->
<g id="edge25_Node000014_Node000006" class="edge">
<title>Node14&#45;&gt;Node6</title>
<g id="a_edge25_Node000014_Node000006"><a xlink:title=" ">
<path fill="none" stroke="#63b8ff" d="M625.88,-135.26C666.26,-126.02 717.37,-111.72 732,-96 748.83,-77.92 751.59,-47.74 751.61,-30.08"/>
<polygon fill="#63b8ff" stroke="#63b8ff" points="624.87,-131.9 615.88,-137.5 626.4,-138.73 624.87,-131.9"/>
</a>
</g>
</g>
<!-- Node14&#45;&gt;Node10 -->
<g id="edge26_Node000014_Node000010" class="edge">
<title>Node14&#45;&gt;Node10</title>
<g id="a_edge26_Node000014_Node000010"><a xlink:title=" ">
<path fill="none" stroke="#63b8ff" d="M523.78,-135.43C517.8,-134.23 511.77,-133.06 506,-132 413.01,-114.91 303.93,-98.38 241.59,-89.26"/>
<polygon fill="#63b8ff" stroke="#63b8ff" points="523.24,-138.89 533.74,-137.46 524.64,-132.03 523.24,-138.89"/>
</a>
</g>
</g>
<!-- Node15 -->
<g id="Node000015" class="node">
<title>Node15</title>
<g id="a_Node000015"><a xlink:href="file__io_8cpp.html" target="_top" xlink:title=" ">
<polygon fill="white" stroke="#666666" points="603.5,-90.5 490.5,-90.5 490.5,-71.5 603.5,-71.5 603.5,-90.5"/>
<text text-anchor="middle" x="547" y="-78.5" font-family="Helvetica,sans-Serif" font-size="10.00">src/client/file_io.cpp</text>
</a>
</g>
</g>
<!-- Node14&#45;&gt;Node15 -->
<g id="edge24_Node000014_Node000015" class="edge">
<title>Node14&#45;&gt;Node15</title>
<g id="a_edge24_Node000014_Node000015"><a xlink:title=" ">
<path fill="none" stroke="#63b8ff" d="M565.61,-127.82C560.71,-115.74 554.48,-100.41 550.62,-90.91"/>
<polygon fill="#63b8ff" stroke="#63b8ff" points="562.49,-129.42 569.49,-137.37 568.97,-126.79 562.49,-129.42"/>
</a>
</g>
</g>
<!-- Node17 -->
<g id="Node000017" class="node">
<title>Node17</title>
<g id="a_Node000017"><a xlink:href="groupdb_8hpp.html" target="_top" xlink:title=" ">
<polygon fill="white" stroke="#666666" points="883.5,-156.5 752.5,-156.5 752.5,-137.5 883.5,-137.5 883.5,-156.5"/>
<text text-anchor="middle" x="818" y="-144.5" font-family="Helvetica,sans-Serif" font-size="10.00">src/tracker/groupdb.hpp</text>
</a>
</g>
</g>
<!-- Node16&#45;&gt;Node17 -->
<g id="edge30_Node000016_Node000017" class="edge">
<title>Node16&#45;&gt;Node17</title>
<g id="a_edge30_Node000016_Node000017"><a xlink:title=" ">
<path fill="none" stroke="#63b8ff" d="M808.43,-187.99C810.94,-177.51 813.96,-164.89 815.93,-156.67"/>
<polygon fill="#63b8ff" stroke="#63b8ff" points="804.99,-187.33 806.07,-197.87 811.8,-188.96 804.99,-187.33"/>
</a>
</g>
</g>
<!-- Node18 -->
<g id="Node000018" class="node">
<title>Node18</title>
<g id="a_Node000018"><a xlink:href="groupdb_8cpp.html" target="_top" xlink:title=" ">
<polygon fill="white" stroke="#666666" points="948.5,-90.5 817.5,-90.5 817.5,-71.5 948.5,-71.5 948.5,-90.5"/>
<text text-anchor="middle" x="883" y="-78.5" font-family="Helvetica,sans-Serif" font-size="10.00">src/tracker/groupdb.cpp</text>
</a>
</g>
</g>
<!-- Node17&#45;&gt;Node18 -->
<g id="edge31_Node000017_Node000018" class="edge">
<title>Node17&#45;&gt;Node18</title>
<g id="a_edge31_Node000017_Node000018"><a xlink:title=" ">
<path fill="none" stroke="#63b8ff" d="M833.92,-130.33C846.5,-117.94 863.62,-101.09 873.96,-90.91"/>
<polygon fill="#63b8ff" stroke="#63b8ff" points="831.44,-127.86 826.77,-137.37 836.35,-132.85 831.44,-127.86"/>
</a>
</g>
</g>
<!-- Node19 -->
<g id="Node000019" class="node">
<title>Node19</title>
<g id="a_Node000019"><a xlink:href="tracker_2process__request_8cpp.html" target="_top" xlink:title=" ">
<polygon fill="white" stroke="#666666" points="1113,-96 1005,-96 1005,-66 1113,-66 1113,-96"/>
<text text-anchor="start" x="1013" y="-84" font-family="Helvetica,sans-Serif" font-size="10.00">src/tracker/process</text>
<text text-anchor="middle" x="1059" y="-73" font-family="Helvetica,sans-Serif" font-size="10.00">_request.cpp</text>
</a>
</g>
</g>
<!-- Node17&#45;&gt;Node19 -->
<g id="edge32_Node000017_Node000019" class="edge">
<title>Node17&#45;&gt;Node19</title>
<g id="a_edge32_Node000017_Node000019"><a xlink:title=" ">
<path fill="none" stroke="#63b8ff" d="M860.33,-134.76C900.84,-124 962.07,-107.74 1005.85,-96.12"/>
<polygon fill="#63b8ff" stroke="#63b8ff" points="859.27,-131.42 850.5,-137.37 861.07,-138.18 859.27,-131.42"/>
</a>
</g>
</g>
<!-- Node21 -->
<g id="Node000021" class="node">
<title>Node21</title>
<g id="a_Node000021"><a xlink:href="parse__request_8hpp.html" target="_top" xlink:title=" ">
<polygon fill="white" stroke="#666666" points="1547.5,-156.5 1386.5,-156.5 1386.5,-137.5 1547.5,-137.5 1547.5,-156.5"/>
<text text-anchor="middle" x="1467" y="-144.5" font-family="Helvetica,sans-Serif" font-size="10.00">src/tracker/parse_request.hpp</text>
</a>
</g>
</g>
<!-- Node20&#45;&gt;Node21 -->
<g id="edge35_Node000020_Node000021" class="edge">
<title>Node20&#45;&gt;Node21</title>
<g id="a_edge35_Node000020_Node000021"><a xlink:title=" ">
<path fill="none" stroke="#63b8ff" d="M1244.65,-195.82C1297.18,-184.52 1379.03,-166.92 1427.4,-156.52"/>
<polygon fill="#63b8ff" stroke="#63b8ff" points="1243.59,-192.47 1234.55,-197.99 1245.06,-199.31 1243.59,-192.47"/>
</a>
</g>
</g>
<!-- Node23 -->
<g id="Node000023" class="node">
<title>Node23</title>
<g id="a_Node000023"><a xlink:href="tracker_2process__request_8hpp.html" target="_top" xlink:title=" ">
<polygon fill="white" stroke="#666666" points="1168,-162 1060,-162 1060,-132 1168,-132 1168,-162"/>
<text text-anchor="start" x="1068" y="-150" font-family="Helvetica,sans-Serif" font-size="10.00">src/tracker/process</text>
<text text-anchor="middle" x="1114" y="-139" font-family="Helvetica,sans-Serif" font-size="10.00">_request.hpp</text>
</a>
</g>
</g>
<!-- Node20&#45;&gt;Node23 -->
<g id="edge38_Node000020_Node000023" class="edge">
<title>Node20&#45;&gt;Node23</title>
<g id="a_edge38_Node000020_Node000023"><a xlink:title=" ">
<path fill="none" stroke="#63b8ff" d="M1174.6,-191.77C1162.02,-182.68 1145.96,-171.09 1133.54,-162.11"/>
<polygon fill="#63b8ff" stroke="#63b8ff" points="1172.89,-194.85 1183.05,-197.87 1176.99,-189.18 1172.89,-194.85"/>
</a>
</g>
</g>
<!-- Node24 -->
<g id="Node000024" class="node">
<title>Node24</title>
<g id="a_Node000024"><a xlink:href="transactionsrecord_8hpp.html" target="_top" xlink:title=" ">
<polygon fill="white" stroke="#666666" points="1368,-156.5 1186,-156.5 1186,-137.5 1368,-137.5 1368,-156.5"/>
<text text-anchor="middle" x="1277" y="-144.5" font-family="Helvetica,sans-Serif" font-size="10.00">src/tracker/transactionsrecord.hpp</text>
</a>
</g>
</g>
<!-- Node20&#45;&gt;Node24 -->
<g id="edge41_Node000020_Node000024" class="edge">
<title>Node20&#45;&gt;Node24</title>
<g id="a_edge41_Node000020_Node000024"><a xlink:title=" ">
<path fill="none" stroke="#63b8ff" d="M1215.54,-191.85C1231.07,-180.77 1251.87,-165.93 1264.85,-156.67"/>
<polygon fill="#63b8ff" stroke="#63b8ff" points="1213.21,-189.21 1207.1,-197.87 1217.27,-194.91 1213.21,-189.21"/>
</a>
</g>
</g>
<!-- Node21&#45;&gt;Node12 -->
<g id="edge37_Node000021_Node000012" class="edge">
<title>Node21&#45;&gt;Node12</title>
<g id="a_edge37_Node000021_Node000012"><a xlink:title=" ">
<path fill="none" stroke="#63b8ff" d="M1420.34,-135.1C1366.37,-122.49 1278.66,-102.01 1229.45,-90.51"/>
<polygon fill="#63b8ff" stroke="#63b8ff" points="1419.8,-138.57 1430.33,-137.44 1421.39,-131.75 1419.8,-138.57"/>
</a>
</g>
</g>
<!-- Node22 -->
<g id="Node000022" class="node">
<title>Node22</title>
<g id="a_Node000022"><a xlink:href="parse__request_8cpp.html" target="_top" xlink:title=" ">
<polygon fill="white" stroke="#666666" points="1633,-90.5 1473,-90.5 1473,-71.5 1633,-71.5 1633,-90.5"/>
<text text-anchor="middle" x="1553" y="-78.5" font-family="Helvetica,sans-Serif" font-size="10.00">src/tracker/parse_request.cpp</text>
</a>
</g>
</g>
<!-- Node21&#45;&gt;Node22 -->
<g id="edge36_Node000021_Node000022" class="edge">
<title>Node21&#45;&gt;Node22</title>
<g id="a_edge36_Node000021_Node000022"><a xlink:title=" ">
<path fill="none" stroke="#63b8ff" d="M1486.71,-131.33C1503.57,-118.78 1527.29,-101.13 1541.31,-90.7"/>
<polygon fill="#63b8ff" stroke="#63b8ff" points="1484.53,-128.59 1478.6,-137.37 1488.71,-134.21 1484.53,-128.59"/>
</a>
</g>
</g>
<!-- Node23&#45;&gt;Node12 -->
<g id="edge40_Node000023_Node000012" class="edge">
<title>Node23&#45;&gt;Node12</title>
<g id="a_edge40_Node000023_Node000012"><a xlink:title=" ">
<path fill="none" stroke="#63b8ff" d="M1139.6,-125.26C1153.98,-113.61 1171.17,-99.69 1182.08,-90.84"/>
<polygon fill="#63b8ff" stroke="#63b8ff" points="1137.1,-122.78 1131.53,-131.8 1141.51,-128.22 1137.1,-122.78"/>
</a>
</g>
</g>
<!-- Node23&#45;&gt;Node19 -->
<g id="edge39_Node000023_Node000019" class="edge">
<title>Node23&#45;&gt;Node19</title>
<g id="a_edge39_Node000023_Node000019"><a xlink:title=" ">
<path fill="none" stroke="#63b8ff" d="M1095.17,-124.09C1087.23,-114.85 1078.22,-104.36 1071.17,-96.16"/>
<polygon fill="#63b8ff" stroke="#63b8ff" points="1092.62,-126.49 1101.79,-131.8 1097.93,-121.93 1092.62,-126.49"/>
</a>
</g>
</g>
<!-- Node24&#45;&gt;Node12 -->
<g id="edge43_Node000024_Node000012" class="edge">
<title>Node24&#45;&gt;Node12</title>
<g id="a_edge43_Node000024_Node000012"><a xlink:title=" ">
<path fill="none" stroke="#63b8ff" d="M1257.3,-130.99C1240.85,-118.46 1217.99,-101.04 1204.42,-90.7"/>
<polygon fill="#63b8ff" stroke="#63b8ff" points="1255.6,-134.09 1265.67,-137.37 1259.84,-128.52 1255.6,-134.09"/>
</a>
</g>
</g>
<!-- Node24&#45;&gt;Node19 -->
<g id="edge42_Node000024_Node000019" class="edge">
<title>Node24&#45;&gt;Node19</title>
<g id="a_edge42_Node000024_Node000019"><a xlink:title=" ">
<path fill="none" stroke="#63b8ff" d="M1237.77,-134.48C1201.13,-123.73 1146.34,-107.64 1107.08,-96.12"/>
<polygon fill="#63b8ff" stroke="#63b8ff" points="1237.02,-137.91 1247.6,-137.37 1238.99,-131.19 1237.02,-137.91"/>
</a>
</g>
</g>
<!-- Node25 -->
<g id="Node000025" class="node">
<title>Node25</title>
<g id="a_Node000025"><a xlink:href="transactionsrecord_8cpp.html" target="_top" xlink:title=" ">
<polygon fill="white" stroke="#666666" points="1455,-90.5 1273,-90.5 1273,-71.5 1455,-71.5 1455,-90.5"/>
<text text-anchor="middle" x="1364" y="-78.5" font-family="Helvetica,sans-Serif" font-size="10.00">src/tracker/transactionsrecord.cpp</text>
</a>
</g>
</g>
<!-- Node24&#45;&gt;Node25 -->
<g id="edge44_Node000024_Node000025" class="edge">
<title>Node24&#45;&gt;Node25</title>
<g id="a_edge44_Node000024_Node000025"><a xlink:title=" ">
<path fill="none" stroke="#63b8ff" d="M1296.94,-131.33C1314,-118.78 1337.99,-101.13 1352.17,-90.7"/>
<polygon fill="#63b8ff" stroke="#63b8ff" points="1294.71,-128.62 1288.73,-137.37 1298.86,-134.26 1294.71,-128.62"/>
</a>
</g>
</g>
</g>
</svg>
