<?xml version="1.0" encoding="UTF-8" standalone="no"?>
<!DOCTYPE svg PUBLIC "-//W3C//DTD SVG 1.1//EN"
 "http://www.w3.org/Graphics/SVG/1.1/DTD/svg11.dtd">
<!-- Generated by graphviz version 2.43.0 (0)
 -->
<!-- Title: src/models/endpoint.hpp Pages: 1 -->
<svg width="1533pt" height="335pt"
 viewBox="0.00 0.00 1533.45 335.00" xmlns="http://www.w3.org/2000/svg" xmlns:xlink="http://www.w3.org/1999/xlink">
<g id="graph0" class="graph" transform="scale(1 1) rotate(0) translate(4 331)">
<title>src/models/endpoint.hpp</title>
<!-- Node1 -->
<g id="Node000001" class="node">
<title>Node1</title>
<g id="a_Node000001"><a xlink:title=" ">
<polygon fill="#999999" stroke="#666666" points="1004.95,-327 867.95,-327 867.95,-308 1004.95,-308 1004.95,-327"/>
<text text-anchor="middle" x="936.45" y="-315" font-family="Helvetica,sans-Serif" font-size="10.00">src/models/endpoint.hpp</text>
</a>
</g>
</g>
<!-- Node2 -->
<g id="Node000002" class="node">
<title>Node2</title>
<g id="a_Node000002"><a xlink:href="load__tracker__info_8cpp.html" target="_top" xlink:title=" ">
<polygon fill="white" stroke="#666666" points="1006.45,-162 866.45,-162 866.45,-132 1006.45,-132 1006.45,-162"/>
<text text-anchor="start" x="874.45" y="-150" font-family="Helvetica,sans-Serif" font-size="10.00">src/common/load_tracker</text>
<text text-anchor="middle" x="936.45" y="-139" font-family="Helvetica,sans-Serif" font-size="10.00">_info.cpp</text>
</a>
</g>
</g>
<!-- Node1&#45;&gt;Node2 -->
<g id="edge1_Node000001_Node000002" class="edge">
<title>Node1&#45;&gt;Node2</title>
<g id="a_edge1_Node000001_Node000002"><a xlink:title=" ">
<path fill="none" stroke="#63b8ff" d="M936.45,-297.51C936.45,-263.4 936.45,-192.51 936.45,-162.22"/>
<polygon fill="#63b8ff" stroke="#63b8ff" points="932.95,-297.91 936.45,-307.91 939.95,-297.91 932.95,-297.91"/>
</a>
</g>
</g>
<!-- Node5 -->
<g id="Node000005" class="node">
<title>Node5</title>
<g id="a_Node000005"><a xlink:href="file_8hpp.html" target="_top" xlink:title=" ">
<polygon fill="white" stroke="#666666" points="635.95,-272 526.95,-272 526.95,-253 635.95,-253 635.95,-272"/>
<text text-anchor="middle" x="581.45" y="-260" font-family="Helvetica,sans-Serif" font-size="10.00">src/models/file.hpp</text>
</a>
</g>
</g>
<!-- Node1&#45;&gt;Node5 -->
<g id="edge4_Node000001_Node000005" class="edge">
<title>Node1&#45;&gt;Node5</title>
<g id="a_edge4_Node000001_Node000005"><a xlink:title=" ">
<path fill="none" stroke="#63b8ff" d="M869.29,-306.47C801.7,-296.38 698.73,-281.01 636.01,-271.65"/>
<polygon fill="#63b8ff" stroke="#63b8ff" points="869.01,-309.97 879.41,-307.98 870.04,-303.05 869.01,-309.97"/>
</a>
</g>
</g>
<!-- Node20 -->
<g id="Node000020" class="node">
<title>Node20</title>
<g id="a_Node000020"><a xlink:href="transaction_8hpp.html" target="_top" xlink:title=" ">
<polygon fill="white" stroke="#666666" points="1233.95,-217 1084.95,-217 1084.95,-198 1233.95,-198 1233.95,-217"/>
<text text-anchor="middle" x="1159.45" y="-205" font-family="Helvetica,sans-Serif" font-size="10.00">src/models/transaction.hpp</text>
</a>
</g>
</g>
<!-- Node1&#45;&gt;Node20 -->
<g id="edge24_Node000001_Node000020" class="edge">
<title>Node1&#45;&gt;Node20</title>
<g id="a_edge24_Node000001_Node000020"><a xlink:title=" ">
<path fill="none" stroke="#63b8ff" d="M963.45,-303.43C1009.72,-281.02 1102.93,-235.87 1141.8,-217.05"/>
<polygon fill="#63b8ff" stroke="#63b8ff" points="961.8,-300.34 954.32,-307.84 964.85,-306.64 961.8,-300.34"/>
</a>
</g>
</g>
<!-- Node3 -->
<g id="Node000003" class="node">
<title>Node3</title>
<g id="a_Node000003"><a xlink:href="client_8cpp.html" target="_top" xlink:title="The entrypoint to the client.">
<polygon fill="white" stroke="#666666" points="645.95,-24.5 534.95,-24.5 534.95,-5.5 645.95,-5.5 645.95,-24.5"/>
<text text-anchor="middle" x="590.45" y="-12.5" font-family="Helvetica,sans-Serif" font-size="10.00">src/client/client.cpp</text>
</a>
</g>
</g>
<!-- Node2&#45;&gt;Node3 -->
<g id="edge2_Node000002_Node000003" class="edge">
<title>Node2&#45;&gt;Node3</title>
<g id="a_edge2_Node000002_Node000003"><a xlink:title=" ">
<path fill="none" stroke="#63b8ff" d="M915.91,-124.63C895.22,-103.57 864.3,-73.49 849.45,-66 784.54,-33.26 700.53,-21.9 646.08,-17.99"/>
<polygon fill="#63b8ff" stroke="#63b8ff" points="913.54,-127.2 923.02,-131.92 918.55,-122.32 913.54,-127.2"/>
</a>
</g>
</g>
<!-- Node4 -->
<g id="Node000004" class="node">
<title>Node4</title>
<g id="a_Node000004"><a xlink:href="tracker_8cpp.html" target="_top" xlink:title="The tracker.">
<polygon fill="white" stroke="#666666" points="1147.45,-90.5 1023.45,-90.5 1023.45,-71.5 1147.45,-71.5 1147.45,-90.5"/>
<text text-anchor="middle" x="1085.45" y="-78.5" font-family="Helvetica,sans-Serif" font-size="10.00">src/tracker/tracker.cpp</text>
</a>
</g>
</g>
<!-- Node2&#45;&gt;Node4 -->
<g id="edge3_Node000002_Node000004" class="edge">
<title>Node2&#45;&gt;Node4</title>
<g id="a_edge3_Node000002_Node000004"><a xlink:title=" ">
<path fill="none" stroke="#63b8ff" d="M978.49,-127.94C1007.04,-115.68 1043.49,-100.02 1065.62,-90.52"/>
<polygon fill="#63b8ff" stroke="#63b8ff" points="976.96,-124.79 969.15,-131.95 979.72,-131.22 976.96,-124.79"/>
</a>
</g>
</g>
<!-- Node6 -->
<g id="Node000006" class="node">
<title>Node6</title>
<g id="a_Node000006"><a xlink:href="file__io_8hpp.html" target="_top" xlink:title=" ">
<polygon fill="white" stroke="#666666" points="249.45,-156.5 135.45,-156.5 135.45,-137.5 249.45,-137.5 249.45,-156.5"/>
<text text-anchor="middle" x="192.45" y="-144.5" font-family="Helvetica,sans-Serif" font-size="10.00">src/client/file_io.hpp</text>
</a>
</g>
</g>
<!-- Node5&#45;&gt;Node6 -->
<g id="edge5_Node000005_Node000006" class="edge">
<title>Node5&#45;&gt;Node6</title>
<g id="a_edge5_Node000005_Node000006"><a xlink:title=" ">
<path fill="none" stroke="#63b8ff" d="M542.29,-250.08C464.26,-227.31 290.91,-176.73 221.76,-156.55"/>
<polygon fill="#63b8ff" stroke="#63b8ff" points="541.63,-253.53 552.21,-252.97 543.59,-246.81 541.63,-253.53"/>
</a>
</g>
</g>
<!-- Node11 -->
<g id="Node000011" class="node">
<title>Node11</title>
<g id="a_Node000011"><a xlink:href="peerdb_8hpp.html" target="_top" xlink:title=" ">
<polygon fill="white" stroke="#666666" points="603.95,-217 484.95,-217 484.95,-198 603.95,-198 603.95,-217"/>
<text text-anchor="middle" x="544.45" y="-205" font-family="Helvetica,sans-Serif" font-size="10.00">src/client/peerdb.hpp</text>
</a>
</g>
</g>
<!-- Node5&#45;&gt;Node11 -->
<g id="edge10_Node000005_Node000011" class="edge">
<title>Node5&#45;&gt;Node11</title>
<g id="a_edge10_Node000005_Node000011"><a xlink:title=" ">
<path fill="none" stroke="#63b8ff" d="M569.5,-244.39C563.14,-235.27 555.58,-224.45 550.45,-217.09"/>
<polygon fill="#63b8ff" stroke="#63b8ff" points="566.75,-246.55 575.34,-252.75 572.49,-242.55 566.75,-246.55"/>
</a>
</g>
</g>
<!-- Node16 -->
<g id="Node000016" class="node">
<title>Node16</title>
<g id="a_Node000016"><a xlink:href="group_8hpp.html" target="_top" xlink:title=" ">
<polygon fill="white" stroke="#666666" points="777.45,-217 655.45,-217 655.45,-198 777.45,-198 777.45,-217"/>
<text text-anchor="middle" x="716.45" y="-205" font-family="Helvetica,sans-Serif" font-size="10.00">src/models/group.hpp</text>
</a>
</g>
</g>
<!-- Node5&#45;&gt;Node16 -->
<g id="edge20_Node000005_Node000016" class="edge">
<title>Node5&#45;&gt;Node16</title>
<g id="a_edge20_Node000005_Node000016"><a xlink:title=" ">
<path fill="none" stroke="#63b8ff" d="M612.55,-249.29C637.57,-239.47 672.11,-225.91 694.37,-217.17"/>
<polygon fill="#63b8ff" stroke="#63b8ff" points="611.17,-246.07 603.14,-252.98 613.73,-252.59 611.17,-246.07"/>
</a>
</g>
</g>
<!-- Node7 -->
<g id="Node000007" class="node">
<title>Node7</title>
<g id="a_Node000007"><a xlink:href="downloadmanager_8cpp.html" target="_top" xlink:title=" ">
<polygon fill="white" stroke="#666666" points="323.45,-90.5 149.45,-90.5 149.45,-71.5 323.45,-71.5 323.45,-90.5"/>
<text text-anchor="middle" x="236.45" y="-78.5" font-family="Helvetica,sans-Serif" font-size="10.00">src/client/downloadmanager.cpp</text>
</a>
</g>
</g>
<!-- Node6&#45;&gt;Node7 -->
<g id="edge6_Node000006_Node000007" class="edge">
<title>Node6&#45;&gt;Node7</title>
<g id="a_edge6_Node000006_Node000007"><a xlink:title=" ">
<path fill="none" stroke="#63b8ff" d="M204.2,-128.91C212.61,-116.68 223.59,-100.7 230.33,-90.91"/>
<polygon fill="#63b8ff" stroke="#63b8ff" points="201.17,-127.15 198.38,-137.37 206.93,-131.11 201.17,-127.15"/>
</a>
</g>
</g>
<!-- Node8 -->
<g id="Node000008" class="node">
<title>Node8</title>
<g id="a_Node000008"><a xlink:href="file__io_8cpp.html" target="_top" xlink:title=" ">
<polygon fill="white" stroke="#666666" points="130.95,-90.5 17.95,-90.5 17.95,-71.5 130.95,-71.5 130.95,-90.5"/>
<text text-anchor="middle" x="74.45" y="-78.5" font-family="Helvetica,sans-Serif" font-size="10.00">src/client/file_io.cpp</text>
</a>
</g>
</g>
<!-- Node6&#45;&gt;Node8 -->
<g id="edge7_Node000006_Node000008" class="edge">
<title>Node6&#45;&gt;Node8</title>
<g id="a_edge7_Node000006_Node000008"><a xlink:title=" ">
<path fill="none" stroke="#63b8ff" d="M167.61,-132.53C144.37,-119.92 110.34,-101.47 90.49,-90.7"/>
<polygon fill="#63b8ff" stroke="#63b8ff" points="166.08,-135.68 176.54,-137.37 169.41,-129.52 166.08,-135.68"/>
</a>
</g>
</g>
<!-- Node9 -->
<g id="Node000009" class="node">
<title>Node9</title>
<g id="a_Node000009"><a xlink:href="process__input_8cpp.html" target="_top" xlink:title=" ">
<polygon fill="white" stroke="#666666" points="241.95,-30 140.95,-30 140.95,0 241.95,0 241.95,-30"/>
<text text-anchor="start" x="148.95" y="-18" font-family="Helvetica,sans-Serif" font-size="10.00">src/client/process</text>
<text text-anchor="middle" x="191.45" y="-7" font-family="Helvetica,sans-Serif" font-size="10.00">_input.cpp</text>
</a>
</g>
</g>
<!-- Node6&#45;&gt;Node9 -->
<g id="edge8_Node000006_Node000009" class="edge">
<title>Node6&#45;&gt;Node9</title>
<g id="a_edge8_Node000006_Node000009"><a xlink:title=" ">
<path fill="none" stroke="#63b8ff" d="M124.96,-136.37C78.56,-128.2 22.83,-114.8 8.45,-96 -29.09,-46.9 74.37,-27.39 140.68,-20.07"/>
<polygon fill="#63b8ff" stroke="#63b8ff" points="124.55,-139.85 135,-138.08 125.73,-132.95 124.55,-139.85"/>
</a>
</g>
</g>
<!-- Node10 -->
<g id="Node000010" class="node">
<title>Node10</title>
<g id="a_Node000010"><a xlink:href="client_2process__request_8cpp.html" target="_top" xlink:title=" ">
<polygon fill="white" stroke="#666666" points="561.95,-96 460.95,-96 460.95,-66 561.95,-66 561.95,-96"/>
<text text-anchor="start" x="468.95" y="-84" font-family="Helvetica,sans-Serif" font-size="10.00">src/client/process</text>
<text text-anchor="middle" x="511.45" y="-73" font-family="Helvetica,sans-Serif" font-size="10.00">_request.cpp</text>
</a>
</g>
</g>
<!-- Node6&#45;&gt;Node10 -->
<g id="edge9_Node000006_Node000010" class="edge">
<title>Node6&#45;&gt;Node10</title>
<g id="a_edge9_Node000006_Node000010"><a xlink:title=" ">
<path fill="none" stroke="#63b8ff" d="M241.84,-135.38C247.44,-134.22 253.07,-133.07 258.45,-132 344.02,-114.95 366.05,-113.92 451.45,-96 454.49,-95.36 457.6,-94.69 460.75,-94"/>
<polygon fill="#63b8ff" stroke="#63b8ff" points="240.92,-132 231.85,-137.48 242.36,-138.85 240.92,-132"/>
</a>
</g>
</g>
<!-- Node12 -->
<g id="Node000012" class="node">
<title>Node12</title>
<g id="a_Node000012"><a xlink:href="downloadmanager_8hpp.html" target="_top" xlink:title=" ">
<polygon fill="white" stroke="#666666" points="442.95,-156.5 267.95,-156.5 267.95,-137.5 442.95,-137.5 442.95,-156.5"/>
<text text-anchor="middle" x="355.45" y="-144.5" font-family="Helvetica,sans-Serif" font-size="10.00">src/client/downloadmanager.hpp</text>
</a>
</g>
</g>
<!-- Node11&#45;&gt;Node12 -->
<g id="edge11_Node000011_Node000012" class="edge">
<title>Node11&#45;&gt;Node12</title>
<g id="a_edge11_Node000011_Node000012"><a xlink:title=" ">
<path fill="none" stroke="#63b8ff" d="M507.18,-194.96C470.62,-183.65 415.73,-166.66 382.97,-156.52"/>
<polygon fill="#63b8ff" stroke="#63b8ff" points="506.38,-198.38 516.97,-197.99 508.45,-191.69 506.38,-198.38"/>
</a>
</g>
</g>
<!-- Node14 -->
<g id="Node000014" class="node">
<title>Node14</title>
<g id="a_Node000014"><a xlink:href="peerdb_8cpp.html" target="_top" xlink:title=" ">
<polygon fill="white" stroke="#666666" points="698.45,-156.5 580.45,-156.5 580.45,-137.5 698.45,-137.5 698.45,-156.5"/>
<text text-anchor="middle" x="639.45" y="-144.5" font-family="Helvetica,sans-Serif" font-size="10.00">src/client/peerdb.cpp</text>
</a>
</g>
</g>
<!-- Node11&#45;&gt;Node14 -->
<g id="edge16_Node000011_Node000014" class="edge">
<title>Node11&#45;&gt;Node14</title>
<g id="a_edge16_Node000011_Node000014"><a xlink:title=" ">
<path fill="none" stroke="#63b8ff" d="M567.24,-192.47C585.33,-181.32 610.06,-166.1 625.37,-156.67"/>
<polygon fill="#63b8ff" stroke="#63b8ff" points="565.15,-189.64 558.47,-197.87 568.82,-195.6 565.15,-189.64"/>
</a>
</g>
</g>
<!-- Node15 -->
<g id="Node000015" class="node">
<title>Node15</title>
<g id="a_Node000015"><a xlink:href="client_2process__request_8hpp.html" target="_top" xlink:title=" ">
<polygon fill="white" stroke="#666666" points="561.95,-162 460.95,-162 460.95,-132 561.95,-132 561.95,-162"/>
<text text-anchor="start" x="468.95" y="-150" font-family="Helvetica,sans-Serif" font-size="10.00">src/client/process</text>
<text text-anchor="middle" x="511.45" y="-139" font-family="Helvetica,sans-Serif" font-size="10.00">_request.hpp</text>
</a>
</g>
</g>
<!-- Node11&#45;&gt;Node15 -->
<g id="edge17_Node000011_Node000015" class="edge">
<title>Node11&#45;&gt;Node15</title>
<g id="a_edge17_Node000011_Node000015"><a xlink:title=" ">
<path fill="none" stroke="#63b8ff" d="M534.61,-189.05C529.76,-180.45 523.98,-170.21 519.41,-162.11"/>
<polygon fill="#63b8ff" stroke="#63b8ff" points="531.62,-190.88 539.58,-197.87 537.72,-187.44 531.62,-190.88"/>
</a>
</g>
</g>
<!-- Node12&#45;&gt;Node7 -->
<g id="edge12_Node000012_Node000007" class="edge">
<title>Node12&#45;&gt;Node7</title>
<g id="a_edge12_Node000012_Node000007"><a xlink:title=" ">
<path fill="none" stroke="#63b8ff" d="M330.4,-132.53C306.96,-119.92 272.65,-101.47 252.62,-90.7"/>
<polygon fill="#63b8ff" stroke="#63b8ff" points="328.94,-135.71 339.4,-137.37 332.25,-129.55 328.94,-135.71"/>
</a>
</g>
</g>
<!-- Node13 -->
<g id="Node000013" class="node">
<title>Node13</title>
<g id="a_Node000013"><a xlink:href="process__input_8hpp.html" target="_top" xlink:title=" ">
<polygon fill="white" stroke="#666666" points="442.95,-96 341.95,-96 341.95,-66 442.95,-66 442.95,-96"/>
<text text-anchor="start" x="349.95" y="-84" font-family="Helvetica,sans-Serif" font-size="10.00">src/client/process</text>
<text text-anchor="middle" x="392.45" y="-73" font-family="Helvetica,sans-Serif" font-size="10.00">_input.hpp</text>
</a>
</g>
</g>
<!-- Node12&#45;&gt;Node13 -->
<g id="edge13_Node000012_Node000013" class="edge">
<title>Node12&#45;&gt;Node13</title>
<g id="a_edge13_Node000012_Node000013"><a xlink:title=" ">
<path fill="none" stroke="#63b8ff" d="M365.5,-128.61C371.35,-118.5 378.63,-105.91 384.15,-96.36"/>
<polygon fill="#63b8ff" stroke="#63b8ff" points="362.41,-126.96 360.44,-137.37 368.47,-130.46 362.41,-126.96"/>
</a>
</g>
</g>
<!-- Node13&#45;&gt;Node3 -->
<g id="edge14_Node000013_Node000003" class="edge">
<title>Node13&#45;&gt;Node3</title>
<g id="a_edge14_Node000013_Node000003"><a xlink:title=" ">
<path fill="none" stroke="#63b8ff" d="M445.86,-62.74C484.14,-50.36 534.05,-34.23 564.1,-24.52"/>
<polygon fill="#63b8ff" stroke="#63b8ff" points="444.34,-59.55 435.9,-65.95 446.49,-66.21 444.34,-59.55"/>
</a>
</g>
</g>
<!-- Node13&#45;&gt;Node9 -->
<g id="edge15_Node000013_Node000009" class="edge">
<title>Node13&#45;&gt;Node9</title>
<g id="a_edge15_Node000013_Node000009"><a xlink:title=" ">
<path fill="none" stroke="#63b8ff" d="M338.61,-62.86C306.33,-52.58 265.81,-39.68 235.46,-30.01"/>
<polygon fill="#63b8ff" stroke="#63b8ff" points="337.75,-66.26 348.34,-65.95 339.87,-59.59 337.75,-66.26"/>
</a>
</g>
</g>
<!-- Node15&#45;&gt;Node3 -->
<g id="edge18_Node000015_Node000003" class="edge">
<title>Node15&#45;&gt;Node3</title>
<g id="a_edge18_Node000015_Node000003"><a xlink:title=" ">
<path fill="none" stroke="#63b8ff" d="M542.27,-125.87C552.59,-117.73 563.29,-107.52 570.45,-96 584.82,-72.9 588.87,-40.02 590.01,-24.6"/>
<polygon fill="#63b8ff" stroke="#63b8ff" points="540.06,-123.16 534.14,-131.95 544.25,-128.76 540.06,-123.16"/>
</a>
</g>
</g>
<!-- Node15&#45;&gt;Node10 -->
<g id="edge19_Node000015_Node000010" class="edge">
<title>Node15&#45;&gt;Node10</title>
<g id="a_edge19_Node000015_Node000010"><a xlink:title=" ">
<path fill="none" stroke="#63b8ff" d="M511.45,-121.54C511.45,-112.96 511.45,-103.61 511.45,-96.16"/>
<polygon fill="#63b8ff" stroke="#63b8ff" points="507.95,-121.8 511.45,-131.8 514.95,-121.8 507.95,-121.8"/>
</a>
</g>
</g>
<!-- Node17 -->
<g id="Node000017" class="node">
<title>Node17</title>
<g id="a_Node000017"><a xlink:href="groupdb_8hpp.html" target="_top" xlink:title=" ">
<polygon fill="white" stroke="#666666" points="847.95,-156.5 716.95,-156.5 716.95,-137.5 847.95,-137.5 847.95,-156.5"/>
<text text-anchor="middle" x="782.45" y="-144.5" font-family="Helvetica,sans-Serif" font-size="10.00">src/tracker/groupdb.hpp</text>
</a>
</g>
</g>
<!-- Node16&#45;&gt;Node17 -->
<g id="edge21_Node000016_Node000017" class="edge">
<title>Node16&#45;&gt;Node17</title>
<g id="a_edge21_Node000016_Node000017"><a xlink:title=" ">
<path fill="none" stroke="#63b8ff" d="M733.68,-191.22C746.1,-180.21 762.42,-165.75 772.67,-156.67"/>
<polygon fill="#63b8ff" stroke="#63b8ff" points="731.35,-188.62 726.19,-197.87 735.99,-193.85 731.35,-188.62"/>
</a>
</g>
</g>
<!-- Node18 -->
<g id="Node000018" class="node">
<title>Node18</title>
<g id="a_Node000018"><a xlink:href="groupdb_8cpp.html" target="_top" xlink:title=" ">
<polygon fill="white" stroke="#666666" points="840.95,-90.5 709.95,-90.5 709.95,-71.5 840.95,-71.5 840.95,-90.5"/>
<text text-anchor="middle" x="775.45" y="-78.5" font-family="Helvetica,sans-Serif" font-size="10.00">src/tracker/groupdb.cpp</text>
</a>
</g>
</g>
<!-- Node17&#45;&gt;Node18 -->
<g id="edge22_Node000017_Node000018" class="edge">
<title>Node17&#45;&gt;Node18</title>
<g id="a_edge22_Node000017_Node000018"><a xlink:title=" ">
<path fill="none" stroke="#63b8ff" d="M780.38,-127.08C779.07,-115.13 777.44,-100.22 776.42,-90.91"/>
<polygon fill="#63b8ff" stroke="#63b8ff" points="776.94,-127.81 781.51,-137.37 783.9,-127.05 776.94,-127.81"/>
</a>
</g>
</g>
<!-- Node19 -->
<g id="Node000019" class="node">
<title>Node19</title>
<g id="a_Node000019"><a xlink:href="tracker_2process__request_8cpp.html" target="_top" xlink:title=" ">
<polygon fill="white" stroke="#666666" points="1005.45,-96 897.45,-96 897.45,-66 1005.45,-66 1005.45,-96"/>
<text text-anchor="start" x="905.45" y="-84" font-family="Helvetica,sans-Serif" font-size="10.00">src/tracker/process</text>
<text text-anchor="middle" x="951.45" y="-73" font-family="Helvetica,sans-Serif" font-size="10.00">_request.cpp</text>
</a>
</g>
</g>
<!-- Node17&#45;&gt;Node19 -->
<g id="edge23_Node000017_Node000019" class="edge">
<title>Node17&#45;&gt;Node19</title>
<g id="a_edge23_Node000017_Node000019"><a xlink:title=" ">
<path fill="none" stroke="#63b8ff" d="M814.7,-133.79C843.07,-123.04 884.39,-107.4 914.18,-96.12"/>
<polygon fill="#63b8ff" stroke="#63b8ff" points="813.35,-130.55 805.24,-137.37 815.83,-137.1 813.35,-130.55"/>
</a>
</g>
</g>
<!-- Node21 -->
<g id="Node000021" class="node">
<title>Node21</title>
<g id="a_Node000021"><a xlink:href="parse__request_8hpp.html" target="_top" xlink:title=" ">
<polygon fill="white" stroke="#666666" points="1511.95,-156.5 1350.95,-156.5 1350.95,-137.5 1511.95,-137.5 1511.95,-156.5"/>
<text text-anchor="middle" x="1431.45" y="-144.5" font-family="Helvetica,sans-Serif" font-size="10.00">src/tracker/parse_request.hpp</text>
</a>
</g>
</g>
<!-- Node20&#45;&gt;Node21 -->
<g id="edge25_Node000020_Node000021" class="edge">
<title>Node20&#45;&gt;Node21</title>
<g id="a_edge25_Node000020_Node000021"><a xlink:title=" ">
<path fill="none" stroke="#63b8ff" d="M1209.1,-195.82C1261.63,-184.52 1343.48,-166.92 1391.85,-156.52"/>
<polygon fill="#63b8ff" stroke="#63b8ff" points="1208.04,-192.47 1199,-197.99 1209.51,-199.31 1208.04,-192.47"/>
</a>
</g>
</g>
<!-- Node23 -->
<g id="Node000023" class="node">
<title>Node23</title>
<g id="a_Node000023"><a xlink:href="tracker_2process__request_8hpp.html" target="_top" xlink:title=" ">
<polygon fill="white" stroke="#666666" points="1132.45,-162 1024.45,-162 1024.45,-132 1132.45,-132 1132.45,-162"/>
<text text-anchor="start" x="1032.45" y="-150" font-family="Helvetica,sans-Serif" font-size="10.00">src/tracker/process</text>
<text text-anchor="middle" x="1078.45" y="-139" font-family="Helvetica,sans-Serif" font-size="10.00">_request.hpp</text>
</a>
</g>
</g>
<!-- Node20&#45;&gt;Node23 -->
<g id="edge28_Node000020_Node000023" class="edge">
<title>Node20&#45;&gt;Node23</title>
<g id="a_edge28_Node000020_Node000023"><a xlink:title=" ">
<path fill="none" stroke="#63b8ff" d="M1139.05,-191.77C1126.47,-182.68 1110.41,-171.09 1097.99,-162.11"/>
<polygon fill="#63b8ff" stroke="#63b8ff" points="1137.34,-194.85 1147.5,-197.87 1141.44,-189.18 1137.34,-194.85"/>
</a>
</g>
</g>
<!-- Node24 -->
<g id="Node000024" class="node">
<title>Node24</title>
<g id="a_Node000024"><a xlink:href="transactionsrecord_8hpp.html" target="_top" xlink:title=" ">
<polygon fill="white" stroke="#666666" points="1332.45,-156.5 1150.45,-156.5 1150.45,-137.5 1332.45,-137.5 1332.45,-156.5"/>
<text text-anchor="middle" x="1241.45" y="-144.5" font-family="Helvetica,sans-Serif" font-size="10.00">src/tracker/transactionsrecord.hpp</text>
</a>
</g>
</g>
<!-- Node20&#45;&gt;Node24 -->
<g id="edge31_Node000020_Node000024" class="edge">
<title>Node20&#45;&gt;Node24</title>
<g id="a_edge31_Node000020_Node000024"><a xlink:title=" ">
<path fill="none" stroke="#63b8ff" d="M1179.99,-191.85C1195.52,-180.77 1216.32,-165.93 1229.3,-156.67"/>
<polygon fill="#63b8ff" stroke="#63b8ff" points="1177.66,-189.21 1171.55,-197.87 1181.72,-194.91 1177.66,-189.21"/>
</a>
</g>
</g>
<!-- Node21&#45;&gt;Node4 -->
<g id="edge27_Node000021_Node000004" class="edge">
<title>Node21&#45;&gt;Node4</title>
<g id="a_edge27_Node000021_Node000004"><a xlink:title=" ">
<path fill="none" stroke="#63b8ff" d="M1373.19,-135.67C1317.49,-125.73 1231.18,-110.16 1156.45,-96 1147.32,-94.27 1137.53,-92.37 1128.23,-90.54"/>
<polygon fill="#63b8ff" stroke="#63b8ff" points="1372.76,-139.15 1383.22,-137.45 1373.99,-132.25 1372.76,-139.15"/>
</a>
</g>
</g>
<!-- Node22 -->
<g id="Node000022" class="node">
<title>Node22</title>
<g id="a_Node000022"><a xlink:href="parse__request_8cpp.html" target="_top" xlink:title=" ">
<polygon fill="white" stroke="#666666" points="1525.45,-90.5 1365.45,-90.5 1365.45,-71.5 1525.45,-71.5 1525.45,-90.5"/>
<text text-anchor="middle" x="1445.45" y="-78.5" font-family="Helvetica,sans-Serif" font-size="10.00">src/tracker/parse_request.cpp</text>
</a>
</g>
</g>
<!-- Node21&#45;&gt;Node22 -->
<g id="edge26_Node000021_Node000022" class="edge">
<title>Node21&#45;&gt;Node22</title>
<g id="a_edge26_Node000021_Node000022"><a xlink:title=" ">
<path fill="none" stroke="#63b8ff" d="M1435.51,-127.45C1438.14,-115.43 1441.44,-100.32 1443.5,-90.91"/>
<polygon fill="#63b8ff" stroke="#63b8ff" points="1432.06,-126.85 1433.34,-137.37 1438.89,-128.35 1432.06,-126.85"/>
</a>
</g>
</g>
<!-- Node23&#45;&gt;Node4 -->
<g id="edge30_Node000023_Node000004" class="edge">
<title>Node23&#45;&gt;Node4</title>
<g id="a_edge30_Node000023_Node000004"><a xlink:title=" ">
<path fill="none" stroke="#63b8ff" d="M1081.12,-121.6C1082.3,-110.8 1083.61,-98.78 1084.48,-90.84"/>
<polygon fill="#63b8ff" stroke="#63b8ff" points="1077.61,-121.48 1080,-131.8 1084.57,-122.24 1077.61,-121.48"/>
</a>
</g>
</g>
<!-- Node23&#45;&gt;Node19 -->
<g id="edge29_Node000023_Node000019" class="edge">
<title>Node23&#45;&gt;Node19</title>
<g id="a_edge29_Node000023_Node000019"><a xlink:title=" ">
<path fill="none" stroke="#63b8ff" d="M1041.5,-127.38C1021.62,-117.36 997.52,-105.22 979.26,-96.01"/>
<polygon fill="#63b8ff" stroke="#63b8ff" points="1040.07,-130.58 1050.58,-131.95 1043.22,-124.33 1040.07,-130.58"/>
</a>
</g>
</g>
<!-- Node24&#45;&gt;Node4 -->
<g id="edge33_Node000024_Node000004" class="edge">
<title>Node24&#45;&gt;Node4</title>
<g id="a_edge33_Node000024_Node000004"><a xlink:title=" ">
<path fill="none" stroke="#63b8ff" d="M1211.01,-133.51C1180.17,-120.86 1133.3,-101.63 1106.4,-90.6"/>
<polygon fill="#63b8ff" stroke="#63b8ff" points="1209.83,-136.81 1220.41,-137.37 1212.49,-130.33 1209.83,-136.81"/>
</a>
</g>
</g>
<!-- Node24&#45;&gt;Node19 -->
<g id="edge32_Node000024_Node000019" class="edge">
<title>Node24&#45;&gt;Node19</title>
<g id="a_edge32_Node000024_Node000019"><a xlink:title=" ">
<path fill="none" stroke="#63b8ff" d="M1192.49,-135.24C1146.51,-125.14 1075.81,-109.57 1014.45,-96 1011.61,-95.37 1008.69,-94.72 1005.74,-94.07"/>
<polygon fill="#63b8ff" stroke="#63b8ff" points="1191.96,-138.71 1202.48,-137.44 1193.47,-131.87 1191.96,-138.71"/>
</a>
</g>
</g>
<!-- Node25 -->
<g id="Node000025" class="node">
<title>Node25</title>
<g id="a_Node000025"><a xlink:href="transactionsrecord_8cpp.html" target="_top" xlink:title=" ">
<polygon fill="white" stroke="#666666" points="1347.45,-90.5 1165.45,-90.5 1165.45,-71.5 1347.45,-71.5 1347.45,-90.5"/>
<text text-anchor="middle" x="1256.45" y="-78.5" font-family="Helvetica,sans-Serif" font-size="10.00">src/tracker/transactionsrecord.cpp</text>
</a>
</g>
</g>
<!-- Node24&#45;&gt;Node25 -->
<g id="edge34_Node000024_Node000025" class="edge">
<title>Node24&#45;&gt;Node25</title>
<g id="a_edge34_Node000024_Node000025"><a xlink:title=" ">
<path fill="none" stroke="#63b8ff" d="M1245.8,-127.45C1248.61,-115.43 1252.16,-100.32 1254.36,-90.91"/>
<polygon fill="#63b8ff" stroke="#63b8ff" points="1242.35,-126.83 1243.47,-137.37 1249.16,-128.43 1242.35,-126.83"/>
</a>
</g>
</g>
</g>
</svg>
