<?xml version="1.0" encoding="UTF-8" standalone="no"?>
<!DOCTYPE svg PUBLIC "-//W3C//DTD SVG 1.1//EN"
 "http://www.w3.org/Graphics/SVG/1.1/DTD/svg11.dtd">
<!-- Generated by graphviz version 2.43.0 (0)
 -->
<!-- Title: src/models/endpoint.hpp Pages: 1 -->
<svg width="758pt" height="225pt"
 viewBox="0.00 0.00 757.50 225.00" xmlns="http://www.w3.org/2000/svg" xmlns:xlink="http://www.w3.org/1999/xlink">
<g id="graph0" class="graph" transform="scale(1 1) rotate(0) translate(4 221)">
<title>src/models/endpoint.hpp</title>
<!-- Node1 -->
<g id="Node000001" class="node">
<title>Node1</title>
<g id="a_Node000001"><a xlink:title=" ">
<polygon fill="#999999" stroke="#666666" points="269,-217 132,-217 132,-198 269,-198 269,-217"/>
<text text-anchor="middle" x="200.5" y="-205" font-family="Helvetica,sans-Serif" font-size="10.00">src/models/endpoint.hpp</text>
</a>
</g>
</g>
<!-- Node2 -->
<g id="Node000002" class="node">
<title>Node2</title>
<g id="a_Node000002"><a xlink:href="client_8cpp.html" target="_top" xlink:title="The entrypoint to the client.">
<polygon fill="white" stroke="#666666" points="205,-90.5 94,-90.5 94,-71.5 205,-71.5 205,-90.5"/>
<text text-anchor="middle" x="149.5" y="-78.5" font-family="Helvetica,sans-Serif" font-size="10.00">src/client/client.cpp</text>
</a>
</g>
</g>
<!-- Node1&#45;&gt;Node2 -->
<g id="edge1_Node000001_Node000002" class="edge">
<title>Node1&#45;&gt;Node2</title>
<g id="a_edge1_Node000001_Node000002"><a xlink:title=" ">
<path fill="none" stroke="#63b8ff" d="M187.21,-189.71C181.4,-181.7 174.91,-171.74 170.5,-162 159.37,-137.41 153.26,-105.79 150.8,-90.73"/>
<polygon fill="#63b8ff" stroke="#63b8ff" points="184.52,-191.96 193.35,-197.83 190.11,-187.74 184.52,-191.96"/>
</a>
</g>
</g>
<!-- Node3 -->
<g id="Node000003" class="node">
<title>Node3</title>
<g id="a_Node000003"><a xlink:href="generate__id_8cpp.html" target="_top" xlink:title=" ">
<polygon fill="white" stroke="#666666" points="123,-162 0,-162 0,-132 123,-132 123,-162"/>
<text text-anchor="start" x="8" y="-150" font-family="Helvetica,sans-Serif" font-size="10.00">src/common/generate</text>
<text text-anchor="middle" x="61.5" y="-139" font-family="Helvetica,sans-Serif" font-size="10.00">_id.cpp</text>
</a>
</g>
</g>
<!-- Node1&#45;&gt;Node3 -->
<g id="edge2_Node000001_Node000003" class="edge">
<title>Node1&#45;&gt;Node3</title>
<g id="a_edge2_Node000001_Node000003"><a xlink:title=" ">
<path fill="none" stroke="#63b8ff" d="M170.99,-194.08C148.71,-184.7 118.1,-171.82 94.92,-162.06"/>
<polygon fill="#63b8ff" stroke="#63b8ff" points="169.71,-197.34 180.29,-197.99 172.43,-190.89 169.71,-197.34"/>
</a>
</g>
</g>
<!-- Node5 -->
<g id="Node000005" class="node">
<title>Node5</title>
<g id="a_Node000005"><a xlink:href="load__tracker__info_8cpp.html" target="_top" xlink:title=" ">
<polygon fill="white" stroke="#666666" points="319.5,-162 179.5,-162 179.5,-132 319.5,-132 319.5,-162"/>
<text text-anchor="start" x="187.5" y="-150" font-family="Helvetica,sans-Serif" font-size="10.00">src/common/load_tracker</text>
<text text-anchor="middle" x="249.5" y="-139" font-family="Helvetica,sans-Serif" font-size="10.00">_info.cpp</text>
</a>
</g>
</g>
<!-- Node1&#45;&gt;Node5 -->
<g id="edge5_Node000001_Node000005" class="edge">
<title>Node1&#45;&gt;Node5</title>
<g id="a_edge5_Node000001_Node000005"><a xlink:title=" ">
<path fill="none" stroke="#63b8ff" d="M214.19,-190.15C221.58,-181.34 230.6,-170.56 237.68,-162.11"/>
<polygon fill="#63b8ff" stroke="#63b8ff" points="211.47,-187.95 207.73,-197.87 216.83,-192.45 211.47,-187.95"/>
</a>
</g>
</g>
<!-- Node6 -->
<g id="Node000006" class="node">
<title>Node6</title>
<g id="a_Node000006"><a xlink:href="transaction_8hpp.html" target="_top" xlink:title=" ">
<polygon fill="white" stroke="#666666" points="528,-156.5 379,-156.5 379,-137.5 528,-137.5 528,-156.5"/>
<text text-anchor="middle" x="453.5" y="-144.5" font-family="Helvetica,sans-Serif" font-size="10.00">src/models/transaction.hpp</text>
</a>
</g>
</g>
<!-- Node1&#45;&gt;Node6 -->
<g id="edge8_Node000001_Node000006" class="edge">
<title>Node1&#45;&gt;Node6</title>
<g id="a_edge8_Node000001_Node000006"><a xlink:title=" ">
<path fill="none" stroke="#63b8ff" d="M247.29,-195.68C296.18,-184.38 371.87,-166.88 416.67,-156.52"/>
<polygon fill="#63b8ff" stroke="#63b8ff" points="246.24,-192.33 237.29,-197.99 247.82,-199.15 246.24,-192.33"/>
</a>
</g>
</g>
<!-- Node3&#45;&gt;Node2 -->
<g id="edge3_Node000003_Node000002" class="edge">
<title>Node3&#45;&gt;Node2</title>
<g id="a_edge3_Node000003_Node000002"><a xlink:title=" ">
<path fill="none" stroke="#63b8ff" d="M89.17,-125.87C105.46,-114.03 125.23,-99.65 137.59,-90.66"/>
<polygon fill="#63b8ff" stroke="#63b8ff" points="87.06,-123.08 81.03,-131.8 91.18,-128.75 87.06,-123.08"/>
</a>
</g>
</g>
<!-- Node4 -->
<g id="Node000004" class="node">
<title>Node4</title>
<g id="a_Node000004"><a xlink:href="tracker_8cpp.html" target="_top" xlink:title="The tracker.">
<polygon fill="white" stroke="#666666" points="414.5,-24.5 290.5,-24.5 290.5,-5.5 414.5,-5.5 414.5,-24.5"/>
<text text-anchor="middle" x="352.5" y="-12.5" font-family="Helvetica,sans-Serif" font-size="10.00">src/tracker/tracker.cpp</text>
</a>
</g>
</g>
<!-- Node3&#45;&gt;Node4 -->
<g id="edge4_Node000003_Node000004" class="edge">
<title>Node3&#45;&gt;Node4</title>
<g id="a_edge4_Node000003_Node000004"><a xlink:title=" ">
<path fill="none" stroke="#63b8ff" d="M61.97,-121.77C63.67,-103.79 68.99,-80.04 84.5,-66 150.48,-6.26 194.06,-46.61 281.5,-30 290.63,-28.27 300.42,-26.36 309.72,-24.54"/>
<polygon fill="#63b8ff" stroke="#63b8ff" points="58.47,-121.63 61.33,-131.83 65.46,-122.07 58.47,-121.63"/>
</a>
</g>
</g>
<!-- Node5&#45;&gt;Node2 -->
<g id="edge6_Node000005_Node000002" class="edge">
<title>Node5&#45;&gt;Node2</title>
<g id="a_edge6_Node000005_Node000002"><a xlink:title=" ">
<path fill="none" stroke="#63b8ff" d="M218.81,-126.36C200.16,-114.42 177.27,-99.77 163.03,-90.66"/>
<polygon fill="#63b8ff" stroke="#63b8ff" points="217,-129.35 227.31,-131.8 220.77,-123.46 217,-129.35"/>
</a>
</g>
</g>
<!-- Node5&#45;&gt;Node4 -->
<g id="edge7_Node000005_Node000004" class="edge">
<title>Node5&#45;&gt;Node4</title>
<g id="a_edge7_Node000005_Node000004"><a xlink:title=" ">
<path fill="none" stroke="#63b8ff" d="M244.27,-121.49C242.05,-104.57 242,-82.29 252.5,-66 266.48,-44.3 292.93,-31.65 315.11,-24.51"/>
<polygon fill="#63b8ff" stroke="#63b8ff" points="240.88,-122.41 245.96,-131.71 247.78,-121.27 240.88,-122.41"/>
</a>
</g>
</g>
<!-- Node7 -->
<g id="Node000007" class="node">
<title>Node7</title>
<g id="a_Node000007"><a xlink:href="parse__request_8hpp.html" target="_top" xlink:title=" ">
<polygon fill="white" stroke="#666666" points="423,-90.5 262,-90.5 262,-71.5 423,-71.5 423,-90.5"/>
<text text-anchor="middle" x="342.5" y="-78.5" font-family="Helvetica,sans-Serif" font-size="10.00">src/tracker/parse_request.hpp</text>
</a>
</g>
</g>
<!-- Node6&#45;&gt;Node7 -->
<g id="edge9_Node000006_Node000007" class="edge">
<title>Node6&#45;&gt;Node7</title>
<g id="a_edge9_Node000006_Node000007"><a xlink:title=" ">
<path fill="none" stroke="#63b8ff" d="M429.84,-132.36C407.99,-119.76 376.18,-101.42 357.59,-90.7"/>
<polygon fill="#63b8ff" stroke="#63b8ff" points="428.12,-135.41 438.53,-137.37 431.62,-129.34 428.12,-135.41"/>
</a>
</g>
</g>
<!-- Node9 -->
<g id="Node000009" class="node">
<title>Node9</title>
<g id="a_Node000009"><a xlink:href="process__request_8hpp.html" target="_top" xlink:title=" ">
<polygon fill="white" stroke="#666666" points="549.5,-96 441.5,-96 441.5,-66 549.5,-66 549.5,-96"/>
<text text-anchor="start" x="449.5" y="-84" font-family="Helvetica,sans-Serif" font-size="10.00">src/tracker/process</text>
<text text-anchor="middle" x="495.5" y="-73" font-family="Helvetica,sans-Serif" font-size="10.00">_request.hpp</text>
</a>
</g>
</g>
<!-- Node6&#45;&gt;Node9 -->
<g id="edge12_Node000006_Node000009" class="edge">
<title>Node6&#45;&gt;Node9</title>
<g id="a_edge12_Node000006_Node000009"><a xlink:title=" ">
<path fill="none" stroke="#63b8ff" d="M464.71,-128.92C471.38,-118.76 479.75,-106.01 486.08,-96.36"/>
<polygon fill="#63b8ff" stroke="#63b8ff" points="461.72,-127.09 459.16,-137.37 467.58,-130.93 461.72,-127.09"/>
</a>
</g>
</g>
<!-- Node11 -->
<g id="Node000011" class="node">
<title>Node11</title>
<g id="a_Node000011"><a xlink:href="transactionsrecord_8hpp.html" target="_top" xlink:title=" ">
<polygon fill="white" stroke="#666666" points="749.5,-90.5 567.5,-90.5 567.5,-71.5 749.5,-71.5 749.5,-90.5"/>
<text text-anchor="middle" x="658.5" y="-78.5" font-family="Helvetica,sans-Serif" font-size="10.00">src/tracker/transactionsrecord.hpp</text>
</a>
</g>
</g>
<!-- Node6&#45;&gt;Node11 -->
<g id="edge15_Node000006_Node000011" class="edge">
<title>Node6&#45;&gt;Node11</title>
<g id="a_edge15_Node000006_Node000011"><a xlink:title=" ">
<path fill="none" stroke="#63b8ff" d="M490.9,-134.32C531.34,-121.7 594.85,-101.87 630.96,-90.6"/>
<polygon fill="#63b8ff" stroke="#63b8ff" points="489.65,-131.05 481.15,-137.37 491.74,-137.73 489.65,-131.05"/>
</a>
</g>
</g>
<!-- Node7&#45;&gt;Node4 -->
<g id="edge11_Node000007_Node000004" class="edge">
<title>Node7&#45;&gt;Node4</title>
<g id="a_edge11_Node000007_Node000004"><a xlink:title=" ">
<path fill="none" stroke="#63b8ff" d="M345.4,-61.45C347.28,-49.43 349.64,-34.32 351.11,-24.91"/>
<polygon fill="#63b8ff" stroke="#63b8ff" points="341.93,-60.95 343.85,-71.37 348.85,-62.03 341.93,-60.95"/>
</a>
</g>
</g>
<!-- Node8 -->
<g id="Node000008" class="node">
<title>Node8</title>
<g id="a_Node000008"><a xlink:href="parse__request_8cpp.html" target="_top" xlink:title=" ">
<polygon fill="white" stroke="#666666" points="272.5,-24.5 112.5,-24.5 112.5,-5.5 272.5,-5.5 272.5,-24.5"/>
<text text-anchor="middle" x="192.5" y="-12.5" font-family="Helvetica,sans-Serif" font-size="10.00">src/tracker/parse_request.cpp</text>
</a>
</g>
</g>
<!-- Node7&#45;&gt;Node8 -->
<g id="edge10_Node000007_Node000008" class="edge">
<title>Node7&#45;&gt;Node8</title>
<g id="a_edge10_Node000007_Node000008"><a xlink:title=" ">
<path fill="none" stroke="#63b8ff" d="M312.87,-67.36C283.31,-54.75 238.69,-35.71 212.89,-24.7"/>
<polygon fill="#63b8ff" stroke="#63b8ff" points="311.7,-70.66 322.27,-71.37 314.45,-64.23 311.7,-70.66"/>
</a>
</g>
</g>
<!-- Node9&#45;&gt;Node4 -->
<g id="edge14_Node000009_Node000004" class="edge">
<title>Node9&#45;&gt;Node4</title>
<g id="a_edge14_Node000009_Node000004"><a xlink:title=" ">
<path fill="none" stroke="#63b8ff" d="M454.79,-61.78C427.45,-49.54 392.68,-33.98 371.53,-24.52"/>
<polygon fill="#63b8ff" stroke="#63b8ff" points="453.56,-65.06 464.12,-65.95 456.42,-58.68 453.56,-65.06"/>
</a>
</g>
</g>
<!-- Node10 -->
<g id="Node000010" class="node">
<title>Node10</title>
<g id="a_Node000010"><a xlink:href="process__request_8cpp.html" target="_top" xlink:title=" ">
<polygon fill="white" stroke="#666666" points="549.5,-30 441.5,-30 441.5,0 549.5,0 549.5,-30"/>
<text text-anchor="start" x="449.5" y="-18" font-family="Helvetica,sans-Serif" font-size="10.00">src/tracker/process</text>
<text text-anchor="middle" x="495.5" y="-7" font-family="Helvetica,sans-Serif" font-size="10.00">_request.cpp</text>
</a>
</g>
</g>
<!-- Node9&#45;&gt;Node10 -->
<g id="edge13_Node000009_Node000010" class="edge">
<title>Node9&#45;&gt;Node10</title>
<g id="a_edge13_Node000009_Node000010"><a xlink:title=" ">
<path fill="none" stroke="#63b8ff" d="M495.5,-55.54C495.5,-46.96 495.5,-37.61 495.5,-30.16"/>
<polygon fill="#63b8ff" stroke="#63b8ff" points="492,-55.8 495.5,-65.8 499,-55.8 492,-55.8"/>
</a>
</g>
</g>
<!-- Node11&#45;&gt;Node4 -->
<g id="edge17_Node000011_Node000004" class="edge">
<title>Node11&#45;&gt;Node4</title>
<g id="a_edge17_Node000011_Node000004"><a xlink:title=" ">
<path fill="none" stroke="#63b8ff" d="M607.51,-69.34C547.34,-56.75 448.5,-36.08 393.21,-24.51"/>
<polygon fill="#63b8ff" stroke="#63b8ff" points="607.04,-72.81 617.55,-71.44 608.48,-65.96 607.04,-72.81"/>
</a>
</g>
</g>
<!-- Node11&#45;&gt;Node10 -->
<g id="edge16_Node000011_Node000010" class="edge">
<title>Node11&#45;&gt;Node10</title>
<g id="a_edge16_Node000011_Node000010"><a xlink:title=" ">
<path fill="none" stroke="#63b8ff" d="M627.04,-67.65C599.68,-56.9 560.05,-41.35 531.45,-30.12"/>
<polygon fill="#63b8ff" stroke="#63b8ff" points="625.93,-70.97 636.52,-71.37 628.49,-64.46 625.93,-70.97"/>
</a>
</g>
</g>
<!-- Node12 -->
<g id="Node000012" class="node">
<title>Node12</title>
<g id="a_Node000012"><a xlink:href="transactionsrecord_8cpp.html" target="_top" xlink:title=" ">
<polygon fill="white" stroke="#666666" points="749.5,-24.5 567.5,-24.5 567.5,-5.5 749.5,-5.5 749.5,-24.5"/>
<text text-anchor="middle" x="658.5" y="-12.5" font-family="Helvetica,sans-Serif" font-size="10.00">src/tracker/transactionsrecord.cpp</text>
</a>
</g>
</g>
<!-- Node11&#45;&gt;Node12 -->
<g id="edge18_Node000011_Node000012" class="edge">
<title>Node11&#45;&gt;Node12</title>
<g id="a_edge18_Node000011_Node000012"><a xlink:title=" ">
<path fill="none" stroke="#63b8ff" d="M658.5,-61.08C658.5,-49.13 658.5,-34.22 658.5,-24.91"/>
<polygon fill="#63b8ff" stroke="#63b8ff" points="655,-61.37 658.5,-71.37 662,-61.37 655,-61.37"/>
</a>
</g>
</g>
</g>
</svg>
