<?xml version="1.0" encoding="UTF-8" standalone="no"?>
<!DOCTYPE svg PUBLIC "-//W3C//DTD SVG 1.1//EN"
 "http://www.w3.org/Graphics/SVG/1.1/DTD/svg11.dtd">
<!-- Generated by graphviz version 2.43.0 (0)
 -->
<!-- Title: src/models/file.hpp Pages: 1 -->
<svg width="1050pt" height="280pt"
 viewBox="0.00 0.00 1049.81 280.00" xmlns="http://www.w3.org/2000/svg" xmlns:xlink="http://www.w3.org/1999/xlink">
<g id="graph0" class="graph" transform="scale(1 1) rotate(0) translate(4 276)">
<title>src/models/file.hpp</title>
<!-- Node1 -->
<g id="Node000001" class="node">
<title>Node1</title>
<g id="a_Node000001"><a xlink:title=" ">
<polygon fill="#999999" stroke="#666666" points="609.31,-272 500.31,-272 500.31,-253 609.31,-253 609.31,-272"/>
<text text-anchor="middle" x="554.81" y="-260" font-family="Helvetica,sans-Serif" font-size="10.00">src/models/file.hpp</text>
</a>
</g>
</g>
<!-- Node2 -->
<g id="Node000002" class="node">
<title>Node2</title>
<g id="a_Node000002"><a xlink:href="downloadmanager_8hpp.html" target="_top" xlink:title=" ">
<polygon fill="white" stroke="#666666" points="450.31,-156.5 275.31,-156.5 275.31,-137.5 450.31,-137.5 450.31,-156.5"/>
<text text-anchor="middle" x="362.81" y="-144.5" font-family="Helvetica,sans-Serif" font-size="10.00">src/client/downloadmanager.hpp</text>
</a>
</g>
</g>
<!-- Node1&#45;&gt;Node2 -->
<g id="edge1_Node000001_Node000002" class="edge">
<title>Node1&#45;&gt;Node2</title>
<g id="a_edge1_Node000001_Node000002"><a xlink:title=" ">
<path fill="none" stroke="#63b8ff" d="M531.57,-247.77C491.5,-224.08 410.51,-176.2 377.4,-156.63"/>
<polygon fill="#63b8ff" stroke="#63b8ff" points="529.99,-250.89 540.37,-252.97 533.55,-244.87 529.99,-250.89"/>
</a>
</g>
</g>
<!-- Node6 -->
<g id="Node000006" class="node">
<title>Node6</title>
<g id="a_Node000006"><a xlink:href="process__input_8cpp.html" target="_top" xlink:title=" ">
<polygon fill="white" stroke="#666666" points="768.31,-30 667.31,-30 667.31,0 768.31,0 768.31,-30"/>
<text text-anchor="start" x="675.31" y="-18" font-family="Helvetica,sans-Serif" font-size="10.00">src/client/process</text>
<text text-anchor="middle" x="717.81" y="-7" font-family="Helvetica,sans-Serif" font-size="10.00">_input.cpp</text>
</a>
</g>
</g>
<!-- Node1&#45;&gt;Node6 -->
<g id="edge19_Node000001_Node000006" class="edge">
<title>Node1&#45;&gt;Node6</title>
<g id="a_edge19_Node000001_Node000006"><a xlink:title=" ">
<path fill="none" stroke="#63b8ff" d="M577.9,-247.25C616.03,-222.19 690.8,-166.17 719.81,-96 728.72,-74.43 725.07,-46.72 721.51,-30.21"/>
<polygon fill="#63b8ff" stroke="#63b8ff" points="575.57,-244.59 569.05,-252.94 579.35,-250.48 575.57,-244.59"/>
</a>
</g>
</g>
<!-- Node7 -->
<g id="Node000007" class="node">
<title>Node7</title>
<g id="a_Node000007"><a xlink:href="file__io_8hpp.html" target="_top" xlink:title=" ">
<polygon fill="white" stroke="#666666" points="611.81,-156.5 497.81,-156.5 497.81,-137.5 611.81,-137.5 611.81,-156.5"/>
<text text-anchor="middle" x="554.81" y="-144.5" font-family="Helvetica,sans-Serif" font-size="10.00">src/client/file_io.hpp</text>
</a>
</g>
</g>
<!-- Node1&#45;&gt;Node7 -->
<g id="edge7_Node000001_Node000007" class="edge">
<title>Node1&#45;&gt;Node7</title>
<g id="a_edge7_Node000001_Node000007"><a xlink:title=" ">
<path fill="none" stroke="#63b8ff" d="M554.81,-242.65C554.81,-217.74 554.81,-174.88 554.81,-156.63"/>
<polygon fill="#63b8ff" stroke="#63b8ff" points="551.31,-242.97 554.81,-252.97 558.31,-242.97 551.31,-242.97"/>
</a>
</g>
</g>
<!-- Node10 -->
<g id="Node000010" class="node">
<title>Node10</title>
<g id="a_Node000010"><a xlink:href="peerdb_8hpp.html" target="_top" xlink:title=" ">
<polygon fill="white" stroke="#666666" points="266.31,-217 147.31,-217 147.31,-198 266.31,-198 266.31,-217"/>
<text text-anchor="middle" x="206.81" y="-205" font-family="Helvetica,sans-Serif" font-size="10.00">src/client/peerdb.hpp</text>
</a>
</g>
</g>
<!-- Node1&#45;&gt;Node10 -->
<g id="edge12_Node000001_Node000010" class="edge">
<title>Node1&#45;&gt;Node10</title>
<g id="a_edge12_Node000001_Node000010"><a xlink:title=" ">
<path fill="none" stroke="#63b8ff" d="M489.86,-251.61C424.47,-241.65 324.65,-226.45 262.68,-217.01"/>
<polygon fill="#63b8ff" stroke="#63b8ff" points="489.63,-255.11 500.05,-253.16 490.69,-248.19 489.63,-255.11"/>
</a>
</g>
</g>
<!-- Node13 -->
<g id="Node000013" class="node">
<title>Node13</title>
<g id="a_Node000013"><a xlink:href="group_8hpp.html" target="_top" xlink:title=" ">
<polygon fill="white" stroke="#666666" points="907.81,-217 785.81,-217 785.81,-198 907.81,-198 907.81,-217"/>
<text text-anchor="middle" x="846.81" y="-205" font-family="Helvetica,sans-Serif" font-size="10.00">src/models/group.hpp</text>
</a>
</g>
</g>
<!-- Node1&#45;&gt;Node13 -->
<g id="edge20_Node000001_Node000013" class="edge">
<title>Node1&#45;&gt;Node13</title>
<g id="a_edge20_Node000001_Node000013"><a xlink:title=" ">
<path fill="none" stroke="#63b8ff" d="M611.61,-251.19C666.36,-241.25 748.23,-226.39 799.52,-217.08"/>
<polygon fill="#63b8ff" stroke="#63b8ff" points="610.93,-247.75 601.72,-252.98 612.18,-254.64 610.93,-247.75"/>
</a>
</g>
</g>
<!-- Node3 -->
<g id="Node000003" class="node">
<title>Node3</title>
<g id="a_Node000003"><a xlink:href="client_8cpp.html" target="_top" xlink:title="The entrypoint to the client.">
<polygon fill="white" stroke="#666666" points="212.31,-24.5 101.31,-24.5 101.31,-5.5 212.31,-5.5 212.31,-24.5"/>
<text text-anchor="middle" x="156.81" y="-12.5" font-family="Helvetica,sans-Serif" font-size="10.00">src/client/client.cpp</text>
</a>
</g>
</g>
<!-- Node2&#45;&gt;Node3 -->
<g id="edge2_Node000002_Node000003" class="edge">
<title>Node2&#45;&gt;Node3</title>
<g id="a_edge2_Node000002_Node000003"><a xlink:title=" ">
<path fill="none" stroke="#63b8ff" d="M330.47,-133.54C308.42,-124.45 278.96,-111.11 254.81,-96 245.45,-90.15 190.37,-44.17 167.14,-24.68"/>
<polygon fill="#63b8ff" stroke="#63b8ff" points="329.45,-136.9 340.03,-137.41 332.08,-130.41 329.45,-136.9"/>
</a>
</g>
</g>
<!-- Node4 -->
<g id="Node000004" class="node">
<title>Node4</title>
<g id="a_Node000004"><a xlink:href="downloadmanager_8cpp.html" target="_top" xlink:title=" ">
<polygon fill="white" stroke="#666666" points="557.81,-90.5 383.81,-90.5 383.81,-71.5 557.81,-71.5 557.81,-90.5"/>
<text text-anchor="middle" x="470.81" y="-78.5" font-family="Helvetica,sans-Serif" font-size="10.00">src/client/downloadmanager.cpp</text>
</a>
</g>
</g>
<!-- Node2&#45;&gt;Node4 -->
<g id="edge3_Node000002_Node000004" class="edge">
<title>Node2&#45;&gt;Node4</title>
<g id="a_edge3_Node000002_Node000004"><a xlink:title=" ">
<path fill="none" stroke="#63b8ff" d="M386.11,-132.19C407.36,-119.59 438.12,-101.37 456.13,-90.7"/>
<polygon fill="#63b8ff" stroke="#63b8ff" points="384.19,-129.26 377.37,-137.37 387.76,-135.28 384.19,-129.26"/>
</a>
</g>
</g>
<!-- Node5 -->
<g id="Node000005" class="node">
<title>Node5</title>
<g id="a_Node000005"><a xlink:href="process__input_8hpp.html" target="_top" xlink:title=" ">
<polygon fill="white" stroke="#666666" points="365.31,-96 264.31,-96 264.31,-66 365.31,-66 365.31,-96"/>
<text text-anchor="start" x="272.31" y="-84" font-family="Helvetica,sans-Serif" font-size="10.00">src/client/process</text>
<text text-anchor="middle" x="314.81" y="-73" font-family="Helvetica,sans-Serif" font-size="10.00">_input.hpp</text>
</a>
</g>
</g>
<!-- Node2&#45;&gt;Node5 -->
<g id="edge4_Node000002_Node000005" class="edge">
<title>Node2&#45;&gt;Node5</title>
<g id="a_edge4_Node000002_Node000005"><a xlink:title=" ">
<path fill="none" stroke="#63b8ff" d="M350.23,-129.24C342.57,-119.02 332.88,-106.1 325.58,-96.36"/>
<polygon fill="#63b8ff" stroke="#63b8ff" points="347.53,-131.47 356.33,-137.37 353.13,-127.27 347.53,-131.47"/>
</a>
</g>
</g>
<!-- Node5&#45;&gt;Node3 -->
<g id="edge5_Node000005_Node000003" class="edge">
<title>Node5&#45;&gt;Node3</title>
<g id="a_edge5_Node000005_Node000003"><a xlink:title=" ">
<path fill="none" stroke="#63b8ff" d="M270.62,-62.1C240.29,-49.82 201.4,-34.06 177.83,-24.52"/>
<polygon fill="#63b8ff" stroke="#63b8ff" points="269.55,-65.44 280.13,-65.95 272.18,-58.96 269.55,-65.44"/>
</a>
</g>
</g>
<!-- Node5&#45;&gt;Node6 -->
<g id="edge6_Node000005_Node000006" class="edge">
<title>Node5&#45;&gt;Node6</title>
<g id="a_edge6_Node000005_Node000006"><a xlink:title=" ">
<path fill="none" stroke="#63b8ff" d="M375.39,-65.99C485.08,-45.54 601.84,-30.1 667.02,-22.04"/>
<polygon fill="#63b8ff" stroke="#63b8ff" points="374.66,-62.57 365.48,-67.86 375.96,-69.45 374.66,-62.57"/>
</a>
</g>
</g>
<!-- Node7&#45;&gt;Node4 -->
<g id="edge8_Node000007_Node000004" class="edge">
<title>Node7&#45;&gt;Node4</title>
<g id="a_edge8_Node000007_Node000004"><a xlink:title=" ">
<path fill="none" stroke="#63b8ff" d="M535.1,-130.99C518.66,-118.46 495.79,-101.04 482.22,-90.7"/>
<polygon fill="#63b8ff" stroke="#63b8ff" points="533.4,-134.09 543.48,-137.37 537.64,-128.52 533.4,-134.09"/>
</a>
</g>
</g>
<!-- Node7&#45;&gt;Node6 -->
<g id="edge10_Node000007_Node000006" class="edge">
<title>Node7&#45;&gt;Node6</title>
<g id="a_edge10_Node000007_Node000006"><a xlink:title=" ">
<path fill="none" stroke="#63b8ff" d="M621.94,-136.7C648.93,-129.7 678.23,-117.45 697.81,-96 714.5,-77.71 717.77,-47.6 718.13,-30.01"/>
<polygon fill="#63b8ff" stroke="#63b8ff" points="621.04,-133.31 612.12,-139.04 622.66,-140.12 621.04,-133.31"/>
</a>
</g>
</g>
<!-- Node8 -->
<g id="Node000008" class="node">
<title>Node8</title>
<g id="a_Node000008"><a xlink:href="file__io_8cpp.html" target="_top" xlink:title=" ">
<polygon fill="white" stroke="#666666" points="689.31,-90.5 576.31,-90.5 576.31,-71.5 689.31,-71.5 689.31,-90.5"/>
<text text-anchor="middle" x="632.81" y="-78.5" font-family="Helvetica,sans-Serif" font-size="10.00">src/client/file_io.cpp</text>
</a>
</g>
</g>
<!-- Node7&#45;&gt;Node8 -->
<g id="edge9_Node000007_Node000008" class="edge">
<title>Node7&#45;&gt;Node8</title>
<g id="a_edge9_Node000007_Node000008"><a xlink:title=" ">
<path fill="none" stroke="#63b8ff" d="M573.1,-130.99C588.37,-118.46 609.61,-101.04 622.2,-90.7"/>
<polygon fill="#63b8ff" stroke="#63b8ff" points="570.84,-128.32 565.33,-137.37 575.28,-133.73 570.84,-128.32"/>
</a>
</g>
</g>
<!-- Node9 -->
<g id="Node000009" class="node">
<title>Node9</title>
<g id="a_Node000009"><a xlink:href="client_2process__request_8cpp.html" target="_top" xlink:title=" ">
<polygon fill="white" stroke="#666666" points="207.31,-96 106.31,-96 106.31,-66 207.31,-66 207.31,-96"/>
<text text-anchor="start" x="114.31" y="-84" font-family="Helvetica,sans-Serif" font-size="10.00">src/client/process</text>
<text text-anchor="middle" x="156.81" y="-73" font-family="Helvetica,sans-Serif" font-size="10.00">_request.cpp</text>
</a>
</g>
</g>
<!-- Node7&#45;&gt;Node9 -->
<g id="edge11_Node000007_Node000009" class="edge">
<title>Node7&#45;&gt;Node9</title>
<g id="a_edge11_Node000007_Node000009"><a xlink:title=" ">
<path fill="none" stroke="#63b8ff" d="M491.27,-135.78C412.51,-123.12 279.87,-101.79 207.55,-90.16"/>
<polygon fill="#63b8ff" stroke="#63b8ff" points="491.11,-139.3 501.54,-137.44 492.23,-132.39 491.11,-139.3"/>
</a>
</g>
</g>
<!-- Node10&#45;&gt;Node2 -->
<g id="edge14_Node000010_Node000002" class="edge">
<title>Node10&#45;&gt;Node2</title>
<g id="a_edge14_Node000010_Node000002"><a xlink:title=" ">
<path fill="none" stroke="#63b8ff" d="M239.13,-194.38C269.29,-183.07 313.51,-166.49 340.09,-156.52"/>
<polygon fill="#63b8ff" stroke="#63b8ff" points="237.62,-191.21 229.49,-197.99 240.08,-197.76 237.62,-191.21"/>
</a>
</g>
</g>
<!-- Node10&#45;&gt;Node3 -->
<g id="edge13_Node000010_Node000003" class="edge">
<title>Node10&#45;&gt;Node3</title>
<g id="a_edge13_Node000010_Node000003"><a xlink:title=" ">
<path fill="none" stroke="#63b8ff" d="M137.13,-199.81C87.38,-193.42 26.59,-181.77 10.81,-162 -34.82,-104.85 84.98,-46.07 135.53,-24.55"/>
<polygon fill="#63b8ff" stroke="#63b8ff" points="136.88,-203.3 147.23,-201.05 137.74,-196.36 136.88,-203.3"/>
</a>
</g>
</g>
<!-- Node11 -->
<g id="Node000011" class="node">
<title>Node11</title>
<g id="a_Node000011"><a xlink:href="peerdb_8cpp.html" target="_top" xlink:title=" ">
<polygon fill="white" stroke="#666666" points="137.81,-156.5 19.81,-156.5 19.81,-137.5 137.81,-137.5 137.81,-156.5"/>
<text text-anchor="middle" x="78.81" y="-144.5" font-family="Helvetica,sans-Serif" font-size="10.00">src/client/peerdb.cpp</text>
</a>
</g>
</g>
<!-- Node10&#45;&gt;Node11 -->
<g id="edge15_Node000010_Node000011" class="edge">
<title>Node10&#45;&gt;Node11</title>
<g id="a_edge15_Node000010_Node000011"><a xlink:title=" ">
<path fill="none" stroke="#63b8ff" d="M178.98,-193.78C154.28,-182.49 118.87,-166.31 97.44,-156.52"/>
<polygon fill="#63b8ff" stroke="#63b8ff" points="177.64,-197.02 188.19,-197.99 180.55,-190.65 177.64,-197.02"/>
</a>
</g>
</g>
<!-- Node12 -->
<g id="Node000012" class="node">
<title>Node12</title>
<g id="a_Node000012"><a xlink:href="client_2process__request_8hpp.html" target="_top" xlink:title=" ">
<polygon fill="white" stroke="#666666" points="257.31,-162 156.31,-162 156.31,-132 257.31,-132 257.31,-162"/>
<text text-anchor="start" x="164.31" y="-150" font-family="Helvetica,sans-Serif" font-size="10.00">src/client/process</text>
<text text-anchor="middle" x="206.81" y="-139" font-family="Helvetica,sans-Serif" font-size="10.00">_request.hpp</text>
</a>
</g>
</g>
<!-- Node10&#45;&gt;Node12 -->
<g id="edge16_Node000010_Node000012" class="edge">
<title>Node10&#45;&gt;Node12</title>
<g id="a_edge16_Node000010_Node000012"><a xlink:title=" ">
<path fill="none" stroke="#63b8ff" d="M206.81,-187.65C206.81,-179.36 206.81,-169.78 206.81,-162.11"/>
<polygon fill="#63b8ff" stroke="#63b8ff" points="203.31,-187.87 206.81,-197.87 210.31,-187.87 203.31,-187.87"/>
</a>
</g>
</g>
<!-- Node12&#45;&gt;Node3 -->
<g id="edge17_Node000012_Node000003" class="edge">
<title>Node12&#45;&gt;Node3</title>
<g id="a_edge17_Node000012_Node000003"><a xlink:title=" ">
<path fill="none" stroke="#63b8ff" d="M154.39,-128.38C129.56,-118.86 103.8,-106.87 96.81,-96 89.59,-84.79 91.15,-78.07 96.81,-66 105.61,-47.21 125.32,-33.02 139.76,-24.65"/>
<polygon fill="#63b8ff" stroke="#63b8ff" points="153.23,-131.68 163.82,-131.9 155.68,-125.12 153.23,-131.68"/>
</a>
</g>
</g>
<!-- Node12&#45;&gt;Node9 -->
<g id="edge18_Node000012_Node000009" class="edge">
<title>Node12&#45;&gt;Node9</title>
<g id="a_edge18_Node000012_Node000009"><a xlink:title=" ">
<path fill="none" stroke="#63b8ff" d="M189.47,-123.81C182.3,-114.64 174.21,-104.28 167.87,-96.16"/>
<polygon fill="#63b8ff" stroke="#63b8ff" points="186.79,-126.07 195.71,-131.8 192.31,-121.76 186.79,-126.07"/>
</a>
</g>
</g>
<!-- Node14 -->
<g id="Node000014" class="node">
<title>Node14</title>
<g id="a_Node000014"><a xlink:href="groupdb_8hpp.html" target="_top" xlink:title=" ">
<polygon fill="white" stroke="#666666" points="915.31,-156.5 784.31,-156.5 784.31,-137.5 915.31,-137.5 915.31,-156.5"/>
<text text-anchor="middle" x="849.81" y="-144.5" font-family="Helvetica,sans-Serif" font-size="10.00">src/tracker/groupdb.hpp</text>
</a>
</g>
</g>
<!-- Node13&#45;&gt;Node14 -->
<g id="edge21_Node000013_Node000014" class="edge">
<title>Node13&#45;&gt;Node14</title>
<g id="a_edge21_Node000013_Node000014"><a xlink:title=" ">
<path fill="none" stroke="#63b8ff" d="M847.77,-187.66C848.31,-177.24 848.94,-164.8 849.36,-156.67"/>
<polygon fill="#63b8ff" stroke="#63b8ff" points="844.27,-187.7 847.25,-197.87 851.26,-188.06 844.27,-187.7"/>
</a>
</g>
</g>
<!-- Node15 -->
<g id="Node000015" class="node">
<title>Node15</title>
<g id="a_Node000015"><a xlink:href="groupdb_8cpp.html" target="_top" xlink:title=" ">
<polygon fill="white" stroke="#666666" points="915.31,-90.5 784.31,-90.5 784.31,-71.5 915.31,-71.5 915.31,-90.5"/>
<text text-anchor="middle" x="849.81" y="-78.5" font-family="Helvetica,sans-Serif" font-size="10.00">src/tracker/groupdb.cpp</text>
</a>
</g>
</g>
<!-- Node14&#45;&gt;Node15 -->
<g id="edge22_Node000014_Node000015" class="edge">
<title>Node14&#45;&gt;Node15</title>
<g id="a_edge22_Node000014_Node000015"><a xlink:title=" ">
<path fill="none" stroke="#63b8ff" d="M849.81,-127.08C849.81,-115.13 849.81,-100.22 849.81,-90.91"/>
<polygon fill="#63b8ff" stroke="#63b8ff" points="846.31,-127.37 849.81,-137.37 853.31,-127.37 846.31,-127.37"/>
</a>
</g>
</g>
<!-- Node16 -->
<g id="Node000016" class="node">
<title>Node16</title>
<g id="a_Node000016"><a xlink:href="tracker_2process__request_8cpp.html" target="_top" xlink:title=" ">
<polygon fill="white" stroke="#666666" points="1041.81,-96 933.81,-96 933.81,-66 1041.81,-66 1041.81,-96"/>
<text text-anchor="start" x="941.81" y="-84" font-family="Helvetica,sans-Serif" font-size="10.00">src/tracker/process</text>
<text text-anchor="middle" x="987.81" y="-73" font-family="Helvetica,sans-Serif" font-size="10.00">_request.cpp</text>
</a>
</g>
</g>
<!-- Node14&#45;&gt;Node16 -->
<g id="edge23_Node000014_Node000016" class="edge">
<title>Node14&#45;&gt;Node16</title>
<g id="a_edge23_Node000014_Node000016"><a xlink:title=" ">
<path fill="none" stroke="#63b8ff" d="M877.67,-133.08C900.78,-122.36 933.58,-107.15 957.37,-96.12"/>
<polygon fill="#63b8ff" stroke="#63b8ff" points="876.02,-129.99 868.42,-137.37 878.96,-136.34 876.02,-129.99"/>
</a>
</g>
</g>
</g>
</svg>
