<?xml version="1.0" encoding="UTF-8" standalone="no"?>
<!DOCTYPE svg PUBLIC "-//W3C//DTD SVG 1.1//EN"
 "http://www.w3.org/Graphics/SVG/1.1/DTD/svg11.dtd">
<!-- Generated by graphviz version 2.43.0 (0)
 -->
<!-- Title: src/client/filesdb.hpp Pages: 1 -->
<svg width="488pt" height="225pt"
 viewBox="0.00 0.00 487.50 225.00" xmlns="http://www.w3.org/2000/svg" xmlns:xlink="http://www.w3.org/1999/xlink">
<g id="graph0" class="graph" transform="scale(1 1) rotate(0) translate(4 221)">
<title>src/client/filesdb.hpp</title>
<!-- Node1 -->
<g id="Node000001" class="node">
<title>Node1</title>
<g id="a_Node000001"><a xlink:title=" ">
<polygon fill="#999999" stroke="#666666" points="343.5,-217 226.5,-217 226.5,-198 343.5,-198 343.5,-217"/>
<text text-anchor="middle" x="285" y="-205" font-family="Helvetica,sans-Serif" font-size="10.00">src/client/filesdb.hpp</text>
</a>
</g>
</g>
<!-- Node2 -->
<g id="Node000002" class="node">
<title>Node2</title>
<g id="a_Node000002"><a xlink:href="downloadmanager_8hpp.html" target="_top" xlink:title=" ">
<polygon fill="white" stroke="#666666" points="208.5,-156.5 33.5,-156.5 33.5,-137.5 208.5,-137.5 208.5,-156.5"/>
<text text-anchor="middle" x="121" y="-144.5" font-family="Helvetica,sans-Serif" font-size="10.00">src/client/downloadmanager.hpp</text>
</a>
</g>
</g>
<!-- Node1&#45;&gt;Node2 -->
<g id="edge1_Node000001_Node000002" class="edge">
<title>Node1&#45;&gt;Node2</title>
<g id="a_edge1_Node000001_Node000002"><a xlink:title=" ">
<path fill="none" stroke="#63b8ff" d="M251.43,-194.52C219.72,-183.21 172.95,-166.53 144.88,-156.52"/>
<polygon fill="#63b8ff" stroke="#63b8ff" points="250.56,-197.93 261.15,-197.99 252.91,-191.34 250.56,-197.93"/>
</a>
</g>
</g>
<!-- Node7 -->
<g id="Node000007" class="node">
<title>Node7</title>
<g id="a_Node000007"><a xlink:href="filesdb_8cpp.html" target="_top" xlink:title=" ">
<polygon fill="white" stroke="#666666" points="343,-156.5 227,-156.5 227,-137.5 343,-137.5 343,-156.5"/>
<text text-anchor="middle" x="285" y="-144.5" font-family="Helvetica,sans-Serif" font-size="10.00">src/client/filesdb.cpp</text>
</a>
</g>
</g>
<!-- Node1&#45;&gt;Node7 -->
<g id="edge6_Node000001_Node000007" class="edge">
<title>Node1&#45;&gt;Node7</title>
<g id="a_edge6_Node000001_Node000007"><a xlink:title=" ">
<path fill="none" stroke="#63b8ff" d="M285,-187.66C285,-177.24 285,-164.8 285,-156.67"/>
<polygon fill="#63b8ff" stroke="#63b8ff" points="281.5,-187.87 285,-197.87 288.5,-187.87 281.5,-187.87"/>
</a>
</g>
</g>
<!-- Node8 -->
<g id="Node000008" class="node">
<title>Node8</title>
<g id="a_Node000008"><a xlink:href="client_2process__request_8hpp.html" target="_top" xlink:title=" ">
<polygon fill="white" stroke="#666666" points="462.5,-162 361.5,-162 361.5,-132 462.5,-132 462.5,-162"/>
<text text-anchor="start" x="369.5" y="-150" font-family="Helvetica,sans-Serif" font-size="10.00">src/client/process</text>
<text text-anchor="middle" x="412" y="-139" font-family="Helvetica,sans-Serif" font-size="10.00">_request.hpp</text>
</a>
</g>
</g>
<!-- Node1&#45;&gt;Node8 -->
<g id="edge7_Node000001_Node000008" class="edge">
<title>Node1&#45;&gt;Node8</title>
<g id="a_edge7_Node000001_Node000008"><a xlink:title=" ">
<path fill="none" stroke="#63b8ff" d="M312.75,-193.72C332.96,-184.41 360.34,-171.8 381.22,-162.18"/>
<polygon fill="#63b8ff" stroke="#63b8ff" points="311.09,-190.63 303.47,-197.99 314.01,-196.99 311.09,-190.63"/>
</a>
</g>
</g>
<!-- Node3 -->
<g id="Node000003" class="node">
<title>Node3</title>
<g id="a_Node000003"><a xlink:href="downloadmanager_8cpp.html" target="_top" xlink:title=" ">
<polygon fill="white" stroke="#666666" points="174,-90.5 0,-90.5 0,-71.5 174,-71.5 174,-90.5"/>
<text text-anchor="middle" x="87" y="-78.5" font-family="Helvetica,sans-Serif" font-size="10.00">src/client/downloadmanager.cpp</text>
</a>
</g>
</g>
<!-- Node2&#45;&gt;Node3 -->
<g id="edge2_Node000002_Node000003" class="edge">
<title>Node2&#45;&gt;Node3</title>
<g id="a_edge2_Node000002_Node000003"><a xlink:title=" ">
<path fill="none" stroke="#63b8ff" d="M111.54,-128.18C105.09,-116.05 96.83,-100.51 91.73,-90.91"/>
<polygon fill="#63b8ff" stroke="#63b8ff" points="108.63,-130.18 116.41,-137.37 114.81,-126.9 108.63,-130.18"/>
</a>
</g>
</g>
<!-- Node4 -->
<g id="Node000004" class="node">
<title>Node4</title>
<g id="a_Node000004"><a xlink:href="process__input_8hpp.html" target="_top" xlink:title=" ">
<polygon fill="white" stroke="#666666" points="293.5,-96 192.5,-96 192.5,-66 293.5,-66 293.5,-96"/>
<text text-anchor="start" x="200.5" y="-84" font-family="Helvetica,sans-Serif" font-size="10.00">src/client/process</text>
<text text-anchor="middle" x="243" y="-73" font-family="Helvetica,sans-Serif" font-size="10.00">_input.hpp</text>
</a>
</g>
</g>
<!-- Node2&#45;&gt;Node4 -->
<g id="edge3_Node000002_Node000004" class="edge">
<title>Node2&#45;&gt;Node4</title>
<g id="a_edge3_Node000002_Node000004"><a xlink:title=" ">
<path fill="none" stroke="#63b8ff" d="M146.46,-132.64C166.84,-121.95 195.34,-107 216.09,-96.12"/>
<polygon fill="#63b8ff" stroke="#63b8ff" points="144.68,-129.62 137.45,-137.37 147.93,-135.82 144.68,-129.62"/>
</a>
</g>
</g>
<!-- Node5 -->
<g id="Node000005" class="node">
<title>Node5</title>
<g id="a_Node000005"><a xlink:href="client_8cpp.html" target="_top" xlink:title="The entrypoint to the client.">
<polygon fill="white" stroke="#666666" points="405.5,-24.5 294.5,-24.5 294.5,-5.5 405.5,-5.5 405.5,-24.5"/>
<text text-anchor="middle" x="350" y="-12.5" font-family="Helvetica,sans-Serif" font-size="10.00">src/client/client.cpp</text>
</a>
</g>
</g>
<!-- Node4&#45;&gt;Node5 -->
<g id="edge4_Node000004_Node000005" class="edge">
<title>Node4&#45;&gt;Node5</title>
<g id="a_edge4_Node000004_Node000005"><a xlink:title=" ">
<path fill="none" stroke="#63b8ff" d="M275.08,-60.81C295.28,-48.73 320.35,-33.73 335.76,-24.52"/>
<polygon fill="#63b8ff" stroke="#63b8ff" points="273.27,-57.82 266.48,-65.95 276.86,-63.83 273.27,-57.82"/>
</a>
</g>
</g>
<!-- Node6 -->
<g id="Node000006" class="node">
<title>Node6</title>
<g id="a_Node000006"><a xlink:href="process__input_8cpp.html" target="_top" xlink:title=" ">
<polygon fill="white" stroke="#666666" points="276.5,-30 175.5,-30 175.5,0 276.5,0 276.5,-30"/>
<text text-anchor="start" x="183.5" y="-18" font-family="Helvetica,sans-Serif" font-size="10.00">src/client/process</text>
<text text-anchor="middle" x="226" y="-7" font-family="Helvetica,sans-Serif" font-size="10.00">_input.cpp</text>
</a>
</g>
</g>
<!-- Node4&#45;&gt;Node6 -->
<g id="edge5_Node000004_Node000006" class="edge">
<title>Node4&#45;&gt;Node6</title>
<g id="a_edge5_Node000004_Node000006"><a xlink:title=" ">
<path fill="none" stroke="#63b8ff" d="M236.65,-56.11C234.33,-47.38 231.79,-37.78 229.76,-30.16"/>
<polygon fill="#63b8ff" stroke="#63b8ff" points="233.28,-57.03 239.23,-65.8 240.04,-55.23 233.28,-57.03"/>
</a>
</g>
</g>
<!-- Node8&#45;&gt;Node5 -->
<g id="edge8_Node000008_Node000005" class="edge">
<title>Node8&#45;&gt;Node5</title>
<g id="a_edge8_Node000008_Node000005"><a xlink:title=" ">
<path fill="none" stroke="#63b8ff" d="M390.3,-124.56C382.92,-116.24 375.23,-106.25 370,-96 357.77,-72.03 352.72,-40.12 350.89,-24.86"/>
<polygon fill="#63b8ff" stroke="#63b8ff" points="387.81,-127.03 397.18,-131.98 392.94,-122.27 387.81,-127.03"/>
</a>
</g>
</g>
<!-- Node9 -->
<g id="Node000009" class="node">
<title>Node9</title>
<g id="a_Node000009"><a xlink:href="client_2process__request_8cpp.html" target="_top" xlink:title=" ">
<polygon fill="white" stroke="#666666" points="479.5,-96 378.5,-96 378.5,-66 479.5,-66 479.5,-96"/>
<text text-anchor="start" x="386.5" y="-84" font-family="Helvetica,sans-Serif" font-size="10.00">src/client/process</text>
<text text-anchor="middle" x="429" y="-73" font-family="Helvetica,sans-Serif" font-size="10.00">_request.cpp</text>
</a>
</g>
</g>
<!-- Node8&#45;&gt;Node9 -->
<g id="edge9_Node000008_Node000009" class="edge">
<title>Node8&#45;&gt;Node9</title>
<g id="a_edge9_Node000008_Node000009"><a xlink:title=" ">
<path fill="none" stroke="#63b8ff" d="M418.35,-122.11C420.67,-113.38 423.21,-103.78 425.24,-96.16"/>
<polygon fill="#63b8ff" stroke="#63b8ff" points="414.96,-121.23 415.77,-131.8 421.72,-123.03 414.96,-121.23"/>
</a>
</g>
</g>
</g>
</svg>
