<?xml version="1.0" encoding="UTF-8" standalone="no"?>
<!DOCTYPE svg PUBLIC "-//W3C//DTD SVG 1.1//EN"
 "http://www.w3.org/Graphics/SVG/1.1/DTD/svg11.dtd">
<!-- Generated by graphviz version 2.43.0 (0)
 -->
<!-- Title: src/models/fileinfo.hpp Pages: 1 -->
<svg width="857pt" height="335pt"
 viewBox="0.00 0.00 857.22 335.00" xmlns="http://www.w3.org/2000/svg" xmlns:xlink="http://www.w3.org/1999/xlink">
<g id="graph0" class="graph" transform="scale(1 1) rotate(0) translate(4 331)">
<title>src/models/fileinfo.hpp</title>
<!-- Node1 -->
<g id="Node000001" class="node">
<title>Node1</title>
<g id="a_Node000001"><a xlink:title=" ">
<polygon fill="#999999" stroke="#666666" points="423.3,-327 295.3,-327 295.3,-308 423.3,-308 423.3,-327"/>
<text text-anchor="middle" x="359.3" y="-315" font-family="Helvetica,sans-Serif" font-size="10.00">src/models/fileinfo.hpp</text>
</a>
</g>
</g>
<!-- Node2 -->
<g id="Node000002" class="node">
<title>Node2</title>
<g id="a_Node000002"><a xlink:href="downloadmanager_8hpp.html" target="_top" xlink:title=" ">
<polygon fill="white" stroke="#666666" points="190.8,-156.5 15.8,-156.5 15.8,-137.5 190.8,-137.5 190.8,-156.5"/>
<text text-anchor="middle" x="103.3" y="-144.5" font-family="Helvetica,sans-Serif" font-size="10.00">src/client/downloadmanager.hpp</text>
</a>
</g>
</g>
<!-- Node1&#45;&gt;Node2 -->
<g id="edge1_Node000001_Node000002" class="edge">
<title>Node1&#45;&gt;Node2</title>
<g id="a_edge1_Node000001_Node000002"><a xlink:title=" ">
<path fill="none" stroke="#63b8ff" d="M337.15,-302.06C307.53,-282.74 253.4,-247.38 207.3,-217 174.37,-195.3 135.7,-169.58 116.09,-156.52"/>
<polygon fill="#63b8ff" stroke="#63b8ff" points="335.58,-305.21 345.86,-307.74 339.4,-299.35 335.58,-305.21"/>
</a>
</g>
</g>
<!-- Node6 -->
<g id="Node000006" class="node">
<title>Node6</title>
<g id="a_Node000006"><a xlink:href="process__input_8cpp.html" target="_top" xlink:title=" ">
<polygon fill="white" stroke="#666666" points="583.8,-30 482.8,-30 482.8,0 583.8,0 583.8,-30"/>
<text text-anchor="start" x="490.8" y="-18" font-family="Helvetica,sans-Serif" font-size="10.00">src/client/process</text>
<text text-anchor="middle" x="533.3" y="-7" font-family="Helvetica,sans-Serif" font-size="10.00">_input.cpp</text>
</a>
</g>
</g>
<!-- Node1&#45;&gt;Node6 -->
<g id="edge16_Node000001_Node000006" class="edge">
<title>Node1&#45;&gt;Node6</title>
<g id="a_edge16_Node000001_Node000006"><a xlink:title=" ">
<path fill="none" stroke="#63b8ff" d="M433.74,-315.3C570.36,-311.07 847.3,-292.17 847.3,-208.5 847.3,-208.5 847.3,-208.5 847.3,-146 847.3,-109.46 854.97,-90.98 828.3,-66 793.76,-33.64 658.89,-22.01 584.04,-18"/>
<polygon fill="#63b8ff" stroke="#63b8ff" points="433.24,-311.81 423.35,-315.6 433.45,-318.81 433.24,-311.81"/>
</a>
</g>
</g>
<!-- Node7 -->
<g id="Node000007" class="node">
<title>Node7</title>
<g id="a_Node000007"><a xlink:href="partfile_8hpp.html" target="_top" xlink:title=" ">
<polygon fill="white" stroke="#666666" points="163.8,-272 44.8,-272 44.8,-253 163.8,-253 163.8,-272"/>
<text text-anchor="middle" x="104.3" y="-260" font-family="Helvetica,sans-Serif" font-size="10.00">src/client/partfile.hpp</text>
</a>
</g>
</g>
<!-- Node1&#45;&gt;Node7 -->
<g id="edge7_Node000001_Node000007" class="edge">
<title>Node1&#45;&gt;Node7</title>
<g id="a_edge7_Node000001_Node000007"><a xlink:title=" ">
<path fill="none" stroke="#63b8ff" d="M308.5,-305.94C260.7,-296.01 190.01,-281.31 145.59,-272.08"/>
<polygon fill="#63b8ff" stroke="#63b8ff" points="307.83,-309.38 318.33,-307.98 309.25,-302.52 307.83,-309.38"/>
</a>
</g>
</g>
<!-- Node8 -->
<g id="Node000008" class="node">
<title>Node8</title>
<g id="a_Node000008"><a xlink:href="peerdb_8hpp.html" target="_top" xlink:title=" ">
<polygon fill="white" stroke="#666666" points="377.8,-217 258.8,-217 258.8,-198 377.8,-198 377.8,-217"/>
<text text-anchor="middle" x="318.3" y="-205" font-family="Helvetica,sans-Serif" font-size="10.00">src/client/peerdb.hpp</text>
</a>
</g>
</g>
<!-- Node1&#45;&gt;Node8 -->
<g id="edge9_Node000001_Node000008" class="edge">
<title>Node1&#45;&gt;Node8</title>
<g id="a_edge9_Node000001_Node000008"><a xlink:title=" ">
<path fill="none" stroke="#63b8ff" d="M349.66,-298.73C345.53,-290.71 340.85,-281.02 337.3,-272 329.8,-252.94 323.55,-229.69 320.43,-217.28"/>
<polygon fill="#63b8ff" stroke="#63b8ff" points="346.7,-300.63 354.47,-307.83 352.89,-297.36 346.7,-300.63"/>
</a>
</g>
</g>
<!-- Node12 -->
<g id="Node000012" class="node">
<title>Node12</title>
<g id="a_Node000012"><a xlink:href="file_8hpp.html" target="_top" xlink:title=" ">
<polygon fill="white" stroke="#666666" points="455.8,-272 346.8,-272 346.8,-253 455.8,-253 455.8,-272"/>
<text text-anchor="middle" x="401.3" y="-260" font-family="Helvetica,sans-Serif" font-size="10.00">src/models/file.hpp</text>
</a>
</g>
</g>
<!-- Node1&#45;&gt;Node12 -->
<g id="edge17_Node000001_Node000012" class="edge">
<title>Node1&#45;&gt;Node12</title>
<g id="a_edge17_Node000001_Node000012"><a xlink:title=" ">
<path fill="none" stroke="#63b8ff" d="M372.64,-299.67C379.91,-290.5 388.6,-279.52 394.5,-272.09"/>
<polygon fill="#63b8ff" stroke="#63b8ff" points="369.71,-297.74 366.24,-307.75 375.19,-302.08 369.71,-297.74"/>
</a>
</g>
</g>
<!-- Node13 -->
<g id="Node000013" class="node">
<title>Node13</title>
<g id="a_Node000013"><a xlink:href="group_8hpp.html" target="_top" xlink:title=" ">
<polygon fill="white" stroke="#666666" points="683.3,-217 561.3,-217 561.3,-198 683.3,-198 683.3,-217"/>
<text text-anchor="middle" x="622.3" y="-205" font-family="Helvetica,sans-Serif" font-size="10.00">src/models/group.hpp</text>
</a>
</g>
</g>
<!-- Node1&#45;&gt;Node13 -->
<g id="edge25_Node000001_Node000013" class="edge">
<title>Node1&#45;&gt;Node13</title>
<g id="a_edge25_Node000001_Node000013"><a xlink:title=" ">
<path fill="none" stroke="#63b8ff" d="M389.78,-303.98C443.87,-281.77 555.26,-236.03 601.49,-217.05"/>
<polygon fill="#63b8ff" stroke="#63b8ff" points="388.3,-300.81 380.38,-307.84 390.96,-307.28 388.3,-300.81"/>
</a>
</g>
</g>
<!-- Node3 -->
<g id="Node000003" class="node">
<title>Node3</title>
<g id="a_Node000003"><a xlink:href="client_8cpp.html" target="_top" xlink:title="The entrypoint to the client.">
<polygon fill="white" stroke="#666666" points="312.8,-24.5 201.8,-24.5 201.8,-5.5 312.8,-5.5 312.8,-24.5"/>
<text text-anchor="middle" x="257.3" y="-12.5" font-family="Helvetica,sans-Serif" font-size="10.00">src/client/client.cpp</text>
</a>
</g>
</g>
<!-- Node2&#45;&gt;Node3 -->
<g id="edge2_Node000002_Node000003" class="edge">
<title>Node2&#45;&gt;Node3</title>
<g id="a_edge2_Node000002_Node000003"><a xlink:title=" ">
<path fill="none" stroke="#63b8ff" d="M67.64,-133.83C31.28,-119.52 -16.77,-94.12 6.3,-66 30.54,-36.46 135.51,-24.04 201.79,-19.08"/>
<polygon fill="#63b8ff" stroke="#63b8ff" points="66.46,-137.13 77.05,-137.4 68.94,-130.58 66.46,-137.13"/>
</a>
</g>
</g>
<!-- Node4 -->
<g id="Node000004" class="node">
<title>Node4</title>
<g id="a_Node000004"><a xlink:href="downloadmanager_8cpp.html" target="_top" xlink:title=" ">
<polygon fill="white" stroke="#666666" points="189.3,-90.5 15.3,-90.5 15.3,-71.5 189.3,-71.5 189.3,-90.5"/>
<text text-anchor="middle" x="102.3" y="-78.5" font-family="Helvetica,sans-Serif" font-size="10.00">src/client/downloadmanager.cpp</text>
</a>
</g>
</g>
<!-- Node2&#45;&gt;Node4 -->
<g id="edge3_Node000002_Node000004" class="edge">
<title>Node2&#45;&gt;Node4</title>
<g id="a_edge3_Node000002_Node000004"><a xlink:title=" ">
<path fill="none" stroke="#63b8ff" d="M103.01,-127.08C102.82,-115.13 102.59,-100.22 102.44,-90.91"/>
<polygon fill="#63b8ff" stroke="#63b8ff" points="99.51,-127.42 103.17,-137.37 106.51,-127.32 99.51,-127.42"/>
</a>
</g>
</g>
<!-- Node5 -->
<g id="Node000005" class="node">
<title>Node5</title>
<g id="a_Node000005"><a xlink:href="process__input_8hpp.html" target="_top" xlink:title=" ">
<polygon fill="white" stroke="#666666" points="346.8,-96 245.8,-96 245.8,-66 346.8,-66 346.8,-96"/>
<text text-anchor="start" x="253.8" y="-84" font-family="Helvetica,sans-Serif" font-size="10.00">src/client/process</text>
<text text-anchor="middle" x="296.3" y="-73" font-family="Helvetica,sans-Serif" font-size="10.00">_input.hpp</text>
</a>
</g>
</g>
<!-- Node2&#45;&gt;Node5 -->
<g id="edge4_Node000002_Node000005" class="edge">
<title>Node2&#45;&gt;Node5</title>
<g id="a_edge4_Node000002_Node000005"><a xlink:title=" ">
<path fill="none" stroke="#63b8ff" d="M138.86,-134.21C171.3,-123.45 219.27,-107.54 253.73,-96.12"/>
<polygon fill="#63b8ff" stroke="#63b8ff" points="137.72,-130.9 129.33,-137.37 139.92,-137.54 137.72,-130.9"/>
</a>
</g>
</g>
<!-- Node5&#45;&gt;Node3 -->
<g id="edge5_Node000005_Node000003" class="edge">
<title>Node5&#45;&gt;Node3</title>
<g id="a_edge5_Node000005_Node000003"><a xlink:title=" ">
<path fill="none" stroke="#63b8ff" d="M282.25,-56.95C275.47,-45.81 267.73,-33.11 262.69,-24.84"/>
<polygon fill="#63b8ff" stroke="#63b8ff" points="279.45,-59.08 287.65,-65.8 285.43,-55.44 279.45,-59.08"/>
</a>
</g>
</g>
<!-- Node5&#45;&gt;Node6 -->
<g id="edge6_Node000005_Node000006" class="edge">
<title>Node5&#45;&gt;Node6</title>
<g id="a_edge6_Node000005_Node000006"><a xlink:title=" ">
<path fill="none" stroke="#63b8ff" d="M356.99,-63.61C395.83,-53.12 445.65,-39.67 482.42,-29.74"/>
<polygon fill="#63b8ff" stroke="#63b8ff" points="355.6,-60.36 346.85,-66.35 357.42,-67.12 355.6,-60.36"/>
</a>
</g>
</g>
<!-- Node7&#45;&gt;Node2 -->
<g id="edge8_Node000007_Node000002" class="edge">
<title>Node7&#45;&gt;Node2</title>
<g id="a_edge8_Node000007_Node000002"><a xlink:title=" ">
<path fill="none" stroke="#63b8ff" d="M104.14,-242.65C103.92,-217.74 103.54,-174.88 103.38,-156.63"/>
<polygon fill="#63b8ff" stroke="#63b8ff" points="100.64,-243 104.23,-252.97 107.64,-242.94 100.64,-243"/>
</a>
</g>
</g>
<!-- Node8&#45;&gt;Node2 -->
<g id="edge11_Node000008_Node000002" class="edge">
<title>Node8&#45;&gt;Node2</title>
<g id="a_edge11_Node000008_Node000002"><a xlink:title=" ">
<path fill="none" stroke="#63b8ff" d="M277.23,-195.32C235.65,-184.01 172.28,-166.77 134.6,-156.52"/>
<polygon fill="#63b8ff" stroke="#63b8ff" points="276.47,-198.75 287.04,-197.99 278.31,-191.99 276.47,-198.75"/>
</a>
</g>
</g>
<!-- Node8&#45;&gt;Node3 -->
<g id="edge10_Node000008_Node000003" class="edge">
<title>Node8&#45;&gt;Node3</title>
<g id="a_edge10_Node000008_Node000003"><a xlink:title=" ">
<path fill="none" stroke="#63b8ff" d="M292.84,-192.59C280.9,-184.94 267.34,-174.47 258.3,-162 240.16,-136.96 241.25,-126.52 236.3,-96 234.17,-82.84 233.67,-79.07 236.3,-66 239.39,-50.68 247.3,-34.2 252.48,-24.51"/>
<polygon fill="#63b8ff" stroke="#63b8ff" points="291.2,-195.69 301.56,-197.88 294.82,-189.7 291.2,-195.69"/>
</a>
</g>
</g>
<!-- Node9 -->
<g id="Node000009" class="node">
<title>Node9</title>
<g id="a_Node000009"><a xlink:href="peerdb_8cpp.html" target="_top" xlink:title=" ">
<polygon fill="white" stroke="#666666" points="505.3,-156.5 387.3,-156.5 387.3,-137.5 505.3,-137.5 505.3,-156.5"/>
<text text-anchor="middle" x="446.3" y="-144.5" font-family="Helvetica,sans-Serif" font-size="10.00">src/client/peerdb.cpp</text>
</a>
</g>
</g>
<!-- Node8&#45;&gt;Node9 -->
<g id="edge12_Node000008_Node000009" class="edge">
<title>Node8&#45;&gt;Node9</title>
<g id="a_edge12_Node000008_Node000009"><a xlink:title=" ">
<path fill="none" stroke="#63b8ff" d="M346.13,-193.78C370.83,-182.49 406.23,-166.31 427.67,-156.52"/>
<polygon fill="#63b8ff" stroke="#63b8ff" points="344.55,-190.65 336.91,-197.99 347.46,-197.02 344.55,-190.65"/>
</a>
</g>
</g>
<!-- Node10 -->
<g id="Node000010" class="node">
<title>Node10</title>
<g id="a_Node000010"><a xlink:href="client_2process__request_8hpp.html" target="_top" xlink:title=" ">
<polygon fill="white" stroke="#666666" points="368.8,-162 267.8,-162 267.8,-132 368.8,-132 368.8,-162"/>
<text text-anchor="start" x="275.8" y="-150" font-family="Helvetica,sans-Serif" font-size="10.00">src/client/process</text>
<text text-anchor="middle" x="318.3" y="-139" font-family="Helvetica,sans-Serif" font-size="10.00">_request.hpp</text>
</a>
</g>
</g>
<!-- Node8&#45;&gt;Node10 -->
<g id="edge13_Node000008_Node000010" class="edge">
<title>Node8&#45;&gt;Node10</title>
<g id="a_edge13_Node000008_Node000010"><a xlink:title=" ">
<path fill="none" stroke="#63b8ff" d="M318.3,-187.65C318.3,-179.36 318.3,-169.78 318.3,-162.11"/>
<polygon fill="#63b8ff" stroke="#63b8ff" points="314.8,-187.87 318.3,-197.87 321.8,-187.87 314.8,-187.87"/>
</a>
</g>
</g>
<!-- Node10&#45;&gt;Node3 -->
<g id="edge14_Node000010_Node000003" class="edge">
<title>Node10&#45;&gt;Node3</title>
<g id="a_edge14_Node000010_Node000003"><a xlink:title=" ">
<path fill="none" stroke="#63b8ff" d="M339.85,-124.38C353.6,-107.87 366.84,-84.84 355.3,-66 342.03,-44.34 316.1,-31.69 294.24,-24.53"/>
<polygon fill="#63b8ff" stroke="#63b8ff" points="337.19,-122.11 333.17,-131.91 342.43,-126.75 337.19,-122.11"/>
</a>
</g>
</g>
<!-- Node11 -->
<g id="Node000011" class="node">
<title>Node11</title>
<g id="a_Node000011"><a xlink:href="client_2process__request_8cpp.html" target="_top" xlink:title=" ">
<polygon fill="white" stroke="#666666" points="504.8,-96 403.8,-96 403.8,-66 504.8,-66 504.8,-96"/>
<text text-anchor="start" x="411.8" y="-84" font-family="Helvetica,sans-Serif" font-size="10.00">src/client/process</text>
<text text-anchor="middle" x="454.3" y="-73" font-family="Helvetica,sans-Serif" font-size="10.00">_request.cpp</text>
</a>
</g>
</g>
<!-- Node10&#45;&gt;Node11 -->
<g id="edge15_Node000010_Node000011" class="edge">
<title>Node10&#45;&gt;Node11</title>
<g id="a_edge15_Node000010_Node000011"><a xlink:title=" ">
<path fill="none" stroke="#63b8ff" d="M357.3,-127.65C378.69,-117.58 404.79,-105.3 424.53,-96.01"/>
<polygon fill="#63b8ff" stroke="#63b8ff" points="355.71,-124.53 348.15,-131.95 358.69,-130.86 355.71,-124.53"/>
</a>
</g>
</g>
<!-- Node12&#45;&gt;Node2 -->
<g id="edge18_Node000012_Node000002" class="edge">
<title>Node12&#45;&gt;Node2</title>
<g id="a_edge18_Node000012_Node000002"><a xlink:title=" ">
<path fill="none" stroke="#63b8ff" d="M356.44,-250.35C325.85,-242.26 284.63,-230.43 249.3,-217 236.39,-212.1 156.89,-173.88 120.94,-156.52"/>
<polygon fill="#63b8ff" stroke="#63b8ff" points="355.82,-253.8 366.38,-252.94 357.59,-247.03 355.82,-253.8"/>
</a>
</g>
</g>
<!-- Node12&#45;&gt;Node6 -->
<g id="edge20_Node000012_Node000006" class="edge">
<title>Node12&#45;&gt;Node6</title>
<g id="a_edge20_Node000012_Node000006"><a xlink:title=" ">
<path fill="none" stroke="#63b8ff" d="M425.64,-247.57C452.26,-230.91 493.87,-200.39 514.3,-162 537.48,-118.45 536.51,-57.58 534.63,-30.26"/>
<polygon fill="#63b8ff" stroke="#63b8ff" points="423.63,-244.69 416.9,-252.88 427.27,-250.68 423.63,-244.69"/>
</a>
</g>
</g>
<!-- Node12&#45;&gt;Node8 -->
<g id="edge19_Node000012_Node000008" class="edge">
<title>Node12&#45;&gt;Node8</title>
<g id="a_edge19_Node000012_Node000008"><a xlink:title=" ">
<path fill="none" stroke="#63b8ff" d="M379.26,-247.42C364.2,-237.81 344.72,-225.37 331.88,-217.17"/>
<polygon fill="#63b8ff" stroke="#63b8ff" points="377.65,-250.55 387.97,-252.98 381.42,-244.65 377.65,-250.55"/>
</a>
</g>
</g>
<!-- Node12&#45;&gt;Node13 -->
<g id="edge21_Node000012_Node000013" class="edge">
<title>Node12&#45;&gt;Node13</title>
<g id="a_edge21_Node000012_Node000013"><a xlink:title=" ">
<path fill="none" stroke="#63b8ff" d="M446.64,-250.63C488.04,-240.7 548.42,-226.22 586.52,-217.08"/>
<polygon fill="#63b8ff" stroke="#63b8ff" points="445.72,-247.25 436.81,-252.98 447.35,-254.06 445.72,-247.25"/>
</a>
</g>
</g>
<!-- Node14 -->
<g id="Node000014" class="node">
<title>Node14</title>
<g id="a_Node000014"><a xlink:href="groupdb_8hpp.html" target="_top" xlink:title=" ">
<polygon fill="white" stroke="#666666" points="692.8,-156.5 561.8,-156.5 561.8,-137.5 692.8,-137.5 692.8,-156.5"/>
<text text-anchor="middle" x="627.3" y="-144.5" font-family="Helvetica,sans-Serif" font-size="10.00">src/tracker/groupdb.hpp</text>
</a>
</g>
</g>
<!-- Node13&#45;&gt;Node14 -->
<g id="edge22_Node000013_Node000014" class="edge">
<title>Node13&#45;&gt;Node14</title>
<g id="a_edge22_Node000013_Node000014"><a xlink:title=" ">
<path fill="none" stroke="#63b8ff" d="M623.91,-187.66C624.8,-177.24 625.87,-164.8 626.56,-156.67"/>
<polygon fill="#63b8ff" stroke="#63b8ff" points="620.4,-187.61 623.04,-197.87 627.38,-188.2 620.4,-187.61"/>
</a>
</g>
</g>
<!-- Node15 -->
<g id="Node000015" class="node">
<title>Node15</title>
<g id="a_Node000015"><a xlink:href="groupdb_8cpp.html" target="_top" xlink:title=" ">
<polygon fill="white" stroke="#666666" points="818.8,-90.5 687.8,-90.5 687.8,-71.5 818.8,-71.5 818.8,-90.5"/>
<text text-anchor="middle" x="753.3" y="-78.5" font-family="Helvetica,sans-Serif" font-size="10.00">src/tracker/groupdb.cpp</text>
</a>
</g>
</g>
<!-- Node14&#45;&gt;Node15 -->
<g id="edge23_Node000014_Node000015" class="edge">
<title>Node14&#45;&gt;Node15</title>
<g id="a_edge23_Node000014_Node000015"><a xlink:title=" ">
<path fill="none" stroke="#63b8ff" d="M653.5,-132.69C678.32,-120.09 714.88,-101.51 736.18,-90.7"/>
<polygon fill="#63b8ff" stroke="#63b8ff" points="651.63,-129.72 644.29,-137.37 654.8,-135.96 651.63,-129.72"/>
</a>
</g>
</g>
<!-- Node16 -->
<g id="Node000016" class="node">
<title>Node16</title>
<g id="a_Node000016"><a xlink:href="tracker_2process__request_8cpp.html" target="_top" xlink:title=" ">
<polygon fill="white" stroke="#666666" points="669.3,-96 561.3,-96 561.3,-66 669.3,-66 669.3,-96"/>
<text text-anchor="start" x="569.3" y="-84" font-family="Helvetica,sans-Serif" font-size="10.00">src/tracker/process</text>
<text text-anchor="middle" x="615.3" y="-73" font-family="Helvetica,sans-Serif" font-size="10.00">_request.cpp</text>
</a>
</g>
</g>
<!-- Node14&#45;&gt;Node16 -->
<g id="edge24_Node000014_Node000016" class="edge">
<title>Node14&#45;&gt;Node16</title>
<g id="a_edge24_Node000014_Node000016"><a xlink:title=" ">
<path fill="none" stroke="#63b8ff" d="M623.8,-127.35C621.95,-117.47 619.71,-105.51 617.99,-96.36"/>
<polygon fill="#63b8ff" stroke="#63b8ff" points="620.4,-128.18 625.68,-137.37 627.28,-126.89 620.4,-128.18"/>
</a>
</g>
</g>
</g>
</svg>
