<?xml version="1.0" encoding="UTF-8" standalone="no"?>
<!DOCTYPE svg PUBLIC "-//W3C//DTD SVG 1.1//EN"
 "http://www.w3.org/Graphics/SVG/1.1/DTD/svg11.dtd">
<!-- Generated by graphviz version 2.43.0 (0)
 -->
<!-- Title: src/models/fileinfo.hpp Pages: 1 -->
<svg width="955pt" height="335pt"
 viewBox="0.00 0.00 954.50 335.00" xmlns="http://www.w3.org/2000/svg" xmlns:xlink="http://www.w3.org/1999/xlink">
<g id="graph0" class="graph" transform="scale(1 1) rotate(0) translate(4 331)">
<title>src/models/fileinfo.hpp</title>
<!-- Node1 -->
<g id="Node000001" class="node">
<title>Node1</title>
<g id="a_Node000001"><a xlink:title=" ">
<polygon fill="#999999" stroke="#666666" points="331.5,-327 203.5,-327 203.5,-308 331.5,-308 331.5,-327"/>
<text text-anchor="middle" x="267.5" y="-315" font-family="Helvetica,sans-Serif" font-size="10.00">src/models/fileinfo.hpp</text>
</a>
</g>
</g>
<!-- Node2 -->
<g id="Node000002" class="node">
<title>Node2</title>
<g id="a_Node000002"><a xlink:href="downloadmanager_8hpp.html" target="_top" xlink:title=" ">
<polygon fill="white" stroke="#666666" points="377,-156.5 202,-156.5 202,-137.5 377,-137.5 377,-156.5"/>
<text text-anchor="middle" x="289.5" y="-144.5" font-family="Helvetica,sans-Serif" font-size="10.00">src/client/downloadmanager.hpp</text>
</a>
</g>
</g>
<!-- Node1&#45;&gt;Node2 -->
<g id="edge1_Node000001_Node000002" class="edge">
<title>Node1&#45;&gt;Node2</title>
<g id="a_edge1_Node000001_Node000002"><a xlink:title=" ">
<path fill="none" stroke="#63b8ff" d="M256.93,-298.77C252.8,-290.86 248.58,-281.26 246.5,-272 244.65,-263.76 244.87,-261.29 246.5,-253 253.92,-215.31 274.98,-174.12 284.6,-156.62"/>
<polygon fill="#63b8ff" stroke="#63b8ff" points="253.99,-300.69 261.92,-307.72 260.1,-297.28 253.99,-300.69"/>
</a>
</g>
</g>
<!-- Node6 -->
<g id="Node000006" class="node">
<title>Node6</title>
<g id="a_Node000006"><a xlink:href="process__input_8cpp.html" target="_top" xlink:title=" ">
<polygon fill="white" stroke="#666666" points="101,-30 0,-30 0,0 101,0 101,-30"/>
<text text-anchor="start" x="8" y="-18" font-family="Helvetica,sans-Serif" font-size="10.00">src/client/process</text>
<text text-anchor="middle" x="50.5" y="-7" font-family="Helvetica,sans-Serif" font-size="10.00">_input.cpp</text>
</a>
</g>
</g>
<!-- Node1&#45;&gt;Node6 -->
<g id="edge17_Node000001_Node000006" class="edge">
<title>Node1&#45;&gt;Node6</title>
<g id="a_edge17_Node000001_Node000006"><a xlink:title=" ">
<path fill="none" stroke="#63b8ff" d="M193.07,-315.28C117.81,-309.63 12.5,-287.59 12.5,-208.5 12.5,-208.5 12.5,-208.5 12.5,-146 12.5,-102.26 32.56,-53.46 43.53,-30.03"/>
<polygon fill="#63b8ff" stroke="#63b8ff" points="193.27,-318.8 203.48,-315.98 193.74,-311.82 193.27,-318.8"/>
</a>
</g>
</g>
<!-- Node7 -->
<g id="Node000007" class="node">
<title>Node7</title>
<g id="a_Node000007"><a xlink:href="partfile_8hpp.html" target="_top" xlink:title=" ">
<polygon fill="white" stroke="#666666" points="198,-272 79,-272 79,-253 198,-253 198,-272"/>
<text text-anchor="middle" x="138.5" y="-260" font-family="Helvetica,sans-Serif" font-size="10.00">src/client/partfile.hpp</text>
</a>
</g>
</g>
<!-- Node1&#45;&gt;Node7 -->
<g id="edge7_Node000001_Node000007" class="edge">
<title>Node1&#45;&gt;Node7</title>
<g id="a_edge7_Node000001_Node000007"><a xlink:title=" ">
<path fill="none" stroke="#63b8ff" d="M237.46,-304.16C213.58,-294.35 180.78,-280.87 159.6,-272.17"/>
<polygon fill="#63b8ff" stroke="#63b8ff" points="236.19,-307.42 246.77,-307.98 238.85,-300.95 236.19,-307.42"/>
</a>
</g>
</g>
<!-- Node9 -->
<g id="Node000009" class="node">
<title>Node9</title>
<g id="a_Node000009"><a xlink:href="peerdb_8hpp.html" target="_top" xlink:title=" ">
<polygon fill="white" stroke="#666666" points="452,-217 333,-217 333,-198 452,-198 452,-217"/>
<text text-anchor="middle" x="392.5" y="-205" font-family="Helvetica,sans-Serif" font-size="10.00">src/client/peerdb.hpp</text>
</a>
</g>
</g>
<!-- Node1&#45;&gt;Node9 -->
<g id="edge10_Node000001_Node000009" class="edge">
<title>Node1&#45;&gt;Node9</title>
<g id="a_edge10_Node000001_Node000009"><a xlink:title=" ">
<path fill="none" stroke="#63b8ff" d="M319.19,-304.87C338.56,-298.17 359.29,-287.81 373.5,-272 387.65,-256.25 391.28,-230.34 392.19,-217.01"/>
<polygon fill="#63b8ff" stroke="#63b8ff" points="317.98,-301.59 309.53,-307.97 320.12,-308.25 317.98,-301.59"/>
</a>
</g>
</g>
<!-- Node13 -->
<g id="Node000013" class="node">
<title>Node13</title>
<g id="a_Node000013"><a xlink:href="file_8hpp.html" target="_top" xlink:title=" ">
<polygon fill="white" stroke="#666666" points="364,-272 255,-272 255,-253 364,-253 364,-272"/>
<text text-anchor="middle" x="309.5" y="-260" font-family="Helvetica,sans-Serif" font-size="10.00">src/models/file.hpp</text>
</a>
</g>
</g>
<!-- Node1&#45;&gt;Node13 -->
<g id="edge18_Node000001_Node000013" class="edge">
<title>Node1&#45;&gt;Node13</title>
<g id="a_edge18_Node000001_Node000013"><a xlink:title=" ">
<path fill="none" stroke="#63b8ff" d="M280.83,-299.67C288.11,-290.5 296.8,-279.52 302.69,-272.09"/>
<polygon fill="#63b8ff" stroke="#63b8ff" points="277.9,-297.74 274.44,-307.75 283.39,-302.08 277.9,-297.74"/>
</a>
</g>
</g>
<!-- Node14 -->
<g id="Node000014" class="node">
<title>Node14</title>
<g id="a_Node000014"><a xlink:href="group_8hpp.html" target="_top" xlink:title=" ">
<polygon fill="white" stroke="#666666" points="592.5,-217 470.5,-217 470.5,-198 592.5,-198 592.5,-217"/>
<text text-anchor="middle" x="531.5" y="-205" font-family="Helvetica,sans-Serif" font-size="10.00">src/models/group.hpp</text>
</a>
</g>
</g>
<!-- Node1&#45;&gt;Node14 -->
<g id="edge26_Node000001_Node000014" class="edge">
<title>Node1&#45;&gt;Node14</title>
<g id="a_edge26_Node000001_Node000014"><a xlink:title=" ">
<path fill="none" stroke="#63b8ff" d="M303.11,-304.74C328.29,-296.2 362.72,-284.08 392.5,-272 437,-253.95 488.06,-229.68 514.16,-217.01"/>
<polygon fill="#63b8ff" stroke="#63b8ff" points="301.96,-301.43 293.6,-307.94 304.2,-308.07 301.96,-301.43"/>
</a>
</g>
</g>
<!-- Node3 -->
<g id="Node000003" class="node">
<title>Node3</title>
<g id="a_Node000003"><a xlink:href="client_8cpp.html" target="_top" xlink:title="The entrypoint to the client.">
<polygon fill="white" stroke="#666666" points="475,-24.5 364,-24.5 364,-5.5 475,-5.5 475,-24.5"/>
<text text-anchor="middle" x="419.5" y="-12.5" font-family="Helvetica,sans-Serif" font-size="10.00">src/client/client.cpp</text>
</a>
</g>
</g>
<!-- Node2&#45;&gt;Node3 -->
<g id="edge2_Node000002_Node000003" class="edge">
<title>Node2&#45;&gt;Node3</title>
<g id="a_edge2_Node000002_Node000003"><a xlink:title=" ">
<path fill="none" stroke="#63b8ff" d="M324,-133.45C342.9,-125.18 365.64,-112.75 381.5,-96 401.69,-74.68 412.91,-40.64 417.3,-24.73"/>
<polygon fill="#63b8ff" stroke="#63b8ff" points="322.4,-130.33 314.52,-137.4 325.1,-136.79 322.4,-130.33"/>
</a>
</g>
</g>
<!-- Node4 -->
<g id="Node000004" class="node">
<title>Node4</title>
<g id="a_Node000004"><a xlink:href="downloadmanager_8cpp.html" target="_top" xlink:title=" ">
<polygon fill="white" stroke="#666666" points="252.5,-90.5 78.5,-90.5 78.5,-71.5 252.5,-71.5 252.5,-90.5"/>
<text text-anchor="middle" x="165.5" y="-78.5" font-family="Helvetica,sans-Serif" font-size="10.00">src/client/downloadmanager.cpp</text>
</a>
</g>
</g>
<!-- Node2&#45;&gt;Node4 -->
<g id="edge3_Node000002_Node000004" class="edge">
<title>Node2&#45;&gt;Node4</title>
<g id="a_edge3_Node000002_Node000004"><a xlink:title=" ">
<path fill="none" stroke="#63b8ff" d="M263.72,-132.69C239.29,-120.09 203.31,-101.51 182.35,-90.7"/>
<polygon fill="#63b8ff" stroke="#63b8ff" points="262.29,-135.89 272.78,-137.37 265.5,-129.67 262.29,-135.89"/>
</a>
</g>
</g>
<!-- Node5 -->
<g id="Node000005" class="node">
<title>Node5</title>
<g id="a_Node000005"><a xlink:href="process__input_8hpp.html" target="_top" xlink:title=" ">
<polygon fill="white" stroke="#666666" points="372,-96 271,-96 271,-66 372,-66 372,-96"/>
<text text-anchor="start" x="279" y="-84" font-family="Helvetica,sans-Serif" font-size="10.00">src/client/process</text>
<text text-anchor="middle" x="321.5" y="-73" font-family="Helvetica,sans-Serif" font-size="10.00">_input.hpp</text>
</a>
</g>
</g>
<!-- Node2&#45;&gt;Node5 -->
<g id="edge4_Node000002_Node000005" class="edge">
<title>Node2&#45;&gt;Node5</title>
<g id="a_edge4_Node000002_Node000005"><a xlink:title=" ">
<path fill="none" stroke="#63b8ff" d="M298.35,-128.3C303.38,-118.24 309.6,-105.81 314.32,-96.36"/>
<polygon fill="#63b8ff" stroke="#63b8ff" points="295.16,-126.86 293.82,-137.37 301.42,-129.99 295.16,-126.86"/>
</a>
</g>
</g>
<!-- Node5&#45;&gt;Node3 -->
<g id="edge5_Node000005_Node000003" class="edge">
<title>Node5&#45;&gt;Node3</title>
<g id="a_edge5_Node000005_Node000003"><a xlink:title=" ">
<path fill="none" stroke="#63b8ff" d="M351.82,-60.2C370.06,-48.29 392.35,-33.73 406.24,-24.66"/>
<polygon fill="#63b8ff" stroke="#63b8ff" points="349.71,-57.4 343.25,-65.8 353.54,-63.26 349.71,-57.4"/>
</a>
</g>
</g>
<!-- Node5&#45;&gt;Node6 -->
<g id="edge6_Node000005_Node000006" class="edge">
<title>Node5&#45;&gt;Node6</title>
<g id="a_edge6_Node000005_Node000006"><a xlink:title=" ">
<path fill="none" stroke="#63b8ff" d="M260.89,-65.69C212.9,-54.35 146.63,-38.7 101.37,-28.01"/>
<polygon fill="#63b8ff" stroke="#63b8ff" points="260.31,-69.14 270.84,-68.04 261.92,-62.33 260.31,-69.14"/>
</a>
</g>
</g>
<!-- Node7&#45;&gt;Node2 -->
<g id="edge8_Node000007_Node000002" class="edge">
<title>Node7&#45;&gt;Node2</title>
<g id="a_edge8_Node000007_Node000002"><a xlink:title=" ">
<path fill="none" stroke="#63b8ff" d="M155.46,-245.81C170.12,-232.52 192.11,-213.26 212.5,-198 233.43,-182.34 259.14,-166.22 274.92,-156.66"/>
<polygon fill="#63b8ff" stroke="#63b8ff" points="152.76,-243.53 147.74,-252.86 157.49,-248.7 152.76,-243.53"/>
</a>
</g>
</g>
<!-- Node8 -->
<g id="Node000008" class="node">
<title>Node8</title>
<g id="a_Node000008"><a xlink:href="partfile_8cpp.html" target="_top" xlink:title=" ">
<polygon fill="white" stroke="#666666" points="160,-217 41,-217 41,-198 160,-198 160,-217"/>
<text text-anchor="middle" x="100.5" y="-205" font-family="Helvetica,sans-Serif" font-size="10.00">src/client/partfile.cpp</text>
</a>
</g>
</g>
<!-- Node7&#45;&gt;Node8 -->
<g id="edge9_Node000007_Node000008" class="edge">
<title>Node7&#45;&gt;Node8</title>
<g id="a_edge9_Node000007_Node000008"><a xlink:title=" ">
<path fill="none" stroke="#63b8ff" d="M126.23,-244.39C119.69,-235.27 111.93,-224.45 106.66,-217.09"/>
<polygon fill="#63b8ff" stroke="#63b8ff" points="123.55,-246.66 132.23,-252.75 129.24,-242.58 123.55,-246.66"/>
</a>
</g>
</g>
<!-- Node9&#45;&gt;Node2 -->
<g id="edge12_Node000009_Node000002" class="edge">
<title>Node9&#45;&gt;Node2</title>
<g id="a_edge12_Node000009_Node000002"><a xlink:title=" ">
<path fill="none" stroke="#63b8ff" d="M368.6,-192.92C348.91,-181.74 321.6,-166.23 304.76,-156.67"/>
<polygon fill="#63b8ff" stroke="#63b8ff" points="366.88,-195.97 377.3,-197.87 370.34,-189.89 366.88,-195.97"/>
</a>
</g>
</g>
<!-- Node9&#45;&gt;Node3 -->
<g id="edge11_Node000009_Node000003" class="edge">
<title>Node9&#45;&gt;Node3</title>
<g id="a_edge11_Node000009_Node000003"><a xlink:title=" ">
<path fill="none" stroke="#63b8ff" d="M395.16,-187.75C400.87,-147.43 414.15,-53.75 418.26,-24.73"/>
<polygon fill="#63b8ff" stroke="#63b8ff" points="391.67,-187.43 393.73,-197.82 398.6,-188.41 391.67,-187.43"/>
</a>
</g>
</g>
<!-- Node10 -->
<g id="Node000010" class="node">
<title>Node10</title>
<g id="a_Node000010"><a xlink:href="peerdb_8cpp.html" target="_top" xlink:title=" ">
<polygon fill="white" stroke="#666666" points="551.5,-156.5 433.5,-156.5 433.5,-137.5 551.5,-137.5 551.5,-156.5"/>
<text text-anchor="middle" x="492.5" y="-144.5" font-family="Helvetica,sans-Serif" font-size="10.00">src/client/peerdb.cpp</text>
</a>
</g>
</g>
<!-- Node9&#45;&gt;Node10 -->
<g id="edge13_Node000009_Node000010" class="edge">
<title>Node9&#45;&gt;Node10</title>
<g id="a_edge13_Node000009_Node000010"><a xlink:title=" ">
<path fill="none" stroke="#63b8ff" d="M415.97,-192.77C435.06,-181.6 461.41,-166.19 477.68,-156.67"/>
<polygon fill="#63b8ff" stroke="#63b8ff" points="414.12,-189.8 407.26,-197.87 417.65,-195.84 414.12,-189.8"/>
</a>
</g>
</g>
<!-- Node11 -->
<g id="Node000011" class="node">
<title>Node11</title>
<g id="a_Node000011"><a xlink:href="client_2process__request_8hpp.html" target="_top" xlink:title=" ">
<polygon fill="white" stroke="#666666" points="671,-162 570,-162 570,-132 671,-132 671,-162"/>
<text text-anchor="start" x="578" y="-150" font-family="Helvetica,sans-Serif" font-size="10.00">src/client/process</text>
<text text-anchor="middle" x="620.5" y="-139" font-family="Helvetica,sans-Serif" font-size="10.00">_request.hpp</text>
</a>
</g>
</g>
<!-- Node9&#45;&gt;Node11 -->
<g id="edge14_Node000009_Node000011" class="edge">
<title>Node9&#45;&gt;Node11</title>
<g id="a_edge14_Node000009_Node000011"><a xlink:title=" ">
<path fill="none" stroke="#63b8ff" d="M435.42,-195.49C473.53,-185.71 529.27,-171.41 569.61,-161.06"/>
<polygon fill="#63b8ff" stroke="#63b8ff" points="434.47,-192.12 425.65,-197.99 436.21,-198.9 434.47,-192.12"/>
</a>
</g>
</g>
<!-- Node11&#45;&gt;Node3 -->
<g id="edge15_Node000011_Node000003" class="edge">
<title>Node11&#45;&gt;Node3</title>
<g id="a_edge15_Node000011_Node000003"><a xlink:title=" ">
<path fill="none" stroke="#63b8ff" d="M589.97,-126.25C545.55,-97.53 464.93,-45.39 433.03,-24.75"/>
<polygon fill="#63b8ff" stroke="#63b8ff" points="588.31,-129.35 598.61,-131.84 592.11,-123.47 588.31,-129.35"/>
</a>
</g>
</g>
<!-- Node12 -->
<g id="Node000012" class="node">
<title>Node12</title>
<g id="a_Node000012"><a xlink:href="client_2process__request_8cpp.html" target="_top" xlink:title=" ">
<polygon fill="white" stroke="#666666" points="671,-96 570,-96 570,-66 671,-66 671,-96"/>
<text text-anchor="start" x="578" y="-84" font-family="Helvetica,sans-Serif" font-size="10.00">src/client/process</text>
<text text-anchor="middle" x="620.5" y="-73" font-family="Helvetica,sans-Serif" font-size="10.00">_request.cpp</text>
</a>
</g>
</g>
<!-- Node11&#45;&gt;Node12 -->
<g id="edge16_Node000011_Node000012" class="edge">
<title>Node11&#45;&gt;Node12</title>
<g id="a_edge16_Node000011_Node000012"><a xlink:title=" ">
<path fill="none" stroke="#63b8ff" d="M620.5,-121.54C620.5,-112.96 620.5,-103.61 620.5,-96.16"/>
<polygon fill="#63b8ff" stroke="#63b8ff" points="617,-121.8 620.5,-131.8 624,-121.8 617,-121.8"/>
</a>
</g>
</g>
<!-- Node13&#45;&gt;Node2 -->
<g id="edge19_Node000013_Node000002" class="edge">
<title>Node13&#45;&gt;Node2</title>
<g id="a_edge19_Node000013_Node000002"><a xlink:title=" ">
<path fill="none" stroke="#63b8ff" d="M306.24,-242.99C301.86,-218.13 294.25,-174.96 291.02,-156.63"/>
<polygon fill="#63b8ff" stroke="#63b8ff" points="302.81,-243.73 308,-252.97 309.71,-242.51 302.81,-243.73"/>
</a>
</g>
</g>
<!-- Node13&#45;&gt;Node6 -->
<g id="edge21_Node000013_Node000006" class="edge">
<title>Node13&#45;&gt;Node6</title>
<g id="a_edge21_Node000013_Node000006"><a xlink:title=" ">
<path fill="none" stroke="#63b8ff" d="M278.2,-248.92C226.32,-226.39 122.94,-174.09 69.5,-96 55.79,-75.97 51.91,-47.27 50.85,-30.24"/>
<polygon fill="#63b8ff" stroke="#63b8ff" points="276.99,-252.21 287.56,-252.9 279.73,-245.77 276.99,-252.21"/>
</a>
</g>
</g>
<!-- Node13&#45;&gt;Node9 -->
<g id="edge20_Node000013_Node000009" class="edge">
<title>Node13&#45;&gt;Node9</title>
<g id="a_edge20_Node000013_Node000009"><a xlink:title=" ">
<path fill="none" stroke="#63b8ff" d="M331.54,-247.42C346.61,-237.81 366.09,-225.37 378.92,-217.17"/>
<polygon fill="#63b8ff" stroke="#63b8ff" points="329.38,-244.65 322.84,-252.98 333.15,-250.55 329.38,-244.65"/>
</a>
</g>
</g>
<!-- Node13&#45;&gt;Node14 -->
<g id="edge22_Node000013_Node000014" class="edge">
<title>Node13&#45;&gt;Node14</title>
<g id="a_edge22_Node000013_Node000014"><a xlink:title=" ">
<path fill="none" stroke="#63b8ff" d="M355.04,-250.63C396.63,-240.7 457.28,-226.22 495.55,-217.08"/>
<polygon fill="#63b8ff" stroke="#63b8ff" points="354.08,-247.26 345.17,-252.98 355.71,-254.07 354.08,-247.26"/>
</a>
</g>
</g>
<!-- Node15 -->
<g id="Node000015" class="node">
<title>Node15</title>
<g id="a_Node000015"><a xlink:href="groupdb_8hpp.html" target="_top" xlink:title=" ">
<polygon fill="white" stroke="#666666" points="820,-156.5 689,-156.5 689,-137.5 820,-137.5 820,-156.5"/>
<text text-anchor="middle" x="754.5" y="-144.5" font-family="Helvetica,sans-Serif" font-size="10.00">src/tracker/groupdb.hpp</text>
</a>
</g>
</g>
<!-- Node14&#45;&gt;Node15 -->
<g id="edge23_Node000014_Node000015" class="edge">
<title>Node14&#45;&gt;Node15</title>
<g id="a_edge23_Node000014_Node000015"><a xlink:title=" ">
<path fill="none" stroke="#63b8ff" d="M573.83,-195.4C616.95,-184.08 682.88,-166.79 722.03,-156.52"/>
<polygon fill="#63b8ff" stroke="#63b8ff" points="572.71,-192.07 563.93,-197.99 574.49,-198.84 572.71,-192.07"/>
</a>
</g>
</g>
<!-- Node16 -->
<g id="Node000016" class="node">
<title>Node16</title>
<g id="a_Node000016"><a xlink:href="groupdb_8cpp.html" target="_top" xlink:title=" ">
<polygon fill="white" stroke="#666666" points="820,-90.5 689,-90.5 689,-71.5 820,-71.5 820,-90.5"/>
<text text-anchor="middle" x="754.5" y="-78.5" font-family="Helvetica,sans-Serif" font-size="10.00">src/tracker/groupdb.cpp</text>
</a>
</g>
</g>
<!-- Node15&#45;&gt;Node16 -->
<g id="edge24_Node000015_Node000016" class="edge">
<title>Node15&#45;&gt;Node16</title>
<g id="a_edge24_Node000015_Node000016"><a xlink:title=" ">
<path fill="none" stroke="#63b8ff" d="M754.5,-127.08C754.5,-115.13 754.5,-100.22 754.5,-90.91"/>
<polygon fill="#63b8ff" stroke="#63b8ff" points="751,-127.37 754.5,-137.37 758,-127.37 751,-127.37"/>
</a>
</g>
</g>
<!-- Node17 -->
<g id="Node000017" class="node">
<title>Node17</title>
<g id="a_Node000017"><a xlink:href="tracker_2process__request_8cpp.html" target="_top" xlink:title=" ">
<polygon fill="white" stroke="#666666" points="946.5,-96 838.5,-96 838.5,-66 946.5,-66 946.5,-96"/>
<text text-anchor="start" x="846.5" y="-84" font-family="Helvetica,sans-Serif" font-size="10.00">src/tracker/process</text>
<text text-anchor="middle" x="892.5" y="-73" font-family="Helvetica,sans-Serif" font-size="10.00">_request.cpp</text>
</a>
</g>
</g>
<!-- Node15&#45;&gt;Node17 -->
<g id="edge25_Node000015_Node000017" class="edge">
<title>Node15&#45;&gt;Node17</title>
<g id="a_edge25_Node000015_Node000017"><a xlink:title=" ">
<path fill="none" stroke="#63b8ff" d="M782.37,-133.08C805.47,-122.36 838.27,-107.15 862.06,-96.12"/>
<polygon fill="#63b8ff" stroke="#63b8ff" points="780.71,-129.99 773.11,-137.37 783.66,-136.34 780.71,-129.99"/>
</a>
</g>
</g>
</g>
</svg>
