<?xml version="1.0" encoding="UTF-8" standalone="no"?>
<!DOCTYPE svg PUBLIC "-//W3C//DTD SVG 1.1//EN"
 "http://www.w3.org/Graphics/SVG/1.1/DTD/svg11.dtd">
<!-- Generated by graphviz version 2.43.0 (0)
 -->
<!-- Title: src/models/fileinfo.hpp Pages: 1 -->
<svg width="1106pt" height="335pt"
 viewBox="0.00 0.00 1106.42 335.00" xmlns="http://www.w3.org/2000/svg" xmlns:xlink="http://www.w3.org/1999/xlink">
<g id="graph0" class="graph" transform="scale(1 1) rotate(0) translate(4 331)">
<title>src/models/fileinfo.hpp</title>
<!-- Node1 -->
<g id="Node000001" class="node">
<title>Node1</title>
<g id="a_Node000001"><a xlink:title=" ">
<polygon fill="#999999" stroke="#666666" points="404.5,-327 276.5,-327 276.5,-308 404.5,-308 404.5,-327"/>
<text text-anchor="middle" x="340.5" y="-315" font-family="Helvetica,sans-Serif" font-size="10.00">src/models/fileinfo.hpp</text>
</a>
</g>
</g>
<!-- Node2 -->
<g id="Node000002" class="node">
<title>Node2</title>
<g id="a_Node000002"><a xlink:href="partfile_8hpp.html" target="_top" xlink:title=" ">
<polygon fill="white" stroke="#666666" points="254,-272 135,-272 135,-253 254,-253 254,-272"/>
<text text-anchor="middle" x="194.5" y="-260" font-family="Helvetica,sans-Serif" font-size="10.00">src/client/partfile.hpp</text>
</a>
</g>
</g>
<!-- Node1&#45;&gt;Node2 -->
<g id="edge1_Node000001_Node000002" class="edge">
<title>Node1&#45;&gt;Node2</title>
<g id="a_edge1_Node000001_Node000002"><a xlink:title=" ">
<path fill="none" stroke="#63b8ff" d="M307.58,-304.55C280.47,-294.71 242.67,-280.98 218.38,-272.17"/>
<polygon fill="#63b8ff" stroke="#63b8ff" points="306.45,-307.86 317.04,-307.98 308.84,-301.28 306.45,-307.86"/>
</a>
</g>
</g>
<!-- Node8 -->
<g id="Node000008" class="node">
<title>Node8</title>
<g id="a_Node000008"><a xlink:href="process__input_8cpp.html" target="_top" xlink:title=" ">
<polygon fill="white" stroke="#666666" points="833,-30 732,-30 732,0 833,0 833,-30"/>
<text text-anchor="start" x="740" y="-18" font-family="Helvetica,sans-Serif" font-size="10.00">src/client/process</text>
<text text-anchor="middle" x="782.5" y="-7" font-family="Helvetica,sans-Serif" font-size="10.00">_input.cpp</text>
</a>
</g>
</g>
<!-- Node1&#45;&gt;Node8 -->
<g id="edge13_Node000001_Node000008" class="edge">
<title>Node1&#45;&gt;Node8</title>
<g id="a_edge13_Node000001_Node000008"><a xlink:title=" ">
<path fill="none" stroke="#63b8ff" d="M414.84,-313.6C605.41,-305.19 1096.5,-276.89 1096.5,-208.5 1096.5,-208.5 1096.5,-208.5 1096.5,-146 1096.5,-109.46 1104.17,-90.98 1077.5,-66 1042.95,-33.64 908.08,-22.01 833.24,-18"/>
<polygon fill="#63b8ff" stroke="#63b8ff" points="414.47,-310.12 404.63,-314.05 414.77,-317.11 414.47,-310.12"/>
</a>
</g>
</g>
<!-- Node11 -->
<g id="Node000011" class="node">
<title>Node11</title>
<g id="a_Node000011"><a xlink:href="client_2process__request_8cpp.html" target="_top" xlink:title=" ">
<polygon fill="white" stroke="#666666" points="311,-96 210,-96 210,-66 311,-66 311,-96"/>
<text text-anchor="start" x="218" y="-84" font-family="Helvetica,sans-Serif" font-size="10.00">src/client/process</text>
<text text-anchor="middle" x="260.5" y="-73" font-family="Helvetica,sans-Serif" font-size="10.00">_request.cpp</text>
</a>
</g>
</g>
<!-- Node1&#45;&gt;Node11 -->
<g id="edge14_Node000001_Node000011" class="edge">
<title>Node1&#45;&gt;Node11</title>
<g id="a_edge14_Node000001_Node000011"><a xlink:title=" ">
<path fill="none" stroke="#63b8ff" d="M334.27,-298.24C318.87,-253.09 279.25,-136.95 265.38,-96.31"/>
<polygon fill="#63b8ff" stroke="#63b8ff" points="331.02,-299.54 337.56,-307.88 337.64,-297.28 331.02,-299.54"/>
</a>
</g>
</g>
<!-- Node13 -->
<g id="Node000013" class="node">
<title>Node13</title>
<g id="a_Node000013"><a xlink:href="file_8hpp.html" target="_top" xlink:title=" ">
<polygon fill="white" stroke="#666666" points="576,-272 467,-272 467,-253 576,-253 576,-272"/>
<text text-anchor="middle" x="521.5" y="-260" font-family="Helvetica,sans-Serif" font-size="10.00">src/models/file.hpp</text>
</a>
</g>
</g>
<!-- Node1&#45;&gt;Node13 -->
<g id="edge15_Node000001_Node000013" class="edge">
<title>Node1&#45;&gt;Node13</title>
<g id="a_edge15_Node000001_Node000013"><a xlink:title=" ">
<path fill="none" stroke="#63b8ff" d="M379.58,-305.06C413.41,-295.15 461.58,-281.04 492.19,-272.08"/>
<polygon fill="#63b8ff" stroke="#63b8ff" points="378.19,-301.82 369.58,-307.98 380.16,-308.53 378.19,-301.82"/>
</a>
</g>
</g>
<!-- Node3 -->
<g id="Node000003" class="node">
<title>Node3</title>
<g id="a_Node000003"><a xlink:href="filesdb_8hpp.html" target="_top" xlink:title=" ">
<polygon fill="white" stroke="#666666" points="254,-217 137,-217 137,-198 254,-198 254,-217"/>
<text text-anchor="middle" x="195.5" y="-205" font-family="Helvetica,sans-Serif" font-size="10.00">src/client/filesdb.hpp</text>
</a>
</g>
</g>
<!-- Node2&#45;&gt;Node3 -->
<g id="edge2_Node000002_Node000003" class="edge">
<title>Node2&#45;&gt;Node3</title>
<g id="a_edge2_Node000002_Node000003"><a xlink:title=" ">
<path fill="none" stroke="#63b8ff" d="M194.86,-242.66C195.02,-233.93 195.21,-223.99 195.34,-217.09"/>
<polygon fill="#63b8ff" stroke="#63b8ff" points="191.35,-242.68 194.67,-252.75 198.35,-242.82 191.35,-242.68"/>
</a>
</g>
</g>
<!-- Node12 -->
<g id="Node000012" class="node">
<title>Node12</title>
<g id="a_Node000012"><a xlink:href="partfile_8cpp.html" target="_top" xlink:title=" ">
<polygon fill="white" stroke="#666666" points="119,-217 0,-217 0,-198 119,-198 119,-217"/>
<text text-anchor="middle" x="59.5" y="-205" font-family="Helvetica,sans-Serif" font-size="10.00">src/client/partfile.cpp</text>
</a>
</g>
</g>
<!-- Node2&#45;&gt;Node12 -->
<g id="edge12_Node000002_Node000012" class="edge">
<title>Node2&#45;&gt;Node12</title>
<g id="a_edge12_Node000002_Node000012"><a xlink:title=" ">
<path fill="none" stroke="#63b8ff" d="M163.4,-249.29C138.38,-239.47 103.84,-225.91 81.58,-217.17"/>
<polygon fill="#63b8ff" stroke="#63b8ff" points="162.22,-252.59 172.81,-252.98 164.78,-246.07 162.22,-252.59"/>
</a>
</g>
</g>
<!-- Node4 -->
<g id="Node000004" class="node">
<title>Node4</title>
<g id="a_Node000004"><a xlink:href="downloadmanager_8hpp.html" target="_top" xlink:title=" ">
<polygon fill="white" stroke="#666666" points="486,-156.5 311,-156.5 311,-137.5 486,-137.5 486,-156.5"/>
<text text-anchor="middle" x="398.5" y="-144.5" font-family="Helvetica,sans-Serif" font-size="10.00">src/client/downloadmanager.hpp</text>
</a>
</g>
</g>
<!-- Node3&#45;&gt;Node4 -->
<g id="edge3_Node000003_Node000004" class="edge">
<title>Node3&#45;&gt;Node4</title>
<g id="a_edge3_Node000003_Node000004"><a xlink:title=" ">
<path fill="none" stroke="#63b8ff" d="M234.78,-195.18C274.04,-183.87 333.52,-166.72 368.95,-156.52"/>
<polygon fill="#63b8ff" stroke="#63b8ff" points="233.66,-191.86 225.02,-197.99 235.6,-198.59 233.66,-191.86"/>
</a>
</g>
</g>
<!-- Node9 -->
<g id="Node000009" class="node">
<title>Node9</title>
<g id="a_Node000009"><a xlink:href="filesdb_8cpp.html" target="_top" xlink:title=" ">
<polygon fill="white" stroke="#666666" points="134.5,-156.5 18.5,-156.5 18.5,-137.5 134.5,-137.5 134.5,-156.5"/>
<text text-anchor="middle" x="76.5" y="-144.5" font-family="Helvetica,sans-Serif" font-size="10.00">src/client/filesdb.cpp</text>
</a>
</g>
</g>
<!-- Node3&#45;&gt;Node9 -->
<g id="edge8_Node000003_Node000009" class="edge">
<title>Node3&#45;&gt;Node9</title>
<g id="a_edge8_Node000003_Node000009"><a xlink:title=" ">
<path fill="none" stroke="#63b8ff" d="M169.02,-193.48C146.09,-182.21 113.57,-166.23 93.82,-156.52"/>
<polygon fill="#63b8ff" stroke="#63b8ff" points="167.68,-196.72 178.2,-197.99 170.77,-190.44 167.68,-196.72"/>
</a>
</g>
</g>
<!-- Node10 -->
<g id="Node000010" class="node">
<title>Node10</title>
<g id="a_Node000010"><a xlink:href="client_2process__request_8hpp.html" target="_top" xlink:title=" ">
<polygon fill="white" stroke="#666666" points="254,-162 153,-162 153,-132 254,-132 254,-162"/>
<text text-anchor="start" x="161" y="-150" font-family="Helvetica,sans-Serif" font-size="10.00">src/client/process</text>
<text text-anchor="middle" x="203.5" y="-139" font-family="Helvetica,sans-Serif" font-size="10.00">_request.hpp</text>
</a>
</g>
</g>
<!-- Node3&#45;&gt;Node10 -->
<g id="edge9_Node000003_Node000010" class="edge">
<title>Node3&#45;&gt;Node10</title>
<g id="a_edge9_Node000003_Node000010"><a xlink:title=" ">
<path fill="none" stroke="#63b8ff" d="M198.04,-187.93C199.18,-179.58 200.51,-169.87 201.57,-162.11"/>
<polygon fill="#63b8ff" stroke="#63b8ff" points="194.57,-187.49 196.68,-197.87 201.5,-188.43 194.57,-187.49"/>
</a>
</g>
</g>
<!-- Node5 -->
<g id="Node000005" class="node">
<title>Node5</title>
<g id="a_Node000005"><a xlink:href="downloadmanager_8cpp.html" target="_top" xlink:title=" ">
<polygon fill="white" stroke="#666666" points="622.5,-90.5 448.5,-90.5 448.5,-71.5 622.5,-71.5 622.5,-90.5"/>
<text text-anchor="middle" x="535.5" y="-78.5" font-family="Helvetica,sans-Serif" font-size="10.00">src/client/downloadmanager.cpp</text>
</a>
</g>
</g>
<!-- Node4&#45;&gt;Node5 -->
<g id="edge4_Node000004_Node000005" class="edge">
<title>Node4&#45;&gt;Node5</title>
<g id="a_edge4_Node000004_Node000005"><a xlink:title=" ">
<path fill="none" stroke="#63b8ff" d="M426.27,-133.03C453.27,-120.42 493.52,-101.61 516.88,-90.7"/>
<polygon fill="#63b8ff" stroke="#63b8ff" points="424.56,-129.97 416.98,-137.37 427.52,-136.31 424.56,-129.97"/>
</a>
</g>
</g>
<!-- Node6 -->
<g id="Node000006" class="node">
<title>Node6</title>
<g id="a_Node000006"><a xlink:href="process__input_8hpp.html" target="_top" xlink:title=" ">
<polygon fill="white" stroke="#666666" points="430,-96 329,-96 329,-66 430,-66 430,-96"/>
<text text-anchor="start" x="337" y="-84" font-family="Helvetica,sans-Serif" font-size="10.00">src/client/process</text>
<text text-anchor="middle" x="379.5" y="-73" font-family="Helvetica,sans-Serif" font-size="10.00">_input.hpp</text>
</a>
</g>
</g>
<!-- Node4&#45;&gt;Node6 -->
<g id="edge5_Node000004_Node000006" class="edge">
<title>Node4&#45;&gt;Node6</title>
<g id="a_edge5_Node000004_Node000006"><a xlink:title=" ">
<path fill="none" stroke="#63b8ff" d="M393.06,-127.67C390.11,-117.72 386.51,-105.61 383.76,-96.36"/>
<polygon fill="#63b8ff" stroke="#63b8ff" points="389.74,-128.78 395.94,-137.37 396.45,-126.79 389.74,-128.78"/>
</a>
</g>
</g>
<!-- Node7 -->
<g id="Node000007" class="node">
<title>Node7</title>
<g id="a_Node000007"><a xlink:href="client_8cpp.html" target="_top" xlink:title="The entrypoint to the client.">
<polygon fill="white" stroke="#666666" points="336,-24.5 225,-24.5 225,-5.5 336,-5.5 336,-24.5"/>
<text text-anchor="middle" x="280.5" y="-12.5" font-family="Helvetica,sans-Serif" font-size="10.00">src/client/client.cpp</text>
</a>
</g>
</g>
<!-- Node6&#45;&gt;Node7 -->
<g id="edge6_Node000006_Node000007" class="edge">
<title>Node6&#45;&gt;Node7</title>
<g id="a_edge6_Node000006_Node000007"><a xlink:title=" ">
<path fill="none" stroke="#63b8ff" d="M349.12,-60.36C330.65,-48.42 307.99,-33.77 293.89,-24.66"/>
<polygon fill="#63b8ff" stroke="#63b8ff" points="347.23,-63.31 357.53,-65.8 351.03,-57.43 347.23,-63.31"/>
</a>
</g>
</g>
<!-- Node6&#45;&gt;Node8 -->
<g id="edge7_Node000006_Node000008" class="edge">
<title>Node6&#45;&gt;Node8</title>
<g id="a_edge7_Node000006_Node000008"><a xlink:title=" ">
<path fill="none" stroke="#63b8ff" d="M440.09,-65.99C549.77,-45.54 666.53,-30.1 731.72,-22.04"/>
<polygon fill="#63b8ff" stroke="#63b8ff" points="439.36,-62.57 430.18,-67.86 440.65,-69.45 439.36,-62.57"/>
</a>
</g>
</g>
<!-- Node10&#45;&gt;Node7 -->
<g id="edge10_Node000010_Node000007" class="edge">
<title>Node10&#45;&gt;Node7</title>
<g id="a_edge10_Node000010_Node000007"><a xlink:title=" ">
<path fill="none" stroke="#63b8ff" d="M196.36,-121.9C192.84,-105.17 191.1,-82.95 200.5,-66 211.85,-45.51 235.49,-32.31 254.14,-24.65"/>
<polygon fill="#63b8ff" stroke="#63b8ff" points="193.05,-123.1 198.83,-131.98 199.85,-121.43 193.05,-123.1"/>
</a>
</g>
</g>
<!-- Node10&#45;&gt;Node11 -->
<g id="edge11_Node000010_Node000011" class="edge">
<title>Node10&#45;&gt;Node11</title>
<g id="a_edge11_Node000010_Node000011"><a xlink:title=" ">
<path fill="none" stroke="#63b8ff" d="M223.02,-124.09C231.24,-114.85 240.59,-104.36 247.89,-96.16"/>
<polygon fill="#63b8ff" stroke="#63b8ff" points="220.19,-122 216.15,-131.8 225.41,-126.66 220.19,-122"/>
</a>
</g>
</g>
<!-- Node14 -->
<g id="Node000014" class="node">
<title>Node14</title>
<g id="a_Node000014"><a xlink:href="file__io_8hpp.html" target="_top" xlink:title=" ">
<polygon fill="white" stroke="#666666" points="754.5,-156.5 640.5,-156.5 640.5,-137.5 754.5,-137.5 754.5,-156.5"/>
<text text-anchor="middle" x="697.5" y="-144.5" font-family="Helvetica,sans-Serif" font-size="10.00">src/client/file_io.hpp</text>
</a>
</g>
</g>
<!-- Node13&#45;&gt;Node14 -->
<g id="edge16_Node000013_Node000014" class="edge">
<title>Node13&#45;&gt;Node14</title>
<g id="a_edge16_Node000013_Node000014"><a xlink:title=" ">
<path fill="none" stroke="#63b8ff" d="M543.27,-247.46C580.16,-223.67 653.9,-176.12 684.12,-156.63"/>
<polygon fill="#63b8ff" stroke="#63b8ff" points="541.24,-244.61 534.73,-252.97 545.03,-250.49 541.24,-244.61"/>
</a>
</g>
</g>
<!-- Node16 -->
<g id="Node000016" class="node">
<title>Node16</title>
<g id="a_Node000016"><a xlink:href="peerdb_8hpp.html" target="_top" xlink:title=" ">
<polygon fill="white" stroke="#666666" points="511,-217 392,-217 392,-198 511,-198 511,-217"/>
<text text-anchor="middle" x="451.5" y="-205" font-family="Helvetica,sans-Serif" font-size="10.00">src/client/peerdb.hpp</text>
</a>
</g>
</g>
<!-- Node13&#45;&gt;Node16 -->
<g id="edge21_Node000013_Node000016" class="edge">
<title>Node13&#45;&gt;Node16</title>
<g id="a_edge21_Node000013_Node000016"><a xlink:title=" ">
<path fill="none" stroke="#63b8ff" d="M502.19,-246.88C489.59,-237.34 473.57,-225.21 462.95,-217.17"/>
<polygon fill="#63b8ff" stroke="#63b8ff" points="500.17,-249.74 510.25,-252.98 504.39,-244.16 500.17,-249.74"/>
</a>
</g>
</g>
<!-- Node18 -->
<g id="Node000018" class="node">
<title>Node18</title>
<g id="a_Node000018"><a xlink:href="group_8hpp.html" target="_top" xlink:title=" ">
<polygon fill="white" stroke="#666666" points="834.5,-217 712.5,-217 712.5,-198 834.5,-198 834.5,-217"/>
<text text-anchor="middle" x="773.5" y="-205" font-family="Helvetica,sans-Serif" font-size="10.00">src/models/group.hpp</text>
</a>
</g>
</g>
<!-- Node13&#45;&gt;Node18 -->
<g id="edge25_Node000013_Node000018" class="edge">
<title>Node13&#45;&gt;Node18</title>
<g id="a_edge25_Node000013_Node000018"><a xlink:title=" ">
<path fill="none" stroke="#63b8ff" d="M572,-250.88C619.24,-240.94 688.89,-226.3 732.69,-217.08"/>
<polygon fill="#63b8ff" stroke="#63b8ff" points="571.05,-247.5 561.99,-252.98 572.49,-254.35 571.05,-247.5"/>
</a>
</g>
</g>
<!-- Node14&#45;&gt;Node5 -->
<g id="edge17_Node000014_Node000005" class="edge">
<title>Node14&#45;&gt;Node5</title>
<g id="a_edge17_Node000014_Node000005"><a xlink:title=" ">
<path fill="none" stroke="#63b8ff" d="M666.3,-133.68C634.29,-121.03 585.31,-101.68 557.26,-90.6"/>
<polygon fill="#63b8ff" stroke="#63b8ff" points="665.07,-136.95 675.65,-137.37 667.64,-130.44 665.07,-136.95"/>
</a>
</g>
</g>
<!-- Node14&#45;&gt;Node8 -->
<g id="edge19_Node000014_Node000008" class="edge">
<title>Node14&#45;&gt;Node8</title>
<g id="a_edge19_Node000014_Node000008"><a xlink:title=" ">
<path fill="none" stroke="#63b8ff" d="M723.18,-132.01C736.78,-123.34 752.67,-111 762.5,-96 775.84,-75.64 780.28,-47.04 781.76,-30.13"/>
<polygon fill="#63b8ff" stroke="#63b8ff" points="720.98,-129.25 714.22,-137.41 724.59,-135.24 720.98,-129.25"/>
</a>
</g>
</g>
<!-- Node14&#45;&gt;Node11 -->
<g id="edge20_Node000014_Node000011" class="edge">
<title>Node14&#45;&gt;Node11</title>
<g id="a_edge20_Node000014_Node000011"><a xlink:title=" ">
<path fill="none" stroke="#63b8ff" d="M650.43,-135.45C644.08,-134.19 637.64,-133 631.5,-132 493.74,-109.49 456.98,-120.16 319.5,-96 316.8,-95.53 314.05,-95 311.27,-94.45"/>
<polygon fill="#63b8ff" stroke="#63b8ff" points="649.77,-138.89 660.27,-137.46 651.17,-132.03 649.77,-138.89"/>
</a>
</g>
</g>
<!-- Node15 -->
<g id="Node000015" class="node">
<title>Node15</title>
<g id="a_Node000015"><a xlink:href="file__io_8cpp.html" target="_top" xlink:title=" ">
<polygon fill="white" stroke="#666666" points="754,-90.5 641,-90.5 641,-71.5 754,-71.5 754,-90.5"/>
<text text-anchor="middle" x="697.5" y="-78.5" font-family="Helvetica,sans-Serif" font-size="10.00">src/client/file_io.cpp</text>
</a>
</g>
</g>
<!-- Node14&#45;&gt;Node15 -->
<g id="edge18_Node000014_Node000015" class="edge">
<title>Node14&#45;&gt;Node15</title>
<g id="a_edge18_Node000014_Node000015"><a xlink:title=" ">
<path fill="none" stroke="#63b8ff" d="M697.5,-127.08C697.5,-115.13 697.5,-100.22 697.5,-90.91"/>
<polygon fill="#63b8ff" stroke="#63b8ff" points="694,-127.37 697.5,-137.37 701,-127.37 694,-127.37"/>
</a>
</g>
</g>
<!-- Node16&#45;&gt;Node4 -->
<g id="edge22_Node000016_Node000004" class="edge">
<title>Node16&#45;&gt;Node4</title>
<g id="a_edge22_Node000016_Node000004"><a xlink:title=" ">
<path fill="none" stroke="#63b8ff" d="M436.8,-190.27C426.94,-179.39 414.35,-165.49 406.35,-156.67"/>
<polygon fill="#63b8ff" stroke="#63b8ff" points="434.37,-192.81 443.68,-197.87 439.56,-188.11 434.37,-192.81"/>
</a>
</g>
</g>
<!-- Node16&#45;&gt;Node10 -->
<g id="edge24_Node000016_Node000010" class="edge">
<title>Node16&#45;&gt;Node10</title>
<g id="a_edge24_Node000016_Node000010"><a xlink:title=" ">
<path fill="none" stroke="#63b8ff" d="M405.54,-195.66C362.61,-185.53 298.64,-170.44 254.23,-159.97"/>
<polygon fill="#63b8ff" stroke="#63b8ff" points="404.9,-199.1 415.44,-197.99 406.51,-192.29 404.9,-199.1"/>
</a>
</g>
</g>
<!-- Node17 -->
<g id="Node000017" class="node">
<title>Node17</title>
<g id="a_Node000017"><a xlink:href="peerdb_8cpp.html" target="_top" xlink:title=" ">
<polygon fill="white" stroke="#666666" points="622.5,-156.5 504.5,-156.5 504.5,-137.5 622.5,-137.5 622.5,-156.5"/>
<text text-anchor="middle" x="563.5" y="-144.5" font-family="Helvetica,sans-Serif" font-size="10.00">src/client/peerdb.cpp</text>
</a>
</g>
</g>
<!-- Node16&#45;&gt;Node17 -->
<g id="edge23_Node000016_Node000017" class="edge">
<title>Node16&#45;&gt;Node17</title>
<g id="a_edge23_Node000016_Node000017"><a xlink:title=" ">
<path fill="none" stroke="#63b8ff" d="M476.91,-193.23C498.36,-182.03 528.43,-166.32 546.91,-156.67"/>
<polygon fill="#63b8ff" stroke="#63b8ff" points="475.27,-190.14 468.03,-197.87 478.51,-196.34 475.27,-190.14"/>
</a>
</g>
</g>
<!-- Node19 -->
<g id="Node000019" class="node">
<title>Node19</title>
<g id="a_Node000019"><a xlink:href="groupdb_8hpp.html" target="_top" xlink:title=" ">
<polygon fill="white" stroke="#666666" points="930,-156.5 799,-156.5 799,-137.5 930,-137.5 930,-156.5"/>
<text text-anchor="middle" x="864.5" y="-144.5" font-family="Helvetica,sans-Serif" font-size="10.00">src/tracker/groupdb.hpp</text>
</a>
</g>
</g>
<!-- Node18&#45;&gt;Node19 -->
<g id="edge26_Node000018_Node000019" class="edge">
<title>Node18&#45;&gt;Node19</title>
<g id="a_edge26_Node000018_Node000019"><a xlink:title=" ">
<path fill="none" stroke="#63b8ff" d="M795.81,-192.16C813.1,-181.05 836.48,-166.01 851.02,-156.67"/>
<polygon fill="#63b8ff" stroke="#63b8ff" points="793.45,-189.52 786.93,-197.87 797.23,-195.4 793.45,-189.52"/>
</a>
</g>
</g>
<!-- Node20 -->
<g id="Node000020" class="node">
<title>Node20</title>
<g id="a_Node000020"><a xlink:href="groupdb_8cpp.html" target="_top" xlink:title=" ">
<polygon fill="white" stroke="#666666" points="1068,-90.5 937,-90.5 937,-71.5 1068,-71.5 1068,-90.5"/>
<text text-anchor="middle" x="1002.5" y="-78.5" font-family="Helvetica,sans-Serif" font-size="10.00">src/tracker/groupdb.cpp</text>
</a>
</g>
</g>
<!-- Node19&#45;&gt;Node20 -->
<g id="edge27_Node000019_Node000020" class="edge">
<title>Node19&#45;&gt;Node20</title>
<g id="a_edge27_Node000019_Node000020"><a xlink:title=" ">
<path fill="none" stroke="#63b8ff" d="M892.47,-133.03C919.67,-120.42 960.21,-101.61 983.74,-90.7"/>
<polygon fill="#63b8ff" stroke="#63b8ff" points="890.71,-129.99 883.11,-137.37 893.66,-136.34 890.71,-129.99"/>
</a>
</g>
</g>
<!-- Node21 -->
<g id="Node000021" class="node">
<title>Node21</title>
<g id="a_Node000021"><a xlink:href="tracker_2process__request_8cpp.html" target="_top" xlink:title=" ">
<polygon fill="white" stroke="#666666" points="918.5,-96 810.5,-96 810.5,-66 918.5,-66 918.5,-96"/>
<text text-anchor="start" x="818.5" y="-84" font-family="Helvetica,sans-Serif" font-size="10.00">src/tracker/process</text>
<text text-anchor="middle" x="864.5" y="-73" font-family="Helvetica,sans-Serif" font-size="10.00">_request.cpp</text>
</a>
</g>
</g>
<!-- Node19&#45;&gt;Node21 -->
<g id="edge28_Node000019_Node000021" class="edge">
<title>Node19&#45;&gt;Node21</title>
<g id="a_edge28_Node000019_Node000021"><a xlink:title=" ">
<path fill="none" stroke="#63b8ff" d="M864.5,-127.35C864.5,-117.47 864.5,-105.51 864.5,-96.36"/>
<polygon fill="#63b8ff" stroke="#63b8ff" points="861,-127.37 864.5,-137.37 868,-127.37 861,-127.37"/>
</a>
</g>
</g>
</g>
</svg>
