<?xml version="1.0" encoding="UTF-8" standalone="no"?>
<!DOCTYPE svg PUBLIC "-//W3C//DTD SVG 1.1//EN"
 "http://www.w3.org/Graphics/SVG/1.1/DTD/svg11.dtd">
<!-- Generated by graphviz version 2.43.0 (0)
 -->
<!-- Title: src/client/filesdb.cpp Pages: 1 -->
<svg width="528pt" height="247pt"
 viewBox="0.00 0.00 528.25 247.00" xmlns="http://www.w3.org/2000/svg" xmlns:xlink="http://www.w3.org/1999/xlink">
<g id="graph0" class="graph" transform="scale(1 1) rotate(0) translate(4 243)">
<title>src/client/filesdb.cpp</title>
<!-- Node1 -->
<g id="Node000001" class="node">
<title>Node1</title>
<g id="a_Node000001"><a xlink:title=" ">
<polygon fill="#999999" stroke="#666666" points="182.25,-239 66.25,-239 66.25,-220 182.25,-220 182.25,-239"/>
<text text-anchor="middle" x="124.25" y="-227" font-family="Helvetica,sans-Serif" font-size="10.00">src/client/filesdb.cpp</text>
</a>
</g>
</g>
<!-- Node2 -->
<g id="Node000002" class="node">
<title>Node2</title>
<g id="a_Node000002"><a xlink:href="filesdb_8hpp.html" target="_top" xlink:title=" ">
<polygon fill="white" stroke="#666666" points="159.25,-184 89.25,-184 89.25,-165 159.25,-165 159.25,-184"/>
<text text-anchor="middle" x="124.25" y="-172" font-family="Helvetica,sans-Serif" font-size="10.00">filesdb.hpp</text>
</a>
</g>
</g>
<!-- Node1&#45;&gt;Node2 -->
<g id="edge1_Node000001_Node000002" class="edge">
<title>Node1&#45;&gt;Node2</title>
<g id="a_edge1_Node000001_Node000002"><a xlink:title=" ">
<path fill="none" stroke="#63b8ff" d="M124.25,-219.75C124.25,-212.8 124.25,-202.85 124.25,-194.13"/>
<polygon fill="#63b8ff" stroke="#63b8ff" points="127.75,-194.09 124.25,-184.09 120.75,-194.09 127.75,-194.09"/>
</a>
</g>
</g>
<!-- Node3 -->
<g id="Node000003" class="node">
<title>Node3</title>
<g id="a_Node000003"><a xlink:title=" ">
<polygon fill="#e0e0e0" stroke="#999999" points="202.25,-74 144.25,-74 144.25,-55 202.25,-55 202.25,-74"/>
<text text-anchor="middle" x="173.25" y="-62" font-family="Helvetica,sans-Serif" font-size="10.00">memory</text>
</a>
</g>
</g>
<!-- Node2&#45;&gt;Node3 -->
<g id="edge2_Node000002_Node000003" class="edge">
<title>Node2&#45;&gt;Node3</title>
<g id="a_edge2_Node000002_Node000003"><a xlink:title=" ">
<path fill="none" stroke="#63b8ff" d="M159.71,-166.36C180.33,-160.2 204.66,-148.99 217.25,-129 228.03,-111.9 210.86,-92.92 194.92,-80.21"/>
<polygon fill="#63b8ff" stroke="#63b8ff" points="196.96,-77.36 186.85,-74.17 192.76,-82.96 196.96,-77.36"/>
</a>
</g>
</g>
<!-- Node4 -->
<g id="Node000004" class="node">
<title>Node4</title>
<g id="a_Node000004"><a xlink:title=" ">
<polygon fill="#e0e0e0" stroke="#999999" points="59.25,-129 11.25,-129 11.25,-110 59.25,-110 59.25,-129"/>
<text text-anchor="middle" x="35.25" y="-117" font-family="Helvetica,sans-Serif" font-size="10.00">mutex</text>
</a>
</g>
</g>
<!-- Node2&#45;&gt;Node4 -->
<g id="edge3_Node000002_Node000004" class="edge">
<title>Node2&#45;&gt;Node4</title>
<g id="a_edge3_Node000002_Node000004"><a xlink:title=" ">
<path fill="none" stroke="#63b8ff" d="M109.95,-164.98C96.15,-156.77 75.01,-144.18 58.74,-134.49"/>
<polygon fill="#63b8ff" stroke="#63b8ff" points="60.19,-131.28 49.81,-129.17 56.61,-137.29 60.19,-131.28"/>
</a>
</g>
</g>
<!-- Node5 -->
<g id="Node000005" class="node">
<title>Node5</title>
<g id="a_Node000005"><a xlink:title=" ">
<polygon fill="#e0e0e0" stroke="#999999" points="182.25,-19 138.25,-19 138.25,0 182.25,0 182.25,-19"/>
<text text-anchor="middle" x="160.25" y="-7" font-family="Helvetica,sans-Serif" font-size="10.00">string</text>
</a>
</g>
</g>
<!-- Node2&#45;&gt;Node5 -->
<g id="edge4_Node000002_Node000005" class="edge">
<title>Node2&#45;&gt;Node5</title>
<g id="a_edge4_Node000002_Node000005"><a xlink:title=" ">
<path fill="none" stroke="#63b8ff" d="M89.08,-169.99C48.4,-164.1 -11.34,-148.75 2.25,-110 12.61,-80.46 21.03,-73.55 46.25,-55 70.96,-36.83 104.06,-25 128.23,-18.14"/>
<polygon fill="#63b8ff" stroke="#63b8ff" points="129.25,-21.49 137.98,-15.5 127.42,-14.73 129.25,-21.49"/>
</a>
</g>
</g>
<!-- Node6 -->
<g id="Node000006" class="node">
<title>Node6</title>
<g id="a_Node000006"><a xlink:title=" ">
<polygon fill="#e0e0e0" stroke="#999999" points="208.75,-129 115.75,-129 115.75,-110 208.75,-110 208.75,-129"/>
<text text-anchor="middle" x="162.25" y="-117" font-family="Helvetica,sans-Serif" font-size="10.00">unordered_map</text>
</a>
</g>
</g>
<!-- Node2&#45;&gt;Node6 -->
<g id="edge5_Node000002_Node000006" class="edge">
<title>Node2&#45;&gt;Node6</title>
<g id="a_edge5_Node000002_Node000006"><a xlink:title=" ">
<path fill="none" stroke="#63b8ff" d="M130.53,-164.75C135.84,-157.34 143.61,-146.5 150.13,-137.41"/>
<polygon fill="#63b8ff" stroke="#63b8ff" points="153.11,-139.26 156.09,-129.09 147.42,-135.18 153.11,-139.26"/>
</a>
</g>
</g>
<!-- Node7 -->
<g id="Node000007" class="node">
<title>Node7</title>
<g id="a_Node000007"><a xlink:href="file__id_8hpp.html" target="_top" xlink:title=" ">
<polygon fill="white" stroke="#666666" points="122.75,-74 55.75,-74 55.75,-55 122.75,-55 122.75,-74"/>
<text text-anchor="middle" x="89.25" y="-62" font-family="Helvetica,sans-Serif" font-size="10.00">file_id.hpp</text>
</a>
</g>
</g>
<!-- Node2&#45;&gt;Node7 -->
<g id="edge6_Node000002_Node000007" class="edge">
<title>Node2&#45;&gt;Node7</title>
<g id="a_edge6_Node000002_Node000007"><a xlink:title=" ">
<path fill="none" stroke="#63b8ff" d="M120.34,-164.75C116.46,-155.87 110.48,-141.64 106.25,-129 101.27,-114.1 96.73,-96.86 93.59,-84.11"/>
<polygon fill="#63b8ff" stroke="#63b8ff" points="96.96,-83.14 91.23,-74.23 90.15,-84.77 96.96,-83.14"/>
</a>
</g>
</g>
<!-- Node8 -->
<g id="Node000008" class="node">
<title>Node8</title>
<g id="a_Node000008"><a xlink:href="partfile_8hpp.html" target="_top" xlink:title=" ">
<polygon fill="white" stroke="#666666" points="337.25,-129 265.25,-129 265.25,-110 337.25,-110 337.25,-129"/>
<text text-anchor="middle" x="301.25" y="-117" font-family="Helvetica,sans-Serif" font-size="10.00">partfile.hpp</text>
</a>
</g>
</g>
<!-- Node2&#45;&gt;Node8 -->
<g id="edge8_Node000002_Node000008" class="edge">
<title>Node2&#45;&gt;Node8</title>
<g id="a_edge8_Node000002_Node000008"><a xlink:title=" ">
<path fill="none" stroke="#63b8ff" d="M152.69,-164.98C182.54,-156.05 229.64,-141.94 262.79,-132.02"/>
<polygon fill="#63b8ff" stroke="#63b8ff" points="264.02,-135.3 272.59,-129.08 262.01,-128.6 264.02,-135.3"/>
</a>
</g>
</g>
<!-- Node7&#45;&gt;Node5 -->
<g id="edge7_Node000007_Node000005" class="edge">
<title>Node7&#45;&gt;Node5</title>
<g id="a_edge7_Node000007_Node000005"><a xlink:title=" ">
<path fill="none" stroke="#63b8ff" d="M100.66,-54.98C111.36,-47 127.59,-34.88 140.42,-25.31"/>
<polygon fill="#63b8ff" stroke="#63b8ff" points="142.72,-27.96 148.64,-19.17 138.53,-22.35 142.72,-27.96"/>
</a>
</g>
</g>
<!-- Node8&#45;&gt;Node3 -->
<g id="edge9_Node000008_Node000003" class="edge">
<title>Node8&#45;&gt;Node3</title>
<g id="a_edge9_Node000008_Node000003"><a xlink:title=" ">
<path fill="none" stroke="#63b8ff" d="M280.69,-109.98C259.82,-101.34 227.28,-87.87 203.48,-78.02"/>
<polygon fill="#63b8ff" stroke="#63b8ff" points="204.77,-74.76 194.19,-74.17 202.09,-81.23 204.77,-74.76"/>
</a>
</g>
</g>
<!-- Node8&#45;&gt;Node5 -->
<g id="edge10_Node000008_Node000005" class="edge">
<title>Node8&#45;&gt;Node5</title>
<g id="a_edge10_Node000008_Node000005"><a xlink:title=" ">
<path fill="none" stroke="#63b8ff" d="M289.71,-109.66C265.53,-91.14 209.31,-48.08 179.54,-25.28"/>
<polygon fill="#63b8ff" stroke="#63b8ff" points="181.62,-22.46 171.56,-19.16 177.37,-28.02 181.62,-22.46"/>
</a>
</g>
</g>
<!-- Node9 -->
<g id="Node000009" class="node">
<title>Node9</title>
<g id="a_Node000009"><a xlink:title=" ">
<polygon fill="#e0e0e0" stroke="#999999" points="344.25,-74 258.25,-74 258.25,-55 344.25,-55 344.25,-74"/>
<text text-anchor="middle" x="301.25" y="-62" font-family="Helvetica,sans-Serif" font-size="10.00">unordered_set</text>
</a>
</g>
</g>
<!-- Node8&#45;&gt;Node9 -->
<g id="edge11_Node000008_Node000009" class="edge">
<title>Node8&#45;&gt;Node9</title>
<g id="a_edge11_Node000008_Node000009"><a xlink:title=" ">
<path fill="none" stroke="#63b8ff" d="M301.25,-109.75C301.25,-102.8 301.25,-92.85 301.25,-84.13"/>
<polygon fill="#63b8ff" stroke="#63b8ff" points="304.75,-84.09 301.25,-74.09 297.75,-84.09 304.75,-84.09"/>
</a>
</g>
</g>
<!-- Node10 -->
<g id="Node000010" class="node">
<title>Node10</title>
<g id="a_Node000010"><a xlink:href="fileinfo_8hpp.html" target="_top" xlink:title=" ">
<polygon fill="white" stroke="#666666" points="481.75,-74 362.75,-74 362.75,-55 481.75,-55 481.75,-74"/>
<text text-anchor="middle" x="422.25" y="-62" font-family="Helvetica,sans-Serif" font-size="10.00">../models/fileinfo.hpp</text>
</a>
</g>
</g>
<!-- Node8&#45;&gt;Node10 -->
<g id="edge12_Node000008_Node000010" class="edge">
<title>Node8&#45;&gt;Node10</title>
<g id="a_edge12_Node000008_Node000010"><a xlink:title=" ">
<path fill="none" stroke="#63b8ff" d="M320.69,-109.98C340.25,-101.42 370.63,-88.11 393.08,-78.28"/>
<polygon fill="#63b8ff" stroke="#63b8ff" points="394.7,-81.39 402.46,-74.17 391.89,-74.98 394.7,-81.39"/>
</a>
</g>
</g>
<!-- Node10&#45;&gt;Node5 -->
<g id="edge15_Node000010_Node000005" class="edge">
<title>Node10&#45;&gt;Node5</title>
<g id="a_edge15_Node000010_Node000005"><a xlink:title=" ">
<path fill="none" stroke="#63b8ff" d="M380.16,-54.98C327.85,-44.4 239.72,-26.58 192.47,-17.02"/>
<polygon fill="#63b8ff" stroke="#63b8ff" points="192.98,-13.55 182.49,-15 191.59,-20.41 192.98,-13.55"/>
</a>
</g>
</g>
<!-- Node11 -->
<g id="Node000011" class="node">
<title>Node11</title>
<g id="a_Node000011"><a xlink:title=" ">
<polygon fill="#e0e0e0" stroke="#999999" points="520.25,-19 464.25,-19 464.25,0 520.25,0 520.25,-19"/>
<text text-anchor="middle" x="492.25" y="-7" font-family="Helvetica,sans-Serif" font-size="10.00">sstream</text>
</a>
</g>
</g>
<!-- Node10&#45;&gt;Node11 -->
<g id="edge13_Node000010_Node000011" class="edge">
<title>Node10&#45;&gt;Node11</title>
<g id="a_edge13_Node000010_Node000011"><a xlink:title=" ">
<path fill="none" stroke="#63b8ff" d="M433.5,-54.98C444.05,-47 460.05,-34.88 472.69,-25.31"/>
<polygon fill="#63b8ff" stroke="#63b8ff" points="474.94,-28 480.8,-19.17 470.72,-22.42 474.94,-28"/>
</a>
</g>
</g>
<!-- Node12 -->
<g id="Node000012" class="node">
<title>Node12</title>
<g id="a_Node000012"><a xlink:title=" ">
<polygon fill="#e0e0e0" stroke="#999999" points="380.75,-19 315.75,-19 315.75,0 380.75,0 380.75,-19"/>
<text text-anchor="middle" x="348.25" y="-7" font-family="Helvetica,sans-Serif" font-size="10.00">stdexcept</text>
</a>
</g>
</g>
<!-- Node10&#45;&gt;Node12 -->
<g id="edge14_Node000010_Node000012" class="edge">
<title>Node10&#45;&gt;Node12</title>
<g id="a_edge14_Node000010_Node000012"><a xlink:title=" ">
<path fill="none" stroke="#63b8ff" d="M410.36,-54.98C399.1,-46.92 381.97,-34.65 368.54,-25.03"/>
<polygon fill="#63b8ff" stroke="#63b8ff" points="370.53,-22.15 360.36,-19.17 366.45,-27.84 370.53,-22.15"/>
</a>
</g>
</g>
<!-- Node13 -->
<g id="Node000013" class="node">
<title>Node13</title>
<g id="a_Node000013"><a xlink:title=" ">
<polygon fill="#e0e0e0" stroke="#999999" points="445.75,-19 398.75,-19 398.75,0 445.75,0 445.75,-19"/>
<text text-anchor="middle" x="422.25" y="-7" font-family="Helvetica,sans-Serif" font-size="10.00">vector</text>
</a>
</g>
</g>
<!-- Node10&#45;&gt;Node13 -->
<g id="edge16_Node000010_Node000013" class="edge">
<title>Node10&#45;&gt;Node13</title>
<g id="a_edge16_Node000010_Node000013"><a xlink:title=" ">
<path fill="none" stroke="#63b8ff" d="M422.25,-54.75C422.25,-47.8 422.25,-37.85 422.25,-29.13"/>
<polygon fill="#63b8ff" stroke="#63b8ff" points="425.75,-29.09 422.25,-19.09 418.75,-29.09 425.75,-29.09"/>
</a>
</g>
</g>
</g>
</svg>
