<?xml version="1.0" encoding="UTF-8" standalone="no"?>
<!DOCTYPE svg PUBLIC "-//W3C//DTD SVG 1.1//EN"
 "http://www.w3.org/Graphics/SVG/1.1/DTD/svg11.dtd">
<!-- Generated by graphviz version 2.43.0 (0)
 -->
<!-- Title: src/models/fileinfo.hpp Pages: 1 -->
<svg width="1248pt" height="335pt"
 viewBox="0.00 0.00 1248.03 335.00" xmlns="http://www.w3.org/2000/svg" xmlns:xlink="http://www.w3.org/1999/xlink">
<g id="graph0" class="graph" transform="scale(1 1) rotate(0) translate(4 331)">
<title>src/models/fileinfo.hpp</title>
<!-- Node1 -->
<g id="Node000001" class="node">
<title>Node1</title>
<g id="a_Node000001"><a xlink:title=" ">
<polygon fill="#999999" stroke="#666666" points="775,-327 647,-327 647,-308 775,-308 775,-327"/>
<text text-anchor="middle" x="711" y="-315" font-family="Helvetica,sans-Serif" font-size="10.00">src/models/fileinfo.hpp</text>
</a>
</g>
</g>
<!-- Node2 -->
<g id="Node000002" class="node">
<title>Node2</title>
<g id="a_Node000002"><a xlink:href="downloadmanager_8hpp.html" target="_top" xlink:title=" ">
<polygon fill="white" stroke="#666666" points="466.5,-156.5 291.5,-156.5 291.5,-137.5 466.5,-137.5 466.5,-156.5"/>
<text text-anchor="middle" x="379" y="-144.5" font-family="Helvetica,sans-Serif" font-size="10.00">src/client/downloadmanager.hpp</text>
</a>
</g>
</g>
<!-- Node1&#45;&gt;Node2 -->
<g id="edge1_Node000001_Node000002" class="edge">
<title>Node1&#45;&gt;Node2</title>
<g id="a_edge1_Node000001_Node000002"><a xlink:title=" ">
<path fill="none" stroke="#63b8ff" d="M670.84,-305.08C619.66,-289.53 529.48,-258.79 460,-217 430.56,-199.29 401.14,-170.89 387.25,-156.68"/>
<polygon fill="#63b8ff" stroke="#63b8ff" points="669.96,-308.47 680.54,-307.98 671.97,-301.76 669.96,-308.47"/>
</a>
</g>
</g>
<!-- Node6 -->
<g id="Node000006" class="node">
<title>Node6</title>
<g id="a_Node000006"><a xlink:href="process__input_8cpp.html" target="_top" xlink:title=" ">
<polygon fill="white" stroke="#666666" points="889.5,-30 788.5,-30 788.5,0 889.5,0 889.5,-30"/>
<text text-anchor="start" x="796.5" y="-18" font-family="Helvetica,sans-Serif" font-size="10.00">src/client/process</text>
<text text-anchor="middle" x="839" y="-7" font-family="Helvetica,sans-Serif" font-size="10.00">_input.cpp</text>
</a>
</g>
</g>
<!-- Node1&#45;&gt;Node6 -->
<g id="edge27_Node000001_Node000006" class="edge">
<title>Node1&#45;&gt;Node6</title>
<g id="a_edge27_Node000001_Node000006"><a xlink:title=" ">
<path fill="none" stroke="#63b8ff" d="M785.26,-316.55C930.48,-314.64 1238,-299.82 1238,-208.5 1238,-208.5 1238,-208.5 1238,-146 1238,-109.46 1246.13,-90.49 1219,-66 1171.64,-23.26 982.03,-16.49 889.84,-15.79"/>
<polygon fill="#63b8ff" stroke="#63b8ff" points="785.05,-313.06 775.09,-316.67 785.13,-320.06 785.05,-313.06"/>
</a>
</g>
</g>
<!-- Node7 -->
<g id="Node000007" class="node">
<title>Node7</title>
<g id="a_Node000007"><a xlink:href="file__io_8hpp.html" target="_top" xlink:title=" ">
<polygon fill="white" stroke="#666666" points="811,-156.5 697,-156.5 697,-137.5 811,-137.5 811,-156.5"/>
<text text-anchor="middle" x="754" y="-144.5" font-family="Helvetica,sans-Serif" font-size="10.00">src/client/file_io.hpp</text>
</a>
</g>
</g>
<!-- Node1&#45;&gt;Node7 -->
<g id="edge7_Node000001_Node000007" class="edge">
<title>Node1&#45;&gt;Node7</title>
<g id="a_edge7_Node000001_Node000007"><a xlink:title=" ">
<path fill="none" stroke="#63b8ff" d="M770.38,-304.69C788.05,-298.11 805.48,-287.88 816,-272 842.98,-231.26 788.19,-177.16 764.34,-156.51"/>
<polygon fill="#63b8ff" stroke="#63b8ff" points="768.94,-301.48 760.58,-307.98 771.17,-308.11 768.94,-301.48"/>
</a>
</g>
</g>
<!-- Node9 -->
<g id="Node000009" class="node">
<title>Node9</title>
<g id="a_Node000009"><a xlink:href="client_2process__request_8cpp.html" target="_top" xlink:title=" ">
<polygon fill="white" stroke="#666666" points="533.5,-96 432.5,-96 432.5,-66 533.5,-66 533.5,-96"/>
<text text-anchor="start" x="440.5" y="-84" font-family="Helvetica,sans-Serif" font-size="10.00">src/client/process</text>
<text text-anchor="middle" x="483" y="-73" font-family="Helvetica,sans-Serif" font-size="10.00">_request.cpp</text>
</a>
</g>
</g>
<!-- Node1&#45;&gt;Node9 -->
<g id="edge28_Node000001_Node000009" class="edge">
<title>Node1&#45;&gt;Node9</title>
<g id="a_edge28_Node000001_Node000009"><a xlink:title=" ">
<path fill="none" stroke="#63b8ff" d="M701.28,-298.76C697.13,-290.75 692.46,-281.06 689,-272 665.92,-211.67 695.23,-178.11 650,-132 641.6,-123.44 579.59,-106.31 533.57,-94.51"/>
<polygon fill="#63b8ff" stroke="#63b8ff" points="698.33,-300.67 706.12,-307.85 704.51,-297.38 698.33,-300.67"/>
</a>
</g>
</g>
<!-- Node10 -->
<g id="Node000010" class="node">
<title>Node10</title>
<g id="a_Node000010"><a xlink:href="partfile_8hpp.html" target="_top" xlink:title=" ">
<polygon fill="white" stroke="#666666" points="374.5,-272 255.5,-272 255.5,-253 374.5,-253 374.5,-272"/>
<text text-anchor="middle" x="315" y="-260" font-family="Helvetica,sans-Serif" font-size="10.00">src/client/partfile.hpp</text>
</a>
</g>
</g>
<!-- Node1&#45;&gt;Node10 -->
<g id="edge12_Node000001_Node000010" class="edge">
<title>Node1&#45;&gt;Node10</title>
<g id="a_edge12_Node000001_Node000010"><a xlink:title=" ">
<path fill="none" stroke="#63b8ff" d="M637.42,-306.65C561.59,-296.5 444.83,-280.88 374.58,-271.47"/>
<polygon fill="#63b8ff" stroke="#63b8ff" points="637,-310.13 647.38,-307.98 637.93,-303.19 637,-310.13"/>
</a>
</g>
</g>
<!-- Node15 -->
<g id="Node000015" class="node">
<title>Node15</title>
<g id="a_Node000015"><a xlink:href="peerdb_8hpp.html" target="_top" xlink:title=" ">
<polygon fill="white" stroke="#666666" points="635.5,-217 516.5,-217 516.5,-198 635.5,-198 635.5,-217"/>
<text text-anchor="middle" x="576" y="-205" font-family="Helvetica,sans-Serif" font-size="10.00">src/client/peerdb.hpp</text>
</a>
</g>
</g>
<!-- Node1&#45;&gt;Node15 -->
<g id="edge22_Node000001_Node000015" class="edge">
<title>Node1&#45;&gt;Node15</title>
<g id="a_edge22_Node000001_Node000015"><a xlink:title=" ">
<path fill="none" stroke="#63b8ff" d="M692.27,-301.66C681.38,-293.02 667.4,-281.91 655,-272 630.53,-252.45 601.9,-229.38 586.72,-217.15"/>
<polygon fill="#63b8ff" stroke="#63b8ff" points="690.24,-304.52 700.25,-307.99 694.59,-299.03 690.24,-304.52"/>
</a>
</g>
</g>
<!-- Node17 -->
<g id="Node000017" class="node">
<title>Node17</title>
<g id="a_Node000017"><a xlink:href="file_8hpp.html" target="_top" xlink:title=" ">
<polygon fill="white" stroke="#666666" points="807.5,-272 698.5,-272 698.5,-253 807.5,-253 807.5,-272"/>
<text text-anchor="middle" x="753" y="-260" font-family="Helvetica,sans-Serif" font-size="10.00">src/models/file.hpp</text>
</a>
</g>
</g>
<!-- Node1&#45;&gt;Node17 -->
<g id="edge29_Node000001_Node000017" class="edge">
<title>Node1&#45;&gt;Node17</title>
<g id="a_edge29_Node000001_Node000017"><a xlink:title=" ">
<path fill="none" stroke="#63b8ff" d="M724.33,-299.67C731.61,-290.5 740.3,-279.52 746.19,-272.09"/>
<polygon fill="#63b8ff" stroke="#63b8ff" points="721.4,-297.74 717.94,-307.75 726.89,-302.08 721.4,-297.74"/>
</a>
</g>
</g>
<!-- Node18 -->
<g id="Node000018" class="node">
<title>Node18</title>
<g id="a_Node000018"><a xlink:href="group_8hpp.html" target="_top" xlink:title=" ">
<polygon fill="white" stroke="#666666" points="1027,-217 905,-217 905,-198 1027,-198 1027,-217"/>
<text text-anchor="middle" x="966" y="-205" font-family="Helvetica,sans-Serif" font-size="10.00">src/models/group.hpp</text>
</a>
</g>
</g>
<!-- Node1&#45;&gt;Node18 -->
<g id="edge38_Node000001_Node000018" class="edge">
<title>Node1&#45;&gt;Node18</title>
<g id="a_edge38_Node000001_Node000018"><a xlink:title=" ">
<path fill="none" stroke="#63b8ff" d="M785.38,-306.06C818.92,-299.39 858.27,-288.73 891,-272 918.95,-257.71 945.47,-231.16 958.17,-217.35"/>
<polygon fill="#63b8ff" stroke="#63b8ff" points="784.34,-302.7 775.17,-308.01 785.65,-309.57 784.34,-302.7"/>
</a>
</g>
</g>
<!-- Node3 -->
<g id="Node000003" class="node">
<title>Node3</title>
<g id="a_Node000003"><a xlink:href="client_8cpp.html" target="_top" xlink:title="The entrypoint to the client.">
<polygon fill="white" stroke="#666666" points="302.5,-24.5 191.5,-24.5 191.5,-5.5 302.5,-5.5 302.5,-24.5"/>
<text text-anchor="middle" x="247" y="-12.5" font-family="Helvetica,sans-Serif" font-size="10.00">src/client/client.cpp</text>
</a>
</g>
</g>
<!-- Node2&#45;&gt;Node3 -->
<g id="edge2_Node000002_Node000003" class="edge">
<title>Node2&#45;&gt;Node3</title>
<g id="a_edge2_Node000002_Node000003"><a xlink:title=" ">
<path fill="none" stroke="#63b8ff" d="M333.05,-134.29C311.5,-126.65 287.08,-114.55 271,-96 252.76,-74.97 248.38,-40.48 247.33,-24.56"/>
<polygon fill="#63b8ff" stroke="#63b8ff" points="332.11,-137.67 342.71,-137.5 334.32,-131.02 332.11,-137.67"/>
</a>
</g>
</g>
<!-- Node4 -->
<g id="Node000004" class="node">
<title>Node4</title>
<g id="a_Node000004"><a xlink:href="downloadmanager_8cpp.html" target="_top" xlink:title=" ">
<polygon fill="white" stroke="#666666" points="726,-90.5 552,-90.5 552,-71.5 726,-71.5 726,-90.5"/>
<text text-anchor="middle" x="639" y="-78.5" font-family="Helvetica,sans-Serif" font-size="10.00">src/client/downloadmanager.cpp</text>
</a>
</g>
</g>
<!-- Node2&#45;&gt;Node4 -->
<g id="edge3_Node000002_Node000004" class="edge">
<title>Node2&#45;&gt;Node4</title>
<g id="a_edge3_Node000002_Node000004"><a xlink:title=" ">
<path fill="none" stroke="#63b8ff" d="M423.6,-135.02C474.84,-122.41 557.82,-101.98 604.41,-90.51"/>
<polygon fill="#63b8ff" stroke="#63b8ff" points="422.67,-131.65 413.79,-137.44 424.34,-138.44 422.67,-131.65"/>
</a>
</g>
</g>
<!-- Node5 -->
<g id="Node000005" class="node">
<title>Node5</title>
<g id="a_Node000005"><a xlink:href="process__input_8hpp.html" target="_top" xlink:title=" ">
<polygon fill="white" stroke="#666666" points="414.5,-96 313.5,-96 313.5,-66 414.5,-66 414.5,-96"/>
<text text-anchor="start" x="321.5" y="-84" font-family="Helvetica,sans-Serif" font-size="10.00">src/client/process</text>
<text text-anchor="middle" x="364" y="-73" font-family="Helvetica,sans-Serif" font-size="10.00">_input.hpp</text>
</a>
</g>
</g>
<!-- Node2&#45;&gt;Node5 -->
<g id="edge4_Node000002_Node000005" class="edge">
<title>Node2&#45;&gt;Node5</title>
<g id="a_edge4_Node000002_Node000005"><a xlink:title=" ">
<path fill="none" stroke="#63b8ff" d="M374.63,-127.35C372.31,-117.47 369.51,-105.51 367.37,-96.36"/>
<polygon fill="#63b8ff" stroke="#63b8ff" points="371.29,-128.43 376.98,-137.37 378.1,-126.83 371.29,-128.43"/>
</a>
</g>
</g>
<!-- Node5&#45;&gt;Node3 -->
<g id="edge5_Node000005_Node000003" class="edge">
<title>Node5&#45;&gt;Node3</title>
<g id="a_edge5_Node000005_Node000003"><a xlink:title=" ">
<path fill="none" stroke="#63b8ff" d="M329.51,-61.14C307.33,-49 279.57,-33.82 262.57,-24.52"/>
<polygon fill="#63b8ff" stroke="#63b8ff" points="327.87,-64.23 338.32,-65.95 331.23,-58.09 327.87,-64.23"/>
</a>
</g>
</g>
<!-- Node5&#45;&gt;Node6 -->
<g id="edge6_Node000005_Node000006" class="edge">
<title>Node5&#45;&gt;Node6</title>
<g id="a_edge6_Node000005_Node000006"><a xlink:title=" ">
<path fill="none" stroke="#63b8ff" d="M424.99,-65.76C561.45,-41.93 711.81,-27.01 788.46,-20.21"/>
<polygon fill="#63b8ff" stroke="#63b8ff" points="424.01,-62.38 414.77,-67.57 425.23,-69.27 424.01,-62.38"/>
</a>
</g>
</g>
<!-- Node7&#45;&gt;Node4 -->
<g id="edge8_Node000007_Node000004" class="edge">
<title>Node7&#45;&gt;Node4</title>
<g id="a_edge8_Node000007_Node000004"><a xlink:title=" ">
<path fill="none" stroke="#63b8ff" d="M729.49,-132.36C706.85,-119.76 673.89,-101.42 654.63,-90.7"/>
<polygon fill="#63b8ff" stroke="#63b8ff" points="728.05,-135.56 738.49,-137.37 731.45,-129.45 728.05,-135.56"/>
</a>
</g>
</g>
<!-- Node7&#45;&gt;Node6 -->
<g id="edge10_Node000007_Node000006" class="edge">
<title>Node7&#45;&gt;Node6</title>
<g id="a_edge10_Node000007_Node000006"><a xlink:title=" ">
<path fill="none" stroke="#63b8ff" d="M754.91,-126.92C756.53,-109.75 760.96,-84.46 773,-66 782.81,-50.95 798.78,-38.67 812.55,-30.05"/>
<polygon fill="#63b8ff" stroke="#63b8ff" points="751.39,-127.1 754.18,-137.32 758.38,-127.59 751.39,-127.1"/>
</a>
</g>
</g>
<!-- Node8 -->
<g id="Node000008" class="node">
<title>Node8</title>
<g id="a_Node000008"><a xlink:href="file__io_8cpp.html" target="_top" xlink:title=" ">
<polygon fill="white" stroke="#666666" points="895.5,-90.5 782.5,-90.5 782.5,-71.5 895.5,-71.5 895.5,-90.5"/>
<text text-anchor="middle" x="839" y="-78.5" font-family="Helvetica,sans-Serif" font-size="10.00">src/client/file_io.cpp</text>
</a>
</g>
</g>
<!-- Node7&#45;&gt;Node8 -->
<g id="edge9_Node000007_Node000008" class="edge">
<title>Node7&#45;&gt;Node8</title>
<g id="a_edge9_Node000007_Node000008"><a xlink:title=" ">
<path fill="none" stroke="#63b8ff" d="M773.48,-131.33C790.15,-118.78 813.59,-101.13 827.45,-90.7"/>
<polygon fill="#63b8ff" stroke="#63b8ff" points="771.35,-128.56 765.46,-137.37 775.56,-134.15 771.35,-128.56"/>
</a>
</g>
</g>
<!-- Node7&#45;&gt;Node9 -->
<g id="edge11_Node000007_Node000009" class="edge">
<title>Node7&#45;&gt;Node9</title>
<g id="a_edge11_Node000007_Node000009"><a xlink:title=" ">
<path fill="none" stroke="#63b8ff" d="M707.85,-135.1C659.53,-123.69 583.84,-105.81 533.83,-94"/>
<polygon fill="#63b8ff" stroke="#63b8ff" points="707.2,-138.54 717.73,-137.44 708.81,-131.73 707.2,-138.54"/>
</a>
</g>
</g>
<!-- Node10&#45;&gt;Node2 -->
<g id="edge13_Node000010_Node000002" class="edge">
<title>Node10&#45;&gt;Node2</title>
<g id="a_edge13_Node000010_Node000002"><a xlink:title=" ">
<path fill="none" stroke="#63b8ff" d="M335.82,-246.31C345.11,-238.52 355.42,-228.3 362,-217 373.42,-197.38 377.21,-170.32 378.43,-156.65"/>
<polygon fill="#63b8ff" stroke="#63b8ff" points="333.37,-243.79 327.71,-252.74 337.72,-249.27 333.37,-243.79"/>
</a>
</g>
</g>
<!-- Node11 -->
<g id="Node000011" class="node">
<title>Node11</title>
<g id="a_Node000011"><a xlink:href="filesdb_8hpp.html" target="_top" xlink:title=" ">
<polygon fill="white" stroke="#666666" points="216.5,-217 99.5,-217 99.5,-198 216.5,-198 216.5,-217"/>
<text text-anchor="middle" x="158" y="-205" font-family="Helvetica,sans-Serif" font-size="10.00">src/client/filesdb.hpp</text>
</a>
</g>
</g>
<!-- Node10&#45;&gt;Node11 -->
<g id="edge14_Node000010_Node000011" class="edge">
<title>Node10&#45;&gt;Node11</title>
<g id="a_edge14_Node000010_Node000011"><a xlink:title=" ">
<path fill="none" stroke="#63b8ff" d="M279.95,-249.67C250.68,-239.79 209.63,-225.93 183.42,-217.08"/>
<polygon fill="#63b8ff" stroke="#63b8ff" points="279.18,-253.1 289.78,-252.98 281.42,-246.47 279.18,-253.1"/>
</a>
</g>
</g>
<!-- Node14 -->
<g id="Node000014" class="node">
<title>Node14</title>
<g id="a_Node000014"><a xlink:href="partfile_8cpp.html" target="_top" xlink:title=" ">
<polygon fill="white" stroke="#666666" points="353.5,-217 234.5,-217 234.5,-198 353.5,-198 353.5,-217"/>
<text text-anchor="middle" x="294" y="-205" font-family="Helvetica,sans-Serif" font-size="10.00">src/client/partfile.cpp</text>
</a>
</g>
</g>
<!-- Node10&#45;&gt;Node14 -->
<g id="edge21_Node000010_Node000014" class="edge">
<title>Node10&#45;&gt;Node14</title>
<g id="a_edge21_Node000010_Node000014"><a xlink:title=" ">
<path fill="none" stroke="#63b8ff" d="M307.76,-243.24C304.25,-234.37 300.2,-224.14 297.4,-217.09"/>
<polygon fill="#63b8ff" stroke="#63b8ff" points="304.59,-244.74 311.53,-252.75 311.1,-242.16 304.59,-244.74"/>
</a>
</g>
</g>
<!-- Node11&#45;&gt;Node2 -->
<g id="edge16_Node000011_Node000002" class="edge">
<title>Node11&#45;&gt;Node2</title>
<g id="a_edge16_Node000011_Node000002"><a xlink:title=" ">
<path fill="none" stroke="#63b8ff" d="M199.95,-195.4C242.68,-184.08 308.02,-166.79 346.83,-156.52"/>
<polygon fill="#63b8ff" stroke="#63b8ff" points="198.91,-192.05 190.14,-197.99 200.7,-198.82 198.91,-192.05"/>
</a>
</g>
</g>
<!-- Node11&#45;&gt;Node3 -->
<g id="edge15_Node000011_Node000003" class="edge">
<title>Node11&#45;&gt;Node3</title>
<g id="a_edge15_Node000011_Node000003"><a xlink:title=" ">
<path fill="none" stroke="#63b8ff" d="M156.44,-187.61C155.82,-172.19 156.47,-150.07 163,-132 179.57,-86.17 220.01,-42.52 238.05,-24.58"/>
<polygon fill="#63b8ff" stroke="#63b8ff" points="152.97,-188.16 157.08,-197.92 159.95,-187.72 152.97,-188.16"/>
</a>
</g>
</g>
<!-- Node12 -->
<g id="Node000012" class="node">
<title>Node12</title>
<g id="a_Node000012"><a xlink:href="filesdb_8cpp.html" target="_top" xlink:title=" ">
<polygon fill="white" stroke="#666666" points="116,-156.5 0,-156.5 0,-137.5 116,-137.5 116,-156.5"/>
<text text-anchor="middle" x="58" y="-144.5" font-family="Helvetica,sans-Serif" font-size="10.00">src/client/filesdb.cpp</text>
</a>
</g>
</g>
<!-- Node11&#45;&gt;Node12 -->
<g id="edge17_Node000011_Node000012" class="edge">
<title>Node11&#45;&gt;Node12</title>
<g id="a_edge17_Node000011_Node000012"><a xlink:title=" ">
<path fill="none" stroke="#63b8ff" d="M134.53,-192.77C115.44,-181.6 89.09,-166.19 72.82,-156.67"/>
<polygon fill="#63b8ff" stroke="#63b8ff" points="132.85,-195.84 143.24,-197.87 136.38,-189.8 132.85,-195.84"/>
</a>
</g>
</g>
<!-- Node13 -->
<g id="Node000013" class="node">
<title>Node13</title>
<g id="a_Node000013"><a xlink:href="client_2process__request_8hpp.html" target="_top" xlink:title=" ">
<polygon fill="white" stroke="#666666" points="273.5,-162 172.5,-162 172.5,-132 273.5,-132 273.5,-162"/>
<text text-anchor="start" x="180.5" y="-150" font-family="Helvetica,sans-Serif" font-size="10.00">src/client/process</text>
<text text-anchor="middle" x="223" y="-139" font-family="Helvetica,sans-Serif" font-size="10.00">_request.hpp</text>
</a>
</g>
</g>
<!-- Node11&#45;&gt;Node13 -->
<g id="edge18_Node000011_Node000013" class="edge">
<title>Node11&#45;&gt;Node13</title>
<g id="a_edge18_Node000011_Node000013"><a xlink:title=" ">
<path fill="none" stroke="#63b8ff" d="M175.26,-190.97C185.22,-182.01 197.64,-170.82 207.32,-162.11"/>
<polygon fill="#63b8ff" stroke="#63b8ff" points="172.68,-188.58 167.59,-197.87 177.37,-193.78 172.68,-188.58"/>
</a>
</g>
</g>
<!-- Node13&#45;&gt;Node3 -->
<g id="edge19_Node000013_Node000003" class="edge">
<title>Node13&#45;&gt;Node3</title>
<g id="a_edge19_Node000013_Node000003"><a xlink:title=" ">
<path fill="none" stroke="#63b8ff" d="M225.1,-121.65C226.7,-105.72 229.27,-84.51 233,-66 235.95,-51.33 240.96,-34.66 244.12,-24.75"/>
<polygon fill="#63b8ff" stroke="#63b8ff" points="221.6,-121.45 224.14,-131.73 228.57,-122.11 221.6,-121.45"/>
</a>
</g>
</g>
<!-- Node13&#45;&gt;Node9 -->
<g id="edge20_Node000013_Node000009" class="edge">
<title>Node13&#45;&gt;Node9</title>
<g id="a_edge20_Node000013_Node000009"><a xlink:title=" ">
<path fill="none" stroke="#63b8ff" d="M283.71,-131.06C328.88,-119.94 389.83,-104.94 432.38,-94.46"/>
<polygon fill="#63b8ff" stroke="#63b8ff" points="282.62,-127.72 273.75,-133.51 284.29,-134.52 282.62,-127.72"/>
</a>
</g>
</g>
<!-- Node15&#45;&gt;Node2 -->
<g id="edge24_Node000015_Node000002" class="edge">
<title>Node15&#45;&gt;Node2</title>
<g id="a_edge24_Node000015_Node000002"><a xlink:title=" ">
<path fill="none" stroke="#63b8ff" d="M537.64,-195.11C499.53,-183.79 441.98,-166.7 407.68,-156.52"/>
<polygon fill="#63b8ff" stroke="#63b8ff" points="536.77,-198.5 547.35,-197.99 538.76,-191.79 536.77,-198.5"/>
</a>
</g>
</g>
<!-- Node15&#45;&gt;Node3 -->
<g id="edge23_Node000015_Node000003" class="edge">
<title>Node15&#45;&gt;Node3</title>
<g id="a_edge23_Node000015_Node000003"><a xlink:title=" ">
<path fill="none" stroke="#63b8ff" d="M555.07,-191.74C542.99,-183.15 527.56,-172.08 514,-162 496.45,-148.96 494.86,-141.15 475,-132 404.46,-99.51 368.98,-138.54 304,-96 276.32,-77.88 257.86,-41.28 250.54,-24.62"/>
<polygon fill="#63b8ff" stroke="#63b8ff" points="553.38,-194.83 563.56,-197.75 557.43,-189.12 553.38,-194.83"/>
</a>
</g>
</g>
<!-- Node15&#45;&gt;Node13 -->
<g id="edge26_Node000015_Node000013" class="edge">
<title>Node15&#45;&gt;Node13</title>
<g id="a_edge26_Node000015_Node000013"><a xlink:title=" ">
<path fill="none" stroke="#63b8ff" d="M506.27,-197.6C446.52,-189.58 358.29,-176.8 282,-162 279.31,-161.48 276.56,-160.92 273.79,-160.33"/>
<polygon fill="#63b8ff" stroke="#63b8ff" points="505.97,-201.09 516.35,-198.94 506.9,-194.15 505.97,-201.09"/>
</a>
</g>
</g>
<!-- Node16 -->
<g id="Node000016" class="node">
<title>Node16</title>
<g id="a_Node000016"><a xlink:href="peerdb_8cpp.html" target="_top" xlink:title=" ">
<polygon fill="white" stroke="#666666" points="641,-156.5 523,-156.5 523,-137.5 641,-137.5 641,-156.5"/>
<text text-anchor="middle" x="582" y="-144.5" font-family="Helvetica,sans-Serif" font-size="10.00">src/client/peerdb.cpp</text>
</a>
</g>
</g>
<!-- Node15&#45;&gt;Node16 -->
<g id="edge25_Node000015_Node000016" class="edge">
<title>Node15&#45;&gt;Node16</title>
<g id="a_edge25_Node000015_Node000016"><a xlink:title=" ">
<path fill="none" stroke="#63b8ff" d="M577.93,-187.66C579,-177.24 580.28,-164.8 581.11,-156.67"/>
<polygon fill="#63b8ff" stroke="#63b8ff" points="574.42,-187.56 576.89,-197.87 581.39,-188.28 574.42,-187.56"/>
</a>
</g>
</g>
<!-- Node17&#45;&gt;Node2 -->
<g id="edge30_Node000017_Node000002" class="edge">
<title>Node17&#45;&gt;Node2</title>
<g id="a_edge30_Node000017_Node000002"><a xlink:title=" ">
<path fill="none" stroke="#63b8ff" d="M688.36,-255.44C637.9,-249.38 566.59,-237.86 507,-217 462.2,-201.32 414.17,-171.46 391.81,-156.7"/>
<polygon fill="#63b8ff" stroke="#63b8ff" points="688.14,-258.94 698.48,-256.62 688.95,-251.99 688.14,-258.94"/>
</a>
</g>
</g>
<!-- Node17&#45;&gt;Node6 -->
<g id="edge33_Node000017_Node000006" class="edge">
<title>Node17&#45;&gt;Node6</title>
<g id="a_edge33_Node000017_Node000006"><a xlink:title=" ">
<path fill="none" stroke="#63b8ff" d="M774.12,-246.8C809.06,-221.03 877.67,-163.91 904,-96 908.82,-83.57 909.89,-77.96 904,-66 896.39,-50.55 881.45,-38.53 867.81,-30.16"/>
<polygon fill="#63b8ff" stroke="#63b8ff" points="771.67,-244.25 765.61,-252.95 775.77,-249.93 771.67,-244.25"/>
</a>
</g>
</g>
<!-- Node17&#45;&gt;Node7 -->
<g id="edge31_Node000017_Node000007" class="edge">
<title>Node17&#45;&gt;Node7</title>
<g id="a_edge31_Node000017_Node000007"><a xlink:title=" ">
<path fill="none" stroke="#63b8ff" d="M753.17,-242.65C753.39,-217.74 753.76,-174.88 753.92,-156.63"/>
<polygon fill="#63b8ff" stroke="#63b8ff" points="749.66,-242.94 753.08,-252.97 756.66,-243 749.66,-242.94"/>
</a>
</g>
</g>
<!-- Node17&#45;&gt;Node15 -->
<g id="edge32_Node000017_Node000015" class="edge">
<title>Node17&#45;&gt;Node15</title>
<g id="a_edge32_Node000017_Node000015"><a xlink:title=" ">
<path fill="none" stroke="#63b8ff" d="M714.78,-250.06C681.7,-240.15 634.59,-226.04 604.66,-217.08"/>
<polygon fill="#63b8ff" stroke="#63b8ff" points="713.98,-253.47 724.56,-252.98 715.99,-246.76 713.98,-253.47"/>
</a>
</g>
</g>
<!-- Node17&#45;&gt;Node18 -->
<g id="edge34_Node000017_Node000018" class="edge">
<title>Node17&#45;&gt;Node18</title>
<g id="a_edge34_Node000017_Node000018"><a xlink:title=" ">
<path fill="none" stroke="#63b8ff" d="M796.95,-250.56C836.84,-240.64 894.87,-226.2 931.51,-217.08"/>
<polygon fill="#63b8ff" stroke="#63b8ff" points="796.08,-247.17 787.22,-252.98 797.77,-253.97 796.08,-247.17"/>
</a>
</g>
</g>
<!-- Node19 -->
<g id="Node000019" class="node">
<title>Node19</title>
<g id="a_Node000019"><a xlink:href="groupdb_8hpp.html" target="_top" xlink:title=" ">
<polygon fill="white" stroke="#666666" points="1071.5,-156.5 940.5,-156.5 940.5,-137.5 1071.5,-137.5 1071.5,-156.5"/>
<text text-anchor="middle" x="1006" y="-144.5" font-family="Helvetica,sans-Serif" font-size="10.00">src/tracker/groupdb.hpp</text>
</a>
</g>
</g>
<!-- Node18&#45;&gt;Node19 -->
<g id="edge35_Node000018_Node000019" class="edge">
<title>Node18&#45;&gt;Node19</title>
<g id="a_edge35_Node000018_Node000019"><a xlink:title=" ">
<path fill="none" stroke="#63b8ff" d="M977.76,-189.3C985.09,-178.58 994.22,-165.23 1000.07,-156.67"/>
<polygon fill="#63b8ff" stroke="#63b8ff" points="974.66,-187.64 971.9,-197.87 980.44,-191.59 974.66,-187.64"/>
</a>
</g>
</g>
<!-- Node20 -->
<g id="Node000020" class="node">
<title>Node20</title>
<g id="a_Node000020"><a xlink:href="groupdb_8cpp.html" target="_top" xlink:title=" ">
<polygon fill="white" stroke="#666666" points="1209.5,-90.5 1078.5,-90.5 1078.5,-71.5 1209.5,-71.5 1209.5,-90.5"/>
<text text-anchor="middle" x="1144" y="-78.5" font-family="Helvetica,sans-Serif" font-size="10.00">src/tracker/groupdb.cpp</text>
</a>
</g>
</g>
<!-- Node19&#45;&gt;Node20 -->
<g id="edge36_Node000019_Node000020" class="edge">
<title>Node19&#45;&gt;Node20</title>
<g id="a_edge36_Node000019_Node000020"><a xlink:title=" ">
<path fill="none" stroke="#63b8ff" d="M1033.97,-133.03C1061.17,-120.42 1101.71,-101.61 1125.24,-90.7"/>
<polygon fill="#63b8ff" stroke="#63b8ff" points="1032.21,-129.99 1024.61,-137.37 1035.16,-136.34 1032.21,-129.99"/>
</a>
</g>
</g>
<!-- Node21 -->
<g id="Node000021" class="node">
<title>Node21</title>
<g id="a_Node000021"><a xlink:href="tracker_2process__request_8cpp.html" target="_top" xlink:title=" ">
<polygon fill="white" stroke="#666666" points="1060,-96 952,-96 952,-66 1060,-66 1060,-96"/>
<text text-anchor="start" x="960" y="-84" font-family="Helvetica,sans-Serif" font-size="10.00">src/tracker/process</text>
<text text-anchor="middle" x="1006" y="-73" font-family="Helvetica,sans-Serif" font-size="10.00">_request.cpp</text>
</a>
</g>
</g>
<!-- Node19&#45;&gt;Node21 -->
<g id="edge37_Node000019_Node000021" class="edge">
<title>Node19&#45;&gt;Node21</title>
<g id="a_edge37_Node000019_Node000021"><a xlink:title=" ">
<path fill="none" stroke="#63b8ff" d="M1006,-127.35C1006,-117.47 1006,-105.51 1006,-96.36"/>
<polygon fill="#63b8ff" stroke="#63b8ff" points="1002.5,-127.37 1006,-137.37 1009.5,-127.37 1002.5,-127.37"/>
</a>
</g>
</g>
</g>
</svg>
