<?xml version="1.0" encoding="UTF-8" standalone="no"?>
<!DOCTYPE svg PUBLIC "-//W3C//DTD SVG 1.1//EN"
 "http://www.w3.org/Graphics/SVG/1.1/DTD/svg11.dtd">
<!-- Generated by graphviz version 2.43.0 (0)
 -->
<!-- Title: src/client/file_id.hpp Pages: 1 -->
<svg width="573pt" height="280pt"
 viewBox="0.00 0.00 573.00 280.00" xmlns="http://www.w3.org/2000/svg" xmlns:xlink="http://www.w3.org/1999/xlink">
<g id="graph0" class="graph" transform="scale(1 1) rotate(0) translate(4 276)">
<title>src/client/file_id.hpp</title>
<!-- Node1 -->
<g id="Node000001" class="node">
<title>Node1</title>
<g id="a_Node000001"><a xlink:title=" ">
<polygon fill="#999999" stroke="#666666" points="359,-272 245,-272 245,-253 359,-253 359,-272"/>
<text text-anchor="middle" x="302" y="-260" font-family="Helvetica,sans-Serif" font-size="10.00">src/client/file_id.hpp</text>
</a>
</g>
</g>
<!-- Node2 -->
<g id="Node000002" class="node">
<title>Node2</title>
<g id="a_Node000002"><a xlink:href="filesdb_8hpp.html" target="_top" xlink:title=" ">
<polygon fill="white" stroke="#666666" points="433.5,-217 316.5,-217 316.5,-198 433.5,-198 433.5,-217"/>
<text text-anchor="middle" x="375" y="-205" font-family="Helvetica,sans-Serif" font-size="10.00">src/client/filesdb.hpp</text>
</a>
</g>
</g>
<!-- Node1&#45;&gt;Node2 -->
<g id="edge1_Node000001_Node000002" class="edge">
<title>Node1&#45;&gt;Node2</title>
<g id="a_edge1_Node000001_Node000002"><a xlink:title=" ">
<path fill="none" stroke="#63b8ff" d="M322.14,-246.88C335.28,-237.34 351.98,-225.21 363.06,-217.17"/>
<polygon fill="#63b8ff" stroke="#63b8ff" points="319.76,-244.28 313.73,-252.98 323.88,-249.94 319.76,-244.28"/>
</a>
</g>
</g>
<!-- Node11 -->
<g id="Node000011" class="node">
<title>Node11</title>
<g id="a_Node000011"><a xlink:href="peerdb_8hpp.html" target="_top" xlink:title=" ">
<polygon fill="white" stroke="#666666" points="293.5,-217 174.5,-217 174.5,-198 293.5,-198 293.5,-217"/>
<text text-anchor="middle" x="234" y="-205" font-family="Helvetica,sans-Serif" font-size="10.00">src/client/peerdb.hpp</text>
</a>
</g>
</g>
<!-- Node1&#45;&gt;Node11 -->
<g id="edge11_Node000001_Node000011" class="edge">
<title>Node1&#45;&gt;Node11</title>
<g id="a_edge11_Node000001_Node000011"><a xlink:title=" ">
<path fill="none" stroke="#63b8ff" d="M282.88,-246.6C270.7,-237.11 255.34,-225.13 245.12,-217.17"/>
<polygon fill="#63b8ff" stroke="#63b8ff" points="281.04,-249.6 291.07,-252.98 285.34,-244.08 281.04,-249.6"/>
</a>
</g>
</g>
<!-- Node3 -->
<g id="Node000003" class="node">
<title>Node3</title>
<g id="a_Node000003"><a xlink:href="downloadmanager_8hpp.html" target="_top" xlink:title=" ">
<polygon fill="white" stroke="#666666" points="311.5,-156.5 136.5,-156.5 136.5,-137.5 311.5,-137.5 311.5,-156.5"/>
<text text-anchor="middle" x="224" y="-144.5" font-family="Helvetica,sans-Serif" font-size="10.00">src/client/downloadmanager.hpp</text>
</a>
</g>
</g>
<!-- Node2&#45;&gt;Node3 -->
<g id="edge2_Node000002_Node000003" class="edge">
<title>Node2&#45;&gt;Node3</title>
<g id="a_edge2_Node000002_Node000003"><a xlink:title=" ">
<path fill="none" stroke="#63b8ff" d="M343.71,-194.38C314.52,-183.07 271.72,-166.49 245.98,-156.52"/>
<polygon fill="#63b8ff" stroke="#63b8ff" points="342.45,-197.64 353.04,-197.99 344.98,-191.12 342.45,-197.64"/>
</a>
</g>
</g>
<!-- Node8 -->
<g id="Node000008" class="node">
<title>Node8</title>
<g id="a_Node000008"><a xlink:href="filesdb_8cpp.html" target="_top" xlink:title=" ">
<polygon fill="white" stroke="#666666" points="565,-156.5 449,-156.5 449,-137.5 565,-137.5 565,-156.5"/>
<text text-anchor="middle" x="507" y="-144.5" font-family="Helvetica,sans-Serif" font-size="10.00">src/client/filesdb.cpp</text>
</a>
</g>
</g>
<!-- Node2&#45;&gt;Node8 -->
<g id="edge7_Node000002_Node000008" class="edge">
<title>Node2&#45;&gt;Node8</title>
<g id="a_edge7_Node000002_Node000008"><a xlink:title=" ">
<path fill="none" stroke="#63b8ff" d="M403.36,-193.93C428.84,-182.64 465.58,-166.36 487.78,-156.52"/>
<polygon fill="#63b8ff" stroke="#63b8ff" points="401.92,-190.74 394.19,-197.99 404.75,-197.14 401.92,-190.74"/>
</a>
</g>
</g>
<!-- Node9 -->
<g id="Node000009" class="node">
<title>Node9</title>
<g id="a_Node000009"><a xlink:href="client_2process__request_8hpp.html" target="_top" xlink:title=" ">
<polygon fill="white" stroke="#666666" points="430.5,-162 329.5,-162 329.5,-132 430.5,-132 430.5,-162"/>
<text text-anchor="start" x="337.5" y="-150" font-family="Helvetica,sans-Serif" font-size="10.00">src/client/process</text>
<text text-anchor="middle" x="380" y="-139" font-family="Helvetica,sans-Serif" font-size="10.00">_request.hpp</text>
</a>
</g>
</g>
<!-- Node2&#45;&gt;Node9 -->
<g id="edge8_Node000002_Node000009" class="edge">
<title>Node2&#45;&gt;Node9</title>
<g id="a_edge8_Node000002_Node000009"><a xlink:title=" ">
<path fill="none" stroke="#63b8ff" d="M376.61,-187.65C377.32,-179.36 378.14,-169.78 378.79,-162.11"/>
<polygon fill="#63b8ff" stroke="#63b8ff" points="373.1,-187.61 375.74,-197.87 380.08,-188.2 373.1,-187.61"/>
</a>
</g>
</g>
<!-- Node4 -->
<g id="Node000004" class="node">
<title>Node4</title>
<g id="a_Node000004"><a xlink:href="downloadmanager_8cpp.html" target="_top" xlink:title=" ">
<polygon fill="white" stroke="#666666" points="193,-90.5 19,-90.5 19,-71.5 193,-71.5 193,-90.5"/>
<text text-anchor="middle" x="106" y="-78.5" font-family="Helvetica,sans-Serif" font-size="10.00">src/client/downloadmanager.cpp</text>
</a>
</g>
</g>
<!-- Node3&#45;&gt;Node4 -->
<g id="edge3_Node000003_Node000004" class="edge">
<title>Node3&#45;&gt;Node4</title>
<g id="a_edge3_Node000003_Node000004"><a xlink:title=" ">
<path fill="none" stroke="#63b8ff" d="M199.16,-132.53C175.92,-119.92 141.89,-101.47 122.04,-90.7"/>
<polygon fill="#63b8ff" stroke="#63b8ff" points="197.63,-135.68 208.09,-137.37 200.96,-129.52 197.63,-135.68"/>
</a>
</g>
</g>
<!-- Node5 -->
<g id="Node000005" class="node">
<title>Node5</title>
<g id="a_Node000005"><a xlink:href="process__input_8hpp.html" target="_top" xlink:title=" ">
<polygon fill="white" stroke="#666666" points="312.5,-96 211.5,-96 211.5,-66 312.5,-66 312.5,-96"/>
<text text-anchor="start" x="219.5" y="-84" font-family="Helvetica,sans-Serif" font-size="10.00">src/client/process</text>
<text text-anchor="middle" x="262" y="-73" font-family="Helvetica,sans-Serif" font-size="10.00">_input.hpp</text>
</a>
</g>
</g>
<!-- Node3&#45;&gt;Node5 -->
<g id="edge4_Node000003_Node000005" class="edge">
<title>Node3&#45;&gt;Node5</title>
<g id="a_edge4_Node000003_Node000005"><a xlink:title=" ">
<path fill="none" stroke="#63b8ff" d="M234.32,-128.61C240.33,-118.5 247.81,-105.91 253.47,-96.36"/>
<polygon fill="#63b8ff" stroke="#63b8ff" points="231.22,-126.98 229.12,-137.37 237.24,-130.56 231.22,-126.98"/>
</a>
</g>
</g>
<!-- Node6 -->
<g id="Node000006" class="node">
<title>Node6</title>
<g id="a_Node000006"><a xlink:href="client_8cpp.html" target="_top" xlink:title="The entrypoint to the client.">
<polygon fill="white" stroke="#666666" points="419.5,-24.5 308.5,-24.5 308.5,-5.5 419.5,-5.5 419.5,-24.5"/>
<text text-anchor="middle" x="364" y="-12.5" font-family="Helvetica,sans-Serif" font-size="10.00">src/client/client.cpp</text>
</a>
</g>
</g>
<!-- Node5&#45;&gt;Node6 -->
<g id="edge5_Node000005_Node000006" class="edge">
<title>Node5&#45;&gt;Node6</title>
<g id="a_edge5_Node000005_Node000006"><a xlink:title=" ">
<path fill="none" stroke="#63b8ff" d="M293.1,-60.49C312.26,-48.46 335.87,-33.65 350.43,-24.52"/>
<polygon fill="#63b8ff" stroke="#63b8ff" points="290.99,-57.68 284.38,-65.95 294.72,-63.6 290.99,-57.68"/>
</a>
</g>
</g>
<!-- Node7 -->
<g id="Node000007" class="node">
<title>Node7</title>
<g id="a_Node000007"><a xlink:href="process__input_8cpp.html" target="_top" xlink:title=" ">
<polygon fill="white" stroke="#666666" points="290.5,-30 189.5,-30 189.5,0 290.5,0 290.5,-30"/>
<text text-anchor="start" x="197.5" y="-18" font-family="Helvetica,sans-Serif" font-size="10.00">src/client/process</text>
<text text-anchor="middle" x="240" y="-7" font-family="Helvetica,sans-Serif" font-size="10.00">_input.cpp</text>
</a>
</g>
</g>
<!-- Node5&#45;&gt;Node7 -->
<g id="edge6_Node000005_Node000007" class="edge">
<title>Node5&#45;&gt;Node7</title>
<g id="a_edge6_Node000005_Node000007"><a xlink:title=" ">
<path fill="none" stroke="#63b8ff" d="M253.79,-56.11C250.79,-47.38 247.49,-37.78 244.87,-30.16"/>
<polygon fill="#63b8ff" stroke="#63b8ff" points="250.56,-57.48 257.12,-65.8 257.18,-55.2 250.56,-57.48"/>
</a>
</g>
</g>
<!-- Node9&#45;&gt;Node6 -->
<g id="edge9_Node000009_Node000006" class="edge">
<title>Node9&#45;&gt;Node6</title>
<g id="a_edge9_Node000009_Node000006"><a xlink:title=" ">
<path fill="none" stroke="#63b8ff" d="M376.99,-121.57C373.37,-92.17 367.48,-44.31 365.08,-24.75"/>
<polygon fill="#63b8ff" stroke="#63b8ff" points="373.56,-122.34 378.26,-131.84 380.51,-121.49 373.56,-122.34"/>
</a>
</g>
</g>
<!-- Node10 -->
<g id="Node000010" class="node">
<title>Node10</title>
<g id="a_Node000010"><a xlink:href="client_2process__request_8cpp.html" target="_top" xlink:title=" ">
<polygon fill="white" stroke="#666666" points="493.5,-96 392.5,-96 392.5,-66 493.5,-66 493.5,-96"/>
<text text-anchor="start" x="400.5" y="-84" font-family="Helvetica,sans-Serif" font-size="10.00">src/client/process</text>
<text text-anchor="middle" x="443" y="-73" font-family="Helvetica,sans-Serif" font-size="10.00">_request.cpp</text>
</a>
</g>
</g>
<!-- Node9&#45;&gt;Node10 -->
<g id="edge10_Node000009_Node000010" class="edge">
<title>Node9&#45;&gt;Node10</title>
<g id="a_edge10_Node000009_Node000010"><a xlink:title=" ">
<path fill="none" stroke="#63b8ff" d="M401.02,-124.65C410.25,-115.27 420.83,-104.53 429.06,-96.16"/>
<polygon fill="#63b8ff" stroke="#63b8ff" points="398.5,-122.21 393.98,-131.8 403.49,-127.13 398.5,-122.21"/>
</a>
</g>
</g>
<!-- Node11&#45;&gt;Node3 -->
<g id="edge12_Node000011_Node000003" class="edge">
<title>Node11&#45;&gt;Node3</title>
<g id="a_edge12_Node000011_Node000003"><a xlink:title=" ">
<path fill="none" stroke="#63b8ff" d="M230.84,-187.99C229.04,-177.51 226.89,-164.89 225.48,-156.67"/>
<polygon fill="#63b8ff" stroke="#63b8ff" points="227.39,-188.6 232.52,-197.87 234.29,-187.42 227.39,-188.6"/>
</a>
</g>
</g>
<!-- Node11&#45;&gt;Node9 -->
<g id="edge14_Node000011_Node000009" class="edge">
<title>Node11&#45;&gt;Node9</title>
<g id="a_edge14_Node000011_Node000009"><a xlink:title=" ">
<path fill="none" stroke="#63b8ff" d="M264.68,-194.21C288.11,-184.82 320.44,-171.87 344.9,-162.06"/>
<polygon fill="#63b8ff" stroke="#63b8ff" points="263.21,-191.03 255.23,-197.99 265.81,-197.52 263.21,-191.03"/>
</a>
</g>
</g>
<!-- Node12 -->
<g id="Node000012" class="node">
<title>Node12</title>
<g id="a_Node000012"><a xlink:href="peerdb_8cpp.html" target="_top" xlink:title=" ">
<polygon fill="white" stroke="#666666" points="118,-156.5 0,-156.5 0,-137.5 118,-137.5 118,-156.5"/>
<text text-anchor="middle" x="59" y="-144.5" font-family="Helvetica,sans-Serif" font-size="10.00">src/client/peerdb.cpp</text>
</a>
</g>
</g>
<!-- Node11&#45;&gt;Node12 -->
<g id="edge13_Node000011_Node000012" class="edge">
<title>Node11&#45;&gt;Node12</title>
<g id="a_edge13_Node000011_Node000012"><a xlink:title=" ">
<path fill="none" stroke="#63b8ff" d="M199.05,-194.82C165.2,-183.5 114.69,-166.62 84.48,-156.52"/>
<polygon fill="#63b8ff" stroke="#63b8ff" points="197.96,-198.14 208.55,-197.99 200.18,-191.5 197.96,-198.14"/>
</a>
</g>
</g>
</g>
</svg>
