<?xml version="1.0" encoding="UTF-8" standalone="no"?>
<!DOCTYPE svg PUBLIC "-//W3C//DTD SVG 1.1//EN"
 "http://www.w3.org/Graphics/SVG/1.1/DTD/svg11.dtd">
<!-- Generated by graphviz version 2.43.0 (0)
 -->
<!-- Title: src/models/file.hpp Pages: 1 -->
<svg width="956pt" height="280pt"
 viewBox="0.00 0.00 956.19 280.00" xmlns="http://www.w3.org/2000/svg" xmlns:xlink="http://www.w3.org/1999/xlink">
<g id="graph0" class="graph" transform="scale(1 1) rotate(0) translate(4 276)">
<title>src/models/file.hpp</title>
<!-- Node1 -->
<g id="Node000001" class="node">
<title>Node1</title>
<g id="a_Node000001"><a xlink:title=" ">
<polygon fill="#999999" stroke="#666666" points="574.69,-272 465.69,-272 465.69,-253 574.69,-253 574.69,-272"/>
<text text-anchor="middle" x="520.19" y="-260" font-family="Helvetica,sans-Serif" font-size="10.00">src/models/file.hpp</text>
</a>
</g>
</g>
<!-- Node2 -->
<g id="Node000002" class="node">
<title>Node2</title>
<g id="a_Node000002"><a xlink:href="file__io_8hpp.html" target="_top" xlink:title=" ">
<polygon fill="white" stroke="#666666" points="258.19,-156.5 144.19,-156.5 144.19,-137.5 258.19,-137.5 258.19,-156.5"/>
<text text-anchor="middle" x="201.19" y="-144.5" font-family="Helvetica,sans-Serif" font-size="10.00">src/client/file_io.hpp</text>
</a>
</g>
</g>
<!-- Node1&#45;&gt;Node2 -->
<g id="edge1_Node000001_Node000002" class="edge">
<title>Node1&#45;&gt;Node2</title>
<g id="a_edge1_Node000001_Node000002"><a xlink:title=" ">
<path fill="none" stroke="#63b8ff" d="M486.51,-249.52C421.87,-226.52 281.83,-176.69 225.44,-156.63"/>
<polygon fill="#63b8ff" stroke="#63b8ff" points="485.62,-252.91 496.21,-252.97 487.96,-246.32 485.62,-252.91"/>
</a>
</g>
</g>
<!-- Node7 -->
<g id="Node000007" class="node">
<title>Node7</title>
<g id="a_Node000007"><a xlink:href="peerdb_8hpp.html" target="_top" xlink:title=" ">
<polygon fill="white" stroke="#666666" points="579.69,-217 460.69,-217 460.69,-198 579.69,-198 579.69,-217"/>
<text text-anchor="middle" x="520.19" y="-205" font-family="Helvetica,sans-Serif" font-size="10.00">src/client/peerdb.hpp</text>
</a>
</g>
</g>
<!-- Node1&#45;&gt;Node7 -->
<g id="edge6_Node000001_Node000007" class="edge">
<title>Node1&#45;&gt;Node7</title>
<g id="a_edge6_Node000001_Node000007"><a xlink:title=" ">
<path fill="none" stroke="#63b8ff" d="M520.19,-242.66C520.19,-233.93 520.19,-223.99 520.19,-217.09"/>
<polygon fill="#63b8ff" stroke="#63b8ff" points="516.69,-242.75 520.19,-252.75 523.69,-242.75 516.69,-242.75"/>
</a>
</g>
</g>
<!-- Node13 -->
<g id="Node000013" class="node">
<title>Node13</title>
<g id="a_Node000013"><a xlink:href="group_8hpp.html" target="_top" xlink:title=" ">
<polygon fill="white" stroke="#666666" points="786.19,-217 664.19,-217 664.19,-198 786.19,-198 786.19,-217"/>
<text text-anchor="middle" x="725.19" y="-205" font-family="Helvetica,sans-Serif" font-size="10.00">src/models/group.hpp</text>
</a>
</g>
</g>
<!-- Node1&#45;&gt;Node13 -->
<g id="edge16_Node000001_Node000013" class="edge">
<title>Node1&#45;&gt;Node13</title>
<g id="a_edge16_Node000001_Node000013"><a xlink:title=" ">
<path fill="none" stroke="#63b8ff" d="M562.98,-250.44C601.35,-240.52 656.88,-226.16 691.99,-217.08"/>
<polygon fill="#63b8ff" stroke="#63b8ff" points="561.93,-247.09 553.12,-252.98 563.68,-253.87 561.93,-247.09"/>
</a>
</g>
</g>
<!-- Node3 -->
<g id="Node000003" class="node">
<title>Node3</title>
<g id="a_Node000003"><a xlink:href="downloadmanager_8cpp.html" target="_top" xlink:title=" ">
<polygon fill="white" stroke="#666666" points="324.19,-90.5 150.19,-90.5 150.19,-71.5 324.19,-71.5 324.19,-90.5"/>
<text text-anchor="middle" x="237.19" y="-78.5" font-family="Helvetica,sans-Serif" font-size="10.00">src/client/downloadmanager.cpp</text>
</a>
</g>
</g>
<!-- Node2&#45;&gt;Node3 -->
<g id="edge2_Node000002_Node000003" class="edge">
<title>Node2&#45;&gt;Node3</title>
<g id="a_edge2_Node000002_Node000003"><a xlink:title=" ">
<path fill="none" stroke="#63b8ff" d="M211,-128.55C217.86,-116.36 226.72,-100.61 232.18,-90.91"/>
<polygon fill="#63b8ff" stroke="#63b8ff" points="207.89,-126.94 206.04,-137.37 214,-130.37 207.89,-126.94"/>
</a>
</g>
</g>
<!-- Node4 -->
<g id="Node000004" class="node">
<title>Node4</title>
<g id="a_Node000004"><a xlink:href="file__io_8cpp.html" target="_top" xlink:title=" ">
<polygon fill="white" stroke="#666666" points="131.69,-90.5 18.69,-90.5 18.69,-71.5 131.69,-71.5 131.69,-90.5"/>
<text text-anchor="middle" x="75.19" y="-78.5" font-family="Helvetica,sans-Serif" font-size="10.00">src/client/file_io.cpp</text>
</a>
</g>
</g>
<!-- Node2&#45;&gt;Node4 -->
<g id="edge3_Node000002_Node000004" class="edge">
<title>Node2&#45;&gt;Node4</title>
<g id="a_edge3_Node000002_Node000004"><a xlink:title=" ">
<path fill="none" stroke="#63b8ff" d="M174.99,-132.69C150.17,-120.09 113.61,-101.51 92.31,-90.7"/>
<polygon fill="#63b8ff" stroke="#63b8ff" points="173.69,-135.96 184.19,-137.37 176.86,-129.72 173.69,-135.96"/>
</a>
</g>
</g>
<!-- Node5 -->
<g id="Node000005" class="node">
<title>Node5</title>
<g id="a_Node000005"><a xlink:href="process__input_8cpp.html" target="_top" xlink:title=" ">
<polygon fill="white" stroke="#666666" points="278.69,-30 177.69,-30 177.69,0 278.69,0 278.69,-30"/>
<text text-anchor="start" x="185.69" y="-18" font-family="Helvetica,sans-Serif" font-size="10.00">src/client/process</text>
<text text-anchor="middle" x="228.19" y="-7" font-family="Helvetica,sans-Serif" font-size="10.00">_input.cpp</text>
</a>
</g>
</g>
<!-- Node2&#45;&gt;Node5 -->
<g id="edge4_Node000002_Node000005" class="edge">
<title>Node2&#45;&gt;Node5</title>
<g id="a_edge4_Node000002_Node000005"><a xlink:title=" ">
<path fill="none" stroke="#63b8ff" d="M134.12,-140.82C64.79,-132.84 -28.42,-113.16 9.19,-66 29.85,-40.08 119.65,-26.54 177.65,-20.36"/>
<polygon fill="#63b8ff" stroke="#63b8ff" points="133.83,-144.31 144.15,-141.91 134.59,-137.35 133.83,-144.31"/>
</a>
</g>
</g>
<!-- Node6 -->
<g id="Node000006" class="node">
<title>Node6</title>
<g id="a_Node000006"><a xlink:href="client_2process__request_8cpp.html" target="_top" xlink:title=" ">
<polygon fill="white" stroke="#666666" points="443.69,-96 342.69,-96 342.69,-66 443.69,-66 443.69,-96"/>
<text text-anchor="start" x="350.69" y="-84" font-family="Helvetica,sans-Serif" font-size="10.00">src/client/process</text>
<text text-anchor="middle" x="393.19" y="-73" font-family="Helvetica,sans-Serif" font-size="10.00">_request.cpp</text>
</a>
</g>
</g>
<!-- Node2&#45;&gt;Node6 -->
<g id="edge5_Node000002_Node000006" class="edge">
<title>Node2&#45;&gt;Node6</title>
<g id="a_edge5_Node000002_Node000006"><a xlink:title=" ">
<path fill="none" stroke="#63b8ff" d="M236.98,-134.07C269.24,-123.31 316.71,-107.49 350.84,-96.12"/>
<polygon fill="#63b8ff" stroke="#63b8ff" points="235.46,-130.89 227.08,-137.37 237.68,-137.53 235.46,-130.89"/>
</a>
</g>
</g>
<!-- Node8 -->
<g id="Node000008" class="node">
<title>Node8</title>
<g id="a_Node000008"><a xlink:href="downloadmanager_8hpp.html" target="_top" xlink:title=" ">
<polygon fill="white" stroke="#666666" points="451.69,-156.5 276.69,-156.5 276.69,-137.5 451.69,-137.5 451.69,-156.5"/>
<text text-anchor="middle" x="364.19" y="-144.5" font-family="Helvetica,sans-Serif" font-size="10.00">src/client/downloadmanager.hpp</text>
</a>
</g>
</g>
<!-- Node7&#45;&gt;Node8 -->
<g id="edge7_Node000007_Node000008" class="edge">
<title>Node7&#45;&gt;Node8</title>
<g id="a_edge7_Node000007_Node000008"><a xlink:title=" ">
<path fill="none" stroke="#63b8ff" d="M487.86,-194.38C457.7,-183.07 413.48,-166.49 386.9,-156.52"/>
<polygon fill="#63b8ff" stroke="#63b8ff" points="486.91,-197.76 497.5,-197.99 489.37,-191.21 486.91,-197.76"/>
</a>
</g>
</g>
<!-- Node11 -->
<g id="Node000011" class="node">
<title>Node11</title>
<g id="a_Node000011"><a xlink:href="peerdb_8cpp.html" target="_top" xlink:title=" ">
<polygon fill="white" stroke="#666666" points="707.19,-156.5 589.19,-156.5 589.19,-137.5 707.19,-137.5 707.19,-156.5"/>
<text text-anchor="middle" x="648.19" y="-144.5" font-family="Helvetica,sans-Serif" font-size="10.00">src/client/peerdb.cpp</text>
</a>
</g>
</g>
<!-- Node7&#45;&gt;Node11 -->
<g id="edge12_Node000007_Node000011" class="edge">
<title>Node7&#45;&gt;Node11</title>
<g id="a_edge12_Node000007_Node000011"><a xlink:title=" ">
<path fill="none" stroke="#63b8ff" d="M548.01,-193.78C572.71,-182.49 608.12,-166.31 629.55,-156.52"/>
<polygon fill="#63b8ff" stroke="#63b8ff" points="546.44,-190.65 538.8,-197.99 549.35,-197.02 546.44,-190.65"/>
</a>
</g>
</g>
<!-- Node12 -->
<g id="Node000012" class="node">
<title>Node12</title>
<g id="a_Node000012"><a xlink:href="client_2process__request_8hpp.html" target="_top" xlink:title=" ">
<polygon fill="white" stroke="#666666" points="570.69,-162 469.69,-162 469.69,-132 570.69,-132 570.69,-162"/>
<text text-anchor="start" x="477.69" y="-150" font-family="Helvetica,sans-Serif" font-size="10.00">src/client/process</text>
<text text-anchor="middle" x="520.19" y="-139" font-family="Helvetica,sans-Serif" font-size="10.00">_request.hpp</text>
</a>
</g>
</g>
<!-- Node7&#45;&gt;Node12 -->
<g id="edge13_Node000007_Node000012" class="edge">
<title>Node7&#45;&gt;Node12</title>
<g id="a_edge13_Node000007_Node000012"><a xlink:title=" ">
<path fill="none" stroke="#63b8ff" d="M520.19,-187.65C520.19,-179.36 520.19,-169.78 520.19,-162.11"/>
<polygon fill="#63b8ff" stroke="#63b8ff" points="516.69,-187.87 520.19,-197.87 523.69,-187.87 516.69,-187.87"/>
</a>
</g>
</g>
<!-- Node8&#45;&gt;Node3 -->
<g id="edge8_Node000008_Node000003" class="edge">
<title>Node8&#45;&gt;Node3</title>
<g id="a_edge8_Node000008_Node000003"><a xlink:title=" ">
<path fill="none" stroke="#63b8ff" d="M338.12,-132.86C313.09,-120.25 276.01,-101.56 254.45,-90.7"/>
<polygon fill="#63b8ff" stroke="#63b8ff" points="336.55,-135.99 347.06,-137.37 339.7,-129.74 336.55,-135.99"/>
</a>
</g>
</g>
<!-- Node9 -->
<g id="Node000009" class="node">
<title>Node9</title>
<g id="a_Node000009"><a xlink:href="process__input_8hpp.html" target="_top" xlink:title=" ">
<polygon fill="white" stroke="#666666" points="562.69,-96 461.69,-96 461.69,-66 562.69,-66 562.69,-96"/>
<text text-anchor="start" x="469.69" y="-84" font-family="Helvetica,sans-Serif" font-size="10.00">src/client/process</text>
<text text-anchor="middle" x="512.19" y="-73" font-family="Helvetica,sans-Serif" font-size="10.00">_input.hpp</text>
</a>
</g>
</g>
<!-- Node8&#45;&gt;Node9 -->
<g id="edge9_Node000008_Node000009" class="edge">
<title>Node8&#45;&gt;Node9</title>
<g id="a_edge9_Node000008_Node000009"><a xlink:title=" ">
<path fill="none" stroke="#63b8ff" d="M393.41,-133.36C418.23,-122.63 453.8,-107.25 479.55,-96.12"/>
<polygon fill="#63b8ff" stroke="#63b8ff" points="391.94,-130.19 384.15,-137.37 394.72,-136.61 391.94,-130.19"/>
</a>
</g>
</g>
<!-- Node9&#45;&gt;Node5 -->
<g id="edge11_Node000009_Node000005" class="edge">
<title>Node9&#45;&gt;Node5</title>
<g id="a_edge11_Node000009_Node000005"><a xlink:title=" ">
<path fill="none" stroke="#63b8ff" d="M451.4,-65.83C386.13,-50.96 322.13,-36.73 278.93,-27.18"/>
<polygon fill="#63b8ff" stroke="#63b8ff" points="450.93,-69.31 461.46,-68.13 452.49,-62.49 450.93,-69.31"/>
</a>
</g>
</g>
<!-- Node10 -->
<g id="Node000010" class="node">
<title>Node10</title>
<g id="a_Node000010"><a xlink:href="client_8cpp.html" target="_top" xlink:title="The entrypoint to the client.">
<polygon fill="white" stroke="#666666" points="606.69,-24.5 495.69,-24.5 495.69,-5.5 606.69,-5.5 606.69,-24.5"/>
<text text-anchor="middle" x="551.19" y="-12.5" font-family="Helvetica,sans-Serif" font-size="10.00">src/client/client.cpp</text>
</a>
</g>
</g>
<!-- Node9&#45;&gt;Node10 -->
<g id="edge10_Node000009_Node000010" class="edge">
<title>Node9&#45;&gt;Node10</title>
<g id="a_edge10_Node000009_Node000010"><a xlink:title=" ">
<path fill="none" stroke="#63b8ff" d="M526.24,-56.95C533.02,-45.81 540.76,-33.11 545.8,-24.84"/>
<polygon fill="#63b8ff" stroke="#63b8ff" points="523.06,-55.44 520.84,-65.8 529.04,-59.08 523.06,-55.44"/>
</a>
</g>
</g>
<!-- Node12&#45;&gt;Node6 -->
<g id="edge15_Node000012_Node000006" class="edge">
<title>Node12&#45;&gt;Node6</title>
<g id="a_edge15_Node000012_Node000006"><a xlink:title=" ">
<path fill="none" stroke="#63b8ff" d="M483.23,-127.38C463.36,-117.36 439.26,-105.22 420.99,-96.01"/>
<polygon fill="#63b8ff" stroke="#63b8ff" points="481.81,-130.58 492.32,-131.95 484.96,-124.33 481.81,-130.58"/>
</a>
</g>
</g>
<!-- Node12&#45;&gt;Node10 -->
<g id="edge14_Node000012_Node000010" class="edge">
<title>Node12&#45;&gt;Node10</title>
<g id="a_edge14_Node000012_Node000010"><a xlink:title=" ">
<path fill="none" stroke="#63b8ff" d="M548.84,-125.42C557.73,-117.36 566.43,-107.32 571.19,-96 581.61,-71.19 565.94,-39.67 556.88,-24.68"/>
<polygon fill="#63b8ff" stroke="#63b8ff" points="546.46,-122.85 541.08,-131.97 550.98,-128.2 546.46,-122.85"/>
</a>
</g>
</g>
<!-- Node14 -->
<g id="Node000014" class="node">
<title>Node14</title>
<g id="a_Node000014"><a xlink:href="groupdb_8hpp.html" target="_top" xlink:title=" ">
<polygon fill="white" stroke="#666666" points="856.69,-156.5 725.69,-156.5 725.69,-137.5 856.69,-137.5 856.69,-156.5"/>
<text text-anchor="middle" x="791.19" y="-144.5" font-family="Helvetica,sans-Serif" font-size="10.00">src/tracker/groupdb.hpp</text>
</a>
</g>
</g>
<!-- Node13&#45;&gt;Node14 -->
<g id="edge17_Node000013_Node000014" class="edge">
<title>Node13&#45;&gt;Node14</title>
<g id="a_edge17_Node000013_Node000014"><a xlink:title=" ">
<path fill="none" stroke="#63b8ff" d="M742.42,-191.22C754.84,-180.21 771.16,-165.75 781.41,-156.67"/>
<polygon fill="#63b8ff" stroke="#63b8ff" points="740.09,-188.62 734.93,-197.87 744.73,-193.85 740.09,-188.62"/>
</a>
</g>
</g>
<!-- Node15 -->
<g id="Node000015" class="node">
<title>Node15</title>
<g id="a_Node000015"><a xlink:href="groupdb_8cpp.html" target="_top" xlink:title=" ">
<polygon fill="white" stroke="#666666" points="821.69,-90.5 690.69,-90.5 690.69,-71.5 821.69,-71.5 821.69,-90.5"/>
<text text-anchor="middle" x="756.19" y="-78.5" font-family="Helvetica,sans-Serif" font-size="10.00">src/tracker/groupdb.cpp</text>
</a>
</g>
</g>
<!-- Node14&#45;&gt;Node15 -->
<g id="edge18_Node000014_Node000015" class="edge">
<title>Node14&#45;&gt;Node15</title>
<g id="a_edge18_Node000014_Node000015"><a xlink:title=" ">
<path fill="none" stroke="#63b8ff" d="M781.64,-128.55C774.98,-116.36 766.36,-100.61 761.06,-90.91"/>
<polygon fill="#63b8ff" stroke="#63b8ff" points="778.6,-130.27 786.47,-137.37 784.74,-126.92 778.6,-130.27"/>
</a>
</g>
</g>
<!-- Node16 -->
<g id="Node000016" class="node">
<title>Node16</title>
<g id="a_Node000016"><a xlink:href="tracker_2process__request_8cpp.html" target="_top" xlink:title=" ">
<polygon fill="white" stroke="#666666" points="948.19,-96 840.19,-96 840.19,-66 948.19,-66 948.19,-96"/>
<text text-anchor="start" x="848.19" y="-84" font-family="Helvetica,sans-Serif" font-size="10.00">src/tracker/process</text>
<text text-anchor="middle" x="894.19" y="-73" font-family="Helvetica,sans-Serif" font-size="10.00">_request.cpp</text>
</a>
</g>
</g>
<!-- Node14&#45;&gt;Node16 -->
<g id="edge19_Node000014_Node000016" class="edge">
<title>Node14&#45;&gt;Node16</title>
<g id="a_edge19_Node000014_Node000016"><a xlink:title=" ">
<path fill="none" stroke="#63b8ff" d="M813.86,-131.91C830.97,-121.28 854.35,-106.75 871.47,-96.12"/>
<polygon fill="#63b8ff" stroke="#63b8ff" points="811.73,-129.12 805.08,-137.37 815.42,-135.06 811.73,-129.12"/>
</a>
</g>
</g>
</g>
</svg>
