<?xml version="1.0" encoding="UTF-8" standalone="no"?>
<!DOCTYPE svg PUBLIC "-//W3C//DTD SVG 1.1//EN"
 "http://www.w3.org/Graphics/SVG/1.1/DTD/svg11.dtd">
<!-- Generated by graphviz version 2.43.0 (0)
 -->
<!-- Title: src/client/file_id.hpp Pages: 1 -->
<svg width="844pt" height="280pt"
 viewBox="0.00 0.00 844.00 280.00" xmlns="http://www.w3.org/2000/svg" xmlns:xlink="http://www.w3.org/1999/xlink">
<g id="graph0" class="graph" transform="scale(1 1) rotate(0) translate(4 276)">
<title>src/client/file_id.hpp</title>
<!-- Node1 -->
<g id="Node000001" class="node">
<title>Node1</title>
<g id="a_Node000001"><a xlink:title=" ">
<polygon fill="#999999" stroke="#666666" points="533,-272 419,-272 419,-253 533,-253 533,-272"/>
<text text-anchor="middle" x="476" y="-260" font-family="Helvetica,sans-Serif" font-size="10.00">src/client/file_id.hpp</text>
</a>
</g>
</g>
<!-- Node2 -->
<g id="Node000002" class="node">
<title>Node2</title>
<g id="a_Node000002"><a xlink:href="filesdb_8hpp.html" target="_top" xlink:title=" ">
<polygon fill="white" stroke="#666666" points="456.5,-217 339.5,-217 339.5,-198 456.5,-198 456.5,-217"/>
<text text-anchor="middle" x="398" y="-205" font-family="Helvetica,sans-Serif" font-size="10.00">src/client/filesdb.hpp</text>
</a>
</g>
</g>
<!-- Node1&#45;&gt;Node2 -->
<g id="edge1_Node000001_Node000002" class="edge">
<title>Node1&#45;&gt;Node2</title>
<g id="a_edge1_Node000001_Node000002"><a xlink:title=" ">
<path fill="none" stroke="#63b8ff" d="M454.88,-247.15C440.79,-237.57 422.71,-225.29 410.76,-217.17"/>
<polygon fill="#63b8ff" stroke="#63b8ff" points="453.23,-250.26 463.47,-252.98 457.16,-244.47 453.23,-250.26"/>
</a>
</g>
</g>
<!-- Node11 -->
<g id="Node000011" class="node">
<title>Node11</title>
<g id="a_Node000011"><a xlink:href="peerdb_8hpp.html" target="_top" xlink:title=" ">
<polygon fill="white" stroke="#666666" points="632.5,-217 513.5,-217 513.5,-198 632.5,-198 632.5,-217"/>
<text text-anchor="middle" x="573" y="-205" font-family="Helvetica,sans-Serif" font-size="10.00">src/client/peerdb.hpp</text>
</a>
</g>
</g>
<!-- Node1&#45;&gt;Node11 -->
<g id="edge13_Node000001_Node000011" class="edge">
<title>Node1&#45;&gt;Node11</title>
<g id="a_edge13_Node000001_Node000011"><a xlink:title=" ">
<path fill="none" stroke="#63b8ff" d="M500.77,-247.97C518.5,-238.28 541.85,-225.52 557.13,-217.17"/>
<polygon fill="#63b8ff" stroke="#63b8ff" points="498.68,-245.12 491.58,-252.98 502.04,-251.26 498.68,-245.12"/>
</a>
</g>
</g>
<!-- Node3 -->
<g id="Node000003" class="node">
<title>Node3</title>
<g id="a_Node000003"><a xlink:href="client_8cpp.html" target="_top" xlink:title="The entrypoint to the client.">
<polygon fill="white" stroke="#666666" points="549.5,-24.5 438.5,-24.5 438.5,-5.5 549.5,-5.5 549.5,-24.5"/>
<text text-anchor="middle" x="494" y="-12.5" font-family="Helvetica,sans-Serif" font-size="10.00">src/client/client.cpp</text>
</a>
</g>
</g>
<!-- Node2&#45;&gt;Node3 -->
<g id="edge2_Node000002_Node000003" class="edge">
<title>Node2&#45;&gt;Node3</title>
<g id="a_edge2_Node000002_Node000003"><a xlink:title=" ">
<path fill="none" stroke="#63b8ff" d="M342.15,-195.8C255.73,-176.88 105.3,-133.07 163,-66 180.7,-45.43 348.72,-28.26 438.33,-20.48"/>
<polygon fill="#63b8ff" stroke="#63b8ff" points="341.58,-199.26 352.09,-197.93 343.05,-192.42 341.58,-199.26"/>
</a>
</g>
</g>
<!-- Node4 -->
<g id="Node000004" class="node">
<title>Node4</title>
<g id="a_Node000004"><a xlink:href="downloadmanager_8hpp.html" target="_top" xlink:title=" ">
<polygon fill="white" stroke="#666666" points="485.5,-156.5 310.5,-156.5 310.5,-137.5 485.5,-137.5 485.5,-156.5"/>
<text text-anchor="middle" x="398" y="-144.5" font-family="Helvetica,sans-Serif" font-size="10.00">src/client/downloadmanager.hpp</text>
</a>
</g>
</g>
<!-- Node2&#45;&gt;Node4 -->
<g id="edge3_Node000002_Node000004" class="edge">
<title>Node2&#45;&gt;Node4</title>
<g id="a_edge3_Node000002_Node000004"><a xlink:title=" ">
<path fill="none" stroke="#63b8ff" d="M398,-187.66C398,-177.24 398,-164.8 398,-156.67"/>
<polygon fill="#63b8ff" stroke="#63b8ff" points="394.5,-187.87 398,-197.87 401.5,-187.87 394.5,-187.87"/>
</a>
</g>
</g>
<!-- Node8 -->
<g id="Node000008" class="node">
<title>Node8</title>
<g id="a_Node000008"><a xlink:href="filesdb_8cpp.html" target="_top" xlink:title=" ">
<polygon fill="white" stroke="#666666" points="116,-156.5 0,-156.5 0,-137.5 116,-137.5 116,-156.5"/>
<text text-anchor="middle" x="58" y="-144.5" font-family="Helvetica,sans-Serif" font-size="10.00">src/client/filesdb.cpp</text>
</a>
</g>
</g>
<!-- Node2&#45;&gt;Node8 -->
<g id="edge9_Node000002_Node000008" class="edge">
<title>Node2&#45;&gt;Node8</title>
<g id="a_edge9_Node000002_Node000008"><a xlink:title=" ">
<path fill="none" stroke="#63b8ff" d="M333.85,-196.36C279.5,-187.64 199.55,-174.53 130,-162 120.6,-160.31 110.53,-158.4 100.99,-156.56"/>
<polygon fill="#63b8ff" stroke="#63b8ff" points="333.6,-199.86 344.03,-197.98 334.7,-192.95 333.6,-199.86"/>
</a>
</g>
</g>
<!-- Node9 -->
<g id="Node000009" class="node">
<title>Node9</title>
<g id="a_Node000009"><a xlink:href="client_2process__request_8hpp.html" target="_top" xlink:title=" ">
<polygon fill="white" stroke="#666666" points="623.5,-162 522.5,-162 522.5,-132 623.5,-132 623.5,-162"/>
<text text-anchor="start" x="530.5" y="-150" font-family="Helvetica,sans-Serif" font-size="10.00">src/client/process</text>
<text text-anchor="middle" x="573" y="-139" font-family="Helvetica,sans-Serif" font-size="10.00">_request.hpp</text>
</a>
</g>
</g>
<!-- Node2&#45;&gt;Node9 -->
<g id="edge10_Node000002_Node000009" class="edge">
<title>Node2&#45;&gt;Node9</title>
<g id="a_edge10_Node000002_Node000009"><a xlink:title=" ">
<path fill="none" stroke="#63b8ff" d="M433.28,-194.71C461.48,-185.28 501.08,-172.04 530.93,-162.06"/>
<polygon fill="#63b8ff" stroke="#63b8ff" points="431.82,-191.5 423.45,-197.99 434.04,-198.14 431.82,-191.5"/>
</a>
</g>
</g>
<!-- Node4&#45;&gt;Node3 -->
<g id="edge4_Node000004_Node000003" class="edge">
<title>Node4&#45;&gt;Node3</title>
<g id="a_edge4_Node000004_Node000003"><a xlink:title=" ">
<path fill="none" stroke="#63b8ff" d="M428.68,-132.99C444.78,-124.66 463.48,-112.34 475,-96 490.71,-73.71 493.55,-40.15 493.99,-24.54"/>
<polygon fill="#63b8ff" stroke="#63b8ff" points="427.04,-129.9 419.59,-137.43 430.11,-136.19 427.04,-129.9"/>
</a>
</g>
</g>
<!-- Node5 -->
<g id="Node000005" class="node">
<title>Node5</title>
<g id="a_Node000005"><a xlink:href="downloadmanager_8cpp.html" target="_top" xlink:title=" ">
<polygon fill="white" stroke="#666666" points="466,-90.5 292,-90.5 292,-71.5 466,-71.5 466,-90.5"/>
<text text-anchor="middle" x="379" y="-78.5" font-family="Helvetica,sans-Serif" font-size="10.00">src/client/downloadmanager.cpp</text>
</a>
</g>
</g>
<!-- Node4&#45;&gt;Node5 -->
<g id="edge5_Node000004_Node000005" class="edge">
<title>Node4&#45;&gt;Node5</title>
<g id="a_edge5_Node000004_Node000005"><a xlink:title=" ">
<path fill="none" stroke="#63b8ff" d="M392.49,-127.45C388.93,-115.43 384.44,-100.32 381.64,-90.91"/>
<polygon fill="#63b8ff" stroke="#63b8ff" points="389.24,-128.78 395.44,-137.37 395.95,-126.79 389.24,-128.78"/>
</a>
</g>
</g>
<!-- Node6 -->
<g id="Node000006" class="node">
<title>Node6</title>
<g id="a_Node000006"><a xlink:href="process__input_8hpp.html" target="_top" xlink:title=" ">
<polygon fill="white" stroke="#666666" points="273.5,-96 172.5,-96 172.5,-66 273.5,-66 273.5,-96"/>
<text text-anchor="start" x="180.5" y="-84" font-family="Helvetica,sans-Serif" font-size="10.00">src/client/process</text>
<text text-anchor="middle" x="223" y="-73" font-family="Helvetica,sans-Serif" font-size="10.00">_input.hpp</text>
</a>
</g>
</g>
<!-- Node4&#45;&gt;Node6 -->
<g id="edge6_Node000004_Node000006" class="edge">
<title>Node4&#45;&gt;Node6</title>
<g id="a_edge6_Node000004_Node000006"><a xlink:title=" ">
<path fill="none" stroke="#63b8ff" d="M364.99,-133.93C335.6,-123.18 292.57,-107.44 261.6,-96.12"/>
<polygon fill="#63b8ff" stroke="#63b8ff" points="363.8,-137.22 374.4,-137.37 366.21,-130.65 363.8,-137.22"/>
</a>
</g>
</g>
<!-- Node6&#45;&gt;Node3 -->
<g id="edge7_Node000006_Node000003" class="edge">
<title>Node6&#45;&gt;Node3</title>
<g id="a_edge7_Node000006_Node000003"><a xlink:title=" ">
<path fill="none" stroke="#63b8ff" d="M283.71,-65.66C337.23,-53.02 413.42,-35.03 457.89,-24.53"/>
<polygon fill="#63b8ff" stroke="#63b8ff" points="282.58,-62.33 273.66,-68.04 284.19,-69.14 282.58,-62.33"/>
</a>
</g>
</g>
<!-- Node7 -->
<g id="Node000007" class="node">
<title>Node7</title>
<g id="a_Node000007"><a xlink:href="process__input_8cpp.html" target="_top" xlink:title=" ">
<polygon fill="white" stroke="#666666" points="273.5,-30 172.5,-30 172.5,0 273.5,0 273.5,-30"/>
<text text-anchor="start" x="180.5" y="-18" font-family="Helvetica,sans-Serif" font-size="10.00">src/client/process</text>
<text text-anchor="middle" x="223" y="-7" font-family="Helvetica,sans-Serif" font-size="10.00">_input.cpp</text>
</a>
</g>
</g>
<!-- Node6&#45;&gt;Node7 -->
<g id="edge8_Node000006_Node000007" class="edge">
<title>Node6&#45;&gt;Node7</title>
<g id="a_edge8_Node000006_Node000007"><a xlink:title=" ">
<path fill="none" stroke="#63b8ff" d="M223,-55.54C223,-46.96 223,-37.61 223,-30.16"/>
<polygon fill="#63b8ff" stroke="#63b8ff" points="219.5,-55.8 223,-65.8 226.5,-55.8 219.5,-55.8"/>
</a>
</g>
</g>
<!-- Node9&#45;&gt;Node3 -->
<g id="edge11_Node000009_Node000003" class="edge">
<title>Node9&#45;&gt;Node3</title>
<g id="a_edge11_Node000009_Node000003"><a xlink:title=" ">
<path fill="none" stroke="#63b8ff" d="M604.93,-125.76C626.11,-109.73 647.54,-86.69 633,-66 614.19,-39.25 579.64,-26.74 549.69,-20.93"/>
<polygon fill="#63b8ff" stroke="#63b8ff" points="602.68,-123.07 596.6,-131.74 606.76,-128.75 602.68,-123.07"/>
</a>
</g>
</g>
<!-- Node10 -->
<g id="Node000010" class="node">
<title>Node10</title>
<g id="a_Node000010"><a xlink:href="client_2process__request_8cpp.html" target="_top" xlink:title=" ">
<polygon fill="white" stroke="#666666" points="623.5,-96 522.5,-96 522.5,-66 623.5,-66 623.5,-96"/>
<text text-anchor="start" x="530.5" y="-84" font-family="Helvetica,sans-Serif" font-size="10.00">src/client/process</text>
<text text-anchor="middle" x="573" y="-73" font-family="Helvetica,sans-Serif" font-size="10.00">_request.cpp</text>
</a>
</g>
</g>
<!-- Node9&#45;&gt;Node10 -->
<g id="edge12_Node000009_Node000010" class="edge">
<title>Node9&#45;&gt;Node10</title>
<g id="a_edge12_Node000009_Node000010"><a xlink:title=" ">
<path fill="none" stroke="#63b8ff" d="M573,-121.54C573,-112.96 573,-103.61 573,-96.16"/>
<polygon fill="#63b8ff" stroke="#63b8ff" points="569.5,-121.8 573,-131.8 576.5,-121.8 569.5,-121.8"/>
</a>
</g>
</g>
<!-- Node11&#45;&gt;Node3 -->
<g id="edge14_Node000011_Node000003" class="edge">
<title>Node11&#45;&gt;Node3</title>
<g id="a_edge14_Node000011_Node000003"><a xlink:title=" ">
<path fill="none" stroke="#63b8ff" d="M599.16,-192.76C611.15,-185.2 624.55,-174.75 633,-162 656.89,-125.94 674.46,-100.97 649,-66 626.45,-35.03 584.34,-22.84 549.71,-18.22"/>
<polygon fill="#63b8ff" stroke="#63b8ff" points="597.18,-189.86 590.36,-197.97 600.75,-195.88 597.18,-189.86"/>
</a>
</g>
</g>
<!-- Node11&#45;&gt;Node4 -->
<g id="edge15_Node000011_Node000004" class="edge">
<title>Node11&#45;&gt;Node4</title>
<g id="a_edge15_Node000011_Node000004"><a xlink:title=" ">
<path fill="none" stroke="#63b8ff" d="M538.05,-194.82C504.2,-183.5 453.69,-166.62 423.48,-156.52"/>
<polygon fill="#63b8ff" stroke="#63b8ff" points="536.96,-198.14 547.55,-197.99 539.18,-191.5 536.96,-198.14"/>
</a>
</g>
</g>
<!-- Node11&#45;&gt;Node9 -->
<g id="edge17_Node000011_Node000009" class="edge">
<title>Node11&#45;&gt;Node9</title>
<g id="a_edge17_Node000011_Node000009"><a xlink:title=" ">
<path fill="none" stroke="#63b8ff" d="M573,-187.65C573,-179.36 573,-169.78 573,-162.11"/>
<polygon fill="#63b8ff" stroke="#63b8ff" points="569.5,-187.87 573,-197.87 576.5,-187.87 569.5,-187.87"/>
</a>
</g>
</g>
<!-- Node12 -->
<g id="Node000012" class="node">
<title>Node12</title>
<g id="a_Node000012"><a xlink:href="peerdb_8cpp.html" target="_top" xlink:title=" ">
<polygon fill="white" stroke="#666666" points="836,-156.5 718,-156.5 718,-137.5 836,-137.5 836,-156.5"/>
<text text-anchor="middle" x="777" y="-144.5" font-family="Helvetica,sans-Serif" font-size="10.00">src/client/peerdb.cpp</text>
</a>
</g>
</g>
<!-- Node11&#45;&gt;Node12 -->
<g id="edge16_Node000011_Node000012" class="edge">
<title>Node11&#45;&gt;Node12</title>
<g id="a_edge16_Node000011_Node000012"><a xlink:title=" ">
<path fill="none" stroke="#63b8ff" d="M612.48,-195.18C651.93,-183.87 711.7,-166.72 747.3,-156.52"/>
<polygon fill="#63b8ff" stroke="#63b8ff" points="611.31,-191.87 602.66,-197.99 613.24,-198.6 611.31,-191.87"/>
</a>
</g>
</g>
</g>
</svg>
