<?xml version="1.0" encoding="UTF-8" standalone="no"?>
<!DOCTYPE svg PUBLIC "-//W3C//DTD SVG 1.1//EN"
 "http://www.w3.org/Graphics/SVG/1.1/DTD/svg11.dtd">
<!-- Generated by graphviz version 2.43.0 (0)
 -->
<!-- Title: src/models/fileinfo.hpp Pages: 1 -->
<svg width="969pt" height="335pt"
 viewBox="0.00 0.00 969.20 335.00" xmlns="http://www.w3.org/2000/svg" xmlns:xlink="http://www.w3.org/1999/xlink">
<g id="graph0" class="graph" transform="scale(1 1) rotate(0) translate(4 331)">
<title>src/models/fileinfo.hpp</title>
<!-- Node1 -->
<g id="Node000001" class="node">
<title>Node1</title>
<g id="a_Node000001"><a xlink:title=" ">
<polygon fill="#999999" stroke="#666666" points="629.28,-327 501.28,-327 501.28,-308 629.28,-308 629.28,-327"/>
<text text-anchor="middle" x="565.28" y="-315" font-family="Helvetica,sans-Serif" font-size="10.00">src/models/fileinfo.hpp</text>
</a>
</g>
</g>
<!-- Node2 -->
<g id="Node000002" class="node">
<title>Node2</title>
<g id="a_Node000002"><a xlink:href="downloadmanager_8hpp.html" target="_top" xlink:title=" ">
<polygon fill="white" stroke="#666666" points="442.78,-156.5 267.78,-156.5 267.78,-137.5 442.78,-137.5 442.78,-156.5"/>
<text text-anchor="middle" x="355.28" y="-144.5" font-family="Helvetica,sans-Serif" font-size="10.00">src/client/downloadmanager.hpp</text>
</a>
</g>
</g>
<!-- Node1&#45;&gt;Node2 -->
<g id="edge1_Node000001_Node000002" class="edge">
<title>Node1&#45;&gt;Node2</title>
<g id="a_edge1_Node000001_Node000002"><a xlink:title=" ">
<path fill="none" stroke="#63b8ff" d="M546.65,-301.55C503.86,-267.22 399.63,-183.59 365.96,-156.57"/>
<polygon fill="#63b8ff" stroke="#63b8ff" points="544.59,-304.38 554.58,-307.91 548.97,-298.92 544.59,-304.38"/>
</a>
</g>
</g>
<!-- Node6 -->
<g id="Node000006" class="node">
<title>Node6</title>
<g id="a_Node000006"><a xlink:href="process__input_8cpp.html" target="_top" xlink:title=" ">
<polygon fill="white" stroke="#666666" points="695.78,-30 594.78,-30 594.78,0 695.78,0 695.78,-30"/>
<text text-anchor="start" x="602.78" y="-18" font-family="Helvetica,sans-Serif" font-size="10.00">src/client/process</text>
<text text-anchor="middle" x="645.28" y="-7" font-family="Helvetica,sans-Serif" font-size="10.00">_input.cpp</text>
</a>
</g>
</g>
<!-- Node1&#45;&gt;Node6 -->
<g id="edge22_Node000001_Node000006" class="edge">
<title>Node1&#45;&gt;Node6</title>
<g id="a_edge22_Node000001_Node000006"><a xlink:title=" ">
<path fill="none" stroke="#63b8ff" d="M639.54,-311.31C753.7,-301.27 959.28,-274.08 959.28,-208.5 959.28,-208.5 959.28,-208.5 959.28,-146 959.28,-109.46 966.95,-90.98 940.28,-66 905.73,-33.64 770.86,-22.01 696.02,-18"/>
<polygon fill="#63b8ff" stroke="#63b8ff" points="639.12,-307.83 629.46,-312.18 639.72,-314.81 639.12,-307.83"/>
</a>
</g>
</g>
<!-- Node7 -->
<g id="Node000007" class="node">
<title>Node7</title>
<g id="a_Node000007"><a xlink:href="partfile_8hpp.html" target="_top" xlink:title=" ">
<polygon fill="white" stroke="#666666" points="345.78,-272 226.78,-272 226.78,-253 345.78,-253 345.78,-272"/>
<text text-anchor="middle" x="286.28" y="-260" font-family="Helvetica,sans-Serif" font-size="10.00">src/client/partfile.hpp</text>
</a>
</g>
</g>
<!-- Node1&#45;&gt;Node7 -->
<g id="edge7_Node000001_Node000007" class="edge">
<title>Node1&#45;&gt;Node7</title>
<g id="a_edge7_Node000001_Node000007"><a xlink:title=" ">
<path fill="none" stroke="#63b8ff" d="M510.35,-306.07C458.04,-296.13 380.26,-281.35 331.46,-272.08"/>
<polygon fill="#63b8ff" stroke="#63b8ff" points="509.98,-309.56 520.45,-307.98 511.28,-302.68 509.98,-309.56"/>
</a>
</g>
</g>
<!-- Node13 -->
<g id="Node000013" class="node">
<title>Node13</title>
<g id="a_Node000013"><a xlink:href="peerdb_8hpp.html" target="_top" xlink:title=" ">
<polygon fill="white" stroke="#666666" points="578.78,-217 459.78,-217 459.78,-198 578.78,-198 578.78,-217"/>
<text text-anchor="middle" x="519.28" y="-205" font-family="Helvetica,sans-Serif" font-size="10.00">src/client/peerdb.hpp</text>
</a>
</g>
</g>
<!-- Node1&#45;&gt;Node13 -->
<g id="edge17_Node000001_Node000013" class="edge">
<title>Node1&#45;&gt;Node13</title>
<g id="a_edge17_Node000001_Node000013"><a xlink:title=" ">
<path fill="none" stroke="#63b8ff" d="M555.94,-298.61C551.86,-290.56 547.15,-280.89 543.28,-272 534.91,-252.76 526.58,-229.58 522.28,-217.24"/>
<polygon fill="#63b8ff" stroke="#63b8ff" points="552.95,-300.46 560.64,-307.75 559.18,-297.26 552.95,-300.46"/>
</a>
</g>
</g>
<!-- Node15 -->
<g id="Node000015" class="node">
<title>Node15</title>
<g id="a_Node000015"><a xlink:href="file_8hpp.html" target="_top" xlink:title=" ">
<polygon fill="white" stroke="#666666" points="661.78,-272 552.78,-272 552.78,-253 661.78,-253 661.78,-272"/>
<text text-anchor="middle" x="607.28" y="-260" font-family="Helvetica,sans-Serif" font-size="10.00">src/models/file.hpp</text>
</a>
</g>
</g>
<!-- Node1&#45;&gt;Node15 -->
<g id="edge23_Node000001_Node000015" class="edge">
<title>Node1&#45;&gt;Node15</title>
<g id="a_edge23_Node000001_Node000015"><a xlink:title=" ">
<path fill="none" stroke="#63b8ff" d="M578.61,-299.67C585.89,-290.5 594.58,-279.52 600.47,-272.09"/>
<polygon fill="#63b8ff" stroke="#63b8ff" points="575.68,-297.74 572.22,-307.75 581.17,-302.08 575.68,-297.74"/>
</a>
</g>
</g>
<!-- Node16 -->
<g id="Node000016" class="node">
<title>Node16</title>
<g id="a_Node000016"><a xlink:href="group_8hpp.html" target="_top" xlink:title=" ">
<polygon fill="white" stroke="#666666" points="795.28,-217 673.28,-217 673.28,-198 795.28,-198 795.28,-217"/>
<text text-anchor="middle" x="734.28" y="-205" font-family="Helvetica,sans-Serif" font-size="10.00">src/models/group.hpp</text>
</a>
</g>
</g>
<!-- Node1&#45;&gt;Node16 -->
<g id="edge31_Node000001_Node000016" class="edge">
<title>Node1&#45;&gt;Node16</title>
<g id="a_edge31_Node000001_Node000016"><a xlink:title=" ">
<path fill="none" stroke="#63b8ff" d="M602.54,-304.65C623.44,-297.06 649.42,-286 670.28,-272 693.93,-256.12 716.3,-230.73 727.26,-217.37"/>
<polygon fill="#63b8ff" stroke="#63b8ff" points="601.31,-301.37 593.03,-307.99 603.63,-307.97 601.31,-301.37"/>
</a>
</g>
</g>
<!-- Node3 -->
<g id="Node000003" class="node">
<title>Node3</title>
<g id="a_Node000003"><a xlink:href="client_8cpp.html" target="_top" xlink:title="The entrypoint to the client.">
<polygon fill="white" stroke="#666666" points="312.78,-24.5 201.78,-24.5 201.78,-5.5 312.78,-5.5 312.78,-24.5"/>
<text text-anchor="middle" x="257.28" y="-12.5" font-family="Helvetica,sans-Serif" font-size="10.00">src/client/client.cpp</text>
</a>
</g>
</g>
<!-- Node2&#45;&gt;Node3 -->
<g id="edge2_Node000002_Node000003" class="edge">
<title>Node2&#45;&gt;Node3</title>
<g id="a_edge2_Node000002_Node000003"><a xlink:title=" ">
<path fill="none" stroke="#63b8ff" d="M323.47,-133.01C307.04,-124.74 288.02,-112.46 276.28,-96 260.44,-73.81 257.66,-40.2 257.27,-24.56"/>
<polygon fill="#63b8ff" stroke="#63b8ff" points="322.24,-136.29 332.78,-137.41 325.24,-129.97 322.24,-136.29"/>
</a>
</g>
</g>
<!-- Node4 -->
<g id="Node000004" class="node">
<title>Node4</title>
<g id="a_Node000004"><a xlink:href="downloadmanager_8cpp.html" target="_top" xlink:title=" ">
<polygon fill="white" stroke="#666666" points="579.28,-90.5 405.28,-90.5 405.28,-71.5 579.28,-71.5 579.28,-90.5"/>
<text text-anchor="middle" x="492.28" y="-78.5" font-family="Helvetica,sans-Serif" font-size="10.00">src/client/downloadmanager.cpp</text>
</a>
</g>
</g>
<!-- Node2&#45;&gt;Node4 -->
<g id="edge3_Node000002_Node000004" class="edge">
<title>Node2&#45;&gt;Node4</title>
<g id="a_edge3_Node000002_Node000004"><a xlink:title=" ">
<path fill="none" stroke="#63b8ff" d="M383.05,-133.03C410.05,-120.42 450.3,-101.61 473.66,-90.7"/>
<polygon fill="#63b8ff" stroke="#63b8ff" points="381.34,-129.97 373.76,-137.37 384.3,-136.31 381.34,-129.97"/>
</a>
</g>
</g>
<!-- Node5 -->
<g id="Node000005" class="node">
<title>Node5</title>
<g id="a_Node000005"><a xlink:href="process__input_8hpp.html" target="_top" xlink:title=" ">
<polygon fill="white" stroke="#666666" points="386.78,-96 285.78,-96 285.78,-66 386.78,-66 386.78,-96"/>
<text text-anchor="start" x="293.78" y="-84" font-family="Helvetica,sans-Serif" font-size="10.00">src/client/process</text>
<text text-anchor="middle" x="336.28" y="-73" font-family="Helvetica,sans-Serif" font-size="10.00">_input.hpp</text>
</a>
</g>
</g>
<!-- Node2&#45;&gt;Node5 -->
<g id="edge4_Node000002_Node000005" class="edge">
<title>Node2&#45;&gt;Node5</title>
<g id="a_edge4_Node000002_Node000005"><a xlink:title=" ">
<path fill="none" stroke="#63b8ff" d="M349.84,-127.67C346.89,-117.72 343.29,-105.61 340.54,-96.36"/>
<polygon fill="#63b8ff" stroke="#63b8ff" points="346.52,-128.78 352.72,-137.37 353.23,-126.79 346.52,-128.78"/>
</a>
</g>
</g>
<!-- Node5&#45;&gt;Node3 -->
<g id="edge5_Node000005_Node000003" class="edge">
<title>Node5&#45;&gt;Node3</title>
<g id="a_edge5_Node000005_Node000003"><a xlink:title=" ">
<path fill="none" stroke="#63b8ff" d="M310.68,-59.26C296.3,-47.61 279.11,-33.69 268.2,-24.84"/>
<polygon fill="#63b8ff" stroke="#63b8ff" points="308.77,-62.22 318.75,-65.8 313.18,-56.78 308.77,-62.22"/>
</a>
</g>
</g>
<!-- Node5&#45;&gt;Node6 -->
<g id="edge6_Node000005_Node000006" class="edge">
<title>Node5&#45;&gt;Node6</title>
<g id="a_edge6_Node000005_Node000006"><a xlink:title=" ">
<path fill="none" stroke="#63b8ff" d="M397.03,-65.88C471.57,-49.79 546.42,-35.03 594.63,-25.69"/>
<polygon fill="#63b8ff" stroke="#63b8ff" points="396.03,-62.51 386.99,-68.05 397.51,-69.35 396.03,-62.51"/>
</a>
</g>
</g>
<!-- Node7&#45;&gt;Node2 -->
<g id="edge8_Node000007_Node000002" class="edge">
<title>Node7&#45;&gt;Node2</title>
<g id="a_edge8_Node000007_Node000002"><a xlink:title=" ">
<path fill="none" stroke="#63b8ff" d="M312.25,-247.7C323.88,-240.17 336.67,-229.77 344.28,-217 355.7,-197.82 356.39,-170.57 355.87,-156.75"/>
<polygon fill="#63b8ff" stroke="#63b8ff" points="310.42,-244.71 303.68,-252.89 314.05,-250.7 310.42,-244.71"/>
</a>
</g>
</g>
<!-- Node8 -->
<g id="Node000008" class="node">
<title>Node8</title>
<g id="a_Node000008"><a xlink:href="filesdb_8hpp.html" target="_top" xlink:title=" ">
<polygon fill="white" stroke="#666666" points="198.78,-217 81.78,-217 81.78,-198 198.78,-198 198.78,-217"/>
<text text-anchor="middle" x="140.28" y="-205" font-family="Helvetica,sans-Serif" font-size="10.00">src/client/filesdb.hpp</text>
</a>
</g>
</g>
<!-- Node7&#45;&gt;Node8 -->
<g id="edge9_Node000007_Node000008" class="edge">
<title>Node7&#45;&gt;Node8</title>
<g id="a_edge9_Node000007_Node000008"><a xlink:title=" ">
<path fill="none" stroke="#63b8ff" d="M253.36,-249.55C226.25,-239.71 188.45,-225.98 164.16,-217.17"/>
<polygon fill="#63b8ff" stroke="#63b8ff" points="252.23,-252.86 262.82,-252.98 254.62,-246.28 252.23,-252.86"/>
</a>
</g>
</g>
<!-- Node12 -->
<g id="Node000012" class="node">
<title>Node12</title>
<g id="a_Node000012"><a xlink:href="partfile_8cpp.html" target="_top" xlink:title=" ">
<polygon fill="white" stroke="#666666" points="335.78,-217 216.78,-217 216.78,-198 335.78,-198 335.78,-217"/>
<text text-anchor="middle" x="276.28" y="-205" font-family="Helvetica,sans-Serif" font-size="10.00">src/client/partfile.cpp</text>
</a>
</g>
</g>
<!-- Node7&#45;&gt;Node12 -->
<g id="edge16_Node000007_Node000012" class="edge">
<title>Node7&#45;&gt;Node12</title>
<g id="a_edge16_Node000007_Node000012"><a xlink:title=" ">
<path fill="none" stroke="#63b8ff" d="M282.73,-242.66C281.08,-233.93 279.2,-223.99 277.9,-217.09"/>
<polygon fill="#63b8ff" stroke="#63b8ff" points="279.34,-243.57 284.63,-252.75 286.21,-242.27 279.34,-243.57"/>
</a>
</g>
</g>
<!-- Node8&#45;&gt;Node2 -->
<g id="edge11_Node000008_Node000002" class="edge">
<title>Node8&#45;&gt;Node2</title>
<g id="a_edge11_Node000008_Node000002"><a xlink:title=" ">
<path fill="none" stroke="#63b8ff" d="M181.36,-195.32C222.93,-184.01 286.3,-166.77 323.98,-156.52"/>
<polygon fill="#63b8ff" stroke="#63b8ff" points="180.27,-191.99 171.54,-197.99 182.11,-198.75 180.27,-191.99"/>
</a>
</g>
</g>
<!-- Node8&#45;&gt;Node3 -->
<g id="edge10_Node000008_Node000003" class="edge">
<title>Node8&#45;&gt;Node3</title>
<g id="a_edge10_Node000008_Node000003"><a xlink:title=" ">
<path fill="none" stroke="#63b8ff" d="M71.61,-200.46C46.58,-194.55 20.67,-183.27 5.28,-162 -2.53,-151.2 -0.21,-144.15 5.28,-132 38.86,-57.72 138.19,-30.96 201.65,-21.35"/>
<polygon fill="#63b8ff" stroke="#63b8ff" points="71,-203.91 81.5,-202.55 72.44,-197.06 71,-203.91"/>
</a>
</g>
</g>
<!-- Node9 -->
<g id="Node000009" class="node">
<title>Node9</title>
<g id="a_Node000009"><a xlink:href="filesdb_8cpp.html" target="_top" xlink:title=" ">
<polygon fill="white" stroke="#666666" points="130.28,-156.5 14.28,-156.5 14.28,-137.5 130.28,-137.5 130.28,-156.5"/>
<text text-anchor="middle" x="72.28" y="-144.5" font-family="Helvetica,sans-Serif" font-size="10.00">src/client/filesdb.cpp</text>
</a>
</g>
</g>
<!-- Node8&#45;&gt;Node9 -->
<g id="edge12_Node000008_Node000009" class="edge">
<title>Node8&#45;&gt;Node9</title>
<g id="a_edge12_Node000008_Node000009"><a xlink:title=" ">
<path fill="none" stroke="#63b8ff" d="M122.52,-191.22C109.73,-180.21 92.92,-165.75 82.35,-156.67"/>
<polygon fill="#63b8ff" stroke="#63b8ff" points="120.38,-194 130.25,-197.87 124.95,-188.69 120.38,-194"/>
</a>
</g>
</g>
<!-- Node10 -->
<g id="Node000010" class="node">
<title>Node10</title>
<g id="a_Node000010"><a xlink:href="client_2process__request_8hpp.html" target="_top" xlink:title=" ">
<polygon fill="white" stroke="#666666" points="249.78,-162 148.78,-162 148.78,-132 249.78,-132 249.78,-162"/>
<text text-anchor="start" x="156.78" y="-150" font-family="Helvetica,sans-Serif" font-size="10.00">src/client/process</text>
<text text-anchor="middle" x="199.28" y="-139" font-family="Helvetica,sans-Serif" font-size="10.00">_request.hpp</text>
</a>
</g>
</g>
<!-- Node8&#45;&gt;Node10 -->
<g id="edge13_Node000008_Node000010" class="edge">
<title>Node8&#45;&gt;Node10</title>
<g id="a_edge13_Node000008_Node000010"><a xlink:title=" ">
<path fill="none" stroke="#63b8ff" d="M156.22,-190.7C165.21,-181.78 176.35,-170.74 185.04,-162.11"/>
<polygon fill="#63b8ff" stroke="#63b8ff" points="153.62,-188.34 148.99,-197.87 158.55,-193.31 153.62,-188.34"/>
</a>
</g>
</g>
<!-- Node10&#45;&gt;Node3 -->
<g id="edge14_Node000010_Node000003" class="edge">
<title>Node10&#45;&gt;Node3</title>
<g id="a_edge14_Node000010_Node000003"><a xlink:title=" ">
<path fill="none" stroke="#63b8ff" d="M209.83,-122.35C222.92,-93.01 244.57,-44.48 253.38,-24.75"/>
<polygon fill="#63b8ff" stroke="#63b8ff" points="206.48,-121.28 205.6,-131.84 212.87,-124.13 206.48,-121.28"/>
</a>
</g>
</g>
<!-- Node11 -->
<g id="Node000011" class="node">
<title>Node11</title>
<g id="a_Node000011"><a xlink:href="client_2process__request_8cpp.html" target="_top" xlink:title=" ">
<polygon fill="white" stroke="#666666" points="190.78,-96 89.78,-96 89.78,-66 190.78,-66 190.78,-96"/>
<text text-anchor="start" x="97.78" y="-84" font-family="Helvetica,sans-Serif" font-size="10.00">src/client/process</text>
<text text-anchor="middle" x="140.28" y="-73" font-family="Helvetica,sans-Serif" font-size="10.00">_request.cpp</text>
</a>
</g>
</g>
<!-- Node10&#45;&gt;Node11 -->
<g id="edge15_Node000010_Node000011" class="edge">
<title>Node10&#45;&gt;Node11</title>
<g id="a_edge15_Node000010_Node000011"><a xlink:title=" ">
<path fill="none" stroke="#63b8ff" d="M179.34,-124.37C170.76,-115.06 160.97,-104.44 153.34,-96.16"/>
<polygon fill="#63b8ff" stroke="#63b8ff" points="176.83,-126.82 186.19,-131.8 181.98,-122.07 176.83,-126.82"/>
</a>
</g>
</g>
<!-- Node13&#45;&gt;Node2 -->
<g id="edge19_Node000013_Node000002" class="edge">
<title>Node13&#45;&gt;Node2</title>
<g id="a_edge19_Node000013_Node000002"><a xlink:title=" ">
<path fill="none" stroke="#63b8ff" d="M485.71,-194.52C454,-183.21 407.23,-166.53 379.16,-156.52"/>
<polygon fill="#63b8ff" stroke="#63b8ff" points="484.84,-197.93 495.43,-197.99 487.19,-191.34 484.84,-197.93"/>
</a>
</g>
</g>
<!-- Node13&#45;&gt;Node3 -->
<g id="edge18_Node000013_Node000003" class="edge">
<title>Node13&#45;&gt;Node3</title>
<g id="a_edge18_Node000013_Node000003"><a xlink:title=" ">
<path fill="none" stroke="#63b8ff" d="M552.92,-193.43C566.45,-186.31 580.63,-176.03 588.28,-162 608.7,-124.54 616.11,-98.34 588.28,-66 553.41,-25.47 397.67,-17.37 312.83,-16.02"/>
<polygon fill="#63b8ff" stroke="#63b8ff" points="551.23,-190.36 543.75,-197.86 554.27,-196.66 551.23,-190.36"/>
</a>
</g>
</g>
<!-- Node13&#45;&gt;Node10 -->
<g id="edge21_Node000013_Node000010" class="edge">
<title>Node13&#45;&gt;Node10</title>
<g id="a_edge21_Node000013_Node000010"><a xlink:title=" ">
<path fill="none" stroke="#63b8ff" d="M453.15,-196.43C400.26,-188.08 324.29,-175.44 258.28,-162 255.6,-161.45 252.85,-160.87 250.08,-160.27"/>
<polygon fill="#63b8ff" stroke="#63b8ff" points="452.66,-199.89 463.08,-197.99 453.75,-192.98 452.66,-199.89"/>
</a>
</g>
</g>
<!-- Node14 -->
<g id="Node000014" class="node">
<title>Node14</title>
<g id="a_Node000014"><a xlink:href="peerdb_8cpp.html" target="_top" xlink:title=" ">
<polygon fill="white" stroke="#666666" points="579.28,-156.5 461.28,-156.5 461.28,-137.5 579.28,-137.5 579.28,-156.5"/>
<text text-anchor="middle" x="520.28" y="-144.5" font-family="Helvetica,sans-Serif" font-size="10.00">src/client/peerdb.cpp</text>
</a>
</g>
</g>
<!-- Node13&#45;&gt;Node14 -->
<g id="edge20_Node000013_Node000014" class="edge">
<title>Node13&#45;&gt;Node14</title>
<g id="a_edge20_Node000013_Node000014"><a xlink:title=" ">
<path fill="none" stroke="#63b8ff" d="M519.6,-187.66C519.78,-177.24 519.99,-164.8 520.13,-156.67"/>
<polygon fill="#63b8ff" stroke="#63b8ff" points="516.1,-187.81 519.43,-197.87 523.1,-187.93 516.1,-187.81"/>
</a>
</g>
</g>
<!-- Node15&#45;&gt;Node2 -->
<g id="edge24_Node000015_Node000002" class="edge">
<title>Node15&#45;&gt;Node2</title>
<g id="a_edge24_Node000015_Node000002"><a xlink:title=" ">
<path fill="none" stroke="#63b8ff" d="M606.25,-242.46C604.45,-228.21 599.68,-209.3 587.28,-198 574.09,-185.98 472.5,-167.33 408.2,-156.53"/>
<polygon fill="#63b8ff" stroke="#63b8ff" points="602.79,-243 607.15,-252.66 609.76,-242.39 602.79,-243"/>
</a>
</g>
</g>
<!-- Node15&#45;&gt;Node6 -->
<g id="edge26_Node000015_Node000006" class="edge">
<title>Node15&#45;&gt;Node6</title>
<g id="a_edge26_Node000015_Node000006"><a xlink:title=" ">
<path fill="none" stroke="#63b8ff" d="M610.19,-242.68C617.53,-195.3 636.63,-71.87 643.1,-30.08"/>
<polygon fill="#63b8ff" stroke="#63b8ff" points="606.7,-242.34 608.63,-252.76 613.62,-243.42 606.7,-242.34"/>
</a>
</g>
</g>
<!-- Node15&#45;&gt;Node13 -->
<g id="edge25_Node000015_Node000013" class="edge">
<title>Node15&#45;&gt;Node13</title>
<g id="a_edge25_Node000015_Node000013"><a xlink:title=" ">
<path fill="none" stroke="#63b8ff" d="M584.36,-247.7C568.33,-238.04 547.41,-225.44 533.68,-217.17"/>
<polygon fill="#63b8ff" stroke="#63b8ff" points="582.77,-250.82 593.14,-252.98 586.38,-244.83 582.77,-250.82"/>
</a>
</g>
</g>
<!-- Node15&#45;&gt;Node16 -->
<g id="edge27_Node000015_Node000016" class="edge">
<title>Node15&#45;&gt;Node16</title>
<g id="a_edge27_Node000015_Node000016"><a xlink:title=" ">
<path fill="none" stroke="#63b8ff" d="M637.16,-249.03C660.65,-239.23 692.75,-225.83 713.5,-217.17"/>
<polygon fill="#63b8ff" stroke="#63b8ff" points="635.57,-245.9 627.68,-252.98 638.26,-252.36 635.57,-245.9"/>
</a>
</g>
</g>
<!-- Node17 -->
<g id="Node000017" class="node">
<title>Node17</title>
<g id="a_Node000017"><a xlink:href="groupdb_8hpp.html" target="_top" xlink:title=" ">
<polygon fill="white" stroke="#666666" points="804.78,-156.5 673.78,-156.5 673.78,-137.5 804.78,-137.5 804.78,-156.5"/>
<text text-anchor="middle" x="739.28" y="-144.5" font-family="Helvetica,sans-Serif" font-size="10.00">src/tracker/groupdb.hpp</text>
</a>
</g>
</g>
<!-- Node16&#45;&gt;Node17 -->
<g id="edge28_Node000016_Node000017" class="edge">
<title>Node16&#45;&gt;Node17</title>
<g id="a_edge28_Node000016_Node000017"><a xlink:title=" ">
<path fill="none" stroke="#63b8ff" d="M735.89,-187.66C736.78,-177.24 737.84,-164.8 738.54,-156.67"/>
<polygon fill="#63b8ff" stroke="#63b8ff" points="732.38,-187.61 735.02,-197.87 739.36,-188.2 732.38,-187.61"/>
</a>
</g>
</g>
<!-- Node18 -->
<g id="Node000018" class="node">
<title>Node18</title>
<g id="a_Node000018"><a xlink:href="groupdb_8cpp.html" target="_top" xlink:title=" ">
<polygon fill="white" stroke="#666666" points="804.78,-90.5 673.78,-90.5 673.78,-71.5 804.78,-71.5 804.78,-90.5"/>
<text text-anchor="middle" x="739.28" y="-78.5" font-family="Helvetica,sans-Serif" font-size="10.00">src/tracker/groupdb.cpp</text>
</a>
</g>
</g>
<!-- Node17&#45;&gt;Node18 -->
<g id="edge29_Node000017_Node000018" class="edge">
<title>Node17&#45;&gt;Node18</title>
<g id="a_edge29_Node000017_Node000018"><a xlink:title=" ">
<path fill="none" stroke="#63b8ff" d="M739.28,-127.08C739.28,-115.13 739.28,-100.22 739.28,-90.91"/>
<polygon fill="#63b8ff" stroke="#63b8ff" points="735.78,-127.37 739.28,-137.37 742.78,-127.37 735.78,-127.37"/>
</a>
</g>
</g>
<!-- Node19 -->
<g id="Node000019" class="node">
<title>Node19</title>
<g id="a_Node000019"><a xlink:href="tracker_2process__request_8cpp.html" target="_top" xlink:title=" ">
<polygon fill="white" stroke="#666666" points="931.28,-96 823.28,-96 823.28,-66 931.28,-66 931.28,-96"/>
<text text-anchor="start" x="831.28" y="-84" font-family="Helvetica,sans-Serif" font-size="10.00">src/tracker/process</text>
<text text-anchor="middle" x="877.28" y="-73" font-family="Helvetica,sans-Serif" font-size="10.00">_request.cpp</text>
</a>
</g>
</g>
<!-- Node17&#45;&gt;Node19 -->
<g id="edge30_Node000017_Node000019" class="edge">
<title>Node17&#45;&gt;Node19</title>
<g id="a_edge30_Node000017_Node000019"><a xlink:title=" ">
<path fill="none" stroke="#63b8ff" d="M767.15,-133.08C790.25,-122.36 823.05,-107.15 846.84,-96.12"/>
<polygon fill="#63b8ff" stroke="#63b8ff" points="765.49,-129.99 757.89,-137.37 768.44,-136.34 765.49,-129.99"/>
</a>
</g>
</g>
</g>
</svg>
