<?xml version="1.0" encoding="UTF-8" standalone="no"?>
<!DOCTYPE svg PUBLIC "-//W3C//DTD SVG 1.1//EN"
 "http://www.w3.org/Graphics/SVG/1.1/DTD/svg11.dtd">
<!-- Generated by graphviz version 2.43.0 (0)
 -->
<!-- Title: src/models/fileinfo.hpp Pages: 1 -->
<svg width="312pt" height="214pt"
 viewBox="0.00 0.00 311.50 214.00" xmlns="http://www.w3.org/2000/svg" xmlns:xlink="http://www.w3.org/1999/xlink">
<g id="graph0" class="graph" transform="scale(1 1) rotate(0) translate(4 210)">
<title>src/models/fileinfo.hpp</title>
<!-- Node1 -->
<g id="Node000001" class="node">
<title>Node1</title>
<g id="a_Node000001"><a xlink:title=" ">
<polygon fill="#999999" stroke="#666666" points="179.5,-206 51.5,-206 51.5,-187 179.5,-187 179.5,-206"/>
<text text-anchor="middle" x="115.5" y="-194" font-family="Helvetica,sans-Serif" font-size="10.00">src/models/fileinfo.hpp</text>
</a>
</g>
</g>
<!-- Node2 -->
<g id="Node000002" class="node">
<title>Node2</title>
<g id="a_Node000002"><a xlink:href="process__input_8cpp.html" target="_top" xlink:title=" ">
<polygon fill="white" stroke="#666666" points="101,-151 0,-151 0,-121 101,-121 101,-151"/>
<text text-anchor="start" x="8" y="-139" font-family="Helvetica,sans-Serif" font-size="10.00">src/client/process</text>
<text text-anchor="middle" x="50.5" y="-128" font-family="Helvetica,sans-Serif" font-size="10.00">_input.cpp</text>
</a>
</g>
</g>
<!-- Node1&#45;&gt;Node2 -->
<g id="edge1_Node000001_Node000002" class="edge">
<title>Node1&#45;&gt;Node2</title>
<g id="a_edge1_Node000001_Node000002"><a xlink:title=" ">
<path fill="none" stroke="#63b8ff" d="M98.24,-179.97C88.28,-171.01 75.86,-159.82 66.18,-151.11"/>
<polygon fill="#63b8ff" stroke="#63b8ff" points="96.13,-182.78 105.91,-186.87 100.82,-177.58 96.13,-182.78"/>
</a>
</g>
</g>
<!-- Node3 -->
<g id="Node000003" class="node">
<title>Node3</title>
<g id="a_Node000003"><a xlink:href="group_8hpp.html" target="_top" xlink:title=" ">
<polygon fill="white" stroke="#666666" points="241.5,-145.5 119.5,-145.5 119.5,-126.5 241.5,-126.5 241.5,-145.5"/>
<text text-anchor="middle" x="180.5" y="-133.5" font-family="Helvetica,sans-Serif" font-size="10.00">src/models/group.hpp</text>
</a>
</g>
</g>
<!-- Node1&#45;&gt;Node3 -->
<g id="edge2_Node000001_Node000003" class="edge">
<title>Node1&#45;&gt;Node3</title>
<g id="a_edge2_Node000001_Node000003"><a xlink:title=" ">
<path fill="none" stroke="#63b8ff" d="M132.82,-179.91C145.01,-168.94 160.87,-154.67 170.87,-145.67"/>
<polygon fill="#63b8ff" stroke="#63b8ff" points="130.18,-177.58 125.09,-186.87 134.87,-182.78 130.18,-177.58"/>
</a>
</g>
</g>
<!-- Node4 -->
<g id="Node000004" class="node">
<title>Node4</title>
<g id="a_Node000004"><a xlink:href="groupdb_8hpp.html" target="_top" xlink:title=" ">
<polygon fill="white" stroke="#666666" points="246,-85 115,-85 115,-66 246,-66 246,-85"/>
<text text-anchor="middle" x="180.5" y="-73" font-family="Helvetica,sans-Serif" font-size="10.00">src/tracker/groupdb.hpp</text>
</a>
</g>
</g>
<!-- Node3&#45;&gt;Node4 -->
<g id="edge3_Node000003_Node000004" class="edge">
<title>Node3&#45;&gt;Node4</title>
<g id="a_edge3_Node000003_Node000004"><a xlink:title=" ">
<path fill="none" stroke="#63b8ff" d="M180.5,-116.16C180.5,-105.74 180.5,-93.3 180.5,-85.17"/>
<polygon fill="#63b8ff" stroke="#63b8ff" points="177,-116.37 180.5,-126.37 184,-116.37 177,-116.37"/>
</a>
</g>
</g>
<!-- Node5 -->
<g id="Node000005" class="node">
<title>Node5</title>
<g id="a_Node000005"><a xlink:href="groupdb_8cpp.html" target="_top" xlink:title=" ">
<polygon fill="white" stroke="#666666" points="177,-24.5 46,-24.5 46,-5.5 177,-5.5 177,-24.5"/>
<text text-anchor="middle" x="111.5" y="-12.5" font-family="Helvetica,sans-Serif" font-size="10.00">src/tracker/groupdb.cpp</text>
</a>
</g>
</g>
<!-- Node4&#45;&gt;Node5 -->
<g id="edge4_Node000004_Node000005" class="edge">
<title>Node4&#45;&gt;Node5</title>
<g id="a_edge4_Node000004_Node000005"><a xlink:title=" ">
<path fill="none" stroke="#63b8ff" d="M162.48,-59.22C149.5,-48.21 132.44,-33.75 121.72,-24.67"/>
<polygon fill="#63b8ff" stroke="#63b8ff" points="160.43,-62.07 170.32,-65.87 164.95,-56.73 160.43,-62.07"/>
</a>
</g>
</g>
<!-- Node6 -->
<g id="Node000006" class="node">
<title>Node6</title>
<g id="a_Node000006"><a xlink:href="process__request_8cpp.html" target="_top" xlink:title=" ">
<polygon fill="white" stroke="#666666" points="303.5,-30 195.5,-30 195.5,0 303.5,0 303.5,-30"/>
<text text-anchor="start" x="203.5" y="-18" font-family="Helvetica,sans-Serif" font-size="10.00">src/tracker/process</text>
<text text-anchor="middle" x="249.5" y="-7" font-family="Helvetica,sans-Serif" font-size="10.00">_request.cpp</text>
</a>
</g>
</g>
<!-- Node4&#45;&gt;Node6 -->
<g id="edge5_Node000004_Node000006" class="edge">
<title>Node4&#45;&gt;Node6</title>
<g id="a_edge5_Node000004_Node000006"><a xlink:title=" ">
<path fill="none" stroke="#63b8ff" d="M198.51,-59.23C209.13,-50.23 222.48,-38.91 232.85,-30.11"/>
<polygon fill="#63b8ff" stroke="#63b8ff" points="196.05,-56.73 190.68,-65.87 200.57,-62.07 196.05,-56.73"/>
</a>
</g>
</g>
</g>
</svg>
