<?xml version="1.0" encoding="UTF-8" standalone="no"?>
<!DOCTYPE svg PUBLIC "-//W3C//DTD SVG 1.1//EN"
 "http://www.w3.org/Graphics/SVG/1.1/DTD/svg11.dtd">
<!-- Generated by graphviz version 2.43.0 (0)
 -->
<!-- Title: src/client/file_io.hpp Pages: 1 -->
<svg width="452pt" height="192pt"
 viewBox="0.00 0.00 452.00 192.00" xmlns="http://www.w3.org/2000/svg" xmlns:xlink="http://www.w3.org/1999/xlink">
<g id="graph0" class="graph" transform="scale(1 1) rotate(0) translate(4 188)">
<title>src/client/file_io.hpp</title>
<!-- Node1 -->
<g id="Node000001" class="node">
<title>Node1</title>
<g id="a_Node000001"><a xlink:title=" ">
<polygon fill="#999999" stroke="#666666" points="263,-184 149,-184 149,-165 263,-165 263,-184"/>
<text text-anchor="middle" x="206" y="-172" font-family="Helvetica,sans-Serif" font-size="10.00">src/client/file_io.hpp</text>
</a>
</g>
</g>
<!-- Node2 -->
<g id="Node000002" class="node">
<title>Node2</title>
<g id="a_Node000002"><a xlink:title=" ">
<polygon fill="#e0e0e0" stroke="#999999" points="58,-74 0,-74 0,-55 58,-55 58,-74"/>
<text text-anchor="middle" x="29" y="-62" font-family="Helvetica,sans-Serif" font-size="10.00">memory</text>
</a>
</g>
</g>
<!-- Node1&#45;&gt;Node2 -->
<g id="edge1_Node000001_Node000002" class="edge">
<title>Node1&#45;&gt;Node2</title>
<g id="a_edge1_Node000001_Node000002"><a xlink:title=" ">
<path fill="none" stroke="#63b8ff" d="M191.81,-164.84C161.26,-146.2 89.01,-102.11 51.89,-79.46"/>
<polygon fill="#63b8ff" stroke="#63b8ff" points="53.61,-76.42 43.25,-74.2 49.97,-82.39 53.61,-76.42"/>
</a>
</g>
</g>
<!-- Node3 -->
<g id="Node000003" class="node">
<title>Node3</title>
<g id="a_Node000003"><a xlink:href="file_8hpp.html" target="_top" xlink:title=" ">
<polygon fill="white" stroke="#666666" points="256.5,-129 155.5,-129 155.5,-110 256.5,-110 256.5,-129"/>
<text text-anchor="middle" x="206" y="-117" font-family="Helvetica,sans-Serif" font-size="10.00">../models/file.hpp</text>
</a>
</g>
</g>
<!-- Node1&#45;&gt;Node3 -->
<g id="edge2_Node000001_Node000003" class="edge">
<title>Node1&#45;&gt;Node3</title>
<g id="a_edge2_Node000001_Node000003"><a xlink:title=" ">
<path fill="none" stroke="#63b8ff" d="M206,-164.75C206,-157.8 206,-147.85 206,-139.13"/>
<polygon fill="#63b8ff" stroke="#63b8ff" points="209.5,-139.09 206,-129.09 202.5,-139.09 209.5,-139.09"/>
</a>
</g>
</g>
<!-- Node10 -->
<g id="Node000010" class="node">
<title>Node10</title>
<g id="a_Node000010"><a xlink:href="fileinfo_8hpp.html" target="_top" xlink:title=" ">
<polygon fill="white" stroke="#666666" points="387.5,-74 316.5,-74 316.5,-55 387.5,-55 387.5,-74"/>
<text text-anchor="middle" x="352" y="-62" font-family="Helvetica,sans-Serif" font-size="10.00">fileinfo.hpp</text>
</a>
</g>
</g>
<!-- Node1&#45;&gt;Node10 -->
<g id="edge16_Node000001_Node000010" class="edge">
<title>Node1&#45;&gt;Node10</title>
<g id="a_edge16_Node000001_Node000010"><a xlink:title=" ">
<path fill="none" stroke="#63b8ff" d="M217.7,-164.84C242.58,-146.44 300.99,-103.23 331.94,-80.34"/>
<polygon fill="#63b8ff" stroke="#63b8ff" points="334.29,-82.96 340.24,-74.2 330.12,-77.33 334.29,-82.96"/>
</a>
</g>
</g>
<!-- Node3&#45;&gt;Node2 -->
<g id="edge3_Node000003_Node000002" class="edge">
<title>Node3&#45;&gt;Node2</title>
<g id="a_edge3_Node000003_Node000002"><a xlink:title=" ">
<path fill="none" stroke="#63b8ff" d="M177.56,-109.98C147.72,-101.05 100.62,-86.94 67.47,-77.02"/>
<polygon fill="#63b8ff" stroke="#63b8ff" points="68.24,-73.6 57.66,-74.08 66.24,-80.3 68.24,-73.6"/>
</a>
</g>
</g>
<!-- Node4 -->
<g id="Node000004" class="node">
<title>Node4</title>
<g id="a_Node000004"><a xlink:title=" ">
<polygon fill="#e0e0e0" stroke="#999999" points="249,-19 205,-19 205,0 249,0 249,-19"/>
<text text-anchor="middle" x="227" y="-7" font-family="Helvetica,sans-Serif" font-size="10.00">string</text>
</a>
</g>
</g>
<!-- Node3&#45;&gt;Node4 -->
<g id="edge4_Node000003_Node000004" class="edge">
<title>Node3&#45;&gt;Node4</title>
<g id="a_edge4_Node000003_Node000004"><a xlink:title=" ">
<path fill="none" stroke="#63b8ff" d="M203.99,-109.71C201.52,-97.31 198.19,-74.05 203,-55 205.41,-45.44 210.33,-35.7 215.09,-27.78"/>
<polygon fill="#63b8ff" stroke="#63b8ff" points="218.17,-29.46 220.63,-19.16 212.28,-25.68 218.17,-29.46"/>
</a>
</g>
</g>
<!-- Node5 -->
<g id="Node000005" class="node">
<title>Node5</title>
<g id="a_Node000005"><a xlink:title=" ">
<polygon fill="#e0e0e0" stroke="#999999" points="444,-19 388,-19 388,0 444,0 444,-19"/>
<text text-anchor="middle" x="416" y="-7" font-family="Helvetica,sans-Serif" font-size="10.00">sstream</text>
</a>
</g>
</g>
<!-- Node3&#45;&gt;Node5 -->
<g id="edge5_Node000003_Node000005" class="edge">
<title>Node3&#45;&gt;Node5</title>
<g id="a_edge5_Node000003_Node000005"><a xlink:title=" ">
<path fill="none" stroke="#63b8ff" d="M256.82,-112.33C306.01,-105.37 376.01,-92.55 396,-74 408.3,-62.59 413.08,-43.7 414.92,-29.48"/>
<polygon fill="#63b8ff" stroke="#63b8ff" points="418.42,-29.59 415.84,-19.31 411.45,-28.95 418.42,-29.59"/>
</a>
</g>
</g>
<!-- Node6 -->
<g id="Node000006" class="node">
<title>Node6</title>
<g id="a_Node000006"><a xlink:title=" ">
<polygon fill="#e0e0e0" stroke="#999999" points="298,-74 212,-74 212,-55 298,-55 298,-74"/>
<text text-anchor="middle" x="255" y="-62" font-family="Helvetica,sans-Serif" font-size="10.00">unordered_set</text>
</a>
</g>
</g>
<!-- Node3&#45;&gt;Node6 -->
<g id="edge6_Node000003_Node000006" class="edge">
<title>Node3&#45;&gt;Node6</title>
<g id="a_edge6_Node000003_Node000006"><a xlink:title=" ">
<path fill="none" stroke="#63b8ff" d="M214.09,-109.75C221.16,-102.11 231.59,-90.82 240.15,-81.56"/>
<polygon fill="#63b8ff" stroke="#63b8ff" points="242.84,-83.81 247.06,-74.09 237.7,-79.06 242.84,-83.81"/>
</a>
</g>
</g>
<!-- Node7 -->
<g id="Node000007" class="node">
<title>Node7</title>
<g id="a_Node000007"><a xlink:href="endpoint_8hpp.html" target="_top" xlink:title=" ">
<polygon fill="white" stroke="#666666" points="156,-74 76,-74 76,-55 156,-55 156,-74"/>
<text text-anchor="middle" x="116" y="-62" font-family="Helvetica,sans-Serif" font-size="10.00">endpoint.hpp</text>
</a>
</g>
</g>
<!-- Node3&#45;&gt;Node7 -->
<g id="edge7_Node000003_Node000007" class="edge">
<title>Node3&#45;&gt;Node7</title>
<g id="a_edge7_Node000003_Node000007"><a xlink:title=" ">
<path fill="none" stroke="#63b8ff" d="M191.54,-109.98C177.58,-101.77 156.21,-89.18 139.75,-79.49"/>
<polygon fill="#63b8ff" stroke="#63b8ff" points="141.12,-76.23 130.72,-74.17 137.56,-82.26 141.12,-76.23"/>
</a>
</g>
</g>
<!-- Node3&#45;&gt;Node10 -->
<g id="edge11_Node000003_Node000010" class="edge">
<title>Node3&#45;&gt;Node10</title>
<g id="a_edge11_Node000003_Node000010"><a xlink:title=" ">
<path fill="none" stroke="#63b8ff" d="M229.46,-109.98C253.58,-101.23 291.37,-87.51 318.6,-77.62"/>
<polygon fill="#63b8ff" stroke="#63b8ff" points="319.91,-80.87 328.12,-74.17 317.52,-74.29 319.91,-80.87"/>
</a>
</g>
</g>
<!-- Node7&#45;&gt;Node4 -->
<g id="edge10_Node000007_Node000004" class="edge">
<title>Node7&#45;&gt;Node4</title>
<g id="a_edge10_Node000007_Node000004"><a xlink:title=" ">
<path fill="none" stroke="#63b8ff" d="M133.83,-54.98C151.61,-46.5 179.15,-33.35 199.68,-23.54"/>
<polygon fill="#63b8ff" stroke="#63b8ff" points="201.33,-26.64 208.84,-19.17 198.31,-20.32 201.33,-26.64"/>
</a>
</g>
</g>
<!-- Node8 -->
<g id="Node000008" class="node">
<title>Node8</title>
<g id="a_Node000008"><a xlink:title=" ">
<polygon fill="#e0e0e0" stroke="#999999" points="103,-19 53,-19 53,0 103,0 103,-19"/>
<text text-anchor="middle" x="78" y="-7" font-family="Helvetica,sans-Serif" font-size="10.00">cstdint</text>
</a>
</g>
</g>
<!-- Node7&#45;&gt;Node8 -->
<g id="edge8_Node000007_Node000008" class="edge">
<title>Node7&#45;&gt;Node8</title>
<g id="a_edge8_Node000007_Node000008"><a xlink:title=" ">
<path fill="none" stroke="#63b8ff" d="M109.73,-54.75C104.41,-47.34 96.64,-36.5 90.12,-27.41"/>
<polygon fill="#63b8ff" stroke="#63b8ff" points="92.83,-25.18 84.16,-19.09 87.14,-29.26 92.83,-25.18"/>
</a>
</g>
</g>
<!-- Node9 -->
<g id="Node000009" class="node">
<title>Node9</title>
<g id="a_Node000009"><a xlink:title=" ">
<polygon fill="#e0e0e0" stroke="#999999" points="186.5,-19 121.5,-19 121.5,0 186.5,0 186.5,-19"/>
<text text-anchor="middle" x="154" y="-7" font-family="Helvetica,sans-Serif" font-size="10.00">stdexcept</text>
</a>
</g>
</g>
<!-- Node7&#45;&gt;Node9 -->
<g id="edge9_Node000007_Node000009" class="edge">
<title>Node7&#45;&gt;Node9</title>
<g id="a_edge9_Node000007_Node000009"><a xlink:title=" ">
<path fill="none" stroke="#63b8ff" d="M122.27,-54.75C127.59,-47.34 135.36,-36.5 141.88,-27.41"/>
<polygon fill="#63b8ff" stroke="#63b8ff" points="144.86,-29.26 147.84,-19.09 139.17,-25.18 144.86,-29.26"/>
</a>
</g>
</g>
<!-- Node10&#45;&gt;Node4 -->
<g id="edge14_Node000010_Node000004" class="edge">
<title>Node10&#45;&gt;Node4</title>
<g id="a_edge14_Node000010_Node000004"><a xlink:title=" ">
<path fill="none" stroke="#63b8ff" d="M331.92,-54.98C311.63,-46.38 280.04,-32.99 256.83,-23.15"/>
<polygon fill="#63b8ff" stroke="#63b8ff" points="258.02,-19.85 247.45,-19.17 255.29,-26.3 258.02,-19.85"/>
</a>
</g>
</g>
<!-- Node10&#45;&gt;Node5 -->
<g id="edge12_Node000010_Node000005" class="edge">
<title>Node10&#45;&gt;Node5</title>
<g id="a_edge12_Node000010_Node000005"><a xlink:title=" ">
<path fill="none" stroke="#63b8ff" d="M362.28,-54.98C371.84,-47.07 386.28,-35.11 397.78,-25.58"/>
<polygon fill="#63b8ff" stroke="#63b8ff" points="400.06,-28.24 405.53,-19.17 395.6,-22.85 400.06,-28.24"/>
</a>
</g>
</g>
<!-- Node10&#45;&gt;Node9 -->
<g id="edge13_Node000010_Node000009" class="edge">
<title>Node10&#45;&gt;Node9</title>
<g id="a_edge13_Node000010_Node000009"><a xlink:title=" ">
<path fill="none" stroke="#63b8ff" d="M320.19,-54.98C286.51,-45.97 233.2,-31.7 196.08,-21.76"/>
<polygon fill="#63b8ff" stroke="#63b8ff" points="196.63,-18.29 186.06,-19.08 194.82,-25.05 196.63,-18.29"/>
</a>
</g>
</g>
<!-- Node11 -->
<g id="Node000011" class="node">
<title>Node11</title>
<g id="a_Node000011"><a xlink:title=" ">
<polygon fill="#e0e0e0" stroke="#999999" points="369.5,-19 322.5,-19 322.5,0 369.5,0 369.5,-19"/>
<text text-anchor="middle" x="346" y="-7" font-family="Helvetica,sans-Serif" font-size="10.00">vector</text>
</a>
</g>
</g>
<!-- Node10&#45;&gt;Node11 -->
<g id="edge15_Node000010_Node000011" class="edge">
<title>Node10&#45;&gt;Node11</title>
<g id="a_edge15_Node000010_Node000011"><a xlink:title=" ">
<path fill="none" stroke="#63b8ff" d="M351.01,-54.75C350.22,-47.8 349.1,-37.85 348.11,-29.13"/>
<polygon fill="#63b8ff" stroke="#63b8ff" points="351.58,-28.63 346.97,-19.09 344.62,-29.42 351.58,-28.63"/>
</a>
</g>
</g>
</g>
</svg>
