<?xml version="1.0" encoding="UTF-8" standalone="no"?>
<!DOCTYPE svg PUBLIC "-//W3C//DTD SVG 1.1//EN"
 "http://www.w3.org/Graphics/SVG/1.1/DTD/svg11.dtd">
<!-- Generated by graphviz version 2.43.0 (0)
 -->
<!-- Title: src/models/file.hpp Pages: 1 -->
<svg width="909pt" height="280pt"
 viewBox="0.00 0.00 908.88 280.00" xmlns="http://www.w3.org/2000/svg" xmlns:xlink="http://www.w3.org/1999/xlink">
<g id="graph0" class="graph" transform="scale(1 1) rotate(0) translate(4 276)">
<title>src/models/file.hpp</title>
<!-- Node1 -->
<g id="Node000001" class="node">
<title>Node1</title>
<g id="a_Node000001"><a xlink:title=" ">
<polygon fill="#999999" stroke="#666666" points="384.88,-272 275.88,-272 275.88,-253 384.88,-253 384.88,-272"/>
<text text-anchor="middle" x="330.38" y="-260" font-family="Helvetica,sans-Serif" font-size="10.00">src/models/file.hpp</text>
</a>
</g>
</g>
<!-- Node2 -->
<g id="Node000002" class="node">
<title>Node2</title>
<g id="a_Node000002"><a xlink:href="downloadmanager_8hpp.html" target="_top" xlink:title=" ">
<polygon fill="white" stroke="#666666" points="345.88,-156.5 170.88,-156.5 170.88,-137.5 345.88,-137.5 345.88,-156.5"/>
<text text-anchor="middle" x="258.38" y="-144.5" font-family="Helvetica,sans-Serif" font-size="10.00">src/client/downloadmanager.hpp</text>
</a>
</g>
</g>
<!-- Node1&#45;&gt;Node2 -->
<g id="edge1_Node000001_Node000002" class="edge">
<title>Node1&#45;&gt;Node2</title>
<g id="a_edge1_Node000001_Node000002"><a xlink:title=" ">
<path fill="none" stroke="#63b8ff" d="M319.48,-244.32C303.86,-219.69 275.69,-175.29 263.85,-156.63"/>
<polygon fill="#63b8ff" stroke="#63b8ff" points="316.66,-246.4 324.97,-252.97 322.57,-242.65 316.66,-246.4"/>
</a>
</g>
</g>
<!-- Node6 -->
<g id="Node000006" class="node">
<title>Node6</title>
<g id="a_Node000006"><a xlink:href="process__input_8cpp.html" target="_top" xlink:title=" ">
<polygon fill="white" stroke="#666666" points="168.88,-30 67.88,-30 67.88,0 168.88,0 168.88,-30"/>
<text text-anchor="start" x="75.88" y="-18" font-family="Helvetica,sans-Serif" font-size="10.00">src/client/process</text>
<text text-anchor="middle" x="118.38" y="-7" font-family="Helvetica,sans-Serif" font-size="10.00">_input.cpp</text>
</a>
</g>
</g>
<!-- Node1&#45;&gt;Node6 -->
<g id="edge14_Node000001_Node000006" class="edge">
<title>Node1&#45;&gt;Node6</title>
<g id="a_edge14_Node000001_Node000006"><a xlink:title=" ">
<path fill="none" stroke="#63b8ff" d="M271.25,-250.76C194.46,-233.3 63.41,-190.67 5.38,-96 -1.59,-84.63 -1.9,-77.17 5.38,-66 19.25,-44.7 44.49,-32.4 67.6,-25.34"/>
<polygon fill="#63b8ff" stroke="#63b8ff" points="270.73,-254.24 281.25,-252.97 272.23,-247.4 270.73,-254.24"/>
</a>
</g>
</g>
<!-- Node7 -->
<g id="Node000007" class="node">
<title>Node7</title>
<g id="a_Node000007"><a xlink:href="peerdb_8hpp.html" target="_top" xlink:title=" ">
<polygon fill="white" stroke="#666666" points="433.88,-217 314.88,-217 314.88,-198 433.88,-198 433.88,-217"/>
<text text-anchor="middle" x="374.38" y="-205" font-family="Helvetica,sans-Serif" font-size="10.00">src/client/peerdb.hpp</text>
</a>
</g>
</g>
<!-- Node1&#45;&gt;Node7 -->
<g id="edge7_Node000001_Node000007" class="edge">
<title>Node1&#45;&gt;Node7</title>
<g id="a_edge7_Node000001_Node000007"><a xlink:title=" ">
<path fill="none" stroke="#63b8ff" d="M344.11,-244.96C351.78,-235.72 361.01,-224.6 367.25,-217.09"/>
<polygon fill="#63b8ff" stroke="#63b8ff" points="341.34,-242.82 337.65,-252.75 346.73,-247.29 341.34,-242.82"/>
</a>
</g>
</g>
<!-- Node11 -->
<g id="Node000011" class="node">
<title>Node11</title>
<g id="a_Node000011"><a xlink:href="group_8hpp.html" target="_top" xlink:title=" ">
<polygon fill="white" stroke="#666666" points="679.38,-217 557.38,-217 557.38,-198 679.38,-198 679.38,-217"/>
<text text-anchor="middle" x="618.38" y="-205" font-family="Helvetica,sans-Serif" font-size="10.00">src/models/group.hpp</text>
</a>
</g>
</g>
<!-- Node1&#45;&gt;Node11 -->
<g id="edge15_Node000001_Node000011" class="edge">
<title>Node1&#45;&gt;Node11</title>
<g id="a_edge15_Node000001_Node000011"><a xlink:title=" ">
<path fill="none" stroke="#63b8ff" d="M386.75,-251.13C440.74,-241.19 521.26,-226.37 571.74,-217.08"/>
<polygon fill="#63b8ff" stroke="#63b8ff" points="385.85,-247.73 376.65,-252.98 387.12,-254.62 385.85,-247.73"/>
</a>
</g>
</g>
<!-- Node3 -->
<g id="Node000003" class="node">
<title>Node3</title>
<g id="a_Node000003"><a xlink:href="client_8cpp.html" target="_top" xlink:title="The entrypoint to the client.">
<polygon fill="white" stroke="#666666" points="410.88,-24.5 299.88,-24.5 299.88,-5.5 410.88,-5.5 410.88,-24.5"/>
<text text-anchor="middle" x="355.38" y="-12.5" font-family="Helvetica,sans-Serif" font-size="10.00">src/client/client.cpp</text>
</a>
</g>
</g>
<!-- Node2&#45;&gt;Node3 -->
<g id="edge2_Node000002_Node000003" class="edge">
<title>Node2&#45;&gt;Node3</title>
<g id="a_edge2_Node000002_Node000003"><a xlink:title=" ">
<path fill="none" stroke="#63b8ff" d="M279.38,-131.27C291.32,-122.13 305.93,-109.56 316.38,-96 334.3,-72.74 347.1,-39.94 352.51,-24.57"/>
<polygon fill="#63b8ff" stroke="#63b8ff" points="277.21,-128.52 271.25,-137.29 281.37,-134.15 277.21,-128.52"/>
</a>
</g>
</g>
<!-- Node4 -->
<g id="Node000004" class="node">
<title>Node4</title>
<g id="a_Node000004"><a xlink:href="downloadmanager_8cpp.html" target="_top" xlink:title=" ">
<polygon fill="white" stroke="#666666" points="188.38,-90.5 14.38,-90.5 14.38,-71.5 188.38,-71.5 188.38,-90.5"/>
<text text-anchor="middle" x="101.38" y="-78.5" font-family="Helvetica,sans-Serif" font-size="10.00">src/client/downloadmanager.cpp</text>
</a>
</g>
</g>
<!-- Node2&#45;&gt;Node4 -->
<g id="edge3_Node000002_Node000004" class="edge">
<title>Node2&#45;&gt;Node4</title>
<g id="a_edge3_Node000002_Node000004"><a xlink:title=" ">
<path fill="none" stroke="#63b8ff" d="M227.74,-133.51C196.71,-120.86 149.54,-101.63 122.47,-90.6"/>
<polygon fill="#63b8ff" stroke="#63b8ff" points="226.62,-136.83 237.21,-137.37 229.27,-130.35 226.62,-136.83"/>
</a>
</g>
</g>
<!-- Node5 -->
<g id="Node000005" class="node">
<title>Node5</title>
<g id="a_Node000005"><a xlink:href="process__input_8hpp.html" target="_top" xlink:title=" ">
<polygon fill="white" stroke="#666666" points="307.88,-96 206.88,-96 206.88,-66 307.88,-66 307.88,-96"/>
<text text-anchor="start" x="214.88" y="-84" font-family="Helvetica,sans-Serif" font-size="10.00">src/client/process</text>
<text text-anchor="middle" x="257.38" y="-73" font-family="Helvetica,sans-Serif" font-size="10.00">_input.hpp</text>
</a>
</g>
</g>
<!-- Node2&#45;&gt;Node5 -->
<g id="edge4_Node000002_Node000005" class="edge">
<title>Node2&#45;&gt;Node5</title>
<g id="a_edge4_Node000002_Node000005"><a xlink:title=" ">
<path fill="none" stroke="#63b8ff" d="M258.09,-127.35C257.93,-117.47 257.75,-105.51 257.6,-96.36"/>
<polygon fill="#63b8ff" stroke="#63b8ff" points="254.59,-127.42 258.24,-137.37 261.59,-127.32 254.59,-127.42"/>
</a>
</g>
</g>
<!-- Node5&#45;&gt;Node3 -->
<g id="edge5_Node000005_Node000003" class="edge">
<title>Node5&#45;&gt;Node3</title>
<g id="a_edge5_Node000005_Node000003"><a xlink:title=" ">
<path fill="none" stroke="#63b8ff" d="M287.7,-60.2C305.94,-48.29 328.23,-33.73 342.12,-24.66"/>
<polygon fill="#63b8ff" stroke="#63b8ff" points="285.59,-57.4 279.13,-65.8 289.42,-63.26 285.59,-57.4"/>
</a>
</g>
</g>
<!-- Node5&#45;&gt;Node6 -->
<g id="edge6_Node000005_Node000006" class="edge">
<title>Node5&#45;&gt;Node6</title>
<g id="a_edge6_Node000005_Node000006"><a xlink:title=" ">
<path fill="none" stroke="#63b8ff" d="M217.52,-61.65C195.66,-51.58 168.99,-39.3 148.81,-30.01"/>
<polygon fill="#63b8ff" stroke="#63b8ff" points="216.33,-64.95 226.88,-65.95 219.26,-58.59 216.33,-64.95"/>
</a>
</g>
</g>
<!-- Node7&#45;&gt;Node2 -->
<g id="edge9_Node000007_Node000002" class="edge">
<title>Node7&#45;&gt;Node2</title>
<g id="a_edge9_Node000007_Node000002"><a xlink:title=" ">
<path fill="none" stroke="#63b8ff" d="M348.06,-193.23C325.85,-182.03 294.7,-166.32 275.57,-156.67"/>
<polygon fill="#63b8ff" stroke="#63b8ff" points="346.76,-196.49 357.26,-197.87 349.91,-190.24 346.76,-196.49"/>
</a>
</g>
</g>
<!-- Node7&#45;&gt;Node3 -->
<g id="edge8_Node000007_Node000003" class="edge">
<title>Node7&#45;&gt;Node3</title>
<g id="a_edge8_Node000007_Node000003"><a xlink:title=" ">
<path fill="none" stroke="#63b8ff" d="M372.51,-187.75C368.49,-147.43 359.14,-53.75 356.25,-24.73"/>
<polygon fill="#63b8ff" stroke="#63b8ff" points="369.04,-188.22 373.51,-197.82 376,-187.52 369.04,-188.22"/>
</a>
</g>
</g>
<!-- Node8 -->
<g id="Node000008" class="node">
<title>Node8</title>
<g id="a_Node000008"><a xlink:href="peerdb_8cpp.html" target="_top" xlink:title=" ">
<polygon fill="white" stroke="#666666" points="520.38,-156.5 402.38,-156.5 402.38,-137.5 520.38,-137.5 520.38,-156.5"/>
<text text-anchor="middle" x="461.38" y="-144.5" font-family="Helvetica,sans-Serif" font-size="10.00">src/client/peerdb.cpp</text>
</a>
</g>
</g>
<!-- Node7&#45;&gt;Node8 -->
<g id="edge10_Node000007_Node000008" class="edge">
<title>Node7&#45;&gt;Node8</title>
<g id="a_edge10_Node000007_Node000008"><a xlink:title=" ">
<path fill="none" stroke="#63b8ff" d="M395.71,-192.16C412.23,-181.05 434.59,-166.01 448.49,-156.67"/>
<polygon fill="#63b8ff" stroke="#63b8ff" points="393.56,-189.38 387.22,-197.87 397.47,-195.19 393.56,-189.38"/>
</a>
</g>
</g>
<!-- Node9 -->
<g id="Node000009" class="node">
<title>Node9</title>
<g id="a_Node000009"><a xlink:href="client_2process__request_8hpp.html" target="_top" xlink:title=" ">
<polygon fill="white" stroke="#666666" points="639.88,-162 538.88,-162 538.88,-132 639.88,-132 639.88,-162"/>
<text text-anchor="start" x="546.88" y="-150" font-family="Helvetica,sans-Serif" font-size="10.00">src/client/process</text>
<text text-anchor="middle" x="589.38" y="-139" font-family="Helvetica,sans-Serif" font-size="10.00">_request.hpp</text>
</a>
</g>
</g>
<!-- Node7&#45;&gt;Node9 -->
<g id="edge11_Node000007_Node000009" class="edge">
<title>Node7&#45;&gt;Node9</title>
<g id="a_edge11_Node000007_Node000009"><a xlink:title=" ">
<path fill="none" stroke="#63b8ff" d="M415.53,-195.3C450.55,-185.78 500.98,-172.05 538.52,-161.84"/>
<polygon fill="#63b8ff" stroke="#63b8ff" points="414.37,-191.99 405.64,-197.99 416.21,-198.75 414.37,-191.99"/>
</a>
</g>
</g>
<!-- Node9&#45;&gt;Node3 -->
<g id="edge12_Node000009_Node000003" class="edge">
<title>Node9&#45;&gt;Node3</title>
<g id="a_edge12_Node000009_Node000003"><a xlink:title=" ">
<path fill="none" stroke="#63b8ff" d="M589.66,-121.49C588.51,-103.73 583.99,-80.39 569.38,-66 547.26,-44.22 466.77,-29.92 411.07,-22.4"/>
<polygon fill="#63b8ff" stroke="#63b8ff" points="586.17,-121.83 590,-131.7 593.17,-121.59 586.17,-121.83"/>
</a>
</g>
</g>
<!-- Node10 -->
<g id="Node000010" class="node">
<title>Node10</title>
<g id="a_Node000010"><a xlink:href="client_2process__request_8cpp.html" target="_top" xlink:title=" ">
<polygon fill="white" stroke="#666666" points="560.88,-96 459.88,-96 459.88,-66 560.88,-66 560.88,-96"/>
<text text-anchor="start" x="467.88" y="-84" font-family="Helvetica,sans-Serif" font-size="10.00">src/client/process</text>
<text text-anchor="middle" x="510.38" y="-73" font-family="Helvetica,sans-Serif" font-size="10.00">_request.cpp</text>
</a>
</g>
</g>
<!-- Node9&#45;&gt;Node10 -->
<g id="edge13_Node000009_Node000010" class="edge">
<title>Node9&#45;&gt;Node10</title>
<g id="a_edge13_Node000009_Node000010"><a xlink:title=" ">
<path fill="none" stroke="#63b8ff" d="M564.05,-125.48C552.24,-115.91 538.49,-104.77 527.86,-96.16"/>
<polygon fill="#63b8ff" stroke="#63b8ff" points="561.87,-128.22 571.85,-131.8 566.28,-122.78 561.87,-128.22"/>
</a>
</g>
</g>
<!-- Node12 -->
<g id="Node000012" class="node">
<title>Node12</title>
<g id="a_Node000012"><a xlink:href="groupdb_8hpp.html" target="_top" xlink:title=" ">
<polygon fill="white" stroke="#666666" points="788.88,-156.5 657.88,-156.5 657.88,-137.5 788.88,-137.5 788.88,-156.5"/>
<text text-anchor="middle" x="723.38" y="-144.5" font-family="Helvetica,sans-Serif" font-size="10.00">src/tracker/groupdb.hpp</text>
</a>
</g>
</g>
<!-- Node11&#45;&gt;Node12 -->
<g id="edge16_Node000011_Node000012" class="edge">
<title>Node11&#45;&gt;Node12</title>
<g id="a_edge16_Node000011_Node000012"><a xlink:title=" ">
<path fill="none" stroke="#63b8ff" d="M642.75,-192.92C662.81,-181.74 690.66,-166.23 707.82,-156.67"/>
<polygon fill="#63b8ff" stroke="#63b8ff" points="640.9,-189.94 633.87,-197.87 644.31,-196.06 640.9,-189.94"/>
</a>
</g>
</g>
<!-- Node13 -->
<g id="Node000013" class="node">
<title>Node13</title>
<g id="a_Node000013"><a xlink:href="groupdb_8cpp.html" target="_top" xlink:title=" ">
<polygon fill="white" stroke="#666666" points="900.88,-90.5 769.88,-90.5 769.88,-71.5 900.88,-71.5 900.88,-90.5"/>
<text text-anchor="middle" x="835.38" y="-78.5" font-family="Helvetica,sans-Serif" font-size="10.00">src/tracker/groupdb.cpp</text>
</a>
</g>
</g>
<!-- Node12&#45;&gt;Node13 -->
<g id="edge17_Node000012_Node000013" class="edge">
<title>Node12&#45;&gt;Node13</title>
<g id="a_edge17_Node000012_Node000013"><a xlink:title=" ">
<path fill="none" stroke="#63b8ff" d="M747.25,-132.36C769.3,-119.76 801.4,-101.42 820.16,-90.7"/>
<polygon fill="#63b8ff" stroke="#63b8ff" points="745.43,-129.37 738.48,-137.37 748.9,-135.45 745.43,-129.37"/>
</a>
</g>
</g>
<!-- Node14 -->
<g id="Node000014" class="node">
<title>Node14</title>
<g id="a_Node000014"><a xlink:href="tracker_2process__request_8cpp.html" target="_top" xlink:title=" ">
<polygon fill="white" stroke="#666666" points="751.38,-96 643.38,-96 643.38,-66 751.38,-66 751.38,-96"/>
<text text-anchor="start" x="651.38" y="-84" font-family="Helvetica,sans-Serif" font-size="10.00">src/tracker/process</text>
<text text-anchor="middle" x="697.38" y="-73" font-family="Helvetica,sans-Serif" font-size="10.00">_request.cpp</text>
</a>
</g>
</g>
<!-- Node12&#45;&gt;Node14 -->
<g id="edge18_Node000012_Node000014" class="edge">
<title>Node12&#45;&gt;Node14</title>
<g id="a_edge18_Node000012_Node000014"><a xlink:title=" ">
<path fill="none" stroke="#63b8ff" d="M716.06,-127.98C712,-117.98 707.01,-105.71 703.21,-96.36"/>
<polygon fill="#63b8ff" stroke="#63b8ff" points="712.87,-129.42 719.87,-137.37 719.35,-126.79 712.87,-129.42"/>
</a>
</g>
</g>
</g>
</svg>
