<?xml version="1.0" encoding="UTF-8" standalone="no"?>
<!DOCTYPE svg PUBLIC "-//W3C//DTD SVG 1.1//EN"
 "http://www.w3.org/Graphics/SVG/1.1/DTD/svg11.dtd">
<!-- Generated by graphviz version 2.43.0 (0)
 -->
<!-- Title: src/client/filesdb.hpp Pages: 1 -->
<svg width="528pt" height="192pt"
 viewBox="0.00 0.00 528.01 192.00" xmlns="http://www.w3.org/2000/svg" xmlns:xlink="http://www.w3.org/1999/xlink">
<g id="graph0" class="graph" transform="scale(1 1) rotate(0) translate(4 188)">
<title>src/client/filesdb.hpp</title>
<!-- Node1 -->
<g id="Node000001" class="node">
<title>Node1</title>
<g id="a_Node000001"><a xlink:title=" ">
<polygon fill="#999999" stroke="#666666" points="182.51,-184 65.51,-184 65.51,-165 182.51,-165 182.51,-184"/>
<text text-anchor="middle" x="124.01" y="-172" font-family="Helvetica,sans-Serif" font-size="10.00">src/client/filesdb.hpp</text>
</a>
</g>
</g>
<!-- Node2 -->
<g id="Node000002" class="node">
<title>Node2</title>
<g id="a_Node000002"><a xlink:title=" ">
<polygon fill="#e0e0e0" stroke="#999999" points="202.01,-74 144.01,-74 144.01,-55 202.01,-55 202.01,-74"/>
<text text-anchor="middle" x="173.01" y="-62" font-family="Helvetica,sans-Serif" font-size="10.00">memory</text>
</a>
</g>
</g>
<!-- Node1&#45;&gt;Node2 -->
<g id="edge1_Node000001_Node000002" class="edge">
<title>Node1&#45;&gt;Node2</title>
<g id="a_edge1_Node000001_Node000002"><a xlink:title=" ">
<path fill="none" stroke="#63b8ff" d="M164.21,-164.87C183.7,-158.45 205.37,-147.48 217.01,-129 227.79,-111.9 210.62,-92.92 194.68,-80.21"/>
<polygon fill="#63b8ff" stroke="#63b8ff" points="196.72,-77.36 186.61,-74.17 192.52,-82.96 196.72,-77.36"/>
</a>
</g>
</g>
<!-- Node3 -->
<g id="Node000003" class="node">
<title>Node3</title>
<g id="a_Node000003"><a xlink:title=" ">
<polygon fill="#e0e0e0" stroke="#999999" points="59.01,-129 11.01,-129 11.01,-110 59.01,-110 59.01,-129"/>
<text text-anchor="middle" x="35.01" y="-117" font-family="Helvetica,sans-Serif" font-size="10.00">mutex</text>
</a>
</g>
</g>
<!-- Node1&#45;&gt;Node3 -->
<g id="edge2_Node000001_Node000003" class="edge">
<title>Node1&#45;&gt;Node3</title>
<g id="a_edge2_Node000001_Node000003"><a xlink:title=" ">
<path fill="none" stroke="#63b8ff" d="M109.71,-164.98C95.91,-156.77 74.77,-144.18 58.5,-134.49"/>
<polygon fill="#63b8ff" stroke="#63b8ff" points="59.95,-131.28 49.57,-129.17 56.37,-137.29 59.95,-131.28"/>
</a>
</g>
</g>
<!-- Node4 -->
<g id="Node000004" class="node">
<title>Node4</title>
<g id="a_Node000004"><a xlink:title=" ">
<polygon fill="#e0e0e0" stroke="#999999" points="182.01,-19 138.01,-19 138.01,0 182.01,0 182.01,-19"/>
<text text-anchor="middle" x="160.01" y="-7" font-family="Helvetica,sans-Serif" font-size="10.00">string</text>
</a>
</g>
</g>
<!-- Node1&#45;&gt;Node4 -->
<g id="edge3_Node000001_Node000004" class="edge">
<title>Node1&#45;&gt;Node4</title>
<g id="a_edge3_Node000001_Node000004"><a xlink:title=" ">
<path fill="none" stroke="#63b8ff" d="M65.14,-165.72C28.74,-157.69 -9.09,-141.66 2.01,-110 12.37,-80.46 20.79,-73.55 46.01,-55 70.72,-36.83 103.82,-25 127.98,-18.14"/>
<polygon fill="#63b8ff" stroke="#63b8ff" points="129,-21.49 137.74,-15.5 127.18,-14.73 129,-21.49"/>
</a>
</g>
</g>
<!-- Node5 -->
<g id="Node000005" class="node">
<title>Node5</title>
<g id="a_Node000005"><a xlink:title=" ">
<polygon fill="#e0e0e0" stroke="#999999" points="208.51,-129 115.51,-129 115.51,-110 208.51,-110 208.51,-129"/>
<text text-anchor="middle" x="162.01" y="-117" font-family="Helvetica,sans-Serif" font-size="10.00">unordered_map</text>
</a>
</g>
</g>
<!-- Node1&#45;&gt;Node5 -->
<g id="edge4_Node000001_Node000005" class="edge">
<title>Node1&#45;&gt;Node5</title>
<g id="a_edge4_Node000001_Node000005"><a xlink:title=" ">
<path fill="none" stroke="#63b8ff" d="M130.29,-164.75C135.6,-157.34 143.37,-146.5 149.89,-137.41"/>
<polygon fill="#63b8ff" stroke="#63b8ff" points="152.87,-139.26 155.85,-129.09 147.18,-135.18 152.87,-139.26"/>
</a>
</g>
</g>
<!-- Node6 -->
<g id="Node000006" class="node">
<title>Node6</title>
<g id="a_Node000006"><a xlink:href="file__id_8hpp.html" target="_top" xlink:title=" ">
<polygon fill="white" stroke="#666666" points="122.51,-74 55.51,-74 55.51,-55 122.51,-55 122.51,-74"/>
<text text-anchor="middle" x="89.01" y="-62" font-family="Helvetica,sans-Serif" font-size="10.00">file_id.hpp</text>
</a>
</g>
</g>
<!-- Node1&#45;&gt;Node6 -->
<g id="edge5_Node000001_Node000006" class="edge">
<title>Node1&#45;&gt;Node6</title>
<g id="a_edge5_Node000001_Node000006"><a xlink:title=" ">
<path fill="none" stroke="#63b8ff" d="M120.1,-164.75C116.22,-155.87 110.24,-141.64 106.01,-129 101.02,-114.1 96.48,-96.86 93.35,-84.11"/>
<polygon fill="#63b8ff" stroke="#63b8ff" points="96.72,-83.14 90.99,-74.23 89.91,-84.77 96.72,-83.14"/>
</a>
</g>
</g>
<!-- Node7 -->
<g id="Node000007" class="node">
<title>Node7</title>
<g id="a_Node000007"><a xlink:href="partfile_8hpp.html" target="_top" xlink:title=" ">
<polygon fill="white" stroke="#666666" points="337.01,-129 265.01,-129 265.01,-110 337.01,-110 337.01,-129"/>
<text text-anchor="middle" x="301.01" y="-117" font-family="Helvetica,sans-Serif" font-size="10.00">partfile.hpp</text>
</a>
</g>
</g>
<!-- Node1&#45;&gt;Node7 -->
<g id="edge7_Node000001_Node000007" class="edge">
<title>Node1&#45;&gt;Node7</title>
<g id="a_edge7_Node000001_Node000007"><a xlink:title=" ">
<path fill="none" stroke="#63b8ff" d="M152.45,-164.98C182.29,-156.05 229.39,-141.94 262.54,-132.02"/>
<polygon fill="#63b8ff" stroke="#63b8ff" points="263.77,-135.3 272.35,-129.08 261.77,-128.6 263.77,-135.3"/>
</a>
</g>
</g>
<!-- Node6&#45;&gt;Node4 -->
<g id="edge6_Node000006_Node000004" class="edge">
<title>Node6&#45;&gt;Node4</title>
<g id="a_edge6_Node000006_Node000004"><a xlink:title=" ">
<path fill="none" stroke="#63b8ff" d="M100.42,-54.98C111.12,-47 127.35,-34.88 140.17,-25.31"/>
<polygon fill="#63b8ff" stroke="#63b8ff" points="142.48,-27.96 148.4,-19.17 138.29,-22.35 142.48,-27.96"/>
</a>
</g>
</g>
<!-- Node7&#45;&gt;Node2 -->
<g id="edge8_Node000007_Node000002" class="edge">
<title>Node7&#45;&gt;Node2</title>
<g id="a_edge8_Node000007_Node000002"><a xlink:title=" ">
<path fill="none" stroke="#63b8ff" d="M280.45,-109.98C259.58,-101.34 227.04,-87.87 203.24,-78.02"/>
<polygon fill="#63b8ff" stroke="#63b8ff" points="204.53,-74.76 193.95,-74.17 201.85,-81.23 204.53,-74.76"/>
</a>
</g>
</g>
<!-- Node7&#45;&gt;Node4 -->
<g id="edge9_Node000007_Node000004" class="edge">
<title>Node7&#45;&gt;Node4</title>
<g id="a_edge9_Node000007_Node000004"><a xlink:title=" ">
<path fill="none" stroke="#63b8ff" d="M289.47,-109.66C265.29,-91.14 209.07,-48.08 179.3,-25.28"/>
<polygon fill="#63b8ff" stroke="#63b8ff" points="181.38,-22.46 171.32,-19.16 177.13,-28.02 181.38,-22.46"/>
</a>
</g>
</g>
<!-- Node8 -->
<g id="Node000008" class="node">
<title>Node8</title>
<g id="a_Node000008"><a xlink:title=" ">
<polygon fill="#e0e0e0" stroke="#999999" points="344.01,-74 258.01,-74 258.01,-55 344.01,-55 344.01,-74"/>
<text text-anchor="middle" x="301.01" y="-62" font-family="Helvetica,sans-Serif" font-size="10.00">unordered_set</text>
</a>
</g>
</g>
<!-- Node7&#45;&gt;Node8 -->
<g id="edge10_Node000007_Node000008" class="edge">
<title>Node7&#45;&gt;Node8</title>
<g id="a_edge10_Node000007_Node000008"><a xlink:title=" ">
<path fill="none" stroke="#63b8ff" d="M301.01,-109.75C301.01,-102.8 301.01,-92.85 301.01,-84.13"/>
<polygon fill="#63b8ff" stroke="#63b8ff" points="304.51,-84.09 301.01,-74.09 297.51,-84.09 304.51,-84.09"/>
</a>
</g>
</g>
<!-- Node9 -->
<g id="Node000009" class="node">
<title>Node9</title>
<g id="a_Node000009"><a xlink:href="fileinfo_8hpp.html" target="_top" xlink:title=" ">
<polygon fill="white" stroke="#666666" points="481.51,-74 362.51,-74 362.51,-55 481.51,-55 481.51,-74"/>
<text text-anchor="middle" x="422.01" y="-62" font-family="Helvetica,sans-Serif" font-size="10.00">../models/fileinfo.hpp</text>
</a>
</g>
</g>
<!-- Node7&#45;&gt;Node9 -->
<g id="edge11_Node000007_Node000009" class="edge">
<title>Node7&#45;&gt;Node9</title>
<g id="a_edge11_Node000007_Node000009"><a xlink:title=" ">
<path fill="none" stroke="#63b8ff" d="M320.45,-109.98C340.01,-101.42 370.39,-88.11 392.84,-78.28"/>
<polygon fill="#63b8ff" stroke="#63b8ff" points="394.46,-81.39 402.22,-74.17 391.65,-74.98 394.46,-81.39"/>
</a>
</g>
</g>
<!-- Node9&#45;&gt;Node4 -->
<g id="edge14_Node000009_Node000004" class="edge">
<title>Node9&#45;&gt;Node4</title>
<g id="a_edge14_Node000009_Node000004"><a xlink:title=" ">
<path fill="none" stroke="#63b8ff" d="M379.92,-54.98C327.6,-44.4 239.48,-26.58 192.23,-17.02"/>
<polygon fill="#63b8ff" stroke="#63b8ff" points="192.74,-13.55 182.25,-15 191.35,-20.41 192.74,-13.55"/>
</a>
</g>
</g>
<!-- Node10 -->
<g id="Node000010" class="node">
<title>Node10</title>
<g id="a_Node000010"><a xlink:title=" ">
<polygon fill="#e0e0e0" stroke="#999999" points="520.01,-19 464.01,-19 464.01,0 520.01,0 520.01,-19"/>
<text text-anchor="middle" x="492.01" y="-7" font-family="Helvetica,sans-Serif" font-size="10.00">sstream</text>
</a>
</g>
</g>
<!-- Node9&#45;&gt;Node10 -->
<g id="edge12_Node000009_Node000010" class="edge">
<title>Node9&#45;&gt;Node10</title>
<g id="a_edge12_Node000009_Node000010"><a xlink:title=" ">
<path fill="none" stroke="#63b8ff" d="M433.26,-54.98C443.81,-47 459.81,-34.88 472.45,-25.31"/>
<polygon fill="#63b8ff" stroke="#63b8ff" points="474.7,-28 480.56,-19.17 470.47,-22.42 474.7,-28"/>
</a>
</g>
</g>
<!-- Node11 -->
<g id="Node000011" class="node">
<title>Node11</title>
<g id="a_Node000011"><a xlink:title=" ">
<polygon fill="#e0e0e0" stroke="#999999" points="380.51,-19 315.51,-19 315.51,0 380.51,0 380.51,-19"/>
<text text-anchor="middle" x="348.01" y="-7" font-family="Helvetica,sans-Serif" font-size="10.00">stdexcept</text>
</a>
</g>
</g>
<!-- Node9&#45;&gt;Node11 -->
<g id="edge13_Node000009_Node000011" class="edge">
<title>Node9&#45;&gt;Node11</title>
<g id="a_edge13_Node000009_Node000011"><a xlink:title=" ">
<path fill="none" stroke="#63b8ff" d="M410.12,-54.98C398.86,-46.92 381.72,-34.65 368.3,-25.03"/>
<polygon fill="#63b8ff" stroke="#63b8ff" points="370.29,-22.15 360.12,-19.17 366.21,-27.84 370.29,-22.15"/>
</a>
</g>
</g>
<!-- Node12 -->
<g id="Node000012" class="node">
<title>Node12</title>
<g id="a_Node000012"><a xlink:title=" ">
<polygon fill="#e0e0e0" stroke="#999999" points="445.51,-19 398.51,-19 398.51,0 445.51,0 445.51,-19"/>
<text text-anchor="middle" x="422.01" y="-7" font-family="Helvetica,sans-Serif" font-size="10.00">vector</text>
</a>
</g>
</g>
<!-- Node9&#45;&gt;Node12 -->
<g id="edge15_Node000009_Node000012" class="edge">
<title>Node9&#45;&gt;Node12</title>
<g id="a_edge15_Node000009_Node000012"><a xlink:title=" ">
<path fill="none" stroke="#63b8ff" d="M422.01,-54.75C422.01,-47.8 422.01,-37.85 422.01,-29.13"/>
<polygon fill="#63b8ff" stroke="#63b8ff" points="425.51,-29.09 422.01,-19.09 418.51,-29.09 425.51,-29.09"/>
</a>
</g>
</g>
</g>
</svg>
