<?xml version="1.0" encoding="UTF-8" standalone="no"?>
<!DOCTYPE svg PUBLIC "-//W3C//DTD SVG 1.1//EN"
 "http://www.w3.org/Graphics/SVG/1.1/DTD/svg11.dtd">
<!-- Generated by graphviz version 2.43.0 (0)
 -->
<!-- Title: src/client/file_io.cpp Pages: 1 -->
<svg width="697pt" height="247pt"
 viewBox="0.00 0.00 697.46 247.00" xmlns="http://www.w3.org/2000/svg" xmlns:xlink="http://www.w3.org/1999/xlink">
<g id="graph0" class="graph" transform="scale(1 1) rotate(0) translate(4 243)">
<title>src/client/file_io.cpp</title>
<!-- Node1 -->
<g id="Node000001" class="node">
<title>Node1</title>
<g id="a_Node000001"><a xlink:title=" ">
<polygon fill="#999999" stroke="#666666" points="278.5,-239 165.5,-239 165.5,-220 278.5,-220 278.5,-239"/>
<text text-anchor="middle" x="222" y="-227" font-family="Helvetica,sans-Serif" font-size="10.00">src/client/file_io.cpp</text>
</a>
</g>
</g>
<!-- Node2 -->
<g id="Node000002" class="node">
<title>Node2</title>
<g id="a_Node000002"><a xlink:title=" ">
<polygon fill="#e0e0e0" stroke="#999999" points="50,-184 0,-184 0,-165 50,-165 50,-184"/>
<text text-anchor="middle" x="25" y="-172" font-family="Helvetica,sans-Serif" font-size="10.00">cstring</text>
</a>
</g>
</g>
<!-- Node1&#45;&gt;Node2 -->
<g id="edge1_Node000001_Node000002" class="edge">
<title>Node1&#45;&gt;Node2</title>
<g id="a_edge1_Node000001_Node000002"><a xlink:title=" ">
<path fill="none" stroke="#63b8ff" d="M190.35,-219.98C154.66,-210.38 96.8,-194.82 59.84,-184.87"/>
<polygon fill="#63b8ff" stroke="#63b8ff" points="60.58,-181.45 50.01,-182.23 58.76,-188.21 60.58,-181.45"/>
</a>
</g>
</g>
<!-- Node3 -->
<g id="Node000003" class="node">
<title>Node3</title>
<g id="a_Node000003"><a xlink:title=" ">
<polygon fill="#e0e0e0" stroke="#999999" points="115.5,-184 68.5,-184 68.5,-165 115.5,-165 115.5,-184"/>
<text text-anchor="middle" x="92" y="-172" font-family="Helvetica,sans-Serif" font-size="10.00">fcntl.h</text>
</a>
</g>
</g>
<!-- Node1&#45;&gt;Node3 -->
<g id="edge2_Node000001_Node000003" class="edge">
<title>Node1&#45;&gt;Node3</title>
<g id="a_edge2_Node000001_Node000003"><a xlink:title=" ">
<path fill="none" stroke="#63b8ff" d="M201.11,-219.98C179.92,-211.34 146.87,-197.87 122.7,-188.02"/>
<polygon fill="#63b8ff" stroke="#63b8ff" points="123.85,-184.7 113.27,-184.17 121.21,-191.19 123.85,-184.7"/>
</a>
</g>
</g>
<!-- Node4 -->
<g id="Node000004" class="node">
<title>Node4</title>
<g id="a_Node000004"><a xlink:title=" ">
<polygon fill="#e0e0e0" stroke="#999999" points="194,-184 134,-184 134,-165 194,-165 194,-184"/>
<text text-anchor="middle" x="164" y="-172" font-family="Helvetica,sans-Serif" font-size="10.00">iostream</text>
</a>
</g>
</g>
<!-- Node1&#45;&gt;Node4 -->
<g id="edge3_Node000001_Node000004" class="edge">
<title>Node1&#45;&gt;Node4</title>
<g id="a_edge3_Node000001_Node000004"><a xlink:title=" ">
<path fill="none" stroke="#63b8ff" d="M212.68,-219.98C204.19,-212.23 191.44,-200.58 181.12,-191.14"/>
<polygon fill="#63b8ff" stroke="#63b8ff" points="183.23,-188.33 173.49,-184.17 178.51,-193.5 183.23,-188.33"/>
</a>
</g>
</g>
<!-- Node5 -->
<g id="Node000005" class="node">
<title>Node5</title>
<g id="a_Node000005"><a xlink:title=" ">
<polygon fill="#e0e0e0" stroke="#999999" points="305,-19 249,-19 249,0 305,0 305,-19"/>
<text text-anchor="middle" x="277" y="-7" font-family="Helvetica,sans-Serif" font-size="10.00">sstream</text>
</a>
</g>
</g>
<!-- Node1&#45;&gt;Node5 -->
<g id="edge4_Node000001_Node000005" class="edge">
<title>Node1&#45;&gt;Node5</title>
<g id="a_edge4_Node000001_Node000005"><a xlink:title=" ">
<path fill="none" stroke="#63b8ff" d="M221.28,-219.77C219.45,-193.61 216.42,-114.02 241,-55 245.42,-44.38 253.21,-34.26 260.41,-26.37"/>
<polygon fill="#63b8ff" stroke="#63b8ff" points="263.09,-28.63 267.54,-19.01 258.07,-23.76 263.09,-28.63"/>
</a>
</g>
</g>
<!-- Node6 -->
<g id="Node000006" class="node">
<title>Node6</title>
<g id="a_Node000006"><a xlink:title=" ">
<polygon fill="#e0e0e0" stroke="#999999" points="430,-184 374,-184 374,-165 430,-165 430,-184"/>
<text text-anchor="middle" x="402" y="-172" font-family="Helvetica,sans-Serif" font-size="10.00">unistd.h</text>
</a>
</g>
</g>
<!-- Node1&#45;&gt;Node6 -->
<g id="edge5_Node000001_Node000006" class="edge">
<title>Node1&#45;&gt;Node6</title>
<g id="a_edge5_Node000001_Node000006"><a xlink:title=" ">
<path fill="none" stroke="#63b8ff" d="M250.92,-219.98C281.54,-210.97 330.02,-196.69 363.78,-186.75"/>
<polygon fill="#63b8ff" stroke="#63b8ff" points="365.14,-190 373.75,-183.82 363.16,-183.29 365.14,-190"/>
</a>
</g>
</g>
<!-- Node7 -->
<g id="Node000007" class="node">
<title>Node7</title>
<g id="a_Node000007"><a xlink:href="hash_8hpp.html" target="_top" xlink:title=" ">
<polygon fill="white" stroke="#666666" points="631.5,-129 570.5,-129 570.5,-110 631.5,-110 631.5,-129"/>
<text text-anchor="middle" x="601" y="-117" font-family="Helvetica,sans-Serif" font-size="10.00">hash.hpp</text>
</a>
</g>
</g>
<!-- Node1&#45;&gt;Node7 -->
<g id="edge6_Node000001_Node000007" class="edge">
<title>Node1&#45;&gt;Node7</title>
<g id="a_edge6_Node000001_Node000007"><a xlink:title=" ">
<path fill="none" stroke="#63b8ff" d="M243.49,-219.85C264.83,-211.16 298.42,-197.19 327,-184 344.15,-176.09 347.11,-171.03 365,-165 431.44,-142.61 512.43,-130.43 560.18,-124.71"/>
<polygon fill="#63b8ff" stroke="#63b8ff" points="560.61,-128.19 570.14,-123.56 559.8,-121.24 560.61,-128.19"/>
</a>
</g>
</g>
<!-- Node9 -->
<g id="Node000009" class="node">
<title>Node9</title>
<g id="a_Node000009"><a xlink:href="file__io_8hpp.html" target="_top" xlink:title=" ">
<polygon fill="white" stroke="#666666" points="317.5,-184 250.5,-184 250.5,-165 317.5,-165 317.5,-184"/>
<text text-anchor="middle" x="284" y="-172" font-family="Helvetica,sans-Serif" font-size="10.00">file_io.hpp</text>
</a>
</g>
</g>
<!-- Node1&#45;&gt;Node9 -->
<g id="edge8_Node000001_Node000009" class="edge">
<title>Node1&#45;&gt;Node9</title>
<g id="a_edge8_Node000001_Node000009"><a xlink:title=" ">
<path fill="none" stroke="#63b8ff" d="M231.96,-219.98C241.13,-212.15 254.94,-200.34 266.03,-190.86"/>
<polygon fill="#63b8ff" stroke="#63b8ff" points="268.53,-193.33 273.86,-184.17 263.98,-188.01 268.53,-193.33"/>
</a>
</g>
</g>
<!-- Node8 -->
<g id="Node000008" class="node">
<title>Node8</title>
<g id="a_Node000008"><a xlink:title=" ">
<polygon fill="#e0e0e0" stroke="#999999" points="584,-19 540,-19 540,0 584,0 584,-19"/>
<text text-anchor="middle" x="562" y="-7" font-family="Helvetica,sans-Serif" font-size="10.00">string</text>
</a>
</g>
</g>
<!-- Node7&#45;&gt;Node8 -->
<g id="edge7_Node000007_Node000008" class="edge">
<title>Node7&#45;&gt;Node8</title>
<g id="a_edge7_Node000007_Node000008"><a xlink:title=" ">
<path fill="none" stroke="#63b8ff" d="M630.48,-109.97C661.2,-99.52 702.59,-80.07 685,-55 664.67,-26.03 623.5,-15.84 594.41,-12.3"/>
<polygon fill="#63b8ff" stroke="#63b8ff" points="594.6,-8.8 584.29,-11.28 593.89,-15.77 594.6,-8.8"/>
</a>
</g>
</g>
<!-- Node10 -->
<g id="Node000010" class="node">
<title>Node10</title>
<g id="a_Node000010"><a xlink:title=" ">
<polygon fill="#e0e0e0" stroke="#999999" points="308,-74 250,-74 250,-55 308,-55 308,-74"/>
<text text-anchor="middle" x="279" y="-62" font-family="Helvetica,sans-Serif" font-size="10.00">memory</text>
</a>
</g>
</g>
<!-- Node9&#45;&gt;Node10 -->
<g id="edge9_Node000009_Node000010" class="edge">
<title>Node9&#45;&gt;Node10</title>
<g id="a_edge9_Node000009_Node000010"><a xlink:title=" ">
<path fill="none" stroke="#63b8ff" d="M283.59,-164.66C282.78,-147.17 280.96,-107.8 279.87,-84.27"/>
<polygon fill="#63b8ff" stroke="#63b8ff" points="283.36,-83.99 279.4,-74.16 276.37,-84.31 283.36,-83.99"/>
</a>
</g>
</g>
<!-- Node11 -->
<g id="Node000011" class="node">
<title>Node11</title>
<g id="a_Node000011"><a xlink:href="file_8hpp.html" target="_top" xlink:title=" ">
<polygon fill="white" stroke="#666666" points="450.5,-129 349.5,-129 349.5,-110 450.5,-110 450.5,-129"/>
<text text-anchor="middle" x="400" y="-117" font-family="Helvetica,sans-Serif" font-size="10.00">../models/file.hpp</text>
</a>
</g>
</g>
<!-- Node9&#45;&gt;Node11 -->
<g id="edge10_Node000009_Node000011" class="edge">
<title>Node9&#45;&gt;Node11</title>
<g id="a_edge10_Node000009_Node000011"><a xlink:title=" ">
<path fill="none" stroke="#63b8ff" d="M302.64,-164.98C321.3,-156.46 350.25,-143.23 371.74,-133.41"/>
<polygon fill="#63b8ff" stroke="#63b8ff" points="373.38,-136.51 381.02,-129.17 370.47,-130.14 373.38,-136.51"/>
</a>
</g>
</g>
<!-- Node16 -->
<g id="Node000016" class="node">
<title>Node16</title>
<g id="a_Node000016"><a xlink:href="fileinfo_8hpp.html" target="_top" xlink:title=" ">
<polygon fill="white" stroke="#666666" points="435.5,-74 364.5,-74 364.5,-55 435.5,-55 435.5,-74"/>
<text text-anchor="middle" x="400" y="-62" font-family="Helvetica,sans-Serif" font-size="10.00">fileinfo.hpp</text>
</a>
</g>
</g>
<!-- Node9&#45;&gt;Node16 -->
<g id="edge24_Node000009_Node000016" class="edge">
<title>Node9&#45;&gt;Node16</title>
<g id="a_edge24_Node000009_Node000016"><a xlink:title=" ">
<path fill="none" stroke="#63b8ff" d="M290.89,-164.8C301.16,-152.1 321.36,-128.03 341,-110 352.9,-99.08 367.37,-88.13 378.99,-79.83"/>
<polygon fill="#63b8ff" stroke="#63b8ff" points="381.07,-82.65 387.25,-74.04 377.05,-76.92 381.07,-82.65"/>
</a>
</g>
</g>
<!-- Node11&#45;&gt;Node5 -->
<g id="edge13_Node000011_Node000005" class="edge">
<title>Node11&#45;&gt;Node5</title>
<g id="a_edge13_Node000011_Node000005"><a xlink:title=" ">
<path fill="none" stroke="#63b8ff" d="M389.93,-109.66C369.02,-91.3 320.63,-48.81 294.5,-25.87"/>
<polygon fill="#63b8ff" stroke="#63b8ff" points="296.68,-23.13 286.86,-19.16 292.07,-28.39 296.68,-23.13"/>
</a>
</g>
</g>
<!-- Node11&#45;&gt;Node8 -->
<g id="edge12_Node000011_Node000008" class="edge">
<title>Node11&#45;&gt;Node8</title>
<g id="a_edge12_Node000011_Node000008"><a xlink:title=" ">
<path fill="none" stroke="#63b8ff" d="M450.82,-114.52C481.32,-109.55 518.77,-98.49 543,-74 554.75,-62.12 559.28,-43.29 561.01,-29.22"/>
<polygon fill="#63b8ff" stroke="#63b8ff" points="564.5,-29.43 561.87,-19.17 557.53,-28.83 564.5,-29.43"/>
</a>
</g>
</g>
<!-- Node11&#45;&gt;Node10 -->
<g id="edge11_Node000011_Node000010" class="edge">
<title>Node11&#45;&gt;Node10</title>
<g id="a_edge11_Node000011_Node000010"><a xlink:title=" ">
<path fill="none" stroke="#63b8ff" d="M380.56,-109.98C361.01,-101.42 330.62,-88.11 308.18,-78.28"/>
<polygon fill="#63b8ff" stroke="#63b8ff" points="309.36,-74.98 298.79,-74.17 306.55,-81.39 309.36,-74.98"/>
</a>
</g>
</g>
<!-- Node12 -->
<g id="Node000012" class="node">
<title>Node12</title>
<g id="a_Node000012"><a xlink:title=" ">
<polygon fill="#e0e0e0" stroke="#999999" points="676,-74 590,-74 590,-55 676,-55 676,-74"/>
<text text-anchor="middle" x="633" y="-62" font-family="Helvetica,sans-Serif" font-size="10.00">unordered_set</text>
</a>
</g>
</g>
<!-- Node11&#45;&gt;Node12 -->
<g id="edge14_Node000011_Node000012" class="edge">
<title>Node11&#45;&gt;Node12</title>
<g id="a_edge14_Node000011_Node000012"><a xlink:title=" ">
<path fill="none" stroke="#63b8ff" d="M437.44,-109.98C477.65,-100.84 541.68,-86.27 585.44,-76.32"/>
<polygon fill="#63b8ff" stroke="#63b8ff" points="586.3,-79.71 595.27,-74.08 584.74,-72.89 586.3,-79.71"/>
</a>
</g>
</g>
<!-- Node13 -->
<g id="Node000013" class="node">
<title>Node13</title>
<g id="a_Node000013"><a xlink:href="endpoint_8hpp.html" target="_top" xlink:title=" ">
<polygon fill="white" stroke="#666666" points="534,-74 454,-74 454,-55 534,-55 534,-74"/>
<text text-anchor="middle" x="494" y="-62" font-family="Helvetica,sans-Serif" font-size="10.00">endpoint.hpp</text>
</a>
</g>
</g>
<!-- Node11&#45;&gt;Node13 -->
<g id="edge15_Node000011_Node000013" class="edge">
<title>Node11&#45;&gt;Node13</title>
<g id="a_edge15_Node000011_Node000013"><a xlink:title=" ">
<path fill="none" stroke="#63b8ff" d="M415.1,-109.98C429.82,-101.69 452.42,-88.94 469.67,-79.22"/>
<polygon fill="#63b8ff" stroke="#63b8ff" points="471.63,-82.13 478.62,-74.17 468.19,-76.03 471.63,-82.13"/>
</a>
</g>
</g>
<!-- Node11&#45;&gt;Node16 -->
<g id="edge19_Node000011_Node000016" class="edge">
<title>Node11&#45;&gt;Node16</title>
<g id="a_edge19_Node000011_Node000016"><a xlink:title=" ">
<path fill="none" stroke="#63b8ff" d="M400,-109.75C400,-102.8 400,-92.85 400,-84.13"/>
<polygon fill="#63b8ff" stroke="#63b8ff" points="403.5,-84.09 400,-74.09 396.5,-84.09 403.5,-84.09"/>
</a>
</g>
</g>
<!-- Node13&#45;&gt;Node8 -->
<g id="edge18_Node000013_Node000008" class="edge">
<title>Node13&#45;&gt;Node8</title>
<g id="a_edge18_Node000013_Node000008"><a xlink:title=" ">
<path fill="none" stroke="#63b8ff" d="M504.93,-54.98C515.08,-47.07 530.42,-35.11 542.65,-25.58"/>
<polygon fill="#63b8ff" stroke="#63b8ff" points="545.14,-28.08 550.88,-19.17 540.84,-22.56 545.14,-28.08"/>
</a>
</g>
</g>
<!-- Node14 -->
<g id="Node000014" class="node">
<title>Node14</title>
<g id="a_Node000014"><a xlink:title=" ">
<polygon fill="#e0e0e0" stroke="#999999" points="522,-19 472,-19 472,0 522,0 522,-19"/>
<text text-anchor="middle" x="497" y="-7" font-family="Helvetica,sans-Serif" font-size="10.00">cstdint</text>
</a>
</g>
</g>
<!-- Node13&#45;&gt;Node14 -->
<g id="edge16_Node000013_Node000014" class="edge">
<title>Node13&#45;&gt;Node14</title>
<g id="a_edge16_Node000013_Node000014"><a xlink:title=" ">
<path fill="none" stroke="#63b8ff" d="M494.5,-54.75C494.89,-47.8 495.45,-37.85 495.95,-29.13"/>
<polygon fill="#63b8ff" stroke="#63b8ff" points="499.44,-29.27 496.51,-19.09 492.45,-28.88 499.44,-29.27"/>
</a>
</g>
</g>
<!-- Node15 -->
<g id="Node000015" class="node">
<title>Node15</title>
<g id="a_Node000015"><a xlink:title=" ">
<polygon fill="#e0e0e0" stroke="#999999" points="453.5,-19 388.5,-19 388.5,0 453.5,0 453.5,-19"/>
<text text-anchor="middle" x="421" y="-7" font-family="Helvetica,sans-Serif" font-size="10.00">stdexcept</text>
</a>
</g>
</g>
<!-- Node13&#45;&gt;Node15 -->
<g id="edge17_Node000013_Node000015" class="edge">
<title>Node13&#45;&gt;Node15</title>
<g id="a_edge17_Node000013_Node000015"><a xlink:title=" ">
<path fill="none" stroke="#63b8ff" d="M482.27,-54.98C471.27,-47 454.58,-34.88 441.4,-25.31"/>
<polygon fill="#63b8ff" stroke="#63b8ff" points="443.09,-22.21 432.94,-19.17 438.98,-27.88 443.09,-22.21"/>
</a>
</g>
</g>
<!-- Node16&#45;&gt;Node5 -->
<g id="edge20_Node000016_Node000005" class="edge">
<title>Node16&#45;&gt;Node5</title>
<g id="a_edge20_Node000016_Node000005"><a xlink:title=" ">
<path fill="none" stroke="#63b8ff" d="M380.24,-54.98C360.27,-46.38 329.2,-32.99 306.35,-23.15"/>
<polygon fill="#63b8ff" stroke="#63b8ff" points="307.69,-19.91 297.12,-19.17 304.92,-26.34 307.69,-19.91"/>
</a>
</g>
</g>
<!-- Node16&#45;&gt;Node8 -->
<g id="edge22_Node000016_Node000008" class="edge">
<title>Node16&#45;&gt;Node8</title>
<g id="a_edge22_Node000016_Node000008"><a xlink:title=" ">
<path fill="none" stroke="#63b8ff" d="M426.03,-54.98C454.31,-45.73 499.53,-30.94 529.98,-20.98"/>
<polygon fill="#63b8ff" stroke="#63b8ff" points="531.27,-24.24 539.69,-17.8 529.09,-17.58 531.27,-24.24"/>
</a>
</g>
</g>
<!-- Node16&#45;&gt;Node15 -->
<g id="edge21_Node000016_Node000015" class="edge">
<title>Node16&#45;&gt;Node15</title>
<g id="a_edge21_Node000016_Node000015"><a xlink:title=" ">
<path fill="none" stroke="#63b8ff" d="M403.47,-54.75C406.28,-47.65 410.34,-37.4 413.85,-28.56"/>
<polygon fill="#63b8ff" stroke="#63b8ff" points="417.17,-29.68 417.6,-19.09 410.66,-27.1 417.17,-29.68"/>
</a>
</g>
</g>
<!-- Node17 -->
<g id="Node000017" class="node">
<title>Node17</title>
<g id="a_Node000017"><a xlink:title=" ">
<polygon fill="#e0e0e0" stroke="#999999" points="370.5,-19 323.5,-19 323.5,0 370.5,0 370.5,-19"/>
<text text-anchor="middle" x="347" y="-7" font-family="Helvetica,sans-Serif" font-size="10.00">vector</text>
</a>
</g>
</g>
<!-- Node16&#45;&gt;Node17 -->
<g id="edge23_Node000016_Node000017" class="edge">
<title>Node16&#45;&gt;Node17</title>
<g id="a_edge23_Node000016_Node000017"><a xlink:title=" ">
<path fill="none" stroke="#63b8ff" d="M391.25,-54.75C383.53,-47.03 372.1,-35.6 362.78,-26.28"/>
<polygon fill="#63b8ff" stroke="#63b8ff" points="365.14,-23.69 355.59,-19.09 360.19,-28.64 365.14,-23.69"/>
</a>
</g>
</g>
</g>
</svg>
