<?xml version="1.0" encoding="UTF-8" standalone="no"?>
<!DOCTYPE svg PUBLIC "-//W3C//DTD SVG 1.1//EN"
 "http://www.w3.org/Graphics/SVG/1.1/DTD/svg11.dtd">
<!-- Generated by graphviz version 2.43.0 (0)
 -->
<!-- Title: src/common/generate_id.cpp Pages: 1 -->
<svg width="221pt" height="148pt"
 viewBox="0.00 0.00 221.00 148.00" xmlns="http://www.w3.org/2000/svg" xmlns:xlink="http://www.w3.org/1999/xlink">
<g id="graph0" class="graph" transform="scale(1 1) rotate(0) translate(4 144)">
<title>src/common/generate_id.cpp</title>
<!-- Node1 -->
<g id="Node000001" class="node">
<title>Node1</title>
<g id="a_Node000001"><a xlink:title=" ">
<polygon fill="#999999" stroke="#666666" points="170.5,-140 47.5,-140 47.5,-110 170.5,-110 170.5,-140"/>
<text text-anchor="start" x="55.5" y="-128" font-family="Helvetica,sans-Serif" font-size="10.00">src/common/generate</text>
<text text-anchor="middle" x="109" y="-117" font-family="Helvetica,sans-Serif" font-size="10.00">_id.cpp</text>
</a>
</g>
</g>
<!-- Node2 -->
<g id="Node000002" class="node">
<title>Node2</title>
<g id="a_Node000002"><a xlink:title=" ">
<polygon fill="#e0e0e0" stroke="#999999" points="50,-19 0,-19 0,0 50,0 50,-19"/>
<text text-anchor="middle" x="25" y="-7" font-family="Helvetica,sans-Serif" font-size="10.00">cstdint</text>
</a>
</g>
</g>
<!-- Node1&#45;&gt;Node2 -->
<g id="edge1_Node000001_Node000002" class="edge">
<title>Node1&#45;&gt;Node2</title>
<g id="a_edge1_Node000001_Node000002"><a xlink:title=" ">
<path fill="none" stroke="#63b8ff" d="M77.89,-110C62.9,-101.67 46.04,-89.64 36,-74 27.4,-60.61 24.96,-42.51 24.49,-29.06"/>
<polygon fill="#63b8ff" stroke="#63b8ff" points="27.99,-29.05 24.47,-19.06 20.99,-29.06 27.99,-29.05"/>
</a>
</g>
</g>
<!-- Node3 -->
<g id="Node000003" class="node">
<title>Node3</title>
<g id="a_Node000003"><a xlink:title=" ">
<polygon fill="#e0e0e0" stroke="#999999" points="213,-19 169,-19 169,0 213,0 213,-19"/>
<text text-anchor="middle" x="191" y="-7" font-family="Helvetica,sans-Serif" font-size="10.00">string</text>
</a>
</g>
</g>
<!-- Node1&#45;&gt;Node3 -->
<g id="edge2_Node000001_Node000003" class="edge">
<title>Node1&#45;&gt;Node3</title>
<g id="a_edge2_Node000001_Node000003"><a xlink:title=" ">
<path fill="none" stroke="#63b8ff" d="M140.69,-109.92C155.63,-101.63 172.28,-89.66 182,-74 190.27,-60.68 192.16,-42.81 192.2,-29.42"/>
<polygon fill="#63b8ff" stroke="#63b8ff" points="195.68,-28.92 191.86,-19.03 188.68,-29.14 195.68,-28.92"/>
</a>
</g>
</g>
<!-- Node4 -->
<g id="Node000004" class="node">
<title>Node4</title>
<g id="a_Node000004"><a xlink:href="endpoint_8hpp.html" target="_top" xlink:title=" ">
<polygon fill="white" stroke="#666666" points="173,-74 45,-74 45,-55 173,-55 173,-74"/>
<text text-anchor="middle" x="109" y="-62" font-family="Helvetica,sans-Serif" font-size="10.00">../models/endpoint.hpp</text>
</a>
</g>
</g>
<!-- Node1&#45;&gt;Node4 -->
<g id="edge3_Node000001_Node000004" class="edge">
<title>Node1&#45;&gt;Node4</title>
<g id="a_edge3_Node000001_Node000004"><a xlink:title=" ">
<path fill="none" stroke="#63b8ff" d="M109,-109.84C109,-102.21 109,-92.7 109,-84.45"/>
<polygon fill="#63b8ff" stroke="#63b8ff" points="112.5,-84.27 109,-74.27 105.5,-84.27 112.5,-84.27"/>
</a>
</g>
</g>
<!-- Node4&#45;&gt;Node2 -->
<g id="edge4_Node000004_Node000002" class="edge">
<title>Node4&#45;&gt;Node2</title>
<g id="a_edge4_Node000004_Node000002"><a xlink:title=" ">
<path fill="none" stroke="#63b8ff" d="M95.5,-54.98C82.6,-46.84 62.9,-34.41 47.6,-24.76"/>
<polygon fill="#63b8ff" stroke="#63b8ff" points="49.07,-21.55 38.74,-19.17 45.33,-27.47 49.07,-21.55"/>
</a>
</g>
</g>
<!-- Node4&#45;&gt;Node3 -->
<g id="edge6_Node000004_Node000003" class="edge">
<title>Node4&#45;&gt;Node3</title>
<g id="a_edge6_Node000004_Node000003"><a xlink:title=" ">
<path fill="none" stroke="#63b8ff" d="M122.17,-54.98C134.77,-46.84 154,-34.41 168.94,-24.76"/>
<polygon fill="#63b8ff" stroke="#63b8ff" points="171.09,-27.54 177.59,-19.17 167.29,-21.66 171.09,-27.54"/>
</a>
</g>
</g>
<!-- Node5 -->
<g id="Node000005" class="node">
<title>Node5</title>
<g id="a_Node000005"><a xlink:title=" ">
<polygon fill="#e0e0e0" stroke="#999999" points="141.5,-19 76.5,-19 76.5,0 141.5,0 141.5,-19"/>
<text text-anchor="middle" x="109" y="-7" font-family="Helvetica,sans-Serif" font-size="10.00">stdexcept</text>
</a>
</g>
</g>
<!-- Node4&#45;&gt;Node5 -->
<g id="edge5_Node000004_Node000005" class="edge">
<title>Node4&#45;&gt;Node5</title>
<g id="a_edge5_Node000004_Node000005"><a xlink:title=" ">
<path fill="none" stroke="#63b8ff" d="M109,-54.75C109,-47.8 109,-37.85 109,-29.13"/>
<polygon fill="#63b8ff" stroke="#63b8ff" points="112.5,-29.09 109,-19.09 105.5,-29.09 112.5,-29.09"/>
</a>
</g>
</g>
</g>
</svg>
