<?xml version="1.0" encoding="UTF-8" standalone="no"?>
<!DOCTYPE svg PUBLIC "-//W3C//DTD SVG 1.1//EN"
 "http://www.w3.org/Graphics/SVG/1.1/DTD/svg11.dtd">
<!-- Generated by graphviz version 2.43.0 (0)
 -->
<!-- Title: src/models/group.hpp Pages: 1 -->
<svg width="548pt" height="192pt"
 viewBox="0.00 0.00 548.00 192.00" xmlns="http://www.w3.org/2000/svg" xmlns:xlink="http://www.w3.org/1999/xlink">
<g id="graph0" class="graph" transform="scale(1 1) rotate(0) translate(4 188)">
<title>src/models/group.hpp</title>
<!-- Node1 -->
<g id="Node000001" class="node">
<title>Node1</title>
<g id="a_Node000001"><a xlink:title=" ">
<polygon fill="#999999" stroke="#666666" points="284,-184 162,-184 162,-165 284,-165 284,-184"/>
<text text-anchor="middle" x="223" y="-172" font-family="Helvetica,sans-Serif" font-size="10.00">src/models/group.hpp</text>
</a>
</g>
</g>
<!-- Node2 -->
<g id="Node000002" class="node">
<title>Node2</title>
<g id="a_Node000002"><a xlink:title=" ">
<polygon fill="#e0e0e0" stroke="#999999" points="172,-74 114,-74 114,-55 172,-55 172,-74"/>
<text text-anchor="middle" x="143" y="-62" font-family="Helvetica,sans-Serif" font-size="10.00">memory</text>
</a>
</g>
</g>
<!-- Node1&#45;&gt;Node2 -->
<g id="edge1_Node000001_Node000002" class="edge">
<title>Node1&#45;&gt;Node2</title>
<g id="a_edge1_Node000001_Node000002"><a xlink:title=" ">
<path fill="none" stroke="#63b8ff" d="M216.45,-164.66C203.14,-146.69 172.73,-105.64 155.51,-82.38"/>
<polygon fill="#63b8ff" stroke="#63b8ff" points="158.18,-80.11 149.41,-74.16 152.55,-84.28 158.18,-80.11"/>
</a>
</g>
</g>
<!-- Node3 -->
<g id="Node000003" class="node">
<title>Node3</title>
<g id="a_Node000003"><a xlink:title=" ">
<polygon fill="#e0e0e0" stroke="#999999" points="169,-19 125,-19 125,0 169,0 169,-19"/>
<text text-anchor="middle" x="147" y="-7" font-family="Helvetica,sans-Serif" font-size="10.00">string</text>
</a>
</g>
</g>
<!-- Node1&#45;&gt;Node3 -->
<g id="edge2_Node000001_Node000003" class="edge">
<title>Node1&#45;&gt;Node3</title>
<g id="a_edge2_Node000001_Node000003"><a xlink:title=" ">
<path fill="none" stroke="#63b8ff" d="M205.18,-164.93C177.65,-150.55 125.78,-118.71 105,-74 96.8,-56.37 111.9,-38.03 126.22,-25.62"/>
<polygon fill="#63b8ff" stroke="#63b8ff" points="128.79,-28.04 134.39,-19.05 124.4,-22.59 128.79,-28.04"/>
</a>
</g>
</g>
<!-- Node4 -->
<g id="Node000004" class="node">
<title>Node4</title>
<g id="a_Node000004"><a xlink:title=" ">
<polygon fill="#e0e0e0" stroke="#999999" points="540,-74 454,-74 454,-55 540,-55 540,-74"/>
<text text-anchor="middle" x="497" y="-62" font-family="Helvetica,sans-Serif" font-size="10.00">unordered_set</text>
</a>
</g>
</g>
<!-- Node1&#45;&gt;Node4 -->
<g id="edge3_Node000001_Node000004" class="edge">
<title>Node1&#45;&gt;Node4</title>
<g id="a_edge3_Node000001_Node000004"><a xlink:title=" ">
<path fill="none" stroke="#63b8ff" d="M245.3,-164.84C268.29,-155.9 305.17,-141.53 337,-129 381.99,-111.29 434.01,-90.61 466.21,-77.78"/>
<polygon fill="#63b8ff" stroke="#63b8ff" points="467.54,-81.02 475.54,-74.06 464.95,-74.51 467.54,-81.02"/>
</a>
</g>
</g>
<!-- Node5 -->
<g id="Node000005" class="node">
<title>Node5</title>
<g id="a_Node000005"><a xlink:href="endpoint_8hpp.html" target="_top" xlink:title=" ">
<polygon fill="white" stroke="#666666" points="308,-74 228,-74 228,-55 308,-55 308,-74"/>
<text text-anchor="middle" x="268" y="-62" font-family="Helvetica,sans-Serif" font-size="10.00">endpoint.hpp</text>
</a>
</g>
</g>
<!-- Node1&#45;&gt;Node5 -->
<g id="edge4_Node000001_Node000005" class="edge">
<title>Node1&#45;&gt;Node5</title>
<g id="a_edge4_Node000001_Node000005"><a xlink:title=" ">
<path fill="none" stroke="#63b8ff" d="M225.16,-164.67C228.35,-152.21 234.83,-128.88 243,-110 247,-100.75 252.39,-90.93 257.13,-82.88"/>
<polygon fill="#63b8ff" stroke="#63b8ff" points="260.27,-84.46 262.47,-74.09 254.29,-80.82 260.27,-84.46"/>
</a>
</g>
</g>
<!-- Node8 -->
<g id="Node000008" class="node">
<title>Node8</title>
<g id="a_Node000008"><a xlink:href="file_8hpp.html" target="_top" xlink:title=" ">
<polygon fill="white" stroke="#666666" points="304.5,-129 251.5,-129 251.5,-110 304.5,-110 304.5,-129"/>
<text text-anchor="middle" x="278" y="-117" font-family="Helvetica,sans-Serif" font-size="10.00">file.hpp</text>
</a>
</g>
</g>
<!-- Node1&#45;&gt;Node8 -->
<g id="edge8_Node000001_Node000008" class="edge">
<title>Node1&#45;&gt;Node8</title>
<g id="a_edge8_Node000001_Node000008"><a xlink:title=" ">
<path fill="none" stroke="#63b8ff" d="M232.08,-164.75C240.09,-157.03 251.96,-145.6 261.62,-136.28"/>
<polygon fill="#63b8ff" stroke="#63b8ff" points="264.31,-138.55 269.09,-129.09 259.46,-133.51 264.31,-138.55"/>
</a>
</g>
</g>
<!-- Node10 -->
<g id="Node000010" class="node">
<title>Node10</title>
<g id="a_Node000010"><a xlink:href="fileinfo_8hpp.html" target="_top" xlink:title=" ">
<polygon fill="white" stroke="#666666" points="397.5,-74 326.5,-74 326.5,-55 397.5,-55 397.5,-74"/>
<text text-anchor="middle" x="362" y="-62" font-family="Helvetica,sans-Serif" font-size="10.00">fileinfo.hpp</text>
</a>
</g>
</g>
<!-- Node1&#45;&gt;Node10 -->
<g id="edge19_Node000001_Node000010" class="edge">
<title>Node1&#45;&gt;Node10</title>
<g id="a_edge19_Node000001_Node000010"><a xlink:title=" ">
<path fill="none" stroke="#63b8ff" d="M247.99,-164.96C267.37,-157.51 294.18,-145.33 314,-129 329.77,-116.01 343.34,-96.84 351.99,-82.96"/>
<polygon fill="#63b8ff" stroke="#63b8ff" points="355.01,-84.72 357.15,-74.34 349.01,-81.12 355.01,-84.72"/>
</a>
</g>
</g>
<!-- Node12 -->
<g id="Node000012" class="node">
<title>Node12</title>
<g id="a_Node000012"><a xlink:href="user_8hpp.html" target="_top" xlink:title=" ">
<polygon fill="white" stroke="#666666" points="58,-129 0,-129 0,-110 58,-110 58,-129"/>
<text text-anchor="middle" x="29" y="-117" font-family="Helvetica,sans-Serif" font-size="10.00">user.hpp</text>
</a>
</g>
</g>
<!-- Node1&#45;&gt;Node12 -->
<g id="edge20_Node000001_Node000012" class="edge">
<title>Node1&#45;&gt;Node12</title>
<g id="a_edge20_Node000001_Node000012"><a xlink:title=" ">
<path fill="none" stroke="#63b8ff" d="M191.83,-164.98C158.15,-155.78 104.43,-141.11 67.98,-131.15"/>
<polygon fill="#63b8ff" stroke="#63b8ff" points="68.76,-127.73 58.19,-128.47 66.91,-134.49 68.76,-127.73"/>
</a>
</g>
</g>
<!-- Node5&#45;&gt;Node3 -->
<g id="edge7_Node000005_Node000003" class="edge">
<title>Node5&#45;&gt;Node3</title>
<g id="a_edge7_Node000005_Node000003"><a xlink:title=" ">
<path fill="none" stroke="#63b8ff" d="M248.56,-54.98C229.01,-46.42 198.62,-33.11 176.18,-23.28"/>
<polygon fill="#63b8ff" stroke="#63b8ff" points="177.36,-19.98 166.79,-19.17 174.55,-26.39 177.36,-19.98"/>
</a>
</g>
</g>
<!-- Node6 -->
<g id="Node000006" class="node">
<title>Node6</title>
<g id="a_Node000006"><a xlink:title=" ">
<polygon fill="#e0e0e0" stroke="#999999" points="237,-19 187,-19 187,0 237,0 237,-19"/>
<text text-anchor="middle" x="212" y="-7" font-family="Helvetica,sans-Serif" font-size="10.00">cstdint</text>
</a>
</g>
</g>
<!-- Node5&#45;&gt;Node6 -->
<g id="edge5_Node000005_Node000006" class="edge">
<title>Node5&#45;&gt;Node6</title>
<g id="a_edge5_Node000005_Node000006"><a xlink:title=" ">
<path fill="none" stroke="#63b8ff" d="M259,-54.98C250.81,-47.23 238.49,-35.58 228.53,-26.14"/>
<polygon fill="#63b8ff" stroke="#63b8ff" points="230.83,-23.5 221.16,-19.17 226.02,-28.59 230.83,-23.5"/>
</a>
</g>
</g>
<!-- Node7 -->
<g id="Node000007" class="node">
<title>Node7</title>
<g id="a_Node000007"><a xlink:title=" ">
<polygon fill="#e0e0e0" stroke="#999999" points="320.5,-19 255.5,-19 255.5,0 320.5,0 320.5,-19"/>
<text text-anchor="middle" x="288" y="-7" font-family="Helvetica,sans-Serif" font-size="10.00">stdexcept</text>
</a>
</g>
</g>
<!-- Node5&#45;&gt;Node7 -->
<g id="edge6_Node000005_Node000007" class="edge">
<title>Node5&#45;&gt;Node7</title>
<g id="a_edge6_Node000005_Node000007"><a xlink:title=" ">
<path fill="none" stroke="#63b8ff" d="M271.3,-54.75C273.98,-47.65 277.85,-37.4 281.19,-28.56"/>
<polygon fill="#63b8ff" stroke="#63b8ff" points="284.5,-29.68 284.76,-19.09 277.95,-27.21 284.5,-29.68"/>
</a>
</g>
</g>
<!-- Node8&#45;&gt;Node2 -->
<g id="edge9_Node000008_Node000002" class="edge">
<title>Node8&#45;&gt;Node2</title>
<g id="a_edge9_Node000008_Node000002"><a xlink:title=" ">
<path fill="none" stroke="#63b8ff" d="M256.31,-109.98C234.2,-101.3 199.68,-87.75 174.55,-77.88"/>
<polygon fill="#63b8ff" stroke="#63b8ff" points="175.67,-74.57 165.08,-74.17 173.11,-81.08 175.67,-74.57"/>
</a>
</g>
</g>
<!-- Node8&#45;&gt;Node3 -->
<g id="edge10_Node000008_Node000003" class="edge">
<title>Node8&#45;&gt;Node3</title>
<g id="a_edge10_Node000008_Node000003"><a xlink:title=" ">
<path fill="none" stroke="#63b8ff" d="M266.04,-109.9C253.97,-101.12 234.9,-86.98 219,-74 199.79,-58.32 178.58,-39.41 164.2,-26.33"/>
<polygon fill="#63b8ff" stroke="#63b8ff" points="166.32,-23.53 156.58,-19.37 161.6,-28.7 166.32,-23.53"/>
</a>
</g>
</g>
<!-- Node8&#45;&gt;Node4 -->
<g id="edge12_Node000008_Node000004" class="edge">
<title>Node8&#45;&gt;Node4</title>
<g id="a_edge12_Node000008_Node000004"><a xlink:title=" ">
<path fill="none" stroke="#63b8ff" d="M304.85,-112C341.41,-103.15 407.35,-87.2 451.65,-76.47"/>
<polygon fill="#63b8ff" stroke="#63b8ff" points="452.69,-79.82 461.59,-74.07 451.04,-73.02 452.69,-79.82"/>
</a>
</g>
</g>
<!-- Node8&#45;&gt;Node5 -->
<g id="edge13_Node000008_Node000005" class="edge">
<title>Node8&#45;&gt;Node5</title>
<g id="a_edge13_Node000008_Node000005"><a xlink:title=" ">
<path fill="none" stroke="#63b8ff" d="M276.35,-109.75C275.04,-102.8 273.16,-92.85 271.52,-84.13"/>
<polygon fill="#63b8ff" stroke="#63b8ff" points="274.91,-83.27 269.62,-74.09 268.04,-84.56 274.91,-83.27"/>
</a>
</g>
</g>
<!-- Node9 -->
<g id="Node000009" class="node">
<title>Node9</title>
<g id="a_Node000009"><a xlink:title=" ">
<polygon fill="#e0e0e0" stroke="#999999" points="460,-19 404,-19 404,0 460,0 460,-19"/>
<text text-anchor="middle" x="432" y="-7" font-family="Helvetica,sans-Serif" font-size="10.00">sstream</text>
</a>
</g>
</g>
<!-- Node8&#45;&gt;Node9 -->
<g id="edge11_Node000008_Node000009" class="edge">
<title>Node8&#45;&gt;Node9</title>
<g id="a_edge11_Node000008_Node000009"><a xlink:title=" ">
<path fill="none" stroke="#63b8ff" d="M304.61,-115.88C333.34,-111.71 378.77,-101.04 407,-74 419.42,-62.1 425.79,-43.27 428.98,-29.2"/>
<polygon fill="#63b8ff" stroke="#63b8ff" points="432.46,-29.65 430.92,-19.16 425.59,-28.32 432.46,-29.65"/>
</a>
</g>
</g>
<!-- Node8&#45;&gt;Node10 -->
<g id="edge14_Node000008_Node000010" class="edge">
<title>Node8&#45;&gt;Node10</title>
<g id="a_edge14_Node000008_Node000010"><a xlink:title=" ">
<path fill="none" stroke="#63b8ff" d="M291.5,-109.98C304.4,-101.84 324.1,-89.41 339.4,-79.76"/>
<polygon fill="#63b8ff" stroke="#63b8ff" points="341.67,-82.47 348.26,-74.17 337.93,-76.55 341.67,-82.47"/>
</a>
</g>
</g>
<!-- Node10&#45;&gt;Node3 -->
<g id="edge17_Node000010_Node000003" class="edge">
<title>Node10&#45;&gt;Node3</title>
<g id="a_edge17_Node000010_Node000003"><a xlink:title=" ">
<path fill="none" stroke="#63b8ff" d="M326.3,-55.21C291.2,-46.97 235.87,-33.8 179.18,-19.25"/>
<polygon fill="#63b8ff" stroke="#63b8ff" points="179.89,-15.82 169.33,-16.71 178.14,-22.59 179.89,-15.82"/>
</a>
</g>
</g>
<!-- Node10&#45;&gt;Node7 -->
<g id="edge16_Node000010_Node000007" class="edge">
<title>Node10&#45;&gt;Node7</title>
<g id="a_edge16_Node000010_Node000007"><a xlink:title=" ">
<path fill="none" stroke="#63b8ff" d="M350.11,-54.98C338.85,-46.92 321.71,-34.65 308.29,-25.03"/>
<polygon fill="#63b8ff" stroke="#63b8ff" points="310.27,-22.15 300.11,-19.17 306.2,-27.84 310.27,-22.15"/>
</a>
</g>
</g>
<!-- Node10&#45;&gt;Node9 -->
<g id="edge15_Node000010_Node000009" class="edge">
<title>Node10&#45;&gt;Node9</title>
<g id="a_edge15_Node000010_Node000009"><a xlink:title=" ">
<path fill="none" stroke="#63b8ff" d="M373.25,-54.98C383.8,-47 399.8,-34.88 412.44,-25.31"/>
<polygon fill="#63b8ff" stroke="#63b8ff" points="414.69,-28 420.55,-19.17 410.46,-22.42 414.69,-28"/>
</a>
</g>
</g>
<!-- Node11 -->
<g id="Node000011" class="node">
<title>Node11</title>
<g id="a_Node000011"><a xlink:title=" ">
<polygon fill="#e0e0e0" stroke="#999999" points="385.5,-19 338.5,-19 338.5,0 385.5,0 385.5,-19"/>
<text text-anchor="middle" x="362" y="-7" font-family="Helvetica,sans-Serif" font-size="10.00">vector</text>
</a>
</g>
</g>
<!-- Node10&#45;&gt;Node11 -->
<g id="edge18_Node000010_Node000011" class="edge">
<title>Node10&#45;&gt;Node11</title>
<g id="a_edge18_Node000010_Node000011"><a xlink:title=" ">
<path fill="none" stroke="#63b8ff" d="M362,-54.75C362,-47.8 362,-37.85 362,-29.13"/>
<polygon fill="#63b8ff" stroke="#63b8ff" points="365.5,-29.09 362,-19.09 358.5,-29.09 365.5,-29.09"/>
</a>
</g>
</g>
<!-- Node12&#45;&gt;Node3 -->
<g id="edge21_Node000012_Node000003" class="edge">
<title>Node12&#45;&gt;Node3</title>
<g id="a_edge21_Node000012_Node000003"><a xlink:title=" ">
<path fill="none" stroke="#63b8ff" d="M33.28,-109.81C40.07,-96.7 54.36,-71.62 72,-55 85.56,-42.23 103.41,-31.45 118.3,-23.7"/>
<polygon fill="#63b8ff" stroke="#63b8ff" points="120.2,-26.67 127.58,-19.06 117.07,-20.41 120.2,-26.67"/>
</a>
</g>
</g>
</g>
</svg>
