<?xml version="1.0" encoding="UTF-8" standalone="no"?>
<!DOCTYPE svg PUBLIC "-//W3C//DTD SVG 1.1//EN"
 "http://www.w3.org/Graphics/SVG/1.1/DTD/svg11.dtd">
<!-- Generated by graphviz version 2.43.0 (0)
 -->
<!-- Title: src/models/group.hpp Pages: 1 -->
<svg width="597pt" height="192pt"
 viewBox="0.00 0.00 596.50 192.00" xmlns="http://www.w3.org/2000/svg" xmlns:xlink="http://www.w3.org/1999/xlink">
<g id="graph0" class="graph" transform="scale(1 1) rotate(0) translate(4 188)">
<title>src/models/group.hpp</title>
<!-- Node1 -->
<g id="Node000001" class="node">
<title>Node1</title>
<g id="a_Node000001"><a xlink:title=" ">
<polygon fill="#999999" stroke="#666666" points="294,-184 172,-184 172,-165 294,-165 294,-184"/>
<text text-anchor="middle" x="233" y="-172" font-family="Helvetica,sans-Serif" font-size="10.00">src/models/group.hpp</text>
</a>
</g>
</g>
<!-- Node2 -->
<g id="Node000002" class="node">
<title>Node2</title>
<g id="a_Node000002"><a xlink:title=" ">
<polygon fill="#e0e0e0" stroke="#999999" points="172,-74 114,-74 114,-55 172,-55 172,-74"/>
<text text-anchor="middle" x="143" y="-62" font-family="Helvetica,sans-Serif" font-size="10.00">memory</text>
</a>
</g>
</g>
<!-- Node1&#45;&gt;Node2 -->
<g id="edge1_Node000001_Node000002" class="edge">
<title>Node1&#45;&gt;Node2</title>
<g id="a_edge1_Node000001_Node000002"><a xlink:title=" ">
<path fill="none" stroke="#63b8ff" d="M225.63,-164.66C210.6,-146.61 176.15,-105.28 156.81,-82.08"/>
<polygon fill="#63b8ff" stroke="#63b8ff" points="159.31,-79.6 150.22,-74.16 153.93,-84.08 159.31,-79.6"/>
</a>
</g>
</g>
<!-- Node3 -->
<g id="Node000003" class="node">
<title>Node3</title>
<g id="a_Node000003"><a xlink:title=" ">
<polygon fill="#e0e0e0" stroke="#999999" points="297,-19 253,-19 253,0 297,0 297,-19"/>
<text text-anchor="middle" x="275" y="-7" font-family="Helvetica,sans-Serif" font-size="10.00">string</text>
</a>
</g>
</g>
<!-- Node1&#45;&gt;Node3 -->
<g id="edge2_Node000001_Node000003" class="edge">
<title>Node1&#45;&gt;Node3</title>
<g id="a_edge2_Node000001_Node000003"><a xlink:title=" ">
<path fill="none" stroke="#63b8ff" d="M209.58,-164.91C163.51,-146.71 68.64,-102.1 105,-55 121.7,-33.37 198.27,-20.22 242.74,-14.28"/>
<polygon fill="#63b8ff" stroke="#63b8ff" points="243.3,-17.73 252.77,-12.98 242.41,-10.79 243.3,-17.73"/>
</a>
</g>
</g>
<!-- Node4 -->
<g id="Node000004" class="node">
<title>Node4</title>
<g id="a_Node000004"><a xlink:title=" ">
<polygon fill="#e0e0e0" stroke="#999999" points="276,-74 190,-74 190,-55 276,-55 276,-74"/>
<text text-anchor="middle" x="233" y="-62" font-family="Helvetica,sans-Serif" font-size="10.00">unordered_set</text>
</a>
</g>
</g>
<!-- Node1&#45;&gt;Node4 -->
<g id="edge3_Node000001_Node000004" class="edge">
<title>Node1&#45;&gt;Node4</title>
<g id="a_edge3_Node000001_Node000004"><a xlink:title=" ">
<path fill="none" stroke="#63b8ff" d="M233,-164.66C233,-147.17 233,-107.8 233,-84.27"/>
<polygon fill="#63b8ff" stroke="#63b8ff" points="236.5,-84.16 233,-74.16 229.5,-84.16 236.5,-84.16"/>
</a>
</g>
</g>
<!-- Node5 -->
<g id="Node000005" class="node">
<title>Node5</title>
<g id="a_Node000005"><a xlink:href="endpoint_8hpp.html" target="_top" xlink:title=" ">
<polygon fill="white" stroke="#666666" points="412,-74 332,-74 332,-55 412,-55 412,-74"/>
<text text-anchor="middle" x="372" y="-62" font-family="Helvetica,sans-Serif" font-size="10.00">endpoint.hpp</text>
</a>
</g>
</g>
<!-- Node1&#45;&gt;Node5 -->
<g id="edge4_Node000001_Node000005" class="edge">
<title>Node1&#45;&gt;Node5</title>
<g id="a_edge4_Node000001_Node000005"><a xlink:title=" ">
<path fill="none" stroke="#63b8ff" d="M263.75,-164.88C284.74,-157.83 312.23,-146.18 332,-129 346.42,-116.47 357.44,-97.46 364.23,-83.51"/>
<polygon fill="#63b8ff" stroke="#63b8ff" points="367.6,-84.56 368.58,-74.01 361.23,-81.64 367.6,-84.56"/>
</a>
</g>
</g>
<!-- Node8 -->
<g id="Node000008" class="node">
<title>Node8</title>
<g id="a_Node000008"><a xlink:href="file_8hpp.html" target="_top" xlink:title=" ">
<polygon fill="white" stroke="#666666" points="322.5,-129 269.5,-129 269.5,-110 322.5,-110 322.5,-129"/>
<text text-anchor="middle" x="296" y="-117" font-family="Helvetica,sans-Serif" font-size="10.00">file.hpp</text>
</a>
</g>
</g>
<!-- Node1&#45;&gt;Node8 -->
<g id="edge8_Node000001_Node000008" class="edge">
<title>Node1&#45;&gt;Node8</title>
<g id="a_edge8_Node000001_Node000008"><a xlink:title=" ">
<path fill="none" stroke="#63b8ff" d="M243.12,-164.98C252.44,-157.15 266.47,-145.34 277.74,-135.86"/>
<polygon fill="#63b8ff" stroke="#63b8ff" points="280.29,-138.29 285.69,-129.17 275.79,-132.93 280.29,-138.29"/>
</a>
</g>
</g>
<!-- Node9 -->
<g id="Node000009" class="node">
<title>Node9</title>
<g id="a_Node000009"><a xlink:href="fileinfo_8hpp.html" target="_top" xlink:title=" ">
<polygon fill="white" stroke="#666666" points="501.5,-74 430.5,-74 430.5,-55 501.5,-55 501.5,-74"/>
<text text-anchor="middle" x="466" y="-62" font-family="Helvetica,sans-Serif" font-size="10.00">fileinfo.hpp</text>
</a>
</g>
</g>
<!-- Node1&#45;&gt;Node9 -->
<g id="edge18_Node000001_Node000009" class="edge">
<title>Node1&#45;&gt;Node9</title>
<g id="a_edge18_Node000001_Node000009"><a xlink:title=" ">
<path fill="none" stroke="#63b8ff" d="M259.94,-165C284.81,-156.83 322.52,-143.59 354,-129 386.29,-114.03 421.75,-93.11 443.94,-79.44"/>
<polygon fill="#63b8ff" stroke="#63b8ff" points="445.94,-82.31 452.59,-74.06 442.25,-76.37 445.94,-82.31"/>
</a>
</g>
</g>
<!-- Node12 -->
<g id="Node000012" class="node">
<title>Node12</title>
<g id="a_Node000012"><a xlink:href="user_8hpp.html" target="_top" xlink:title=" ">
<polygon fill="white" stroke="#666666" points="58,-129 0,-129 0,-110 58,-110 58,-129"/>
<text text-anchor="middle" x="29" y="-117" font-family="Helvetica,sans-Serif" font-size="10.00">user.hpp</text>
</a>
</g>
</g>
<!-- Node1&#45;&gt;Node12 -->
<g id="edge19_Node000001_Node000012" class="edge">
<title>Node1&#45;&gt;Node12</title>
<g id="a_edge19_Node000001_Node000012"><a xlink:title=" ">
<path fill="none" stroke="#63b8ff" d="M200.22,-164.98C164.14,-155.61 106.17,-140.55 67.84,-130.59"/>
<polygon fill="#63b8ff" stroke="#63b8ff" points="68.62,-127.18 58.06,-128.05 66.86,-133.95 68.62,-127.18"/>
</a>
</g>
</g>
<!-- Node5&#45;&gt;Node3 -->
<g id="edge7_Node000005_Node000003" class="edge">
<title>Node5&#45;&gt;Node3</title>
<g id="a_edge7_Node000005_Node000003"><a xlink:title=" ">
<path fill="none" stroke="#63b8ff" d="M356.42,-54.98C341.23,-46.69 317.9,-33.94 300.1,-24.22"/>
<polygon fill="#63b8ff" stroke="#63b8ff" points="301.32,-20.89 290.87,-19.17 297.97,-27.04 301.32,-20.89"/>
</a>
</g>
</g>
<!-- Node6 -->
<g id="Node000006" class="node">
<title>Node6</title>
<g id="a_Node000006"><a xlink:title=" ">
<polygon fill="#e0e0e0" stroke="#999999" points="365,-19 315,-19 315,0 365,0 365,-19"/>
<text text-anchor="middle" x="340" y="-7" font-family="Helvetica,sans-Serif" font-size="10.00">cstdint</text>
</a>
</g>
</g>
<!-- Node5&#45;&gt;Node6 -->
<g id="edge5_Node000005_Node000006" class="edge">
<title>Node5&#45;&gt;Node6</title>
<g id="a_edge5_Node000005_Node000006"><a xlink:title=" ">
<path fill="none" stroke="#63b8ff" d="M366.72,-54.75C362.29,-47.42 355.84,-36.73 350.38,-27.7"/>
<polygon fill="#63b8ff" stroke="#63b8ff" points="353.35,-25.84 345.19,-19.09 347.36,-29.46 353.35,-25.84"/>
</a>
</g>
</g>
<!-- Node7 -->
<g id="Node000007" class="node">
<title>Node7</title>
<g id="a_Node000007"><a xlink:title=" ">
<polygon fill="#e0e0e0" stroke="#999999" points="448.5,-19 383.5,-19 383.5,0 448.5,0 448.5,-19"/>
<text text-anchor="middle" x="416" y="-7" font-family="Helvetica,sans-Serif" font-size="10.00">stdexcept</text>
</a>
</g>
</g>
<!-- Node5&#45;&gt;Node7 -->
<g id="edge6_Node000005_Node000007" class="edge">
<title>Node5&#45;&gt;Node7</title>
<g id="a_edge6_Node000005_Node000007"><a xlink:title=" ">
<path fill="none" stroke="#63b8ff" d="M379.27,-54.75C385.54,-47.18 394.79,-36.05 402.43,-26.84"/>
<polygon fill="#63b8ff" stroke="#63b8ff" points="405.17,-29.02 408.87,-19.09 399.79,-24.55 405.17,-29.02"/>
</a>
</g>
</g>
<!-- Node8&#45;&gt;Node2 -->
<g id="edge9_Node000008_Node000002" class="edge">
<title>Node8&#45;&gt;Node2</title>
<g id="a_edge9_Node000008_Node000002"><a xlink:title=" ">
<path fill="none" stroke="#63b8ff" d="M271.42,-109.98C245.95,-101.16 205.96,-87.31 177.37,-77.41"/>
<polygon fill="#63b8ff" stroke="#63b8ff" points="178.37,-74.05 167.77,-74.08 176.08,-80.66 178.37,-74.05"/>
</a>
</g>
</g>
<!-- Node8&#45;&gt;Node3 -->
<g id="edge10_Node000008_Node000003" class="edge">
<title>Node8&#45;&gt;Node3</title>
<g id="a_edge10_Node000008_Node000003"><a xlink:title=" ">
<path fill="none" stroke="#63b8ff" d="M294.64,-109.85C292.68,-97.6 288.88,-74.53 285,-55 283.28,-46.35 281.16,-36.8 279.32,-28.78"/>
<polygon fill="#63b8ff" stroke="#63b8ff" points="282.72,-27.95 277.04,-19 275.91,-29.54 282.72,-27.95"/>
</a>
</g>
</g>
<!-- Node8&#45;&gt;Node4 -->
<g id="edge11_Node000008_Node000004" class="edge">
<title>Node8&#45;&gt;Node4</title>
<g id="a_edge11_Node000008_Node000004"><a xlink:title=" ">
<path fill="none" stroke="#63b8ff" d="M285.88,-109.98C276.56,-102.15 262.53,-90.34 251.26,-80.86"/>
<polygon fill="#63b8ff" stroke="#63b8ff" points="253.21,-77.93 243.31,-74.17 248.71,-83.29 253.21,-77.93"/>
</a>
</g>
</g>
<!-- Node8&#45;&gt;Node5 -->
<g id="edge12_Node000008_Node000005" class="edge">
<title>Node8&#45;&gt;Node5</title>
<g id="a_edge12_Node000008_Node000005"><a xlink:title=" ">
<path fill="none" stroke="#63b8ff" d="M308.21,-109.98C319.78,-101.92 337.38,-89.65 351.16,-80.03"/>
<polygon fill="#63b8ff" stroke="#63b8ff" points="353.37,-82.76 359.57,-74.17 349.36,-77.02 353.37,-82.76"/>
</a>
</g>
</g>
<!-- Node8&#45;&gt;Node9 -->
<g id="edge13_Node000008_Node000009" class="edge">
<title>Node8&#45;&gt;Node9</title>
<g id="a_edge13_Node000008_Node000009"><a xlink:title=" ">
<path fill="none" stroke="#63b8ff" d="M322.56,-110.22C351.04,-101.34 396.49,-87.17 428.59,-77.16"/>
<polygon fill="#63b8ff" stroke="#63b8ff" points="429.99,-80.39 438.5,-74.07 427.91,-73.71 429.99,-80.39"/>
</a>
</g>
</g>
<!-- Node9&#45;&gt;Node3 -->
<g id="edge16_Node000009_Node000003" class="edge">
<title>Node9&#45;&gt;Node3</title>
<g id="a_edge16_Node000009_Node000003"><a xlink:title=" ">
<path fill="none" stroke="#63b8ff" d="M435.31,-54.98C400.18,-45.24 342.91,-29.34 307.17,-19.43"/>
<polygon fill="#63b8ff" stroke="#63b8ff" points="307.83,-15.98 297.26,-16.68 305.96,-22.72 307.83,-15.98"/>
</a>
</g>
</g>
<!-- Node9&#45;&gt;Node7 -->
<g id="edge15_Node000009_Node000007" class="edge">
<title>Node9&#45;&gt;Node7</title>
<g id="a_edge15_Node000009_Node000007"><a xlink:title=" ">
<path fill="none" stroke="#63b8ff" d="M457.74,-54.75C450.54,-47.11 439.89,-35.82 431.15,-26.56"/>
<polygon fill="#63b8ff" stroke="#63b8ff" points="433.51,-23.96 424.1,-19.09 428.42,-28.76 433.51,-23.96"/>
</a>
</g>
</g>
<!-- Node10 -->
<g id="Node000010" class="node">
<title>Node10</title>
<g id="a_Node000010"><a xlink:title=" ">
<polygon fill="#e0e0e0" stroke="#999999" points="523,-19 467,-19 467,0 523,0 523,-19"/>
<text text-anchor="middle" x="495" y="-7" font-family="Helvetica,sans-Serif" font-size="10.00">sstream</text>
</a>
</g>
</g>
<!-- Node9&#45;&gt;Node10 -->
<g id="edge14_Node000009_Node000010" class="edge">
<title>Node9&#45;&gt;Node10</title>
<g id="a_edge14_Node000009_Node000010"><a xlink:title=" ">
<path fill="none" stroke="#63b8ff" d="M470.79,-54.75C474.76,-47.49 480.53,-36.95 485.43,-27.98"/>
<polygon fill="#63b8ff" stroke="#63b8ff" points="488.57,-29.54 490.3,-19.09 482.43,-26.18 488.57,-29.54"/>
</a>
</g>
</g>
<!-- Node11 -->
<g id="Node000011" class="node">
<title>Node11</title>
<g id="a_Node000011"><a xlink:title=" ">
<polygon fill="#e0e0e0" stroke="#999999" points="588.5,-19 541.5,-19 541.5,0 588.5,0 588.5,-19"/>
<text text-anchor="middle" x="565" y="-7" font-family="Helvetica,sans-Serif" font-size="10.00">vector</text>
</a>
</g>
</g>
<!-- Node9&#45;&gt;Node11 -->
<g id="edge17_Node000009_Node000011" class="edge">
<title>Node9&#45;&gt;Node11</title>
<g id="a_edge17_Node000009_Node000011"><a xlink:title=" ">
<path fill="none" stroke="#63b8ff" d="M481.91,-54.98C497.55,-46.61 521.66,-33.7 539.88,-23.95"/>
<polygon fill="#63b8ff" stroke="#63b8ff" points="541.64,-26.98 548.8,-19.17 538.34,-20.8 541.64,-26.98"/>
</a>
</g>
</g>
<!-- Node12&#45;&gt;Node3 -->
<g id="edge20_Node000012_Node000003" class="edge">
<title>Node12&#45;&gt;Node3</title>
<g id="a_edge20_Node000012_Node000003"><a xlink:title=" ">
<path fill="none" stroke="#63b8ff" d="M32.29,-109.97C38.09,-96.12 51.5,-68.89 72,-55 124.31,-19.54 200.07,-11.77 242.7,-10.4"/>
<polygon fill="#63b8ff" stroke="#63b8ff" points="242.87,-13.9 252.79,-10.18 242.72,-6.9 242.87,-13.9"/>
</a>
</g>
</g>
</g>
</svg>
