<?xml version="1.0" encoding="UTF-8" standalone="no"?>
<!DOCTYPE svg PUBLIC "-//W3C//DTD SVG 1.1//EN"
 "http://www.w3.org/Graphics/SVG/1.1/DTD/svg11.dtd">
<!-- Generated by graphviz version 2.43.0 (0)
 -->
<!-- Title: src/tracker/groupdb.hpp Pages: 1 -->
<svg width="388pt" height="192pt"
 viewBox="0.00 0.00 387.80 192.00" xmlns="http://www.w3.org/2000/svg" xmlns:xlink="http://www.w3.org/1999/xlink">
<g id="graph0" class="graph" transform="scale(1 1) rotate(0) translate(4 188)">
<title>src/tracker/groupdb.hpp</title>
<!-- Node1 -->
<g id="Node000001" class="node">
<title>Node1</title>
<g id="a_Node000001"><a xlink:title=" ">
<polygon fill="#999999" stroke="#666666" points="140.3,-184 9.3,-184 9.3,-165 140.3,-165 140.3,-184"/>
<text text-anchor="middle" x="74.8" y="-172" font-family="Helvetica,sans-Serif" font-size="10.00">src/tracker/groupdb.hpp</text>
</a>
</g>
</g>
<!-- Node2 -->
<g id="Node000002" class="node">
<title>Node2</title>
<g id="a_Node000002"><a xlink:title=" ">
<polygon fill="#e0e0e0" stroke="#999999" points="117.8,-74 59.8,-74 59.8,-55 117.8,-55 117.8,-74"/>
<text text-anchor="middle" x="88.8" y="-62" font-family="Helvetica,sans-Serif" font-size="10.00">memory</text>
</a>
</g>
</g>
<!-- Node1&#45;&gt;Node2 -->
<g id="edge1_Node000001_Node000002" class="edge">
<title>Node1&#45;&gt;Node2</title>
<g id="a_edge1_Node000001_Node000002"><a xlink:title=" ">
<path fill="none" stroke="#63b8ff" d="M53.56,-164.85C29.76,-153.8 -3.81,-133.29 9.8,-110 18.68,-94.81 34.87,-84.4 50.29,-77.49"/>
<polygon fill="#63b8ff" stroke="#63b8ff" points="51.79,-80.66 59.72,-73.63 49.14,-74.18 51.79,-80.66"/>
</a>
</g>
</g>
<!-- Node3 -->
<g id="Node000003" class="node">
<title>Node3</title>
<g id="a_Node000003"><a xlink:title=" ">
<polygon fill="#e0e0e0" stroke="#999999" points="230.8,-19 186.8,-19 186.8,0 230.8,0 230.8,-19"/>
<text text-anchor="middle" x="208.8" y="-7" font-family="Helvetica,sans-Serif" font-size="10.00">string</text>
</a>
</g>
</g>
<!-- Node1&#45;&gt;Node3 -->
<g id="edge2_Node000001_Node000003" class="edge">
<title>Node1&#45;&gt;Node3</title>
<g id="a_edge2_Node000001_Node000003"><a xlink:title=" ">
<path fill="none" stroke="#63b8ff" d="M48.94,-164.99C32.53,-158.09 12.6,-146.58 2.8,-129 -1.31,-121.62 -0.17,-117.91 2.8,-110 28.64,-41.08 125.02,-19.8 176.27,-13.31"/>
<polygon fill="#63b8ff" stroke="#63b8ff" points="176.94,-16.75 186.48,-12.13 176.14,-9.8 176.94,-16.75"/>
</a>
</g>
</g>
<!-- Node4 -->
<g id="Node000004" class="node">
<title>Node4</title>
<g id="a_Node000004"><a xlink:title=" ">
<polygon fill="#e0e0e0" stroke="#999999" points="50.8,-129 18.8,-129 18.8,-110 50.8,-110 50.8,-129"/>
<text text-anchor="middle" x="34.8" y="-117" font-family="Helvetica,sans-Serif" font-size="10.00">set</text>
</a>
</g>
</g>
<!-- Node1&#45;&gt;Node4 -->
<g id="edge3_Node000001_Node000004" class="edge">
<title>Node1&#45;&gt;Node4</title>
<g id="a_edge3_Node000001_Node000004"><a xlink:title=" ">
<path fill="none" stroke="#63b8ff" d="M68.19,-164.75C62.54,-157.26 54.25,-146.28 47.35,-137.13"/>
<polygon fill="#63b8ff" stroke="#63b8ff" points="50.1,-134.96 41.28,-129.09 44.51,-139.18 50.1,-134.96"/>
</a>
</g>
</g>
<!-- Node5 -->
<g id="Node000005" class="node">
<title>Node5</title>
<g id="a_Node000005"><a xlink:title=" ">
<polygon fill="#e0e0e0" stroke="#999999" points="162.3,-129 69.3,-129 69.3,-110 162.3,-110 162.3,-129"/>
<text text-anchor="middle" x="115.8" y="-117" font-family="Helvetica,sans-Serif" font-size="10.00">unordered_map</text>
</a>
</g>
</g>
<!-- Node1&#45;&gt;Node5 -->
<g id="edge4_Node000001_Node000005" class="edge">
<title>Node1&#45;&gt;Node5</title>
<g id="a_edge4_Node000001_Node000005"><a xlink:title=" ">
<path fill="none" stroke="#63b8ff" d="M81.57,-164.75C87.36,-157.26 95.86,-146.28 102.93,-137.13"/>
<polygon fill="#63b8ff" stroke="#63b8ff" points="105.8,-139.14 109.15,-129.09 100.27,-134.86 105.8,-139.14"/>
</a>
</g>
</g>
<!-- Node6 -->
<g id="Node000006" class="node">
<title>Node6</title>
<g id="a_Node000006"><a xlink:title=" ">
<polygon fill="#e0e0e0" stroke="#999999" points="227.3,-129 180.3,-129 180.3,-110 227.3,-110 227.3,-129"/>
<text text-anchor="middle" x="203.8" y="-117" font-family="Helvetica,sans-Serif" font-size="10.00">vector</text>
</a>
</g>
</g>
<!-- Node1&#45;&gt;Node6 -->
<g id="edge5_Node000001_Node000006" class="edge">
<title>Node1&#45;&gt;Node6</title>
<g id="a_edge5_Node000001_Node000006"><a xlink:title=" ">
<path fill="none" stroke="#63b8ff" d="M95.52,-164.98C116.56,-156.34 149.35,-142.87 173.33,-133.02"/>
<polygon fill="#63b8ff" stroke="#63b8ff" points="174.77,-136.21 182.69,-129.17 172.11,-129.73 174.77,-136.21"/>
</a>
</g>
</g>
<!-- Node7 -->
<g id="Node000007" class="node">
<title>Node7</title>
<g id="a_Node000007"><a xlink:href="group_8hpp.html" target="_top" xlink:title=" ">
<polygon fill="white" stroke="#666666" points="358.3,-129 245.3,-129 245.3,-110 358.3,-110 358.3,-129"/>
<text text-anchor="middle" x="301.8" y="-117" font-family="Helvetica,sans-Serif" font-size="10.00">../models/group.hpp</text>
</a>
</g>
</g>
<!-- Node1&#45;&gt;Node7 -->
<g id="edge6_Node000001_Node000007" class="edge">
<title>Node1&#45;&gt;Node7</title>
<g id="a_edge6_Node000001_Node000007"><a xlink:title=" ">
<path fill="none" stroke="#63b8ff" d="M111.27,-164.98C150.37,-155.86 212.56,-141.33 255.19,-131.38"/>
<polygon fill="#63b8ff" stroke="#63b8ff" points="256.1,-134.76 265.04,-129.08 254.51,-127.95 256.1,-134.76"/>
</a>
</g>
</g>
<!-- Node7&#45;&gt;Node2 -->
<g id="edge7_Node000007_Node000002" class="edge">
<title>Node7&#45;&gt;Node2</title>
<g id="a_edge7_Node000007_Node000002"><a xlink:title=" ">
<path fill="none" stroke="#63b8ff" d="M267.58,-109.98C229.39,-100.48 167.72,-85.14 127.73,-75.19"/>
<polygon fill="#63b8ff" stroke="#63b8ff" points="128.35,-71.74 117.8,-72.72 126.66,-78.53 128.35,-71.74"/>
</a>
</g>
</g>
<!-- Node7&#45;&gt;Node3 -->
<g id="edge8_Node000007_Node000003" class="edge">
<title>Node7&#45;&gt;Node3</title>
<g id="a_edge8_Node000007_Node000003"><a xlink:title=" ">
<path fill="none" stroke="#63b8ff" d="M294.19,-109.66C278.58,-91.54 242.74,-49.91 222.81,-26.77"/>
<polygon fill="#63b8ff" stroke="#63b8ff" points="225.43,-24.45 216.25,-19.16 220.13,-29.02 225.43,-24.45"/>
</a>
</g>
</g>
<!-- Node8 -->
<g id="Node000008" class="node">
<title>Node8</title>
<g id="a_Node000008"><a xlink:title=" ">
<polygon fill="#e0e0e0" stroke="#999999" points="379.8,-74 293.8,-74 293.8,-55 379.8,-55 379.8,-74"/>
<text text-anchor="middle" x="336.8" y="-62" font-family="Helvetica,sans-Serif" font-size="10.00">unordered_set</text>
</a>
</g>
</g>
<!-- Node7&#45;&gt;Node8 -->
<g id="edge9_Node000007_Node000008" class="edge">
<title>Node7&#45;&gt;Node8</title>
<g id="a_edge9_Node000007_Node000008"><a xlink:title=" ">
<path fill="none" stroke="#63b8ff" d="M307.58,-109.75C312.42,-102.42 319.48,-91.73 325.44,-82.7"/>
<polygon fill="#63b8ff" stroke="#63b8ff" points="328.54,-84.36 331.13,-74.09 322.69,-80.5 328.54,-84.36"/>
</a>
</g>
</g>
<!-- Node9 -->
<g id="Node000009" class="node">
<title>Node9</title>
<g id="a_Node000009"><a xlink:href="user_8hpp.html" target="_top" xlink:title=" ">
<polygon fill="white" stroke="#666666" points="237.8,-74 179.8,-74 179.8,-55 237.8,-55 237.8,-74"/>
<text text-anchor="middle" x="208.8" y="-62" font-family="Helvetica,sans-Serif" font-size="10.00">user.hpp</text>
</a>
</g>
</g>
<!-- Node7&#45;&gt;Node9 -->
<g id="edge10_Node000007_Node000009" class="edge">
<title>Node7&#45;&gt;Node9</title>
<g id="a_edge10_Node000007_Node000009"><a xlink:title=" ">
<path fill="none" stroke="#63b8ff" d="M286.86,-109.98C272.3,-101.69 249.93,-88.94 232.86,-79.22"/>
<polygon fill="#63b8ff" stroke="#63b8ff" points="234.43,-76.08 224.01,-74.17 230.97,-82.16 234.43,-76.08"/>
</a>
</g>
</g>
<!-- Node9&#45;&gt;Node3 -->
<g id="edge11_Node000009_Node000003" class="edge">
<title>Node9&#45;&gt;Node3</title>
<g id="a_edge11_Node000009_Node000003"><a xlink:title=" ">
<path fill="none" stroke="#63b8ff" d="M208.8,-54.75C208.8,-47.8 208.8,-37.85 208.8,-29.13"/>
<polygon fill="#63b8ff" stroke="#63b8ff" points="212.3,-29.09 208.8,-19.09 205.3,-29.09 212.3,-29.09"/>
</a>
</g>
</g>
</g>
</svg>
