<?xml version="1.0" encoding="UTF-8" standalone="no"?>
<!DOCTYPE svg PUBLIC "-//W3C//DTD SVG 1.1//EN"
 "http://www.w3.org/Graphics/SVG/1.1/DTD/svg11.dtd">
<!-- Generated by graphviz version 2.43.0 (0)
 -->
<!-- Title: src/tracker/groupdb.hpp Pages: 1 -->
<svg width="266pt" height="93pt"
 viewBox="0.00 0.00 265.50 93.00" xmlns="http://www.w3.org/2000/svg" xmlns:xlink="http://www.w3.org/1999/xlink">
<g id="graph0" class="graph" transform="scale(1 1) rotate(0) translate(4 89)">
<title>src/tracker/groupdb.hpp</title>
<!-- Node1 -->
<g id="Node000001" class="node">
<title>Node1</title>
<g id="a_Node000001"><a xlink:title=" ">
<polygon fill="#999999" stroke="#666666" points="200,-85 69,-85 69,-66 200,-66 200,-85"/>
<text text-anchor="middle" x="134.5" y="-73" font-family="Helvetica,sans-Serif" font-size="10.00">src/tracker/groupdb.hpp</text>
</a>
</g>
</g>
<!-- Node2 -->
<g id="Node000002" class="node">
<title>Node2</title>
<g id="a_Node000002"><a xlink:href="groupdb_8cpp.html" target="_top" xlink:title=" ">
<polygon fill="white" stroke="#666666" points="131,-24.5 0,-24.5 0,-5.5 131,-5.5 131,-24.5"/>
<text text-anchor="middle" x="65.5" y="-12.5" font-family="Helvetica,sans-Serif" font-size="10.00">src/tracker/groupdb.cpp</text>
</a>
</g>
</g>
<!-- Node1&#45;&gt;Node2 -->
<g id="edge1_Node000001_Node000002" class="edge">
<title>Node1&#45;&gt;Node2</title>
<g id="a_edge1_Node000001_Node000002"><a xlink:title=" ">
<path fill="none" stroke="#63b8ff" d="M116.48,-59.22C103.5,-48.21 86.44,-33.75 75.72,-24.67"/>
<polygon fill="#63b8ff" stroke="#63b8ff" points="114.43,-62.07 124.32,-65.87 118.95,-56.73 114.43,-62.07"/>
</a>
</g>
</g>
<!-- Node3 -->
<g id="Node000003" class="node">
<title>Node3</title>
<g id="a_Node000003"><a xlink:href="process__request_8cpp.html" target="_top" xlink:title=" ">
<polygon fill="white" stroke="#666666" points="257.5,-30 149.5,-30 149.5,0 257.5,0 257.5,-30"/>
<text text-anchor="start" x="157.5" y="-18" font-family="Helvetica,sans-Serif" font-size="10.00">src/tracker/process</text>
<text text-anchor="middle" x="203.5" y="-7" font-family="Helvetica,sans-Serif" font-size="10.00">_request.cpp</text>
</a>
</g>
</g>
<!-- Node1&#45;&gt;Node3 -->
<g id="edge2_Node000001_Node000003" class="edge">
<title>Node1&#45;&gt;Node3</title>
<g id="a_edge2_Node000001_Node000003"><a xlink:title=" ">
<path fill="none" stroke="#63b8ff" d="M152.51,-59.23C163.13,-50.23 176.48,-38.91 186.85,-30.11"/>
<polygon fill="#63b8ff" stroke="#63b8ff" points="150.05,-56.73 144.68,-65.87 154.57,-62.07 150.05,-56.73"/>
</a>
</g>
</g>
</g>
</svg>
