<?xml version="1.0" encoding="UTF-8" standalone="no"?>
<!DOCTYPE svg PUBLIC "-//W3C//DTD SVG 1.1//EN"
 "http://www.w3.org/Graphics/SVG/1.1/DTD/svg11.dtd">
<!-- Generated by graphviz version 2.43.0 (0)
 -->
<!-- Title: src/tracker/groupdb.cpp Pages: 1 -->
<svg width="496pt" height="247pt"
 viewBox="0.00 0.00 496.33 247.00" xmlns="http://www.w3.org/2000/svg" xmlns:xlink="http://www.w3.org/1999/xlink">
<g id="graph0" class="graph" transform="scale(1 1) rotate(0) translate(4 243)">
<title>src/tracker/groupdb.cpp</title>
<!-- Node1 -->
<g id="Node000001" class="node">
<title>Node1</title>
<g id="a_Node000001"><a xlink:title=" ">
<polygon fill="#999999" stroke="#666666" points="189.38,-239 58.38,-239 58.38,-220 189.38,-220 189.38,-239"/>
<text text-anchor="middle" x="123.88" y="-227" font-family="Helvetica,sans-Serif" font-size="10.00">src/tracker/groupdb.cpp</text>
</a>
</g>
</g>
<!-- Node2 -->
<g id="Node000002" class="node">
<title>Node2</title>
<g id="a_Node000002"><a xlink:href="groupdb_8hpp.html" target="_top" xlink:title=" ">
<polygon fill="white" stroke="#666666" points="162.38,-184 85.38,-184 85.38,-165 162.38,-165 162.38,-184"/>
<text text-anchor="middle" x="123.88" y="-172" font-family="Helvetica,sans-Serif" font-size="10.00">groupdb.hpp</text>
</a>
</g>
</g>
<!-- Node1&#45;&gt;Node2 -->
<g id="edge1_Node000001_Node000002" class="edge">
<title>Node1&#45;&gt;Node2</title>
<g id="a_edge1_Node000001_Node000002"><a xlink:title=" ">
<path fill="none" stroke="#63b8ff" d="M123.88,-219.75C123.88,-212.8 123.88,-202.85 123.88,-194.13"/>
<polygon fill="#63b8ff" stroke="#63b8ff" points="127.38,-194.09 123.88,-184.09 120.38,-194.09 127.38,-194.09"/>
</a>
</g>
</g>
<!-- Node3 -->
<g id="Node000003" class="node">
<title>Node3</title>
<g id="a_Node000003"><a xlink:title=" ">
<polygon fill="#e0e0e0" stroke="#999999" points="68.88,-74 10.88,-74 10.88,-55 68.88,-55 68.88,-74"/>
<text text-anchor="middle" x="39.88" y="-62" font-family="Helvetica,sans-Serif" font-size="10.00">memory</text>
</a>
</g>
</g>
<!-- Node2&#45;&gt;Node3 -->
<g id="edge2_Node000002_Node000003" class="edge">
<title>Node2&#45;&gt;Node3</title>
<g id="a_edge2_Node000002_Node000003"><a xlink:title=" ">
<path fill="none" stroke="#63b8ff" d="M105.01,-165C90.41,-157.5 70.73,-145.24 58.88,-129 49.23,-115.78 44.44,-97.66 42.09,-84.16"/>
<polygon fill="#63b8ff" stroke="#63b8ff" points="45.53,-83.5 40.63,-74.11 38.6,-84.51 45.53,-83.5"/>
</a>
</g>
</g>
<!-- Node4 -->
<g id="Node000004" class="node">
<title>Node4</title>
<g id="a_Node000004"><a xlink:title=" ">
<polygon fill="#e0e0e0" stroke="#999999" points="410.88,-19 366.88,-19 366.88,0 410.88,0 410.88,-19"/>
<text text-anchor="middle" x="388.88" y="-7" font-family="Helvetica,sans-Serif" font-size="10.00">string</text>
</a>
</g>
</g>
<!-- Node2&#45;&gt;Node4 -->
<g id="edge3_Node000002_Node000004" class="edge">
<title>Node2&#45;&gt;Node4</title>
<g id="a_edge3_Node000002_Node000004"><a xlink:title=" ">
<path fill="none" stroke="#63b8ff" d="M162.54,-169.08C247.92,-158.41 447.87,-128.02 483.88,-74 502.51,-46.06 454.96,-27.3 420.6,-17.8"/>
<polygon fill="#63b8ff" stroke="#63b8ff" points="421.45,-14.41 410.89,-15.26 419.68,-21.18 421.45,-14.41"/>
</a>
</g>
</g>
<!-- Node5 -->
<g id="Node000005" class="node">
<title>Node5</title>
<g id="a_Node000005"><a xlink:title=" ">
<polygon fill="#e0e0e0" stroke="#999999" points="99.88,-129 67.88,-129 67.88,-110 99.88,-110 99.88,-129"/>
<text text-anchor="middle" x="83.88" y="-117" font-family="Helvetica,sans-Serif" font-size="10.00">set</text>
</a>
</g>
</g>
<!-- Node2&#45;&gt;Node5 -->
<g id="edge4_Node000002_Node000005" class="edge">
<title>Node2&#45;&gt;Node5</title>
<g id="a_edge4_Node000002_Node000005"><a xlink:title=" ">
<path fill="none" stroke="#63b8ff" d="M117.27,-164.75C111.62,-157.26 103.33,-146.28 96.43,-137.13"/>
<polygon fill="#63b8ff" stroke="#63b8ff" points="99.18,-134.96 90.36,-129.09 93.59,-139.18 99.18,-134.96"/>
</a>
</g>
</g>
<!-- Node6 -->
<g id="Node000006" class="node">
<title>Node6</title>
<g id="a_Node000006"><a xlink:title=" ">
<polygon fill="#e0e0e0" stroke="#999999" points="211.38,-129 118.38,-129 118.38,-110 211.38,-110 211.38,-129"/>
<text text-anchor="middle" x="164.88" y="-117" font-family="Helvetica,sans-Serif" font-size="10.00">unordered_map</text>
</a>
</g>
</g>
<!-- Node2&#45;&gt;Node6 -->
<g id="edge5_Node000002_Node000006" class="edge">
<title>Node2&#45;&gt;Node6</title>
<g id="a_edge5_Node000002_Node000006"><a xlink:title=" ">
<path fill="none" stroke="#63b8ff" d="M130.65,-164.75C136.44,-157.26 144.94,-146.28 152.02,-137.13"/>
<polygon fill="#63b8ff" stroke="#63b8ff" points="154.88,-139.14 158.23,-129.09 149.35,-134.86 154.88,-139.14"/>
</a>
</g>
</g>
<!-- Node7 -->
<g id="Node000007" class="node">
<title>Node7</title>
<g id="a_Node000007"><a xlink:title=" ">
<polygon fill="#e0e0e0" stroke="#999999" points="64.38,-19 17.38,-19 17.38,0 64.38,0 64.38,-19"/>
<text text-anchor="middle" x="40.88" y="-7" font-family="Helvetica,sans-Serif" font-size="10.00">vector</text>
</a>
</g>
</g>
<!-- Node2&#45;&gt;Node7 -->
<g id="edge6_Node000002_Node000007" class="edge">
<title>Node2&#45;&gt;Node7</title>
<g id="a_edge6_Node000002_Node000007"><a xlink:title=" ">
<path fill="none" stroke="#63b8ff" d="M102.82,-164.9C72.46,-151.09 18.25,-120.68 1.88,-74 -4.29,-56.41 8.84,-38.5 21.5,-26.21"/>
<polygon fill="#63b8ff" stroke="#63b8ff" points="24.05,-28.62 29.14,-19.33 19.37,-23.42 24.05,-28.62"/>
</a>
</g>
</g>
<!-- Node8 -->
<g id="Node000008" class="node">
<title>Node8</title>
<g id="a_Node000008"><a xlink:href="group_8hpp.html" target="_top" xlink:title=" ">
<polygon fill="white" stroke="#666666" points="342.38,-129 229.38,-129 229.38,-110 342.38,-110 342.38,-129"/>
<text text-anchor="middle" x="285.88" y="-117" font-family="Helvetica,sans-Serif" font-size="10.00">../models/group.hpp</text>
</a>
</g>
</g>
<!-- Node2&#45;&gt;Node8 -->
<g id="edge7_Node000002_Node000008" class="edge">
<title>Node2&#45;&gt;Node8</title>
<g id="a_edge7_Node000002_Node000008"><a xlink:title=" ">
<path fill="none" stroke="#63b8ff" d="M149.91,-164.98C176.99,-156.13 219.59,-142.19 249.88,-132.28"/>
<polygon fill="#63b8ff" stroke="#63b8ff" points="251.23,-135.52 259.65,-129.08 249.05,-128.87 251.23,-135.52"/>
</a>
</g>
</g>
<!-- Node8&#45;&gt;Node3 -->
<g id="edge8_Node000008_Node000003" class="edge">
<title>Node8&#45;&gt;Node3</title>
<g id="a_edge8_Node000008_Node000003"><a xlink:title=" ">
<path fill="none" stroke="#63b8ff" d="M245.59,-110C205.72,-101.56 142.67,-88.14 78.76,-74.18"/>
<polygon fill="#63b8ff" stroke="#63b8ff" points="79.44,-70.74 68.92,-72.02 77.94,-77.58 79.44,-70.74"/>
</a>
</g>
</g>
<!-- Node8&#45;&gt;Node4 -->
<g id="edge9_Node000008_Node000004" class="edge">
<title>Node8&#45;&gt;Node4</title>
<g id="a_edge9_Node000008_Node000004"><a xlink:title=" ">
<path fill="none" stroke="#63b8ff" d="M314.16,-109.92C332.49,-102.99 355.54,-91.48 369.88,-74 380.26,-61.35 384.97,-43.16 387.11,-29.49"/>
<polygon fill="#63b8ff" stroke="#63b8ff" points="390.61,-29.65 388.36,-19.29 383.67,-28.79 390.61,-29.65"/>
</a>
</g>
</g>
<!-- Node9 -->
<g id="Node000009" class="node">
<title>Node9</title>
<g id="a_Node000009"><a xlink:title=" ">
<polygon fill="#e0e0e0" stroke="#999999" points="172.88,-74 86.88,-74 86.88,-55 172.88,-55 172.88,-74"/>
<text text-anchor="middle" x="129.88" y="-62" font-family="Helvetica,sans-Serif" font-size="10.00">unordered_set</text>
</a>
</g>
</g>
<!-- Node8&#45;&gt;Node9 -->
<g id="edge10_Node000008_Node000009" class="edge">
<title>Node8&#45;&gt;Node9</title>
<g id="a_edge10_Node000008_Node000009"><a xlink:title=" ">
<path fill="none" stroke="#63b8ff" d="M260.81,-109.98C234.85,-101.16 194.07,-87.31 164.92,-77.41"/>
<polygon fill="#63b8ff" stroke="#63b8ff" points="165.73,-73.99 155.14,-74.08 163.48,-80.61 165.73,-73.99"/>
</a>
</g>
</g>
<!-- Node10 -->
<g id="Node000010" class="node">
<title>Node10</title>
<g id="a_Node000010"><a xlink:href="endpoint_8hpp.html" target="_top" xlink:title=" ">
<polygon fill="white" stroke="#666666" points="360.88,-74 280.88,-74 280.88,-55 360.88,-55 360.88,-74"/>
<text text-anchor="middle" x="320.88" y="-62" font-family="Helvetica,sans-Serif" font-size="10.00">endpoint.hpp</text>
</a>
</g>
</g>
<!-- Node8&#45;&gt;Node10 -->
<g id="edge11_Node000008_Node000010" class="edge">
<title>Node8&#45;&gt;Node10</title>
<g id="a_edge11_Node000008_Node000010"><a xlink:title=" ">
<path fill="none" stroke="#63b8ff" d="M291.66,-109.75C296.5,-102.42 303.56,-91.73 309.52,-82.7"/>
<polygon fill="#63b8ff" stroke="#63b8ff" points="312.62,-84.36 315.21,-74.09 306.78,-80.5 312.62,-84.36"/>
</a>
</g>
</g>
<!-- Node13 -->
<g id="Node000013" class="node">
<title>Node13</title>
<g id="a_Node000013"><a xlink:href="fileinfo_8hpp.html" target="_top" xlink:title=" ">
<polygon fill="white" stroke="#666666" points="262.38,-74 191.38,-74 191.38,-55 262.38,-55 262.38,-74"/>
<text text-anchor="middle" x="226.88" y="-62" font-family="Helvetica,sans-Serif" font-size="10.00">fileinfo.hpp</text>
</a>
</g>
</g>
<!-- Node8&#45;&gt;Node13 -->
<g id="edge15_Node000008_Node000013" class="edge">
<title>Node8&#45;&gt;Node13</title>
<g id="a_edge15_Node000008_Node000013"><a xlink:title=" ">
<path fill="none" stroke="#63b8ff" d="M276.4,-109.98C267.68,-102.15 254.54,-90.34 243.98,-80.86"/>
<polygon fill="#63b8ff" stroke="#63b8ff" points="246.31,-78.25 236.53,-74.17 241.63,-83.46 246.31,-78.25"/>
</a>
</g>
</g>
<!-- Node15 -->
<g id="Node000015" class="node">
<title>Node15</title>
<g id="a_Node000015"><a xlink:href="user_8hpp.html" target="_top" xlink:title=" ">
<polygon fill="white" stroke="#666666" points="474.88,-74 416.88,-74 416.88,-55 474.88,-55 474.88,-74"/>
<text text-anchor="middle" x="445.88" y="-62" font-family="Helvetica,sans-Serif" font-size="10.00">user.hpp</text>
</a>
</g>
</g>
<!-- Node8&#45;&gt;Node15 -->
<g id="edge20_Node000008_Node000015" class="edge">
<title>Node8&#45;&gt;Node15</title>
<g id="a_edge20_Node000008_Node000015"><a xlink:title=" ">
<path fill="none" stroke="#63b8ff" d="M311.59,-109.98C338.33,-101.13 380.41,-87.19 410.33,-77.28"/>
<polygon fill="#63b8ff" stroke="#63b8ff" points="411.58,-80.55 419.97,-74.08 409.38,-73.9 411.58,-80.55"/>
</a>
</g>
</g>
<!-- Node10&#45;&gt;Node4 -->
<g id="edge14_Node000010_Node000004" class="edge">
<title>Node10&#45;&gt;Node4</title>
<g id="a_edge14_Node000010_Node000004"><a xlink:title=" ">
<path fill="none" stroke="#63b8ff" d="M331.8,-54.98C341.96,-47.07 357.3,-35.11 369.52,-25.58"/>
<polygon fill="#63b8ff" stroke="#63b8ff" points="372.02,-28.08 377.75,-19.17 367.72,-22.56 372.02,-28.08"/>
</a>
</g>
</g>
<!-- Node11 -->
<g id="Node000011" class="node">
<title>Node11</title>
<g id="a_Node000011"><a xlink:title=" ">
<polygon fill="#e0e0e0" stroke="#999999" points="346.88,-19 296.88,-19 296.88,0 346.88,0 346.88,-19"/>
<text text-anchor="middle" x="321.88" y="-7" font-family="Helvetica,sans-Serif" font-size="10.00">cstdint</text>
</a>
</g>
</g>
<!-- Node10&#45;&gt;Node11 -->
<g id="edge12_Node000010_Node000011" class="edge">
<title>Node10&#45;&gt;Node11</title>
<g id="a_edge12_Node000010_Node000011"><a xlink:title=" ">
<path fill="none" stroke="#63b8ff" d="M321.04,-54.75C321.18,-47.8 321.36,-37.85 321.53,-29.13"/>
<polygon fill="#63b8ff" stroke="#63b8ff" points="325.03,-29.15 321.72,-19.09 318.03,-29.02 325.03,-29.15"/>
</a>
</g>
</g>
<!-- Node12 -->
<g id="Node000012" class="node">
<title>Node12</title>
<g id="a_Node000012"><a xlink:title=" ">
<polygon fill="#e0e0e0" stroke="#999999" points="278.38,-19 213.38,-19 213.38,0 278.38,0 278.38,-19"/>
<text text-anchor="middle" x="245.88" y="-7" font-family="Helvetica,sans-Serif" font-size="10.00">stdexcept</text>
</a>
</g>
</g>
<!-- Node10&#45;&gt;Node12 -->
<g id="edge13_Node000010_Node000012" class="edge">
<title>Node10&#45;&gt;Node12</title>
<g id="a_edge13_Node000010_Node000012"><a xlink:title=" ">
<path fill="none" stroke="#63b8ff" d="M308.83,-54.98C297.42,-46.92 280.05,-34.65 266.44,-25.03"/>
<polygon fill="#63b8ff" stroke="#63b8ff" points="268.33,-22.08 258.15,-19.17 264.3,-27.8 268.33,-22.08"/>
</a>
</g>
</g>
<!-- Node13&#45;&gt;Node4 -->
<g id="edge18_Node000013_Node000004" class="edge">
<title>Node13&#45;&gt;Node4</title>
<g id="a_edge18_Node000013_Node000004"><a xlink:title=" ">
<path fill="none" stroke="#63b8ff" d="M252.91,-54.98C281.19,-45.73 326.41,-30.94 356.85,-20.98"/>
<polygon fill="#63b8ff" stroke="#63b8ff" points="358.15,-24.24 366.57,-17.8 355.97,-17.58 358.15,-24.24"/>
</a>
</g>
</g>
<!-- Node13&#45;&gt;Node7 -->
<g id="edge19_Node000013_Node000007" class="edge">
<title>Node13&#45;&gt;Node7</title>
<g id="a_edge19_Node000013_Node000007"><a xlink:title=" ">
<path fill="none" stroke="#63b8ff" d="M196.99,-54.98C163.44,-45.42 109.13,-29.95 74.23,-20"/>
<polygon fill="#63b8ff" stroke="#63b8ff" points="75.07,-16.6 64.49,-17.23 73.15,-23.34 75.07,-16.6"/>
</a>
</g>
</g>
<!-- Node13&#45;&gt;Node12 -->
<g id="edge17_Node000013_Node000012" class="edge">
<title>Node13&#45;&gt;Node12</title>
<g id="a_edge17_Node000013_Node000012"><a xlink:title=" ">
<path fill="none" stroke="#63b8ff" d="M230.02,-54.75C232.56,-47.65 236.24,-37.4 239.41,-28.56"/>
<polygon fill="#63b8ff" stroke="#63b8ff" points="242.72,-29.68 242.8,-19.09 236.13,-27.32 242.72,-29.68"/>
</a>
</g>
</g>
<!-- Node14 -->
<g id="Node000014" class="node">
<title>Node14</title>
<g id="a_Node000014"><a xlink:title=" ">
<polygon fill="#e0e0e0" stroke="#999999" points="194.88,-19 138.88,-19 138.88,0 194.88,0 194.88,-19"/>
<text text-anchor="middle" x="166.88" y="-7" font-family="Helvetica,sans-Serif" font-size="10.00">sstream</text>
</a>
</g>
</g>
<!-- Node13&#45;&gt;Node14 -->
<g id="edge16_Node000013_Node000014" class="edge">
<title>Node13&#45;&gt;Node14</title>
<g id="a_edge16_Node000013_Node000014"><a xlink:title=" ">
<path fill="none" stroke="#63b8ff" d="M217.24,-54.98C208.37,-47.15 195,-35.34 184.27,-25.86"/>
<polygon fill="#63b8ff" stroke="#63b8ff" points="186.51,-23.17 176.69,-19.17 181.87,-28.41 186.51,-23.17"/>
</a>
</g>
</g>
<!-- Node15&#45;&gt;Node4 -->
<g id="edge21_Node000015_Node000004" class="edge">
<title>Node15&#45;&gt;Node4</title>
<g id="a_edge21_Node000015_Node000004"><a xlink:title=" ">
<path fill="none" stroke="#63b8ff" d="M436.72,-54.98C428.38,-47.23 415.85,-35.58 405.7,-26.14"/>
<polygon fill="#63b8ff" stroke="#63b8ff" points="407.91,-23.42 398.2,-19.17 403.14,-28.54 407.91,-23.42"/>
</a>
</g>
</g>
</g>
</svg>
