<?xml version="1.0" encoding="UTF-8" standalone="no"?>
<!DOCTYPE svg PUBLIC "-//W3C//DTD SVG 1.1//EN"
 "http://www.w3.org/Graphics/SVG/1.1/DTD/svg11.dtd">
<!-- Generated by graphviz version 2.43.0 (0)
 -->
<!-- Title: src/tracker/groupdb.hpp Pages: 1 -->
<svg width="474pt" height="247pt"
 viewBox="0.00 0.00 474.37 247.00" xmlns="http://www.w3.org/2000/svg" xmlns:xlink="http://www.w3.org/1999/xlink">
<g id="graph0" class="graph" transform="scale(1 1) rotate(0) translate(4 243)">
<title>src/tracker/groupdb.hpp</title>
<!-- Node1 -->
<g id="Node000001" class="node">
<title>Node1</title>
<g id="a_Node000001"><a xlink:title=" ">
<polygon fill="#999999" stroke="#666666" points="187,-239 56,-239 56,-220 187,-220 187,-239"/>
<text text-anchor="middle" x="121.5" y="-227" font-family="Helvetica,sans-Serif" font-size="10.00">src/tracker/groupdb.hpp</text>
</a>
</g>
</g>
<!-- Node2 -->
<g id="Node000002" class="node">
<title>Node2</title>
<g id="a_Node000002"><a xlink:title=" ">
<polygon fill="#e0e0e0" stroke="#999999" points="71.5,-74 13.5,-74 13.5,-55 71.5,-55 71.5,-74"/>
<text text-anchor="middle" x="42.5" y="-62" font-family="Helvetica,sans-Serif" font-size="10.00">memory</text>
</a>
</g>
</g>
<!-- Node1&#45;&gt;Node2 -->
<g id="edge1_Node000001_Node000002" class="edge">
<title>Node1&#45;&gt;Node2</title>
<g id="a_edge1_Node000001_Node000002"><a xlink:title=" ">
<path fill="none" stroke="#63b8ff" d="M100.6,-219.92C85.72,-212.66 66.62,-200.73 56.5,-184 37.71,-152.94 38.08,-108.87 40.19,-84.16"/>
<polygon fill="#63b8ff" stroke="#63b8ff" points="43.69,-84.32 41.25,-74.01 36.73,-83.59 43.69,-84.32"/>
</a>
</g>
</g>
<!-- Node3 -->
<g id="Node000003" class="node">
<title>Node3</title>
<g id="a_Node000003"><a xlink:title=" ">
<polygon fill="#e0e0e0" stroke="#999999" points="412.5,-19 368.5,-19 368.5,0 412.5,0 412.5,-19"/>
<text text-anchor="middle" x="390.5" y="-7" font-family="Helvetica,sans-Serif" font-size="10.00">string</text>
</a>
</g>
</g>
<!-- Node1&#45;&gt;Node3 -->
<g id="edge2_Node000001_Node000003" class="edge">
<title>Node1&#45;&gt;Node3</title>
<g id="a_edge2_Node000001_Node000003"><a xlink:title=" ">
<path fill="none" stroke="#63b8ff" d="M184.72,-219.98C274.68,-206.31 432.03,-176.13 461.5,-129 471.04,-113.74 464.73,-76.1 451.5,-55 443.4,-42.08 430.06,-31.71 417.92,-24.25"/>
<polygon fill="#63b8ff" stroke="#63b8ff" points="419.39,-21.05 408.98,-19.11 415.9,-27.12 419.39,-21.05"/>
</a>
</g>
</g>
<!-- Node4 -->
<g id="Node000004" class="node">
<title>Node4</title>
<g id="a_Node000004"><a xlink:title=" ">
<polygon fill="#e0e0e0" stroke="#999999" points="97.5,-184 65.5,-184 65.5,-165 97.5,-165 97.5,-184"/>
<text text-anchor="middle" x="81.5" y="-172" font-family="Helvetica,sans-Serif" font-size="10.00">set</text>
</a>
</g>
</g>
<!-- Node1&#45;&gt;Node4 -->
<g id="edge3_Node000001_Node000004" class="edge">
<title>Node1&#45;&gt;Node4</title>
<g id="a_edge3_Node000001_Node000004"><a xlink:title=" ">
<path fill="none" stroke="#63b8ff" d="M114.89,-219.75C109.24,-212.26 100.96,-201.28 94.05,-192.13"/>
<polygon fill="#63b8ff" stroke="#63b8ff" points="96.8,-189.96 87.98,-184.09 91.21,-194.18 96.8,-189.96"/>
</a>
</g>
</g>
<!-- Node5 -->
<g id="Node000005" class="node">
<title>Node5</title>
<g id="a_Node000005"><a xlink:title=" ">
<polygon fill="#e0e0e0" stroke="#999999" points="209,-184 116,-184 116,-165 209,-165 209,-184"/>
<text text-anchor="middle" x="162.5" y="-172" font-family="Helvetica,sans-Serif" font-size="10.00">unordered_map</text>
</a>
</g>
</g>
<!-- Node1&#45;&gt;Node5 -->
<g id="edge4_Node000001_Node000005" class="edge">
<title>Node1&#45;&gt;Node5</title>
<g id="a_edge4_Node000001_Node000005"><a xlink:title=" ">
<path fill="none" stroke="#63b8ff" d="M128.27,-219.75C134.06,-212.26 142.56,-201.28 149.64,-192.13"/>
<polygon fill="#63b8ff" stroke="#63b8ff" points="152.51,-194.14 155.86,-184.09 146.97,-189.86 152.51,-194.14"/>
</a>
</g>
</g>
<!-- Node6 -->
<g id="Node000006" class="node">
<title>Node6</title>
<g id="a_Node000006"><a xlink:title=" ">
<polygon fill="#e0e0e0" stroke="#999999" points="47,-19 0,-19 0,0 47,0 47,-19"/>
<text text-anchor="middle" x="23.5" y="-7" font-family="Helvetica,sans-Serif" font-size="10.00">vector</text>
</a>
</g>
</g>
<!-- Node1&#45;&gt;Node6 -->
<g id="edge5_Node000001_Node000006" class="edge">
<title>Node1&#45;&gt;Node6</title>
<g id="a_edge5_Node000001_Node000006"><a xlink:title=" ">
<path fill="none" stroke="#63b8ff" d="M97.67,-219.88C80.74,-212.65 58.59,-200.8 44.5,-184 5.93,-138 -7.53,-113.81 4.5,-55 6.39,-45.74 10.29,-36.03 14.07,-28.04"/>
<polygon fill="#63b8ff" stroke="#63b8ff" points="17.24,-29.53 18.62,-19.02 10.99,-26.37 17.24,-29.53"/>
</a>
</g>
</g>
<!-- Node7 -->
<g id="Node000007" class="node">
<title>Node7</title>
<g id="a_Node000007"><a xlink:href="group_8hpp.html" target="_top" xlink:title=" ">
<polygon fill="white" stroke="#666666" points="340,-184 227,-184 227,-165 340,-165 340,-184"/>
<text text-anchor="middle" x="283.5" y="-172" font-family="Helvetica,sans-Serif" font-size="10.00">../models/group.hpp</text>
</a>
</g>
</g>
<!-- Node1&#45;&gt;Node7 -->
<g id="edge6_Node000001_Node000007" class="edge">
<title>Node1&#45;&gt;Node7</title>
<g id="a_edge6_Node000001_Node000007"><a xlink:title=" ">
<path fill="none" stroke="#63b8ff" d="M147.53,-219.98C174.61,-211.13 217.21,-197.19 247.51,-187.28"/>
<polygon fill="#63b8ff" stroke="#63b8ff" points="248.85,-190.52 257.27,-184.08 246.68,-183.87 248.85,-190.52"/>
</a>
</g>
</g>
<!-- Node7&#45;&gt;Node2 -->
<g id="edge7_Node000007_Node000002" class="edge">
<title>Node7&#45;&gt;Node2</title>
<g id="a_edge7_Node000007_Node000002"><a xlink:title=" ">
<path fill="none" stroke="#63b8ff" d="M264.19,-164.84C221.78,-145.84 120.35,-100.39 70.77,-78.17"/>
<polygon fill="#63b8ff" stroke="#63b8ff" points="72.13,-74.94 61.57,-74.05 69.27,-81.33 72.13,-74.94"/>
</a>
</g>
</g>
<!-- Node7&#45;&gt;Node3 -->
<g id="edge8_Node000007_Node000003" class="edge">
<title>Node7&#45;&gt;Node3</title>
<g id="a_edge8_Node000007_Node000003"><a xlink:title=" ">
<path fill="none" stroke="#63b8ff" d="M340.03,-165.24C381.12,-157.95 431.68,-145.85 444.5,-129 469.35,-96.35 431.83,-50.44 407.88,-26.48"/>
<polygon fill="#63b8ff" stroke="#63b8ff" points="410.01,-23.67 400.39,-19.24 405.15,-28.71 410.01,-23.67"/>
</a>
</g>
</g>
<!-- Node8 -->
<g id="Node000008" class="node">
<title>Node8</title>
<g id="a_Node000008"><a xlink:title=" ">
<polygon fill="#e0e0e0" stroke="#999999" points="401.5,-74 315.5,-74 315.5,-55 401.5,-55 401.5,-74"/>
<text text-anchor="middle" x="358.5" y="-62" font-family="Helvetica,sans-Serif" font-size="10.00">unordered_set</text>
</a>
</g>
</g>
<!-- Node7&#45;&gt;Node8 -->
<g id="edge9_Node000007_Node000008" class="edge">
<title>Node7&#45;&gt;Node8</title>
<g id="a_edge9_Node000007_Node000008"><a xlink:title=" ">
<path fill="none" stroke="#63b8ff" d="M290.22,-164.74C296.99,-155.83 307.67,-141.6 316.5,-129 327.26,-113.65 338.99,-95.81 347.31,-82.96"/>
<polygon fill="#63b8ff" stroke="#63b8ff" points="350.46,-84.53 352.94,-74.23 344.58,-80.74 350.46,-84.53"/>
</a>
</g>
</g>
<!-- Node9 -->
<g id="Node000009" class="node">
<title>Node9</title>
<g id="a_Node000009"><a xlink:href="endpoint_8hpp.html" target="_top" xlink:title=" ">
<polygon fill="white" stroke="#666666" points="169.5,-74 89.5,-74 89.5,-55 169.5,-55 169.5,-74"/>
<text text-anchor="middle" x="129.5" y="-62" font-family="Helvetica,sans-Serif" font-size="10.00">endpoint.hpp</text>
</a>
</g>
</g>
<!-- Node7&#45;&gt;Node9 -->
<g id="edge10_Node000007_Node000009" class="edge">
<title>Node7&#45;&gt;Node9</title>
<g id="a_edge10_Node000007_Node000009"><a xlink:title=" ">
<path fill="none" stroke="#63b8ff" d="M271.16,-164.84C244.8,-146.36 182.77,-102.86 150.24,-80.05"/>
<polygon fill="#63b8ff" stroke="#63b8ff" points="152.1,-77.07 141.9,-74.2 148.08,-82.8 152.1,-77.07"/>
</a>
</g>
</g>
<!-- Node12 -->
<g id="Node000012" class="node">
<title>Node12</title>
<g id="a_Node000012"><a xlink:href="file_8hpp.html" target="_top" xlink:title=" ">
<polygon fill="white" stroke="#666666" points="308,-129 255,-129 255,-110 308,-110 308,-129"/>
<text text-anchor="middle" x="281.5" y="-117" font-family="Helvetica,sans-Serif" font-size="10.00">file.hpp</text>
</a>
</g>
</g>
<!-- Node7&#45;&gt;Node12 -->
<g id="edge14_Node000007_Node000012" class="edge">
<title>Node7&#45;&gt;Node12</title>
<g id="a_edge14_Node000007_Node000012"><a xlink:title=" ">
<path fill="none" stroke="#63b8ff" d="M283.17,-164.75C282.91,-157.8 282.53,-147.85 282.2,-139.13"/>
<polygon fill="#63b8ff" stroke="#63b8ff" points="285.7,-138.95 281.82,-129.09 278.7,-139.21 285.7,-138.95"/>
</a>
</g>
</g>
<!-- Node13 -->
<g id="Node000013" class="node">
<title>Node13</title>
<g id="a_Node000013"><a xlink:href="fileinfo_8hpp.html" target="_top" xlink:title=" ">
<polygon fill="white" stroke="#666666" points="259,-74 188,-74 188,-55 259,-55 259,-74"/>
<text text-anchor="middle" x="223.5" y="-62" font-family="Helvetica,sans-Serif" font-size="10.00">fileinfo.hpp</text>
</a>
</g>
</g>
<!-- Node7&#45;&gt;Node13 -->
<g id="edge24_Node000007_Node000013" class="edge">
<title>Node7&#45;&gt;Node13</title>
<g id="a_edge24_Node000007_Node000013"><a xlink:title=" ">
<path fill="none" stroke="#63b8ff" d="M274.24,-164.73C265.76,-156.27 253.38,-142.75 245.5,-129 237.35,-114.76 231.51,-97.01 227.91,-83.89"/>
<polygon fill="#63b8ff" stroke="#63b8ff" points="231.28,-82.96 225.41,-74.15 224.5,-84.7 231.28,-82.96"/>
</a>
</g>
</g>
<!-- Node15 -->
<g id="Node000015" class="node">
<title>Node15</title>
<g id="a_Node000015"><a xlink:href="user_8hpp.html" target="_top" xlink:title=" ">
<polygon fill="white" stroke="#666666" points="435.5,-129 377.5,-129 377.5,-110 435.5,-110 435.5,-129"/>
<text text-anchor="middle" x="406.5" y="-117" font-family="Helvetica,sans-Serif" font-size="10.00">user.hpp</text>
</a>
</g>
</g>
<!-- Node7&#45;&gt;Node15 -->
<g id="edge25_Node000007_Node000015" class="edge">
<title>Node7&#45;&gt;Node15</title>
<g id="a_edge25_Node000007_Node000015"><a xlink:title=" ">
<path fill="none" stroke="#63b8ff" d="M303.26,-164.98C323.23,-156.38 354.3,-142.99 377.15,-133.15"/>
<polygon fill="#63b8ff" stroke="#63b8ff" points="378.58,-136.34 386.38,-129.17 375.81,-129.91 378.58,-136.34"/>
</a>
</g>
</g>
<!-- Node9&#45;&gt;Node3 -->
<g id="edge13_Node000009_Node000003" class="edge">
<title>Node9&#45;&gt;Node3</title>
<g id="a_edge13_Node000009_Node000003"><a xlink:title=" ">
<path fill="none" stroke="#63b8ff" d="M169.71,-55.33C221.56,-44.81 310.7,-26.71 358.31,-17.04"/>
<polygon fill="#63b8ff" stroke="#63b8ff" points="359.26,-20.41 368.37,-14.99 357.87,-13.55 359.26,-20.41"/>
</a>
</g>
</g>
<!-- Node10 -->
<g id="Node000010" class="node">
<title>Node10</title>
<g id="a_Node000010"><a xlink:title=" ">
<polygon fill="#e0e0e0" stroke="#999999" points="123.5,-19 73.5,-19 73.5,0 123.5,0 123.5,-19"/>
<text text-anchor="middle" x="98.5" y="-7" font-family="Helvetica,sans-Serif" font-size="10.00">cstdint</text>
</a>
</g>
</g>
<!-- Node9&#45;&gt;Node10 -->
<g id="edge11_Node000009_Node000010" class="edge">
<title>Node9&#45;&gt;Node10</title>
<g id="a_edge11_Node000009_Node000010"><a xlink:title=" ">
<path fill="none" stroke="#63b8ff" d="M124.38,-54.75C120.14,-47.49 113.97,-36.95 108.72,-27.98"/>
<polygon fill="#63b8ff" stroke="#63b8ff" points="111.59,-25.95 103.52,-19.09 105.55,-29.49 111.59,-25.95"/>
</a>
</g>
</g>
<!-- Node11 -->
<g id="Node000011" class="node">
<title>Node11</title>
<g id="a_Node000011"><a xlink:title=" ">
<polygon fill="#e0e0e0" stroke="#999999" points="207,-19 142,-19 142,0 207,0 207,-19"/>
<text text-anchor="middle" x="174.5" y="-7" font-family="Helvetica,sans-Serif" font-size="10.00">stdexcept</text>
</a>
</g>
</g>
<!-- Node9&#45;&gt;Node11 -->
<g id="edge12_Node000009_Node000011" class="edge">
<title>Node9&#45;&gt;Node11</title>
<g id="a_edge12_Node000009_Node000011"><a xlink:title=" ">
<path fill="none" stroke="#63b8ff" d="M136.93,-54.75C143.35,-47.18 152.81,-36.05 160.62,-26.84"/>
<polygon fill="#63b8ff" stroke="#63b8ff" points="163.4,-28.98 167.21,-19.09 158.07,-24.45 163.4,-28.98"/>
</a>
</g>
</g>
<!-- Node12&#45;&gt;Node2 -->
<g id="edge15_Node000012_Node000002" class="edge">
<title>Node12&#45;&gt;Node2</title>
<g id="a_edge15_Node000012_Node000002"><a xlink:title=" ">
<path fill="none" stroke="#63b8ff" d="M254.83,-112.62C218.14,-104.51 149.75,-89.4 81.6,-74.24"/>
<polygon fill="#63b8ff" stroke="#63b8ff" points="82.07,-70.76 71.54,-72 80.55,-77.59 82.07,-70.76"/>
</a>
</g>
</g>
<!-- Node12&#45;&gt;Node3 -->
<g id="edge16_Node000012_Node000003" class="edge">
<title>Node12&#45;&gt;Node3</title>
<g id="a_edge16_Node000012_Node000003"><a xlink:title=" ">
<path fill="none" stroke="#63b8ff" d="M282.96,-109.68C285.56,-96.39 292.13,-71.08 306.5,-55 320.47,-39.36 341.27,-28.29 358.67,-21.1"/>
<polygon fill="#63b8ff" stroke="#63b8ff" points="360.39,-24.18 368.45,-17.3 357.86,-17.66 360.39,-24.18"/>
</a>
</g>
</g>
<!-- Node12&#45;&gt;Node8 -->
<g id="edge17_Node000012_Node000008" class="edge">
<title>Node12&#45;&gt;Node8</title>
<g id="a_edge17_Node000012_Node000008"><a xlink:title=" ">
<path fill="none" stroke="#63b8ff" d="M293.87,-109.98C305.59,-101.92 323.42,-89.65 337.39,-80.03"/>
<polygon fill="#63b8ff" stroke="#63b8ff" points="339.65,-82.72 345.9,-74.17 335.68,-76.96 339.65,-82.72"/>
</a>
</g>
</g>
<!-- Node12&#45;&gt;Node9 -->
<g id="edge18_Node000012_Node000009" class="edge">
<title>Node12&#45;&gt;Node9</title>
<g id="a_edge18_Node000012_Node000009"><a xlink:title=" ">
<path fill="none" stroke="#63b8ff" d="M257.08,-109.98C231.78,-101.16 192.05,-87.31 163.64,-77.41"/>
<polygon fill="#63b8ff" stroke="#63b8ff" points="164.71,-74.07 154.11,-74.08 162.4,-80.68 164.71,-74.07"/>
</a>
</g>
</g>
<!-- Node12&#45;&gt;Node13 -->
<g id="edge19_Node000012_Node000013" class="edge">
<title>Node12&#45;&gt;Node13</title>
<g id="a_edge19_Node000012_Node000013"><a xlink:title=" ">
<path fill="none" stroke="#63b8ff" d="M272.18,-109.98C263.69,-102.23 250.94,-90.58 240.62,-81.14"/>
<polygon fill="#63b8ff" stroke="#63b8ff" points="242.73,-78.33 232.99,-74.17 238.01,-83.5 242.73,-78.33"/>
</a>
</g>
</g>
<!-- Node13&#45;&gt;Node3 -->
<g id="edge22_Node000013_Node000003" class="edge">
<title>Node13&#45;&gt;Node3</title>
<g id="a_edge22_Node000013_Node000003"><a xlink:title=" ">
<path fill="none" stroke="#63b8ff" d="M250.33,-54.98C279.87,-45.61 327.31,-30.55 358.69,-20.59"/>
<polygon fill="#63b8ff" stroke="#63b8ff" points="359.8,-23.91 368.28,-17.55 357.69,-17.24 359.8,-23.91"/>
</a>
</g>
</g>
<!-- Node13&#45;&gt;Node6 -->
<g id="edge23_Node000013_Node000006" class="edge">
<title>Node13&#45;&gt;Node6</title>
<g id="a_edge23_Node000013_Node000006"><a xlink:title=" ">
<path fill="none" stroke="#63b8ff" d="M191.37,-54.98C154.53,-45.22 94.42,-29.29 57.01,-19.38"/>
<polygon fill="#63b8ff" stroke="#63b8ff" points="57.66,-15.93 47.1,-16.75 55.87,-22.7 57.66,-15.93"/>
</a>
</g>
</g>
<!-- Node13&#45;&gt;Node11 -->
<g id="edge21_Node000013_Node000011" class="edge">
<title>Node13&#45;&gt;Node11</title>
<g id="a_edge21_Node000013_Node000011"><a xlink:title=" ">
<path fill="none" stroke="#63b8ff" d="M215.41,-54.75C208.34,-47.11 197.91,-35.82 189.35,-26.56"/>
<polygon fill="#63b8ff" stroke="#63b8ff" points="191.8,-24.06 182.44,-19.09 186.66,-28.81 191.8,-24.06"/>
</a>
</g>
</g>
<!-- Node14 -->
<g id="Node000014" class="node">
<title>Node14</title>
<g id="a_Node000014"><a xlink:title=" ">
<polygon fill="#e0e0e0" stroke="#999999" points="281.5,-19 225.5,-19 225.5,0 281.5,0 281.5,-19"/>
<text text-anchor="middle" x="253.5" y="-7" font-family="Helvetica,sans-Serif" font-size="10.00">sstream</text>
</a>
</g>
</g>
<!-- Node13&#45;&gt;Node14 -->
<g id="edge20_Node000013_Node000014" class="edge">
<title>Node13&#45;&gt;Node14</title>
<g id="a_edge20_Node000013_Node000014"><a xlink:title=" ">
<path fill="none" stroke="#63b8ff" d="M228.45,-54.75C232.56,-47.49 238.53,-36.95 243.6,-27.98"/>
<polygon fill="#63b8ff" stroke="#63b8ff" points="246.76,-29.52 248.64,-19.09 240.67,-26.07 246.76,-29.52"/>
</a>
</g>
</g>
<!-- Node15&#45;&gt;Node3 -->
<g id="edge26_Node000015_Node000003" class="edge">
<title>Node15&#45;&gt;Node3</title>
<g id="a_edge26_Node000015_Node000003"><a xlink:title=" ">
<path fill="none" stroke="#63b8ff" d="M408.54,-109.76C411.08,-97.42 414.62,-74.23 410.5,-55 408.53,-45.8 404.5,-36.2 400.57,-28.29"/>
<polygon fill="#63b8ff" stroke="#63b8ff" points="403.59,-26.51 395.82,-19.32 397.41,-29.79 403.59,-26.51"/>
</a>
</g>
</g>
</g>
</svg>
