<?xml version="1.0" encoding="UTF-8" standalone="no"?>
<!DOCTYPE svg PUBLIC "-//W3C//DTD SVG 1.1//EN"
 "http://www.w3.org/Graphics/SVG/1.1/DTD/svg11.dtd">
<!-- Generated by graphviz version 2.43.0 (0)
 -->
<!-- Title: src/tracker/groupdb.hpp Pages: 1 -->
<svg width="499pt" height="247pt"
 viewBox="0.00 0.00 498.95 247.00" xmlns="http://www.w3.org/2000/svg" xmlns:xlink="http://www.w3.org/1999/xlink">
<g id="graph0" class="graph" transform="scale(1 1) rotate(0) translate(4 243)">
<title>src/tracker/groupdb.hpp</title>
<!-- Node1 -->
<g id="Node000001" class="node">
<title>Node1</title>
<g id="a_Node000001"><a xlink:title=" ">
<polygon fill="#999999" stroke="#666666" points="189.73,-239 58.73,-239 58.73,-220 189.73,-220 189.73,-239"/>
<text text-anchor="middle" x="124.23" y="-227" font-family="Helvetica,sans-Serif" font-size="10.00">src/tracker/groupdb.hpp</text>
</a>
</g>
</g>
<!-- Node2 -->
<g id="Node000002" class="node">
<title>Node2</title>
<g id="a_Node000002"><a xlink:title=" ">
<polygon fill="#e0e0e0" stroke="#999999" points="69.23,-74 11.23,-74 11.23,-55 69.23,-55 69.23,-74"/>
<text text-anchor="middle" x="40.23" y="-62" font-family="Helvetica,sans-Serif" font-size="10.00">memory</text>
</a>
</g>
</g>
<!-- Node1&#45;&gt;Node2 -->
<g id="edge1_Node000001_Node000002" class="edge">
<title>Node1&#45;&gt;Node2</title>
<g id="a_edge1_Node000001_Node000002"><a xlink:title=" ">
<path fill="none" stroke="#63b8ff" d="M103.85,-219.95C89.02,-212.64 69.77,-200.64 59.23,-184 39.69,-153.16 38,-109.01 38.88,-84.23"/>
<polygon fill="#63b8ff" stroke="#63b8ff" points="42.39,-84.21 39.43,-74.04 35.4,-83.84 42.39,-84.21"/>
</a>
</g>
</g>
<!-- Node3 -->
<g id="Node000003" class="node">
<title>Node3</title>
<g id="a_Node000003"><a xlink:title=" ">
<polygon fill="#e0e0e0" stroke="#999999" points="468.23,-19 424.23,-19 424.23,0 468.23,0 468.23,-19"/>
<text text-anchor="middle" x="446.23" y="-7" font-family="Helvetica,sans-Serif" font-size="10.00">string</text>
</a>
</g>
</g>
<!-- Node1&#45;&gt;Node3 -->
<g id="edge2_Node000001_Node000003" class="edge">
<title>Node1&#45;&gt;Node3</title>
<g id="a_edge2_Node000001_Node000003"><a xlink:title=" ">
<path fill="none" stroke="#63b8ff" d="M189.85,-219.98C282.83,-206.35 445.31,-176.28 478.23,-129 497.05,-101.99 492,-86.11 481.23,-55 477.56,-44.38 470.19,-34.38 463.16,-26.55"/>
<polygon fill="#63b8ff" stroke="#63b8ff" points="465.58,-24.02 456.12,-19.25 460.54,-28.88 465.58,-24.02"/>
</a>
</g>
</g>
<!-- Node4 -->
<g id="Node000004" class="node">
<title>Node4</title>
<g id="a_Node000004"><a xlink:title=" ">
<polygon fill="#e0e0e0" stroke="#999999" points="100.23,-184 68.23,-184 68.23,-165 100.23,-165 100.23,-184"/>
<text text-anchor="middle" x="84.23" y="-172" font-family="Helvetica,sans-Serif" font-size="10.00">set</text>
</a>
</g>
</g>
<!-- Node1&#45;&gt;Node4 -->
<g id="edge3_Node000001_Node000004" class="edge">
<title>Node1&#45;&gt;Node4</title>
<g id="a_edge3_Node000001_Node000004"><a xlink:title=" ">
<path fill="none" stroke="#63b8ff" d="M117.63,-219.75C111.98,-212.26 103.69,-201.28 96.78,-192.13"/>
<polygon fill="#63b8ff" stroke="#63b8ff" points="99.53,-189.96 90.72,-184.09 93.95,-194.18 99.53,-189.96"/>
</a>
</g>
</g>
<!-- Node5 -->
<g id="Node000005" class="node">
<title>Node5</title>
<g id="a_Node000005"><a xlink:title=" ">
<polygon fill="#e0e0e0" stroke="#999999" points="211.73,-184 118.73,-184 118.73,-165 211.73,-165 211.73,-184"/>
<text text-anchor="middle" x="165.23" y="-172" font-family="Helvetica,sans-Serif" font-size="10.00">unordered_map</text>
</a>
</g>
</g>
<!-- Node1&#45;&gt;Node5 -->
<g id="edge4_Node000001_Node000005" class="edge">
<title>Node1&#45;&gt;Node5</title>
<g id="a_edge4_Node000001_Node000005"><a xlink:title=" ">
<path fill="none" stroke="#63b8ff" d="M131,-219.75C136.8,-212.26 145.29,-201.28 152.37,-192.13"/>
<polygon fill="#63b8ff" stroke="#63b8ff" points="155.24,-194.14 158.59,-184.09 149.7,-189.86 155.24,-194.14"/>
</a>
</g>
</g>
<!-- Node6 -->
<g id="Node000006" class="node">
<title>Node6</title>
<g id="a_Node000006"><a xlink:title=" ">
<polygon fill="#e0e0e0" stroke="#999999" points="81.73,-19 34.73,-19 34.73,0 81.73,0 81.73,-19"/>
<text text-anchor="middle" x="58.23" y="-7" font-family="Helvetica,sans-Serif" font-size="10.00">vector</text>
</a>
</g>
</g>
<!-- Node1&#45;&gt;Node6 -->
<g id="edge5_Node000001_Node000006" class="edge">
<title>Node1&#45;&gt;Node6</title>
<g id="a_edge5_Node000001_Node000006"><a xlink:title=" ">
<path fill="none" stroke="#63b8ff" d="M100.62,-219.97C83.5,-212.73 60.88,-200.81 46.23,-184 11.66,-144.29 12.19,-125.7 2.23,-74 0.64,-65.71 -1.44,-62.61 2.23,-55 8.45,-42.12 20.42,-31.82 31.69,-24.38"/>
<polygon fill="#63b8ff" stroke="#63b8ff" points="33.74,-27.23 40.47,-19.04 30.1,-21.25 33.74,-27.23"/>
</a>
</g>
</g>
<!-- Node7 -->
<g id="Node000007" class="node">
<title>Node7</title>
<g id="a_Node000007"><a xlink:href="group_8hpp.html" target="_top" xlink:title=" ">
<polygon fill="white" stroke="#666666" points="342.73,-184 229.73,-184 229.73,-165 342.73,-165 342.73,-184"/>
<text text-anchor="middle" x="286.23" y="-172" font-family="Helvetica,sans-Serif" font-size="10.00">../models/group.hpp</text>
</a>
</g>
</g>
<!-- Node1&#45;&gt;Node7 -->
<g id="edge6_Node000001_Node000007" class="edge">
<title>Node1&#45;&gt;Node7</title>
<g id="a_edge6_Node000001_Node000007"><a xlink:title=" ">
<path fill="none" stroke="#63b8ff" d="M150.26,-219.98C177.34,-211.13 219.94,-197.19 250.24,-187.28"/>
<polygon fill="#63b8ff" stroke="#63b8ff" points="251.59,-190.52 260,-184.08 249.41,-183.87 251.59,-190.52"/>
</a>
</g>
</g>
<!-- Node7&#45;&gt;Node2 -->
<g id="edge7_Node000007_Node000002" class="edge">
<title>Node7&#45;&gt;Node2</title>
<g id="a_edge7_Node000007_Node000002"><a xlink:title=" ">
<path fill="none" stroke="#63b8ff" d="M261.54,-165C237.47,-156.52 199.95,-142.81 168.23,-129 131.73,-113.11 90.69,-92.18 65.14,-78.78"/>
<polygon fill="#63b8ff" stroke="#63b8ff" points="66.63,-75.61 56.16,-74.04 63.37,-81.8 66.63,-75.61"/>
</a>
</g>
</g>
<!-- Node7&#45;&gt;Node3 -->
<g id="edge8_Node000007_Node000003" class="edge">
<title>Node7&#45;&gt;Node3</title>
<g id="a_edge8_Node000007_Node000003"><a xlink:title=" ">
<path fill="none" stroke="#63b8ff" d="M342.75,-166.57C387.85,-159.74 445.8,-147.59 460.23,-129 483.01,-99.66 467.02,-53.29 455.39,-28.14"/>
<polygon fill="#63b8ff" stroke="#63b8ff" points="458.48,-26.49 450.94,-19.05 452.19,-29.57 458.48,-26.49"/>
</a>
</g>
</g>
<!-- Node8 -->
<g id="Node000008" class="node">
<title>Node8</title>
<g id="a_Node000008"><a xlink:title=" ">
<polygon fill="#e0e0e0" stroke="#999999" points="173.23,-74 87.23,-74 87.23,-55 173.23,-55 173.23,-74"/>
<text text-anchor="middle" x="130.23" y="-62" font-family="Helvetica,sans-Serif" font-size="10.00">unordered_set</text>
</a>
</g>
</g>
<!-- Node7&#45;&gt;Node8 -->
<g id="edge9_Node000007_Node000008" class="edge">
<title>Node7&#45;&gt;Node8</title>
<g id="a_edge9_Node000007_Node000008"><a xlink:title=" ">
<path fill="none" stroke="#63b8ff" d="M263.82,-164.91C244.7,-157.04 216.94,-144.31 195.23,-129 175.8,-115.3 156.72,-95.72 144.31,-81.93"/>
<polygon fill="#63b8ff" stroke="#63b8ff" points="146.74,-79.39 137.51,-74.2 141.49,-84.02 146.74,-79.39"/>
</a>
</g>
</g>
<!-- Node9 -->
<g id="Node000009" class="node">
<title>Node9</title>
<g id="a_Node000009"><a xlink:href="endpoint_8hpp.html" target="_top" xlink:title=" ">
<polygon fill="white" stroke="#666666" points="399.23,-74 319.23,-74 319.23,-55 399.23,-55 399.23,-74"/>
<text text-anchor="middle" x="359.23" y="-62" font-family="Helvetica,sans-Serif" font-size="10.00">endpoint.hpp</text>
</a>
</g>
</g>
<!-- Node7&#45;&gt;Node9 -->
<g id="edge10_Node000007_Node000009" class="edge">
<title>Node7&#45;&gt;Node9</title>
<g id="a_edge10_Node000007_Node000009"><a xlink:title=" ">
<path fill="none" stroke="#63b8ff" d="M292.21,-164.66C304.3,-146.77 331.86,-106 347.61,-82.69"/>
<polygon fill="#63b8ff" stroke="#63b8ff" points="350.68,-84.4 353.38,-74.16 344.88,-80.48 350.68,-84.4"/>
</a>
</g>
</g>
<!-- Node12 -->
<g id="Node000012" class="node">
<title>Node12</title>
<g id="a_Node000012"><a xlink:href="file_8hpp.html" target="_top" xlink:title=" ">
<polygon fill="white" stroke="#666666" points="257.73,-129 204.73,-129 204.73,-110 257.73,-110 257.73,-129"/>
<text text-anchor="middle" x="231.23" y="-117" font-family="Helvetica,sans-Serif" font-size="10.00">file.hpp</text>
</a>
</g>
</g>
<!-- Node7&#45;&gt;Node12 -->
<g id="edge14_Node000007_Node000012" class="edge">
<title>Node7&#45;&gt;Node12</title>
<g id="a_edge14_Node000007_Node000012"><a xlink:title=" ">
<path fill="none" stroke="#63b8ff" d="M277.15,-164.75C269.14,-157.03 257.28,-145.6 247.61,-136.28"/>
<polygon fill="#63b8ff" stroke="#63b8ff" points="249.78,-133.51 240.15,-129.09 244.92,-138.55 249.78,-133.51"/>
</a>
</g>
</g>
<!-- Node14 -->
<g id="Node000014" class="node">
<title>Node14</title>
<g id="a_Node000014"><a xlink:href="fileinfo_8hpp.html" target="_top" xlink:title=" ">
<polygon fill="white" stroke="#666666" points="300.73,-74 229.73,-74 229.73,-55 300.73,-55 300.73,-74"/>
<text text-anchor="middle" x="265.23" y="-62" font-family="Helvetica,sans-Serif" font-size="10.00">fileinfo.hpp</text>
</a>
</g>
</g>
<!-- Node7&#45;&gt;Node14 -->
<g id="edge25_Node000007_Node000014" class="edge">
<title>Node7&#45;&gt;Node14</title>
<g id="a_edge25_Node000007_Node000014"><a xlink:title=" ">
<path fill="none" stroke="#63b8ff" d="M284.52,-164.66C281.12,-147.17 273.46,-107.8 268.88,-84.27"/>
<polygon fill="#63b8ff" stroke="#63b8ff" points="272.26,-83.31 266.92,-74.16 265.39,-84.64 272.26,-83.31"/>
</a>
</g>
</g>
<!-- Node15 -->
<g id="Node000015" class="node">
<title>Node15</title>
<g id="a_Node000015"><a xlink:href="user_8hpp.html" target="_top" xlink:title=" ">
<polygon fill="white" stroke="#666666" points="451.23,-129 393.23,-129 393.23,-110 451.23,-110 451.23,-129"/>
<text text-anchor="middle" x="422.23" y="-117" font-family="Helvetica,sans-Serif" font-size="10.00">user.hpp</text>
</a>
</g>
</g>
<!-- Node7&#45;&gt;Node15 -->
<g id="edge26_Node000007_Node000015" class="edge">
<title>Node7&#45;&gt;Node15</title>
<g id="a_edge26_Node000007_Node000015"><a xlink:title=" ">
<path fill="none" stroke="#63b8ff" d="M308.09,-164.98C330.36,-156.3 365.14,-142.75 390.45,-132.88"/>
<polygon fill="#63b8ff" stroke="#63b8ff" points="391.94,-136.06 399.99,-129.17 389.4,-129.54 391.94,-136.06"/>
</a>
</g>
</g>
<!-- Node9&#45;&gt;Node3 -->
<g id="edge13_Node000009_Node000003" class="edge">
<title>Node9&#45;&gt;Node3</title>
<g id="a_edge13_Node000009_Node000003"><a xlink:title=" ">
<path fill="none" stroke="#63b8ff" d="M373.21,-54.98C386.7,-46.77 407.37,-34.18 423.28,-24.49"/>
<polygon fill="#63b8ff" stroke="#63b8ff" points="425.28,-27.36 432,-19.17 421.64,-21.38 425.28,-27.36"/>
</a>
</g>
</g>
<!-- Node10 -->
<g id="Node000010" class="node">
<title>Node10</title>
<g id="a_Node000010"><a xlink:title=" ">
<polygon fill="#e0e0e0" stroke="#999999" points="384.23,-19 334.23,-19 334.23,0 384.23,0 384.23,-19"/>
<text text-anchor="middle" x="359.23" y="-7" font-family="Helvetica,sans-Serif" font-size="10.00">cstdint</text>
</a>
</g>
</g>
<!-- Node9&#45;&gt;Node10 -->
<g id="edge11_Node000009_Node000010" class="edge">
<title>Node9&#45;&gt;Node10</title>
<g id="a_edge11_Node000009_Node000010"><a xlink:title=" ">
<path fill="none" stroke="#63b8ff" d="M359.23,-54.75C359.23,-47.8 359.23,-37.85 359.23,-29.13"/>
<polygon fill="#63b8ff" stroke="#63b8ff" points="362.73,-29.09 359.23,-19.09 355.73,-29.09 362.73,-29.09"/>
</a>
</g>
</g>
<!-- Node11 -->
<g id="Node000011" class="node">
<title>Node11</title>
<g id="a_Node000011"><a xlink:title=" ">
<polygon fill="#e0e0e0" stroke="#999999" points="314.73,-19 249.73,-19 249.73,0 314.73,0 314.73,-19"/>
<text text-anchor="middle" x="282.23" y="-7" font-family="Helvetica,sans-Serif" font-size="10.00">stdexcept</text>
</a>
</g>
</g>
<!-- Node9&#45;&gt;Node11 -->
<g id="edge12_Node000009_Node000011" class="edge">
<title>Node9&#45;&gt;Node11</title>
<g id="a_edge12_Node000009_Node000011"><a xlink:title=" ">
<path fill="none" stroke="#63b8ff" d="M346.86,-54.98C335.15,-46.92 317.31,-34.65 303.35,-25.03"/>
<polygon fill="#63b8ff" stroke="#63b8ff" points="305.05,-21.96 294.83,-19.17 301.08,-27.72 305.05,-21.96"/>
</a>
</g>
</g>
<!-- Node12&#45;&gt;Node2 -->
<g id="edge15_Node000012_Node000002" class="edge">
<title>Node12&#45;&gt;Node2</title>
<g id="a_edge15_Node000012_Node000002"><a xlink:title=" ">
<path fill="none" stroke="#63b8ff" d="M204.68,-111.13C172.16,-102.11 116.83,-86.75 79.42,-76.37"/>
<polygon fill="#63b8ff" stroke="#63b8ff" points="79.95,-72.89 69.38,-73.59 78.08,-79.63 79.95,-72.89"/>
</a>
</g>
</g>
<!-- Node12&#45;&gt;Node3 -->
<g id="edge16_Node000012_Node000003" class="edge">
<title>Node12&#45;&gt;Node3</title>
<g id="a_edge16_Node000012_Node000003"><a xlink:title=" ">
<path fill="none" stroke="#63b8ff" d="M257.91,-117.99C295.07,-116.01 362.96,-107.63 408.23,-74 423.5,-62.66 433.82,-43.19 439.81,-28.8"/>
<polygon fill="#63b8ff" stroke="#63b8ff" points="443.1,-29.99 443.41,-19.4 436.56,-27.48 443.1,-29.99"/>
</a>
</g>
</g>
<!-- Node12&#45;&gt;Node8 -->
<g id="edge18_Node000012_Node000008" class="edge">
<title>Node12&#45;&gt;Node8</title>
<g id="a_edge18_Node000012_Node000008"><a xlink:title=" ">
<path fill="none" stroke="#63b8ff" d="M215.01,-109.98C199.05,-101.61 174.46,-88.7 155.86,-78.95"/>
<polygon fill="#63b8ff" stroke="#63b8ff" points="157.24,-75.72 146.76,-74.17 153.99,-81.92 157.24,-75.72"/>
</a>
</g>
</g>
<!-- Node12&#45;&gt;Node9 -->
<g id="edge19_Node000012_Node000009" class="edge">
<title>Node12&#45;&gt;Node9</title>
<g id="a_edge19_Node000012_Node000009"><a xlink:title=" ">
<path fill="none" stroke="#63b8ff" d="M251.8,-109.98C272.67,-101.34 305.21,-87.87 329.01,-78.02"/>
<polygon fill="#63b8ff" stroke="#63b8ff" points="330.39,-81.23 338.29,-74.17 327.72,-74.76 330.39,-81.23"/>
</a>
</g>
</g>
<!-- Node13 -->
<g id="Node000013" class="node">
<title>Node13</title>
<g id="a_Node000013"><a xlink:title=" ">
<polygon fill="#e0e0e0" stroke="#999999" points="230.23,-19 174.23,-19 174.23,0 230.23,0 230.23,-19"/>
<text text-anchor="middle" x="202.23" y="-7" font-family="Helvetica,sans-Serif" font-size="10.00">sstream</text>
</a>
</g>
</g>
<!-- Node12&#45;&gt;Node13 -->
<g id="edge17_Node000012_Node000013" class="edge">
<title>Node12&#45;&gt;Node13</title>
<g id="a_edge17_Node000012_Node000013"><a xlink:title=" ">
<path fill="none" stroke="#63b8ff" d="M228.86,-109.66C224.14,-92.09 213.5,-52.45 207.19,-28.95"/>
<polygon fill="#63b8ff" stroke="#63b8ff" points="210.53,-27.91 204.56,-19.16 203.77,-29.72 210.53,-27.91"/>
</a>
</g>
</g>
<!-- Node12&#45;&gt;Node14 -->
<g id="edge20_Node000012_Node000014" class="edge">
<title>Node12&#45;&gt;Node14</title>
<g id="a_edge20_Node000012_Node000014"><a xlink:title=" ">
<path fill="none" stroke="#63b8ff" d="M236.85,-109.75C241.55,-102.42 248.41,-91.73 254.2,-82.7"/>
<polygon fill="#63b8ff" stroke="#63b8ff" points="257.27,-84.4 259.72,-74.09 251.38,-80.62 257.27,-84.4"/>
</a>
</g>
</g>
<!-- Node14&#45;&gt;Node3 -->
<g id="edge23_Node000014_Node000003" class="edge">
<title>Node14&#45;&gt;Node3</title>
<g id="a_edge23_Node000014_Node000003"><a xlink:title=" ">
<path fill="none" stroke="#63b8ff" d="M294.32,-54.98C327.1,-45.39 380.24,-29.82 414.19,-19.88"/>
<polygon fill="#63b8ff" stroke="#63b8ff" points="415.46,-23.16 424.07,-16.99 413.49,-16.44 415.46,-23.16"/>
</a>
</g>
</g>
<!-- Node14&#45;&gt;Node6 -->
<g id="edge24_Node000014_Node000006" class="edge">
<title>Node14&#45;&gt;Node6</title>
<g id="a_edge24_Node000014_Node000006"><a xlink:title=" ">
<path fill="none" stroke="#63b8ff" d="M231.98,-54.98C193.37,-45.1 130.07,-28.89 91.47,-19.01"/>
<polygon fill="#63b8ff" stroke="#63b8ff" points="92.31,-15.61 81.75,-16.52 90.57,-22.39 92.31,-15.61"/>
</a>
</g>
</g>
<!-- Node14&#45;&gt;Node11 -->
<g id="edge22_Node000014_Node000011" class="edge">
<title>Node14&#45;&gt;Node11</title>
<g id="a_edge22_Node000014_Node000011"><a xlink:title=" ">
<path fill="none" stroke="#63b8ff" d="M268.04,-54.75C270.29,-47.72 273.53,-37.62 276.35,-28.84"/>
<polygon fill="#63b8ff" stroke="#63b8ff" points="279.76,-29.68 279.48,-19.09 273.09,-27.54 279.76,-29.68"/>
</a>
</g>
</g>
<!-- Node14&#45;&gt;Node13 -->
<g id="edge21_Node000014_Node000013" class="edge">
<title>Node14&#45;&gt;Node13</title>
<g id="a_edge21_Node000014_Node000013"><a xlink:title=" ">
<path fill="none" stroke="#63b8ff" d="M255.11,-54.98C245.8,-47.15 231.77,-35.34 220.5,-25.86"/>
<polygon fill="#63b8ff" stroke="#63b8ff" points="222.45,-22.93 212.54,-19.17 217.94,-28.29 222.45,-22.93"/>
</a>
</g>
</g>
<!-- Node15&#45;&gt;Node3 -->
<g id="edge27_Node000015_Node000003" class="edge">
<title>Node15&#45;&gt;Node3</title>
<g id="a_edge27_Node000015_Node000003"><a xlink:title=" ">
<path fill="none" stroke="#63b8ff" d="M426.89,-109.93C431.41,-101.17 438.03,-87.05 441.23,-74 444.83,-59.37 446.02,-42.32 446.34,-29.57"/>
<polygon fill="#63b8ff" stroke="#63b8ff" points="449.84,-29.3 446.43,-19.27 442.84,-29.24 449.84,-29.3"/>
</a>
</g>
</g>
</g>
</svg>
