<?xml version="1.0" encoding="UTF-8" standalone="no"?>
<!DOCTYPE svg PUBLIC "-//W3C//DTD SVG 1.1//EN"
 "http://www.w3.org/Graphics/SVG/1.1/DTD/svg11.dtd">
<!-- Generated by graphviz version 2.43.0 (0)
 -->
<!-- Title: src/client/hash.hpp Pages: 1 -->
<svg width="439pt" height="82pt"
 viewBox="0.00 0.00 438.50 82.00" xmlns="http://www.w3.org/2000/svg" xmlns:xlink="http://www.w3.org/1999/xlink">
<g id="graph0" class="graph" transform="scale(1 1) rotate(0) translate(4 78)">
<title>src/client/hash.hpp</title>
<!-- Node1 -->
<g id="Node000001" class="node">
<title>Node1</title>
<g id="a_Node000001"><a xlink:title=" ">
<polygon fill="#999999" stroke="#666666" points="303,-74 195,-74 195,-55 303,-55 303,-74"/>
<text text-anchor="middle" x="249" y="-62" font-family="Helvetica,sans-Serif" font-size="10.00">src/client/hash.hpp</text>
</a>
</g>
</g>
<!-- Node2 -->
<g id="Node000002" class="node">
<title>Node2</title>
<g id="a_Node000002"><a xlink:href="downloadmanager_8cpp.html" target="_top" xlink:title=" ">
<polygon fill="white" stroke="#666666" points="174,-19 0,-19 0,0 174,0 174,-19"/>
<text text-anchor="middle" x="87" y="-7" font-family="Helvetica,sans-Serif" font-size="10.00">src/client/downloadmanager.cpp</text>
</a>
</g>
</g>
<!-- Node1&#45;&gt;Node2 -->
<g id="edge1_Node000001_Node000002" class="edge">
<title>Node1&#45;&gt;Node2</title>
<g id="a_edge1_Node000001_Node000002"><a xlink:title=" ">
<path fill="none" stroke="#63b8ff" d="M213.23,-51.8C183,-41.91 140.39,-27.97 113.23,-19.08"/>
<polygon fill="#63b8ff" stroke="#63b8ff" points="212.38,-55.2 222.97,-54.98 214.56,-48.55 212.38,-55.2"/>
</a>
</g>
</g>
<!-- Node3 -->
<g id="Node000003" class="node">
<title>Node3</title>
<g id="a_Node000003"><a xlink:href="file__io_8cpp.html" target="_top" xlink:title=" ">
<polygon fill="white" stroke="#666666" points="305.5,-19 192.5,-19 192.5,0 305.5,0 305.5,-19"/>
<text text-anchor="middle" x="249" y="-7" font-family="Helvetica,sans-Serif" font-size="10.00">src/client/file_io.cpp</text>
</a>
</g>
</g>
<!-- Node1&#45;&gt;Node3 -->
<g id="edge2_Node000001_Node000003" class="edge">
<title>Node1&#45;&gt;Node3</title>
<g id="a_edge2_Node000001_Node000003"><a xlink:title=" ">
<path fill="none" stroke="#63b8ff" d="M249,-44.66C249,-35.93 249,-25.99 249,-19.09"/>
<polygon fill="#63b8ff" stroke="#63b8ff" points="245.5,-44.75 249,-54.75 252.5,-44.75 245.5,-44.75"/>
</a>
</g>
</g>
<!-- Node4 -->
<g id="Node000004" class="node">
<title>Node4</title>
<g id="a_Node000004"><a xlink:href="hash_8cpp.html" target="_top" xlink:title=" ">
<polygon fill="white" stroke="#666666" points="430.5,-19 323.5,-19 323.5,0 430.5,0 430.5,-19"/>
<text text-anchor="middle" x="377" y="-7" font-family="Helvetica,sans-Serif" font-size="10.00">src/client/hash.cpp</text>
</a>
</g>
</g>
<!-- Node1&#45;&gt;Node4 -->
<g id="edge3_Node000001_Node000004" class="edge">
<title>Node1&#45;&gt;Node4</title>
<g id="a_edge3_Node000001_Node000004"><a xlink:title=" ">
<path fill="none" stroke="#63b8ff" d="M279.12,-51.03C302.79,-41.23 335.15,-27.83 356.06,-19.17"/>
<polygon fill="#63b8ff" stroke="#63b8ff" points="277.47,-47.93 269.57,-54.98 280.14,-54.39 277.47,-47.93"/>
</a>
</g>
</g>
</g>
</svg>
