<?xml version="1.0" encoding="UTF-8" standalone="no"?>
<!DOCTYPE svg PUBLIC "-//W3C//DTD SVG 1.1//EN"
 "http://www.w3.org/Graphics/SVG/1.1/DTD/svg11.dtd">
<!-- Generated by graphviz version 2.43.0 (0)
 -->
<!-- Title: src/client/hash.cpp Pages: 1 -->
<svg width="170pt" height="137pt"
 viewBox="0.00 0.00 170.00 137.00" xmlns="http://www.w3.org/2000/svg" xmlns:xlink="http://www.w3.org/1999/xlink">
<g id="graph0" class="graph" transform="scale(1 1) rotate(0) translate(4 133)">
<title>src/client/hash.cpp</title>
<!-- Node1 -->
<g id="Node000001" class="node">
<title>Node1</title>
<g id="a_Node000001"><a xlink:title=" ">
<polygon fill="#999999" stroke="#666666" points="129,-129 22,-129 22,-110 129,-110 129,-129"/>
<text text-anchor="middle" x="75.5" y="-117" font-family="Helvetica,sans-Serif" font-size="10.00">src/client/hash.cpp</text>
</a>
</g>
</g>
<!-- Node2 -->
<g id="Node000002" class="node">
<title>Node2</title>
<g id="a_Node000002"><a xlink:href="hash_8hpp.html" target="_top" xlink:title=" ">
<polygon fill="white" stroke="#666666" points="61,-74 0,-74 0,-55 61,-55 61,-74"/>
<text text-anchor="middle" x="30.5" y="-62" font-family="Helvetica,sans-Serif" font-size="10.00">hash.hpp</text>
</a>
</g>
</g>
<!-- Node1&#45;&gt;Node2 -->
<g id="edge1_Node000001_Node000002" class="edge">
<title>Node1&#45;&gt;Node2</title>
<g id="a_edge1_Node000001_Node000002"><a xlink:title=" ">
<path fill="none" stroke="#63b8ff" d="M68.07,-109.75C61.65,-102.18 52.19,-91.05 44.38,-81.84"/>
<polygon fill="#63b8ff" stroke="#63b8ff" points="46.93,-79.45 37.79,-74.09 41.6,-83.98 46.93,-79.45"/>
</a>
</g>
</g>
<!-- Node4 -->
<g id="Node000004" class="node">
<title>Node4</title>
<g id="a_Node000004"><a xlink:title=" ">
<polygon fill="#e0e0e0" stroke="#999999" points="162,-74 79,-74 79,-55 162,-55 162,-74"/>
<text text-anchor="middle" x="120.5" y="-62" font-family="Helvetica,sans-Serif" font-size="10.00">openssl/sha.h</text>
</a>
</g>
</g>
<!-- Node1&#45;&gt;Node4 -->
<g id="edge3_Node000001_Node000004" class="edge">
<title>Node1&#45;&gt;Node4</title>
<g id="a_edge3_Node000001_Node000004"><a xlink:title=" ">
<path fill="none" stroke="#63b8ff" d="M82.93,-109.75C89.35,-102.18 98.81,-91.05 106.62,-81.84"/>
<polygon fill="#63b8ff" stroke="#63b8ff" points="109.4,-83.98 113.21,-74.09 104.07,-79.45 109.4,-83.98"/>
</a>
</g>
</g>
<!-- Node3 -->
<g id="Node000003" class="node">
<title>Node3</title>
<g id="a_Node000003"><a xlink:title=" ">
<polygon fill="#e0e0e0" stroke="#999999" points="52.5,-19 8.5,-19 8.5,0 52.5,0 52.5,-19"/>
<text text-anchor="middle" x="30.5" y="-7" font-family="Helvetica,sans-Serif" font-size="10.00">string</text>
</a>
</g>
</g>
<!-- Node2&#45;&gt;Node3 -->
<g id="edge2_Node000002_Node000003" class="edge">
<title>Node2&#45;&gt;Node3</title>
<g id="a_edge2_Node000002_Node000003"><a xlink:title=" ">
<path fill="none" stroke="#63b8ff" d="M30.5,-54.75C30.5,-47.8 30.5,-37.85 30.5,-29.13"/>
<polygon fill="#63b8ff" stroke="#63b8ff" points="34,-29.09 30.5,-19.09 27,-29.09 34,-29.09"/>
</a>
</g>
</g>
</g>
</svg>
