<?xml version="1.0" encoding="UTF-8" standalone="no"?>
<!DOCTYPE svg PUBLIC "-//W3C//DTD SVG 1.1//EN"
 "http://www.w3.org/Graphics/SVG/1.1/DTD/svg11.dtd">
<!-- Generated by graphviz version 2.43.0 (0)
 -->
<!-- Title: Graphical Class Hierarchy Pages: 1 -->
<svg width="414pt" height="82pt"
 viewBox="0.00 0.00 414.00 82.00" xmlns="http://www.w3.org/2000/svg" xmlns:xlink="http://www.w3.org/1999/xlink">
<g id="graph0" class="graph" transform="scale(1 1) rotate(0) translate(4 78)">
<title>Graphical Class Hierarchy</title>
<!-- Node0 -->
<g id="Node000000" class="node">
<title>Node0</title>
<g id="a_Node000000"><a xlink:title=" ">
<polygon fill="#e0e0e0" stroke="#999999" points="104,-37 0,-37 0,-18 104,-18 104,-37"/>
<text text-anchor="middle" x="52" y="-25" font-family="Helvetica,sans-Serif" font-size="10.00">std::runtime_error</text>
</a>
</g>
</g>
<!-- Node1 -->
<g id="Node000001" class="node">
<title>Node1</title>
<g id="a_Node000001"><a xlink:href="classNetworkError.html" target="_top" xlink:title=" ">
<polygon fill="white" stroke="#666666" points="231.5,-56 150.5,-56 150.5,-37 231.5,-37 231.5,-56"/>
<text text-anchor="middle" x="191" y="-44" font-family="Helvetica,sans-Serif" font-size="10.00">NetworkError</text>
</a>
</g>
</g>
<!-- Node0&#45;&gt;Node1 -->
<g id="edge2_Node000000_Node000001" class="edge">
<title>Node0&#45;&gt;Node1</title>
<g id="a_edge2_Node000000_Node000001"><a xlink:title=" ">
<path fill="none" stroke="#63b8ff" d="M114.14,-35.98C126.33,-37.67 138.83,-39.4 150.07,-40.96"/>
<polygon fill="#63b8ff" stroke="#63b8ff" points="114.4,-32.48 104.01,-34.57 113.44,-39.42 114.4,-32.48"/>
</a>
</g>
</g>
<!-- Node4 -->
<g id="Node000004" class="node">
<title>Node4</title>
<g id="a_Node000004"><a xlink:href="classUnknownRequest.html" target="_top" xlink:title=" ">
<polygon fill="white" stroke="#666666" points="242,-19 140,-19 140,0 242,0 242,-19"/>
<text text-anchor="middle" x="191" y="-7" font-family="Helvetica,sans-Serif" font-size="10.00">UnknownRequest</text>
</a>
</g>
</g>
<!-- Node0&#45;&gt;Node4 -->
<g id="edge5_Node000000_Node000004" class="edge">
<title>Node0&#45;&gt;Node4</title>
<g id="a_edge5_Node000000_Node000004"><a xlink:title=" ">
<path fill="none" stroke="#63b8ff" d="M114.04,-19.48C122.67,-18.35 131.46,-17.19 139.86,-16.09"/>
<polygon fill="#63b8ff" stroke="#63b8ff" points="113.47,-16.02 104.01,-20.8 114.38,-22.96 113.47,-16.02"/>
</a>
</g>
</g>
<!-- Node2 -->
<g id="Node000002" class="node">
<title>Node2</title>
<g id="a_Node000002"><a xlink:href="classConnectionClosedError.html" target="_top" xlink:title=" ">
<polygon fill="white" stroke="#666666" points="406,-74 278,-74 278,-55 406,-55 406,-74"/>
<text text-anchor="middle" x="342" y="-62" font-family="Helvetica,sans-Serif" font-size="10.00">ConnectionClosedError</text>
</a>
</g>
</g>
<!-- Node1&#45;&gt;Node2 -->
<g id="edge3_Node000001_Node000002" class="edge">
<title>Node1&#45;&gt;Node2</title>
<g id="a_edge3_Node000001_Node000002"><a xlink:title=" ">
<path fill="none" stroke="#63b8ff" d="M241.51,-52.48C253.17,-53.89 265.75,-55.41 277.92,-56.88"/>
<polygon fill="#63b8ff" stroke="#63b8ff" points="241.89,-49 231.54,-51.28 241.05,-55.95 241.89,-49"/>
</a>
</g>
</g>
<!-- Node3 -->
<g id="Node000003" class="node">
<title>Node3</title>
<g id="a_Node000003"><a xlink:href="classWouldBlockError.html" target="_top" xlink:title=" ">
<polygon fill="white" stroke="#666666" points="390.5,-37 293.5,-37 293.5,-18 390.5,-18 390.5,-37"/>
<text text-anchor="middle" x="342" y="-25" font-family="Helvetica,sans-Serif" font-size="10.00">WouldBlockError</text>
</a>
</g>
</g>
<!-- Node1&#45;&gt;Node3 -->
<g id="edge4_Node000001_Node000003" class="edge">
<title>Node1&#45;&gt;Node3</title>
<g id="a_edge4_Node000001_Node000003"><a xlink:title=" ">
<path fill="none" stroke="#63b8ff" d="M241.63,-40.17C258.28,-38.05 276.81,-35.69 293.31,-33.58"/>
<polygon fill="#63b8ff" stroke="#63b8ff" points="241.02,-36.72 231.54,-41.46 241.9,-43.67 241.02,-36.72"/>
</a>
</g>
</g>
</g>
</svg>
