<?xml version="1.0" encoding="UTF-8" standalone="no"?>
<!DOCTYPE svg PUBLIC "-//W3C//DTD SVG 1.1//EN"
 "http://www.w3.org/Graphics/SVG/1.1/DTD/svg11.dtd">
<!-- Generated by graphviz version 2.43.0 (0)
 -->
<!-- Title: Graphical Class Hierarchy Pages: 1 -->
<svg width="393pt" height="64pt"
 viewBox="0.00 0.00 393.00 64.00" xmlns="http://www.w3.org/2000/svg" xmlns:xlink="http://www.w3.org/1999/xlink">
<g id="graph0" class="graph" transform="scale(1 1) rotate(0) translate(4 60)">
<title>Graphical Class Hierarchy</title>
<!-- Node0 -->
<g id="Node000000" class="node">
<title>Node0</title>
<g id="a_Node000000"><a xlink:title=" ">
<polygon fill="#e0e0e0" stroke="#999999" points="104,-37 0,-37 0,-18 104,-18 104,-37"/>
<text text-anchor="middle" x="52" y="-25" font-family="Helvetica,sans-Serif" font-size="10.00">std::runtime_error</text>
</a>
</g>
</g>
<!-- Node1 -->
<g id="Node000001" class="node">
<title>Node1</title>
<g id="a_Node000001"><a xlink:href="classNetworkError.html" target="_top" xlink:title=" ">
<polygon fill="white" stroke="#666666" points="221,-37 140,-37 140,-18 221,-18 221,-37"/>
<text text-anchor="middle" x="180.5" y="-25" font-family="Helvetica,sans-Serif" font-size="10.00">NetworkError</text>
</a>
</g>
</g>
<!-- Node0&#45;&gt;Node1 -->
<g id="edge1_Node000000_Node000001" class="edge">
<title>Node0&#45;&gt;Node1</title>
<g id="a_edge1_Node000000_Node000001"><a xlink:title=" ">
<path fill="none" stroke="#63b8ff" d="M114.26,-27.5C122.97,-27.5 131.74,-27.5 139.9,-27.5"/>
<polygon fill="#63b8ff" stroke="#63b8ff" points="114.09,-24 104.09,-27.5 114.09,-31 114.09,-24"/>
</a>
</g>
</g>
<!-- Node2 -->
<g id="Node000002" class="node">
<title>Node2</title>
<g id="a_Node000002"><a xlink:href="classConnectionClosedError.html" target="_top" xlink:title=" ">
<polygon fill="white" stroke="#666666" points="385,-56 257,-56 257,-37 385,-37 385,-56"/>
<text text-anchor="middle" x="321" y="-44" font-family="Helvetica,sans-Serif" font-size="10.00">ConnectionClosedError</text>
</a>
</g>
</g>
<!-- Node1&#45;&gt;Node2 -->
<g id="edge2_Node000001_Node000002" class="edge">
<title>Node1&#45;&gt;Node2</title>
<g id="a_edge2_Node000001_Node000002"><a xlink:title=" ">
<path fill="none" stroke="#63b8ff" d="M231.1,-34.3C239.42,-35.45 248.16,-36.64 256.77,-37.83"/>
<polygon fill="#63b8ff" stroke="#63b8ff" points="231.57,-30.84 221.19,-32.94 230.62,-37.77 231.57,-30.84"/>
</a>
</g>
</g>
<!-- Node3 -->
<g id="Node000003" class="node">
<title>Node3</title>
<g id="a_Node000003"><a xlink:href="classWouldBlockError.html" target="_top" xlink:title=" ">
<polygon fill="white" stroke="#666666" points="369.5,-19 272.5,-19 272.5,0 369.5,0 369.5,-19"/>
<text text-anchor="middle" x="321" y="-7" font-family="Helvetica,sans-Serif" font-size="10.00">WouldBlockError</text>
</a>
</g>
</g>
<!-- Node1&#45;&gt;Node3 -->
<g id="edge3_Node000001_Node000003" class="edge">
<title>Node1&#45;&gt;Node3</title>
<g id="a_edge3_Node000001_Node000003"><a xlink:title=" ">
<path fill="none" stroke="#63b8ff" d="M231.21,-21.04C244.64,-19.29 259.14,-17.41 272.45,-15.68"/>
<polygon fill="#63b8ff" stroke="#63b8ff" points="230.65,-17.58 221.19,-22.34 231.56,-24.52 230.65,-17.58"/>
</a>
</g>
</g>
</g>
</svg>
