<?xml version="1.0" encoding="UTF-8" standalone="no"?>
<!DOCTYPE svg PUBLIC "-//W3C//DTD SVG 1.1//EN"
 "http://www.w3.org/Graphics/SVG/1.1/DTD/svg11.dtd">
<!-- Generated by graphviz version 2.43.0 (0)
 -->
<!-- Title: src/tracker/parse_request.hpp Pages: 1 -->
<svg width="614pt" height="192pt"
 viewBox="0.00 0.00 613.50 192.00" xmlns="http://www.w3.org/2000/svg" xmlns:xlink="http://www.w3.org/1999/xlink">
<g id="graph0" class="graph" transform="scale(1 1) rotate(0) translate(4 188)">
<title>src/tracker/parse_request.hpp</title>
<!-- Node1 -->
<g id="Node000001" class="node">
<title>Node1</title>
<g id="a_Node000001"><a xlink:title=" ">
<polygon fill="#999999" stroke="#666666" points="305.5,-184 144.5,-184 144.5,-165 305.5,-165 305.5,-184"/>
<text text-anchor="middle" x="225" y="-172" font-family="Helvetica,sans-Serif" font-size="10.00">src/tracker/parse_request.hpp</text>
</a>
</g>
</g>
<!-- Node2 -->
<g id="Node000002" class="node">
<title>Node2</title>
<g id="a_Node000002"><a xlink:title=" ">
<polygon fill="#e0e0e0" stroke="#999999" points="58,-19 0,-19 0,0 58,0 58,-19"/>
<text text-anchor="middle" x="29" y="-7" font-family="Helvetica,sans-Serif" font-size="10.00">memory</text>
</a>
</g>
</g>
<!-- Node1&#45;&gt;Node2 -->
<g id="edge1_Node000001_Node000002" class="edge">
<title>Node1&#45;&gt;Node2</title>
<g id="a_edge1_Node000001_Node000002"><a xlink:title=" ">
<path fill="none" stroke="#63b8ff" d="M214.74,-164.97C183.26,-138.79 87.79,-59.39 47.38,-25.79"/>
<polygon fill="#63b8ff" stroke="#63b8ff" points="49.56,-23.05 39.64,-19.34 45.09,-28.43 49.56,-23.05"/>
</a>
</g>
</g>
<!-- Node3 -->
<g id="Node000003" class="node">
<title>Node3</title>
<g id="a_Node000003"><a xlink:href="tcp__socket_8hpp.html" target="_top" xlink:title=" ">
<polygon fill="white" stroke="#666666" points="295.5,-74 154.5,-74 154.5,-55 295.5,-55 295.5,-74"/>
<text text-anchor="middle" x="225" y="-62" font-family="Helvetica,sans-Serif" font-size="10.00">../network/tcp_socket.hpp</text>
</a>
</g>
</g>
<!-- Node1&#45;&gt;Node3 -->
<g id="edge2_Node000001_Node000003" class="edge">
<title>Node1&#45;&gt;Node3</title>
<g id="a_edge2_Node000001_Node000003"><a xlink:title=" ">
<path fill="none" stroke="#63b8ff" d="M225,-164.66C225,-147.17 225,-107.8 225,-84.27"/>
<polygon fill="#63b8ff" stroke="#63b8ff" points="228.5,-84.16 225,-74.16 221.5,-84.16 228.5,-84.16"/>
</a>
</g>
</g>
<!-- Node9 -->
<g id="Node000009" class="node">
<title>Node9</title>
<g id="a_Node000009"><a xlink:href="transaction_8hpp.html" target="_top" xlink:title=" ">
<polygon fill="white" stroke="#666666" points="436,-129 296,-129 296,-110 436,-110 436,-129"/>
<text text-anchor="middle" x="366" y="-117" font-family="Helvetica,sans-Serif" font-size="10.00">../models/transaction.hpp</text>
</a>
</g>
</g>
<!-- Node1&#45;&gt;Node9 -->
<g id="edge9_Node000001_Node000009" class="edge">
<title>Node1&#45;&gt;Node9</title>
<g id="a_edge9_Node000001_Node000009"><a xlink:title=" ">
<path fill="none" stroke="#63b8ff" d="M247.65,-164.98C270.85,-156.27 307.12,-142.63 333.4,-132.75"/>
<polygon fill="#63b8ff" stroke="#63b8ff" points="334.8,-135.97 342.93,-129.17 332.34,-129.41 334.8,-135.97"/>
</a>
</g>
</g>
<!-- Node3&#45;&gt;Node2 -->
<g id="edge3_Node000003_Node000002" class="edge">
<title>Node3&#45;&gt;Node2</title>
<g id="a_edge3_Node000003_Node000002"><a xlink:title=" ">
<path fill="none" stroke="#63b8ff" d="M193.51,-54.98C159.38,-45.76 104.89,-31.02 68.06,-21.06"/>
<polygon fill="#63b8ff" stroke="#63b8ff" points="68.74,-17.62 58.17,-18.39 66.91,-24.38 68.74,-17.62"/>
</a>
</g>
</g>
<!-- Node4 -->
<g id="Node000004" class="node">
<title>Node4</title>
<g id="a_Node000004"><a xlink:title=" ">
<polygon fill="#e0e0e0" stroke="#999999" points="148,-19 76,-19 76,0 148,0 148,-19"/>
<text text-anchor="middle" x="112" y="-7" font-family="Helvetica,sans-Serif" font-size="10.00">netinet/in.h</text>
</a>
</g>
</g>
<!-- Node3&#45;&gt;Node4 -->
<g id="edge4_Node000003_Node000004" class="edge">
<title>Node3&#45;&gt;Node4</title>
<g id="a_edge4_Node000003_Node000004"><a xlink:title=" ">
<path fill="none" stroke="#63b8ff" d="M206.84,-54.98C188.75,-46.5 160.72,-33.35 139.81,-23.54"/>
<polygon fill="#63b8ff" stroke="#63b8ff" points="141.03,-20.25 130.49,-19.17 138.05,-26.59 141.03,-20.25"/>
</a>
</g>
</g>
<!-- Node5 -->
<g id="Node000005" class="node">
<title>Node5</title>
<g id="a_Node000005"><a xlink:title=" ">
<polygon fill="#e0e0e0" stroke="#999999" points="446,-19 402,-19 402,0 446,0 446,-19"/>
<text text-anchor="middle" x="424" y="-7" font-family="Helvetica,sans-Serif" font-size="10.00">string</text>
</a>
</g>
</g>
<!-- Node3&#45;&gt;Node5 -->
<g id="edge5_Node000003_Node000005" class="edge">
<title>Node3&#45;&gt;Node5</title>
<g id="a_edge5_Node000003_Node000005"><a xlink:title=" ">
<path fill="none" stroke="#63b8ff" d="M256.97,-54.98C294.13,-45.09 355.08,-28.86 392.17,-18.98"/>
<polygon fill="#63b8ff" stroke="#63b8ff" points="393.2,-22.32 401.96,-16.37 391.4,-15.56 393.2,-22.32"/>
</a>
</g>
</g>
<!-- Node6 -->
<g id="Node000006" class="node">
<title>Node6</title>
<g id="a_Node000006"><a xlink:title=" ">
<polygon fill="#e0e0e0" stroke="#999999" points="243.5,-19 166.5,-19 166.5,0 243.5,0 243.5,-19"/>
<text text-anchor="middle" x="205" y="-7" font-family="Helvetica,sans-Serif" font-size="10.00">sys/socket.h</text>
</a>
</g>
</g>
<!-- Node3&#45;&gt;Node6 -->
<g id="edge6_Node000003_Node000006" class="edge">
<title>Node3&#45;&gt;Node6</title>
<g id="a_edge6_Node000003_Node000006"><a xlink:title=" ">
<path fill="none" stroke="#63b8ff" d="M221.7,-54.75C219.02,-47.65 215.15,-37.4 211.81,-28.56"/>
<polygon fill="#63b8ff" stroke="#63b8ff" points="215.05,-27.21 208.24,-19.09 208.5,-29.68 215.05,-27.21"/>
</a>
</g>
</g>
<!-- Node7 -->
<g id="Node000007" class="node">
<title>Node7</title>
<g id="a_Node000007"><a xlink:title=" ">
<polygon fill="#e0e0e0" stroke="#999999" points="318,-19 262,-19 262,0 318,0 318,-19"/>
<text text-anchor="middle" x="290" y="-7" font-family="Helvetica,sans-Serif" font-size="10.00">unistd.h</text>
</a>
</g>
</g>
<!-- Node3&#45;&gt;Node7 -->
<g id="edge7_Node000003_Node000007" class="edge">
<title>Node3&#45;&gt;Node7</title>
<g id="a_edge7_Node000003_Node000007"><a xlink:title=" ">
<path fill="none" stroke="#63b8ff" d="M235.44,-54.98C245.15,-47.07 259.82,-35.11 271.5,-25.58"/>
<polygon fill="#63b8ff" stroke="#63b8ff" points="273.83,-28.2 279.37,-19.17 269.4,-22.78 273.83,-28.2"/>
</a>
</g>
</g>
<!-- Node8 -->
<g id="Node000008" class="node">
<title>Node8</title>
<g id="a_Node000008"><a xlink:title=" ">
<polygon fill="#e0e0e0" stroke="#999999" points="383.5,-19 336.5,-19 336.5,0 383.5,0 383.5,-19"/>
<text text-anchor="middle" x="360" y="-7" font-family="Helvetica,sans-Serif" font-size="10.00">vector</text>
</a>
</g>
</g>
<!-- Node3&#45;&gt;Node8 -->
<g id="edge8_Node000003_Node000008" class="edge">
<title>Node3&#45;&gt;Node8</title>
<g id="a_edge8_Node000003_Node000008"><a xlink:title=" ">
<path fill="none" stroke="#63b8ff" d="M246.69,-54.98C268.8,-46.3 303.32,-32.75 328.45,-22.88"/>
<polygon fill="#63b8ff" stroke="#63b8ff" points="329.89,-26.08 337.92,-19.17 327.33,-19.57 329.89,-26.08"/>
</a>
</g>
</g>
<!-- Node9&#45;&gt;Node3 -->
<g id="edge17_Node000009_Node000003" class="edge">
<title>Node9&#45;&gt;Node3</title>
<g id="a_edge17_Node000009_Node000003"><a xlink:title=" ">
<path fill="none" stroke="#63b8ff" d="M343.35,-109.98C320.15,-101.27 283.88,-87.63 257.6,-77.75"/>
<polygon fill="#63b8ff" stroke="#63b8ff" points="258.66,-74.41 248.07,-74.17 256.2,-80.97 258.66,-74.41"/>
</a>
</g>
</g>
<!-- Node9&#45;&gt;Node5 -->
<g id="edge11_Node000009_Node000005" class="edge">
<title>Node9&#45;&gt;Node5</title>
<g id="a_edge11_Node000009_Node000005"><a xlink:title=" ">
<path fill="none" stroke="#63b8ff" d="M370.75,-109.66C380.31,-91.85 402.05,-51.37 414.6,-28.01"/>
<polygon fill="#63b8ff" stroke="#63b8ff" points="417.7,-29.62 419.35,-19.16 411.54,-26.31 417.7,-29.62"/>
</a>
</g>
</g>
<!-- Node10 -->
<g id="Node000010" class="node">
<title>Node10</title>
<g id="a_Node000010"><a xlink:title=" ">
<polygon fill="#e0e0e0" stroke="#999999" points="605.5,-19 540.5,-19 540.5,0 605.5,0 605.5,-19"/>
<text text-anchor="middle" x="573" y="-7" font-family="Helvetica,sans-Serif" font-size="10.00">stdexcept</text>
</a>
</g>
</g>
<!-- Node9&#45;&gt;Node10 -->
<g id="edge10_Node000009_Node000010" class="edge">
<title>Node9&#45;&gt;Node10</title>
<g id="a_edge10_Node000009_Node000010"><a xlink:title=" ">
<path fill="none" stroke="#63b8ff" d="M436.07,-110.08C483.59,-102.96 540.79,-91.14 558,-74 569.65,-62.4 572.91,-43.53 573.55,-29.37"/>
<polygon fill="#63b8ff" stroke="#63b8ff" points="577.05,-29.27 573.61,-19.25 570.05,-29.23 577.05,-29.27"/>
</a>
</g>
</g>
<!-- Node11 -->
<g id="Node000011" class="node">
<title>Node11</title>
<g id="a_Node000011"><a xlink:title=" ">
<polygon fill="#e0e0e0" stroke="#999999" points="364.5,-74 313.5,-74 313.5,-55 364.5,-55 364.5,-74"/>
<text text-anchor="middle" x="339" y="-62" font-family="Helvetica,sans-Serif" font-size="10.00">variant</text>
</a>
</g>
</g>
<!-- Node9&#45;&gt;Node11 -->
<g id="edge12_Node000009_Node000011" class="edge">
<title>Node9&#45;&gt;Node11</title>
<g id="a_edge12_Node000009_Node000011"><a xlink:title=" ">
<path fill="none" stroke="#63b8ff" d="M361.54,-109.75C357.88,-102.57 352.59,-92.18 348.05,-83.27"/>
<polygon fill="#63b8ff" stroke="#63b8ff" points="351.03,-81.41 343.38,-74.09 344.8,-84.59 351.03,-81.41"/>
</a>
</g>
</g>
<!-- Node12 -->
<g id="Node000012" class="node">
<title>Node12</title>
<g id="a_Node000012"><a xlink:href="endpoint_8hpp.html" target="_top" xlink:title=" ">
<polygon fill="white" stroke="#666666" points="549,-74 421,-74 421,-55 549,-55 549,-74"/>
<text text-anchor="middle" x="485" y="-62" font-family="Helvetica,sans-Serif" font-size="10.00">../models/endpoint.hpp</text>
</a>
</g>
</g>
<!-- Node9&#45;&gt;Node12 -->
<g id="edge13_Node000009_Node000012" class="edge">
<title>Node9&#45;&gt;Node12</title>
<g id="a_edge13_Node000009_Node000012"><a xlink:title=" ">
<path fill="none" stroke="#63b8ff" d="M385.12,-109.98C404.35,-101.42 434.23,-88.11 456.31,-78.28"/>
<polygon fill="#63b8ff" stroke="#63b8ff" points="457.82,-81.44 465.53,-74.17 454.97,-75.04 457.82,-81.44"/>
</a>
</g>
</g>
<!-- Node12&#45;&gt;Node5 -->
<g id="edge16_Node000012_Node000005" class="edge">
<title>Node12&#45;&gt;Node5</title>
<g id="a_edge16_Node000012_Node000005"><a xlink:title=" ">
<path fill="none" stroke="#63b8ff" d="M475.2,-54.98C466.18,-47.15 452.59,-35.34 441.68,-25.86"/>
<polygon fill="#63b8ff" stroke="#63b8ff" points="443.82,-23.09 433.98,-19.17 439.23,-28.37 443.82,-23.09"/>
</a>
</g>
</g>
<!-- Node12&#45;&gt;Node10 -->
<g id="edge15_Node000012_Node000010" class="edge">
<title>Node12&#45;&gt;Node10</title>
<g id="a_edge15_Node000012_Node000010"><a xlink:title=" ">
<path fill="none" stroke="#63b8ff" d="M499.14,-54.98C512.79,-46.77 533.69,-34.18 549.78,-24.49"/>
<polygon fill="#63b8ff" stroke="#63b8ff" points="551.84,-27.33 558.6,-19.17 548.23,-21.33 551.84,-27.33"/>
</a>
</g>
</g>
<!-- Node13 -->
<g id="Node000013" class="node">
<title>Node13</title>
<g id="a_Node000013"><a xlink:title=" ">
<polygon fill="#e0e0e0" stroke="#999999" points="514,-19 464,-19 464,0 514,0 514,-19"/>
<text text-anchor="middle" x="489" y="-7" font-family="Helvetica,sans-Serif" font-size="10.00">cstdint</text>
</a>
</g>
</g>
<!-- Node12&#45;&gt;Node13 -->
<g id="edge14_Node000012_Node000013" class="edge">
<title>Node12&#45;&gt;Node13</title>
<g id="a_edge14_Node000012_Node000013"><a xlink:title=" ">
<path fill="none" stroke="#63b8ff" d="M485.66,-54.75C486.18,-47.8 486.94,-37.85 487.59,-29.13"/>
<polygon fill="#63b8ff" stroke="#63b8ff" points="491.09,-29.32 488.35,-19.09 484.11,-28.8 491.09,-29.32"/>
</a>
</g>
</g>
</g>
</svg>
