<?xml version="1.0" encoding="UTF-8" standalone="no"?>
<!DOCTYPE svg PUBLIC "-//W3C//DTD SVG 1.1//EN"
 "http://www.w3.org/Graphics/SVG/1.1/DTD/svg11.dtd">
<!-- Generated by graphviz version 2.43.0 (0)
 -->
<!-- Title: src/client/partfile.cpp Pages: 1 -->
<svg width="507pt" height="192pt"
 viewBox="0.00 0.00 506.50 192.00" xmlns="http://www.w3.org/2000/svg" xmlns:xlink="http://www.w3.org/1999/xlink">
<g id="graph0" class="graph" transform="scale(1 1) rotate(0) translate(4 188)">
<title>src/client/partfile.cpp</title>
<!-- Node1 -->
<g id="Node000001" class="node">
<title>Node1</title>
<g id="a_Node000001"><a xlink:title=" ">
<polygon fill="#999999" stroke="#666666" points="186.5,-184 67.5,-184 67.5,-165 186.5,-165 186.5,-184"/>
<text text-anchor="middle" x="127" y="-172" font-family="Helvetica,sans-Serif" font-size="10.00">src/client/partfile.cpp</text>
</a>
</g>
</g>
<!-- Node2 -->
<g id="Node000002" class="node">
<title>Node2</title>
<g id="a_Node000002"><a xlink:title=" ">
<polygon fill="#e0e0e0" stroke="#999999" points="50,-129 0,-129 0,-110 50,-110 50,-129"/>
<text text-anchor="middle" x="25" y="-117" font-family="Helvetica,sans-Serif" font-size="10.00">cstring</text>
</a>
</g>
</g>
<!-- Node1&#45;&gt;Node2 -->
<g id="edge1_Node000001_Node000002" class="edge">
<title>Node1&#45;&gt;Node2</title>
<g id="a_edge1_Node000001_Node000002"><a xlink:title=" ">
<path fill="none" stroke="#63b8ff" d="M110.61,-164.98C94.43,-156.57 69.43,-143.59 50.62,-133.81"/>
<polygon fill="#63b8ff" stroke="#63b8ff" points="52.17,-130.68 41.69,-129.17 48.95,-136.89 52.17,-130.68"/>
</a>
</g>
</g>
<!-- Node3 -->
<g id="Node000003" class="node">
<title>Node3</title>
<g id="a_Node000003"><a xlink:title=" ">
<polygon fill="#e0e0e0" stroke="#999999" points="115.5,-129 68.5,-129 68.5,-110 115.5,-110 115.5,-129"/>
<text text-anchor="middle" x="92" y="-117" font-family="Helvetica,sans-Serif" font-size="10.00">fcntl.h</text>
</a>
</g>
</g>
<!-- Node1&#45;&gt;Node3 -->
<g id="edge2_Node000001_Node000003" class="edge">
<title>Node1&#45;&gt;Node3</title>
<g id="a_edge2_Node000001_Node000003"><a xlink:title=" ">
<path fill="none" stroke="#63b8ff" d="M121.22,-164.75C116.38,-157.42 109.32,-146.73 103.36,-137.7"/>
<polygon fill="#63b8ff" stroke="#63b8ff" points="106.1,-135.5 97.67,-129.09 100.26,-139.36 106.1,-135.5"/>
</a>
</g>
</g>
<!-- Node4 -->
<g id="Node000004" class="node">
<title>Node4</title>
<g id="a_Node000004"><a xlink:title=" ">
<polygon fill="#e0e0e0" stroke="#999999" points="190,-129 134,-129 134,-110 190,-110 190,-129"/>
<text text-anchor="middle" x="162" y="-117" font-family="Helvetica,sans-Serif" font-size="10.00">unistd.h</text>
</a>
</g>
</g>
<!-- Node1&#45;&gt;Node4 -->
<g id="edge3_Node000001_Node000004" class="edge">
<title>Node1&#45;&gt;Node4</title>
<g id="a_edge3_Node000001_Node000004"><a xlink:title=" ">
<path fill="none" stroke="#63b8ff" d="M132.78,-164.75C137.62,-157.42 144.68,-146.73 150.64,-137.7"/>
<polygon fill="#63b8ff" stroke="#63b8ff" points="153.74,-139.36 156.33,-129.09 147.9,-135.5 153.74,-139.36"/>
</a>
</g>
</g>
<!-- Node5 -->
<g id="Node000005" class="node">
<title>Node5</title>
<g id="a_Node000005"><a xlink:href="partfile_8hpp.html" target="_top" xlink:title=" ">
<polygon fill="white" stroke="#666666" points="280,-129 208,-129 208,-110 280,-110 280,-129"/>
<text text-anchor="middle" x="244" y="-117" font-family="Helvetica,sans-Serif" font-size="10.00">partfile.hpp</text>
</a>
</g>
</g>
<!-- Node1&#45;&gt;Node5 -->
<g id="edge4_Node000001_Node000005" class="edge">
<title>Node1&#45;&gt;Node5</title>
<g id="a_edge4_Node000001_Node000005"><a xlink:title=" ">
<path fill="none" stroke="#63b8ff" d="M145.8,-164.98C164.62,-156.46 193.82,-143.23 215.5,-133.41"/>
<polygon fill="#63b8ff" stroke="#63b8ff" points="217.2,-136.48 224.86,-129.17 214.31,-130.11 217.2,-136.48"/>
</a>
</g>
</g>
<!-- Node6 -->
<g id="Node000006" class="node">
<title>Node6</title>
<g id="a_Node000006"><a xlink:title=" ">
<polygon fill="#e0e0e0" stroke="#999999" points="181,-74 123,-74 123,-55 181,-55 181,-74"/>
<text text-anchor="middle" x="152" y="-62" font-family="Helvetica,sans-Serif" font-size="10.00">memory</text>
</a>
</g>
</g>
<!-- Node5&#45;&gt;Node6 -->
<g id="edge5_Node000005_Node000006" class="edge">
<title>Node5&#45;&gt;Node6</title>
<g id="a_edge5_Node000005_Node000006"><a xlink:title=" ">
<path fill="none" stroke="#63b8ff" d="M229.22,-109.98C214.82,-101.69 192.69,-88.94 175.81,-79.22"/>
<polygon fill="#63b8ff" stroke="#63b8ff" points="177.46,-76.13 167.05,-74.17 173.97,-82.19 177.46,-76.13"/>
</a>
</g>
</g>
<!-- Node7 -->
<g id="Node000007" class="node">
<title>Node7</title>
<g id="a_Node000007"><a xlink:title=" ">
<polygon fill="#e0e0e0" stroke="#999999" points="254,-19 210,-19 210,0 254,0 254,-19"/>
<text text-anchor="middle" x="232" y="-7" font-family="Helvetica,sans-Serif" font-size="10.00">string</text>
</a>
</g>
</g>
<!-- Node5&#45;&gt;Node7 -->
<g id="edge6_Node000005_Node000007" class="edge">
<title>Node5&#45;&gt;Node7</title>
<g id="a_edge6_Node000005_Node000007"><a xlink:title=" ">
<path fill="none" stroke="#63b8ff" d="M239.89,-109.88C235.94,-101.09 230.26,-86.94 228,-74 225.41,-59.17 226.72,-42.13 228.5,-29.44"/>
<polygon fill="#63b8ff" stroke="#63b8ff" points="232.01,-29.63 230.17,-19.2 225.1,-28.5 232.01,-29.63"/>
</a>
</g>
</g>
<!-- Node8 -->
<g id="Node000008" class="node">
<title>Node8</title>
<g id="a_Node000008"><a xlink:title=" ">
<polygon fill="#e0e0e0" stroke="#999999" points="323,-74 237,-74 237,-55 323,-55 323,-74"/>
<text text-anchor="middle" x="280" y="-62" font-family="Helvetica,sans-Serif" font-size="10.00">unordered_set</text>
</a>
</g>
</g>
<!-- Node5&#45;&gt;Node8 -->
<g id="edge7_Node000005_Node000008" class="edge">
<title>Node5&#45;&gt;Node8</title>
<g id="a_edge7_Node000005_Node000008"><a xlink:title=" ">
<path fill="none" stroke="#63b8ff" d="M249.94,-109.75C254.98,-102.34 262.34,-91.5 268.51,-82.41"/>
<polygon fill="#63b8ff" stroke="#63b8ff" points="271.44,-84.33 274.17,-74.09 265.65,-80.39 271.44,-84.33"/>
</a>
</g>
</g>
<!-- Node9 -->
<g id="Node000009" class="node">
<title>Node9</title>
<g id="a_Node000009"><a xlink:href="fileinfo_8hpp.html" target="_top" xlink:title=" ">
<polygon fill="white" stroke="#666666" points="460.5,-74 341.5,-74 341.5,-55 460.5,-55 460.5,-74"/>
<text text-anchor="middle" x="401" y="-62" font-family="Helvetica,sans-Serif" font-size="10.00">../models/fileinfo.hpp</text>
</a>
</g>
</g>
<!-- Node5&#45;&gt;Node9 -->
<g id="edge8_Node000005_Node000009" class="edge">
<title>Node5&#45;&gt;Node9</title>
<g id="a_edge8_Node000005_Node000009"><a xlink:title=" ">
<path fill="none" stroke="#63b8ff" d="M269.22,-109.98C295.36,-101.16 336.4,-87.31 365.73,-77.41"/>
<polygon fill="#63b8ff" stroke="#63b8ff" points="367.22,-80.6 375.58,-74.08 364.98,-73.96 367.22,-80.6"/>
</a>
</g>
</g>
<!-- Node9&#45;&gt;Node7 -->
<g id="edge11_Node000009_Node000007" class="edge">
<title>Node9&#45;&gt;Node7</title>
<g id="a_edge11_Node000009_Node000007"><a xlink:title=" ">
<path fill="none" stroke="#63b8ff" d="M373.85,-54.98C343.87,-45.58 295.67,-30.47 263.92,-20.51"/>
<polygon fill="#63b8ff" stroke="#63b8ff" points="264.82,-17.12 254.23,-17.47 262.72,-23.8 264.82,-17.12"/>
</a>
</g>
</g>
<!-- Node10 -->
<g id="Node000010" class="node">
<title>Node10</title>
<g id="a_Node000010"><a xlink:title=" ">
<polygon fill="#e0e0e0" stroke="#999999" points="350,-19 294,-19 294,0 350,0 350,-19"/>
<text text-anchor="middle" x="322" y="-7" font-family="Helvetica,sans-Serif" font-size="10.00">sstream</text>
</a>
</g>
</g>
<!-- Node9&#45;&gt;Node10 -->
<g id="edge9_Node000009_Node000010" class="edge">
<title>Node9&#45;&gt;Node10</title>
<g id="a_edge9_Node000009_Node000010"><a xlink:title=" ">
<path fill="none" stroke="#63b8ff" d="M388.31,-54.98C376.17,-46.84 357.64,-34.41 343.25,-24.76"/>
<polygon fill="#63b8ff" stroke="#63b8ff" points="345.18,-21.84 334.92,-19.17 341.28,-27.65 345.18,-21.84"/>
</a>
</g>
</g>
<!-- Node11 -->
<g id="Node000011" class="node">
<title>Node11</title>
<g id="a_Node000011"><a xlink:title=" ">
<polygon fill="#e0e0e0" stroke="#999999" points="433.5,-19 368.5,-19 368.5,0 433.5,0 433.5,-19"/>
<text text-anchor="middle" x="401" y="-7" font-family="Helvetica,sans-Serif" font-size="10.00">stdexcept</text>
</a>
</g>
</g>
<!-- Node9&#45;&gt;Node11 -->
<g id="edge10_Node000009_Node000011" class="edge">
<title>Node9&#45;&gt;Node11</title>
<g id="a_edge10_Node000009_Node000011"><a xlink:title=" ">
<path fill="none" stroke="#63b8ff" d="M401,-54.75C401,-47.8 401,-37.85 401,-29.13"/>
<polygon fill="#63b8ff" stroke="#63b8ff" points="404.5,-29.09 401,-19.09 397.5,-29.09 404.5,-29.09"/>
</a>
</g>
</g>
<!-- Node12 -->
<g id="Node000012" class="node">
<title>Node12</title>
<g id="a_Node000012"><a xlink:title=" ">
<polygon fill="#e0e0e0" stroke="#999999" points="498.5,-19 451.5,-19 451.5,0 498.5,0 498.5,-19"/>
<text text-anchor="middle" x="475" y="-7" font-family="Helvetica,sans-Serif" font-size="10.00">vector</text>
</a>
</g>
</g>
<!-- Node9&#45;&gt;Node12 -->
<g id="edge12_Node000009_Node000012" class="edge">
<title>Node9&#45;&gt;Node12</title>
<g id="a_edge12_Node000009_Node000012"><a xlink:title=" ">
<path fill="none" stroke="#63b8ff" d="M412.89,-54.98C424.15,-46.92 441.29,-34.65 454.71,-25.03"/>
<polygon fill="#63b8ff" stroke="#63b8ff" points="456.8,-27.84 462.89,-19.17 452.73,-22.15 456.8,-27.84"/>
</a>
</g>
</g>
</g>
</svg>
