<?xml version="1.0" encoding="UTF-8" standalone="no"?>
<!DOCTYPE svg PUBLIC "-//W3C//DTD SVG 1.1//EN"
 "http://www.w3.org/Graphics/SVG/1.1/DTD/svg11.dtd">
<!-- Generated by graphviz version 2.43.0 (0)
 -->
<!-- Title: src/client/partfile.hpp Pages: 1 -->
<svg width="536pt" height="280pt"
 viewBox="0.00 0.00 535.88 280.00" xmlns="http://www.w3.org/2000/svg" xmlns:xlink="http://www.w3.org/1999/xlink">
<g id="graph0" class="graph" transform="scale(1 1) rotate(0) translate(4 276)">
<title>src/client/partfile.hpp</title>
<!-- Node1 -->
<g id="Node000001" class="node">
<title>Node1</title>
<g id="a_Node000001"><a xlink:title=" ">
<polygon fill="#999999" stroke="#666666" points="391,-272 272,-272 272,-253 391,-253 391,-272"/>
<text text-anchor="middle" x="331.5" y="-260" font-family="Helvetica,sans-Serif" font-size="10.00">src/client/partfile.hpp</text>
</a>
</g>
</g>
<!-- Node2 -->
<g id="Node000002" class="node">
<title>Node2</title>
<g id="a_Node000002"><a xlink:href="downloadmanager_8hpp.html" target="_top" xlink:title=" ">
<polygon fill="white" stroke="#666666" points="255,-156.5 80,-156.5 80,-137.5 255,-137.5 255,-156.5"/>
<text text-anchor="middle" x="167.5" y="-144.5" font-family="Helvetica,sans-Serif" font-size="10.00">src/client/downloadmanager.hpp</text>
</a>
</g>
</g>
<!-- Node1&#45;&gt;Node2 -->
<g id="edge1_Node000001_Node000002" class="edge">
<title>Node1&#45;&gt;Node2</title>
<g id="a_edge1_Node000001_Node000002"><a xlink:title=" ">
<path fill="none" stroke="#63b8ff" d="M309.54,-247.47C296.14,-238.83 278.72,-227.44 263.5,-217 232.7,-195.87 197.17,-169.91 179.21,-156.67"/>
<polygon fill="#63b8ff" stroke="#63b8ff" points="307.79,-250.51 318.1,-252.97 311.57,-244.62 307.79,-250.51"/>
</a>
</g>
</g>
<!-- Node7 -->
<g id="Node000007" class="node">
<title>Node7</title>
<g id="a_Node000007"><a xlink:href="filesdb_8hpp.html" target="_top" xlink:title=" ">
<polygon fill="white" stroke="#666666" points="390,-217 273,-217 273,-198 390,-198 390,-217"/>
<text text-anchor="middle" x="331.5" y="-205" font-family="Helvetica,sans-Serif" font-size="10.00">src/client/filesdb.hpp</text>
</a>
</g>
</g>
<!-- Node1&#45;&gt;Node7 -->
<g id="edge7_Node000001_Node000007" class="edge">
<title>Node1&#45;&gt;Node7</title>
<g id="a_edge7_Node000001_Node000007"><a xlink:title=" ">
<path fill="none" stroke="#63b8ff" d="M331.5,-242.66C331.5,-233.93 331.5,-223.99 331.5,-217.09"/>
<polygon fill="#63b8ff" stroke="#63b8ff" points="328,-242.75 331.5,-252.75 335,-242.75 328,-242.75"/>
</a>
</g>
</g>
<!-- Node11 -->
<g id="Node000011" class="node">
<title>Node11</title>
<g id="a_Node000011"><a xlink:href="partfile_8cpp.html" target="_top" xlink:title=" ">
<polygon fill="white" stroke="#666666" points="527,-217 408,-217 408,-198 527,-198 527,-217"/>
<text text-anchor="middle" x="467.5" y="-205" font-family="Helvetica,sans-Serif" font-size="10.00">src/client/partfile.cpp</text>
</a>
</g>
</g>
<!-- Node1&#45;&gt;Node11 -->
<g id="edge14_Node000001_Node000011" class="edge">
<title>Node1&#45;&gt;Node11</title>
<g id="a_edge14_Node000001_Node000011"><a xlink:title=" ">
<path fill="none" stroke="#63b8ff" d="M362.83,-249.29C388.04,-239.47 422.83,-225.91 445.25,-217.17"/>
<polygon fill="#63b8ff" stroke="#63b8ff" points="361.4,-246.09 353.35,-252.98 363.94,-252.61 361.4,-246.09"/>
</a>
</g>
</g>
<!-- Node3 -->
<g id="Node000003" class="node">
<title>Node3</title>
<g id="a_Node000003"><a xlink:href="client_8cpp.html" target="_top" xlink:title="The entrypoint to the client.">
<polygon fill="white" stroke="#666666" points="456,-24.5 345,-24.5 345,-5.5 456,-5.5 456,-24.5"/>
<text text-anchor="middle" x="400.5" y="-12.5" font-family="Helvetica,sans-Serif" font-size="10.00">src/client/client.cpp</text>
</a>
</g>
</g>
<!-- Node2&#45;&gt;Node3 -->
<g id="edge2_Node000002_Node000003" class="edge">
<title>Node2&#45;&gt;Node3</title>
<g id="a_edge2_Node000002_Node000003"><a xlink:title=" ">
<path fill="none" stroke="#63b8ff" d="M209.07,-134.52C236.6,-125.99 272.94,-112.91 302.5,-96 307.34,-93.23 366.13,-44.55 390.26,-24.51"/>
<polygon fill="#63b8ff" stroke="#63b8ff" points="207.92,-131.21 199.36,-137.45 209.94,-137.91 207.92,-131.21"/>
</a>
</g>
</g>
<!-- Node4 -->
<g id="Node000004" class="node">
<title>Node4</title>
<g id="a_Node000004"><a xlink:href="downloadmanager_8cpp.html" target="_top" xlink:title=" ">
<polygon fill="white" stroke="#666666" points="293.5,-90.5 119.5,-90.5 119.5,-71.5 293.5,-71.5 293.5,-90.5"/>
<text text-anchor="middle" x="206.5" y="-78.5" font-family="Helvetica,sans-Serif" font-size="10.00">src/client/downloadmanager.cpp</text>
</a>
</g>
</g>
<!-- Node2&#45;&gt;Node4 -->
<g id="edge3_Node000002_Node000004" class="edge">
<title>Node2&#45;&gt;Node4</title>
<g id="a_edge3_Node000002_Node000004"><a xlink:title=" ">
<path fill="none" stroke="#63b8ff" d="M178.13,-128.55C185.56,-116.36 195.16,-100.61 201.07,-90.91"/>
<polygon fill="#63b8ff" stroke="#63b8ff" points="174.97,-127.01 172.76,-137.37 180.95,-130.65 174.97,-127.01"/>
</a>
</g>
</g>
<!-- Node5 -->
<g id="Node000005" class="node">
<title>Node5</title>
<g id="a_Node000005"><a xlink:href="process__input_8hpp.html" target="_top" xlink:title=" ">
<polygon fill="white" stroke="#666666" points="101,-96 0,-96 0,-66 101,-66 101,-96"/>
<text text-anchor="start" x="8" y="-84" font-family="Helvetica,sans-Serif" font-size="10.00">src/client/process</text>
<text text-anchor="middle" x="50.5" y="-73" font-family="Helvetica,sans-Serif" font-size="10.00">_input.hpp</text>
</a>
</g>
</g>
<!-- Node2&#45;&gt;Node5 -->
<g id="edge4_Node000002_Node000005" class="edge">
<title>Node2&#45;&gt;Node5</title>
<g id="a_edge4_Node000002_Node000005"><a xlink:title=" ">
<path fill="none" stroke="#63b8ff" d="M142.82,-132.5C123.29,-121.82 96.11,-106.95 76.31,-96.12"/>
<polygon fill="#63b8ff" stroke="#63b8ff" points="141.27,-135.64 151.72,-137.37 144.63,-129.5 141.27,-135.64"/>
</a>
</g>
</g>
<!-- Node5&#45;&gt;Node3 -->
<g id="edge5_Node000005_Node000003" class="edge">
<title>Node5&#45;&gt;Node3</title>
<g id="a_edge5_Node000005_Node000003"><a xlink:title=" ">
<path fill="none" stroke="#63b8ff" d="M111.04,-65.96C198.68,-48.38 288.9,-33.47 345.27,-24.54"/>
<polygon fill="#63b8ff" stroke="#63b8ff" points="110.3,-62.54 101.19,-67.95 111.69,-69.4 110.3,-62.54"/>
</a>
</g>
</g>
<!-- Node6 -->
<g id="Node000006" class="node">
<title>Node6</title>
<g id="a_Node000006"><a xlink:href="process__input_8cpp.html" target="_top" xlink:title=" ">
<polygon fill="white" stroke="#666666" points="101,-30 0,-30 0,0 101,0 101,-30"/>
<text text-anchor="start" x="8" y="-18" font-family="Helvetica,sans-Serif" font-size="10.00">src/client/process</text>
<text text-anchor="middle" x="50.5" y="-7" font-family="Helvetica,sans-Serif" font-size="10.00">_input.cpp</text>
</a>
</g>
</g>
<!-- Node5&#45;&gt;Node6 -->
<g id="edge6_Node000005_Node000006" class="edge">
<title>Node5&#45;&gt;Node6</title>
<g id="a_edge6_Node000005_Node000006"><a xlink:title=" ">
<path fill="none" stroke="#63b8ff" d="M50.5,-55.54C50.5,-46.96 50.5,-37.61 50.5,-30.16"/>
<polygon fill="#63b8ff" stroke="#63b8ff" points="47,-55.8 50.5,-65.8 54,-55.8 47,-55.8"/>
</a>
</g>
</g>
<!-- Node7&#45;&gt;Node2 -->
<g id="edge9_Node000007_Node000002" class="edge">
<title>Node7&#45;&gt;Node2</title>
<g id="a_edge9_Node000007_Node000002"><a xlink:title=" ">
<path fill="none" stroke="#63b8ff" d="M297.93,-194.52C266.22,-183.21 219.45,-166.53 191.38,-156.52"/>
<polygon fill="#63b8ff" stroke="#63b8ff" points="297.06,-197.93 307.65,-197.99 299.41,-191.34 297.06,-197.93"/>
</a>
</g>
</g>
<!-- Node7&#45;&gt;Node3 -->
<g id="edge8_Node000007_Node000003" class="edge">
<title>Node7&#45;&gt;Node3</title>
<g id="a_edge8_Node000007_Node000003"><a xlink:title=" ">
<path fill="none" stroke="#63b8ff" d="M390.71,-196.11C442.08,-186.48 509.47,-172.17 517.5,-162 558.95,-109.47 457.93,-46.94 416.89,-24.52"/>
<polygon fill="#63b8ff" stroke="#63b8ff" points="389.86,-192.7 380.67,-197.96 391.14,-199.59 389.86,-192.7"/>
</a>
</g>
</g>
<!-- Node8 -->
<g id="Node000008" class="node">
<title>Node8</title>
<g id="a_Node000008"><a xlink:href="filesdb_8cpp.html" target="_top" xlink:title=" ">
<polygon fill="white" stroke="#666666" points="389.5,-156.5 273.5,-156.5 273.5,-137.5 389.5,-137.5 389.5,-156.5"/>
<text text-anchor="middle" x="331.5" y="-144.5" font-family="Helvetica,sans-Serif" font-size="10.00">src/client/filesdb.cpp</text>
</a>
</g>
</g>
<!-- Node7&#45;&gt;Node8 -->
<g id="edge10_Node000007_Node000008" class="edge">
<title>Node7&#45;&gt;Node8</title>
<g id="a_edge10_Node000007_Node000008"><a xlink:title=" ">
<path fill="none" stroke="#63b8ff" d="M331.5,-187.66C331.5,-177.24 331.5,-164.8 331.5,-156.67"/>
<polygon fill="#63b8ff" stroke="#63b8ff" points="328,-187.87 331.5,-197.87 335,-187.87 328,-187.87"/>
</a>
</g>
</g>
<!-- Node9 -->
<g id="Node000009" class="node">
<title>Node9</title>
<g id="a_Node000009"><a xlink:href="client_2process__request_8hpp.html" target="_top" xlink:title=" ">
<polygon fill="white" stroke="#666666" points="509,-162 408,-162 408,-132 509,-132 509,-162"/>
<text text-anchor="start" x="416" y="-150" font-family="Helvetica,sans-Serif" font-size="10.00">src/client/process</text>
<text text-anchor="middle" x="458.5" y="-139" font-family="Helvetica,sans-Serif" font-size="10.00">_request.hpp</text>
</a>
</g>
</g>
<!-- Node7&#45;&gt;Node9 -->
<g id="edge11_Node000007_Node000009" class="edge">
<title>Node7&#45;&gt;Node9</title>
<g id="a_edge11_Node000007_Node000009"><a xlink:title=" ">
<path fill="none" stroke="#63b8ff" d="M359.25,-193.72C379.46,-184.41 406.84,-171.8 427.72,-162.18"/>
<polygon fill="#63b8ff" stroke="#63b8ff" points="357.59,-190.63 349.97,-197.99 360.51,-196.99 357.59,-190.63"/>
</a>
</g>
</g>
<!-- Node9&#45;&gt;Node3 -->
<g id="edge12_Node000009_Node000003" class="edge">
<title>Node9&#45;&gt;Node3</title>
<g id="a_edge12_Node000009_Node000003"><a xlink:title=" ">
<path fill="none" stroke="#63b8ff" d="M464.04,-121.99C466.63,-105.48 467.6,-83.47 459.5,-66 450.81,-47.24 431.22,-32.96 417,-24.55"/>
<polygon fill="#63b8ff" stroke="#63b8ff" points="460.58,-121.47 462.19,-131.94 467.46,-122.75 460.58,-121.47"/>
</a>
</g>
</g>
<!-- Node10 -->
<g id="Node000010" class="node">
<title>Node10</title>
<g id="a_Node000010"><a xlink:href="client_2process__request_8cpp.html" target="_top" xlink:title=" ">
<polygon fill="white" stroke="#666666" points="451,-96 350,-96 350,-66 451,-66 451,-96"/>
<text text-anchor="start" x="358" y="-84" font-family="Helvetica,sans-Serif" font-size="10.00">src/client/process</text>
<text text-anchor="middle" x="400.5" y="-73" font-family="Helvetica,sans-Serif" font-size="10.00">_request.cpp</text>
</a>
</g>
</g>
<!-- Node9&#45;&gt;Node10 -->
<g id="edge13_Node000009_Node000010" class="edge">
<title>Node9&#45;&gt;Node10</title>
<g id="a_edge13_Node000009_Node000010"><a xlink:title=" ">
<path fill="none" stroke="#63b8ff" d="M438.9,-124.37C430.46,-115.06 420.84,-104.44 413.34,-96.16"/>
<polygon fill="#63b8ff" stroke="#63b8ff" points="436.32,-126.74 445.63,-131.8 441.51,-122.04 436.32,-126.74"/>
</a>
</g>
</g>
</g>
</svg>
