<?xml version="1.0" encoding="UTF-8" standalone="no"?>
<!DOCTYPE svg PUBLIC "-//W3C//DTD SVG 1.1//EN"
 "http://www.w3.org/Graphics/SVG/1.1/DTD/svg11.dtd">
<!-- Generated by graphviz version 2.43.0 (0)
 -->
<!-- Title: src/client/partfile.hpp Pages: 1 -->
<svg width="315pt" height="214pt"
 viewBox="0.00 0.00 315.03 214.00" xmlns="http://www.w3.org/2000/svg" xmlns:xlink="http://www.w3.org/1999/xlink">
<g id="graph0" class="graph" transform="scale(1 1) rotate(0) translate(4 210)">
<title>src/client/partfile.hpp</title>
<!-- Node1 -->
<g id="Node000001" class="node">
<title>Node1</title>
<g id="a_Node000001"><a xlink:title=" ">
<polygon fill="#999999" stroke="#666666" points="160.03,-206 41.03,-206 41.03,-187 160.03,-187 160.03,-206"/>
<text text-anchor="middle" x="100.53" y="-194" font-family="Helvetica,sans-Serif" font-size="10.00">src/client/partfile.hpp</text>
</a>
</g>
</g>
<!-- Node2 -->
<g id="Node000002" class="node">
<title>Node2</title>
<g id="a_Node000002"><a xlink:href="downloadmanager_8hpp.html" target="_top" xlink:title=" ">
<polygon fill="white" stroke="#666666" points="188.03,-151 13.03,-151 13.03,-132 188.03,-132 188.03,-151"/>
<text text-anchor="middle" x="100.53" y="-139" font-family="Helvetica,sans-Serif" font-size="10.00">src/client/downloadmanager.hpp</text>
</a>
</g>
</g>
<!-- Node1&#45;&gt;Node2 -->
<g id="edge1_Node000001_Node000002" class="edge">
<title>Node1&#45;&gt;Node2</title>
<g id="a_edge1_Node000001_Node000002"><a xlink:title=" ">
<path fill="none" stroke="#63b8ff" d="M100.53,-176.66C100.53,-167.93 100.53,-157.99 100.53,-151.09"/>
<polygon fill="#63b8ff" stroke="#63b8ff" points="97.03,-176.75 100.53,-186.75 104.03,-176.75 97.03,-176.75"/>
</a>
</g>
</g>
<!-- Node3 -->
<g id="Node000003" class="node">
<title>Node3</title>
<g id="a_Node000003"><a xlink:href="client_8cpp.html" target="_top" xlink:title="The entrypoint to the client.">
<polygon fill="white" stroke="#666666" points="115.03,-24.5 4.03,-24.5 4.03,-5.5 115.03,-5.5 115.03,-24.5"/>
<text text-anchor="middle" x="59.53" y="-12.5" font-family="Helvetica,sans-Serif" font-size="10.00">src/client/client.cpp</text>
</a>
</g>
</g>
<!-- Node2&#45;&gt;Node3 -->
<g id="edge2_Node000002_Node000003" class="edge">
<title>Node2&#45;&gt;Node3</title>
<g id="a_edge2_Node000002_Node000003"><a xlink:title=" ">
<path fill="none" stroke="#63b8ff" d="M48.2,-128.38C31.33,-121.72 14.45,-111.53 4.53,-96 -12.44,-69.44 24.73,-38.99 46,-24.51"/>
<polygon fill="#63b8ff" stroke="#63b8ff" points="47.48,-131.84 58.08,-131.9 49.84,-125.24 47.48,-131.84"/>
</a>
</g>
</g>
<!-- Node4 -->
<g id="Node000004" class="node">
<title>Node4</title>
<g id="a_Node000004"><a xlink:href="downloadmanager_8cpp.html" target="_top" xlink:title=" ">
<polygon fill="white" stroke="#666666" points="187.53,-90.5 13.53,-90.5 13.53,-71.5 187.53,-71.5 187.53,-90.5"/>
<text text-anchor="middle" x="100.53" y="-78.5" font-family="Helvetica,sans-Serif" font-size="10.00">src/client/downloadmanager.cpp</text>
</a>
</g>
</g>
<!-- Node2&#45;&gt;Node4 -->
<g id="edge3_Node000002_Node000004" class="edge">
<title>Node2&#45;&gt;Node4</title>
<g id="a_edge3_Node000002_Node000004"><a xlink:title=" ">
<path fill="none" stroke="#63b8ff" d="M100.53,-121.66C100.53,-111.24 100.53,-98.8 100.53,-90.67"/>
<polygon fill="#63b8ff" stroke="#63b8ff" points="97.03,-121.87 100.53,-131.87 104.03,-121.87 97.03,-121.87"/>
</a>
</g>
</g>
<!-- Node5 -->
<g id="Node000005" class="node">
<title>Node5</title>
<g id="a_Node000005"><a xlink:href="process__input_8hpp.html" target="_top" xlink:title=" ">
<polygon fill="white" stroke="#666666" points="307.03,-96 206.03,-96 206.03,-66 307.03,-66 307.03,-96"/>
<text text-anchor="start" x="214.03" y="-84" font-family="Helvetica,sans-Serif" font-size="10.00">src/client/process</text>
<text text-anchor="middle" x="256.53" y="-73" font-family="Helvetica,sans-Serif" font-size="10.00">_input.hpp</text>
</a>
</g>
</g>
<!-- Node2&#45;&gt;Node5 -->
<g id="edge4_Node000002_Node000005" class="edge">
<title>Node2&#45;&gt;Node5</title>
<g id="a_edge4_Node000002_Node000005"><a xlink:title=" ">
<path fill="none" stroke="#63b8ff" d="M132.64,-128.46C157.73,-119.05 192.65,-105.95 219.02,-96.06"/>
<polygon fill="#63b8ff" stroke="#63b8ff" points="131.35,-125.21 123.21,-131.99 133.8,-131.76 131.35,-125.21"/>
</a>
</g>
</g>
<!-- Node5&#45;&gt;Node3 -->
<g id="edge5_Node000005_Node000003" class="edge">
<title>Node5&#45;&gt;Node3</title>
<g id="a_edge5_Node000005_Node000003"><a xlink:title=" ">
<path fill="none" stroke="#63b8ff" d="M203.38,-62.74C165.3,-50.36 115.64,-34.23 85.74,-24.52"/>
<polygon fill="#63b8ff" stroke="#63b8ff" points="202.7,-66.19 213.29,-65.95 204.87,-59.54 202.7,-66.19"/>
</a>
</g>
</g>
<!-- Node6 -->
<g id="Node000006" class="node">
<title>Node6</title>
<g id="a_Node000006"><a xlink:href="process__input_8cpp.html" target="_top" xlink:title=" ">
<polygon fill="white" stroke="#666666" points="307.03,-30 206.03,-30 206.03,0 307.03,0 307.03,-30"/>
<text text-anchor="start" x="214.03" y="-18" font-family="Helvetica,sans-Serif" font-size="10.00">src/client/process</text>
<text text-anchor="middle" x="256.53" y="-7" font-family="Helvetica,sans-Serif" font-size="10.00">_input.cpp</text>
</a>
</g>
</g>
<!-- Node5&#45;&gt;Node6 -->
<g id="edge6_Node000005_Node000006" class="edge">
<title>Node5&#45;&gt;Node6</title>
<g id="a_edge6_Node000005_Node000006"><a xlink:title=" ">
<path fill="none" stroke="#63b8ff" d="M256.53,-55.54C256.53,-46.96 256.53,-37.61 256.53,-30.16"/>
<polygon fill="#63b8ff" stroke="#63b8ff" points="253.03,-55.8 256.53,-65.8 260.03,-55.8 253.03,-55.8"/>
</a>
</g>
</g>
</g>
</svg>
