<?xml version="1.0" encoding="UTF-8" standalone="no"?>
<!DOCTYPE svg PUBLIC "-//W3C//DTD SVG 1.1//EN"
 "http://www.w3.org/Graphics/SVG/1.1/DTD/svg11.dtd">
<!-- Generated by graphviz version 2.43.0 (0)
 -->
<!-- Title: src/client/peerdb.cpp Pages: 1 -->
<svg width="624pt" height="247pt"
 viewBox="0.00 0.00 623.50 247.00" xmlns="http://www.w3.org/2000/svg" xmlns:xlink="http://www.w3.org/1999/xlink">
<g id="graph0" class="graph" transform="scale(1 1) rotate(0) translate(4 243)">
<title>src/client/peerdb.cpp</title>
<!-- Node1 -->
<g id="Node000001" class="node">
<title>Node1</title>
<g id="a_Node000001"><a xlink:title=" ">
<polygon fill="#999999" stroke="#666666" points="320.5,-239 202.5,-239 202.5,-220 320.5,-220 320.5,-239"/>
<text text-anchor="middle" x="261.5" y="-227" font-family="Helvetica,sans-Serif" font-size="10.00">src/client/peerdb.cpp</text>
</a>
</g>
</g>
<!-- Node2 -->
<g id="Node000002" class="node">
<title>Node2</title>
<g id="a_Node000002"><a xlink:href="peerdb_8hpp.html" target="_top" xlink:title=" ">
<polygon fill="white" stroke="#666666" points="297,-184 226,-184 226,-165 297,-165 297,-184"/>
<text text-anchor="middle" x="261.5" y="-172" font-family="Helvetica,sans-Serif" font-size="10.00">peerdb.hpp</text>
</a>
</g>
</g>
<!-- Node1&#45;&gt;Node2 -->
<g id="edge1_Node000001_Node000002" class="edge">
<title>Node1&#45;&gt;Node2</title>
<g id="a_edge1_Node000001_Node000002"><a xlink:title=" ">
<path fill="none" stroke="#63b8ff" d="M261.5,-219.75C261.5,-212.8 261.5,-202.85 261.5,-194.13"/>
<polygon fill="#63b8ff" stroke="#63b8ff" points="265,-194.09 261.5,-184.09 258,-194.09 265,-194.09"/>
</a>
</g>
</g>
<!-- Node3 -->
<g id="Node000003" class="node">
<title>Node3</title>
<g id="a_Node000003"><a xlink:title=" ">
<polygon fill="#e0e0e0" stroke="#999999" points="181.5,-74 123.5,-74 123.5,-55 181.5,-55 181.5,-74"/>
<text text-anchor="middle" x="152.5" y="-62" font-family="Helvetica,sans-Serif" font-size="10.00">memory</text>
</a>
</g>
</g>
<!-- Node2&#45;&gt;Node3 -->
<g id="edge2_Node000002_Node000003" class="edge">
<title>Node2&#45;&gt;Node3</title>
<g id="a_edge2_Node000002_Node000003"><a xlink:title=" ">
<path fill="none" stroke="#63b8ff" d="M252.58,-164.66C234.21,-146.46 191.91,-104.55 168.62,-81.47"/>
<polygon fill="#63b8ff" stroke="#63b8ff" points="170.81,-78.71 161.24,-74.16 165.88,-83.68 170.81,-78.71"/>
</a>
</g>
</g>
<!-- Node4 -->
<g id="Node000004" class="node">
<title>Node4</title>
<g id="a_Node000004"><a xlink:title=" ">
<polygon fill="#e0e0e0" stroke="#999999" points="456.5,-129 408.5,-129 408.5,-110 456.5,-110 456.5,-129"/>
<text text-anchor="middle" x="432.5" y="-117" font-family="Helvetica,sans-Serif" font-size="10.00">mutex</text>
</a>
</g>
</g>
<!-- Node2&#45;&gt;Node4 -->
<g id="edge3_Node000002_Node000004" class="edge">
<title>Node2&#45;&gt;Node4</title>
<g id="a_edge3_Node000002_Node000004"><a xlink:title=" ">
<path fill="none" stroke="#63b8ff" d="M288.97,-164.98C318.79,-155.74 366.43,-140.98 398.57,-131.02"/>
<polygon fill="#63b8ff" stroke="#63b8ff" points="399.9,-134.27 408.41,-127.97 397.82,-127.58 399.9,-134.27"/>
</a>
</g>
</g>
<!-- Node5 -->
<g id="Node000005" class="node">
<title>Node5</title>
<g id="a_Node000005"><a xlink:title=" ">
<polygon fill="#e0e0e0" stroke="#999999" points="231.5,-19 187.5,-19 187.5,0 231.5,0 231.5,-19"/>
<text text-anchor="middle" x="209.5" y="-7" font-family="Helvetica,sans-Serif" font-size="10.00">string</text>
</a>
</g>
</g>
<!-- Node2&#45;&gt;Node5 -->
<g id="edge4_Node000002_Node000005" class="edge">
<title>Node2&#45;&gt;Node5</title>
<g id="a_edge4_Node000002_Node000005"><a xlink:title=" ">
<path fill="none" stroke="#63b8ff" d="M236.03,-164.92C201.22,-151.64 140.18,-122.47 114.5,-74 98.97,-44.69 144.25,-26.58 177.54,-17.54"/>
<polygon fill="#63b8ff" stroke="#63b8ff" points="178.57,-20.89 187.4,-15.02 176.84,-14.1 178.57,-20.89"/>
</a>
</g>
</g>
<!-- Node6 -->
<g id="Node000006" class="node">
<title>Node6</title>
<g id="a_Node000006"><a xlink:title=" ">
<polygon fill="#e0e0e0" stroke="#999999" points="568,-129 475,-129 475,-110 568,-110 568,-129"/>
<text text-anchor="middle" x="521.5" y="-117" font-family="Helvetica,sans-Serif" font-size="10.00">unordered_map</text>
</a>
</g>
</g>
<!-- Node2&#45;&gt;Node6 -->
<g id="edge5_Node000002_Node000006" class="edge">
<title>Node2&#45;&gt;Node6</title>
<g id="a_edge5_Node000002_Node000006"><a xlink:title=" ">
<path fill="none" stroke="#63b8ff" d="M297.11,-166.24C341.7,-157.15 418.44,-141.51 469.58,-131.08"/>
<polygon fill="#63b8ff" stroke="#63b8ff" points="470.34,-134.5 479.44,-129.07 468.95,-127.64 470.34,-134.5"/>
</a>
</g>
</g>
<!-- Node7 -->
<g id="Node000007" class="node">
<title>Node7</title>
<g id="a_Node000007"><a xlink:href="endpoint_8hpp.html" target="_top" xlink:title=" ">
<polygon fill="white" stroke="#666666" points="365.5,-74 237.5,-74 237.5,-55 365.5,-55 365.5,-74"/>
<text text-anchor="middle" x="301.5" y="-62" font-family="Helvetica,sans-Serif" font-size="10.00">../models/endpoint.hpp</text>
</a>
</g>
</g>
<!-- Node2&#45;&gt;Node7 -->
<g id="edge6_Node000002_Node000007" class="edge">
<title>Node2&#45;&gt;Node7</title>
<g id="a_edge6_Node000002_Node000007"><a xlink:title=" ">
<path fill="none" stroke="#63b8ff" d="M255.03,-164.94C246.41,-152.4 233.26,-128.54 242.5,-110 249.07,-96.82 261.6,-86.52 273.43,-79.16"/>
<polygon fill="#63b8ff" stroke="#63b8ff" points="275.3,-82.12 282.23,-74.1 271.82,-76.05 275.3,-82.12"/>
</a>
</g>
</g>
<!-- Node10 -->
<g id="Node000010" class="node">
<title>Node10</title>
<g id="a_Node000010"><a xlink:href="file_8hpp.html" target="_top" xlink:title=" ">
<polygon fill="white" stroke="#666666" points="352,-129 251,-129 251,-110 352,-110 352,-129"/>
<text text-anchor="middle" x="301.5" y="-117" font-family="Helvetica,sans-Serif" font-size="10.00">../models/file.hpp</text>
</a>
</g>
</g>
<!-- Node2&#45;&gt;Node10 -->
<g id="edge10_Node000002_Node000010" class="edge">
<title>Node2&#45;&gt;Node10</title>
<g id="a_edge10_Node000002_Node000010"><a xlink:title=" ">
<path fill="none" stroke="#63b8ff" d="M268.11,-164.75C273.76,-157.26 282.04,-146.28 288.95,-137.13"/>
<polygon fill="#63b8ff" stroke="#63b8ff" points="291.79,-139.18 295.02,-129.09 286.2,-134.96 291.79,-139.18"/>
</a>
</g>
</g>
<!-- Node13 -->
<g id="Node000013" class="node">
<title>Node13</title>
<g id="a_Node000013"><a xlink:href="fileinfo_8hpp.html" target="_top" xlink:title=" ">
<polygon fill="white" stroke="#666666" points="559,-74 488,-74 488,-55 559,-55 559,-74"/>
<text text-anchor="middle" x="523.5" y="-62" font-family="Helvetica,sans-Serif" font-size="10.00">fileinfo.hpp</text>
</a>
</g>
</g>
<!-- Node2&#45;&gt;Node13 -->
<g id="edge21_Node000002_Node000013" class="edge">
<title>Node2&#45;&gt;Node13</title>
<g id="a_edge21_Node000002_Node000013"><a xlink:title=" ">
<path fill="none" stroke="#63b8ff" d="M281.54,-164.9C301.82,-156.12 334.01,-141.98 361.5,-129 378.57,-120.94 382.14,-117.42 399.5,-110 428.33,-97.67 461.85,-85.78 486.76,-77.4"/>
<polygon fill="#63b8ff" stroke="#63b8ff" points="488.16,-80.63 496.54,-74.14 485.94,-73.98 488.16,-80.63"/>
</a>
</g>
</g>
<!-- Node15 -->
<g id="Node000015" class="node">
<title>Node15</title>
<g id="a_Node000015"><a xlink:href="file__id_8hpp.html" target="_top" xlink:title=" ">
<polygon fill="white" stroke="#666666" points="67,-129 0,-129 0,-110 67,-110 67,-129"/>
<text text-anchor="middle" x="33.5" y="-117" font-family="Helvetica,sans-Serif" font-size="10.00">file_id.hpp</text>
</a>
</g>
</g>
<!-- Node2&#45;&gt;Node15 -->
<g id="edge22_Node000002_Node000015" class="edge">
<title>Node2&#45;&gt;Node15</title>
<g id="a_edge22_Node000002_Node000015"><a xlink:title=" ">
<path fill="none" stroke="#63b8ff" d="M225.88,-165.22C185.64,-155.87 120.16,-140.65 76.96,-130.6"/>
<polygon fill="#63b8ff" stroke="#63b8ff" points="77.55,-127.15 67.02,-128.29 75.97,-133.97 77.55,-127.15"/>
</a>
</g>
</g>
<!-- Node7&#45;&gt;Node5 -->
<g id="edge9_Node000007_Node000005" class="edge">
<title>Node7&#45;&gt;Node5</title>
<g id="a_edge9_Node000007_Node000005"><a xlink:title=" ">
<path fill="none" stroke="#63b8ff" d="M286.72,-54.98C272.32,-46.69 250.19,-33.94 233.31,-24.22"/>
<polygon fill="#63b8ff" stroke="#63b8ff" points="234.96,-21.13 224.55,-19.17 231.47,-27.19 234.96,-21.13"/>
</a>
</g>
</g>
<!-- Node8 -->
<g id="Node000008" class="node">
<title>Node8</title>
<g id="a_Node000008"><a xlink:title=" ">
<polygon fill="#e0e0e0" stroke="#999999" points="326.5,-19 276.5,-19 276.5,0 326.5,0 326.5,-19"/>
<text text-anchor="middle" x="301.5" y="-7" font-family="Helvetica,sans-Serif" font-size="10.00">cstdint</text>
</a>
</g>
</g>
<!-- Node7&#45;&gt;Node8 -->
<g id="edge7_Node000007_Node000008" class="edge">
<title>Node7&#45;&gt;Node8</title>
<g id="a_edge7_Node000007_Node000008"><a xlink:title=" ">
<path fill="none" stroke="#63b8ff" d="M301.5,-54.75C301.5,-47.8 301.5,-37.85 301.5,-29.13"/>
<polygon fill="#63b8ff" stroke="#63b8ff" points="305,-29.09 301.5,-19.09 298,-29.09 305,-29.09"/>
</a>
</g>
</g>
<!-- Node9 -->
<g id="Node000009" class="node">
<title>Node9</title>
<g id="a_Node000009"><a xlink:title=" ">
<polygon fill="#e0e0e0" stroke="#999999" points="443,-19 378,-19 378,0 443,0 443,-19"/>
<text text-anchor="middle" x="410.5" y="-7" font-family="Helvetica,sans-Serif" font-size="10.00">stdexcept</text>
</a>
</g>
</g>
<!-- Node7&#45;&gt;Node9 -->
<g id="edge8_Node000007_Node000009" class="edge">
<title>Node7&#45;&gt;Node9</title>
<g id="a_edge8_Node000007_Node000009"><a xlink:title=" ">
<path fill="none" stroke="#63b8ff" d="M319.01,-54.98C336.47,-46.5 363.51,-33.35 383.67,-23.54"/>
<polygon fill="#63b8ff" stroke="#63b8ff" points="385.21,-26.69 392.67,-19.17 382.14,-20.4 385.21,-26.69"/>
</a>
</g>
</g>
<!-- Node10&#45;&gt;Node3 -->
<g id="edge11_Node000010_Node000003" class="edge">
<title>Node10&#45;&gt;Node3</title>
<g id="a_edge11_Node000010_Node000003"><a xlink:title=" ">
<path fill="none" stroke="#63b8ff" d="M277.56,-109.98C252.94,-101.23 214.38,-87.51 186.58,-77.62"/>
<polygon fill="#63b8ff" stroke="#63b8ff" points="187.47,-74.22 176.88,-74.17 185.12,-80.82 187.47,-74.22"/>
</a>
</g>
</g>
<!-- Node10&#45;&gt;Node5 -->
<g id="edge12_Node000010_Node000005" class="edge">
<title>Node10&#45;&gt;Node5</title>
<g id="a_edge12_Node000010_Node000005"><a xlink:title=" ">
<path fill="none" stroke="#63b8ff" d="M278.96,-109.97C262.72,-102.72 241.46,-90.81 228.5,-74 218.51,-61.04 213.75,-42.89 211.5,-29.31"/>
<polygon fill="#63b8ff" stroke="#63b8ff" points="214.94,-28.64 210.14,-19.19 208,-29.57 214.94,-28.64"/>
</a>
</g>
</g>
<!-- Node10&#45;&gt;Node7 -->
<g id="edge15_Node000010_Node000007" class="edge">
<title>Node10&#45;&gt;Node7</title>
<g id="a_edge15_Node000010_Node000007"><a xlink:title=" ">
<path fill="none" stroke="#63b8ff" d="M301.5,-109.75C301.5,-102.8 301.5,-92.85 301.5,-84.13"/>
<polygon fill="#63b8ff" stroke="#63b8ff" points="305,-84.09 301.5,-74.09 298,-84.09 305,-84.09"/>
</a>
</g>
</g>
<!-- Node11 -->
<g id="Node000011" class="node">
<title>Node11</title>
<g id="a_Node000011"><a xlink:title=" ">
<polygon fill="#e0e0e0" stroke="#999999" points="615.5,-19 559.5,-19 559.5,0 615.5,0 615.5,-19"/>
<text text-anchor="middle" x="587.5" y="-7" font-family="Helvetica,sans-Serif" font-size="10.00">sstream</text>
</a>
</g>
</g>
<!-- Node10&#45;&gt;Node11 -->
<g id="edge13_Node000010_Node000011" class="edge">
<title>Node10&#45;&gt;Node11</title>
<g id="a_edge13_Node000010_Node000011"><a xlink:title=" ">
<path fill="none" stroke="#63b8ff" d="M352.11,-112.97C424.98,-104.58 552.51,-88.1 568.5,-74 581.03,-62.95 585.46,-44.01 586.95,-29.68"/>
<polygon fill="#63b8ff" stroke="#63b8ff" points="590.46,-29.62 587.61,-19.42 583.47,-29.18 590.46,-29.62"/>
</a>
</g>
</g>
<!-- Node12 -->
<g id="Node000012" class="node">
<title>Node12</title>
<g id="a_Node000012"><a xlink:title=" ">
<polygon fill="#e0e0e0" stroke="#999999" points="469.5,-74 383.5,-74 383.5,-55 469.5,-55 469.5,-74"/>
<text text-anchor="middle" x="426.5" y="-62" font-family="Helvetica,sans-Serif" font-size="10.00">unordered_set</text>
</a>
</g>
</g>
<!-- Node10&#45;&gt;Node12 -->
<g id="edge14_Node000010_Node000012" class="edge">
<title>Node10&#45;&gt;Node12</title>
<g id="a_edge14_Node000010_Node000012"><a xlink:title=" ">
<path fill="none" stroke="#63b8ff" d="M321.58,-109.98C341.87,-101.38 373.46,-87.99 396.67,-78.15"/>
<polygon fill="#63b8ff" stroke="#63b8ff" points="398.21,-81.3 406.05,-74.17 395.48,-74.85 398.21,-81.3"/>
</a>
</g>
</g>
<!-- Node10&#45;&gt;Node13 -->
<g id="edge16_Node000010_Node000013" class="edge">
<title>Node10&#45;&gt;Node13</title>
<g id="a_edge16_Node000010_Node000013"><a xlink:title=" ">
<path fill="none" stroke="#63b8ff" d="M337.17,-109.98C375.44,-100.85 436.33,-86.31 478.02,-76.36"/>
<polygon fill="#63b8ff" stroke="#63b8ff" points="479.01,-79.72 487.92,-73.99 477.38,-72.91 479.01,-79.72"/>
</a>
</g>
</g>
<!-- Node13&#45;&gt;Node5 -->
<g id="edge19_Node000013_Node000005" class="edge">
<title>Node13&#45;&gt;Node5</title>
<g id="a_edge19_Node000013_Node000005"><a xlink:title=" ">
<path fill="none" stroke="#63b8ff" d="M487.65,-56.65C484.56,-56.08 481.47,-55.53 478.5,-55 393.21,-39.89 292.41,-23.65 241.85,-15.61"/>
<polygon fill="#63b8ff" stroke="#63b8ff" points="242.27,-12.13 231.85,-14.02 241.18,-19.04 242.27,-12.13"/>
</a>
</g>
</g>
<!-- Node13&#45;&gt;Node9 -->
<g id="edge18_Node000013_Node000009" class="edge">
<title>Node13&#45;&gt;Node9</title>
<g id="a_edge18_Node000013_Node000009"><a xlink:title=" ">
<path fill="none" stroke="#63b8ff" d="M505.34,-54.98C487.25,-46.5 459.22,-33.35 438.31,-23.54"/>
<polygon fill="#63b8ff" stroke="#63b8ff" points="439.53,-20.25 428.99,-19.17 436.55,-26.59 439.53,-20.25"/>
</a>
</g>
</g>
<!-- Node13&#45;&gt;Node11 -->
<g id="edge17_Node000013_Node000011" class="edge">
<title>Node13&#45;&gt;Node11</title>
<g id="a_edge17_Node000013_Node000011"><a xlink:title=" ">
<path fill="none" stroke="#63b8ff" d="M533.78,-54.98C543.34,-47.07 557.78,-35.11 569.28,-25.58"/>
<polygon fill="#63b8ff" stroke="#63b8ff" points="571.56,-28.24 577.03,-19.17 567.1,-22.85 571.56,-28.24"/>
</a>
</g>
</g>
<!-- Node14 -->
<g id="Node000014" class="node">
<title>Node14</title>
<g id="a_Node000014"><a xlink:title=" ">
<polygon fill="#e0e0e0" stroke="#999999" points="541,-19 494,-19 494,0 541,0 541,-19"/>
<text text-anchor="middle" x="517.5" y="-7" font-family="Helvetica,sans-Serif" font-size="10.00">vector</text>
</a>
</g>
</g>
<!-- Node13&#45;&gt;Node14 -->
<g id="edge20_Node000013_Node000014" class="edge">
<title>Node13&#45;&gt;Node14</title>
<g id="a_edge20_Node000013_Node000014"><a xlink:title=" ">
<path fill="none" stroke="#63b8ff" d="M522.51,-54.75C521.72,-47.8 520.6,-37.85 519.61,-29.13"/>
<polygon fill="#63b8ff" stroke="#63b8ff" points="523.08,-28.63 518.47,-19.09 516.12,-29.42 523.08,-28.63"/>
</a>
</g>
</g>
<!-- Node15&#45;&gt;Node5 -->
<g id="edge23_Node000015_Node000005" class="edge">
<title>Node15&#45;&gt;Node5</title>
<g id="a_edge23_Node000015_Node000005"><a xlink:title=" ">
<path fill="none" stroke="#63b8ff" d="M37.88,-109.81C45.14,-96.22 60.94,-69.96 81.5,-55 110.35,-34.01 149.93,-22.27 177.4,-16.19"/>
<polygon fill="#63b8ff" stroke="#63b8ff" points="178.22,-19.6 187.3,-14.13 176.79,-12.74 178.22,-19.6"/>
</a>
</g>
</g>
</g>
</svg>
