<?xml version="1.0" encoding="UTF-8" standalone="no"?>
<!DOCTYPE svg PUBLIC "-//W3C//DTD SVG 1.1//EN"
 "http://www.w3.org/Graphics/SVG/1.1/DTD/svg11.dtd">
<!-- Generated by graphviz version 2.43.0 (0)
 -->
<!-- Title: src/client/peerdb.hpp Pages: 1 -->
<svg width="569pt" height="225pt"
 viewBox="0.00 0.00 569.37 225.00" xmlns="http://www.w3.org/2000/svg" xmlns:xlink="http://www.w3.org/1999/xlink">
<g id="graph0" class="graph" transform="scale(1 1) rotate(0) translate(4 221)">
<title>src/client/peerdb.hpp</title>
<!-- Node1 -->
<g id="Node000001" class="node">
<title>Node1</title>
<g id="a_Node000001"><a xlink:title=" ">
<polygon fill="#999999" stroke="#666666" points="484,-217 365,-217 365,-198 484,-198 484,-217"/>
<text text-anchor="middle" x="424.5" y="-205" font-family="Helvetica,sans-Serif" font-size="10.00">src/client/peerdb.hpp</text>
</a>
</g>
</g>
<!-- Node2 -->
<g id="Node000002" class="node">
<title>Node2</title>
<g id="a_Node000002"><a xlink:href="client_8cpp.html" target="_top" xlink:title="The entrypoint to the client.">
<polygon fill="white" stroke="#666666" points="396,-24.5 285,-24.5 285,-5.5 396,-5.5 396,-24.5"/>
<text text-anchor="middle" x="340.5" y="-12.5" font-family="Helvetica,sans-Serif" font-size="10.00">src/client/client.cpp</text>
</a>
</g>
</g>
<!-- Node1&#45;&gt;Node2 -->
<g id="edge1_Node000001_Node000002" class="edge">
<title>Node1&#45;&gt;Node2</title>
<g id="a_edge1_Node000001_Node000002"><a xlink:title=" ">
<path fill="none" stroke="#63b8ff" d="M493.83,-199.54C517.64,-193.45 541.93,-182.29 556.5,-162 564.28,-151.17 561.2,-144.48 556.5,-132 531.65,-66.08 448.66,-36.91 393.08,-24.53"/>
<polygon fill="#63b8ff" stroke="#63b8ff" points="493.01,-196.14 484.05,-201.79 494.58,-202.96 493.01,-196.14"/>
</a>
</g>
</g>
<!-- Node3 -->
<g id="Node000003" class="node">
<title>Node3</title>
<g id="a_Node000003"><a xlink:href="downloadmanager_8hpp.html" target="_top" xlink:title=" ">
<polygon fill="white" stroke="#666666" points="292,-156.5 117,-156.5 117,-137.5 292,-137.5 292,-156.5"/>
<text text-anchor="middle" x="204.5" y="-144.5" font-family="Helvetica,sans-Serif" font-size="10.00">src/client/downloadmanager.hpp</text>
</a>
</g>
</g>
<!-- Node1&#45;&gt;Node3 -->
<g id="edge2_Node000001_Node000003" class="edge">
<title>Node1&#45;&gt;Node3</title>
<g id="a_edge2_Node000001_Node000003"><a xlink:title=" ">
<path fill="none" stroke="#63b8ff" d="M382.74,-195.4C340.2,-184.08 275.16,-166.79 236.53,-156.52"/>
<polygon fill="#63b8ff" stroke="#63b8ff" points="381.95,-198.81 392.51,-197.99 383.75,-192.04 381.95,-198.81"/>
</a>
</g>
</g>
<!-- Node7 -->
<g id="Node000007" class="node">
<title>Node7</title>
<g id="a_Node000007"><a xlink:href="peerdb_8cpp.html" target="_top" xlink:title=" ">
<polygon fill="white" stroke="#666666" points="547.5,-156.5 429.5,-156.5 429.5,-137.5 547.5,-137.5 547.5,-156.5"/>
<text text-anchor="middle" x="488.5" y="-144.5" font-family="Helvetica,sans-Serif" font-size="10.00">src/client/peerdb.cpp</text>
</a>
</g>
</g>
<!-- Node1&#45;&gt;Node7 -->
<g id="edge8_Node000001_Node000007" class="edge">
<title>Node1&#45;&gt;Node7</title>
<g id="a_edge8_Node000001_Node000007"><a xlink:title=" ">
<path fill="none" stroke="#63b8ff" d="M441.56,-190.91C453.56,-179.94 469.17,-165.67 479.02,-156.67"/>
<polygon fill="#63b8ff" stroke="#63b8ff" points="438.96,-188.54 433.94,-197.87 443.69,-193.7 438.96,-188.54"/>
</a>
</g>
</g>
<!-- Node8 -->
<g id="Node000008" class="node">
<title>Node8</title>
<g id="a_Node000008"><a xlink:href="client_2process__request_8hpp.html" target="_top" xlink:title=" ">
<polygon fill="white" stroke="#666666" points="411,-162 310,-162 310,-132 411,-132 411,-162"/>
<text text-anchor="start" x="318" y="-150" font-family="Helvetica,sans-Serif" font-size="10.00">src/client/process</text>
<text text-anchor="middle" x="360.5" y="-139" font-family="Helvetica,sans-Serif" font-size="10.00">_request.hpp</text>
</a>
</g>
</g>
<!-- Node1&#45;&gt;Node8 -->
<g id="edge9_Node000001_Node000008" class="edge">
<title>Node1&#45;&gt;Node8</title>
<g id="a_edge9_Node000001_Node000008"><a xlink:title=" ">
<path fill="none" stroke="#63b8ff" d="M407.51,-190.97C397.7,-182.01 385.47,-170.82 375.94,-162.11"/>
<polygon fill="#63b8ff" stroke="#63b8ff" points="405.31,-193.7 415.06,-197.87 410.04,-188.54 405.31,-193.7"/>
</a>
</g>
</g>
<!-- Node3&#45;&gt;Node2 -->
<g id="edge3_Node000003_Node000002" class="edge">
<title>Node3&#45;&gt;Node2</title>
<g id="a_edge3_Node000003_Node000002"><a xlink:title=" ">
<path fill="none" stroke="#63b8ff" d="M241.51,-133.83C261.6,-125.7 285.68,-113.3 302.5,-96 323.08,-74.83 334.16,-40.42 338.42,-24.53"/>
<polygon fill="#63b8ff" stroke="#63b8ff" points="240.1,-130.62 232.03,-137.48 242.62,-137.15 240.1,-130.62"/>
</a>
</g>
</g>
<!-- Node4 -->
<g id="Node000004" class="node">
<title>Node4</title>
<g id="a_Node000004"><a xlink:href="downloadmanager_8cpp.html" target="_top" xlink:title=" ">
<polygon fill="white" stroke="#666666" points="293.5,-90.5 119.5,-90.5 119.5,-71.5 293.5,-71.5 293.5,-90.5"/>
<text text-anchor="middle" x="206.5" y="-78.5" font-family="Helvetica,sans-Serif" font-size="10.00">src/client/downloadmanager.cpp</text>
</a>
</g>
</g>
<!-- Node3&#45;&gt;Node4 -->
<g id="edge4_Node000003_Node000004" class="edge">
<title>Node3&#45;&gt;Node4</title>
<g id="a_edge4_Node000003_Node000004"><a xlink:title=" ">
<path fill="none" stroke="#63b8ff" d="M205.09,-127.08C205.46,-115.13 205.93,-100.22 206.22,-90.91"/>
<polygon fill="#63b8ff" stroke="#63b8ff" points="201.58,-127.26 204.77,-137.37 208.58,-127.48 201.58,-127.26"/>
</a>
</g>
</g>
<!-- Node5 -->
<g id="Node000005" class="node">
<title>Node5</title>
<g id="a_Node000005"><a xlink:href="process__input_8hpp.html" target="_top" xlink:title=" ">
<polygon fill="white" stroke="#666666" points="101,-96 0,-96 0,-66 101,-66 101,-96"/>
<text text-anchor="start" x="8" y="-84" font-family="Helvetica,sans-Serif" font-size="10.00">src/client/process</text>
<text text-anchor="middle" x="50.5" y="-73" font-family="Helvetica,sans-Serif" font-size="10.00">_input.hpp</text>
</a>
</g>
</g>
<!-- Node3&#45;&gt;Node5 -->
<g id="edge5_Node000003_Node000005" class="edge">
<title>Node3&#45;&gt;Node5</title>
<g id="a_edge5_Node000003_Node000005"><a xlink:title=" ">
<path fill="none" stroke="#63b8ff" d="M174.43,-133.5C148.6,-122.77 111.37,-107.3 84.47,-96.12"/>
<polygon fill="#63b8ff" stroke="#63b8ff" points="173.15,-136.76 183.73,-137.37 175.84,-130.3 173.15,-136.76"/>
</a>
</g>
</g>
<!-- Node5&#45;&gt;Node2 -->
<g id="edge6_Node000005_Node000002" class="edge">
<title>Node5&#45;&gt;Node2</title>
<g id="a_edge6_Node000005_Node000002"><a xlink:title=" ">
<path fill="none" stroke="#63b8ff" d="M110.98,-65.91C183.46,-49.62 256.18,-33.97 300.16,-24.58"/>
<polygon fill="#63b8ff" stroke="#63b8ff" points="110.21,-62.5 101.23,-68.11 111.75,-69.32 110.21,-62.5"/>
</a>
</g>
</g>
<!-- Node6 -->
<g id="Node000006" class="node">
<title>Node6</title>
<g id="a_Node000006"><a xlink:href="process__input_8cpp.html" target="_top" xlink:title=" ">
<polygon fill="white" stroke="#666666" points="101,-30 0,-30 0,0 101,0 101,-30"/>
<text text-anchor="start" x="8" y="-18" font-family="Helvetica,sans-Serif" font-size="10.00">src/client/process</text>
<text text-anchor="middle" x="50.5" y="-7" font-family="Helvetica,sans-Serif" font-size="10.00">_input.cpp</text>
</a>
</g>
</g>
<!-- Node5&#45;&gt;Node6 -->
<g id="edge7_Node000005_Node000006" class="edge">
<title>Node5&#45;&gt;Node6</title>
<g id="a_edge7_Node000005_Node000006"><a xlink:title=" ">
<path fill="none" stroke="#63b8ff" d="M50.5,-55.54C50.5,-46.96 50.5,-37.61 50.5,-30.16"/>
<polygon fill="#63b8ff" stroke="#63b8ff" points="47,-55.8 50.5,-65.8 54,-55.8 47,-55.8"/>
</a>
</g>
</g>
<!-- Node8&#45;&gt;Node2 -->
<g id="edge10_Node000008_Node000002" class="edge">
<title>Node8&#45;&gt;Node2</title>
<g id="a_edge10_Node000008_Node000002"><a xlink:title=" ">
<path fill="none" stroke="#63b8ff" d="M356.74,-121.57C352.22,-92.17 344.86,-44.31 341.85,-24.75"/>
<polygon fill="#63b8ff" stroke="#63b8ff" points="353.34,-122.49 358.32,-131.84 360.26,-121.42 353.34,-122.49"/>
</a>
</g>
</g>
<!-- Node9 -->
<g id="Node000009" class="node">
<title>Node9</title>
<g id="a_Node000009"><a xlink:href="client_2process__request_8cpp.html" target="_top" xlink:title=" ">
<polygon fill="white" stroke="#666666" points="489,-96 388,-96 388,-66 489,-66 489,-96"/>
<text text-anchor="start" x="396" y="-84" font-family="Helvetica,sans-Serif" font-size="10.00">src/client/process</text>
<text text-anchor="middle" x="438.5" y="-73" font-family="Helvetica,sans-Serif" font-size="10.00">_request.cpp</text>
</a>
</g>
</g>
<!-- Node8&#45;&gt;Node9 -->
<g id="edge11_Node000008_Node000009" class="edge">
<title>Node8&#45;&gt;Node9</title>
<g id="a_edge11_Node000008_Node000009"><a xlink:title=" ">
<path fill="none" stroke="#63b8ff" d="M385.85,-125.2C397.43,-115.7 410.85,-104.69 421.24,-96.16"/>
<polygon fill="#63b8ff" stroke="#63b8ff" points="383.32,-122.75 377.81,-131.8 387.76,-128.16 383.32,-122.75"/>
</a>
</g>
</g>
</g>
</svg>
