<?xml version="1.0" encoding="UTF-8" standalone="no"?>
<!DOCTYPE svg PUBLIC "-//W3C//DTD SVG 1.1//EN"
 "http://www.w3.org/Graphics/SVG/1.1/DTD/svg11.dtd">
<!-- Generated by graphviz version 2.43.0 (0)
 -->
<!-- Title: src/client/peerdb.hpp Pages: 1 -->
<svg width="489pt" height="225pt"
 viewBox="0.00 0.00 488.50 225.00" xmlns="http://www.w3.org/2000/svg" xmlns:xlink="http://www.w3.org/1999/xlink">
<g id="graph0" class="graph" transform="scale(1 1) rotate(0) translate(4 221)">
<title>src/client/peerdb.hpp</title>
<!-- Node1 -->
<g id="Node000001" class="node">
<title>Node1</title>
<g id="a_Node000001"><a xlink:title=" ">
<polygon fill="#999999" stroke="#666666" points="344.5,-217 225.5,-217 225.5,-198 344.5,-198 344.5,-217"/>
<text text-anchor="middle" x="285" y="-205" font-family="Helvetica,sans-Serif" font-size="10.00">src/client/peerdb.hpp</text>
</a>
</g>
</g>
<!-- Node2 -->
<g id="Node000002" class="node">
<title>Node2</title>
<g id="a_Node000002"><a xlink:href="downloadmanager_8hpp.html" target="_top" xlink:title=" ">
<polygon fill="white" stroke="#666666" points="207.5,-156.5 32.5,-156.5 32.5,-137.5 207.5,-137.5 207.5,-156.5"/>
<text text-anchor="middle" x="120" y="-144.5" font-family="Helvetica,sans-Serif" font-size="10.00">src/client/downloadmanager.hpp</text>
</a>
</g>
</g>
<!-- Node1&#45;&gt;Node2 -->
<g id="edge1_Node000001_Node000002" class="edge">
<title>Node1&#45;&gt;Node2</title>
<g id="a_edge1_Node000001_Node000002"><a xlink:title=" ">
<path fill="none" stroke="#63b8ff" d="M251.22,-194.52C219.32,-183.21 172.26,-166.53 144.02,-156.52"/>
<polygon fill="#63b8ff" stroke="#63b8ff" points="250.41,-197.95 261.01,-197.99 252.75,-191.35 250.41,-197.95"/>
</a>
</g>
</g>
<!-- Node7 -->
<g id="Node000007" class="node">
<title>Node7</title>
<g id="a_Node000007"><a xlink:href="peerdb_8cpp.html" target="_top" xlink:title=" ">
<polygon fill="white" stroke="#666666" points="344,-156.5 226,-156.5 226,-137.5 344,-137.5 344,-156.5"/>
<text text-anchor="middle" x="285" y="-144.5" font-family="Helvetica,sans-Serif" font-size="10.00">src/client/peerdb.cpp</text>
</a>
</g>
</g>
<!-- Node1&#45;&gt;Node7 -->
<g id="edge6_Node000001_Node000007" class="edge">
<title>Node1&#45;&gt;Node7</title>
<g id="a_edge6_Node000001_Node000007"><a xlink:title=" ">
<path fill="none" stroke="#63b8ff" d="M285,-187.66C285,-177.24 285,-164.8 285,-156.67"/>
<polygon fill="#63b8ff" stroke="#63b8ff" points="281.5,-187.87 285,-197.87 288.5,-187.87 281.5,-187.87"/>
</a>
</g>
</g>
<!-- Node8 -->
<g id="Node000008" class="node">
<title>Node8</title>
<g id="a_Node000008"><a xlink:href="client_2process__request_8hpp.html" target="_top" xlink:title=" ">
<polygon fill="white" stroke="#666666" points="463.5,-162 362.5,-162 362.5,-132 463.5,-132 463.5,-162"/>
<text text-anchor="start" x="370.5" y="-150" font-family="Helvetica,sans-Serif" font-size="10.00">src/client/process</text>
<text text-anchor="middle" x="413" y="-139" font-family="Helvetica,sans-Serif" font-size="10.00">_request.hpp</text>
</a>
</g>
</g>
<!-- Node1&#45;&gt;Node8 -->
<g id="edge7_Node000001_Node000008" class="edge">
<title>Node1&#45;&gt;Node8</title>
<g id="a_edge7_Node000001_Node000008"><a xlink:title=" ">
<path fill="none" stroke="#63b8ff" d="M312.97,-193.72C333.34,-184.41 360.93,-171.8 381.98,-162.18"/>
<polygon fill="#63b8ff" stroke="#63b8ff" points="311.25,-190.65 303.61,-197.99 314.16,-197.02 311.25,-190.65"/>
</a>
</g>
</g>
<!-- Node3 -->
<g id="Node000003" class="node">
<title>Node3</title>
<g id="a_Node000003"><a xlink:href="downloadmanager_8cpp.html" target="_top" xlink:title=" ">
<polygon fill="white" stroke="#666666" points="174,-90.5 0,-90.5 0,-71.5 174,-71.5 174,-90.5"/>
<text text-anchor="middle" x="87" y="-78.5" font-family="Helvetica,sans-Serif" font-size="10.00">src/client/downloadmanager.cpp</text>
</a>
</g>
</g>
<!-- Node2&#45;&gt;Node3 -->
<g id="edge2_Node000002_Node000003" class="edge">
<title>Node2&#45;&gt;Node3</title>
<g id="a_edge2_Node000002_Node000003"><a xlink:title=" ">
<path fill="none" stroke="#63b8ff" d="M110.81,-128.18C104.56,-116.05 96.54,-100.51 91.59,-90.91"/>
<polygon fill="#63b8ff" stroke="#63b8ff" points="107.86,-130.08 115.55,-137.37 114.08,-126.88 107.86,-130.08"/>
</a>
</g>
</g>
<!-- Node4 -->
<g id="Node000004" class="node">
<title>Node4</title>
<g id="a_Node000004"><a xlink:href="process__input_8hpp.html" target="_top" xlink:title=" ">
<polygon fill="white" stroke="#666666" points="293.5,-96 192.5,-96 192.5,-66 293.5,-66 293.5,-96"/>
<text text-anchor="start" x="200.5" y="-84" font-family="Helvetica,sans-Serif" font-size="10.00">src/client/process</text>
<text text-anchor="middle" x="243" y="-73" font-family="Helvetica,sans-Serif" font-size="10.00">_input.hpp</text>
</a>
</g>
</g>
<!-- Node2&#45;&gt;Node4 -->
<g id="edge3_Node000002_Node000004" class="edge">
<title>Node2&#45;&gt;Node4</title>
<g id="a_edge3_Node000002_Node000004"><a xlink:title=" ">
<path fill="none" stroke="#63b8ff" d="M145.67,-132.64C166.21,-121.95 194.95,-107 215.87,-96.12"/>
<polygon fill="#63b8ff" stroke="#63b8ff" points="143.84,-129.65 136.59,-137.37 147.07,-135.86 143.84,-129.65"/>
</a>
</g>
</g>
<!-- Node5 -->
<g id="Node000005" class="node">
<title>Node5</title>
<g id="a_Node000005"><a xlink:href="client_8cpp.html" target="_top" xlink:title="The entrypoint to the client.">
<polygon fill="white" stroke="#666666" points="406.5,-24.5 295.5,-24.5 295.5,-5.5 406.5,-5.5 406.5,-24.5"/>
<text text-anchor="middle" x="351" y="-12.5" font-family="Helvetica,sans-Serif" font-size="10.00">src/client/client.cpp</text>
</a>
</g>
</g>
<!-- Node4&#45;&gt;Node5 -->
<g id="edge4_Node000004_Node000005" class="edge">
<title>Node4&#45;&gt;Node5</title>
<g id="a_edge4_Node000004_Node000005"><a xlink:title=" ">
<path fill="none" stroke="#63b8ff" d="M275.38,-60.81C295.77,-48.73 321.07,-33.73 336.63,-24.52"/>
<polygon fill="#63b8ff" stroke="#63b8ff" points="273.52,-57.85 266.7,-65.95 277.09,-63.87 273.52,-57.85"/>
</a>
</g>
</g>
<!-- Node6 -->
<g id="Node000006" class="node">
<title>Node6</title>
<g id="a_Node000006"><a xlink:href="process__input_8cpp.html" target="_top" xlink:title=" ">
<polygon fill="white" stroke="#666666" points="277.5,-30 176.5,-30 176.5,0 277.5,0 277.5,-30"/>
<text text-anchor="start" x="184.5" y="-18" font-family="Helvetica,sans-Serif" font-size="10.00">src/client/process</text>
<text text-anchor="middle" x="227" y="-7" font-family="Helvetica,sans-Serif" font-size="10.00">_input.cpp</text>
</a>
</g>
</g>
<!-- Node4&#45;&gt;Node6 -->
<g id="edge5_Node000004_Node000006" class="edge">
<title>Node4&#45;&gt;Node6</title>
<g id="a_edge5_Node000004_Node000006"><a xlink:title=" ">
<path fill="none" stroke="#63b8ff" d="M236.96,-55.83C234.79,-47.17 232.42,-37.7 230.54,-30.16"/>
<polygon fill="#63b8ff" stroke="#63b8ff" points="233.63,-56.94 239.45,-65.8 240.42,-55.25 233.63,-56.94"/>
</a>
</g>
</g>
<!-- Node8&#45;&gt;Node5 -->
<g id="edge8_Node000008_Node000005" class="edge">
<title>Node8&#45;&gt;Node5</title>
<g id="a_edge8_Node000008_Node000005"><a xlink:title=" ">
<path fill="none" stroke="#63b8ff" d="M391.3,-124.56C383.92,-116.24 376.23,-106.25 371,-96 358.77,-72.03 353.72,-40.12 351.89,-24.86"/>
<polygon fill="#63b8ff" stroke="#63b8ff" points="388.81,-127.03 398.18,-131.98 393.94,-122.27 388.81,-127.03"/>
</a>
</g>
</g>
<!-- Node9 -->
<g id="Node000009" class="node">
<title>Node9</title>
<g id="a_Node000009"><a xlink:href="client_2process__request_8cpp.html" target="_top" xlink:title=" ">
<polygon fill="white" stroke="#666666" points="480.5,-96 379.5,-96 379.5,-66 480.5,-66 480.5,-96"/>
<text text-anchor="start" x="387.5" y="-84" font-family="Helvetica,sans-Serif" font-size="10.00">src/client/process</text>
<text text-anchor="middle" x="430" y="-73" font-family="Helvetica,sans-Serif" font-size="10.00">_request.cpp</text>
</a>
</g>
</g>
<!-- Node8&#45;&gt;Node9 -->
<g id="edge9_Node000008_Node000009" class="edge">
<title>Node8&#45;&gt;Node9</title>
<g id="a_edge9_Node000008_Node000009"><a xlink:title=" ">
<path fill="none" stroke="#63b8ff" d="M419.35,-122.11C421.67,-113.38 424.21,-103.78 426.24,-96.16"/>
<polygon fill="#63b8ff" stroke="#63b8ff" points="415.96,-121.23 416.77,-131.8 422.72,-123.03 415.96,-121.23"/>
</a>
</g>
</g>
</g>
</svg>
