<?xml version="1.0" encoding="UTF-8" standalone="no"?>
<!DOCTYPE svg PUBLIC "-//W3C//DTD SVG 1.1//EN"
 "http://www.w3.org/Graphics/SVG/1.1/DTD/svg11.dtd">
<!-- Generated by graphviz version 2.43.0 (0)
 -->
<!-- Title: src/client/peerdb.cpp Pages: 1 -->
<svg width="530pt" height="247pt"
 viewBox="0.00 0.00 530.31 247.00" xmlns="http://www.w3.org/2000/svg" xmlns:xlink="http://www.w3.org/1999/xlink">
<g id="graph0" class="graph" transform="scale(1 1) rotate(0) translate(4 243)">
<title>src/client/peerdb.cpp</title>
<!-- Node1 -->
<g id="Node000001" class="node">
<title>Node1</title>
<g id="a_Node000001"><a xlink:title=" ">
<polygon fill="#999999" stroke="#666666" points="314.81,-239 196.81,-239 196.81,-220 314.81,-220 314.81,-239"/>
<text text-anchor="middle" x="255.81" y="-227" font-family="Helvetica,sans-Serif" font-size="10.00">src/client/peerdb.cpp</text>
</a>
</g>
</g>
<!-- Node2 -->
<g id="Node000002" class="node">
<title>Node2</title>
<g id="a_Node000002"><a xlink:href="peerdb_8hpp.html" target="_top" xlink:title=" ">
<polygon fill="white" stroke="#666666" points="291.31,-184 220.31,-184 220.31,-165 291.31,-165 291.31,-184"/>
<text text-anchor="middle" x="255.81" y="-172" font-family="Helvetica,sans-Serif" font-size="10.00">peerdb.hpp</text>
</a>
</g>
</g>
<!-- Node1&#45;&gt;Node2 -->
<g id="edge1_Node000001_Node000002" class="edge">
<title>Node1&#45;&gt;Node2</title>
<g id="a_edge1_Node000001_Node000002"><a xlink:title=" ">
<path fill="none" stroke="#63b8ff" d="M255.81,-219.75C255.81,-212.8 255.81,-202.85 255.81,-194.13"/>
<polygon fill="#63b8ff" stroke="#63b8ff" points="259.31,-194.09 255.81,-184.09 252.31,-194.09 259.31,-194.09"/>
</a>
</g>
</g>
<!-- Node3 -->
<g id="Node000003" class="node">
<title>Node3</title>
<g id="a_Node000003"><a xlink:title=" ">
<polygon fill="#e0e0e0" stroke="#999999" points="216.81,-74 158.81,-74 158.81,-55 216.81,-55 216.81,-74"/>
<text text-anchor="middle" x="187.81" y="-62" font-family="Helvetica,sans-Serif" font-size="10.00">memory</text>
</a>
</g>
</g>
<!-- Node2&#45;&gt;Node3 -->
<g id="edge2_Node000002_Node000003" class="edge">
<title>Node2&#45;&gt;Node3</title>
<g id="a_edge2_Node000002_Node000003"><a xlink:title=" ">
<path fill="none" stroke="#63b8ff" d="M237.39,-164.97C223.54,-157.52 205.37,-145.35 195.81,-129 188,-115.65 186.32,-98.04 186.41,-84.75"/>
<polygon fill="#63b8ff" stroke="#63b8ff" points="189.92,-84.54 186.84,-74.4 182.93,-84.25 189.92,-84.54"/>
</a>
</g>
</g>
<!-- Node4 -->
<g id="Node000004" class="node">
<title>Node4</title>
<g id="a_Node000004"><a xlink:title=" ">
<polygon fill="#e0e0e0" stroke="#999999" points="410.81,-129 362.81,-129 362.81,-110 410.81,-110 410.81,-129"/>
<text text-anchor="middle" x="386.81" y="-117" font-family="Helvetica,sans-Serif" font-size="10.00">mutex</text>
</a>
</g>
</g>
<!-- Node2&#45;&gt;Node4 -->
<g id="edge3_Node000002_Node000004" class="edge">
<title>Node2&#45;&gt;Node4</title>
<g id="a_edge3_Node000002_Node000004"><a xlink:title=" ">
<path fill="none" stroke="#63b8ff" d="M276.86,-164.98C298.22,-156.34 331.52,-142.87 355.88,-133.02"/>
<polygon fill="#63b8ff" stroke="#63b8ff" points="357.42,-136.17 365.38,-129.17 354.8,-129.68 357.42,-136.17"/>
</a>
</g>
</g>
<!-- Node5 -->
<g id="Node000005" class="node">
<title>Node5</title>
<g id="a_Node000005"><a xlink:title=" ">
<polygon fill="#e0e0e0" stroke="#999999" points="215.81,-19 171.81,-19 171.81,0 215.81,0 215.81,-19"/>
<text text-anchor="middle" x="193.81" y="-7" font-family="Helvetica,sans-Serif" font-size="10.00">string</text>
</a>
</g>
</g>
<!-- Node2&#45;&gt;Node5 -->
<g id="edge4_Node000002_Node000005" class="edge">
<title>Node2&#45;&gt;Node5</title>
<g id="a_edge4_Node000002_Node000005"><a xlink:title=" ">
<path fill="none" stroke="#63b8ff" d="M220.17,-171.43C163.16,-165.98 52.89,-146.14 3.81,-74 -0.94,-67.02 -1.44,-61.62 3.81,-55 23.13,-30.64 112.4,-18.34 161.4,-13.32"/>
<polygon fill="#63b8ff" stroke="#63b8ff" points="161.88,-16.79 171.49,-12.33 161.2,-9.83 161.88,-16.79"/>
</a>
</g>
</g>
<!-- Node6 -->
<g id="Node000006" class="node">
<title>Node6</title>
<g id="a_Node000006"><a xlink:title=" ">
<polygon fill="#e0e0e0" stroke="#999999" points="522.31,-129 429.31,-129 429.31,-110 522.31,-110 522.31,-129"/>
<text text-anchor="middle" x="475.81" y="-117" font-family="Helvetica,sans-Serif" font-size="10.00">unordered_map</text>
</a>
</g>
</g>
<!-- Node2&#45;&gt;Node6 -->
<g id="edge5_Node000002_Node000006" class="edge">
<title>Node2&#45;&gt;Node6</title>
<g id="a_edge5_Node000002_Node000006"><a xlink:title=" ">
<path fill="none" stroke="#63b8ff" d="M291.16,-164.98C328.97,-155.87 389.07,-141.4 430.38,-131.45"/>
<polygon fill="#63b8ff" stroke="#63b8ff" points="431.28,-134.83 440.19,-129.08 429.65,-128.02 431.28,-134.83"/>
</a>
</g>
</g>
<!-- Node7 -->
<g id="Node000007" class="node">
<title>Node7</title>
<g id="a_Node000007"><a xlink:href="endpoint_8hpp.html" target="_top" xlink:title=" ">
<polygon fill="white" stroke="#666666" points="140.81,-74 12.81,-74 12.81,-55 140.81,-55 140.81,-74"/>
<text text-anchor="middle" x="76.81" y="-62" font-family="Helvetica,sans-Serif" font-size="10.00">../models/endpoint.hpp</text>
</a>
</g>
</g>
<!-- Node2&#45;&gt;Node7 -->
<g id="edge6_Node000002_Node000007" class="edge">
<title>Node2&#45;&gt;Node7</title>
<g id="a_edge6_Node000002_Node000007"><a xlink:title=" ">
<path fill="none" stroke="#63b8ff" d="M241.46,-164.84C210.57,-146.2 137.5,-102.11 99.96,-79.46"/>
<polygon fill="#63b8ff" stroke="#63b8ff" points="101.6,-76.37 91.22,-74.2 97.98,-82.36 101.6,-76.37"/>
</a>
</g>
</g>
<!-- Node10 -->
<g id="Node000010" class="node">
<title>Node10</title>
<g id="a_Node000010"><a xlink:href="file_8hpp.html" target="_top" xlink:title=" ">
<polygon fill="white" stroke="#666666" points="306.31,-129 205.31,-129 205.31,-110 306.31,-110 306.31,-129"/>
<text text-anchor="middle" x="255.81" y="-117" font-family="Helvetica,sans-Serif" font-size="10.00">../models/file.hpp</text>
</a>
</g>
</g>
<!-- Node2&#45;&gt;Node10 -->
<g id="edge10_Node000002_Node000010" class="edge">
<title>Node2&#45;&gt;Node10</title>
<g id="a_edge10_Node000002_Node000010"><a xlink:title=" ">
<path fill="none" stroke="#63b8ff" d="M255.81,-164.75C255.81,-157.8 255.81,-147.85 255.81,-139.13"/>
<polygon fill="#63b8ff" stroke="#63b8ff" points="259.31,-139.09 255.81,-129.09 252.31,-139.09 259.31,-139.09"/>
</a>
</g>
</g>
<!-- Node13 -->
<g id="Node000013" class="node">
<title>Node13</title>
<g id="a_Node000013"><a xlink:href="fileinfo_8hpp.html" target="_top" xlink:title=" ">
<polygon fill="white" stroke="#666666" points="448.31,-74 377.31,-74 377.31,-55 448.31,-55 448.31,-74"/>
<text text-anchor="middle" x="412.81" y="-62" font-family="Helvetica,sans-Serif" font-size="10.00">fileinfo.hpp</text>
</a>
</g>
</g>
<!-- Node2&#45;&gt;Node13 -->
<g id="edge21_Node000002_Node000013" class="edge">
<title>Node2&#45;&gt;Node13</title>
<g id="a_edge21_Node000002_Node000013"><a xlink:title=" ">
<path fill="none" stroke="#63b8ff" d="M268.39,-164.84C295.26,-146.36 358.5,-102.86 391.67,-80.05"/>
<polygon fill="#63b8ff" stroke="#63b8ff" points="393.91,-82.75 400.17,-74.2 389.95,-76.98 393.91,-82.75"/>
</a>
</g>
</g>
<!-- Node7&#45;&gt;Node5 -->
<g id="edge9_Node000007_Node000005" class="edge">
<title>Node7&#45;&gt;Node5</title>
<g id="a_edge9_Node000007_Node000005"><a xlink:title=" ">
<path fill="none" stroke="#63b8ff" d="M95.61,-54.98C114.43,-46.46 143.63,-33.23 165.31,-23.41"/>
<polygon fill="#63b8ff" stroke="#63b8ff" points="167.01,-26.48 174.67,-19.17 164.12,-20.11 167.01,-26.48"/>
</a>
</g>
</g>
<!-- Node8 -->
<g id="Node000008" class="node">
<title>Node8</title>
<g id="a_Node000008"><a xlink:title=" ">
<polygon fill="#e0e0e0" stroke="#999999" points="101.81,-19 51.81,-19 51.81,0 101.81,0 101.81,-19"/>
<text text-anchor="middle" x="76.81" y="-7" font-family="Helvetica,sans-Serif" font-size="10.00">cstdint</text>
</a>
</g>
</g>
<!-- Node7&#45;&gt;Node8 -->
<g id="edge7_Node000007_Node000008" class="edge">
<title>Node7&#45;&gt;Node8</title>
<g id="a_edge7_Node000007_Node000008"><a xlink:title=" ">
<path fill="none" stroke="#63b8ff" d="M76.81,-54.75C76.81,-47.8 76.81,-37.85 76.81,-29.13"/>
<polygon fill="#63b8ff" stroke="#63b8ff" points="80.31,-29.09 76.81,-19.09 73.31,-29.09 80.31,-29.09"/>
</a>
</g>
</g>
<!-- Node9 -->
<g id="Node000009" class="node">
<title>Node9</title>
<g id="a_Node000009"><a xlink:title=" ">
<polygon fill="#e0e0e0" stroke="#999999" points="358.31,-19 293.31,-19 293.31,0 358.31,0 358.31,-19"/>
<text text-anchor="middle" x="325.81" y="-7" font-family="Helvetica,sans-Serif" font-size="10.00">stdexcept</text>
</a>
</g>
</g>
<!-- Node7&#45;&gt;Node9 -->
<g id="edge8_Node000007_Node000009" class="edge">
<title>Node7&#45;&gt;Node9</title>
<g id="a_edge8_Node000007_Node000009"><a xlink:title=" ">
<path fill="none" stroke="#63b8ff" d="M116.82,-54.98C162.41,-45.28 236.63,-29.48 283.26,-19.56"/>
<polygon fill="#63b8ff" stroke="#63b8ff" points="284.01,-22.98 293.06,-17.47 282.55,-16.13 284.01,-22.98"/>
</a>
</g>
</g>
<!-- Node10&#45;&gt;Node3 -->
<g id="edge11_Node000010_Node000003" class="edge">
<title>Node10&#45;&gt;Node3</title>
<g id="a_edge11_Node000010_Node000003"><a xlink:title=" ">
<path fill="none" stroke="#63b8ff" d="M244.89,-109.98C234.73,-102.07 219.39,-90.11 207.16,-80.58"/>
<polygon fill="#63b8ff" stroke="#63b8ff" points="208.97,-77.56 198.93,-74.17 204.67,-83.08 208.97,-77.56"/>
</a>
</g>
</g>
<!-- Node10&#45;&gt;Node5 -->
<g id="edge12_Node000010_Node000005" class="edge">
<title>Node10&#45;&gt;Node5</title>
<g id="a_edge12_Node000010_Node000005"><a xlink:title=" ">
<path fill="none" stroke="#63b8ff" d="M252.22,-109.62C247.03,-97.09 236.83,-73.7 225.81,-55 220.14,-45.37 212.93,-35.2 206.79,-27.02"/>
<polygon fill="#63b8ff" stroke="#63b8ff" points="209.54,-24.85 200.68,-19.05 203.98,-29.11 209.54,-24.85"/>
</a>
</g>
</g>
<!-- Node10&#45;&gt;Node7 -->
<g id="edge15_Node000010_Node000007" class="edge">
<title>Node10&#45;&gt;Node7</title>
<g id="a_edge15_Node000010_Node000007"><a xlink:title=" ">
<path fill="none" stroke="#63b8ff" d="M227.05,-109.98C196.87,-101.05 149.24,-86.94 115.71,-77.02"/>
<polygon fill="#63b8ff" stroke="#63b8ff" points="116.38,-73.57 105.8,-74.08 114.39,-80.28 116.38,-73.57"/>
</a>
</g>
</g>
<!-- Node11 -->
<g id="Node000011" class="node">
<title>Node11</title>
<g id="a_Node000011"><a xlink:title=" ">
<polygon fill="#e0e0e0" stroke="#999999" points="504.81,-19 448.81,-19 448.81,0 504.81,0 504.81,-19"/>
<text text-anchor="middle" x="476.81" y="-7" font-family="Helvetica,sans-Serif" font-size="10.00">sstream</text>
</a>
</g>
</g>
<!-- Node10&#45;&gt;Node11 -->
<g id="edge13_Node000010_Node000011" class="edge">
<title>Node10&#45;&gt;Node11</title>
<g id="a_edge13_Node000010_Node000011"><a xlink:title=" ">
<path fill="none" stroke="#63b8ff" d="M306.49,-113.21C358.93,-106.74 436.17,-94.1 457.81,-74 470.05,-62.63 474.52,-43.73 476.09,-29.5"/>
<polygon fill="#63b8ff" stroke="#63b8ff" points="479.6,-29.55 476.83,-19.32 472.62,-29.05 479.6,-29.55"/>
</a>
</g>
</g>
<!-- Node12 -->
<g id="Node000012" class="node">
<title>Node12</title>
<g id="a_Node000012"><a xlink:title=" ">
<polygon fill="#e0e0e0" stroke="#999999" points="358.81,-74 272.81,-74 272.81,-55 358.81,-55 358.81,-74"/>
<text text-anchor="middle" x="315.81" y="-62" font-family="Helvetica,sans-Serif" font-size="10.00">unordered_set</text>
</a>
</g>
</g>
<!-- Node10&#45;&gt;Node12 -->
<g id="edge14_Node000010_Node000012" class="edge">
<title>Node10&#45;&gt;Node12</title>
<g id="a_edge14_Node000010_Node000012"><a xlink:title=" ">
<path fill="none" stroke="#63b8ff" d="M265.45,-109.98C274.32,-102.15 287.69,-90.34 298.42,-80.86"/>
<polygon fill="#63b8ff" stroke="#63b8ff" points="300.82,-83.41 306,-74.17 296.18,-78.17 300.82,-83.41"/>
</a>
</g>
</g>
<!-- Node10&#45;&gt;Node13 -->
<g id="edge16_Node000010_Node000013" class="edge">
<title>Node10&#45;&gt;Node13</title>
<g id="a_edge16_Node000010_Node000013"><a xlink:title=" ">
<path fill="none" stroke="#63b8ff" d="M281.04,-109.98C307.17,-101.16 348.21,-87.31 377.54,-77.41"/>
<polygon fill="#63b8ff" stroke="#63b8ff" points="379.03,-80.6 387.39,-74.08 376.79,-73.96 379.03,-80.6"/>
</a>
</g>
</g>
<!-- Node13&#45;&gt;Node5 -->
<g id="edge19_Node000013_Node000005" class="edge">
<title>Node13&#45;&gt;Node5</title>
<g id="a_edge19_Node000013_Node000005"><a xlink:title=" ">
<path fill="none" stroke="#63b8ff" d="M377.62,-54.98C335.69,-44.84 266.23,-28.03 225.77,-18.23"/>
<polygon fill="#63b8ff" stroke="#63b8ff" points="226.44,-14.8 215.9,-15.85 224.8,-21.6 226.44,-14.8"/>
</a>
</g>
</g>
<!-- Node13&#45;&gt;Node9 -->
<g id="edge18_Node000013_Node000009" class="edge">
<title>Node13&#45;&gt;Node9</title>
<g id="a_edge18_Node000013_Node000009"><a xlink:title=" ">
<path fill="none" stroke="#63b8ff" d="M398.83,-54.98C385.34,-46.77 364.68,-34.18 348.77,-24.49"/>
<polygon fill="#63b8ff" stroke="#63b8ff" points="350.4,-21.38 340.04,-19.17 346.76,-27.36 350.4,-21.38"/>
</a>
</g>
</g>
<!-- Node13&#45;&gt;Node11 -->
<g id="edge17_Node000013_Node000011" class="edge">
<title>Node13&#45;&gt;Node11</title>
<g id="a_edge17_Node000013_Node000011"><a xlink:title=" ">
<path fill="none" stroke="#63b8ff" d="M423.09,-54.98C432.65,-47.07 447.09,-35.11 458.59,-25.58"/>
<polygon fill="#63b8ff" stroke="#63b8ff" points="460.87,-28.24 466.34,-19.17 456.41,-22.85 460.87,-28.24"/>
</a>
</g>
</g>
<!-- Node14 -->
<g id="Node000014" class="node">
<title>Node14</title>
<g id="a_Node000014"><a xlink:title=" ">
<polygon fill="#e0e0e0" stroke="#999999" points="430.31,-19 383.31,-19 383.31,0 430.31,0 430.31,-19"/>
<text text-anchor="middle" x="406.81" y="-7" font-family="Helvetica,sans-Serif" font-size="10.00">vector</text>
</a>
</g>
</g>
<!-- Node13&#45;&gt;Node14 -->
<g id="edge20_Node000013_Node000014" class="edge">
<title>Node13&#45;&gt;Node14</title>
<g id="a_edge20_Node000013_Node000014"><a xlink:title=" ">
<path fill="none" stroke="#63b8ff" d="M411.82,-54.75C411.03,-47.8 409.91,-37.85 408.92,-29.13"/>
<polygon fill="#63b8ff" stroke="#63b8ff" points="412.39,-28.63 407.78,-19.09 405.43,-29.42 412.39,-28.63"/>
</a>
</g>
</g>
</g>
</svg>
