<?xml version="1.0" encoding="UTF-8" standalone="no"?>
<!DOCTYPE svg PUBLIC "-//W3C//DTD SVG 1.1//EN"
 "http://www.w3.org/Graphics/SVG/1.1/DTD/svg11.dtd">
<!-- Generated by graphviz version 2.43.0 (0)
 -->
<!-- Title: src/tracker/process_request.cpp Pages: 1 -->
<svg width="1185pt" height="313pt"
 viewBox="0.00 0.00 1185.00 313.00" xmlns="http://www.w3.org/2000/svg" xmlns:xlink="http://www.w3.org/1999/xlink">
<g id="graph0" class="graph" transform="scale(1 1) rotate(0) translate(4 309)">
<title>src/tracker/process_request.cpp</title>
<!-- Node1 -->
<g id="Node000001" class="node">
<title>Node1</title>
<g id="a_Node000001"><a xlink:title=" ">
<polygon fill="#999999" stroke="#666666" points="623,-305 515,-305 515,-275 623,-275 623,-305"/>
<text text-anchor="start" x="523" y="-293" font-family="Helvetica,sans-Serif" font-size="10.00">src/tracker/process</text>
<text text-anchor="middle" x="569" y="-282" font-family="Helvetica,sans-Serif" font-size="10.00">_request.cpp</text>
</a>
</g>
</g>
<!-- Node2 -->
<g id="Node000002" class="node">
<title>Node2</title>
<g id="a_Node000002"><a xlink:href="process__request_8hpp.html" target="_top" xlink:title=" ">
<polygon fill="white" stroke="#666666" points="438.5,-239 321.5,-239 321.5,-220 438.5,-220 438.5,-239"/>
<text text-anchor="middle" x="380" y="-227" font-family="Helvetica,sans-Serif" font-size="10.00">process_request.hpp</text>
</a>
</g>
</g>
<!-- Node1&#45;&gt;Node2 -->
<g id="edge1_Node000001_Node000002" class="edge">
<title>Node1&#45;&gt;Node2</title>
<g id="a_edge1_Node000001_Node000002"><a xlink:title=" ">
<path fill="none" stroke="#63b8ff" d="M523.73,-274.99C491.25,-264.94 448.01,-251.55 417.47,-242.1"/>
<polygon fill="#63b8ff" stroke="#63b8ff" points="418.22,-238.67 407.63,-239.05 416.15,-245.35 418.22,-238.67"/>
</a>
</g>
</g>
<!-- Node15 -->
<g id="Node000015" class="node">
<title>Node15</title>
<g id="a_Node000015"><a xlink:href="groupdb_8hpp.html" target="_top" xlink:title=" ">
<polygon fill="white" stroke="#666666" points="726.5,-239 649.5,-239 649.5,-220 726.5,-220 726.5,-239"/>
<text text-anchor="middle" x="688" y="-227" font-family="Helvetica,sans-Serif" font-size="10.00">groupdb.hpp</text>
</a>
</g>
</g>
<!-- Node1&#45;&gt;Node15 -->
<g id="edge19_Node000001_Node000015" class="edge">
<title>Node1&#45;&gt;Node15</title>
<g id="a_edge19_Node000001_Node000015"><a xlink:title=" ">
<path fill="none" stroke="#63b8ff" d="M597.5,-274.99C616.91,-265.45 642.43,-252.9 661.42,-243.57"/>
<polygon fill="#63b8ff" stroke="#63b8ff" points="663,-246.69 670.43,-239.14 659.91,-240.41 663,-246.69"/>
</a>
</g>
</g>
<!-- Node22 -->
<g id="Node000022" class="node">
<title>Node22</title>
<g id="a_Node000022"><a xlink:title=" ">
<polygon fill="#e0e0e0" stroke="#999999" points="1083,-19 1027,-19 1027,0 1083,0 1083,-19"/>
<text text-anchor="middle" x="1055" y="-7" font-family="Helvetica,sans-Serif" font-size="10.00">sstream</text>
</a>
</g>
</g>
<!-- Node1&#45;&gt;Node22 -->
<g id="edge54_Node000001_Node000022" class="edge">
<title>Node1&#45;&gt;Node22</title>
<g id="a_edge54_Node000001_Node000022"><a xlink:title=" ">
<path fill="none" stroke="#63b8ff" d="M623.22,-284.58C772.24,-271.7 1177,-231.57 1177,-175.5 1177,-175.5 1177,-175.5 1177,-118.5 1177,-70.85 1124.18,-39.15 1088.05,-23.04"/>
<polygon fill="#63b8ff" stroke="#63b8ff" points="1089.38,-19.8 1078.81,-19.09 1086.63,-26.24 1089.38,-19.8"/>
</a>
</g>
</g>
<!-- Node24 -->
<g id="Node000024" class="node">
<title>Node24</title>
<g id="a_Node000024"><a xlink:href="userdb_8hpp.html" target="_top" xlink:title=" ">
<polygon fill="white" stroke="#666666" points="604.5,-184 533.5,-184 533.5,-165 604.5,-165 604.5,-184"/>
<text text-anchor="middle" x="569" y="-172" font-family="Helvetica,sans-Serif" font-size="10.00">userdb.hpp</text>
</a>
</g>
</g>
<!-- Node1&#45;&gt;Node24 -->
<g id="edge43_Node000001_Node000024" class="edge">
<title>Node1&#45;&gt;Node24</title>
<g id="a_edge43_Node000001_Node000024"><a xlink:title=" ">
<path fill="none" stroke="#63b8ff" d="M569,-274.63C569,-254.21 569,-216.81 569,-194.24"/>
<polygon fill="#63b8ff" stroke="#63b8ff" points="572.5,-194.23 569,-184.23 565.5,-194.23 572.5,-194.23"/>
</a>
</g>
</g>
<!-- Node25 -->
<g id="Node000025" class="node">
<title>Node25</title>
<g id="a_Node000025"><a xlink:href="transactionsrecord_8hpp.html" target="_top" xlink:title=" ">
<polygon fill="white" stroke="#666666" points="128,-239 0,-239 0,-220 128,-220 128,-239"/>
<text text-anchor="middle" x="64" y="-227" font-family="Helvetica,sans-Serif" font-size="10.00">transactionsrecord.hpp</text>
</a>
</g>
</g>
<!-- Node1&#45;&gt;Node25 -->
<g id="edge50_Node000001_Node000025" class="edge">
<title>Node1&#45;&gt;Node25</title>
<g id="a_edge50_Node000001_Node000025"><a xlink:title=" ">
<path fill="none" stroke="#63b8ff" d="M514.96,-282.74C424.21,-272.23 241.1,-251.02 138.31,-239.11"/>
<polygon fill="#63b8ff" stroke="#63b8ff" points="138.66,-235.62 128.32,-237.95 137.85,-242.58 138.66,-235.62"/>
</a>
</g>
</g>
<!-- Node3 -->
<g id="Node000003" class="node">
<title>Node3</title>
<g id="a_Node000003"><a xlink:title=" ">
<polygon fill="#e0e0e0" stroke="#999999" points="565,-74 507,-74 507,-55 565,-55 565,-74"/>
<text text-anchor="middle" x="536" y="-62" font-family="Helvetica,sans-Serif" font-size="10.00">memory</text>
</a>
</g>
</g>
<!-- Node2&#45;&gt;Node3 -->
<g id="edge2_Node000002_Node000003" class="edge">
<title>Node2&#45;&gt;Node3</title>
<g id="a_edge2_Node000002_Node000003"><a xlink:title=" ">
<path fill="none" stroke="#63b8ff" d="M388.39,-219.74C413.46,-193.53 488.13,-115.51 520.62,-81.57"/>
<polygon fill="#63b8ff" stroke="#63b8ff" points="523.19,-83.95 527.57,-74.31 518.13,-79.11 523.19,-83.95"/>
</a>
</g>
</g>
<!-- Node4 -->
<g id="Node000004" class="node">
<title>Node4</title>
<g id="a_Node000004"><a xlink:href="transaction_8hpp.html" target="_top" xlink:title=" ">
<polygon fill="white" stroke="#666666" points="207,-184 67,-184 67,-165 207,-165 207,-184"/>
<text text-anchor="middle" x="137" y="-172" font-family="Helvetica,sans-Serif" font-size="10.00">../models/transaction.hpp</text>
</a>
</g>
</g>
<!-- Node2&#45;&gt;Node4 -->
<g id="edge3_Node000002_Node000004" class="edge">
<title>Node2&#45;&gt;Node4</title>
<g id="a_edge3_Node000002_Node000004"><a xlink:title=" ">
<path fill="none" stroke="#63b8ff" d="M340.96,-219.98C298.92,-210.82 231.96,-196.21 186.32,-186.26"/>
<polygon fill="#63b8ff" stroke="#63b8ff" points="186.86,-182.79 176.35,-184.08 185.37,-189.63 186.86,-182.79"/>
</a>
</g>
</g>
<!-- Node10 -->
<g id="Node000010" class="node">
<title>Node10</title>
<g id="a_Node000010"><a xlink:href="tcp__socket_8hpp.html" target="_top" xlink:title=" ">
<polygon fill="white" stroke="#666666" points="334.5,-129 193.5,-129 193.5,-110 334.5,-110 334.5,-129"/>
<text text-anchor="middle" x="264" y="-117" font-family="Helvetica,sans-Serif" font-size="10.00">../network/tcp_socket.hpp</text>
</a>
</g>
</g>
<!-- Node2&#45;&gt;Node10 -->
<g id="edge18_Node000002_Node000010" class="edge">
<title>Node2&#45;&gt;Node10</title>
<g id="a_edge18_Node000002_Node000010"><a xlink:title=" ">
<path fill="none" stroke="#63b8ff" d="M370.51,-219.66C350.87,-201.38 305.55,-159.18 280.83,-136.17"/>
<polygon fill="#63b8ff" stroke="#63b8ff" points="283,-133.41 273.3,-129.16 278.23,-138.53 283,-133.41"/>
</a>
</g>
</g>
<!-- Node5 -->
<g id="Node000005" class="node">
<title>Node5</title>
<g id="a_Node000005"><a xlink:title=" ">
<polygon fill="#e0e0e0" stroke="#999999" points="717.5,-19 652.5,-19 652.5,0 717.5,0 717.5,-19"/>
<text text-anchor="middle" x="685" y="-7" font-family="Helvetica,sans-Serif" font-size="10.00">stdexcept</text>
</a>
</g>
</g>
<!-- Node4&#45;&gt;Node5 -->
<g id="edge4_Node000004_Node000005" class="edge">
<title>Node4&#45;&gt;Node5</title>
<g id="a_edge4_Node000004_Node000005"><a xlink:title=" ">
<path fill="none" stroke="#63b8ff" d="M99.85,-164.9C80.84,-158.41 59.35,-147.37 48,-129 27.69,-96.14 78.92,-61.38 91,-55 196.92,0.98 504.96,-33.38 641.72,-18.84"/>
<polygon fill="#63b8ff" stroke="#63b8ff" points="642.54,-22.27 652.06,-17.6 641.71,-15.32 642.54,-22.27"/>
</a>
</g>
</g>
<!-- Node6 -->
<g id="Node000006" class="node">
<title>Node6</title>
<g id="a_Node000006"><a xlink:title=" ">
<polygon fill="#e0e0e0" stroke="#999999" points="853,-19 809,-19 809,0 853,0 853,-19"/>
<text text-anchor="middle" x="831" y="-7" font-family="Helvetica,sans-Serif" font-size="10.00">string</text>
</a>
</g>
</g>
<!-- Node4&#45;&gt;Node6 -->
<g id="edge5_Node000004_Node000006" class="edge">
<title>Node4&#45;&gt;Node6</title>
<g id="a_edge5_Node000004_Node000006"><a xlink:title=" ">
<path fill="none" stroke="#63b8ff" d="M134.45,-164.93C127.39,-140.42 109.1,-70.82 124,-55 169.95,-6.22 659.16,-23.7 726,-19 750.39,-17.28 777.94,-15.04 798.7,-13.29"/>
<polygon fill="#63b8ff" stroke="#63b8ff" points="799.22,-16.76 808.89,-12.43 798.63,-9.79 799.22,-16.76"/>
</a>
</g>
</g>
<!-- Node7 -->
<g id="Node000007" class="node">
<title>Node7</title>
<g id="a_Node000007"><a xlink:title=" ">
<polygon fill="#e0e0e0" stroke="#999999" points="108.5,-129 57.5,-129 57.5,-110 108.5,-110 108.5,-129"/>
<text text-anchor="middle" x="83" y="-117" font-family="Helvetica,sans-Serif" font-size="10.00">variant</text>
</a>
</g>
</g>
<!-- Node4&#45;&gt;Node7 -->
<g id="edge6_Node000004_Node000007" class="edge">
<title>Node4&#45;&gt;Node7</title>
<g id="a_edge6_Node000004_Node000007"><a xlink:title=" ">
<path fill="none" stroke="#63b8ff" d="M128.08,-164.75C120.22,-157.03 108.57,-145.6 99.08,-136.28"/>
<polygon fill="#63b8ff" stroke="#63b8ff" points="101.34,-133.6 91.75,-129.09 96.44,-138.59 101.34,-133.6"/>
</a>
</g>
</g>
<!-- Node8 -->
<g id="Node000008" class="node">
<title>Node8</title>
<g id="a_Node000008"><a xlink:href="endpoint_8hpp.html" target="_top" xlink:title=" ">
<polygon fill="white" stroke="#666666" points="711,-74 583,-74 583,-55 711,-55 711,-74"/>
<text text-anchor="middle" x="647" y="-62" font-family="Helvetica,sans-Serif" font-size="10.00">../models/endpoint.hpp</text>
</a>
</g>
</g>
<!-- Node4&#45;&gt;Node8 -->
<g id="edge7_Node000004_Node000008" class="edge">
<title>Node4&#45;&gt;Node8</title>
<g id="a_edge7_Node000004_Node000008"><a xlink:title=" ">
<path fill="none" stroke="#63b8ff" d="M177.45,-164.94C269.69,-145.4 495.46,-97.59 596.58,-76.18"/>
<polygon fill="#63b8ff" stroke="#63b8ff" points="597.49,-79.56 606.55,-74.07 596.04,-72.71 597.49,-79.56"/>
</a>
</g>
</g>
<!-- Node4&#45;&gt;Node10 -->
<g id="edge11_Node000004_Node000010" class="edge">
<title>Node4&#45;&gt;Node10</title>
<g id="a_edge11_Node000004_Node000010"><a xlink:title=" ">
<path fill="none" stroke="#63b8ff" d="M157.4,-164.98C178.02,-156.38 210.11,-142.99 233.69,-133.15"/>
<polygon fill="#63b8ff" stroke="#63b8ff" points="235.34,-136.25 243.22,-129.17 232.65,-129.79 235.34,-136.25"/>
</a>
</g>
</g>
<!-- Node8&#45;&gt;Node5 -->
<g id="edge9_Node000008_Node000005" class="edge">
<title>Node8&#45;&gt;Node5</title>
<g id="a_edge9_Node000008_Node000005"><a xlink:title=" ">
<path fill="none" stroke="#63b8ff" d="M653.27,-54.75C658.59,-47.34 666.36,-36.5 672.88,-27.41"/>
<polygon fill="#63b8ff" stroke="#63b8ff" points="675.86,-29.26 678.84,-19.09 670.17,-25.18 675.86,-29.26"/>
</a>
</g>
</g>
<!-- Node8&#45;&gt;Node6 -->
<g id="edge10_Node000008_Node000006" class="edge">
<title>Node8&#45;&gt;Node6</title>
<g id="a_edge10_Node000008_Node000006"><a xlink:title=" ">
<path fill="none" stroke="#63b8ff" d="M676.56,-54.98C709.98,-45.36 764.21,-29.74 798.71,-19.8"/>
<polygon fill="#63b8ff" stroke="#63b8ff" points="800.1,-23.04 808.74,-16.91 798.17,-16.32 800.1,-23.04"/>
</a>
</g>
</g>
<!-- Node9 -->
<g id="Node000009" class="node">
<title>Node9</title>
<g id="a_Node000009"><a xlink:title=" ">
<polygon fill="#e0e0e0" stroke="#999999" points="634,-19 584,-19 584,0 634,0 634,-19"/>
<text text-anchor="middle" x="609" y="-7" font-family="Helvetica,sans-Serif" font-size="10.00">cstdint</text>
</a>
</g>
</g>
<!-- Node8&#45;&gt;Node9 -->
<g id="edge8_Node000008_Node000009" class="edge">
<title>Node8&#45;&gt;Node9</title>
<g id="a_edge8_Node000008_Node000009"><a xlink:title=" ">
<path fill="none" stroke="#63b8ff" d="M640.73,-54.75C635.41,-47.34 627.64,-36.5 621.12,-27.41"/>
<polygon fill="#63b8ff" stroke="#63b8ff" points="623.83,-25.18 615.16,-19.09 618.14,-29.26 623.83,-25.18"/>
</a>
</g>
</g>
<!-- Node10&#45;&gt;Node3 -->
<g id="edge12_Node000010_Node000003" class="edge">
<title>Node10&#45;&gt;Node3</title>
<g id="a_edge12_Node000010_Node000003"><a xlink:title=" ">
<path fill="none" stroke="#63b8ff" d="M307.7,-109.98C359.96,-99.8 446.66,-82.91 496.83,-73.13"/>
<polygon fill="#63b8ff" stroke="#63b8ff" points="497.51,-76.57 506.66,-71.22 496.17,-69.69 497.51,-76.57"/>
</a>
</g>
</g>
<!-- Node10&#45;&gt;Node6 -->
<g id="edge14_Node000010_Node000006" class="edge">
<title>Node10&#45;&gt;Node6</title>
<g id="a_edge14_Node000010_Node000006"><a xlink:title=" ">
<path fill="none" stroke="#63b8ff" d="M290.75,-110C333.93,-96.56 421.87,-70.35 498,-55 607.22,-32.98 738.86,-19.05 798.65,-13.39"/>
<polygon fill="#63b8ff" stroke="#63b8ff" points="798.99,-16.87 808.62,-12.46 798.34,-9.9 798.99,-16.87"/>
</a>
</g>
</g>
<!-- Node11 -->
<g id="Node000011" class="node">
<title>Node11</title>
<g id="a_Node000011"><a xlink:title=" ">
<polygon fill="#e0e0e0" stroke="#999999" points="279,-74 207,-74 207,-55 279,-55 279,-74"/>
<text text-anchor="middle" x="243" y="-62" font-family="Helvetica,sans-Serif" font-size="10.00">netinet/in.h</text>
</a>
</g>
</g>
<!-- Node10&#45;&gt;Node11 -->
<g id="edge13_Node000010_Node000011" class="edge">
<title>Node10&#45;&gt;Node11</title>
<g id="a_edge13_Node000010_Node000011"><a xlink:title=" ">
<path fill="none" stroke="#63b8ff" d="M260.53,-109.75C257.72,-102.65 253.66,-92.4 250.15,-83.56"/>
<polygon fill="#63b8ff" stroke="#63b8ff" points="253.34,-82.1 246.4,-74.09 246.83,-84.68 253.34,-82.1"/>
</a>
</g>
</g>
<!-- Node12 -->
<g id="Node000012" class="node">
<title>Node12</title>
<g id="a_Node000012"><a xlink:title=" ">
<polygon fill="#e0e0e0" stroke="#999999" points="374.5,-74 297.5,-74 297.5,-55 374.5,-55 374.5,-74"/>
<text text-anchor="middle" x="336" y="-62" font-family="Helvetica,sans-Serif" font-size="10.00">sys/socket.h</text>
</a>
</g>
</g>
<!-- Node10&#45;&gt;Node12 -->
<g id="edge15_Node000010_Node000012" class="edge">
<title>Node10&#45;&gt;Node12</title>
<g id="a_edge15_Node000010_Node000012"><a xlink:title=" ">
<path fill="none" stroke="#63b8ff" d="M275.57,-109.98C286.42,-102 302.88,-89.88 315.88,-80.31"/>
<polygon fill="#63b8ff" stroke="#63b8ff" points="318.24,-82.92 324.22,-74.17 314.09,-77.28 318.24,-82.92"/>
</a>
</g>
</g>
<!-- Node13 -->
<g id="Node000013" class="node">
<title>Node13</title>
<g id="a_Node000013"><a xlink:title=" ">
<polygon fill="#e0e0e0" stroke="#999999" points="189,-74 133,-74 133,-55 189,-55 189,-74"/>
<text text-anchor="middle" x="161" y="-62" font-family="Helvetica,sans-Serif" font-size="10.00">unistd.h</text>
</a>
</g>
</g>
<!-- Node10&#45;&gt;Node13 -->
<g id="edge16_Node000010_Node000013" class="edge">
<title>Node10&#45;&gt;Node13</title>
<g id="a_edge16_Node000010_Node000013"><a xlink:title=" ">
<path fill="none" stroke="#63b8ff" d="M247.45,-109.98C231.11,-101.57 205.87,-88.59 186.87,-78.81"/>
<polygon fill="#63b8ff" stroke="#63b8ff" points="188.34,-75.63 177.85,-74.17 185.14,-81.86 188.34,-75.63"/>
</a>
</g>
</g>
<!-- Node14 -->
<g id="Node000014" class="node">
<title>Node14</title>
<g id="a_Node000014"><a xlink:title=" ">
<polygon fill="#e0e0e0" stroke="#999999" points="464.5,-19 417.5,-19 417.5,0 464.5,0 464.5,-19"/>
<text text-anchor="middle" x="441" y="-7" font-family="Helvetica,sans-Serif" font-size="10.00">vector</text>
</a>
</g>
</g>
<!-- Node10&#45;&gt;Node14 -->
<g id="edge17_Node000010_Node000014" class="edge">
<title>Node10&#45;&gt;Node14</title>
<g id="a_edge17_Node000010_Node000014"><a xlink:title=" ">
<path fill="none" stroke="#63b8ff" d="M195.95,-109.96C148.58,-101.26 98.17,-84.71 124,-55 160.4,-13.13 332.88,-9.5 407.01,-9.93"/>
<polygon fill="#63b8ff" stroke="#63b8ff" points="407.17,-13.44 417.2,-10.02 407.23,-6.44 407.17,-13.44"/>
</a>
</g>
</g>
<!-- Node15&#45;&gt;Node3 -->
<g id="edge20_Node000015_Node000003" class="edge">
<title>Node15&#45;&gt;Node3</title>
<g id="a_edge20_Node000015_Node000003"><a xlink:title=" ">
<path fill="none" stroke="#63b8ff" d="M697.82,-219.97C720.41,-199.33 771.97,-145.79 743,-110 696.67,-52.76 652.78,-87.26 575.18,-74"/>
<polygon fill="#63b8ff" stroke="#63b8ff" points="575.52,-70.5 565.04,-72.03 574.19,-77.37 575.52,-70.5"/>
</a>
</g>
</g>
<!-- Node15&#45;&gt;Node6 -->
<g id="edge21_Node000015_Node000006" class="edge">
<title>Node15&#45;&gt;Node6</title>
<g id="a_edge21_Node000015_Node000006"><a xlink:title=" ">
<path fill="none" stroke="#63b8ff" d="M726.75,-225.79C800.54,-220.18 958.31,-205.98 1008,-184 1066.29,-158.22 1086.04,-136.19 1100,-74 1101.85,-65.76 1105.46,-61.44 1100,-55 1069.98,-19.61 928.13,-12.33 863.38,-10.86"/>
<polygon fill="#63b8ff" stroke="#63b8ff" points="863.38,-7.35 853.31,-10.66 863.24,-14.35 863.38,-7.35"/>
</a>
</g>
</g>
<!-- Node15&#45;&gt;Node14 -->
<g id="edge24_Node000015_Node000014" class="edge">
<title>Node15&#45;&gt;Node14</title>
<g id="a_edge24_Node000015_Node000014"><a xlink:title=" ">
<path fill="none" stroke="#63b8ff" d="M649.35,-226.99C613.2,-223.67 559.58,-213.65 524,-184 474.47,-142.72 452.44,-65 444.6,-29.3"/>
<polygon fill="#63b8ff" stroke="#63b8ff" points="447.98,-28.37 442.54,-19.28 441.13,-29.78 447.98,-28.37"/>
</a>
</g>
</g>
<!-- Node16 -->
<g id="Node000016" class="node">
<title>Node16</title>
<g id="a_Node000016"><a xlink:title=" ">
<polygon fill="#e0e0e0" stroke="#999999" points="623,-129 591,-129 591,-110 623,-110 623,-129"/>
<text text-anchor="middle" x="607" y="-117" font-family="Helvetica,sans-Serif" font-size="10.00">set</text>
</a>
</g>
</g>
<!-- Node15&#45;&gt;Node16 -->
<g id="edge22_Node000015_Node000016" class="edge">
<title>Node15&#45;&gt;Node16</title>
<g id="a_edge22_Node000015_Node000016"><a xlink:title=" ">
<path fill="none" stroke="#63b8ff" d="M681.37,-219.66C667.9,-201.69 637.11,-160.64 619.66,-137.38"/>
<polygon fill="#63b8ff" stroke="#63b8ff" points="622.29,-135.06 613.49,-129.16 616.69,-139.26 622.29,-135.06"/>
</a>
</g>
</g>
<!-- Node17 -->
<g id="Node000017" class="node">
<title>Node17</title>
<g id="a_Node000017"><a xlink:title=" ">
<polygon fill="#e0e0e0" stroke="#999999" points="734.5,-129 641.5,-129 641.5,-110 734.5,-110 734.5,-129"/>
<text text-anchor="middle" x="688" y="-117" font-family="Helvetica,sans-Serif" font-size="10.00">unordered_map</text>
</a>
</g>
</g>
<!-- Node15&#45;&gt;Node17 -->
<g id="edge23_Node000015_Node000017" class="edge">
<title>Node15&#45;&gt;Node17</title>
<g id="a_edge23_Node000015_Node000017"><a xlink:title=" ">
<path fill="none" stroke="#63b8ff" d="M688,-219.66C688,-202.17 688,-162.8 688,-139.27"/>
<polygon fill="#63b8ff" stroke="#63b8ff" points="691.5,-139.16 688,-129.16 684.5,-139.16 691.5,-139.16"/>
</a>
</g>
</g>
<!-- Node18 -->
<g id="Node000018" class="node">
<title>Node18</title>
<g id="a_Node000018"><a xlink:href="group_8hpp.html" target="_top" xlink:title=" ">
<polygon fill="white" stroke="#666666" points="998.5,-184 885.5,-184 885.5,-165 998.5,-165 998.5,-184"/>
<text text-anchor="middle" x="942" y="-172" font-family="Helvetica,sans-Serif" font-size="10.00">../models/group.hpp</text>
</a>
</g>
</g>
<!-- Node15&#45;&gt;Node18 -->
<g id="edge25_Node000015_Node000018" class="edge">
<title>Node15&#45;&gt;Node18</title>
<g id="a_edge25_Node000015_Node000018"><a xlink:title=" ">
<path fill="none" stroke="#63b8ff" d="M726.58,-220.45C770.5,-211.29 842.43,-196.28 890.97,-186.15"/>
<polygon fill="#63b8ff" stroke="#63b8ff" points="891.88,-189.53 900.95,-184.07 890.45,-182.68 891.88,-189.53"/>
</a>
</g>
</g>
<!-- Node18&#45;&gt;Node3 -->
<g id="edge26_Node000018_Node000003" class="edge">
<title>Node18&#45;&gt;Node3</title>
<g id="a_edge26_Node000018_Node000003"><a xlink:title=" ">
<path fill="none" stroke="#63b8ff" d="M917.05,-164.94C892.26,-156.32 853.25,-142.39 820,-129 800.62,-121.19 796.99,-116.09 777,-110 692.35,-84.2 665.66,-91.45 574.9,-74.07"/>
<polygon fill="#63b8ff" stroke="#63b8ff" points="575.5,-70.62 565.02,-72.13 574.16,-77.49 575.5,-70.62"/>
</a>
</g>
</g>
<!-- Node18&#45;&gt;Node6 -->
<g id="edge27_Node000018_Node000006" class="edge">
<title>Node18&#45;&gt;Node6</title>
<g id="a_edge27_Node000018_Node000006"><a xlink:title=" ">
<path fill="none" stroke="#63b8ff" d="M968.07,-164.91C1018.73,-146.88 1122.1,-102.83 1082,-55 1054.44,-22.13 924.68,-13.52 863.32,-11.28"/>
<polygon fill="#63b8ff" stroke="#63b8ff" points="863.15,-7.77 853.04,-10.94 862.92,-14.77 863.15,-7.77"/>
</a>
</g>
</g>
<!-- Node18&#45;&gt;Node8 -->
<g id="edge29_Node000018_Node000008" class="edge">
<title>Node18&#45;&gt;Node8</title>
<g id="a_edge29_Node000018_Node000008"><a xlink:title=" ">
<path fill="none" stroke="#63b8ff" d="M938.37,-164.87C932.01,-150.88 917.45,-123.46 896,-110 867.5,-92.12 783.92,-79.7 721.4,-72.61"/>
<polygon fill="#63b8ff" stroke="#63b8ff" points="721.49,-69.1 711.17,-71.48 720.72,-76.06 721.49,-69.1"/>
</a>
</g>
</g>
<!-- Node19 -->
<g id="Node000019" class="node">
<title>Node19</title>
<g id="a_Node000019"><a xlink:title=" ">
<polygon fill="#e0e0e0" stroke="#999999" points="1073,-74 987,-74 987,-55 1073,-55 1073,-74"/>
<text text-anchor="middle" x="1030" y="-62" font-family="Helvetica,sans-Serif" font-size="10.00">unordered_set</text>
</a>
</g>
</g>
<!-- Node18&#45;&gt;Node19 -->
<g id="edge28_Node000018_Node000019" class="edge">
<title>Node18&#45;&gt;Node19</title>
<g id="a_edge28_Node000018_Node000019"><a xlink:title=" ">
<path fill="none" stroke="#63b8ff" d="M969.84,-164.99C987.38,-158.13 1008.92,-146.68 1021,-129 1029.93,-115.93 1031.72,-97.79 1031.54,-84.24"/>
<polygon fill="#63b8ff" stroke="#63b8ff" points="1035.03,-83.97 1031.04,-74.16 1028.04,-84.32 1035.03,-83.97"/>
</a>
</g>
</g>
<!-- Node20 -->
<g id="Node000020" class="node">
<title>Node20</title>
<g id="a_Node000020"><a xlink:href="file_8hpp.html" target="_top" xlink:title=" ">
<polygon fill="white" stroke="#666666" points="996.5,-129 943.5,-129 943.5,-110 996.5,-110 996.5,-129"/>
<text text-anchor="middle" x="970" y="-117" font-family="Helvetica,sans-Serif" font-size="10.00">file.hpp</text>
</a>
</g>
</g>
<!-- Node18&#45;&gt;Node20 -->
<g id="edge30_Node000018_Node000020" class="edge">
<title>Node18&#45;&gt;Node20</title>
<g id="a_edge30_Node000018_Node000020"><a xlink:title=" ">
<path fill="none" stroke="#63b8ff" d="M946.62,-164.75C950.46,-157.49 956.02,-146.95 960.76,-137.98"/>
<polygon fill="#63b8ff" stroke="#63b8ff" points="963.89,-139.57 965.46,-129.09 957.7,-136.3 963.89,-139.57"/>
</a>
</g>
</g>
<!-- Node21 -->
<g id="Node000021" class="node">
<title>Node21</title>
<g id="a_Node000021"><a xlink:href="fileinfo_8hpp.html" target="_top" xlink:title=" ">
<polygon fill="white" stroke="#666666" points="968.5,-74 897.5,-74 897.5,-55 968.5,-55 968.5,-74"/>
<text text-anchor="middle" x="933" y="-62" font-family="Helvetica,sans-Serif" font-size="10.00">fileinfo.hpp</text>
</a>
</g>
</g>
<!-- Node18&#45;&gt;Node21 -->
<g id="edge40_Node000018_Node000021" class="edge">
<title>Node18&#45;&gt;Node21</title>
<g id="a_edge40_Node000018_Node000021"><a xlink:title=" ">
<path fill="none" stroke="#63b8ff" d="M962.82,-164.87C986.15,-153.83 1019.11,-133.34 1006,-110 997.89,-95.56 982.99,-85.26 968.75,-78.22"/>
<polygon fill="#63b8ff" stroke="#63b8ff" points="970.12,-75 959.57,-74.06 967.23,-81.38 970.12,-75"/>
</a>
</g>
</g>
<!-- Node23 -->
<g id="Node000023" class="node">
<title>Node23</title>
<g id="a_Node000023"><a xlink:href="user_8hpp.html" target="_top" xlink:title=" ">
<polygon fill="white" stroke="#666666" points="887,-129 829,-129 829,-110 887,-110 887,-129"/>
<text text-anchor="middle" x="858" y="-117" font-family="Helvetica,sans-Serif" font-size="10.00">user.hpp</text>
</a>
</g>
</g>
<!-- Node18&#45;&gt;Node23 -->
<g id="edge41_Node000018_Node000023" class="edge">
<title>Node18&#45;&gt;Node23</title>
<g id="a_edge41_Node000018_Node000023"><a xlink:title=" ">
<path fill="none" stroke="#63b8ff" d="M928.5,-164.98C915.6,-156.84 895.9,-144.41 880.6,-134.76"/>
<polygon fill="#63b8ff" stroke="#63b8ff" points="882.07,-131.55 871.74,-129.17 878.33,-137.47 882.07,-131.55"/>
</a>
</g>
</g>
<!-- Node20&#45;&gt;Node3 -->
<g id="edge31_Node000020_Node000003" class="edge">
<title>Node20&#45;&gt;Node3</title>
<g id="a_edge31_Node000020_Node000003"><a xlink:title=" ">
<path fill="none" stroke="#63b8ff" d="M943.29,-115.41C929.22,-113.79 911.68,-111.78 896,-110 756.13,-94.15 717.74,-97.58 575.38,-74.07"/>
<polygon fill="#63b8ff" stroke="#63b8ff" points="575.84,-70.6 565.4,-72.41 574.68,-77.5 575.84,-70.6"/>
</a>
</g>
</g>
<!-- Node20&#45;&gt;Node6 -->
<g id="edge32_Node000020_Node000006" class="edge">
<title>Node20&#45;&gt;Node6</title>
<g id="a_edge32_Node000020_Node000006"><a xlink:title=" ">
<path fill="none" stroke="#63b8ff" d="M949.96,-109.99C932.61,-102.08 907.32,-89.25 888,-74 870.64,-60.3 854.14,-40.98 843.4,-27.26"/>
<polygon fill="#63b8ff" stroke="#63b8ff" points="846.08,-24.99 837.23,-19.16 840.51,-29.24 846.08,-24.99"/>
</a>
</g>
</g>
<!-- Node20&#45;&gt;Node8 -->
<g id="edge34_Node000020_Node000008" class="edge">
<title>Node20&#45;&gt;Node8</title>
<g id="a_edge34_Node000020_Node000008"><a xlink:title=" ">
<path fill="none" stroke="#63b8ff" d="M943.13,-112.74C938.43,-111.78 933.58,-110.84 929,-110 856.67,-96.8 773.47,-83.96 716.29,-75.49"/>
<polygon fill="#63b8ff" stroke="#63b8ff" points="716.69,-72.01 706.28,-74.01 715.67,-78.93 716.69,-72.01"/>
</a>
</g>
</g>
<!-- Node20&#45;&gt;Node19 -->
<g id="edge33_Node000020_Node000019" class="edge">
<title>Node20&#45;&gt;Node19</title>
<g id="a_edge33_Node000020_Node000019"><a xlink:title=" ">
<path fill="none" stroke="#63b8ff" d="M979.64,-109.98C988.51,-102.15 1001.87,-90.34 1012.61,-80.86"/>
<polygon fill="#63b8ff" stroke="#63b8ff" points="1015.01,-83.41 1020.18,-74.17 1010.37,-78.17 1015.01,-83.41"/>
</a>
</g>
</g>
<!-- Node20&#45;&gt;Node21 -->
<g id="edge35_Node000020_Node000021" class="edge">
<title>Node20&#45;&gt;Node21</title>
<g id="a_edge35_Node000020_Node000021"><a xlink:title=" ">
<path fill="none" stroke="#63b8ff" d="M963.89,-109.75C958.72,-102.34 951.15,-91.5 944.81,-82.41"/>
<polygon fill="#63b8ff" stroke="#63b8ff" points="947.59,-80.29 939,-74.09 941.85,-84.29 947.59,-80.29"/>
</a>
</g>
</g>
<!-- Node21&#45;&gt;Node5 -->
<g id="edge37_Node000021_Node000005" class="edge">
<title>Node21&#45;&gt;Node5</title>
<g id="a_edge37_Node000021_Node000005"><a xlink:title=" ">
<path fill="none" stroke="#63b8ff" d="M897.47,-55.91C852.67,-46.33 775.74,-29.89 727.77,-19.64"/>
<polygon fill="#63b8ff" stroke="#63b8ff" points="728.21,-16.16 717.7,-17.49 726.75,-23 728.21,-16.16"/>
</a>
</g>
</g>
<!-- Node21&#45;&gt;Node6 -->
<g id="edge38_Node000021_Node000006" class="edge">
<title>Node21&#45;&gt;Node6</title>
<g id="a_edge38_Node000021_Node000006"><a xlink:title=" ">
<path fill="none" stroke="#63b8ff" d="M916.61,-54.98C900.43,-46.57 875.43,-33.59 856.62,-23.81"/>
<polygon fill="#63b8ff" stroke="#63b8ff" points="858.17,-20.68 847.69,-19.17 854.95,-26.89 858.17,-20.68"/>
</a>
</g>
</g>
<!-- Node21&#45;&gt;Node14 -->
<g id="edge39_Node000021_Node000014" class="edge">
<title>Node21&#45;&gt;Node14</title>
<g id="a_edge39_Node000021_Node000014"><a xlink:title=" ">
<path fill="none" stroke="#63b8ff" d="M897.22,-59.65C805.74,-49.79 564.26,-23.78 474.89,-14.15"/>
<polygon fill="#63b8ff" stroke="#63b8ff" points="475.08,-10.65 464.76,-13.06 474.33,-17.61 475.08,-10.65"/>
</a>
</g>
</g>
<!-- Node21&#45;&gt;Node22 -->
<g id="edge36_Node000021_Node000022" class="edge">
<title>Node21&#45;&gt;Node22</title>
<g id="a_edge36_Node000021_Node000022"><a xlink:title=" ">
<path fill="none" stroke="#63b8ff" d="M952.6,-54.98C972.32,-46.42 1002.95,-33.11 1025.58,-23.28"/>
<polygon fill="#63b8ff" stroke="#63b8ff" points="1027.26,-26.37 1035.04,-19.17 1024.48,-19.94 1027.26,-26.37"/>
</a>
</g>
</g>
<!-- Node23&#45;&gt;Node6 -->
<g id="edge42_Node000023_Node000006" class="edge">
<title>Node23&#45;&gt;Node6</title>
<g id="a_edge42_Node000023_Node000006"><a xlink:title=" ">
<path fill="none" stroke="#63b8ff" d="M855.79,-109.66C851.4,-92.09 841.49,-52.45 835.61,-28.95"/>
<polygon fill="#63b8ff" stroke="#63b8ff" points="838.99,-28.01 833.16,-19.16 832.19,-29.71 838.99,-28.01"/>
</a>
</g>
</g>
<!-- Node24&#45;&gt;Node3 -->
<g id="edge44_Node000024_Node000003" class="edge">
<title>Node24&#45;&gt;Node3</title>
<g id="a_edge44_Node000024_Node000003"><a xlink:title=" ">
<path fill="none" stroke="#63b8ff" d="M564.43,-164.86C559.93,-156.06 553.16,-141.9 549,-129 544.24,-114.26 540.84,-97.01 538.72,-84.21"/>
<polygon fill="#63b8ff" stroke="#63b8ff" points="542.17,-83.63 537.17,-74.28 535.25,-84.7 542.17,-83.63"/>
</a>
</g>
</g>
<!-- Node24&#45;&gt;Node6 -->
<g id="edge45_Node000024_Node000006" class="edge">
<title>Node24&#45;&gt;Node6</title>
<g id="a_edge45_Node000024_Node000006"><a xlink:title=" ">
<path fill="none" stroke="#63b8ff" d="M568.13,-164.82C567.27,-151.26 567.75,-125.03 582,-110 625.61,-64 661.31,-97.95 720,-74 753.1,-60.5 788.47,-38.86 810.16,-24.66"/>
<polygon fill="#63b8ff" stroke="#63b8ff" points="812.18,-27.53 818.57,-19.08 808.31,-21.69 812.18,-27.53"/>
</a>
</g>
</g>
<!-- Node24&#45;&gt;Node14 -->
<g id="edge48_Node000024_Node000014" class="edge">
<title>Node24&#45;&gt;Node14</title>
<g id="a_edge48_Node000024_Node000014"><a xlink:title=" ">
<path fill="none" stroke="#63b8ff" d="M562.12,-164.74C541.72,-138.76 481.31,-61.83 454.3,-27.44"/>
<polygon fill="#63b8ff" stroke="#63b8ff" points="456.84,-25.01 447.92,-19.31 451.34,-29.33 456.84,-25.01"/>
</a>
</g>
</g>
<!-- Node24&#45;&gt;Node16 -->
<g id="edge46_Node000024_Node000016" class="edge">
<title>Node24&#45;&gt;Node16</title>
<g id="a_edge46_Node000024_Node000016"><a xlink:title=" ">
<path fill="none" stroke="#63b8ff" d="M575.27,-164.75C580.59,-157.34 588.36,-146.5 594.88,-137.41"/>
<polygon fill="#63b8ff" stroke="#63b8ff" points="597.86,-139.26 600.84,-129.09 592.17,-135.18 597.86,-139.26"/>
</a>
</g>
</g>
<!-- Node24&#45;&gt;Node17 -->
<g id="edge47_Node000024_Node000017" class="edge">
<title>Node24&#45;&gt;Node17</title>
<g id="a_edge47_Node000024_Node000017"><a xlink:title=" ">
<path fill="none" stroke="#63b8ff" d="M588.12,-164.98C607.35,-156.42 637.23,-143.11 659.31,-133.28"/>
<polygon fill="#63b8ff" stroke="#63b8ff" points="660.82,-136.44 668.53,-129.17 657.97,-130.04 660.82,-136.44"/>
</a>
</g>
</g>
<!-- Node24&#45;&gt;Node23 -->
<g id="edge49_Node000024_Node000023" class="edge">
<title>Node24&#45;&gt;Node23</title>
<g id="a_edge49_Node000024_Node000023"><a xlink:title=" ">
<path fill="none" stroke="#63b8ff" d="M604.73,-166.95C659.18,-156.96 762.54,-138.01 818.92,-127.67"/>
<polygon fill="#63b8ff" stroke="#63b8ff" points="819.68,-131.09 828.88,-125.84 818.42,-124.2 819.68,-131.09"/>
</a>
</g>
</g>
<!-- Node25&#45;&gt;Node3 -->
<g id="edge51_Node000025_Node000003" class="edge">
<title>Node25&#45;&gt;Node3</title>
<g id="a_edge51_Node000025_Node000003"><a xlink:title=" ">
<path fill="none" stroke="#63b8ff" d="M58.75,-219.69C46.56,-197.95 19.45,-141.28 48,-110 63.09,-93.47 383.19,-74.04 496.6,-67.65"/>
<polygon fill="#63b8ff" stroke="#63b8ff" points="497.12,-71.13 506.91,-67.08 496.73,-64.14 497.12,-71.13"/>
</a>
</g>
</g>
<!-- Node25&#45;&gt;Node4 -->
<g id="edge53_Node000025_Node000004" class="edge">
<title>Node25&#45;&gt;Node4</title>
<g id="a_edge53_Node000025_Node000004"><a xlink:title=" ">
<path fill="none" stroke="#63b8ff" d="M75.73,-219.98C86.73,-212 103.42,-199.88 116.6,-190.31"/>
<polygon fill="#63b8ff" stroke="#63b8ff" points="119.02,-192.88 125.06,-184.17 114.91,-187.21 119.02,-192.88"/>
</a>
</g>
</g>
<!-- Node25&#45;&gt;Node14 -->
<g id="edge52_Node000025_Node000014" class="edge">
<title>Node25&#45;&gt;Node14</title>
<g id="a_edge52_Node000025_Node000014"><a xlink:title=" ">
<path fill="none" stroke="#63b8ff" d="M55.79,-219.8C48.46,-211.38 38.25,-197.9 34,-184 16.85,-127.89 13.86,-88.53 62,-55 117.47,-16.37 325.31,-11.05 407.37,-10.48"/>
<polygon fill="#63b8ff" stroke="#63b8ff" points="407.43,-13.98 417.41,-10.43 407.4,-6.98 407.43,-13.98"/>
</a>
</g>
</g>
</g>
</svg>
