<?xml version="1.0" encoding="UTF-8" standalone="no"?>
<!DOCTYPE svg PUBLIC "-//W3C//DTD SVG 1.1//EN"
 "http://www.w3.org/Graphics/SVG/1.1/DTD/svg11.dtd">
<!-- Generated by graphviz version 2.43.0 (0)
 -->
<!-- Title: src/client/process_input.cpp Pages: 1 -->
<svg width="1657pt" height="368pt"
 viewBox="0.00 0.00 1657.00 368.00" xmlns="http://www.w3.org/2000/svg" xmlns:xlink="http://www.w3.org/1999/xlink">
<g id="graph0" class="graph" transform="scale(1 1) rotate(0) translate(4 364)">
<title>src/client/process_input.cpp</title>
<!-- Node1 -->
<g id="Node000001" class="node">
<title>Node1</title>
<g id="a_Node000001"><a xlink:title=" ">
<polygon fill="#999999" stroke="#666666" points="539.5,-360 438.5,-360 438.5,-330 539.5,-330 539.5,-360"/>
<text text-anchor="start" x="446.5" y="-348" font-family="Helvetica,sans-Serif" font-size="10.00">src/client/process</text>
<text text-anchor="middle" x="489" y="-337" font-family="Helvetica,sans-Serif" font-size="10.00">_input.cpp</text>
</a>
</g>
</g>
<!-- Node2 -->
<g id="Node000002" class="node">
<title>Node2</title>
<g id="a_Node000002"><a xlink:title=" ">
<polygon fill="#e0e0e0" stroke="#999999" points="50,-294 0,-294 0,-275 50,-275 50,-294"/>
<text text-anchor="middle" x="25" y="-282" font-family="Helvetica,sans-Serif" font-size="10.00">cstring</text>
</a>
</g>
</g>
<!-- Node1&#45;&gt;Node2 -->
<g id="edge1_Node000001_Node000002" class="edge">
<title>Node1&#45;&gt;Node2</title>
<g id="a_edge1_Node000001_Node000002"><a xlink:title=" ">
<path fill="none" stroke="#63b8ff" d="M438.38,-340.25C359.55,-333.94 202.62,-319.5 60.39,-294.03"/>
<polygon fill="#63b8ff" stroke="#63b8ff" points="60.64,-290.52 50.17,-292.18 59.39,-297.41 60.64,-290.52"/>
</a>
</g>
</g>
<!-- Node3 -->
<g id="Node000003" class="node">
<title>Node3</title>
<g id="a_Node000003"><a xlink:title=" ">
<polygon fill="#e0e0e0" stroke="#999999" points="115.5,-294 68.5,-294 68.5,-275 115.5,-275 115.5,-294"/>
<text text-anchor="middle" x="92" y="-282" font-family="Helvetica,sans-Serif" font-size="10.00">fcntl.h</text>
</a>
</g>
</g>
<!-- Node1&#45;&gt;Node3 -->
<g id="edge2_Node000001_Node000003" class="edge">
<title>Node1&#45;&gt;Node3</title>
<g id="a_edge2_Node000001_Node000003"><a xlink:title=" ">
<path fill="none" stroke="#63b8ff" d="M438.26,-338.26C368.53,-330.06 239.29,-313.8 130,-294 128.54,-293.74 127.06,-293.46 125.56,-293.16"/>
<polygon fill="#63b8ff" stroke="#63b8ff" points="126.16,-289.71 115.66,-291.11 124.74,-296.57 126.16,-289.71"/>
</a>
</g>
</g>
<!-- Node4 -->
<g id="Node000004" class="node">
<title>Node4</title>
<g id="a_Node000004"><a xlink:title=" ">
<polygon fill="#e0e0e0" stroke="#999999" points="779,-74 721,-74 721,-55 779,-55 779,-74"/>
<text text-anchor="middle" x="750" y="-62" font-family="Helvetica,sans-Serif" font-size="10.00">memory</text>
</a>
</g>
</g>
<!-- Node1&#45;&gt;Node4 -->
<g id="edge3_Node000001_Node000004" class="edge">
<title>Node1&#45;&gt;Node4</title>
<g id="a_edge3_Node000001_Node000004"><a xlink:title=" ">
<path fill="none" stroke="#63b8ff" d="M490.46,-329.81C492.5,-315.13 497.26,-292.02 508,-275 566.23,-182.73 677.5,-108.76 726.19,-79.3"/>
<polygon fill="#63b8ff" stroke="#63b8ff" points="728,-82.29 734.79,-74.16 724.41,-76.28 728,-82.29"/>
</a>
</g>
</g>
<!-- Node5 -->
<g id="Node000005" class="node">
<title>Node5</title>
<g id="a_Node000005"><a xlink:title=" ">
<polygon fill="#e0e0e0" stroke="#999999" points="1649,-294 1589,-294 1589,-275 1649,-275 1649,-294"/>
<text text-anchor="middle" x="1619" y="-282" font-family="Helvetica,sans-Serif" font-size="10.00">iostream</text>
</a>
</g>
</g>
<!-- Node1&#45;&gt;Node5 -->
<g id="edge4_Node000001_Node000005" class="edge">
<title>Node1&#45;&gt;Node5</title>
<g id="a_edge4_Node000001_Node000005"><a xlink:title=" ">
<path fill="none" stroke="#63b8ff" d="M539.55,-344.27C694.79,-344.53 1178.14,-341.22 1575,-294 1576.26,-293.85 1577.54,-293.68 1578.83,-293.51"/>
<polygon fill="#63b8ff" stroke="#63b8ff" points="1579.46,-296.95 1588.79,-291.93 1578.37,-290.04 1579.46,-296.95"/>
</a>
</g>
</g>
<!-- Node6 -->
<g id="Node000006" class="node">
<title>Node6</title>
<g id="a_Node000006"><a xlink:title=" ">
<polygon fill="#e0e0e0" stroke="#999999" points="1376,-19 1320,-19 1320,0 1376,0 1376,-19"/>
<text text-anchor="middle" x="1348" y="-7" font-family="Helvetica,sans-Serif" font-size="10.00">sstream</text>
</a>
</g>
</g>
<!-- Node1&#45;&gt;Node6 -->
<g id="edge5_Node000001_Node000006" class="edge">
<title>Node1&#45;&gt;Node6</title>
<g id="a_edge5_Node000001_Node000006"><a xlink:title=" ">
<path fill="none" stroke="#63b8ff" d="M539.56,-344.13C710.58,-344.15 1266.32,-340.52 1438,-294 1497.38,-277.91 1561,-292.02 1561,-230.5 1561,-230.5 1561,-230.5 1561,-118.5 1561,-79.72 1447.24,-39.94 1386,-21.33"/>
<polygon fill="#63b8ff" stroke="#63b8ff" points="1386.87,-17.94 1376.28,-18.43 1384.86,-24.65 1386.87,-17.94"/>
</a>
</g>
</g>
<!-- Node7 -->
<g id="Node000007" class="node">
<title>Node7</title>
<g id="a_Node000007"><a xlink:title=" ">
<polygon fill="#e0e0e0" stroke="#999999" points="304,-129 248,-129 248,-110 304,-110 304,-129"/>
<text text-anchor="middle" x="276" y="-117" font-family="Helvetica,sans-Serif" font-size="10.00">unistd.h</text>
</a>
</g>
</g>
<!-- Node1&#45;&gt;Node7 -->
<g id="edge6_Node000001_Node000007" class="edge">
<title>Node1&#45;&gt;Node7</title>
<g id="a_edge6_Node000001_Node000007"><a xlink:title=" ">
<path fill="none" stroke="#63b8ff" d="M475.35,-329.68C437.48,-289.94 331.23,-178.46 291.37,-136.63"/>
<polygon fill="#63b8ff" stroke="#63b8ff" points="293.75,-134.06 284.32,-129.23 288.69,-138.89 293.75,-134.06"/>
</a>
</g>
</g>
<!-- Node8 -->
<g id="Node000008" class="node">
<title>Node8</title>
<g id="a_Node000008"><a xlink:title=" ">
<polygon fill="#e0e0e0" stroke="#999999" points="205.5,-19 158.5,-19 158.5,0 205.5,0 205.5,-19"/>
<text text-anchor="middle" x="182" y="-7" font-family="Helvetica,sans-Serif" font-size="10.00">vector</text>
</a>
</g>
</g>
<!-- Node1&#45;&gt;Node8 -->
<g id="edge7_Node000001_Node000008" class="edge">
<title>Node1&#45;&gt;Node8</title>
<g id="a_edge7_Node000001_Node000008"><a xlink:title=" ">
<path fill="none" stroke="#63b8ff" d="M438.46,-338.06C342.64,-325.39 144,-291.74 144,-230.5 144,-230.5 144,-230.5 144,-118.5 144,-85.02 160.45,-48.84 171.7,-28.01"/>
<polygon fill="#63b8ff" stroke="#63b8ff" points="174.87,-29.53 176.72,-19.1 168.76,-26.1 174.87,-29.53"/>
</a>
</g>
</g>
<!-- Node9 -->
<g id="Node000009" class="node">
<title>Node9</title>
<g id="a_Node000009"><a xlink:href="file_8hpp.html" target="_top" xlink:title=" ">
<polygon fill="white" stroke="#666666" points="1342.5,-129 1241.5,-129 1241.5,-110 1342.5,-110 1342.5,-129"/>
<text text-anchor="middle" x="1292" y="-117" font-family="Helvetica,sans-Serif" font-size="10.00">../models/file.hpp</text>
</a>
</g>
</g>
<!-- Node1&#45;&gt;Node9 -->
<g id="edge8_Node000001_Node000009" class="edge">
<title>Node1&#45;&gt;Node9</title>
<g id="a_edge8_Node000001_Node000009"><a xlink:title=" ">
<path fill="none" stroke="#63b8ff" d="M539.57,-342.92C708.67,-338.1 1249.53,-312.73 1351,-184 1365.35,-165.8 1341.08,-146.52 1319.47,-134.04"/>
<polygon fill="#63b8ff" stroke="#63b8ff" points="1320.94,-130.86 1310.49,-129.13 1317.58,-137 1320.94,-130.86"/>
</a>
</g>
</g>
<!-- Node15 -->
<g id="Node000015" class="node">
<title>Node15</title>
<g id="a_Node000015"><a xlink:href="fileinfo_8hpp.html" target="_top" xlink:title=" ">
<polygon fill="white" stroke="#666666" points="1312.5,-74 1241.5,-74 1241.5,-55 1312.5,-55 1312.5,-74"/>
<text text-anchor="middle" x="1277" y="-62" font-family="Helvetica,sans-Serif" font-size="10.00">fileinfo.hpp</text>
</a>
</g>
</g>
<!-- Node1&#45;&gt;Node15 -->
<g id="edge22_Node000001_Node000015" class="edge">
<title>Node1&#45;&gt;Node15</title>
<g id="a_edge22_Node000001_Node000015"><a xlink:title=" ">
<path fill="none" stroke="#63b8ff" d="M539.57,-343.82C747.17,-342.45 1523,-330.62 1523,-230.5 1523,-230.5 1523,-230.5 1523,-173.5 1523,-130.21 1393.67,-92.92 1322.55,-75.68"/>
<polygon fill="#63b8ff" stroke="#63b8ff" points="1323.05,-72.2 1312.51,-73.29 1321.42,-79.01 1323.05,-72.2"/>
</a>
</g>
</g>
<!-- Node16 -->
<g id="Node000016" class="node">
<title>Node16</title>
<g id="a_Node000016"><a xlink:href="hash_8hpp.html" target="_top" xlink:title=" ">
<polygon fill="white" stroke="#666666" points="250.5,-239 189.5,-239 189.5,-220 250.5,-220 250.5,-239"/>
<text text-anchor="middle" x="220" y="-227" font-family="Helvetica,sans-Serif" font-size="10.00">hash.hpp</text>
</a>
</g>
</g>
<!-- Node1&#45;&gt;Node16 -->
<g id="edge23_Node000001_Node000016" class="edge">
<title>Node1&#45;&gt;Node16</title>
<g id="a_edge23_Node000001_Node000016"><a xlink:title=" ">
<path fill="none" stroke="#63b8ff" d="M438.27,-340.62C393.2,-335.69 326.92,-323.62 277,-294 257.77,-282.59 241.4,-262.56 231.2,-248.04"/>
<polygon fill="#63b8ff" stroke="#63b8ff" points="233.91,-245.79 225.43,-239.44 228.1,-249.7 233.91,-245.79"/>
</a>
</g>
</g>
<!-- Node17 -->
<g id="Node000017" class="node">
<title>Node17</title>
<g id="a_Node000017"><a xlink:href="process__input_8hpp.html" target="_top" xlink:title=" ">
<polygon fill="white" stroke="#666666" points="622.5,-294 517.5,-294 517.5,-275 622.5,-275 622.5,-294"/>
<text text-anchor="middle" x="570" y="-282" font-family="Helvetica,sans-Serif" font-size="10.00">process_input.hpp</text>
</a>
</g>
</g>
<!-- Node1&#45;&gt;Node17 -->
<g id="edge25_Node000001_Node000017" class="edge">
<title>Node1&#45;&gt;Node17</title>
<g id="a_edge25_Node000001_Node000017"><a xlink:title=" ">
<path fill="none" stroke="#63b8ff" d="M508.61,-329.84C520.97,-320.91 536.9,-309.41 549.43,-300.35"/>
<polygon fill="#63b8ff" stroke="#63b8ff" points="551.8,-302.96 557.86,-294.27 547.71,-297.28 551.8,-302.96"/>
</a>
</g>
</g>
<!-- Node9&#45;&gt;Node4 -->
<g id="edge9_Node000009_Node000004" class="edge">
<title>Node9&#45;&gt;Node4</title>
<g id="a_edge9_Node000009_Node000004"><a xlink:title=" ">
<path fill="none" stroke="#63b8ff" d="M1241.5,-113.56C1134.22,-103.07 885.59,-78.76 789.19,-69.33"/>
<polygon fill="#63b8ff" stroke="#63b8ff" points="789.3,-65.83 779,-68.34 788.61,-72.79 789.3,-65.83"/>
</a>
</g>
</g>
<!-- Node9&#45;&gt;Node6 -->
<g id="edge11_Node000009_Node000006" class="edge">
<title>Node9&#45;&gt;Node6</title>
<g id="a_edge11_Node000009_Node000006"><a xlink:title=" ">
<path fill="none" stroke="#63b8ff" d="M1298.25,-109.91C1304.47,-101.15 1314.06,-87.02 1321,-74 1328.84,-59.3 1336.13,-41.83 1341.15,-28.94"/>
<polygon fill="#63b8ff" stroke="#63b8ff" points="1344.52,-29.94 1344.8,-19.35 1337.97,-27.45 1344.52,-29.94"/>
</a>
</g>
</g>
<!-- Node10 -->
<g id="Node000010" class="node">
<title>Node10</title>
<g id="a_Node000010"><a xlink:title=" ">
<polygon fill="#e0e0e0" stroke="#999999" points="832,-19 788,-19 788,0 832,0 832,-19"/>
<text text-anchor="middle" x="810" y="-7" font-family="Helvetica,sans-Serif" font-size="10.00">string</text>
</a>
</g>
</g>
<!-- Node9&#45;&gt;Node10 -->
<g id="edge10_Node000009_Node000010" class="edge">
<title>Node9&#45;&gt;Node10</title>
<g id="a_edge10_Node000009_Node000010"><a xlink:title=" ">
<path fill="none" stroke="#63b8ff" d="M1281.67,-109.96C1263.96,-95.84 1226.1,-67.9 1189,-55 1066.3,-12.33 909.21,-8.92 842.4,-9.66"/>
<polygon fill="#63b8ff" stroke="#63b8ff" points="842.05,-6.16 832.1,-9.82 842.16,-13.16 842.05,-6.16"/>
</a>
</g>
</g>
<!-- Node11 -->
<g id="Node000011" class="node">
<title>Node11</title>
<g id="a_Node000011"><a xlink:title=" ">
<polygon fill="#e0e0e0" stroke="#999999" points="1113,-74 1027,-74 1027,-55 1113,-55 1113,-74"/>
<text text-anchor="middle" x="1070" y="-62" font-family="Helvetica,sans-Serif" font-size="10.00">unordered_set</text>
</a>
</g>
</g>
<!-- Node9&#45;&gt;Node11 -->
<g id="edge12_Node000009_Node000011" class="edge">
<title>Node9&#45;&gt;Node11</title>
<g id="a_edge12_Node000009_Node000011"><a xlink:title=" ">
<path fill="none" stroke="#63b8ff" d="M1256.33,-109.98C1218.17,-100.87 1157.53,-86.4 1115.85,-76.45"/>
<polygon fill="#63b8ff" stroke="#63b8ff" points="1116.49,-73 1105.95,-74.08 1114.86,-79.81 1116.49,-73"/>
</a>
</g>
</g>
<!-- Node12 -->
<g id="Node000012" class="node">
<title>Node12</title>
<g id="a_Node000012"><a xlink:href="endpoint_8hpp.html" target="_top" xlink:title=" ">
<polygon fill="white" stroke="#666666" points="1449,-74 1369,-74 1369,-55 1449,-55 1449,-74"/>
<text text-anchor="middle" x="1409" y="-62" font-family="Helvetica,sans-Serif" font-size="10.00">endpoint.hpp</text>
</a>
</g>
</g>
<!-- Node9&#45;&gt;Node12 -->
<g id="edge13_Node000009_Node000012" class="edge">
<title>Node9&#45;&gt;Node12</title>
<g id="a_edge13_Node000009_Node000012"><a xlink:title=" ">
<path fill="none" stroke="#63b8ff" d="M1310.8,-109.98C1329.62,-101.46 1358.82,-88.23 1380.5,-78.41"/>
<polygon fill="#63b8ff" stroke="#63b8ff" points="1382.2,-81.48 1389.86,-74.17 1379.31,-75.11 1382.2,-81.48"/>
</a>
</g>
</g>
<!-- Node9&#45;&gt;Node15 -->
<g id="edge17_Node000009_Node000015" class="edge">
<title>Node9&#45;&gt;Node15</title>
<g id="a_edge17_Node000009_Node000015"><a xlink:title=" ">
<path fill="none" stroke="#63b8ff" d="M1289.52,-109.75C1287.54,-102.72 1284.68,-92.62 1282.19,-83.84"/>
<polygon fill="#63b8ff" stroke="#63b8ff" points="1285.52,-82.76 1279.43,-74.09 1278.79,-84.66 1285.52,-82.76"/>
</a>
</g>
</g>
<!-- Node12&#45;&gt;Node10 -->
<g id="edge16_Node000012_Node000010" class="edge">
<title>Node12&#45;&gt;Node10</title>
<g id="a_edge16_Node000012_Node000010"><a xlink:title=" ">
<path fill="none" stroke="#63b8ff" d="M1368.7,-59.53C1353.73,-58.07 1336.59,-56.43 1321,-55 1140.02,-38.38 922.83,-19.98 842.19,-13.2"/>
<polygon fill="#63b8ff" stroke="#63b8ff" points="842.43,-9.7 832.17,-12.36 841.84,-16.68 842.43,-9.7"/>
</a>
</g>
</g>
<!-- Node13 -->
<g id="Node000013" class="node">
<title>Node13</title>
<g id="a_Node000013"><a xlink:title=" ">
<polygon fill="#e0e0e0" stroke="#999999" points="1444,-19 1394,-19 1394,0 1444,0 1444,-19"/>
<text text-anchor="middle" x="1419" y="-7" font-family="Helvetica,sans-Serif" font-size="10.00">cstdint</text>
</a>
</g>
</g>
<!-- Node12&#45;&gt;Node13 -->
<g id="edge14_Node000012_Node000013" class="edge">
<title>Node12&#45;&gt;Node13</title>
<g id="a_edge14_Node000012_Node000013"><a xlink:title=" ">
<path fill="none" stroke="#63b8ff" d="M1410.65,-54.75C1411.96,-47.8 1413.84,-37.85 1415.48,-29.13"/>
<polygon fill="#63b8ff" stroke="#63b8ff" points="1418.96,-29.56 1417.38,-19.09 1412.09,-28.27 1418.96,-29.56"/>
</a>
</g>
</g>
<!-- Node14 -->
<g id="Node000014" class="node">
<title>Node14</title>
<g id="a_Node000014"><a xlink:title=" ">
<polygon fill="#e0e0e0" stroke="#999999" points="1301.5,-19 1236.5,-19 1236.5,0 1301.5,0 1301.5,-19"/>
<text text-anchor="middle" x="1269" y="-7" font-family="Helvetica,sans-Serif" font-size="10.00">stdexcept</text>
</a>
</g>
</g>
<!-- Node12&#45;&gt;Node14 -->
<g id="edge15_Node000012_Node000014" class="edge">
<title>Node12&#45;&gt;Node14</title>
<g id="a_edge15_Node000012_Node000014"><a xlink:title=" ">
<path fill="none" stroke="#63b8ff" d="M1386.51,-54.98C1363.48,-46.27 1327.46,-32.63 1301.37,-22.75"/>
<polygon fill="#63b8ff" stroke="#63b8ff" points="1302.49,-19.44 1291.9,-19.17 1300.02,-25.98 1302.49,-19.44"/>
</a>
</g>
</g>
<!-- Node15&#45;&gt;Node6 -->
<g id="edge18_Node000015_Node000006" class="edge">
<title>Node15&#45;&gt;Node6</title>
<g id="a_edge18_Node000015_Node000006"><a xlink:title=" ">
<path fill="none" stroke="#63b8ff" d="M1288.41,-54.98C1299.11,-47 1315.34,-34.88 1328.16,-25.31"/>
<polygon fill="#63b8ff" stroke="#63b8ff" points="1330.47,-27.96 1336.39,-19.17 1326.28,-22.35 1330.47,-27.96"/>
</a>
</g>
</g>
<!-- Node15&#45;&gt;Node8 -->
<g id="edge21_Node000015_Node000008" class="edge">
<title>Node15&#45;&gt;Node8</title>
<g id="a_edge21_Node000015_Node000008"><a xlink:title=" ">
<path fill="none" stroke="#63b8ff" d="M1241.3,-61.47C1209.88,-59.69 1162.91,-57.09 1122,-55 767.62,-36.89 337.94,-17.48 215.82,-12.01"/>
<polygon fill="#63b8ff" stroke="#63b8ff" points="215.76,-8.5 205.61,-11.55 215.45,-15.5 215.76,-8.5"/>
</a>
</g>
</g>
<!-- Node15&#45;&gt;Node10 -->
<g id="edge20_Node000015_Node000010" class="edge">
<title>Node15&#45;&gt;Node10</title>
<g id="a_edge20_Node000015_Node000010"><a xlink:title=" ">
<path fill="none" stroke="#63b8ff" d="M1241.26,-57.15C1236.47,-56.38 1231.62,-55.64 1227,-55 1083.97,-35.23 912.29,-19.39 842.19,-13.25"/>
<polygon fill="#63b8ff" stroke="#63b8ff" points="842.48,-9.76 832.21,-12.38 841.87,-16.73 842.48,-9.76"/>
</a>
</g>
</g>
<!-- Node15&#45;&gt;Node14 -->
<g id="edge19_Node000015_Node000014" class="edge">
<title>Node15&#45;&gt;Node14</title>
<g id="a_edge19_Node000015_Node000014"><a xlink:title=" ">
<path fill="none" stroke="#63b8ff" d="M1275.68,-54.75C1274.63,-47.8 1273.13,-37.85 1271.81,-29.13"/>
<polygon fill="#63b8ff" stroke="#63b8ff" points="1275.25,-28.45 1270.3,-19.09 1268.33,-29.5 1275.25,-28.45"/>
</a>
</g>
</g>
<!-- Node16&#45;&gt;Node10 -->
<g id="edge24_Node000016_Node000010" class="edge">
<title>Node16&#45;&gt;Node10</title>
<g id="a_edge24_Node000016_Node000010"><a xlink:title=" ">
<path fill="none" stroke="#63b8ff" d="M216.62,-219.95C209.3,-200.13 193.6,-149.75 206,-110 214.85,-81.64 218.25,-69.82 244,-55 290.34,-28.32 664.8,-14.9 777.82,-11.43"/>
<polygon fill="#63b8ff" stroke="#63b8ff" points="778.03,-14.92 787.92,-11.12 777.82,-7.92 778.03,-14.92"/>
</a>
</g>
</g>
<!-- Node17&#45;&gt;Node10 -->
<g id="edge26_Node000017_Node000010" class="edge">
<title>Node17&#45;&gt;Node10</title>
<g id="a_edge26_Node000017_Node000010"><a xlink:title=" ">
<path fill="none" stroke="#63b8ff" d="M517.22,-276.87C405.19,-260.66 160.1,-212.61 239,-110 305.27,-23.83 666.39,-12.24 777.47,-10.72"/>
<polygon fill="#63b8ff" stroke="#63b8ff" points="777.76,-14.21 787.72,-10.6 777.68,-7.22 777.76,-14.21"/>
</a>
</g>
</g>
<!-- Node17&#45;&gt;Node12 -->
<g id="edge27_Node000017_Node000012" class="edge">
<title>Node17&#45;&gt;Node12</title>
<g id="a_edge27_Node000017_Node000012"><a xlink:title=" ">
<path fill="none" stroke="#63b8ff" d="M622.5,-284.03C784.45,-284.62 1272.57,-278.38 1393,-184 1420.44,-162.5 1422.84,-144.65 1419,-110 1418.04,-101.34 1416.06,-91.91 1414.11,-83.97"/>
<polygon fill="#63b8ff" stroke="#63b8ff" points="1417.49,-83.06 1411.57,-74.27 1410.72,-84.83 1417.49,-83.06"/>
</a>
</g>
</g>
<!-- Node18 -->
<g id="Node000018" class="node">
<title>Node18</title>
<g id="a_Node000018"><a xlink:href="tcp__socket_8hpp.html" target="_top" xlink:title=" ">
<polygon fill="white" stroke="#666666" points="534.5,-184 393.5,-184 393.5,-165 534.5,-165 534.5,-184"/>
<text text-anchor="middle" x="464" y="-172" font-family="Helvetica,sans-Serif" font-size="10.00">../network/tcp_socket.hpp</text>
</a>
</g>
</g>
<!-- Node17&#45;&gt;Node18 -->
<g id="edge28_Node000017_Node000018" class="edge">
<title>Node17&#45;&gt;Node18</title>
<g id="a_edge28_Node000017_Node000018"><a xlink:title=" ">
<path fill="none" stroke="#63b8ff" d="M567.85,-274.74C564.23,-261.53 555.83,-236.32 541,-220 528.62,-206.37 511.06,-195.79 495.84,-188.36"/>
<polygon fill="#63b8ff" stroke="#63b8ff" points="497.28,-185.17 486.73,-184.15 494.34,-191.52 497.28,-185.17"/>
</a>
</g>
</g>
<!-- Node21 -->
<g id="Node000021" class="node">
<title>Node21</title>
<g id="a_Node000021"><a xlink:href="downloadmanager_8hpp.html" target="_top" xlink:title=" ">
<polygon fill="white" stroke="#666666" points="1113,-239 985,-239 985,-220 1113,-220 1113,-239"/>
<text text-anchor="middle" x="1049" y="-227" font-family="Helvetica,sans-Serif" font-size="10.00">downloadmanager.hpp</text>
</a>
</g>
</g>
<!-- Node17&#45;&gt;Node21 -->
<g id="edge35_Node000017_Node000021" class="edge">
<title>Node17&#45;&gt;Node21</title>
<g id="a_edge35_Node000017_Node000021"><a xlink:title=" ">
<path fill="none" stroke="#63b8ff" d="M622.63,-277.68C708.07,-268.22 877.2,-249.51 974.81,-238.71"/>
<polygon fill="#63b8ff" stroke="#63b8ff" points="975.34,-242.17 984.89,-237.59 974.57,-235.21 975.34,-242.17"/>
</a>
</g>
</g>
<!-- Node18&#45;&gt;Node4 -->
<g id="edge29_Node000018_Node000004" class="edge">
<title>Node18&#45;&gt;Node4</title>
<g id="a_edge29_Node000018_Node000004"><a xlink:title=" ">
<path fill="none" stroke="#63b8ff" d="M486.92,-164.84C537.67,-145.68 659.62,-99.63 717.91,-77.62"/>
<polygon fill="#63b8ff" stroke="#63b8ff" points="719.25,-80.85 727.37,-74.05 716.78,-74.31 719.25,-80.85"/>
</a>
</g>
</g>
<!-- Node18&#45;&gt;Node7 -->
<g id="edge33_Node000018_Node000007" class="edge">
<title>Node18&#45;&gt;Node7</title>
<g id="a_edge33_Node000018_Node000007"><a xlink:title=" ">
<path fill="none" stroke="#63b8ff" d="M433.79,-164.98C401.3,-155.82 349.54,-141.23 314.23,-131.28"/>
<polygon fill="#63b8ff" stroke="#63b8ff" points="314.86,-127.82 304.29,-128.47 312.96,-134.56 314.86,-127.82"/>
</a>
</g>
</g>
<!-- Node18&#45;&gt;Node8 -->
<g id="edge34_Node000018_Node000008" class="edge">
<title>Node18&#45;&gt;Node8</title>
<g id="a_edge34_Node000018_Node000008"><a xlink:title=" ">
<path fill="none" stroke="#63b8ff" d="M439.32,-164.99C416.99,-156.91 383.49,-143.82 356,-129 296.56,-96.96 232.28,-49.44 201.11,-25.48"/>
<polygon fill="#63b8ff" stroke="#63b8ff" points="202.94,-22.46 192.89,-19.11 198.65,-28 202.94,-22.46"/>
</a>
</g>
</g>
<!-- Node18&#45;&gt;Node10 -->
<g id="edge31_Node000018_Node000010" class="edge">
<title>Node18&#45;&gt;Node10</title>
<g id="a_edge31_Node000018_Node000010"><a xlink:title=" ">
<path fill="none" stroke="#63b8ff" d="M439.21,-164.92C410.93,-153.79 370.83,-133.05 389,-110 437.59,-48.36 687.45,-21.05 777.56,-13.1"/>
<polygon fill="#63b8ff" stroke="#63b8ff" points="778.07,-16.57 787.73,-12.22 777.47,-9.59 778.07,-16.57"/>
</a>
</g>
</g>
<!-- Node19 -->
<g id="Node000019" class="node">
<title>Node19</title>
<g id="a_Node000019"><a xlink:title=" ">
<polygon fill="#e0e0e0" stroke="#999999" points="470,-129 398,-129 398,-110 470,-110 470,-129"/>
<text text-anchor="middle" x="434" y="-117" font-family="Helvetica,sans-Serif" font-size="10.00">netinet/in.h</text>
</a>
</g>
</g>
<!-- Node18&#45;&gt;Node19 -->
<g id="edge30_Node000018_Node000019" class="edge">
<title>Node18&#45;&gt;Node19</title>
<g id="a_edge30_Node000018_Node000019"><a xlink:title=" ">
<path fill="none" stroke="#63b8ff" d="M459.05,-164.75C454.94,-157.49 448.97,-146.95 443.9,-137.98"/>
<polygon fill="#63b8ff" stroke="#63b8ff" points="446.83,-136.07 438.86,-129.09 440.74,-139.52 446.83,-136.07"/>
</a>
</g>
</g>
<!-- Node20 -->
<g id="Node000020" class="node">
<title>Node20</title>
<g id="a_Node000020"><a xlink:title=" ">
<polygon fill="#e0e0e0" stroke="#999999" points="565.5,-129 488.5,-129 488.5,-110 565.5,-110 565.5,-129"/>
<text text-anchor="middle" x="527" y="-117" font-family="Helvetica,sans-Serif" font-size="10.00">sys/socket.h</text>
</a>
</g>
</g>
<!-- Node18&#45;&gt;Node20 -->
<g id="edge32_Node000018_Node000020" class="edge">
<title>Node18&#45;&gt;Node20</title>
<g id="a_edge32_Node000018_Node000020"><a xlink:title=" ">
<path fill="none" stroke="#63b8ff" d="M474.12,-164.98C483.44,-157.15 497.47,-145.34 508.74,-135.86"/>
<polygon fill="#63b8ff" stroke="#63b8ff" points="511.29,-138.29 516.69,-129.17 506.79,-132.93 511.29,-138.29"/>
</a>
</g>
</g>
<!-- Node21&#45;&gt;Node9 -->
<g id="edge42_Node000021_Node000009" class="edge">
<title>Node21&#45;&gt;Node9</title>
<g id="a_edge42_Node000021_Node000009"><a xlink:title=" ">
<path fill="none" stroke="#63b8ff" d="M1048.95,-219.64C1049.37,-205.82 1052.34,-179.25 1068,-165 1080.07,-154.02 1169.21,-138.77 1231.33,-129.27"/>
<polygon fill="#63b8ff" stroke="#63b8ff" points="1232.07,-132.7 1241.44,-127.74 1231.02,-125.78 1232.07,-132.7"/>
</a>
</g>
</g>
<!-- Node21&#45;&gt;Node10 -->
<g id="edge39_Node000021_Node000010" class="edge">
<title>Node21&#45;&gt;Node10</title>
<g id="a_edge39_Node000021_Node000010"><a xlink:title=" ">
<path fill="none" stroke="#63b8ff" d="M984.68,-228.02C910.4,-223.74 790.19,-204.58 726,-129 703.95,-103.03 687.24,-83.44 706,-55 721.8,-31.05 753.45,-19.94 777.71,-14.82"/>
<polygon fill="#63b8ff" stroke="#63b8ff" points="778.39,-18.25 787.58,-12.97 777.11,-11.37 778.39,-18.25"/>
</a>
</g>
</g>
<!-- Node21&#45;&gt;Node12 -->
<g id="edge41_Node000021_Node000012" class="edge">
<title>Node21&#45;&gt;Node12</title>
<g id="a_edge41_Node000021_Node000012"><a xlink:title=" ">
<path fill="none" stroke="#63b8ff" d="M1113.25,-227.52C1195.83,-224.95 1333.09,-215.86 1371,-184 1400.68,-159.06 1407.42,-110.86 1408.8,-84.26"/>
<polygon fill="#63b8ff" stroke="#63b8ff" points="1412.31,-84.12 1409.12,-74.02 1405.31,-83.91 1412.31,-84.12"/>
</a>
</g>
</g>
<!-- Node21&#45;&gt;Node15 -->
<g id="edge43_Node000021_Node000015" class="edge">
<title>Node21&#45;&gt;Node15</title>
<g id="a_edge43_Node000021_Node000015"><a xlink:title=" ">
<path fill="none" stroke="#63b8ff" d="M1113.17,-228.46C1192.55,-226.89 1320.91,-218.85 1351,-184 1372.49,-159.11 1367.19,-138.63 1351,-110 1342.83,-95.55 1327.88,-85.27 1313.54,-78.26"/>
<polygon fill="#63b8ff" stroke="#63b8ff" points="1314.85,-75.01 1304.29,-74.12 1311.99,-81.4 1314.85,-75.01"/>
</a>
</g>
</g>
<!-- Node21&#45;&gt;Node18 -->
<g id="edge44_Node000021_Node000018" class="edge">
<title>Node21&#45;&gt;Node18</title>
<g id="a_edge44_Node000021_Node000018"><a xlink:title=" ">
<path fill="none" stroke="#63b8ff" d="M984.72,-222.68C877.43,-212.96 662.1,-193.45 544.75,-182.82"/>
<polygon fill="#63b8ff" stroke="#63b8ff" points="545.02,-179.33 534.74,-181.91 544.39,-186.3 545.02,-179.33"/>
</a>
</g>
</g>
<!-- Node22 -->
<g id="Node000022" class="node">
<title>Node22</title>
<g id="a_Node000022"><a xlink:title=" ">
<polygon fill="#e0e0e0" stroke="#999999" points="1277,-184 1227,-184 1227,-165 1277,-165 1277,-184"/>
<text text-anchor="middle" x="1252" y="-172" font-family="Helvetica,sans-Serif" font-size="10.00">atomic</text>
</a>
</g>
</g>
<!-- Node21&#45;&gt;Node22 -->
<g id="edge36_Node000021_Node000022" class="edge">
<title>Node21&#45;&gt;Node22</title>
<g id="a_edge36_Node000021_Node000022"><a xlink:title=" ">
<path fill="none" stroke="#63b8ff" d="M1081.62,-219.98C1118.6,-210.33 1178.68,-194.64 1216.73,-184.71"/>
<polygon fill="#63b8ff" stroke="#63b8ff" points="1218.05,-187.98 1226.84,-182.07 1216.28,-181.21 1218.05,-187.98"/>
</a>
</g>
</g>
<!-- Node23 -->
<g id="Node000023" class="node">
<title>Node23</title>
<g id="a_Node000023"><a xlink:title=" ">
<polygon fill="#e0e0e0" stroke="#999999" points="1342.5,-184 1295.5,-184 1295.5,-165 1342.5,-165 1342.5,-184"/>
<text text-anchor="middle" x="1319" y="-172" font-family="Helvetica,sans-Serif" font-size="10.00">deque</text>
</a>
</g>
</g>
<!-- Node21&#45;&gt;Node23 -->
<g id="edge37_Node000021_Node000023" class="edge">
<title>Node21&#45;&gt;Node23</title>
<g id="a_edge37_Node000021_Node000023"><a xlink:title=" ">
<path fill="none" stroke="#63b8ff" d="M1100.05,-219.92C1146.02,-211.98 1215.65,-199.37 1285.41,-184"/>
<polygon fill="#63b8ff" stroke="#63b8ff" points="1286.25,-187.4 1295.25,-181.82 1284.73,-180.57 1286.25,-187.4"/>
</a>
</g>
</g>
<!-- Node24 -->
<g id="Node000024" class="node">
<title>Node24</title>
<g id="a_Node000024"><a xlink:title=" ">
<polygon fill="#e0e0e0" stroke="#999999" points="1142.5,-184 1077.5,-184 1077.5,-165 1142.5,-165 1142.5,-184"/>
<text text-anchor="middle" x="1110" y="-172" font-family="Helvetica,sans-Serif" font-size="10.00">functional</text>
</a>
</g>
</g>
<!-- Node21&#45;&gt;Node24 -->
<g id="edge38_Node000021_Node000024" class="edge">
<title>Node21&#45;&gt;Node24</title>
<g id="a_edge38_Node000021_Node000024"><a xlink:title=" ">
<path fill="none" stroke="#63b8ff" d="M1058.8,-219.98C1067.82,-212.15 1081.41,-200.34 1092.32,-190.86"/>
<polygon fill="#63b8ff" stroke="#63b8ff" points="1094.77,-193.37 1100.02,-184.17 1090.18,-188.09 1094.77,-193.37"/>
</a>
</g>
</g>
<!-- Node25 -->
<g id="Node000025" class="node">
<title>Node25</title>
<g id="a_Node000025"><a xlink:title=" ">
<polygon fill="#e0e0e0" stroke="#999999" points="1209,-184 1161,-184 1161,-165 1209,-165 1209,-184"/>
<text text-anchor="middle" x="1185" y="-172" font-family="Helvetica,sans-Serif" font-size="10.00">thread</text>
</a>
</g>
</g>
<!-- Node21&#45;&gt;Node25 -->
<g id="edge40_Node000021_Node000025" class="edge">
<title>Node21&#45;&gt;Node25</title>
<g id="a_edge40_Node000021_Node000025"><a xlink:title=" ">
<path fill="none" stroke="#63b8ff" d="M1070.85,-219.98C1093.12,-211.3 1127.9,-197.75 1153.22,-187.88"/>
<polygon fill="#63b8ff" stroke="#63b8ff" points="1154.71,-191.06 1162.75,-184.17 1152.16,-184.54 1154.71,-191.06"/>
</a>
</g>
</g>
<!-- Node26 -->
<g id="Node000026" class="node">
<title>Node26</title>
<g id="a_Node000026"><a xlink:href="filesdb_8hpp.html" target="_top" xlink:title=" ">
<polygon fill="white" stroke="#666666" points="923,-184 853,-184 853,-165 923,-165 923,-184"/>
<text text-anchor="middle" x="888" y="-172" font-family="Helvetica,sans-Serif" font-size="10.00">filesdb.hpp</text>
</a>
</g>
</g>
<!-- Node21&#45;&gt;Node26 -->
<g id="edge45_Node000021_Node000026" class="edge">
<title>Node21&#45;&gt;Node26</title>
<g id="a_edge45_Node000021_Node000026"><a xlink:title=" ">
<path fill="none" stroke="#63b8ff" d="M1023.13,-219.98C996.22,-211.13 953.88,-197.19 923.77,-187.28"/>
<polygon fill="#63b8ff" stroke="#63b8ff" points="924.66,-183.88 914.07,-184.08 922.47,-190.53 924.66,-183.88"/>
</a>
</g>
</g>
<!-- Node30 -->
<g id="Node000030" class="node">
<title>Node30</title>
<g id="a_Node000030"><a xlink:href="partfile_8hpp.html" target="_top" xlink:title=" ">
<polygon fill="white" stroke="#666666" points="846,-129 774,-129 774,-110 846,-110 846,-129"/>
<text text-anchor="middle" x="810" y="-117" font-family="Helvetica,sans-Serif" font-size="10.00">partfile.hpp</text>
</a>
</g>
</g>
<!-- Node21&#45;&gt;Node30 -->
<g id="edge57_Node000021_Node000030" class="edge">
<title>Node21&#45;&gt;Node30</title>
<g id="a_edge57_Node000021_Node000030"><a xlink:title=" ">
<path fill="none" stroke="#63b8ff" d="M984.91,-220.54C933.33,-213.07 865.95,-200.56 844,-184 829.21,-172.83 820.14,-153.31 815.14,-138.85"/>
<polygon fill="#63b8ff" stroke="#63b8ff" points="818.39,-137.51 812.07,-129 811.7,-139.59 818.39,-137.51"/>
</a>
</g>
</g>
<!-- Node31 -->
<g id="Node000031" class="node">
<title>Node31</title>
<g id="a_Node000031"><a xlink:href="peerdb_8hpp.html" target="_top" xlink:title=" ">
<polygon fill="white" stroke="#666666" points="1020.5,-184 949.5,-184 949.5,-165 1020.5,-165 1020.5,-184"/>
<text text-anchor="middle" x="985" y="-172" font-family="Helvetica,sans-Serif" font-size="10.00">peerdb.hpp</text>
</a>
</g>
</g>
<!-- Node21&#45;&gt;Node31 -->
<g id="edge58_Node000021_Node000031" class="edge">
<title>Node21&#45;&gt;Node31</title>
<g id="a_edge58_Node000021_Node000031"><a xlink:title=" ">
<path fill="none" stroke="#63b8ff" d="M1038.72,-219.98C1029.16,-212.07 1014.72,-200.11 1003.22,-190.58"/>
<polygon fill="#63b8ff" stroke="#63b8ff" points="1005.4,-187.85 995.47,-184.17 1000.94,-193.24 1005.4,-187.85"/>
</a>
</g>
</g>
<!-- Node26&#45;&gt;Node4 -->
<g id="edge46_Node000026_Node000004" class="edge">
<title>Node26&#45;&gt;Node4</title>
<g id="a_edge46_Node000026_Node000004"><a xlink:title=" ">
<path fill="none" stroke="#63b8ff" d="M852.73,-169.82C824.97,-165.05 787.36,-154.09 765,-129 754.17,-116.84 750.77,-98.32 749.87,-84.41"/>
<polygon fill="#63b8ff" stroke="#63b8ff" points="753.36,-83.95 749.6,-74.05 746.37,-84.14 753.36,-83.95"/>
</a>
</g>
</g>
<!-- Node26&#45;&gt;Node10 -->
<g id="edge48_Node000026_Node000010" class="edge">
<title>Node26&#45;&gt;Node10</title>
<g id="a_edge48_Node000026_Node000010"><a xlink:title=" ">
<path fill="none" stroke="#63b8ff" d="M852.82,-168.42C823.34,-162.76 781.32,-151.3 751,-129 726.86,-111.25 721.1,-102.55 712,-74 709.44,-65.95 707.43,-62.1 712,-55 726.48,-32.52 755.39,-21.27 778.07,-15.72"/>
<polygon fill="#63b8ff" stroke="#63b8ff" points="778.96,-19.1 787.98,-13.55 777.47,-12.27 778.96,-19.1"/>
</a>
</g>
</g>
<!-- Node27 -->
<g id="Node000027" class="node">
<title>Node27</title>
<g id="a_Node000027"><a xlink:title=" ">
<polygon fill="#e0e0e0" stroke="#999999" points="912,-129 864,-129 864,-110 912,-110 912,-129"/>
<text text-anchor="middle" x="888" y="-117" font-family="Helvetica,sans-Serif" font-size="10.00">mutex</text>
</a>
</g>
</g>
<!-- Node26&#45;&gt;Node27 -->
<g id="edge47_Node000026_Node000027" class="edge">
<title>Node26&#45;&gt;Node27</title>
<g id="a_edge47_Node000026_Node000027"><a xlink:title=" ">
<path fill="none" stroke="#63b8ff" d="M888,-164.75C888,-157.8 888,-147.85 888,-139.13"/>
<polygon fill="#63b8ff" stroke="#63b8ff" points="891.5,-139.09 888,-129.09 884.5,-139.09 891.5,-139.09"/>
</a>
</g>
</g>
<!-- Node28 -->
<g id="Node000028" class="node">
<title>Node28</title>
<g id="a_Node000028"><a xlink:title=" ">
<polygon fill="#e0e0e0" stroke="#999999" points="1108.5,-129 1015.5,-129 1015.5,-110 1108.5,-110 1108.5,-129"/>
<text text-anchor="middle" x="1062" y="-117" font-family="Helvetica,sans-Serif" font-size="10.00">unordered_map</text>
</a>
</g>
</g>
<!-- Node26&#45;&gt;Node28 -->
<g id="edge49_Node000026_Node000028" class="edge">
<title>Node26&#45;&gt;Node28</title>
<g id="a_edge49_Node000026_Node000028"><a xlink:title=" ">
<path fill="none" stroke="#63b8ff" d="M915.96,-164.98C945.3,-156.05 991.6,-141.94 1024.19,-132.02"/>
<polygon fill="#63b8ff" stroke="#63b8ff" points="1025.28,-135.34 1033.82,-129.08 1023.24,-128.65 1025.28,-135.34"/>
</a>
</g>
</g>
<!-- Node29 -->
<g id="Node000029" class="node">
<title>Node29</title>
<g id="a_Node000029"><a xlink:href="file__id_8hpp.html" target="_top" xlink:title=" ">
<polygon fill="white" stroke="#666666" points="997.5,-129 930.5,-129 930.5,-110 997.5,-110 997.5,-129"/>
<text text-anchor="middle" x="964" y="-117" font-family="Helvetica,sans-Serif" font-size="10.00">file_id.hpp</text>
</a>
</g>
</g>
<!-- Node26&#45;&gt;Node29 -->
<g id="edge50_Node000026_Node000029" class="edge">
<title>Node26&#45;&gt;Node29</title>
<g id="a_edge50_Node000026_Node000029"><a xlink:title=" ">
<path fill="none" stroke="#63b8ff" d="M900.21,-164.98C911.78,-156.92 929.38,-144.65 943.16,-135.03"/>
<polygon fill="#63b8ff" stroke="#63b8ff" points="945.37,-137.76 951.57,-129.17 941.36,-132.02 945.37,-137.76"/>
</a>
</g>
</g>
<!-- Node26&#45;&gt;Node30 -->
<g id="edge52_Node000026_Node000030" class="edge">
<title>Node26&#45;&gt;Node30</title>
<g id="a_edge52_Node000026_Node000030"><a xlink:title=" ">
<path fill="none" stroke="#63b8ff" d="M875.47,-164.98C863.6,-156.92 845.54,-144.65 831.39,-135.03"/>
<polygon fill="#63b8ff" stroke="#63b8ff" points="833,-131.9 822.76,-129.17 829.06,-137.69 833,-131.9"/>
</a>
</g>
</g>
<!-- Node29&#45;&gt;Node10 -->
<g id="edge51_Node000029_Node000010" class="edge">
<title>Node29&#45;&gt;Node10</title>
<g id="a_edge51_Node000029_Node000010"><a xlink:title=" ">
<path fill="none" stroke="#63b8ff" d="M951.66,-109.84C925.3,-91.36 863.27,-47.86 830.74,-25.05"/>
<polygon fill="#63b8ff" stroke="#63b8ff" points="832.6,-22.07 822.4,-19.2 828.58,-27.8 832.6,-22.07"/>
</a>
</g>
</g>
<!-- Node30&#45;&gt;Node4 -->
<g id="edge53_Node000030_Node000004" class="edge">
<title>Node30&#45;&gt;Node4</title>
<g id="a_edge53_Node000030_Node000004"><a xlink:title=" ">
<path fill="none" stroke="#63b8ff" d="M800.36,-109.98C791.49,-102.15 778.13,-90.34 767.39,-80.86"/>
<polygon fill="#63b8ff" stroke="#63b8ff" points="769.63,-78.17 759.82,-74.17 764.99,-83.41 769.63,-78.17"/>
</a>
</g>
</g>
<!-- Node30&#45;&gt;Node10 -->
<g id="edge54_Node000030_Node000010" class="edge">
<title>Node30&#45;&gt;Node10</title>
<g id="a_edge54_Node000030_Node000010"><a xlink:title=" ">
<path fill="none" stroke="#63b8ff" d="M810,-109.66C810,-92.17 810,-52.8 810,-29.27"/>
<polygon fill="#63b8ff" stroke="#63b8ff" points="813.5,-29.16 810,-19.16 806.5,-29.16 813.5,-29.16"/>
</a>
</g>
</g>
<!-- Node30&#45;&gt;Node11 -->
<g id="edge55_Node000030_Node000011" class="edge">
<title>Node30&#45;&gt;Node11</title>
<g id="a_edge55_Node000030_Node000011"><a xlink:title=" ">
<path fill="none" stroke="#63b8ff" d="M846.15,-111.13C890.89,-102.01 967.38,-86.42 1018.31,-76.04"/>
<polygon fill="#63b8ff" stroke="#63b8ff" points="1019.04,-79.46 1028.14,-74.03 1017.64,-72.6 1019.04,-79.46"/>
</a>
</g>
</g>
<!-- Node30&#45;&gt;Node15 -->
<g id="edge56_Node000030_Node000015" class="edge">
<title>Node30&#45;&gt;Node15</title>
<g id="a_edge56_Node000030_Node000015"><a xlink:title=" ">
<path fill="none" stroke="#63b8ff" d="M846.31,-111.38C849.24,-110.88 852.17,-110.42 855,-110 991.09,-90.01 1153.16,-75.5 1230.91,-69.12"/>
<polygon fill="#63b8ff" stroke="#63b8ff" points="1231.63,-72.57 1241.31,-68.27 1231.06,-65.6 1231.63,-72.57"/>
</a>
</g>
</g>
<!-- Node31&#45;&gt;Node4 -->
<g id="edge59_Node000031_Node000004" class="edge">
<title>Node31&#45;&gt;Node4</title>
<g id="a_edge59_Node000031_Node000004"><a xlink:title=" ">
<path fill="none" stroke="#63b8ff" d="M1020.7,-166.34C1055.75,-158.5 1105.57,-144.91 1117,-129 1121.93,-122.14 1122.6,-116.32 1117,-110 1095.5,-85.74 879.43,-72.06 789.23,-67.37"/>
<polygon fill="#63b8ff" stroke="#63b8ff" points="789.29,-63.87 779.13,-66.85 788.93,-70.86 789.29,-63.87"/>
</a>
</g>
</g>
<!-- Node31&#45;&gt;Node9 -->
<g id="edge64_Node000031_Node000009" class="edge">
<title>Node31&#45;&gt;Node9</title>
<g id="a_edge64_Node000031_Node000009"><a xlink:title=" ">
<path fill="none" stroke="#63b8ff" d="M1020.52,-167.37C1072.4,-158.41 1169.56,-141.64 1232.48,-130.78"/>
<polygon fill="#63b8ff" stroke="#63b8ff" points="1233.39,-134.17 1242.65,-129.02 1232.2,-127.27 1233.39,-134.17"/>
</a>
</g>
</g>
<!-- Node31&#45;&gt;Node10 -->
<g id="edge61_Node000031_Node000010" class="edge">
<title>Node31&#45;&gt;Node10</title>
<g id="a_edge61_Node000031_Node000010"><a xlink:title=" ">
<path fill="none" stroke="#63b8ff" d="M1020.67,-167.75C1060.02,-160.6 1119.55,-147.09 1133,-129 1145.16,-112.65 1141.56,-73.5 1122,-55 1082.2,-17.36 913.81,-11.38 842.31,-10.56"/>
<polygon fill="#63b8ff" stroke="#63b8ff" points="842.13,-7.06 832.1,-10.47 842.07,-14.05 842.13,-7.06"/>
</a>
</g>
</g>
<!-- Node31&#45;&gt;Node12 -->
<g id="edge63_Node000031_Node000012" class="edge">
<title>Node31&#45;&gt;Node12</title>
<g id="a_edge63_Node000031_Node000012"><a xlink:title=" ">
<path fill="none" stroke="#63b8ff" d="M1020.73,-169.83C1109.94,-160.59 1336.4,-136.52 1351,-129 1371.44,-118.47 1388.28,-97.62 1398.45,-82.68"/>
<polygon fill="#63b8ff" stroke="#63b8ff" points="1401.39,-84.59 1403.9,-74.29 1395.52,-80.78 1401.39,-84.59"/>
</a>
</g>
</g>
<!-- Node31&#45;&gt;Node15 -->
<g id="edge65_Node000031_Node000015" class="edge">
<title>Node31&#45;&gt;Node15</title>
<g id="a_edge65_Node000031_Node000015"><a xlink:title=" ">
<path fill="none" stroke="#63b8ff" d="M1020.8,-167.51C1070.95,-158.81 1159.29,-142.26 1189,-129 1215.96,-116.97 1242.88,-95.87 1259.71,-81.32"/>
<polygon fill="#63b8ff" stroke="#63b8ff" points="1262.38,-83.64 1267.54,-74.39 1257.74,-78.4 1262.38,-83.64"/>
</a>
</g>
</g>
<!-- Node31&#45;&gt;Node27 -->
<g id="edge60_Node000031_Node000027" class="edge">
<title>Node31&#45;&gt;Node27</title>
<g id="a_edge60_Node000031_Node000027"><a xlink:title=" ">
<path fill="none" stroke="#63b8ff" d="M969.42,-164.98C954.23,-156.69 930.9,-143.94 913.1,-134.22"/>
<polygon fill="#63b8ff" stroke="#63b8ff" points="914.32,-130.89 903.87,-129.17 910.97,-137.04 914.32,-130.89"/>
</a>
</g>
</g>
<!-- Node31&#45;&gt;Node28 -->
<g id="edge62_Node000031_Node000028" class="edge">
<title>Node31&#45;&gt;Node28</title>
<g id="a_edge62_Node000031_Node000028"><a xlink:title=" ">
<path fill="none" stroke="#63b8ff" d="M997.37,-164.98C1009.09,-156.92 1026.92,-144.65 1040.89,-135.03"/>
<polygon fill="#63b8ff" stroke="#63b8ff" points="1043.15,-137.72 1049.4,-129.17 1039.18,-131.96 1043.15,-137.72"/>
</a>
</g>
</g>
<!-- Node31&#45;&gt;Node29 -->
<g id="edge66_Node000031_Node000029" class="edge">
<title>Node31&#45;&gt;Node29</title>
<g id="a_edge66_Node000031_Node000029"><a xlink:title=" ">
<path fill="none" stroke="#63b8ff" d="M981.53,-164.75C978.72,-157.65 974.66,-147.4 971.15,-138.56"/>
<polygon fill="#63b8ff" stroke="#63b8ff" points="974.34,-137.1 967.4,-129.09 967.83,-139.68 974.34,-137.1"/>
</a>
</g>
</g>
</g>
</svg>
