<?xml version="1.0" encoding="UTF-8" standalone="no"?>
<!DOCTYPE svg PUBLIC "-//W3C//DTD SVG 1.1//EN"
 "http://www.w3.org/Graphics/SVG/1.1/DTD/svg11.dtd">
<!-- Generated by graphviz version 2.43.0 (0)
 -->
<!-- Title: src/tracker/process_request.cpp Pages: 1 -->
<svg width="1353pt" height="258pt"
 viewBox="0.00 0.00 1353.32 258.00" xmlns="http://www.w3.org/2000/svg" xmlns:xlink="http://www.w3.org/1999/xlink">
<g id="graph0" class="graph" transform="scale(1 1) rotate(0) translate(4 254)">
<title>src/tracker/process_request.cpp</title>
<!-- Node1 -->
<g id="Node000001" class="node">
<title>Node1</title>
<g id="a_Node000001"><a xlink:title=" ">
<polygon fill="#999999" stroke="#666666" points="994,-250 886,-250 886,-220 994,-220 994,-250"/>
<text text-anchor="start" x="894" y="-238" font-family="Helvetica,sans-Serif" font-size="10.00">src/tracker/process</text>
<text text-anchor="middle" x="940" y="-227" font-family="Helvetica,sans-Serif" font-size="10.00">_request.cpp</text>
</a>
</g>
</g>
<!-- Node2 -->
<g id="Node000002" class="node">
<title>Node2</title>
<g id="a_Node000002"><a xlink:href="process__request_8hpp.html" target="_top" xlink:title=" ">
<polygon fill="white" stroke="#666666" points="354.5,-184 237.5,-184 237.5,-165 354.5,-165 354.5,-184"/>
<text text-anchor="middle" x="296" y="-172" font-family="Helvetica,sans-Serif" font-size="10.00">process_request.hpp</text>
</a>
</g>
</g>
<!-- Node1&#45;&gt;Node2 -->
<g id="edge1_Node000001_Node000002" class="edge">
<title>Node1&#45;&gt;Node2</title>
<g id="a_edge1_Node000001_Node000002"><a xlink:title=" ">
<path fill="none" stroke="#63b8ff" d="M885.92,-229.09C769.19,-218.48 493.74,-193.46 364.81,-181.75"/>
<polygon fill="#63b8ff" stroke="#63b8ff" points="364.93,-178.25 354.66,-180.83 364.3,-185.22 364.93,-178.25"/>
</a>
</g>
</g>
<!-- Node15 -->
<g id="Node000015" class="node">
<title>Node15</title>
<g id="a_Node000015"><a xlink:href="groupdb_8hpp.html" target="_top" xlink:title=" ">
<polygon fill="white" stroke="#666666" points="978.5,-184 901.5,-184 901.5,-165 978.5,-165 978.5,-184"/>
<text text-anchor="middle" x="940" y="-172" font-family="Helvetica,sans-Serif" font-size="10.00">groupdb.hpp</text>
</a>
</g>
</g>
<!-- Node1&#45;&gt;Node15 -->
<g id="edge19_Node000001_Node000015" class="edge">
<title>Node1&#45;&gt;Node15</title>
<g id="a_edge19_Node000001_Node000015"><a xlink:title=" ">
<path fill="none" stroke="#63b8ff" d="M940,-219.84C940,-212.21 940,-202.7 940,-194.45"/>
<polygon fill="#63b8ff" stroke="#63b8ff" points="943.5,-194.27 940,-184.27 936.5,-194.27 943.5,-194.27"/>
</a>
</g>
</g>
<!-- Node21 -->
<g id="Node000021" class="node">
<title>Node21</title>
<g id="a_Node000021"><a xlink:title=" ">
<polygon fill="#e0e0e0" stroke="#999999" points="1237,-19 1181,-19 1181,0 1237,0 1237,-19"/>
<text text-anchor="middle" x="1209" y="-7" font-family="Helvetica,sans-Serif" font-size="10.00">sstream</text>
</a>
</g>
</g>
<!-- Node1&#45;&gt;Node21 -->
<g id="edge48_Node000001_Node000021" class="edge">
<title>Node1&#45;&gt;Node21</title>
<g id="a_edge48_Node000001_Node000021"><a xlink:title=" ">
<path fill="none" stroke="#63b8ff" d="M994.14,-227.07C1090.49,-213.56 1285.6,-180.42 1328,-129 1348.95,-103.59 1350.92,-81.96 1332,-55 1313.01,-27.93 1275.82,-17.26 1247.29,-13.09"/>
<polygon fill="#63b8ff" stroke="#63b8ff" points="1247.58,-9.6 1237.22,-11.83 1246.71,-16.54 1247.58,-9.6"/>
</a>
</g>
</g>
<!-- Node23 -->
<g id="Node000023" class="node">
<title>Node23</title>
<g id="a_Node000023"><a xlink:href="userdb_8hpp.html" target="_top" xlink:title=" ">
<polygon fill="white" stroke="#666666" points="1135.5,-129 1064.5,-129 1064.5,-110 1135.5,-110 1135.5,-129"/>
<text text-anchor="middle" x="1100" y="-117" font-family="Helvetica,sans-Serif" font-size="10.00">userdb.hpp</text>
</a>
</g>
</g>
<!-- Node1&#45;&gt;Node23 -->
<g id="edge37_Node000001_Node000023" class="edge">
<title>Node1&#45;&gt;Node23</title>
<g id="a_edge37_Node000001_Node000023"><a xlink:title=" ">
<path fill="none" stroke="#63b8ff" d="M959.94,-219.85C990.44,-198.22 1048.38,-157.12 1079.32,-135.17"/>
<polygon fill="#63b8ff" stroke="#63b8ff" points="1081.51,-137.91 1087.64,-129.27 1077.45,-132.2 1081.51,-137.91"/>
</a>
</g>
</g>
<!-- Node24 -->
<g id="Node000024" class="node">
<title>Node24</title>
<g id="a_Node000024"><a xlink:href="transactionsrecord_8hpp.html" target="_top" xlink:title=" ">
<polygon fill="white" stroke="#666666" points="584,-184 456,-184 456,-165 584,-165 584,-184"/>
<text text-anchor="middle" x="520" y="-172" font-family="Helvetica,sans-Serif" font-size="10.00">transactionsrecord.hpp</text>
</a>
</g>
</g>
<!-- Node1&#45;&gt;Node24 -->
<g id="edge44_Node000001_Node000024" class="edge">
<title>Node1&#45;&gt;Node24</title>
<g id="a_edge44_Node000001_Node000024"><a xlink:title=" ">
<path fill="none" stroke="#63b8ff" d="M885.95,-226.47C810.88,-216.01 674.87,-197.07 591.48,-185.46"/>
<polygon fill="#63b8ff" stroke="#63b8ff" points="591.72,-181.96 581.33,-184.04 590.75,-188.89 591.72,-181.96"/>
</a>
</g>
</g>
<!-- Node3 -->
<g id="Node000003" class="node">
<title>Node3</title>
<g id="a_Node000003"><a xlink:title=" ">
<polygon fill="#e0e0e0" stroke="#999999" points="361,-19 303,-19 303,0 361,0 361,-19"/>
<text text-anchor="middle" x="332" y="-7" font-family="Helvetica,sans-Serif" font-size="10.00">memory</text>
</a>
</g>
</g>
<!-- Node2&#45;&gt;Node3 -->
<g id="edge2_Node000002_Node000003" class="edge">
<title>Node2&#45;&gt;Node3</title>
<g id="a_edge2_Node000002_Node000003"><a xlink:title=" ">
<path fill="none" stroke="#63b8ff" d="M283.22,-165C272.61,-157.1 258.28,-144.27 252,-129 239.5,-98.58 235.33,-83.35 252,-55 261.07,-39.57 277.65,-29.1 293.37,-22.22"/>
<polygon fill="#63b8ff" stroke="#63b8ff" points="294.98,-25.34 302.97,-18.39 292.38,-18.84 294.98,-25.34"/>
</a>
</g>
</g>
<!-- Node4 -->
<g id="Node000004" class="node">
<title>Node4</title>
<g id="a_Node000004"><a xlink:href="transaction_8hpp.html" target="_top" xlink:title=" ">
<polygon fill="white" stroke="#666666" points="434,-129 294,-129 294,-110 434,-110 434,-129"/>
<text text-anchor="middle" x="364" y="-117" font-family="Helvetica,sans-Serif" font-size="10.00">../models/transaction.hpp</text>
</a>
</g>
</g>
<!-- Node2&#45;&gt;Node4 -->
<g id="edge3_Node000002_Node000004" class="edge">
<title>Node2&#45;&gt;Node4</title>
<g id="a_edge3_Node000002_Node000004"><a xlink:title=" ">
<path fill="none" stroke="#63b8ff" d="M306.93,-164.98C317.08,-157.07 332.42,-145.11 344.65,-135.58"/>
<polygon fill="#63b8ff" stroke="#63b8ff" points="347.14,-138.08 352.88,-129.17 342.84,-132.56 347.14,-138.08"/>
</a>
</g>
</g>
<!-- Node10 -->
<g id="Node000010" class="node">
<title>Node10</title>
<g id="a_Node000010"><a xlink:href="tcp__socket_8hpp.html" target="_top" xlink:title=" ">
<polygon fill="white" stroke="#666666" points="199.5,-74 58.5,-74 58.5,-55 199.5,-55 199.5,-74"/>
<text text-anchor="middle" x="129" y="-62" font-family="Helvetica,sans-Serif" font-size="10.00">../network/tcp_socket.hpp</text>
</a>
</g>
</g>
<!-- Node2&#45;&gt;Node10 -->
<g id="edge18_Node000002_Node000010" class="edge">
<title>Node2&#45;&gt;Node10</title>
<g id="a_edge18_Node000002_Node000010"><a xlink:title=" ">
<path fill="none" stroke="#63b8ff" d="M278.63,-164.99C261.74,-156.51 235.55,-142.8 214,-129 190.09,-113.69 164.16,-93.8 147.31,-80.39"/>
<polygon fill="#63b8ff" stroke="#63b8ff" points="149.37,-77.56 139.38,-74.03 144.99,-83.02 149.37,-77.56"/>
</a>
</g>
</g>
<!-- Node5 -->
<g id="Node000005" class="node">
<title>Node5</title>
<g id="a_Node000005"><a xlink:title=" ">
<polygon fill="#e0e0e0" stroke="#999999" points="650.5,-19 585.5,-19 585.5,0 650.5,0 650.5,-19"/>
<text text-anchor="middle" x="618" y="-7" font-family="Helvetica,sans-Serif" font-size="10.00">stdexcept</text>
</a>
</g>
</g>
<!-- Node4&#45;&gt;Node5 -->
<g id="edge4_Node000004_Node000005" class="edge">
<title>Node4&#45;&gt;Node5</title>
<g id="a_edge4_Node000004_Node000005"><a xlink:title=" ">
<path fill="none" stroke="#63b8ff" d="M382.87,-109.86C410.14,-97.43 462.21,-73.92 507,-55 533.66,-43.74 564.19,-31.55 586.48,-22.78"/>
<polygon fill="#63b8ff" stroke="#63b8ff" points="587.76,-26.04 595.79,-19.13 585.2,-19.52 587.76,-26.04"/>
</a>
</g>
</g>
<!-- Node6 -->
<g id="Node000006" class="node">
<title>Node6</title>
<g id="a_Node000006"><a xlink:title=" ">
<polygon fill="#e0e0e0" stroke="#999999" points="918,-19 874,-19 874,0 918,0 918,-19"/>
<text text-anchor="middle" x="896" y="-7" font-family="Helvetica,sans-Serif" font-size="10.00">string</text>
</a>
</g>
</g>
<!-- Node4&#45;&gt;Node6 -->
<g id="edge5_Node000004_Node000006" class="edge">
<title>Node4&#45;&gt;Node6</title>
<g id="a_edge5_Node000004_Node000006"><a xlink:title=" ">
<path fill="none" stroke="#63b8ff" d="M432.38,-109.99C491.17,-102.19 578.06,-89.52 653,-74 729.41,-58.18 817.75,-33.44 863.99,-19.99"/>
<polygon fill="#63b8ff" stroke="#63b8ff" points="865.12,-23.31 873.74,-17.14 863.15,-16.59 865.12,-23.31"/>
</a>
</g>
</g>
<!-- Node7 -->
<g id="Node000007" class="node">
<title>Node7</title>
<g id="a_Node000007"><a xlink:title=" ">
<polygon fill="#e0e0e0" stroke="#999999" points="345.5,-74 294.5,-74 294.5,-55 345.5,-55 345.5,-74"/>
<text text-anchor="middle" x="320" y="-62" font-family="Helvetica,sans-Serif" font-size="10.00">variant</text>
</a>
</g>
</g>
<!-- Node4&#45;&gt;Node7 -->
<g id="edge6_Node000004_Node000007" class="edge">
<title>Node4&#45;&gt;Node7</title>
<g id="a_edge6_Node000004_Node000007"><a xlink:title=" ">
<path fill="none" stroke="#63b8ff" d="M356.73,-109.75C350.46,-102.18 341.21,-91.05 333.57,-81.84"/>
<polygon fill="#63b8ff" stroke="#63b8ff" points="336.21,-79.55 327.13,-74.09 330.83,-84.02 336.21,-79.55"/>
</a>
</g>
</g>
<!-- Node8 -->
<g id="Node000008" class="node">
<title>Node8</title>
<g id="a_Node000008"><a xlink:href="endpoint_8hpp.html" target="_top" xlink:title=" ">
<polygon fill="white" stroke="#666666" points="644,-74 516,-74 516,-55 644,-55 644,-74"/>
<text text-anchor="middle" x="580" y="-62" font-family="Helvetica,sans-Serif" font-size="10.00">../models/endpoint.hpp</text>
</a>
</g>
</g>
<!-- Node4&#45;&gt;Node8 -->
<g id="edge7_Node000004_Node000008" class="edge">
<title>Node4&#45;&gt;Node8</title>
<g id="a_edge7_Node000004_Node000008"><a xlink:title=" ">
<path fill="none" stroke="#63b8ff" d="M398.7,-109.98C435.75,-100.89 494.59,-86.46 535.13,-76.51"/>
<polygon fill="#63b8ff" stroke="#63b8ff" points="536.15,-79.86 545.02,-74.08 534.48,-73.07 536.15,-79.86"/>
</a>
</g>
</g>
<!-- Node4&#45;&gt;Node10 -->
<g id="edge11_Node000004_Node000010" class="edge">
<title>Node4&#45;&gt;Node10</title>
<g id="a_edge11_Node000004_Node000010"><a xlink:title=" ">
<path fill="none" stroke="#63b8ff" d="M326.24,-109.98C285.68,-100.84 221.11,-86.27 176.97,-76.32"/>
<polygon fill="#63b8ff" stroke="#63b8ff" points="177.58,-72.87 167.05,-74.08 176.04,-79.7 177.58,-72.87"/>
</a>
</g>
</g>
<!-- Node8&#45;&gt;Node5 -->
<g id="edge9_Node000008_Node000005" class="edge">
<title>Node8&#45;&gt;Node5</title>
<g id="a_edge9_Node000008_Node000005"><a xlink:title=" ">
<path fill="none" stroke="#63b8ff" d="M586.27,-54.75C591.59,-47.34 599.36,-36.5 605.88,-27.41"/>
<polygon fill="#63b8ff" stroke="#63b8ff" points="608.86,-29.26 611.84,-19.09 603.17,-25.18 608.86,-29.26"/>
</a>
</g>
</g>
<!-- Node8&#45;&gt;Node6 -->
<g id="edge10_Node000008_Node000006" class="edge">
<title>Node8&#45;&gt;Node6</title>
<g id="a_edge10_Node000008_Node000006"><a xlink:title=" ">
<path fill="none" stroke="#63b8ff" d="M630.77,-54.98C696.5,-43.96 809.09,-25.08 864,-15.87"/>
<polygon fill="#63b8ff" stroke="#63b8ff" points="864.59,-19.32 873.87,-14.21 863.43,-12.41 864.59,-19.32"/>
</a>
</g>
</g>
<!-- Node9 -->
<g id="Node000009" class="node">
<title>Node9</title>
<g id="a_Node000009"><a xlink:title=" ">
<polygon fill="#e0e0e0" stroke="#999999" points="567,-19 517,-19 517,0 567,0 567,-19"/>
<text text-anchor="middle" x="542" y="-7" font-family="Helvetica,sans-Serif" font-size="10.00">cstdint</text>
</a>
</g>
</g>
<!-- Node8&#45;&gt;Node9 -->
<g id="edge8_Node000008_Node000009" class="edge">
<title>Node8&#45;&gt;Node9</title>
<g id="a_edge8_Node000008_Node000009"><a xlink:title=" ">
<path fill="none" stroke="#63b8ff" d="M573.73,-54.75C568.41,-47.34 560.64,-36.5 554.12,-27.41"/>
<polygon fill="#63b8ff" stroke="#63b8ff" points="556.83,-25.18 548.16,-19.09 551.14,-29.26 556.83,-25.18"/>
</a>
</g>
</g>
<!-- Node10&#45;&gt;Node3 -->
<g id="edge12_Node000010_Node000003" class="edge">
<title>Node10&#45;&gt;Node3</title>
<g id="a_edge12_Node000010_Node000003"><a xlink:title=" ">
<path fill="none" stroke="#63b8ff" d="M161.62,-54.98C197.42,-45.64 254.87,-30.64 293.02,-20.68"/>
<polygon fill="#63b8ff" stroke="#63b8ff" points="293.97,-24.05 302.76,-18.13 292.2,-17.27 293.97,-24.05"/>
</a>
</g>
</g>
<!-- Node10&#45;&gt;Node6 -->
<g id="edge14_Node000010_Node000006" class="edge">
<title>Node10&#45;&gt;Node6</title>
<g id="a_edge14_Node000010_Node000006"><a xlink:title=" ">
<path fill="none" stroke="#63b8ff" d="M199.92,-58.79C319.69,-50.81 569.65,-34.02 781,-19 808.93,-17.01 840.66,-14.66 863.71,-12.94"/>
<polygon fill="#63b8ff" stroke="#63b8ff" points="864.25,-16.41 873.96,-12.17 863.72,-9.42 864.25,-16.41"/>
</a>
</g>
</g>
<!-- Node11 -->
<g id="Node000011" class="node">
<title>Node11</title>
<g id="a_Node000011"><a xlink:title=" ">
<polygon fill="#e0e0e0" stroke="#999999" points="72,-19 0,-19 0,0 72,0 72,-19"/>
<text text-anchor="middle" x="36" y="-7" font-family="Helvetica,sans-Serif" font-size="10.00">netinet/in.h</text>
</a>
</g>
</g>
<!-- Node10&#45;&gt;Node11 -->
<g id="edge13_Node000010_Node000011" class="edge">
<title>Node10&#45;&gt;Node11</title>
<g id="a_edge13_Node000010_Node000011"><a xlink:title=" ">
<path fill="none" stroke="#63b8ff" d="M114.06,-54.98C99.5,-46.69 77.13,-33.94 60.07,-24.22"/>
<polygon fill="#63b8ff" stroke="#63b8ff" points="61.64,-21.08 51.21,-19.17 58.17,-27.16 61.64,-21.08"/>
</a>
</g>
</g>
<!-- Node12 -->
<g id="Node000012" class="node">
<title>Node12</title>
<g id="a_Node000012"><a xlink:title=" ">
<polygon fill="#e0e0e0" stroke="#999999" points="167.5,-19 90.5,-19 90.5,0 167.5,0 167.5,-19"/>
<text text-anchor="middle" x="129" y="-7" font-family="Helvetica,sans-Serif" font-size="10.00">sys/socket.h</text>
</a>
</g>
</g>
<!-- Node10&#45;&gt;Node12 -->
<g id="edge15_Node000010_Node000012" class="edge">
<title>Node10&#45;&gt;Node12</title>
<g id="a_edge15_Node000010_Node000012"><a xlink:title=" ">
<path fill="none" stroke="#63b8ff" d="M129,-54.75C129,-47.8 129,-37.85 129,-29.13"/>
<polygon fill="#63b8ff" stroke="#63b8ff" points="132.5,-29.09 129,-19.09 125.5,-29.09 132.5,-29.09"/>
</a>
</g>
</g>
<!-- Node13 -->
<g id="Node000013" class="node">
<title>Node13</title>
<g id="a_Node000013"><a xlink:title=" ">
<polygon fill="#e0e0e0" stroke="#999999" points="242,-19 186,-19 186,0 242,0 242,-19"/>
<text text-anchor="middle" x="214" y="-7" font-family="Helvetica,sans-Serif" font-size="10.00">unistd.h</text>
</a>
</g>
</g>
<!-- Node10&#45;&gt;Node13 -->
<g id="edge16_Node000010_Node000013" class="edge">
<title>Node10&#45;&gt;Node13</title>
<g id="a_edge16_Node000010_Node000013"><a xlink:title=" ">
<path fill="none" stroke="#63b8ff" d="M142.66,-54.98C155.84,-46.77 176.03,-34.18 191.57,-24.49"/>
<polygon fill="#63b8ff" stroke="#63b8ff" points="193.46,-27.43 200.09,-19.17 189.76,-21.49 193.46,-27.43"/>
</a>
</g>
</g>
<!-- Node14 -->
<g id="Node000014" class="node">
<title>Node14</title>
<g id="a_Node000014"><a xlink:title=" ">
<polygon fill="#e0e0e0" stroke="#999999" points="771.5,-19 724.5,-19 724.5,0 771.5,0 771.5,-19"/>
<text text-anchor="middle" x="748" y="-7" font-family="Helvetica,sans-Serif" font-size="10.00">vector</text>
</a>
</g>
</g>
<!-- Node10&#45;&gt;Node14 -->
<g id="edge17_Node000010_Node000014" class="edge">
<title>Node10&#45;&gt;Node14</title>
<g id="a_edge17_Node000010_Node000014"><a xlink:title=" ">
<path fill="none" stroke="#63b8ff" d="M199.88,-57.85C301.72,-49.66 495.31,-33.85 660,-19 677.93,-17.38 697.91,-15.46 714.29,-13.86"/>
<polygon fill="#63b8ff" stroke="#63b8ff" points="714.87,-17.32 724.48,-12.85 714.18,-10.35 714.87,-17.32"/>
</a>
</g>
</g>
<!-- Node15&#45;&gt;Node3 -->
<g id="edge20_Node000015_Node000003" class="edge">
<title>Node15&#45;&gt;Node3</title>
<g id="a_edge20_Node000015_Node000003"><a xlink:title=" ">
<path fill="none" stroke="#63b8ff" d="M901.23,-174.39C807.84,-174.92 565.42,-166.57 393,-74 372.25,-62.86 354.39,-42.14 343.45,-27.4"/>
<polygon fill="#63b8ff" stroke="#63b8ff" points="346.22,-25.25 337.57,-19.13 340.51,-29.31 346.22,-25.25"/>
</a>
</g>
</g>
<!-- Node15&#45;&gt;Node6 -->
<g id="edge21_Node000015_Node000006" class="edge">
<title>Node15&#45;&gt;Node6</title>
<g id="a_edge21_Node000015_Node000006"><a xlink:title=" ">
<path fill="none" stroke="#63b8ff" d="M978.6,-173.69C1091.81,-173.04 1409.07,-161.87 1313,-55 1287.37,-26.49 1021.62,-14.77 928.23,-11.51"/>
<polygon fill="#63b8ff" stroke="#63b8ff" points="928.34,-8.01 918.23,-11.17 928.1,-15.01 928.34,-8.01"/>
</a>
</g>
</g>
<!-- Node15&#45;&gt;Node14 -->
<g id="edge24_Node000015_Node000014" class="edge">
<title>Node15&#45;&gt;Node14</title>
<g id="a_edge24_Node000015_Node000014"><a xlink:title=" ">
<path fill="none" stroke="#63b8ff" d="M910.84,-164.96C871.88,-151.97 803.61,-123.39 768,-74 758.39,-60.67 753.28,-42.56 750.64,-29.09"/>
<polygon fill="#63b8ff" stroke="#63b8ff" points="754.07,-28.36 748.96,-19.07 747.17,-29.51 754.07,-28.36"/>
</a>
</g>
</g>
<!-- Node16 -->
<g id="Node000016" class="node">
<title>Node16</title>
<g id="a_Node000016"><a xlink:title=" ">
<polygon fill="#e0e0e0" stroke="#999999" points="1116,-74 1084,-74 1084,-55 1116,-55 1116,-74"/>
<text text-anchor="middle" x="1100" y="-62" font-family="Helvetica,sans-Serif" font-size="10.00">set</text>
</a>
</g>
</g>
<!-- Node15&#45;&gt;Node16 -->
<g id="edge22_Node000015_Node000016" class="edge">
<title>Node15&#45;&gt;Node16</title>
<g id="a_edge22_Node000015_Node000016"><a xlink:title=" ">
<path fill="none" stroke="#63b8ff" d="M952.82,-164.84C980.21,-146.36 1044.65,-102.86 1078.45,-80.05"/>
<polygon fill="#63b8ff" stroke="#63b8ff" points="1080.79,-82.69 1087.12,-74.2 1076.87,-76.89 1080.79,-82.69"/>
</a>
</g>
</g>
<!-- Node17 -->
<g id="Node000017" class="node">
<title>Node17</title>
<g id="a_Node000017"><a xlink:title=" ">
<polygon fill="#e0e0e0" stroke="#999999" points="1303.5,-74 1210.5,-74 1210.5,-55 1303.5,-55 1303.5,-74"/>
<text text-anchor="middle" x="1257" y="-62" font-family="Helvetica,sans-Serif" font-size="10.00">unordered_map</text>
</a>
</g>
</g>
<!-- Node15&#45;&gt;Node17 -->
<g id="edge23_Node000015_Node000017" class="edge">
<title>Node15&#45;&gt;Node17</title>
<g id="a_edge23_Node000015_Node000017"><a xlink:title=" ">
<path fill="none" stroke="#63b8ff" d="M978.78,-168.64C1020.76,-162.58 1089.2,-150.31 1145,-129 1178.8,-116.09 1214.64,-94.12 1236.42,-79.71"/>
<polygon fill="#63b8ff" stroke="#63b8ff" points="1238.5,-82.52 1244.85,-74.04 1234.6,-76.71 1238.5,-82.52"/>
</a>
</g>
</g>
<!-- Node18 -->
<g id="Node000018" class="node">
<title>Node18</title>
<g id="a_Node000018"><a xlink:href="group_8hpp.html" target="_top" xlink:title=" ">
<polygon fill="white" stroke="#666666" points="965.5,-129 852.5,-129 852.5,-110 965.5,-110 965.5,-129"/>
<text text-anchor="middle" x="909" y="-117" font-family="Helvetica,sans-Serif" font-size="10.00">../models/group.hpp</text>
</a>
</g>
</g>
<!-- Node15&#45;&gt;Node18 -->
<g id="edge25_Node000015_Node000018" class="edge">
<title>Node15&#45;&gt;Node18</title>
<g id="a_edge25_Node000015_Node000018"><a xlink:title=" ">
<path fill="none" stroke="#63b8ff" d="M934.88,-164.75C930.64,-157.49 924.47,-146.95 919.22,-137.98"/>
<polygon fill="#63b8ff" stroke="#63b8ff" points="922.09,-135.95 914.02,-129.09 916.05,-139.49 922.09,-135.95"/>
</a>
</g>
</g>
<!-- Node18&#45;&gt;Node3 -->
<g id="edge26_Node000018_Node000003" class="edge">
<title>Node18&#45;&gt;Node3</title>
<g id="a_edge26_Node000018_Node000003"><a xlink:title=" ">
<path fill="none" stroke="#63b8ff" d="M852.15,-116.36C743.81,-111.75 511.82,-99.21 436,-74 403.45,-63.18 370.4,-40.59 350.55,-25.48"/>
<polygon fill="#63b8ff" stroke="#63b8ff" points="352.45,-22.52 342.41,-19.13 348.15,-28.04 352.45,-22.52"/>
</a>
</g>
</g>
<!-- Node18&#45;&gt;Node6 -->
<g id="edge27_Node000018_Node000006" class="edge">
<title>Node18&#45;&gt;Node6</title>
<g id="a_edge27_Node000018_Node000006"><a xlink:title=" ">
<path fill="none" stroke="#63b8ff" d="M925.15,-109.88C944.39,-98.39 972.56,-76.93 961,-55 953.76,-41.27 940.17,-30.97 927.28,-23.76"/>
<polygon fill="#63b8ff" stroke="#63b8ff" points="928.61,-20.51 918.12,-19.05 925.41,-26.73 928.61,-20.51"/>
</a>
</g>
</g>
<!-- Node18&#45;&gt;Node8 -->
<g id="edge29_Node000018_Node000008" class="edge">
<title>Node18&#45;&gt;Node8</title>
<g id="a_edge29_Node000018_Node000008"><a xlink:title=" ">
<path fill="none" stroke="#63b8ff" d="M856.14,-109.98C798.07,-100.63 704.85,-85.61 643.02,-75.65"/>
<polygon fill="#63b8ff" stroke="#63b8ff" points="643.43,-72.17 633,-74.04 642.32,-79.08 643.43,-72.17"/>
</a>
</g>
</g>
<!-- Node19 -->
<g id="Node000019" class="node">
<title>Node19</title>
<g id="a_Node000019"><a xlink:title=" ">
<polygon fill="#e0e0e0" stroke="#999999" points="952,-74 866,-74 866,-55 952,-55 952,-74"/>
<text text-anchor="middle" x="909" y="-62" font-family="Helvetica,sans-Serif" font-size="10.00">unordered_set</text>
</a>
</g>
</g>
<!-- Node18&#45;&gt;Node19 -->
<g id="edge28_Node000018_Node000019" class="edge">
<title>Node18&#45;&gt;Node19</title>
<g id="a_edge28_Node000018_Node000019"><a xlink:title=" ">
<path fill="none" stroke="#63b8ff" d="M909,-109.75C909,-102.8 909,-92.85 909,-84.13"/>
<polygon fill="#63b8ff" stroke="#63b8ff" points="912.5,-84.09 909,-74.09 905.5,-84.09 912.5,-84.09"/>
</a>
</g>
</g>
<!-- Node20 -->
<g id="Node000020" class="node">
<title>Node20</title>
<g id="a_Node000020"><a xlink:href="fileinfo_8hpp.html" target="_top" xlink:title=" ">
<polygon fill="white" stroke="#666666" points="847.5,-74 776.5,-74 776.5,-55 847.5,-55 847.5,-74"/>
<text text-anchor="middle" x="812" y="-62" font-family="Helvetica,sans-Serif" font-size="10.00">fileinfo.hpp</text>
</a>
</g>
</g>
<!-- Node18&#45;&gt;Node20 -->
<g id="edge30_Node000018_Node000020" class="edge">
<title>Node18&#45;&gt;Node20</title>
<g id="a_edge30_Node000018_Node000020"><a xlink:title=" ">
<path fill="none" stroke="#63b8ff" d="M893.42,-109.98C878.23,-101.69 854.9,-88.94 837.1,-79.22"/>
<polygon fill="#63b8ff" stroke="#63b8ff" points="838.32,-75.89 827.87,-74.17 834.97,-82.04 838.32,-75.89"/>
</a>
</g>
</g>
<!-- Node22 -->
<g id="Node000022" class="node">
<title>Node22</title>
<g id="a_Node000022"><a xlink:href="user_8hpp.html" target="_top" xlink:title=" ">
<polygon fill="white" stroke="#666666" points="1066,-74 1008,-74 1008,-55 1066,-55 1066,-74"/>
<text text-anchor="middle" x="1037" y="-62" font-family="Helvetica,sans-Serif" font-size="10.00">user.hpp</text>
</a>
</g>
</g>
<!-- Node18&#45;&gt;Node22 -->
<g id="edge35_Node000018_Node000022" class="edge">
<title>Node18&#45;&gt;Node22</title>
<g id="a_edge35_Node000018_Node000022"><a xlink:title=" ">
<path fill="none" stroke="#63b8ff" d="M929.57,-109.98C950.43,-101.34 982.97,-87.87 1006.77,-78.02"/>
<polygon fill="#63b8ff" stroke="#63b8ff" points="1008.16,-81.23 1016.06,-74.17 1005.48,-74.76 1008.16,-81.23"/>
</a>
</g>
</g>
<!-- Node20&#45;&gt;Node5 -->
<g id="edge32_Node000020_Node000005" class="edge">
<title>Node20&#45;&gt;Node5</title>
<g id="a_edge32_Node000020_Node000005"><a xlink:title=" ">
<path fill="none" stroke="#63b8ff" d="M780.83,-54.98C747.84,-45.97 695.6,-31.7 659.23,-21.76"/>
<polygon fill="#63b8ff" stroke="#63b8ff" points="659.98,-18.34 649.41,-19.08 658.14,-25.09 659.98,-18.34"/>
</a>
</g>
</g>
<!-- Node20&#45;&gt;Node6 -->
<g id="edge33_Node000020_Node000006" class="edge">
<title>Node20&#45;&gt;Node6</title>
<g id="a_edge33_Node000020_Node000006"><a xlink:title=" ">
<path fill="none" stroke="#63b8ff" d="M825.5,-54.98C838.4,-46.84 858.1,-34.41 873.4,-24.76"/>
<polygon fill="#63b8ff" stroke="#63b8ff" points="875.67,-27.47 882.26,-19.17 871.93,-21.55 875.67,-27.47"/>
</a>
</g>
</g>
<!-- Node20&#45;&gt;Node14 -->
<g id="edge34_Node000020_Node000014" class="edge">
<title>Node20&#45;&gt;Node14</title>
<g id="a_edge34_Node000020_Node000014"><a xlink:title=" ">
<path fill="none" stroke="#63b8ff" d="M801.72,-54.98C792.16,-47.07 777.72,-35.11 766.22,-25.58"/>
<polygon fill="#63b8ff" stroke="#63b8ff" points="768.4,-22.85 758.47,-19.17 763.94,-28.24 768.4,-22.85"/>
</a>
</g>
</g>
<!-- Node20&#45;&gt;Node21 -->
<g id="edge31_Node000020_Node000021" class="edge">
<title>Node20&#45;&gt;Node21</title>
<g id="a_edge31_Node000020_Node000021"><a xlink:title=" ">
<path fill="none" stroke="#63b8ff" d="M847.83,-56.53C850.93,-55.99 854.02,-55.47 857,-55 970.55,-37.12 1105.6,-21.66 1170.46,-14.59"/>
<polygon fill="#63b8ff" stroke="#63b8ff" points="1171.06,-18.05 1180.63,-13.49 1170.31,-11.09 1171.06,-18.05"/>
</a>
</g>
</g>
<!-- Node22&#45;&gt;Node6 -->
<g id="edge36_Node000022_Node000006" class="edge">
<title>Node22&#45;&gt;Node6</title>
<g id="a_edge36_Node000022_Node000006"><a xlink:title=" ">
<path fill="none" stroke="#63b8ff" d="M1014.35,-54.98C990.88,-46.16 954.01,-32.31 927.67,-22.4"/>
<polygon fill="#63b8ff" stroke="#63b8ff" points="928.73,-19.06 918.13,-18.82 926.26,-25.61 928.73,-19.06"/>
</a>
</g>
</g>
<!-- Node23&#45;&gt;Node3 -->
<g id="edge38_Node000023_Node000003" class="edge">
<title>Node23&#45;&gt;Node3</title>
<g id="a_edge38_Node000023_Node000003"><a xlink:title=" ">
<path fill="none" stroke="#63b8ff" d="M1064.38,-116.1C940.49,-107.7 534.35,-79.87 507,-74 453.22,-62.45 393.6,-38.19 359.67,-23.23"/>
<polygon fill="#63b8ff" stroke="#63b8ff" points="360.97,-19.97 350.41,-19.09 358.11,-26.36 360.97,-19.97"/>
</a>
</g>
</g>
<!-- Node23&#45;&gt;Node6 -->
<g id="edge39_Node000023_Node000006" class="edge">
<title>Node23&#45;&gt;Node6</title>
<g id="a_edge39_Node000023_Node000006"><a xlink:title=" ">
<path fill="none" stroke="#63b8ff" d="M1118.03,-109.86C1140.8,-97.82 1175.05,-75.19 1158,-55 1128.95,-20.59 991.86,-12.78 928.39,-11.02"/>
<polygon fill="#63b8ff" stroke="#63b8ff" points="928.23,-7.51 918.15,-10.77 928.06,-14.51 928.23,-7.51"/>
</a>
</g>
</g>
<!-- Node23&#45;&gt;Node14 -->
<g id="edge42_Node000023_Node000014" class="edge">
<title>Node23&#45;&gt;Node14</title>
<g id="a_edge42_Node000023_Node000014"><a xlink:title=" ">
<path fill="none" stroke="#63b8ff" d="M1108.65,-109.69C1120.65,-96.41 1139.33,-71.12 1125,-55 1113.61,-42.19 871.82,-20.82 781.57,-13.25"/>
<polygon fill="#63b8ff" stroke="#63b8ff" points="781.85,-9.77 771.59,-12.42 781.26,-16.74 781.85,-9.77"/>
</a>
</g>
</g>
<!-- Node23&#45;&gt;Node16 -->
<g id="edge40_Node000023_Node000016" class="edge">
<title>Node23&#45;&gt;Node16</title>
<g id="a_edge40_Node000023_Node000016"><a xlink:title=" ">
<path fill="none" stroke="#63b8ff" d="M1100,-109.75C1100,-102.8 1100,-92.85 1100,-84.13"/>
<polygon fill="#63b8ff" stroke="#63b8ff" points="1103.5,-84.09 1100,-74.09 1096.5,-84.09 1103.5,-84.09"/>
</a>
</g>
</g>
<!-- Node23&#45;&gt;Node17 -->
<g id="edge41_Node000023_Node000017" class="edge">
<title>Node23&#45;&gt;Node17</title>
<g id="a_edge41_Node000023_Node000017"><a xlink:title=" ">
<path fill="none" stroke="#63b8ff" d="M1125.22,-109.98C1151.36,-101.16 1192.4,-87.31 1221.73,-77.41"/>
<polygon fill="#63b8ff" stroke="#63b8ff" points="1223.22,-80.6 1231.58,-74.08 1220.98,-73.96 1223.22,-80.6"/>
</a>
</g>
</g>
<!-- Node23&#45;&gt;Node22 -->
<g id="edge43_Node000023_Node000022" class="edge">
<title>Node23&#45;&gt;Node22</title>
<g id="a_edge43_Node000023_Node000022"><a xlink:title=" ">
<path fill="none" stroke="#63b8ff" d="M1089.88,-109.98C1080.56,-102.15 1066.53,-90.34 1055.26,-80.86"/>
<polygon fill="#63b8ff" stroke="#63b8ff" points="1057.21,-77.93 1047.31,-74.17 1052.71,-83.29 1057.21,-77.93"/>
</a>
</g>
</g>
<!-- Node24&#45;&gt;Node3 -->
<g id="edge45_Node000024_Node000003" class="edge">
<title>Node24&#45;&gt;Node3</title>
<g id="a_edge45_Node000024_Node000003"><a xlink:title=" ">
<path fill="none" stroke="#63b8ff" d="M455.74,-170.3C393.77,-165.71 306.32,-154.74 285,-129 264.02,-103.67 272,-85.21 285,-55 290.15,-43.03 300.29,-32.76 309.83,-25.12"/>
<polygon fill="#63b8ff" stroke="#63b8ff" points="311.99,-27.88 317.93,-19.11 307.81,-22.26 311.99,-27.88"/>
</a>
</g>
</g>
<!-- Node24&#45;&gt;Node4 -->
<g id="edge47_Node000024_Node000004" class="edge">
<title>Node24&#45;&gt;Node4</title>
<g id="a_edge47_Node000024_Node000004"><a xlink:title=" ">
<path fill="none" stroke="#63b8ff" d="M494.94,-164.98C468.97,-156.16 428.19,-142.31 399.04,-132.41"/>
<polygon fill="#63b8ff" stroke="#63b8ff" points="399.85,-128.99 389.26,-129.08 397.6,-135.61 399.85,-128.99"/>
</a>
</g>
</g>
<!-- Node24&#45;&gt;Node14 -->
<g id="edge46_Node000024_Node000014" class="edge">
<title>Node24&#45;&gt;Node14</title>
<g id="a_edge46_Node000024_Node000014"><a xlink:title=" ">
<path fill="none" stroke="#63b8ff" d="M531.94,-164.97C568.79,-138.62 681.07,-58.35 727.53,-25.13"/>
<polygon fill="#63b8ff" stroke="#63b8ff" points="729.81,-27.81 735.91,-19.15 725.74,-22.11 729.81,-27.81"/>
</a>
</g>
</g>
</g>
</svg>
