<?xml version="1.0" encoding="UTF-8" standalone="no"?>
<!DOCTYPE svg PUBLIC "-//W3C//DTD SVG 1.1//EN"
 "http://www.w3.org/Graphics/SVG/1.1/DTD/svg11.dtd">
<!-- Generated by graphviz version 2.43.0 (0)
 -->
<!-- Title: src/client/process_input.cpp Pages: 1 -->
<svg width="1127pt" height="368pt"
 viewBox="0.00 0.00 1126.50 368.00" xmlns="http://www.w3.org/2000/svg" xmlns:xlink="http://www.w3.org/1999/xlink">
<g id="graph0" class="graph" transform="scale(1 1) rotate(0) translate(4 364)">
<title>src/client/process_input.cpp</title>
<!-- Node1 -->
<g id="Node000001" class="node">
<title>Node1</title>
<g id="a_Node000001"><a xlink:title=" ">
<polygon fill="#999999" stroke="#666666" points="329.5,-360 228.5,-360 228.5,-330 329.5,-330 329.5,-360"/>
<text text-anchor="start" x="236.5" y="-348" font-family="Helvetica,sans-Serif" font-size="10.00">src/client/process</text>
<text text-anchor="middle" x="279" y="-337" font-family="Helvetica,sans-Serif" font-size="10.00">_input.cpp</text>
</a>
</g>
</g>
<!-- Node2 -->
<g id="Node000002" class="node">
<title>Node2</title>
<g id="a_Node000002"><a xlink:title=" ">
<polygon fill="#e0e0e0" stroke="#999999" points="50,-294 0,-294 0,-275 50,-275 50,-294"/>
<text text-anchor="middle" x="25" y="-282" font-family="Helvetica,sans-Serif" font-size="10.00">cstring</text>
</a>
</g>
</g>
<!-- Node1&#45;&gt;Node2 -->
<g id="edge1_Node000001_Node000002" class="edge">
<title>Node1&#45;&gt;Node2</title>
<g id="a_edge1_Node000001_Node000002"><a xlink:title=" ">
<path fill="none" stroke="#63b8ff" d="M228.25,-332.79C185.79,-323.34 123.37,-309.27 60,-294.2"/>
<polygon fill="#63b8ff" stroke="#63b8ff" points="60.78,-290.79 50.24,-291.87 59.15,-297.6 60.78,-290.79"/>
</a>
</g>
</g>
<!-- Node3 -->
<g id="Node000003" class="node">
<title>Node3</title>
<g id="a_Node000003"><a xlink:title=" ">
<polygon fill="#e0e0e0" stroke="#999999" points="115.5,-294 68.5,-294 68.5,-275 115.5,-275 115.5,-294"/>
<text text-anchor="middle" x="92" y="-282" font-family="Helvetica,sans-Serif" font-size="10.00">fcntl.h</text>
</a>
</g>
</g>
<!-- Node1&#45;&gt;Node3 -->
<g id="edge2_Node000001_Node000003" class="edge">
<title>Node1&#45;&gt;Node3</title>
<g id="a_edge2_Node000001_Node000003"><a xlink:title=" ">
<path fill="none" stroke="#63b8ff" d="M234.21,-329.99C200.72,-319.51 155.66,-305.41 125.31,-295.92"/>
<polygon fill="#63b8ff" stroke="#63b8ff" points="126.21,-292.53 115.62,-292.89 124.12,-299.22 126.21,-292.53"/>
</a>
</g>
</g>
<!-- Node4 -->
<g id="Node000004" class="node">
<title>Node4</title>
<g id="a_Node000004"><a xlink:title=" ">
<polygon fill="#e0e0e0" stroke="#999999" points="669,-74 611,-74 611,-55 669,-55 669,-74"/>
<text text-anchor="middle" x="640" y="-62" font-family="Helvetica,sans-Serif" font-size="10.00">memory</text>
</a>
</g>
</g>
<!-- Node1&#45;&gt;Node4 -->
<g id="edge3_Node000001_Node000004" class="edge">
<title>Node1&#45;&gt;Node4</title>
<g id="a_edge3_Node000001_Node000004"><a xlink:title=" ">
<path fill="none" stroke="#63b8ff" d="M290.81,-329.78C324.75,-289.74 427.09,-174.75 535,-110 557.13,-96.72 583.95,-85.43 604.94,-77.54"/>
<polygon fill="#63b8ff" stroke="#63b8ff" points="606.25,-80.79 614.44,-74.05 603.84,-74.21 606.25,-80.79"/>
</a>
</g>
</g>
<!-- Node5 -->
<g id="Node000005" class="node">
<title>Node5</title>
<g id="a_Node000005"><a xlink:title=" ">
<polygon fill="#e0e0e0" stroke="#999999" points="232,-294 172,-294 172,-275 232,-275 232,-294"/>
<text text-anchor="middle" x="202" y="-282" font-family="Helvetica,sans-Serif" font-size="10.00">iostream</text>
</a>
</g>
</g>
<!-- Node1&#45;&gt;Node5 -->
<g id="edge4_Node000001_Node000005" class="edge">
<title>Node1&#45;&gt;Node5</title>
<g id="a_edge4_Node000001_Node000005"><a xlink:title=" ">
<path fill="none" stroke="#63b8ff" d="M260.36,-329.84C248.61,-320.91 233.47,-309.41 221.55,-300.35"/>
<polygon fill="#63b8ff" stroke="#63b8ff" points="223.62,-297.53 213.54,-294.27 219.38,-303.1 223.62,-297.53"/>
</a>
</g>
</g>
<!-- Node6 -->
<g id="Node000006" class="node">
<title>Node6</title>
<g id="a_Node000006"><a xlink:title=" ">
<polygon fill="#e0e0e0" stroke="#999999" points="245,-19 189,-19 189,0 245,0 245,-19"/>
<text text-anchor="middle" x="217" y="-7" font-family="Helvetica,sans-Serif" font-size="10.00">sstream</text>
</a>
</g>
</g>
<!-- Node1&#45;&gt;Node6 -->
<g id="edge5_Node000001_Node000006" class="edge">
<title>Node1&#45;&gt;Node6</title>
<g id="a_edge5_Node000001_Node000006"><a xlink:title=" ">
<path fill="none" stroke="#63b8ff" d="M228.34,-332.64C205.53,-325.15 179.99,-313.08 163,-294 143.41,-271.99 144,-259.96 144,-230.5 144,-230.5 144,-230.5 144,-118.5 144,-79.97 176.29,-44.92 197.92,-25.77"/>
<polygon fill="#63b8ff" stroke="#63b8ff" points="200.25,-28.38 205.59,-19.23 195.71,-23.05 200.25,-28.38"/>
</a>
</g>
</g>
<!-- Node7 -->
<g id="Node000007" class="node">
<title>Node7</title>
<g id="a_Node000007"><a xlink:title=" ">
<polygon fill="#e0e0e0" stroke="#999999" points="331,-74 275,-74 275,-55 331,-55 331,-74"/>
<text text-anchor="middle" x="303" y="-62" font-family="Helvetica,sans-Serif" font-size="10.00">unistd.h</text>
</a>
</g>
</g>
<!-- Node1&#45;&gt;Node7 -->
<g id="edge6_Node000001_Node000007" class="edge">
<title>Node1&#45;&gt;Node7</title>
<g id="a_edge6_Node000001_Node000007"><a xlink:title=" ">
<path fill="none" stroke="#63b8ff" d="M282.94,-329.79C288.5,-308.43 298,-266.66 298,-230.5 298,-230.5 298,-230.5 298,-173.5 298,-142.16 300.13,-105.75 301.61,-84.22"/>
<polygon fill="#63b8ff" stroke="#63b8ff" points="305.1,-84.4 302.33,-74.17 298.12,-83.9 305.1,-84.4"/>
</a>
</g>
</g>
<!-- Node8 -->
<g id="Node000008" class="node">
<title>Node8</title>
<g id="a_Node000008"><a xlink:title=" ">
<polygon fill="#e0e0e0" stroke="#999999" points="382.5,-19 335.5,-19 335.5,0 382.5,0 382.5,-19"/>
<text text-anchor="middle" x="359" y="-7" font-family="Helvetica,sans-Serif" font-size="10.00">vector</text>
</a>
</g>
</g>
<!-- Node1&#45;&gt;Node8 -->
<g id="edge7_Node000001_Node000008" class="edge">
<title>Node1&#45;&gt;Node8</title>
<g id="a_edge7_Node000001_Node000008"><a xlink:title=" ">
<path fill="none" stroke="#63b8ff" d="M273.2,-329.94C255.84,-285.47 208.97,-145.51 266,-55 278.96,-34.44 304.33,-23.17 325.31,-17.12"/>
<polygon fill="#63b8ff" stroke="#63b8ff" points="326.38,-20.46 335.18,-14.55 324.62,-13.68 326.38,-20.46"/>
</a>
</g>
</g>
<!-- Node9 -->
<g id="Node000009" class="node">
<title>Node9</title>
<g id="a_Node000009"><a xlink:href="fileinfo_8hpp.html" target="_top" xlink:title=" ">
<polygon fill="white" stroke="#666666" points="806.5,-74 687.5,-74 687.5,-55 806.5,-55 806.5,-74"/>
<text text-anchor="middle" x="747" y="-62" font-family="Helvetica,sans-Serif" font-size="10.00">../models/fileinfo.hpp</text>
</a>
</g>
</g>
<!-- Node1&#45;&gt;Node9 -->
<g id="edge8_Node000001_Node000009" class="edge">
<title>Node1&#45;&gt;Node9</title>
<g id="a_edge8_Node000001_Node000009"><a xlink:title=" ">
<path fill="none" stroke="#63b8ff" d="M329.7,-335.15C413.56,-319.05 572,-281.85 572,-230.5 572,-230.5 572,-230.5 572,-173.5 572,-117.77 637.06,-89.85 687.84,-76.54"/>
<polygon fill="#63b8ff" stroke="#63b8ff" points="688.93,-79.88 697.79,-74.07 687.24,-73.09 688.93,-79.88"/>
</a>
</g>
</g>
<!-- Node12 -->
<g id="Node000012" class="node">
<title>Node12</title>
<g id="a_Node000012"><a xlink:href="file__io_8hpp.html" target="_top" xlink:title=" ">
<polygon fill="white" stroke="#666666" points="543.5,-184 476.5,-184 476.5,-165 543.5,-165 543.5,-184"/>
<text text-anchor="middle" x="510" y="-172" font-family="Helvetica,sans-Serif" font-size="10.00">file_io.hpp</text>
</a>
</g>
</g>
<!-- Node1&#45;&gt;Node12 -->
<g id="edge13_Node000001_Node000012" class="edge">
<title>Node1&#45;&gt;Node12</title>
<g id="a_edge13_Node000001_Node000012"><a xlink:title=" ">
<path fill="none" stroke="#63b8ff" d="M329.77,-342.1C370.09,-338.03 425.56,-326.37 462,-294 491.63,-267.68 503.28,-220.42 507.62,-194.24"/>
<polygon fill="#63b8ff" stroke="#63b8ff" points="511.11,-194.54 509.09,-184.14 504.18,-193.52 511.11,-194.54"/>
</a>
</g>
</g>
<!-- Node17 -->
<g id="Node000017" class="node">
<title>Node17</title>
<g id="a_Node000017"><a xlink:href="process__input_8hpp.html" target="_top" xlink:title=" ">
<polygon fill="white" stroke="#666666" points="743.5,-294 638.5,-294 638.5,-275 743.5,-275 743.5,-294"/>
<text text-anchor="middle" x="691" y="-282" font-family="Helvetica,sans-Serif" font-size="10.00">process_input.hpp</text>
</a>
</g>
</g>
<!-- Node1&#45;&gt;Node17 -->
<g id="edge23_Node000001_Node000017" class="edge">
<title>Node1&#45;&gt;Node17</title>
<g id="a_edge23_Node000001_Node000017"><a xlink:title=" ">
<path fill="none" stroke="#63b8ff" d="M329.52,-336.83C404.91,-326.12 546.73,-305.98 628.53,-294.37"/>
<polygon fill="#63b8ff" stroke="#63b8ff" points="629.03,-297.83 638.44,-292.96 628.05,-290.9 629.03,-297.83"/>
</a>
</g>
</g>
<!-- Node9&#45;&gt;Node6 -->
<g id="edge9_Node000009_Node000006" class="edge">
<title>Node9&#45;&gt;Node6</title>
<g id="a_edge9_Node000009_Node000006"><a xlink:title=" ">
<path fill="none" stroke="#63b8ff" d="M687.17,-56.03C684.07,-55.68 681,-55.33 678,-55 521.19,-37.78 333.97,-20.82 255.05,-13.83"/>
<polygon fill="#63b8ff" stroke="#63b8ff" points="255.36,-10.34 245.09,-12.95 254.74,-17.32 255.36,-10.34"/>
</a>
</g>
</g>
<!-- Node9&#45;&gt;Node8 -->
<g id="edge12_Node000009_Node000008" class="edge">
<title>Node9&#45;&gt;Node8</title>
<g id="a_edge12_Node000009_Node000008"><a xlink:title=" ">
<path fill="none" stroke="#63b8ff" d="M687.23,-55.33C604.67,-44.06 458.5,-24.09 392.72,-15.11"/>
<polygon fill="#63b8ff" stroke="#63b8ff" points="392.89,-11.6 382.51,-13.71 391.95,-18.53 392.89,-11.6"/>
</a>
</g>
</g>
<!-- Node10 -->
<g id="Node000010" class="node">
<title>Node10</title>
<g id="a_Node000010"><a xlink:title=" ">
<polygon fill="#e0e0e0" stroke="#999999" points="779.5,-19 714.5,-19 714.5,0 779.5,0 779.5,-19"/>
<text text-anchor="middle" x="747" y="-7" font-family="Helvetica,sans-Serif" font-size="10.00">stdexcept</text>
</a>
</g>
</g>
<!-- Node9&#45;&gt;Node10 -->
<g id="edge10_Node000009_Node000010" class="edge">
<title>Node9&#45;&gt;Node10</title>
<g id="a_edge10_Node000009_Node000010"><a xlink:title=" ">
<path fill="none" stroke="#63b8ff" d="M747,-54.75C747,-47.8 747,-37.85 747,-29.13"/>
<polygon fill="#63b8ff" stroke="#63b8ff" points="750.5,-29.09 747,-19.09 743.5,-29.09 750.5,-29.09"/>
</a>
</g>
</g>
<!-- Node11 -->
<g id="Node000011" class="node">
<title>Node11</title>
<g id="a_Node000011"><a xlink:title=" ">
<polygon fill="#e0e0e0" stroke="#999999" points="842,-19 798,-19 798,0 842,0 842,-19"/>
<text text-anchor="middle" x="820" y="-7" font-family="Helvetica,sans-Serif" font-size="10.00">string</text>
</a>
</g>
</g>
<!-- Node9&#45;&gt;Node11 -->
<g id="edge11_Node000009_Node000011" class="edge">
<title>Node9&#45;&gt;Node11</title>
<g id="a_edge11_Node000009_Node000011"><a xlink:title=" ">
<path fill="none" stroke="#63b8ff" d="M758.73,-54.98C769.73,-47 786.42,-34.88 799.6,-25.31"/>
<polygon fill="#63b8ff" stroke="#63b8ff" points="802.02,-27.88 808.06,-19.17 797.91,-22.21 802.02,-27.88"/>
</a>
</g>
</g>
<!-- Node12&#45;&gt;Node4 -->
<g id="edge14_Node000012_Node000004" class="edge">
<title>Node12&#45;&gt;Node4</title>
<g id="a_edge14_Node000012_Node000004"><a xlink:title=" ">
<path fill="none" stroke="#63b8ff" d="M514.93,-164.76C522.72,-151.58 538.93,-126.4 558,-110 573.29,-96.84 593.12,-85.96 609.44,-78.24"/>
<polygon fill="#63b8ff" stroke="#63b8ff" points="610.94,-81.41 618.59,-74.08 608.04,-75.04 610.94,-81.41"/>
</a>
</g>
</g>
<!-- Node13 -->
<g id="Node000013" class="node">
<title>Node13</title>
<g id="a_Node000013"><a xlink:href="file_8hpp.html" target="_top" xlink:title=" ">
<polygon fill="white" stroke="#666666" points="765.5,-129 664.5,-129 664.5,-110 765.5,-110 765.5,-129"/>
<text text-anchor="middle" x="715" y="-117" font-family="Helvetica,sans-Serif" font-size="10.00">../models/file.hpp</text>
</a>
</g>
</g>
<!-- Node12&#45;&gt;Node13 -->
<g id="edge15_Node000012_Node000013" class="edge">
<title>Node12&#45;&gt;Node13</title>
<g id="a_edge15_Node000012_Node000013"><a xlink:title=" ">
<path fill="none" stroke="#63b8ff" d="M542.94,-164.98C577.95,-155.93 633.47,-141.58 671.93,-131.64"/>
<polygon fill="#63b8ff" stroke="#63b8ff" points="673,-134.97 681.81,-129.08 671.25,-128.2 673,-134.97"/>
</a>
</g>
</g>
<!-- Node13&#45;&gt;Node4 -->
<g id="edge16_Node000013_Node000004" class="edge">
<title>Node13&#45;&gt;Node4</title>
<g id="a_edge16_Node000013_Node000004"><a xlink:title=" ">
<path fill="none" stroke="#63b8ff" d="M702.95,-109.98C691.54,-101.92 674.17,-89.65 660.57,-80.03"/>
<polygon fill="#63b8ff" stroke="#63b8ff" points="662.46,-77.08 652.27,-74.17 658.42,-82.8 662.46,-77.08"/>
</a>
</g>
</g>
<!-- Node13&#45;&gt;Node9 -->
<g id="edge22_Node000013_Node000009" class="edge">
<title>Node13&#45;&gt;Node9</title>
<g id="a_edge22_Node000013_Node000009"><a xlink:title=" ">
<path fill="none" stroke="#63b8ff" d="M720.28,-109.75C724.71,-102.42 731.16,-91.73 736.62,-82.7"/>
<polygon fill="#63b8ff" stroke="#63b8ff" points="739.64,-84.46 741.81,-74.09 733.65,-80.84 739.64,-84.46"/>
</a>
</g>
</g>
<!-- Node14 -->
<g id="Node000014" class="node">
<title>Node14</title>
<g id="a_Node000014"><a xlink:title=" ">
<polygon fill="#e0e0e0" stroke="#999999" points="1025,-74 939,-74 939,-55 1025,-55 1025,-74"/>
<text text-anchor="middle" x="982" y="-62" font-family="Helvetica,sans-Serif" font-size="10.00">unordered_set</text>
</a>
</g>
</g>
<!-- Node13&#45;&gt;Node14 -->
<g id="edge17_Node000013_Node000014" class="edge">
<title>Node13&#45;&gt;Node14</title>
<g id="a_edge17_Node000013_Node000014"><a xlink:title=" ">
<path fill="none" stroke="#63b8ff" d="M757.9,-109.98C804.37,-100.76 878.59,-86.03 928.76,-76.07"/>
<polygon fill="#63b8ff" stroke="#63b8ff" points="929.64,-79.46 938.77,-74.08 928.28,-72.6 929.64,-79.46"/>
</a>
</g>
</g>
<!-- Node15 -->
<g id="Node000015" class="node">
<title>Node15</title>
<g id="a_Node000015"><a xlink:href="endpoint_8hpp.html" target="_top" xlink:title=" ">
<polygon fill="white" stroke="#666666" points="905,-74 825,-74 825,-55 905,-55 905,-74"/>
<text text-anchor="middle" x="865" y="-62" font-family="Helvetica,sans-Serif" font-size="10.00">endpoint.hpp</text>
</a>
</g>
</g>
<!-- Node13&#45;&gt;Node15 -->
<g id="edge18_Node000013_Node000015" class="edge">
<title>Node13&#45;&gt;Node15</title>
<g id="a_edge18_Node000013_Node000015"><a xlink:title=" ">
<path fill="none" stroke="#63b8ff" d="M739.1,-109.98C763.88,-101.23 802.7,-87.51 830.69,-77.62"/>
<polygon fill="#63b8ff" stroke="#63b8ff" points="832.2,-80.8 840.46,-74.17 829.87,-74.2 832.2,-80.8"/>
</a>
</g>
</g>
<!-- Node15&#45;&gt;Node10 -->
<g id="edge20_Node000015_Node000010" class="edge">
<title>Node15&#45;&gt;Node10</title>
<g id="a_edge20_Node000015_Node000010"><a xlink:title=" ">
<path fill="none" stroke="#63b8ff" d="M846.04,-54.98C826.97,-46.42 797.34,-33.11 775.45,-23.28"/>
<polygon fill="#63b8ff" stroke="#63b8ff" points="776.86,-20.07 766.3,-19.17 773.99,-26.46 776.86,-20.07"/>
</a>
</g>
</g>
<!-- Node15&#45;&gt;Node11 -->
<g id="edge21_Node000015_Node000011" class="edge">
<title>Node15&#45;&gt;Node11</title>
<g id="a_edge21_Node000015_Node000011"><a xlink:title=" ">
<path fill="none" stroke="#63b8ff" d="M857.57,-54.75C851.15,-47.18 841.69,-36.05 833.88,-26.84"/>
<polygon fill="#63b8ff" stroke="#63b8ff" points="836.43,-24.45 827.29,-19.09 831.1,-28.98 836.43,-24.45"/>
</a>
</g>
</g>
<!-- Node16 -->
<g id="Node000016" class="node">
<title>Node16</title>
<g id="a_Node000016"><a xlink:title=" ">
<polygon fill="#e0e0e0" stroke="#999999" points="910,-19 860,-19 860,0 910,0 910,-19"/>
<text text-anchor="middle" x="885" y="-7" font-family="Helvetica,sans-Serif" font-size="10.00">cstdint</text>
</a>
</g>
</g>
<!-- Node15&#45;&gt;Node16 -->
<g id="edge19_Node000015_Node000016" class="edge">
<title>Node15&#45;&gt;Node16</title>
<g id="a_edge19_Node000015_Node000016"><a xlink:title=" ">
<path fill="none" stroke="#63b8ff" d="M868.3,-54.75C870.98,-47.65 874.85,-37.4 878.19,-28.56"/>
<polygon fill="#63b8ff" stroke="#63b8ff" points="881.5,-29.68 881.76,-19.09 874.95,-27.21 881.5,-29.68"/>
</a>
</g>
</g>
<!-- Node18 -->
<g id="Node000018" class="node">
<title>Node18</title>
<g id="a_Node000018"><a xlink:href="downloadmanager_8hpp.html" target="_top" xlink:title=" ">
<polygon fill="white" stroke="#666666" points="793,-239 665,-239 665,-220 793,-220 793,-239"/>
<text text-anchor="middle" x="729" y="-227" font-family="Helvetica,sans-Serif" font-size="10.00">downloadmanager.hpp</text>
</a>
</g>
</g>
<!-- Node17&#45;&gt;Node18 -->
<g id="edge24_Node000017_Node000018" class="edge">
<title>Node17&#45;&gt;Node18</title>
<g id="a_edge24_Node000017_Node000018"><a xlink:title=" ">
<path fill="none" stroke="#63b8ff" d="M697.27,-274.75C702.59,-267.34 710.36,-256.5 716.88,-247.41"/>
<polygon fill="#63b8ff" stroke="#63b8ff" points="719.86,-249.26 722.84,-239.09 714.17,-245.18 719.86,-249.26"/>
</a>
</g>
</g>
<!-- Node19 -->
<g id="Node000019" class="node">
<title>Node19</title>
<g id="a_Node000019"><a xlink:title=" ">
<polygon fill="#e0e0e0" stroke="#999999" points="650,-184 600,-184 600,-165 650,-165 650,-184"/>
<text text-anchor="middle" x="625" y="-172" font-family="Helvetica,sans-Serif" font-size="10.00">atomic</text>
</a>
</g>
</g>
<!-- Node18&#45;&gt;Node19 -->
<g id="edge25_Node000018_Node000019" class="edge">
<title>Node18&#45;&gt;Node19</title>
<g id="a_edge25_Node000018_Node000019"><a xlink:title=" ">
<path fill="none" stroke="#63b8ff" d="M712.29,-219.98C695.79,-211.57 670.3,-198.59 651.12,-188.81"/>
<polygon fill="#63b8ff" stroke="#63b8ff" points="652.51,-185.59 642.01,-184.17 649.33,-191.83 652.51,-185.59"/>
</a>
</g>
</g>
<!-- Node20 -->
<g id="Node000020" class="node">
<title>Node20</title>
<g id="a_Node000020"><a xlink:title=" ">
<polygon fill="#e0e0e0" stroke="#999999" points="715.5,-184 668.5,-184 668.5,-165 715.5,-165 715.5,-184"/>
<text text-anchor="middle" x="692" y="-172" font-family="Helvetica,sans-Serif" font-size="10.00">deque</text>
</a>
</g>
</g>
<!-- Node18&#45;&gt;Node20 -->
<g id="edge26_Node000018_Node000020" class="edge">
<title>Node18&#45;&gt;Node20</title>
<g id="a_edge26_Node000018_Node000020"><a xlink:title=" ">
<path fill="none" stroke="#63b8ff" d="M722.89,-219.75C717.72,-212.34 710.15,-201.5 703.81,-192.41"/>
<polygon fill="#63b8ff" stroke="#63b8ff" points="706.59,-190.29 698,-184.09 700.85,-194.29 706.59,-190.29"/>
</a>
</g>
</g>
<!-- Node21 -->
<g id="Node000021" class="node">
<title>Node21</title>
<g id="a_Node000021"><a xlink:title=" ">
<polygon fill="#e0e0e0" stroke="#999999" points="798.5,-184 733.5,-184 733.5,-165 798.5,-165 798.5,-184"/>
<text text-anchor="middle" x="766" y="-172" font-family="Helvetica,sans-Serif" font-size="10.00">functional</text>
</a>
</g>
</g>
<!-- Node18&#45;&gt;Node21 -->
<g id="edge27_Node000018_Node000021" class="edge">
<title>Node18&#45;&gt;Node21</title>
<g id="a_edge27_Node000018_Node000021"><a xlink:title=" ">
<path fill="none" stroke="#63b8ff" d="M735.11,-219.75C740.28,-212.34 747.85,-201.5 754.19,-192.41"/>
<polygon fill="#63b8ff" stroke="#63b8ff" points="757.15,-194.29 760,-184.09 751.41,-190.29 757.15,-194.29"/>
</a>
</g>
</g>
<!-- Node22 -->
<g id="Node000022" class="node">
<title>Node22</title>
<g id="a_Node000022"><a xlink:title=" ">
<polygon fill="#e0e0e0" stroke="#999999" points="865,-184 817,-184 817,-165 865,-165 865,-184"/>
<text text-anchor="middle" x="841" y="-172" font-family="Helvetica,sans-Serif" font-size="10.00">thread</text>
</a>
</g>
</g>
<!-- Node18&#45;&gt;Node22 -->
<g id="edge28_Node000018_Node000022" class="edge">
<title>Node18&#45;&gt;Node22</title>
<g id="a_edge28_Node000018_Node000022"><a xlink:title=" ">
<path fill="none" stroke="#63b8ff" d="M746.99,-219.98C764.93,-211.5 792.72,-198.35 813.43,-188.54"/>
<polygon fill="#63b8ff" stroke="#63b8ff" points="815.14,-191.61 822.68,-184.17 812.14,-185.28 815.14,-191.61"/>
</a>
</g>
</g>
<!-- Node23 -->
<g id="Node000023" class="node">
<title>Node23</title>
<g id="a_Node000023"><a xlink:href="tcp__socket_8hpp.html" target="_top" xlink:title=" ">
<polygon fill="white" stroke="#666666" points="467.5,-129 326.5,-129 326.5,-110 467.5,-110 467.5,-129"/>
<text text-anchor="middle" x="397" y="-117" font-family="Helvetica,sans-Serif" font-size="10.00">../network/tcp_socket.hpp</text>
</a>
</g>
</g>
<!-- Node18&#45;&gt;Node23 -->
<g id="edge29_Node000018_Node000023" class="edge">
<title>Node18&#45;&gt;Node23</title>
<g id="a_edge29_Node000018_Node000023"><a xlink:title=" ">
<path fill="none" stroke="#63b8ff" d="M664.82,-227.57C609.82,-224.5 529.76,-214.51 467,-184 444.06,-172.85 423.16,-151.82 410.29,-137.02"/>
<polygon fill="#63b8ff" stroke="#63b8ff" points="412.79,-134.56 403.68,-129.15 407.43,-139.06 412.79,-134.56"/>
</a>
</g>
</g>
<!-- Node26 -->
<g id="Node000026" class="node">
<title>Node26</title>
<g id="a_Node000026"><a xlink:href="filesdb_8hpp.html" target="_top" xlink:title=" ">
<polygon fill="white" stroke="#666666" points="1043,-184 973,-184 973,-165 1043,-165 1043,-184"/>
<text text-anchor="middle" x="1008" y="-172" font-family="Helvetica,sans-Serif" font-size="10.00">filesdb.hpp</text>
</a>
</g>
</g>
<!-- Node18&#45;&gt;Node26 -->
<g id="edge36_Node000018_Node000026" class="edge">
<title>Node18&#45;&gt;Node26</title>
<g id="a_edge36_Node000018_Node000026"><a xlink:title=" ">
<path fill="none" stroke="#63b8ff" d="M774.5,-219.94C819.72,-211.41 891.34,-197.88 962.85,-184.21"/>
<polygon fill="#63b8ff" stroke="#63b8ff" points="963.77,-187.6 972.94,-182.29 962.46,-180.73 963.77,-187.6"/>
</a>
</g>
</g>
<!-- Node31 -->
<g id="Node000031" class="node">
<title>Node31</title>
<g id="a_Node000031"><a xlink:href="peerdb_8hpp.html" target="_top" xlink:title=" ">
<polygon fill="white" stroke="#666666" points="954.5,-184 883.5,-184 883.5,-165 954.5,-165 954.5,-184"/>
<text text-anchor="middle" x="919" y="-172" font-family="Helvetica,sans-Serif" font-size="10.00">peerdb.hpp</text>
</a>
</g>
</g>
<!-- Node18&#45;&gt;Node31 -->
<g id="edge45_Node000018_Node000031" class="edge">
<title>Node18&#45;&gt;Node31</title>
<g id="a_edge45_Node000018_Node000031"><a xlink:title=" ">
<path fill="none" stroke="#63b8ff" d="M759.53,-219.98C791.7,-211.01 842.56,-196.82 878.17,-186.89"/>
<polygon fill="#63b8ff" stroke="#63b8ff" points="879.54,-190.14 888.23,-184.08 877.66,-183.4 879.54,-190.14"/>
</a>
</g>
</g>
<!-- Node23&#45;&gt;Node4 -->
<g id="edge30_Node000023_Node000004" class="edge">
<title>Node23&#45;&gt;Node4</title>
<g id="a_edge30_Node000023_Node000004"><a xlink:title=" ">
<path fill="none" stroke="#63b8ff" d="M436.7,-109.96C475.91,-101.51 537.87,-88.11 600.85,-74.24"/>
<polygon fill="#63b8ff" stroke="#63b8ff" points="601.95,-77.59 610.96,-72.02 600.44,-70.75 601.95,-77.59"/>
</a>
</g>
</g>
<!-- Node23&#45;&gt;Node7 -->
<g id="edge34_Node000023_Node000007" class="edge">
<title>Node23&#45;&gt;Node7</title>
<g id="a_edge34_Node000023_Node000007"><a xlink:title=" ">
<path fill="none" stroke="#63b8ff" d="M381.9,-109.98C367.18,-101.69 344.58,-88.94 327.33,-79.22"/>
<polygon fill="#63b8ff" stroke="#63b8ff" points="328.81,-76.03 318.38,-74.17 325.37,-82.13 328.81,-76.03"/>
</a>
</g>
</g>
<!-- Node23&#45;&gt;Node8 -->
<g id="edge35_Node000023_Node000008" class="edge">
<title>Node23&#45;&gt;Node8</title>
<g id="a_edge35_Node000023_Node000008"><a xlink:title=" ">
<path fill="none" stroke="#63b8ff" d="M393.89,-109.66C387.68,-92.01 373.63,-52.09 365.38,-28.64"/>
<polygon fill="#63b8ff" stroke="#63b8ff" points="368.67,-27.43 362.05,-19.16 362.06,-29.75 368.67,-27.43"/>
</a>
</g>
</g>
<!-- Node23&#45;&gt;Node11 -->
<g id="edge32_Node000023_Node000011" class="edge">
<title>Node23&#45;&gt;Node11</title>
<g id="a_edge32_Node000023_Node000011"><a xlink:title=" ">
<path fill="none" stroke="#63b8ff" d="M396.78,-109.9C396.93,-95.96 399.47,-68.59 416,-55 478.06,-3.97 691.36,-31.92 787.7,-18.7"/>
<polygon fill="#63b8ff" stroke="#63b8ff" points="788.44,-22.13 797.75,-17.09 787.33,-15.22 788.44,-22.13"/>
</a>
</g>
</g>
<!-- Node24 -->
<g id="Node000024" class="node">
<title>Node24</title>
<g id="a_Node000024"><a xlink:title=" ">
<polygon fill="#e0e0e0" stroke="#999999" points="497,-74 425,-74 425,-55 497,-55 497,-74"/>
<text text-anchor="middle" x="461" y="-62" font-family="Helvetica,sans-Serif" font-size="10.00">netinet/in.h</text>
</a>
</g>
</g>
<!-- Node23&#45;&gt;Node24 -->
<g id="edge31_Node000023_Node000024" class="edge">
<title>Node23&#45;&gt;Node24</title>
<g id="a_edge31_Node000023_Node000024"><a xlink:title=" ">
<path fill="none" stroke="#63b8ff" d="M407.28,-109.98C416.84,-102.07 431.28,-90.11 442.78,-80.58"/>
<polygon fill="#63b8ff" stroke="#63b8ff" points="445.06,-83.24 450.53,-74.17 440.6,-77.85 445.06,-83.24"/>
</a>
</g>
</g>
<!-- Node25 -->
<g id="Node000025" class="node">
<title>Node25</title>
<g id="a_Node000025"><a xlink:title=" ">
<polygon fill="#e0e0e0" stroke="#999999" points="592.5,-74 515.5,-74 515.5,-55 592.5,-55 592.5,-74"/>
<text text-anchor="middle" x="554" y="-62" font-family="Helvetica,sans-Serif" font-size="10.00">sys/socket.h</text>
</a>
</g>
</g>
<!-- Node23&#45;&gt;Node25 -->
<g id="edge33_Node000023_Node000025" class="edge">
<title>Node23&#45;&gt;Node25</title>
<g id="a_edge33_Node000023_Node000025"><a xlink:title=" ">
<path fill="none" stroke="#63b8ff" d="M422.22,-109.98C448.36,-101.16 489.4,-87.31 518.73,-77.41"/>
<polygon fill="#63b8ff" stroke="#63b8ff" points="520.22,-80.6 528.58,-74.08 517.98,-73.96 520.22,-80.6"/>
</a>
</g>
</g>
<!-- Node27 -->
<g id="Node000027" class="node">
<title>Node27</title>
<g id="a_Node000027"><a xlink:title=" ">
<polygon fill="#e0e0e0" stroke="#999999" points="943,-129 895,-129 895,-110 943,-110 943,-129"/>
<text text-anchor="middle" x="919" y="-117" font-family="Helvetica,sans-Serif" font-size="10.00">mutex</text>
</a>
</g>
</g>
<!-- Node26&#45;&gt;Node27 -->
<g id="edge37_Node000026_Node000027" class="edge">
<title>Node26&#45;&gt;Node27</title>
<g id="a_edge37_Node000026_Node000027"><a xlink:title=" ">
<path fill="none" stroke="#63b8ff" d="M993.7,-164.98C979.9,-156.77 958.76,-144.18 942.49,-134.49"/>
<polygon fill="#63b8ff" stroke="#63b8ff" points="943.94,-131.28 933.56,-129.17 940.36,-137.29 943.94,-131.28"/>
</a>
</g>
</g>
<!-- Node28 -->
<g id="Node000028" class="node">
<title>Node28</title>
<g id="a_Node000028"><a xlink:title=" ">
<polygon fill="#e0e0e0" stroke="#999999" points="876.5,-129 783.5,-129 783.5,-110 876.5,-110 876.5,-129"/>
<text text-anchor="middle" x="830" y="-117" font-family="Helvetica,sans-Serif" font-size="10.00">unordered_map</text>
</a>
</g>
</g>
<!-- Node26&#45;&gt;Node28 -->
<g id="edge38_Node000026_Node000028" class="edge">
<title>Node26&#45;&gt;Node28</title>
<g id="a_edge38_Node000026_Node000028"><a xlink:title=" ">
<path fill="none" stroke="#63b8ff" d="M979.4,-164.98C949.39,-156.05 902.02,-141.94 868.68,-132.02"/>
<polygon fill="#63b8ff" stroke="#63b8ff" points="869.41,-128.58 858.82,-129.08 867.41,-135.29 869.41,-128.58"/>
</a>
</g>
</g>
<!-- Node29 -->
<g id="Node000029" class="node">
<title>Node29</title>
<g id="a_Node000029"><a xlink:href="file__id_8hpp.html" target="_top" xlink:title=" ">
<polygon fill="white" stroke="#666666" points="1118.5,-129 1051.5,-129 1051.5,-110 1118.5,-110 1118.5,-129"/>
<text text-anchor="middle" x="1085" y="-117" font-family="Helvetica,sans-Serif" font-size="10.00">file_id.hpp</text>
</a>
</g>
</g>
<!-- Node26&#45;&gt;Node29 -->
<g id="edge39_Node000026_Node000029" class="edge">
<title>Node26&#45;&gt;Node29</title>
<g id="a_edge39_Node000026_Node000029"><a xlink:title=" ">
<path fill="none" stroke="#63b8ff" d="M1020.37,-164.98C1032.09,-156.92 1049.92,-144.65 1063.89,-135.03"/>
<polygon fill="#63b8ff" stroke="#63b8ff" points="1066.15,-137.72 1072.4,-129.17 1062.18,-131.96 1066.15,-137.72"/>
</a>
</g>
</g>
<!-- Node30 -->
<g id="Node000030" class="node">
<title>Node30</title>
<g id="a_Node000030"><a xlink:href="partfile_8hpp.html" target="_top" xlink:title=" ">
<polygon fill="white" stroke="#666666" points="1033,-129 961,-129 961,-110 1033,-110 1033,-129"/>
<text text-anchor="middle" x="997" y="-117" font-family="Helvetica,sans-Serif" font-size="10.00">partfile.hpp</text>
</a>
</g>
</g>
<!-- Node26&#45;&gt;Node30 -->
<g id="edge41_Node000026_Node000030" class="edge">
<title>Node26&#45;&gt;Node30</title>
<g id="a_edge41_Node000026_Node000030"><a xlink:title=" ">
<path fill="none" stroke="#63b8ff" d="M1006.18,-164.75C1004.74,-157.8 1002.68,-147.85 1000.87,-139.13"/>
<polygon fill="#63b8ff" stroke="#63b8ff" points="1004.24,-138.17 998.78,-129.09 997.39,-139.59 1004.24,-138.17"/>
</a>
</g>
</g>
<!-- Node29&#45;&gt;Node11 -->
<g id="edge40_Node000029_Node000011" class="edge">
<title>Node29&#45;&gt;Node11</title>
<g id="a_edge40_Node000029_Node000011"><a xlink:title=" ">
<path fill="none" stroke="#63b8ff" d="M1080.69,-109.91C1073.23,-95.97 1056.5,-68.62 1034,-55 965.85,-13.76 934.2,-36.05 852.52,-19.09"/>
<polygon fill="#63b8ff" stroke="#63b8ff" points="852.82,-15.58 842.3,-16.83 851.3,-22.41 852.82,-15.58"/>
</a>
</g>
</g>
<!-- Node30&#45;&gt;Node4 -->
<g id="edge42_Node000030_Node000004" class="edge">
<title>Node30&#45;&gt;Node4</title>
<g id="a_edge42_Node000030_Node000004"><a xlink:title=" ">
<path fill="none" stroke="#63b8ff" d="M960.68,-111.46C957.75,-110.95 954.83,-110.45 952,-110 834.34,-91.15 801.29,-94.83 679.43,-73.92"/>
<polygon fill="#63b8ff" stroke="#63b8ff" points="679.79,-70.43 669.34,-72.17 678.59,-77.33 679.79,-70.43"/>
</a>
</g>
</g>
<!-- Node30&#45;&gt;Node9 -->
<g id="edge44_Node000030_Node000009" class="edge">
<title>Node30&#45;&gt;Node9</title>
<g id="a_edge44_Node000030_Node000009"><a xlink:title=" ">
<path fill="none" stroke="#63b8ff" d="M960.91,-110.85C917.87,-101.72 845.65,-86.41 797.18,-76.14"/>
<polygon fill="#63b8ff" stroke="#63b8ff" points="797.72,-72.68 787.22,-74.03 796.27,-79.52 797.72,-72.68"/>
</a>
</g>
</g>
<!-- Node30&#45;&gt;Node14 -->
<g id="edge43_Node000030_Node000014" class="edge">
<title>Node30&#45;&gt;Node14</title>
<g id="a_edge43_Node000030_Node000014"><a xlink:title=" ">
<path fill="none" stroke="#63b8ff" d="M994.52,-109.75C992.54,-102.72 989.68,-92.62 987.19,-83.84"/>
<polygon fill="#63b8ff" stroke="#63b8ff" points="990.52,-82.76 984.43,-74.09 983.79,-84.66 990.52,-82.76"/>
</a>
</g>
</g>
<!-- Node31&#45;&gt;Node13 -->
<g id="edge48_Node000031_Node000013" class="edge">
<title>Node31&#45;&gt;Node13</title>
<g id="a_edge48_Node000031_Node000013"><a xlink:title=" ">
<path fill="none" stroke="#63b8ff" d="M886.22,-164.98C851.38,-155.93 796.13,-141.58 757.86,-131.64"/>
<polygon fill="#63b8ff" stroke="#63b8ff" points="758.59,-128.21 748.03,-129.08 756.83,-134.98 758.59,-128.21"/>
</a>
</g>
</g>
<!-- Node31&#45;&gt;Node27 -->
<g id="edge46_Node000031_Node000027" class="edge">
<title>Node31&#45;&gt;Node27</title>
<g id="a_edge46_Node000031_Node000027"><a xlink:title=" ">
<path fill="none" stroke="#63b8ff" d="M919,-164.75C919,-157.8 919,-147.85 919,-139.13"/>
<polygon fill="#63b8ff" stroke="#63b8ff" points="922.5,-139.09 919,-129.09 915.5,-139.09 922.5,-139.09"/>
</a>
</g>
</g>
<!-- Node31&#45;&gt;Node28 -->
<g id="edge47_Node000031_Node000028" class="edge">
<title>Node31&#45;&gt;Node28</title>
<g id="a_edge47_Node000031_Node000028"><a xlink:title=" ">
<path fill="none" stroke="#63b8ff" d="M904.7,-164.98C890.9,-156.77 869.76,-144.18 853.49,-134.49"/>
<polygon fill="#63b8ff" stroke="#63b8ff" points="854.94,-131.28 844.56,-129.17 851.36,-137.29 854.94,-131.28"/>
</a>
</g>
</g>
<!-- Node31&#45;&gt;Node29 -->
<g id="edge49_Node000031_Node000029" class="edge">
<title>Node31&#45;&gt;Node29</title>
<g id="a_edge49_Node000031_Node000029"><a xlink:title=" ">
<path fill="none" stroke="#63b8ff" d="M945.67,-164.98C973.54,-156.09 1017.45,-142.07 1048.52,-132.15"/>
<polygon fill="#63b8ff" stroke="#63b8ff" points="1049.66,-135.46 1058.12,-129.08 1047.53,-128.79 1049.66,-135.46"/>
</a>
</g>
</g>
</g>
</svg>
