<?xml version="1.0" encoding="UTF-8" standalone="no"?>
<!DOCTYPE svg PUBLIC "-//W3C//DTD SVG 1.1//EN"
 "http://www.w3.org/Graphics/SVG/1.1/DTD/svg11.dtd">
<!-- Generated by graphviz version 2.43.0 (0)
 -->
<!-- Title: src/client/process_input.hpp Pages: 1 -->
<svg width="1194pt" height="313pt"
 viewBox="0.00 0.00 1194.01 313.00" xmlns="http://www.w3.org/2000/svg" xmlns:xlink="http://www.w3.org/1999/xlink">
<g id="graph0" class="graph" transform="scale(1 1) rotate(0) translate(4 309)">
<title>src/client/process_input.hpp</title>
<!-- Node1 -->
<g id="Node000001" class="node">
<title>Node1</title>
<g id="a_Node000001"><a xlink:title=" ">
<polygon fill="#999999" stroke="#666666" points="599.51,-305 498.51,-305 498.51,-275 599.51,-275 599.51,-305"/>
<text text-anchor="start" x="506.51" y="-293" font-family="Helvetica,sans-Serif" font-size="10.00">src/client/process</text>
<text text-anchor="middle" x="549.01" y="-282" font-family="Helvetica,sans-Serif" font-size="10.00">_input.hpp</text>
</a>
</g>
</g>
<!-- Node2 -->
<g id="Node000002" class="node">
<title>Node2</title>
<g id="a_Node000002"><a xlink:title=" ">
<polygon fill="#e0e0e0" stroke="#999999" points="618.01,-19 574.01,-19 574.01,0 618.01,0 618.01,-19"/>
<text text-anchor="middle" x="596.01" y="-7" font-family="Helvetica,sans-Serif" font-size="10.00">string</text>
</a>
</g>
</g>
<!-- Node1&#45;&gt;Node2 -->
<g id="edge1_Node000001_Node000002" class="edge">
<title>Node1&#45;&gt;Node2</title>
<g id="a_edge1_Node000001_Node000002"><a xlink:title=" ">
<path fill="none" stroke="#63b8ff" d="M498.41,-285.73C431.24,-278.33 321.01,-254.21 321.01,-175.5 321.01,-175.5 321.01,-175.5 321.01,-118.5 321.01,-79.37 347.76,-73.94 382.01,-55 440.6,-22.59 520.09,-13.72 563.83,-11.33"/>
<polygon fill="#63b8ff" stroke="#63b8ff" points="564.06,-14.82 573.89,-10.86 563.74,-7.83 564.06,-14.82"/>
</a>
</g>
</g>
<!-- Node3 -->
<g id="Node000003" class="node">
<title>Node3</title>
<g id="a_Node000003"><a xlink:href="endpoint_8hpp.html" target="_top" xlink:title=" ">
<polygon fill="white" stroke="#666666" points="1186.01,-74 1058.01,-74 1058.01,-55 1186.01,-55 1186.01,-74"/>
<text text-anchor="middle" x="1122.01" y="-62" font-family="Helvetica,sans-Serif" font-size="10.00">../models/endpoint.hpp</text>
</a>
</g>
</g>
<!-- Node1&#45;&gt;Node3 -->
<g id="edge2_Node000001_Node000003" class="edge">
<title>Node1&#45;&gt;Node3</title>
<g id="a_edge2_Node000001_Node000003"><a xlink:title=" ">
<path fill="none" stroke="#63b8ff" d="M599.54,-286.2C724.15,-278.3 1041.65,-251.84 1119.01,-184 1144.54,-161.61 1143.84,-143.45 1138.01,-110 1136.44,-101 1133.21,-91.42 1130.06,-83.46"/>
<polygon fill="#63b8ff" stroke="#63b8ff" points="1133.23,-81.97 1126.12,-74.12 1126.79,-84.69 1133.23,-81.97"/>
</a>
</g>
</g>
<!-- Node6 -->
<g id="Node000006" class="node">
<title>Node6</title>
<g id="a_Node000006"><a xlink:href="tcp__socket_8hpp.html" target="_top" xlink:title=" ">
<polygon fill="white" stroke="#666666" points="292.51,-129 151.51,-129 151.51,-110 292.51,-110 292.51,-129"/>
<text text-anchor="middle" x="222.01" y="-117" font-family="Helvetica,sans-Serif" font-size="10.00">../network/tcp_socket.hpp</text>
</a>
</g>
</g>
<!-- Node1&#45;&gt;Node6 -->
<g id="edge6_Node000001_Node000006" class="edge">
<title>Node1&#45;&gt;Node6</title>
<g id="a_edge6_Node000001_Node000006"><a xlink:title=" ">
<path fill="none" stroke="#63b8ff" d="M498.18,-289.02C446.21,-286.77 365.11,-276.75 307.01,-239 268.4,-213.92 241.75,-164.67 229.55,-138.25"/>
<polygon fill="#63b8ff" stroke="#63b8ff" points="232.72,-136.76 225.46,-129.04 226.32,-139.6 232.72,-136.76"/>
</a>
</g>
</g>
<!-- Node12 -->
<g id="Node000012" class="node">
<title>Node12</title>
<g id="a_Node000012"><a xlink:href="downloadmanager_8hpp.html" target="_top" xlink:title=" ">
<polygon fill="white" stroke="#666666" points="841.01,-239 713.01,-239 713.01,-220 841.01,-220 841.01,-239"/>
<text text-anchor="middle" x="777.01" y="-227" font-family="Helvetica,sans-Serif" font-size="10.00">downloadmanager.hpp</text>
</a>
</g>
</g>
<!-- Node1&#45;&gt;Node12 -->
<g id="edge13_Node000001_Node000012" class="edge">
<title>Node1&#45;&gt;Node12</title>
<g id="a_edge13_Node000001_Node000012"><a xlink:title=" ">
<path fill="none" stroke="#63b8ff" d="M599.61,-276.02C639.95,-265.67 695.83,-251.33 734.03,-241.53"/>
<polygon fill="#63b8ff" stroke="#63b8ff" points="735,-244.89 743.82,-239.02 733.26,-238.11 735,-244.89"/>
</a>
</g>
</g>
<!-- Node3&#45;&gt;Node2 -->
<g id="edge5_Node000003_Node000002" class="edge">
<title>Node3&#45;&gt;Node2</title>
<g id="a_edge5_Node000003_Node000002"><a xlink:title=" ">
<path fill="none" stroke="#63b8ff" d="M1057.84,-56.06C1054.51,-55.7 1051.22,-55.34 1048.01,-55 890.7,-38.22 702.33,-20.41 628.21,-13.49"/>
<polygon fill="#63b8ff" stroke="#63b8ff" points="628.41,-9.99 618.13,-12.55 627.76,-16.96 628.41,-9.99"/>
</a>
</g>
</g>
<!-- Node4 -->
<g id="Node000004" class="node">
<title>Node4</title>
<g id="a_Node000004"><a xlink:title=" ">
<polygon fill="#e0e0e0" stroke="#999999" points="1147.01,-19 1097.01,-19 1097.01,0 1147.01,0 1147.01,-19"/>
<text text-anchor="middle" x="1122.01" y="-7" font-family="Helvetica,sans-Serif" font-size="10.00">cstdint</text>
</a>
</g>
</g>
<!-- Node3&#45;&gt;Node4 -->
<g id="edge3_Node000003_Node000004" class="edge">
<title>Node3&#45;&gt;Node4</title>
<g id="a_edge3_Node000003_Node000004"><a xlink:title=" ">
<path fill="none" stroke="#63b8ff" d="M1122.01,-54.75C1122.01,-47.8 1122.01,-37.85 1122.01,-29.13"/>
<polygon fill="#63b8ff" stroke="#63b8ff" points="1125.51,-29.09 1122.01,-19.09 1118.51,-29.09 1125.51,-29.09"/>
</a>
</g>
</g>
<!-- Node5 -->
<g id="Node000005" class="node">
<title>Node5</title>
<g id="a_Node000005"><a xlink:title=" ">
<polygon fill="#e0e0e0" stroke="#999999" points="1071.51,-19 1006.51,-19 1006.51,0 1071.51,0 1071.51,-19"/>
<text text-anchor="middle" x="1039.01" y="-7" font-family="Helvetica,sans-Serif" font-size="10.00">stdexcept</text>
</a>
</g>
</g>
<!-- Node3&#45;&gt;Node5 -->
<g id="edge4_Node000003_Node000005" class="edge">
<title>Node3&#45;&gt;Node5</title>
<g id="a_edge4_Node000003_Node000005"><a xlink:title=" ">
<path fill="none" stroke="#63b8ff" d="M1108.67,-54.98C1095.92,-46.84 1076.45,-34.41 1061.34,-24.76"/>
<polygon fill="#63b8ff" stroke="#63b8ff" points="1062.9,-21.6 1052.59,-19.17 1059.13,-27.5 1062.9,-21.6"/>
</a>
</g>
</g>
<!-- Node6&#45;&gt;Node2 -->
<g id="edge9_Node000006_Node000002" class="edge">
<title>Node6&#45;&gt;Node2</title>
<g id="a_edge9_Node000006_Node000002"><a xlink:title=" ">
<path fill="none" stroke="#63b8ff" d="M230.51,-109.83C244.86,-95.77 275.41,-68.25 307.01,-55 394.56,-18.27 508.44,-11.46 563.45,-10.45"/>
<polygon fill="#63b8ff" stroke="#63b8ff" points="563.68,-13.95 573.64,-10.32 563.59,-6.95 563.68,-13.95"/>
</a>
</g>
</g>
<!-- Node7 -->
<g id="Node000007" class="node">
<title>Node7</title>
<g id="a_Node000007"><a xlink:title=" ">
<polygon fill="#e0e0e0" stroke="#999999" points="497.01,-74 439.01,-74 439.01,-55 497.01,-55 497.01,-74"/>
<text text-anchor="middle" x="468.01" y="-62" font-family="Helvetica,sans-Serif" font-size="10.00">memory</text>
</a>
</g>
</g>
<!-- Node6&#45;&gt;Node7 -->
<g id="edge7_Node000006_Node000007" class="edge">
<title>Node6&#45;&gt;Node7</title>
<g id="a_edge7_Node000006_Node000007"><a xlink:title=" ">
<path fill="none" stroke="#63b8ff" d="M261.53,-109.98C307.62,-100.06 383.31,-83.75 429.12,-73.88"/>
<polygon fill="#63b8ff" stroke="#63b8ff" points="429.94,-77.28 438.98,-71.75 428.47,-70.44 429.94,-77.28"/>
</a>
</g>
</g>
<!-- Node8 -->
<g id="Node000008" class="node">
<title>Node8</title>
<g id="a_Node000008"><a xlink:title=" ">
<polygon fill="#e0e0e0" stroke="#999999" points="85.01,-74 13.01,-74 13.01,-55 85.01,-55 85.01,-74"/>
<text text-anchor="middle" x="49.01" y="-62" font-family="Helvetica,sans-Serif" font-size="10.00">netinet/in.h</text>
</a>
</g>
</g>
<!-- Node6&#45;&gt;Node8 -->
<g id="edge8_Node000006_Node000008" class="edge">
<title>Node6&#45;&gt;Node8</title>
<g id="a_edge8_Node000006_Node000008"><a xlink:title=" ">
<path fill="none" stroke="#63b8ff" d="M194.21,-109.98C165.04,-101.05 119.01,-86.94 86.6,-77.02"/>
<polygon fill="#63b8ff" stroke="#63b8ff" points="87.61,-73.66 77.02,-74.08 85.56,-80.36 87.61,-73.66"/>
</a>
</g>
</g>
<!-- Node9 -->
<g id="Node000009" class="node">
<title>Node9</title>
<g id="a_Node000009"><a xlink:title=" ">
<polygon fill="#e0e0e0" stroke="#999999" points="180.51,-74 103.51,-74 103.51,-55 180.51,-55 180.51,-74"/>
<text text-anchor="middle" x="142.01" y="-62" font-family="Helvetica,sans-Serif" font-size="10.00">sys/socket.h</text>
</a>
</g>
</g>
<!-- Node6&#45;&gt;Node9 -->
<g id="edge10_Node000006_Node000009" class="edge">
<title>Node6&#45;&gt;Node9</title>
<g id="a_edge10_Node000006_Node000009"><a xlink:title=" ">
<path fill="none" stroke="#63b8ff" d="M209.15,-109.98C196.86,-101.84 178.1,-89.41 163.53,-79.76"/>
<polygon fill="#63b8ff" stroke="#63b8ff" points="165.36,-76.78 155.09,-74.17 161.5,-82.61 165.36,-76.78"/>
</a>
</g>
</g>
<!-- Node10 -->
<g id="Node000010" class="node">
<title>Node10</title>
<g id="a_Node000010"><a xlink:title=" ">
<polygon fill="#e0e0e0" stroke="#999999" points="255.01,-74 199.01,-74 199.01,-55 255.01,-55 255.01,-74"/>
<text text-anchor="middle" x="227.01" y="-62" font-family="Helvetica,sans-Serif" font-size="10.00">unistd.h</text>
</a>
</g>
</g>
<!-- Node6&#45;&gt;Node10 -->
<g id="edge11_Node000006_Node000010" class="edge">
<title>Node6&#45;&gt;Node10</title>
<g id="a_edge11_Node000006_Node000010"><a xlink:title=" ">
<path fill="none" stroke="#63b8ff" d="M222.83,-109.75C223.49,-102.8 224.43,-92.85 225.25,-84.13"/>
<polygon fill="#63b8ff" stroke="#63b8ff" points="228.74,-84.37 226.2,-74.09 221.77,-83.72 228.74,-84.37"/>
</a>
</g>
</g>
<!-- Node11 -->
<g id="Node000011" class="node">
<title>Node11</title>
<g id="a_Node000011"><a xlink:title=" ">
<polygon fill="#e0e0e0" stroke="#999999" points="246.51,-19 199.51,-19 199.51,0 246.51,0 246.51,-19"/>
<text text-anchor="middle" x="223.01" y="-7" font-family="Helvetica,sans-Serif" font-size="10.00">vector</text>
</a>
</g>
</g>
<!-- Node6&#45;&gt;Node11 -->
<g id="edge12_Node000006_Node000011" class="edge">
<title>Node6&#45;&gt;Node11</title>
<g id="a_edge12_Node000006_Node000011"><a xlink:title=" ">
<path fill="none" stroke="#63b8ff" d="M151.38,-113.58C94.98,-108.01 22.45,-96.59 4.01,-74 -1.33,-67.46 -1.34,-61.54 4.01,-55 27.01,-26.85 133.72,-16.07 189.23,-12.31"/>
<polygon fill="#63b8ff" stroke="#63b8ff" points="189.54,-15.8 199.29,-11.67 189.09,-8.81 189.54,-15.8"/>
</a>
</g>
</g>
<!-- Node12&#45;&gt;Node2 -->
<g id="edge17_Node000012_Node000002" class="edge">
<title>Node12&#45;&gt;Node2</title>
<g id="a_edge17_Node000012_Node000002"><a xlink:title=" ">
<path fill="none" stroke="#63b8ff" d="M712.7,-222.87C609.29,-212.23 413.96,-185.03 378.01,-129 331.32,-56.24 491.82,-24.73 563.35,-14.51"/>
<polygon fill="#63b8ff" stroke="#63b8ff" points="564.18,-17.93 573.62,-13.11 563.23,-11 564.18,-17.93"/>
</a>
</g>
</g>
<!-- Node12&#45;&gt;Node3 -->
<g id="edge19_Node000012_Node000003" class="edge">
<title>Node12&#45;&gt;Node3</title>
<g id="a_edge19_Node000012_Node000003"><a xlink:title=" ">
<path fill="none" stroke="#63b8ff" d="M841.24,-228.1C924.13,-226.2 1061.98,-217.86 1098.01,-184 1125.32,-158.33 1126.21,-110.81 1124.24,-84.42"/>
<polygon fill="#63b8ff" stroke="#63b8ff" points="1127.71,-83.84 1123.26,-74.23 1120.74,-84.52 1127.71,-83.84"/>
</a>
</g>
</g>
<!-- Node12&#45;&gt;Node6 -->
<g id="edge32_Node000012_Node000006" class="edge">
<title>Node12&#45;&gt;Node6</title>
<g id="a_edge32_Node000012_Node000006"><a xlink:title=" ">
<path fill="none" stroke="#63b8ff" d="M712.97,-226.43C634.25,-222.71 497.06,-212.4 383.01,-184 334.07,-171.81 280.1,-148.31 248.73,-133.57"/>
<polygon fill="#63b8ff" stroke="#63b8ff" points="249.91,-130.25 239.37,-129.12 246.9,-136.58 249.91,-130.25"/>
</a>
</g>
</g>
<!-- Node13 -->
<g id="Node000013" class="node">
<title>Node13</title>
<g id="a_Node000013"><a xlink:title=" ">
<polygon fill="#e0e0e0" stroke="#999999" points="855.01,-184 805.01,-184 805.01,-165 855.01,-165 855.01,-184"/>
<text text-anchor="middle" x="830.01" y="-172" font-family="Helvetica,sans-Serif" font-size="10.00">atomic</text>
</a>
</g>
</g>
<!-- Node12&#45;&gt;Node13 -->
<g id="edge14_Node000012_Node000013" class="edge">
<title>Node12&#45;&gt;Node13</title>
<g id="a_edge14_Node000012_Node000013"><a xlink:title=" ">
<path fill="none" stroke="#63b8ff" d="M785.76,-219.75C793.48,-212.03 804.91,-200.6 814.22,-191.28"/>
<polygon fill="#63b8ff" stroke="#63b8ff" points="816.82,-193.64 821.42,-184.09 811.87,-188.69 816.82,-193.64"/>
</a>
</g>
</g>
<!-- Node14 -->
<g id="Node000014" class="node">
<title>Node14</title>
<g id="a_Node000014"><a xlink:title=" ">
<polygon fill="#e0e0e0" stroke="#999999" points="920.51,-184 873.51,-184 873.51,-165 920.51,-165 920.51,-184"/>
<text text-anchor="middle" x="897.01" y="-172" font-family="Helvetica,sans-Serif" font-size="10.00">deque</text>
</a>
</g>
</g>
<!-- Node12&#45;&gt;Node14 -->
<g id="edge15_Node000012_Node000014" class="edge">
<title>Node12&#45;&gt;Node14</title>
<g id="a_edge15_Node000012_Node000014"><a xlink:title=" ">
<path fill="none" stroke="#63b8ff" d="M796.29,-219.98C815.68,-211.42 845.81,-198.11 868.07,-188.28"/>
<polygon fill="#63b8ff" stroke="#63b8ff" points="869.64,-191.41 877.38,-184.17 866.81,-185.01 869.64,-191.41"/>
</a>
</g>
</g>
<!-- Node15 -->
<g id="Node000015" class="node">
<title>Node15</title>
<g id="a_Node000015"><a xlink:title=" ">
<polygon fill="#e0e0e0" stroke="#999999" points="1003.51,-184 938.51,-184 938.51,-165 1003.51,-165 1003.51,-184"/>
<text text-anchor="middle" x="971.01" y="-172" font-family="Helvetica,sans-Serif" font-size="10.00">functional</text>
</a>
</g>
</g>
<!-- Node12&#45;&gt;Node15 -->
<g id="edge16_Node000012_Node000015" class="edge">
<title>Node12&#45;&gt;Node15</title>
<g id="a_edge16_Node000012_Node000015"><a xlink:title=" ">
<path fill="none" stroke="#63b8ff" d="M808.18,-219.98C841.17,-210.97 893.4,-196.7 929.78,-186.76"/>
<polygon fill="#63b8ff" stroke="#63b8ff" points="930.87,-190.09 939.59,-184.08 929.02,-183.34 930.87,-190.09"/>
</a>
</g>
</g>
<!-- Node16 -->
<g id="Node000016" class="node">
<title>Node16</title>
<g id="a_Node000016"><a xlink:title=" ">
<polygon fill="#e0e0e0" stroke="#999999" points="1070.01,-184 1022.01,-184 1022.01,-165 1070.01,-165 1070.01,-184"/>
<text text-anchor="middle" x="1046.01" y="-172" font-family="Helvetica,sans-Serif" font-size="10.00">thread</text>
</a>
</g>
</g>
<!-- Node12&#45;&gt;Node16 -->
<g id="edge18_Node000012_Node000016" class="edge">
<title>Node12&#45;&gt;Node16</title>
<g id="a_edge18_Node000012_Node000016"><a xlink:title=" ">
<path fill="none" stroke="#63b8ff" d="M826.69,-219.95C874.37,-211.55 948.33,-197.98 1012.01,-184 1012.11,-183.98 1012.21,-183.96 1012.31,-183.93"/>
<polygon fill="#63b8ff" stroke="#63b8ff" points="1012.95,-187.38 1021.9,-181.71 1011.37,-180.56 1012.95,-187.38"/>
</a>
</g>
</g>
<!-- Node17 -->
<g id="Node000017" class="node">
<title>Node17</title>
<g id="a_Node000017"><a xlink:href="file_8hpp.html" target="_top" xlink:title=" ">
<polygon fill="white" stroke="#666666" points="993.51,-129 892.51,-129 892.51,-110 993.51,-110 993.51,-129"/>
<text text-anchor="middle" x="943.01" y="-117" font-family="Helvetica,sans-Serif" font-size="10.00">../models/file.hpp</text>
</a>
</g>
</g>
<!-- Node12&#45;&gt;Node17 -->
<g id="edge20_Node000012_Node000017" class="edge">
<title>Node12&#45;&gt;Node17</title>
<g id="a_edge20_Node000012_Node000017"><a xlink:title=" ">
<path fill="none" stroke="#63b8ff" d="M777.12,-219.82C777.78,-206.24 781.06,-180 796.01,-165 809.3,-151.67 852.66,-139.5 888.87,-131.27"/>
<polygon fill="#63b8ff" stroke="#63b8ff" points="889.86,-134.64 898.86,-129.06 888.34,-127.81 889.86,-134.64"/>
</a>
</g>
</g>
<!-- Node20 -->
<g id="Node000020" class="node">
<title>Node20</title>
<g id="a_Node000020"><a xlink:href="fileinfo_8hpp.html" target="_top" xlink:title=" ">
<polygon fill="white" stroke="#666666" points="1039.51,-74 968.51,-74 968.51,-55 1039.51,-55 1039.51,-74"/>
<text text-anchor="middle" x="1004.01" y="-62" font-family="Helvetica,sans-Serif" font-size="10.00">fileinfo.hpp</text>
</a>
</g>
</g>
<!-- Node12&#45;&gt;Node20 -->
<g id="edge31_Node000012_Node000020" class="edge">
<title>Node12&#45;&gt;Node20</title>
<g id="a_edge31_Node000012_Node000020"><a xlink:title=" ">
<path fill="none" stroke="#63b8ff" d="M841.18,-228.46C920.56,-226.89 1048.92,-218.85 1079.01,-184 1108.39,-149.97 1056.37,-103.39 1025.09,-80.06"/>
<polygon fill="#63b8ff" stroke="#63b8ff" points="1027.05,-77.16 1016.9,-74.12 1022.94,-82.83 1027.05,-77.16"/>
</a>
</g>
</g>
<!-- Node21 -->
<g id="Node000021" class="node">
<title>Node21</title>
<g id="a_Node000021"><a xlink:href="filesdb_8hpp.html" target="_top" xlink:title=" ">
<polygon fill="white" stroke="#666666" points="622.01,-184 552.01,-184 552.01,-165 622.01,-165 622.01,-184"/>
<text text-anchor="middle" x="587.01" y="-172" font-family="Helvetica,sans-Serif" font-size="10.00">filesdb.hpp</text>
</a>
</g>
</g>
<!-- Node12&#45;&gt;Node21 -->
<g id="edge33_Node000012_Node000021" class="edge">
<title>Node12&#45;&gt;Node21</title>
<g id="a_edge33_Node000012_Node000021"><a xlink:title=" ">
<path fill="none" stroke="#63b8ff" d="M746.48,-219.98C714.31,-211.01 663.45,-196.82 627.84,-186.89"/>
<polygon fill="#63b8ff" stroke="#63b8ff" points="628.35,-183.4 617.77,-184.08 626.46,-190.14 628.35,-183.4"/>
</a>
</g>
</g>
<!-- Node25 -->
<g id="Node000025" class="node">
<title>Node25</title>
<g id="a_Node000025"><a xlink:href="partfile_8hpp.html" target="_top" xlink:title=" ">
<polygon fill="white" stroke="#666666" points="459.01,-129 387.01,-129 387.01,-110 459.01,-110 459.01,-129"/>
<text text-anchor="middle" x="423.01" y="-117" font-family="Helvetica,sans-Serif" font-size="10.00">partfile.hpp</text>
</a>
</g>
</g>
<!-- Node12&#45;&gt;Node25 -->
<g id="edge45_Node000012_Node000025" class="edge">
<title>Node12&#45;&gt;Node25</title>
<g id="a_edge45_Node000012_Node000025"><a xlink:title=" ">
<path fill="none" stroke="#63b8ff" d="M712.85,-221.55C665.05,-215.12 598.71,-203.54 543.01,-184 506.84,-171.32 468.21,-149.13 444.83,-134.63"/>
<polygon fill="#63b8ff" stroke="#63b8ff" points="446.41,-131.48 436.08,-129.11 442.68,-137.41 446.41,-131.48"/>
</a>
</g>
</g>
<!-- Node26 -->
<g id="Node000026" class="node">
<title>Node26</title>
<g id="a_Node000026"><a xlink:href="peerdb_8hpp.html" target="_top" xlink:title=" ">
<polygon fill="white" stroke="#666666" points="748.51,-184 677.51,-184 677.51,-165 748.51,-165 748.51,-184"/>
<text text-anchor="middle" x="713.01" y="-172" font-family="Helvetica,sans-Serif" font-size="10.00">peerdb.hpp</text>
</a>
</g>
</g>
<!-- Node12&#45;&gt;Node26 -->
<g id="edge46_Node000012_Node000026" class="edge">
<title>Node12&#45;&gt;Node26</title>
<g id="a_edge46_Node000012_Node000026"><a xlink:title=" ">
<path fill="none" stroke="#63b8ff" d="M766.72,-219.98C757.17,-212.07 742.73,-200.11 731.22,-190.58"/>
<polygon fill="#63b8ff" stroke="#63b8ff" points="733.41,-187.85 723.48,-184.17 728.95,-193.24 733.41,-187.85"/>
</a>
</g>
</g>
<!-- Node17&#45;&gt;Node2 -->
<g id="edge22_Node000017_Node000002" class="edge">
<title>Node17&#45;&gt;Node2</title>
<g id="a_edge22_Node000017_Node000002"><a xlink:title=" ">
<path fill="none" stroke="#63b8ff" d="M936.97,-109.81C926.66,-95.72 904.23,-68.16 878.01,-55 834.58,-33.2 692.23,-18.69 627.98,-13.09"/>
<polygon fill="#63b8ff" stroke="#63b8ff" points="628.27,-9.6 618.01,-12.24 627.67,-16.58 628.27,-9.6"/>
</a>
</g>
</g>
<!-- Node17&#45;&gt;Node3 -->
<g id="edge25_Node000017_Node000003" class="edge">
<title>Node17&#45;&gt;Node3</title>
<g id="a_edge25_Node000017_Node000003"><a xlink:title=" ">
<path fill="none" stroke="#63b8ff" d="M971.77,-109.98C1001.95,-101.05 1049.58,-86.94 1083.11,-77.02"/>
<polygon fill="#63b8ff" stroke="#63b8ff" points="1084.43,-80.28 1093.02,-74.08 1082.44,-73.57 1084.43,-80.28"/>
</a>
</g>
</g>
<!-- Node17&#45;&gt;Node7 -->
<g id="edge21_Node000017_Node000007" class="edge">
<title>Node17&#45;&gt;Node7</title>
<g id="a_edge21_Node000017_Node000007"><a xlink:title=" ">
<path fill="none" stroke="#63b8ff" d="M892.3,-112.85C816.52,-104.4 669.21,-87.98 544.01,-74 532.07,-72.67 519.07,-71.21 507.26,-69.89"/>
<polygon fill="#63b8ff" stroke="#63b8ff" points="507.57,-66.41 497.24,-68.77 506.79,-73.36 507.57,-66.41"/>
</a>
</g>
</g>
<!-- Node18 -->
<g id="Node000018" class="node">
<title>Node18</title>
<g id="a_Node000018"><a xlink:title=" ">
<polygon fill="#e0e0e0" stroke="#999999" points="975.01,-19 919.01,-19 919.01,0 975.01,0 975.01,-19"/>
<text text-anchor="middle" x="947.01" y="-7" font-family="Helvetica,sans-Serif" font-size="10.00">sstream</text>
</a>
</g>
</g>
<!-- Node17&#45;&gt;Node18 -->
<g id="edge23_Node000017_Node000018" class="edge">
<title>Node17&#45;&gt;Node18</title>
<g id="a_edge23_Node000017_Node000018"><a xlink:title=" ">
<path fill="none" stroke="#63b8ff" d="M943.33,-109.66C943.98,-92.17 945.44,-52.8 946.31,-29.27"/>
<polygon fill="#63b8ff" stroke="#63b8ff" points="949.81,-29.28 946.69,-19.16 942.82,-29.02 949.81,-29.28"/>
</a>
</g>
</g>
<!-- Node19 -->
<g id="Node000019" class="node">
<title>Node19</title>
<g id="a_Node000019"><a xlink:title=" ">
<polygon fill="#e0e0e0" stroke="#999999" points="639.01,-74 553.01,-74 553.01,-55 639.01,-55 639.01,-74"/>
<text text-anchor="middle" x="596.01" y="-62" font-family="Helvetica,sans-Serif" font-size="10.00">unordered_set</text>
</a>
</g>
</g>
<!-- Node17&#45;&gt;Node19 -->
<g id="edge24_Node000017_Node000019" class="edge">
<title>Node17&#45;&gt;Node19</title>
<g id="a_edge24_Node000017_Node000019"><a xlink:title=" ">
<path fill="none" stroke="#63b8ff" d="M892.18,-110.74C827.23,-100.82 715.31,-83.72 649.23,-73.63"/>
<polygon fill="#63b8ff" stroke="#63b8ff" points="649.44,-70.12 639.03,-72.07 648.39,-77.04 649.44,-70.12"/>
</a>
</g>
</g>
<!-- Node17&#45;&gt;Node20 -->
<g id="edge26_Node000017_Node000020" class="edge">
<title>Node17&#45;&gt;Node20</title>
<g id="a_edge26_Node000017_Node000020"><a xlink:title=" ">
<path fill="none" stroke="#63b8ff" d="M952.81,-109.98C961.83,-102.15 975.41,-90.34 986.33,-80.86"/>
<polygon fill="#63b8ff" stroke="#63b8ff" points="988.77,-83.37 994.03,-74.17 984.18,-78.09 988.77,-83.37"/>
</a>
</g>
</g>
<!-- Node20&#45;&gt;Node2 -->
<g id="edge29_Node000020_Node000002" class="edge">
<title>Node20&#45;&gt;Node2</title>
<g id="a_edge29_Node000020_Node000002"><a xlink:title=" ">
<path fill="none" stroke="#63b8ff" d="M968.16,-58.84C889.76,-48.66 704.07,-24.54 628.67,-14.74"/>
<polygon fill="#63b8ff" stroke="#63b8ff" points="628.74,-11.22 618.38,-13.41 627.84,-18.16 628.74,-11.22"/>
</a>
</g>
</g>
<!-- Node20&#45;&gt;Node5 -->
<g id="edge28_Node000020_Node000005" class="edge">
<title>Node20&#45;&gt;Node5</title>
<g id="a_edge28_Node000020_Node000005"><a xlink:title=" ">
<path fill="none" stroke="#63b8ff" d="M1009.79,-54.75C1014.63,-47.42 1021.69,-36.73 1027.65,-27.7"/>
<polygon fill="#63b8ff" stroke="#63b8ff" points="1030.74,-29.36 1033.34,-19.09 1024.9,-25.5 1030.74,-29.36"/>
</a>
</g>
</g>
<!-- Node20&#45;&gt;Node11 -->
<g id="edge30_Node000020_Node000011" class="edge">
<title>Node20&#45;&gt;Node11</title>
<g id="a_edge30_Node000020_Node000011"><a xlink:title=" ">
<path fill="none" stroke="#63b8ff" d="M968.42,-61.08C837.66,-52.21 384.75,-21.48 256.87,-12.8"/>
<polygon fill="#63b8ff" stroke="#63b8ff" points="257.08,-9.3 246.87,-12.12 256.61,-16.29 257.08,-9.3"/>
</a>
</g>
</g>
<!-- Node20&#45;&gt;Node18 -->
<g id="edge27_Node000020_Node000018" class="edge">
<title>Node20&#45;&gt;Node18</title>
<g id="a_edge27_Node000020_Node000018"><a xlink:title=" ">
<path fill="none" stroke="#63b8ff" d="M994.85,-54.98C986.51,-47.23 973.97,-35.58 963.83,-26.14"/>
<polygon fill="#63b8ff" stroke="#63b8ff" points="966.04,-23.42 956.33,-19.17 961.27,-28.54 966.04,-23.42"/>
</a>
</g>
</g>
<!-- Node21&#45;&gt;Node2 -->
<g id="edge36_Node000021_Node000002" class="edge">
<title>Node21&#45;&gt;Node2</title>
<g id="a_edge36_Node000021_Node000002"><a xlink:title=" ">
<path fill="none" stroke="#63b8ff" d="M574.51,-164.93C564.14,-156.99 550.13,-144.14 544.01,-129 531.68,-98.51 530.25,-84.87 544.01,-55 549.75,-42.52 560.92,-32.24 571.43,-24.71"/>
<polygon fill="#63b8ff" stroke="#63b8ff" points="573.57,-27.49 579.98,-19.05 569.71,-21.65 573.57,-27.49"/>
</a>
</g>
</g>
<!-- Node21&#45;&gt;Node7 -->
<g id="edge34_Node000021_Node000007" class="edge">
<title>Node21&#45;&gt;Node7</title>
<g id="a_edge34_Node000021_Node000007"><a xlink:title=" ">
<path fill="none" stroke="#63b8ff" d="M567.32,-164.99C550.96,-157.26 527.75,-144.68 511.01,-129 496.77,-115.67 484.75,-96.81 477.07,-83.11"/>
<polygon fill="#63b8ff" stroke="#63b8ff" points="480.1,-81.34 472.28,-74.2 473.93,-84.66 480.1,-81.34"/>
</a>
</g>
</g>
<!-- Node22 -->
<g id="Node000022" class="node">
<title>Node22</title>
<g id="a_Node000022"><a xlink:title=" ">
<polygon fill="#e0e0e0" stroke="#999999" points="798.01,-129 750.01,-129 750.01,-110 798.01,-110 798.01,-129"/>
<text text-anchor="middle" x="774.01" y="-117" font-family="Helvetica,sans-Serif" font-size="10.00">mutex</text>
</a>
</g>
</g>
<!-- Node21&#45;&gt;Node22 -->
<g id="edge35_Node000021_Node000022" class="edge">
<title>Node21&#45;&gt;Node22</title>
<g id="a_edge35_Node000021_Node000022"><a xlink:title=" ">
<path fill="none" stroke="#63b8ff" d="M617.05,-164.98C650.69,-155.45 705.08,-140.03 740.19,-130.09"/>
<polygon fill="#63b8ff" stroke="#63b8ff" points="741.31,-133.4 749.98,-127.31 739.41,-126.67 741.31,-133.4"/>
</a>
</g>
</g>
<!-- Node23 -->
<g id="Node000023" class="node">
<title>Node23</title>
<g id="a_Node000023"><a xlink:title=" ">
<polygon fill="#e0e0e0" stroke="#999999" points="731.51,-129 638.51,-129 638.51,-110 731.51,-110 731.51,-129"/>
<text text-anchor="middle" x="685.01" y="-117" font-family="Helvetica,sans-Serif" font-size="10.00">unordered_map</text>
</a>
</g>
</g>
<!-- Node21&#45;&gt;Node23 -->
<g id="edge37_Node000021_Node000023" class="edge">
<title>Node21&#45;&gt;Node23</title>
<g id="a_edge37_Node000021_Node000023"><a xlink:title=" ">
<path fill="none" stroke="#63b8ff" d="M602.75,-164.98C618.23,-156.61 642.1,-143.7 660.14,-133.95"/>
<polygon fill="#63b8ff" stroke="#63b8ff" points="661.84,-137.01 668.98,-129.17 658.51,-130.85 661.84,-137.01"/>
</a>
</g>
</g>
<!-- Node24 -->
<g id="Node000024" class="node">
<title>Node24</title>
<g id="a_Node000024"><a xlink:href="file__id_8hpp.html" target="_top" xlink:title=" ">
<polygon fill="white" stroke="#666666" points="620.51,-129 553.51,-129 553.51,-110 620.51,-110 620.51,-129"/>
<text text-anchor="middle" x="587.01" y="-117" font-family="Helvetica,sans-Serif" font-size="10.00">file_id.hpp</text>
</a>
</g>
</g>
<!-- Node21&#45;&gt;Node24 -->
<g id="edge38_Node000021_Node000024" class="edge">
<title>Node21&#45;&gt;Node24</title>
<g id="a_edge38_Node000021_Node000024"><a xlink:title=" ">
<path fill="none" stroke="#63b8ff" d="M587.01,-164.75C587.01,-157.8 587.01,-147.85 587.01,-139.13"/>
<polygon fill="#63b8ff" stroke="#63b8ff" points="590.51,-139.09 587.01,-129.09 583.51,-139.09 590.51,-139.09"/>
</a>
</g>
</g>
<!-- Node21&#45;&gt;Node25 -->
<g id="edge40_Node000021_Node000025" class="edge">
<title>Node21&#45;&gt;Node25</title>
<g id="a_edge40_Node000021_Node000025"><a xlink:title=" ">
<path fill="none" stroke="#63b8ff" d="M560.66,-164.98C533.24,-156.13 490.12,-142.19 459.45,-132.28"/>
<polygon fill="#63b8ff" stroke="#63b8ff" points="460.15,-128.83 449.56,-129.08 458,-135.49 460.15,-128.83"/>
</a>
</g>
</g>
<!-- Node24&#45;&gt;Node2 -->
<g id="edge39_Node000024_Node000002" class="edge">
<title>Node24&#45;&gt;Node2</title>
<g id="a_edge39_Node000024_Node000002"><a xlink:title=" ">
<path fill="none" stroke="#63b8ff" d="M607.21,-109.91C621.47,-102.64 639.51,-90.71 648.01,-74 657.66,-55.01 638.3,-36.54 620.52,-24.46"/>
<polygon fill="#63b8ff" stroke="#63b8ff" points="622.37,-21.49 612.05,-19.07 618.61,-27.39 622.37,-21.49"/>
</a>
</g>
</g>
<!-- Node25&#45;&gt;Node2 -->
<g id="edge42_Node000025_Node000002" class="edge">
<title>Node25&#45;&gt;Node2</title>
<g id="a_edge42_Node000025_Node000002"><a xlink:title=" ">
<path fill="none" stroke="#63b8ff" d="M421.2,-109.93C418.91,-96.51 416.71,-70.49 430.01,-55 447.29,-34.87 520.67,-21.23 563.86,-14.78"/>
<polygon fill="#63b8ff" stroke="#63b8ff" points="564.49,-18.23 573.89,-13.33 563.49,-11.3 564.49,-18.23"/>
</a>
</g>
</g>
<!-- Node25&#45;&gt;Node7 -->
<g id="edge41_Node000025_Node000007" class="edge">
<title>Node25&#45;&gt;Node7</title>
<g id="a_edge41_Node000025_Node000007"><a xlink:title=" ">
<path fill="none" stroke="#63b8ff" d="M430.44,-109.75C436.86,-102.18 446.31,-91.05 454.13,-81.84"/>
<polygon fill="#63b8ff" stroke="#63b8ff" points="456.91,-83.98 460.71,-74.09 451.57,-79.45 456.91,-83.98"/>
</a>
</g>
</g>
<!-- Node25&#45;&gt;Node19 -->
<g id="edge43_Node000025_Node000019" class="edge">
<title>Node25&#45;&gt;Node19</title>
<g id="a_edge43_Node000025_Node000019"><a xlink:title=" ">
<path fill="none" stroke="#63b8ff" d="M450.8,-109.98C479.97,-101.05 526.01,-86.94 558.41,-77.02"/>
<polygon fill="#63b8ff" stroke="#63b8ff" points="559.46,-80.36 567.99,-74.08 557.41,-73.66 559.46,-80.36"/>
</a>
</g>
</g>
<!-- Node25&#45;&gt;Node20 -->
<g id="edge44_Node000025_Node000020" class="edge">
<title>Node25&#45;&gt;Node20</title>
<g id="a_edge44_Node000025_Node000020"><a xlink:title=" ">
<path fill="none" stroke="#63b8ff" d="M459.35,-115.18C560.67,-105.94 846.17,-79.9 958.14,-69.68"/>
<polygon fill="#63b8ff" stroke="#63b8ff" points="958.78,-73.14 968.42,-68.75 958.14,-66.17 958.78,-73.14"/>
</a>
</g>
</g>
<!-- Node26&#45;&gt;Node2 -->
<g id="edge49_Node000026_Node000002" class="edge">
<title>Node26&#45;&gt;Node2</title>
<g id="a_edge49_Node000026_Node000002"><a xlink:title=" ">
<path fill="none" stroke="#63b8ff" d="M748.82,-167.58C788.62,-159.32 844.74,-141.67 824.01,-110 780.08,-42.9 679.9,-20.79 628.2,-13.71"/>
<polygon fill="#63b8ff" stroke="#63b8ff" points="628.6,-10.23 618.24,-12.45 627.72,-17.18 628.6,-10.23"/>
</a>
</g>
</g>
<!-- Node26&#45;&gt;Node3 -->
<g id="edge51_Node000026_Node000003" class="edge">
<title>Node26&#45;&gt;Node3</title>
<g id="a_edge51_Node000026_Node000003"><a xlink:title=" ">
<path fill="none" stroke="#63b8ff" d="M748.55,-169.21C824.09,-159.97 995.81,-138.26 1021.01,-129 1052.36,-117.47 1084.3,-95.26 1103.64,-80.41"/>
<polygon fill="#63b8ff" stroke="#63b8ff" points="1105.89,-83.09 1111.59,-74.16 1101.57,-77.59 1105.89,-83.09"/>
</a>
</g>
</g>
<!-- Node26&#45;&gt;Node7 -->
<g id="edge47_Node000026_Node000007" class="edge">
<title>Node26&#45;&gt;Node7</title>
<g id="a_edge47_Node000026_Node000007"><a xlink:title=" ">
<path fill="none" stroke="#63b8ff" d="M746.43,-164.97C781.53,-154.45 828.83,-134.87 807.01,-110 802.09,-104.39 595.75,-80.14 507.44,-69.99"/>
<polygon fill="#63b8ff" stroke="#63b8ff" points="507.62,-66.49 497.28,-68.83 506.82,-73.44 507.62,-66.49"/>
</a>
</g>
</g>
<!-- Node26&#45;&gt;Node17 -->
<g id="edge52_Node000026_Node000017" class="edge">
<title>Node26&#45;&gt;Node17</title>
<g id="a_edge52_Node000026_Node000017"><a xlink:title=" ">
<path fill="none" stroke="#63b8ff" d="M748.69,-165.28C788.38,-156.13 852.63,-141.33 896.29,-131.27"/>
<polygon fill="#63b8ff" stroke="#63b8ff" points="897.14,-134.66 906.09,-129.01 895.56,-127.84 897.14,-134.66"/>
</a>
</g>
</g>
<!-- Node26&#45;&gt;Node20 -->
<g id="edge53_Node000026_Node000020" class="edge">
<title>Node26&#45;&gt;Node20</title>
<g id="a_edge53_Node000026_Node000020"><a xlink:title=" ">
<path fill="none" stroke="#63b8ff" d="M748.65,-169.24C824.07,-160.05 993.65,-138.44 1002.01,-129 1012.62,-117.01 1011.84,-98.2 1009.17,-84.15"/>
<polygon fill="#63b8ff" stroke="#63b8ff" points="1012.51,-83.07 1006.81,-74.14 1005.7,-84.67 1012.51,-83.07"/>
</a>
</g>
</g>
<!-- Node26&#45;&gt;Node22 -->
<g id="edge48_Node000026_Node000022" class="edge">
<title>Node26&#45;&gt;Node22</title>
<g id="a_edge48_Node000026_Node000022"><a xlink:title=" ">
<path fill="none" stroke="#63b8ff" d="M722.81,-164.98C731.83,-157.15 745.41,-145.34 756.33,-135.86"/>
<polygon fill="#63b8ff" stroke="#63b8ff" points="758.77,-138.37 764.03,-129.17 754.18,-133.09 758.77,-138.37"/>
</a>
</g>
</g>
<!-- Node26&#45;&gt;Node23 -->
<g id="edge50_Node000026_Node000023" class="edge">
<title>Node26&#45;&gt;Node23</title>
<g id="a_edge50_Node000026_Node000023"><a xlink:title=" ">
<path fill="none" stroke="#63b8ff" d="M708.38,-164.75C704.55,-157.49 698.98,-146.95 694.24,-137.98"/>
<polygon fill="#63b8ff" stroke="#63b8ff" points="697.31,-136.3 689.54,-129.09 691.12,-139.57 697.31,-136.3"/>
</a>
</g>
</g>
<!-- Node26&#45;&gt;Node24 -->
<g id="edge54_Node000026_Node000024" class="edge">
<title>Node26&#45;&gt;Node24</title>
<g id="a_edge54_Node000026_Node000024"><a xlink:title=" ">
<path fill="none" stroke="#63b8ff" d="M692.76,-164.98C672.31,-156.38 640.48,-142.99 617.07,-133.15"/>
<polygon fill="#63b8ff" stroke="#63b8ff" points="618.19,-129.82 607.62,-129.17 615.48,-136.27 618.19,-129.82"/>
</a>
</g>
</g>
</g>
</svg>
