<?xml version="1.0" encoding="UTF-8" standalone="no"?>
<!DOCTYPE svg PUBLIC "-//W3C//DTD SVG 1.1//EN"
 "http://www.w3.org/Graphics/SVG/1.1/DTD/svg11.dtd">
<!-- Generated by graphviz version 2.43.0 (0)
 -->
<!-- Title: src/client/process_input.cpp Pages: 1 -->
<svg width="1444pt" height="368pt"
 viewBox="0.00 0.00 1444.00 368.00" xmlns="http://www.w3.org/2000/svg" xmlns:xlink="http://www.w3.org/1999/xlink">
<g id="graph0" class="graph" transform="scale(1 1) rotate(0) translate(4 364)">
<title>src/client/process_input.cpp</title>
<!-- Node1 -->
<g id="Node000001" class="node">
<title>Node1</title>
<g id="a_Node000001"><a xlink:title=" ">
<polygon fill="#999999" stroke="#666666" points="490.5,-360 389.5,-360 389.5,-330 490.5,-330 490.5,-360"/>
<text text-anchor="start" x="397.5" y="-348" font-family="Helvetica,sans-Serif" font-size="10.00">src/client/process</text>
<text text-anchor="middle" x="440" y="-337" font-family="Helvetica,sans-Serif" font-size="10.00">_input.cpp</text>
</a>
</g>
</g>
<!-- Node2 -->
<g id="Node000002" class="node">
<title>Node2</title>
<g id="a_Node000002"><a xlink:title=" ">
<polygon fill="#e0e0e0" stroke="#999999" points="50,-294 0,-294 0,-275 50,-275 50,-294"/>
<text text-anchor="middle" x="25" y="-282" font-family="Helvetica,sans-Serif" font-size="10.00">cstring</text>
</a>
</g>
</g>
<!-- Node1&#45;&gt;Node2 -->
<g id="edge1_Node000001_Node000002" class="edge">
<title>Node1&#45;&gt;Node2</title>
<g id="a_edge1_Node000001_Node000002"><a xlink:title=" ">
<path fill="none" stroke="#63b8ff" d="M389.48,-339.23C318.17,-332.09 183.81,-317.13 60.2,-294.03"/>
<polygon fill="#63b8ff" stroke="#63b8ff" points="60.66,-290.56 50.18,-292.14 59.36,-297.43 60.66,-290.56"/>
</a>
</g>
</g>
<!-- Node3 -->
<g id="Node000003" class="node">
<title>Node3</title>
<g id="a_Node000003"><a xlink:title=" ">
<polygon fill="#e0e0e0" stroke="#999999" points="115.5,-294 68.5,-294 68.5,-275 115.5,-275 115.5,-294"/>
<text text-anchor="middle" x="92" y="-282" font-family="Helvetica,sans-Serif" font-size="10.00">fcntl.h</text>
</a>
</g>
</g>
<!-- Node1&#45;&gt;Node3 -->
<g id="edge2_Node000001_Node000003" class="edge">
<title>Node1&#45;&gt;Node3</title>
<g id="a_edge2_Node000001_Node000003"><a xlink:title=" ">
<path fill="none" stroke="#63b8ff" d="M389.36,-336.79C327.85,-327.81 221.01,-311.5 130,-294 128.55,-293.72 127.07,-293.43 125.57,-293.12"/>
<polygon fill="#63b8ff" stroke="#63b8ff" points="126.18,-289.67 115.67,-291.03 124.73,-296.52 126.18,-289.67"/>
</a>
</g>
</g>
<!-- Node4 -->
<g id="Node000004" class="node">
<title>Node4</title>
<g id="a_Node000004"><a xlink:title=" ">
<polygon fill="#e0e0e0" stroke="#999999" points="865,-74 807,-74 807,-55 865,-55 865,-74"/>
<text text-anchor="middle" x="836" y="-62" font-family="Helvetica,sans-Serif" font-size="10.00">memory</text>
</a>
</g>
</g>
<!-- Node1&#45;&gt;Node4 -->
<g id="edge3_Node000001_Node000004" class="edge">
<title>Node1&#45;&gt;Node4</title>
<g id="a_edge3_Node000001_Node000004"><a xlink:title=" ">
<path fill="none" stroke="#63b8ff" d="M490.64,-340.42C548.02,-335.14 643.61,-322.59 721,-294 811.45,-260.58 860.13,-267.7 908,-184 929.66,-146.13 884.56,-102.48 856.37,-80.22"/>
<polygon fill="#63b8ff" stroke="#63b8ff" points="858.33,-77.32 848.26,-74.03 854.09,-82.88 858.33,-77.32"/>
</a>
</g>
</g>
<!-- Node5 -->
<g id="Node000005" class="node">
<title>Node5</title>
<g id="a_Node000005"><a xlink:title=" ">
<polygon fill="#e0e0e0" stroke="#999999" points="1436,-294 1376,-294 1376,-275 1436,-275 1436,-294"/>
<text text-anchor="middle" x="1406" y="-282" font-family="Helvetica,sans-Serif" font-size="10.00">iostream</text>
</a>
</g>
</g>
<!-- Node1&#45;&gt;Node5 -->
<g id="edge4_Node000001_Node000005" class="edge">
<title>Node1&#45;&gt;Node5</title>
<g id="a_edge4_Node000001_Node000005"><a xlink:title=" ">
<path fill="none" stroke="#63b8ff" d="M490.69,-343.68C630.2,-342.27 1031.46,-334.7 1362,-294 1363.26,-293.84 1364.54,-293.68 1365.83,-293.49"/>
<polygon fill="#63b8ff" stroke="#63b8ff" points="1366.47,-296.93 1375.79,-291.9 1365.36,-290.02 1366.47,-296.93"/>
</a>
</g>
</g>
<!-- Node6 -->
<g id="Node000006" class="node">
<title>Node6</title>
<g id="a_Node000006"><a xlink:title=" ">
<polygon fill="#e0e0e0" stroke="#999999" points="399,-19 343,-19 343,0 399,0 399,-19"/>
<text text-anchor="middle" x="371" y="-7" font-family="Helvetica,sans-Serif" font-size="10.00">sstream</text>
</a>
</g>
</g>
<!-- Node1&#45;&gt;Node6 -->
<g id="edge5_Node000001_Node000006" class="edge">
<title>Node1&#45;&gt;Node6</title>
<g id="a_edge5_Node000001_Node000006"><a xlink:title=" ">
<path fill="none" stroke="#63b8ff" d="M389.35,-340.58C320.16,-334.94 200.9,-321.46 168,-294 144.84,-274.66 144,-260.67 144,-230.5 144,-230.5 144,-230.5 144,-118.5 144,-88.33 145.17,-74.73 168,-55 168.2,-54.83 274.01,-31.69 332.77,-18.85"/>
<polygon fill="#63b8ff" stroke="#63b8ff" points="333.79,-22.21 342.81,-16.66 332.29,-15.37 333.79,-22.21"/>
</a>
</g>
</g>
<!-- Node7 -->
<g id="Node000007" class="node">
<title>Node7</title>
<g id="a_Node000007"><a xlink:title=" ">
<polygon fill="#e0e0e0" stroke="#999999" points="1334,-129 1278,-129 1278,-110 1334,-110 1334,-129"/>
<text text-anchor="middle" x="1306" y="-117" font-family="Helvetica,sans-Serif" font-size="10.00">unistd.h</text>
</a>
</g>
</g>
<!-- Node1&#45;&gt;Node7 -->
<g id="edge6_Node000001_Node000007" class="edge">
<title>Node1&#45;&gt;Node7</title>
<g id="a_edge6_Node000001_Node000007"><a xlink:title=" ">
<path fill="none" stroke="#63b8ff" d="M490.55,-341.85C606.44,-336.51 888.27,-321.09 979,-294 1103.93,-256.7 1236.21,-169.56 1285.74,-135"/>
<polygon fill="#63b8ff" stroke="#63b8ff" points="1287.84,-137.8 1294,-129.18 1283.81,-132.07 1287.84,-137.8"/>
</a>
</g>
</g>
<!-- Node8 -->
<g id="Node000008" class="node">
<title>Node8</title>
<g id="a_Node000008"><a xlink:title=" ">
<polygon fill="#e0e0e0" stroke="#999999" points="547.5,-19 500.5,-19 500.5,0 547.5,0 547.5,-19"/>
<text text-anchor="middle" x="524" y="-7" font-family="Helvetica,sans-Serif" font-size="10.00">vector</text>
</a>
</g>
</g>
<!-- Node1&#45;&gt;Node8 -->
<g id="edge7_Node000001_Node000008" class="edge">
<title>Node1&#45;&gt;Node8</title>
<g id="a_edge7_Node000001_Node000008"><a xlink:title=" ">
<path fill="none" stroke="#63b8ff" d="M389.34,-343.44C314.2,-339.62 182,-320.17 182,-230.5 182,-230.5 182,-230.5 182,-118.5 182,-77.47 212.11,-72.95 249,-55 344.3,-8.63 382.8,-39.14 490.37,-19.07"/>
<polygon fill="#63b8ff" stroke="#63b8ff" points="491.17,-22.48 500.3,-17.11 489.82,-15.61 491.17,-22.48"/>
</a>
</g>
</g>
<!-- Node9 -->
<g id="Node000009" class="node">
<title>Node9</title>
<g id="a_Node000009"><a xlink:href="file_8hpp.html" target="_top" xlink:title=" ">
<polygon fill="white" stroke="#666666" points="501.5,-129 400.5,-129 400.5,-110 501.5,-110 501.5,-129"/>
<text text-anchor="middle" x="451" y="-117" font-family="Helvetica,sans-Serif" font-size="10.00">../models/file.hpp</text>
</a>
</g>
</g>
<!-- Node1&#45;&gt;Node9 -->
<g id="edge8_Node000001_Node000009" class="edge">
<title>Node1&#45;&gt;Node9</title>
<g id="a_edge8_Node000001_Node000009"><a xlink:title=" ">
<path fill="none" stroke="#63b8ff" d="M440.7,-329.68C442.62,-290.76 447.92,-183.07 450.07,-139.33"/>
<polygon fill="#63b8ff" stroke="#63b8ff" points="453.57,-139.39 450.57,-129.23 446.58,-139.05 453.57,-139.39"/>
</a>
</g>
</g>
<!-- Node15 -->
<g id="Node000015" class="node">
<title>Node15</title>
<g id="a_Node000015"><a xlink:href="fileinfo_8hpp.html" target="_top" xlink:title=" ">
<polygon fill="white" stroke="#666666" points="486.5,-74 415.5,-74 415.5,-55 486.5,-55 486.5,-74"/>
<text text-anchor="middle" x="451" y="-62" font-family="Helvetica,sans-Serif" font-size="10.00">fileinfo.hpp</text>
</a>
</g>
</g>
<!-- Node1&#45;&gt;Node15 -->
<g id="edge22_Node000001_Node000015" class="edge">
<title>Node1&#45;&gt;Node15</title>
<g id="a_edge22_Node000001_Node000015"><a xlink:title=" ">
<path fill="none" stroke="#63b8ff" d="M430.27,-329.95C405.43,-292.19 344.44,-186.27 385,-110 392.31,-96.25 405.97,-85.99 418.97,-78.8"/>
<polygon fill="#63b8ff" stroke="#63b8ff" points="420.89,-81.75 428.22,-74.11 417.72,-75.51 420.89,-81.75"/>
</a>
</g>
</g>
<!-- Node16 -->
<g id="Node000016" class="node">
<title>Node16</title>
<g id="a_Node000016"><a xlink:href="hash_8hpp.html" target="_top" xlink:title=" ">
<polygon fill="white" stroke="#666666" points="1416.5,-239 1355.5,-239 1355.5,-220 1416.5,-220 1416.5,-239"/>
<text text-anchor="middle" x="1386" y="-227" font-family="Helvetica,sans-Serif" font-size="10.00">hash.hpp</text>
</a>
</g>
</g>
<!-- Node1&#45;&gt;Node16 -->
<g id="edge23_Node000001_Node000016" class="edge">
<title>Node1&#45;&gt;Node16</title>
<g id="a_edge23_Node000001_Node000016"><a xlink:title=" ">
<path fill="none" stroke="#63b8ff" d="M490.62,-343.27C667.04,-340.42 1248.18,-328.49 1324,-294 1345.83,-284.07 1364.04,-262.73 1374.96,-247.53"/>
<polygon fill="#63b8ff" stroke="#63b8ff" points="1378.02,-249.25 1380.78,-239.02 1372.25,-245.3 1378.02,-249.25"/>
</a>
</g>
</g>
<!-- Node17 -->
<g id="Node000017" class="node">
<title>Node17</title>
<g id="a_Node000017"><a xlink:href="process__input_8hpp.html" target="_top" xlink:title=" ">
<polygon fill="white" stroke="#666666" points="711.5,-294 606.5,-294 606.5,-275 711.5,-275 711.5,-294"/>
<text text-anchor="middle" x="659" y="-282" font-family="Helvetica,sans-Serif" font-size="10.00">process_input.hpp</text>
</a>
</g>
</g>
<!-- Node1&#45;&gt;Node17 -->
<g id="edge25_Node000001_Node000017" class="edge">
<title>Node1&#45;&gt;Node17</title>
<g id="a_edge25_Node000001_Node000017"><a xlink:title=" ">
<path fill="none" stroke="#63b8ff" d="M490.52,-330.51C528.97,-320.23 581.25,-306.27 617.32,-296.63"/>
<polygon fill="#63b8ff" stroke="#63b8ff" points="618.29,-300 627.04,-294.04 616.48,-293.24 618.29,-300"/>
</a>
</g>
</g>
<!-- Node9&#45;&gt;Node4 -->
<g id="edge9_Node000009_Node000004" class="edge">
<title>Node9&#45;&gt;Node4</title>
<g id="a_edge9_Node000009_Node000004"><a xlink:title=" ">
<path fill="none" stroke="#63b8ff" d="M501.73,-111.52C579.42,-100.82 726.23,-80.61 796.53,-70.93"/>
<polygon fill="#63b8ff" stroke="#63b8ff" points="797.31,-74.36 806.74,-69.53 796.35,-67.43 797.31,-74.36"/>
</a>
</g>
</g>
<!-- Node9&#45;&gt;Node6 -->
<g id="edge11_Node000009_Node000006" class="edge">
<title>Node9&#45;&gt;Node6</title>
<g id="a_edge11_Node000009_Node000006"><a xlink:title=" ">
<path fill="none" stroke="#63b8ff" d="M440.5,-109.69C430.79,-101.21 416.34,-87.67 406,-74 395.22,-59.74 385.63,-41.76 379.22,-28.57"/>
<polygon fill="#63b8ff" stroke="#63b8ff" points="382.23,-26.75 374.81,-19.19 375.9,-29.73 382.23,-26.75"/>
</a>
</g>
</g>
<!-- Node10 -->
<g id="Node000010" class="node">
<title>Node10</title>
<g id="a_Node000010"><a xlink:title=" ">
<polygon fill="#e0e0e0" stroke="#999999" points="972,-19 928,-19 928,0 972,0 972,-19"/>
<text text-anchor="middle" x="950" y="-7" font-family="Helvetica,sans-Serif" font-size="10.00">string</text>
</a>
</g>
</g>
<!-- Node9&#45;&gt;Node10 -->
<g id="edge10_Node000009_Node000010" class="edge">
<title>Node9&#45;&gt;Node10</title>
<g id="a_edge10_Node000009_Node000010"><a xlink:title=" ">
<path fill="none" stroke="#63b8ff" d="M469.91,-109.96C501.13,-96.21 565.71,-69.29 623,-55 728.98,-28.56 858.45,-16.82 917.66,-12.55"/>
<polygon fill="#63b8ff" stroke="#63b8ff" points="918.14,-16.03 927.87,-11.84 917.65,-9.04 918.14,-16.03"/>
</a>
</g>
</g>
<!-- Node11 -->
<g id="Node000011" class="node">
<title>Node11</title>
<g id="a_Node000011"><a xlink:title=" ">
<polygon fill="#e0e0e0" stroke="#999999" points="718,-74 632,-74 632,-55 718,-55 718,-74"/>
<text text-anchor="middle" x="675" y="-62" font-family="Helvetica,sans-Serif" font-size="10.00">unordered_set</text>
</a>
</g>
</g>
<!-- Node9&#45;&gt;Node11 -->
<g id="edge12_Node000009_Node000011" class="edge">
<title>Node9&#45;&gt;Node11</title>
<g id="a_edge12_Node000009_Node000011"><a xlink:title=" ">
<path fill="none" stroke="#63b8ff" d="M486.99,-109.98C525.49,-100.87 586.69,-86.4 628.74,-76.45"/>
<polygon fill="#63b8ff" stroke="#63b8ff" points="629.8,-79.79 638.73,-74.08 628.19,-72.98 629.8,-79.79"/>
</a>
</g>
</g>
<!-- Node12 -->
<g id="Node000012" class="node">
<title>Node12</title>
<g id="a_Node000012"><a xlink:href="endpoint_8hpp.html" target="_top" xlink:title=" ">
<polygon fill="white" stroke="#666666" points="338,-74 258,-74 258,-55 338,-55 338,-74"/>
<text text-anchor="middle" x="298" y="-62" font-family="Helvetica,sans-Serif" font-size="10.00">endpoint.hpp</text>
</a>
</g>
</g>
<!-- Node9&#45;&gt;Node12 -->
<g id="edge13_Node000009_Node000012" class="edge">
<title>Node9&#45;&gt;Node12</title>
<g id="a_edge13_Node000009_Node000012"><a xlink:title=" ">
<path fill="none" stroke="#63b8ff" d="M426.42,-109.98C400.95,-101.16 360.96,-87.31 332.37,-77.41"/>
<polygon fill="#63b8ff" stroke="#63b8ff" points="333.37,-74.05 322.77,-74.08 331.08,-80.66 333.37,-74.05"/>
</a>
</g>
</g>
<!-- Node9&#45;&gt;Node15 -->
<g id="edge17_Node000009_Node000015" class="edge">
<title>Node9&#45;&gt;Node15</title>
<g id="a_edge17_Node000009_Node000015"><a xlink:title=" ">
<path fill="none" stroke="#63b8ff" d="M451,-109.75C451,-102.8 451,-92.85 451,-84.13"/>
<polygon fill="#63b8ff" stroke="#63b8ff" points="454.5,-84.09 451,-74.09 447.5,-84.09 454.5,-84.09"/>
</a>
</g>
</g>
<!-- Node12&#45;&gt;Node10 -->
<g id="edge16_Node000012_Node000010" class="edge">
<title>Node12&#45;&gt;Node10</title>
<g id="a_edge16_Node000012_Node000010"><a xlink:title=" ">
<path fill="none" stroke="#63b8ff" d="M338.29,-60.22C458,-50.49 809.86,-21.89 918.01,-13.1"/>
<polygon fill="#63b8ff" stroke="#63b8ff" points="918.3,-16.59 927.98,-12.29 917.73,-9.61 918.3,-16.59"/>
</a>
</g>
</g>
<!-- Node13 -->
<g id="Node000013" class="node">
<title>Node13</title>
<g id="a_Node000013"><a xlink:title=" ">
<polygon fill="#e0e0e0" stroke="#999999" points="323,-19 273,-19 273,0 323,0 323,-19"/>
<text text-anchor="middle" x="298" y="-7" font-family="Helvetica,sans-Serif" font-size="10.00">cstdint</text>
</a>
</g>
</g>
<!-- Node12&#45;&gt;Node13 -->
<g id="edge14_Node000012_Node000013" class="edge">
<title>Node12&#45;&gt;Node13</title>
<g id="a_edge14_Node000012_Node000013"><a xlink:title=" ">
<path fill="none" stroke="#63b8ff" d="M298,-54.75C298,-47.8 298,-37.85 298,-29.13"/>
<polygon fill="#63b8ff" stroke="#63b8ff" points="301.5,-29.09 298,-19.09 294.5,-29.09 301.5,-29.09"/>
</a>
</g>
</g>
<!-- Node14 -->
<g id="Node000014" class="node">
<title>Node14</title>
<g id="a_Node000014"><a xlink:title=" ">
<polygon fill="#e0e0e0" stroke="#999999" points="482.5,-19 417.5,-19 417.5,0 482.5,0 482.5,-19"/>
<text text-anchor="middle" x="450" y="-7" font-family="Helvetica,sans-Serif" font-size="10.00">stdexcept</text>
</a>
</g>
</g>
<!-- Node12&#45;&gt;Node14 -->
<g id="edge15_Node000012_Node000014" class="edge">
<title>Node12&#45;&gt;Node14</title>
<g id="a_edge15_Node000012_Node000014"><a xlink:title=" ">
<path fill="none" stroke="#63b8ff" d="M322.42,-54.98C347.72,-46.16 387.45,-32.31 415.86,-22.41"/>
<polygon fill="#63b8ff" stroke="#63b8ff" points="417.1,-25.68 425.39,-19.08 414.79,-19.07 417.1,-25.68"/>
</a>
</g>
</g>
<!-- Node15&#45;&gt;Node6 -->
<g id="edge18_Node000015_Node000006" class="edge">
<title>Node15&#45;&gt;Node6</title>
<g id="a_edge18_Node000015_Node000006"><a xlink:title=" ">
<path fill="none" stroke="#63b8ff" d="M438.15,-54.98C425.86,-46.84 407.09,-34.41 392.52,-24.76"/>
<polygon fill="#63b8ff" stroke="#63b8ff" points="394.36,-21.78 384.09,-19.17 390.49,-27.61 394.36,-21.78"/>
</a>
</g>
</g>
<!-- Node15&#45;&gt;Node8 -->
<g id="edge21_Node000015_Node000008" class="edge">
<title>Node15&#45;&gt;Node8</title>
<g id="a_edge21_Node000015_Node000008"><a xlink:title=" ">
<path fill="none" stroke="#63b8ff" d="M462.73,-54.98C473.73,-47 490.42,-34.88 503.6,-25.31"/>
<polygon fill="#63b8ff" stroke="#63b8ff" points="506.02,-27.88 512.06,-19.17 501.91,-22.21 506.02,-27.88"/>
</a>
</g>
</g>
<!-- Node15&#45;&gt;Node10 -->
<g id="edge20_Node000015_Node000010" class="edge">
<title>Node15&#45;&gt;Node10</title>
<g id="a_edge20_Node000015_Node000010"><a xlink:title=" ">
<path fill="none" stroke="#63b8ff" d="M486.72,-59.58C500,-58.13 515.19,-56.48 529,-55 673.93,-39.44 846.97,-21.28 917.59,-13.89"/>
<polygon fill="#63b8ff" stroke="#63b8ff" points="918.05,-17.36 927.63,-12.84 917.32,-10.4 918.05,-17.36"/>
</a>
</g>
</g>
<!-- Node15&#45;&gt;Node14 -->
<g id="edge19_Node000015_Node000014" class="edge">
<title>Node15&#45;&gt;Node14</title>
<g id="a_edge19_Node000015_Node000014"><a xlink:title=" ">
<path fill="none" stroke="#63b8ff" d="M450.83,-54.75C450.7,-47.8 450.52,-37.85 450.35,-29.13"/>
<polygon fill="#63b8ff" stroke="#63b8ff" points="453.85,-29.02 450.16,-19.09 446.85,-29.15 453.85,-29.02"/>
</a>
</g>
</g>
<!-- Node16&#45;&gt;Node10 -->
<g id="edge24_Node000016_Node000010" class="edge">
<title>Node16&#45;&gt;Node10</title>
<g id="a_edge24_Node000016_Node000010"><a xlink:title=" ">
<path fill="none" stroke="#63b8ff" d="M1388.88,-219.79C1397.62,-191.57 1420.58,-101.71 1376,-55 1348.9,-26.61 1076.79,-14.78 982.2,-11.51"/>
<polygon fill="#63b8ff" stroke="#63b8ff" points="982.19,-8 972.08,-11.17 981.95,-15 982.19,-8"/>
</a>
</g>
</g>
<!-- Node17&#45;&gt;Node10 -->
<g id="edge26_Node000017_Node000010" class="edge">
<title>Node17&#45;&gt;Node10</title>
<g id="a_edge26_Node000017_Node000010"><a xlink:title=" ">
<path fill="none" stroke="#63b8ff" d="M711.71,-280.09C858.55,-269.37 1266.52,-230.76 1343,-129 1388.8,-68.07 1083.61,-26.22 982.06,-14.11"/>
<polygon fill="#63b8ff" stroke="#63b8ff" points="982.41,-10.63 972.07,-12.94 981.6,-17.58 982.41,-10.63"/>
</a>
</g>
</g>
<!-- Node17&#45;&gt;Node12 -->
<g id="edge27_Node000017_Node000012" class="edge">
<title>Node17&#45;&gt;Node12</title>
<g id="a_edge27_Node000017_Node000012"><a xlink:title=" ">
<path fill="none" stroke="#63b8ff" d="M619.59,-274.97C563.79,-261.67 459.97,-232.39 383,-184 353.47,-165.43 347.02,-157.57 327,-129 317.12,-114.9 309.28,-96.9 304.25,-83.67"/>
<polygon fill="#63b8ff" stroke="#63b8ff" points="307.53,-82.46 300.84,-74.24 300.95,-84.84 307.53,-82.46"/>
</a>
</g>
</g>
<!-- Node18 -->
<g id="Node000018" class="node">
<title>Node18</title>
<g id="a_Node000018"><a xlink:href="tcp__socket_8hpp.html" target="_top" xlink:title=" ">
<polygon fill="white" stroke="#666666" points="1143.5,-184 1002.5,-184 1002.5,-165 1143.5,-165 1143.5,-184"/>
<text text-anchor="middle" x="1073" y="-172" font-family="Helvetica,sans-Serif" font-size="10.00">../network/tcp_socket.hpp</text>
</a>
</g>
</g>
<!-- Node17&#45;&gt;Node18 -->
<g id="edge28_Node000017_Node000018" class="edge">
<title>Node17&#45;&gt;Node18</title>
<g id="a_edge28_Node000017_Node000018"><a xlink:title=" ">
<path fill="none" stroke="#63b8ff" d="M691.83,-274.94C766.19,-255.54 947.4,-208.26 1030.32,-186.63"/>
<polygon fill="#63b8ff" stroke="#63b8ff" points="1031.37,-189.98 1040.16,-184.07 1029.61,-183.2 1031.37,-189.98"/>
</a>
</g>
</g>
<!-- Node21 -->
<g id="Node000021" class="node">
<title>Node21</title>
<g id="a_Node000021"><a xlink:href="downloadmanager_8hpp.html" target="_top" xlink:title=" ">
<polygon fill="white" stroke="#666666" points="723,-239 595,-239 595,-220 723,-220 723,-239"/>
<text text-anchor="middle" x="659" y="-227" font-family="Helvetica,sans-Serif" font-size="10.00">downloadmanager.hpp</text>
</a>
</g>
</g>
<!-- Node17&#45;&gt;Node21 -->
<g id="edge35_Node000017_Node000021" class="edge">
<title>Node17&#45;&gt;Node21</title>
<g id="a_edge35_Node000017_Node000021"><a xlink:title=" ">
<path fill="none" stroke="#63b8ff" d="M659,-274.75C659,-267.8 659,-257.85 659,-249.13"/>
<polygon fill="#63b8ff" stroke="#63b8ff" points="662.5,-249.09 659,-239.09 655.5,-249.09 662.5,-249.09"/>
</a>
</g>
</g>
<!-- Node18&#45;&gt;Node4 -->
<g id="edge29_Node000018_Node000004" class="edge">
<title>Node18&#45;&gt;Node4</title>
<g id="a_edge29_Node000018_Node000004"><a xlink:title=" ">
<path fill="none" stroke="#63b8ff" d="M1054.01,-164.84C1012.39,-145.88 912.98,-100.58 864.1,-78.31"/>
<polygon fill="#63b8ff" stroke="#63b8ff" points="865.31,-75.01 854.76,-74.05 862.4,-81.38 865.31,-75.01"/>
</a>
</g>
</g>
<!-- Node18&#45;&gt;Node7 -->
<g id="edge33_Node000018_Node000007" class="edge">
<title>Node18&#45;&gt;Node7</title>
<g id="a_edge33_Node000018_Node000007"><a xlink:title=" ">
<path fill="none" stroke="#63b8ff" d="M1110.58,-165C1147.96,-156.53 1207.22,-143.1 1267.63,-129.31"/>
<polygon fill="#63b8ff" stroke="#63b8ff" points="1268.75,-132.64 1277.72,-127 1267.19,-125.82 1268.75,-132.64"/>
</a>
</g>
</g>
<!-- Node18&#45;&gt;Node8 -->
<g id="edge34_Node000018_Node000008" class="edge">
<title>Node18&#45;&gt;Node8</title>
<g id="a_edge34_Node000018_Node000008"><a xlink:title=" ">
<path fill="none" stroke="#63b8ff" d="M1062.17,-164.76C1033.49,-142.15 952.42,-81.68 874,-55 762.72,-17.14 621.6,-11.04 557.91,-10.35"/>
<polygon fill="#63b8ff" stroke="#63b8ff" points="557.68,-6.85 547.66,-10.28 557.63,-13.85 557.68,-6.85"/>
</a>
</g>
</g>
<!-- Node18&#45;&gt;Node10 -->
<g id="edge31_Node000018_Node000010" class="edge">
<title>Node18&#45;&gt;Node10</title>
<g id="a_edge31_Node000018_Node000010"><a xlink:title=" ">
<path fill="none" stroke="#63b8ff" d="M1095.61,-164.81C1120.44,-153.86 1155.03,-133.61 1141,-110 1106.81,-52.44 1027.01,-26.73 982.13,-16.46"/>
<polygon fill="#63b8ff" stroke="#63b8ff" points="982.83,-13.03 972.31,-14.34 981.35,-19.88 982.83,-13.03"/>
</a>
</g>
</g>
<!-- Node19 -->
<g id="Node000019" class="node">
<title>Node19</title>
<g id="a_Node000019"><a xlink:title=" ">
<polygon fill="#e0e0e0" stroke="#999999" points="1260,-129 1188,-129 1188,-110 1260,-110 1260,-129"/>
<text text-anchor="middle" x="1224" y="-117" font-family="Helvetica,sans-Serif" font-size="10.00">netinet/in.h</text>
</a>
</g>
</g>
<!-- Node18&#45;&gt;Node19 -->
<g id="edge30_Node000018_Node000019" class="edge">
<title>Node18&#45;&gt;Node19</title>
<g id="a_edge30_Node000018_Node000019"><a xlink:title=" ">
<path fill="none" stroke="#63b8ff" d="M1097.26,-164.98C1122.32,-156.19 1161.63,-142.39 1189.83,-132.49"/>
<polygon fill="#63b8ff" stroke="#63b8ff" points="1191.02,-135.78 1199.3,-129.17 1188.7,-129.18 1191.02,-135.78"/>
</a>
</g>
</g>
<!-- Node20 -->
<g id="Node000020" class="node">
<title>Node20</title>
<g id="a_Node000020"><a xlink:title=" ">
<polygon fill="#e0e0e0" stroke="#999999" points="1131.5,-129 1054.5,-129 1054.5,-110 1131.5,-110 1131.5,-129"/>
<text text-anchor="middle" x="1093" y="-117" font-family="Helvetica,sans-Serif" font-size="10.00">sys/socket.h</text>
</a>
</g>
</g>
<!-- Node18&#45;&gt;Node20 -->
<g id="edge32_Node000018_Node000020" class="edge">
<title>Node18&#45;&gt;Node20</title>
<g id="a_edge32_Node000018_Node000020"><a xlink:title=" ">
<path fill="none" stroke="#63b8ff" d="M1076.3,-164.75C1078.98,-157.65 1082.85,-147.4 1086.19,-138.56"/>
<polygon fill="#63b8ff" stroke="#63b8ff" points="1089.5,-139.68 1089.76,-129.09 1082.95,-137.21 1089.5,-139.68"/>
</a>
</g>
</g>
<!-- Node21&#45;&gt;Node9 -->
<g id="edge42_Node000021_Node000009" class="edge">
<title>Node21&#45;&gt;Node9</title>
<g id="a_edge42_Node000021_Node000009"><a xlink:title=" ">
<path fill="none" stroke="#63b8ff" d="M594.86,-220.77C563.55,-214.61 526.57,-203.61 498,-184 481.1,-172.39 467.91,-152.69 459.86,-138.3"/>
<polygon fill="#63b8ff" stroke="#63b8ff" points="462.9,-136.56 455.12,-129.35 456.71,-139.83 462.9,-136.56"/>
</a>
</g>
</g>
<!-- Node21&#45;&gt;Node10 -->
<g id="edge39_Node000021_Node000010" class="edge">
<title>Node21&#45;&gt;Node10</title>
<g id="a_edge39_Node000021_Node000010"><a xlink:title=" ">
<path fill="none" stroke="#63b8ff" d="M723.09,-224.88C787.83,-219.9 881.9,-208.57 908,-184 951.58,-142.99 953.31,-65.13 951.53,-29.35"/>
<polygon fill="#63b8ff" stroke="#63b8ff" points="955.02,-29.06 950.88,-19.31 948.04,-29.51 955.02,-29.06"/>
</a>
</g>
</g>
<!-- Node21&#45;&gt;Node12 -->
<g id="edge41_Node000021_Node000012" class="edge">
<title>Node21&#45;&gt;Node12</title>
<g id="a_edge41_Node000021_Node000012"><a xlink:title=" ">
<path fill="none" stroke="#63b8ff" d="M594.92,-226.1C544.37,-222.04 473.25,-211.43 417,-184 368.71,-160.45 328.28,-109.4 309.42,-82.65"/>
<polygon fill="#63b8ff" stroke="#63b8ff" points="312.22,-80.54 303.67,-74.28 306.45,-84.51 312.22,-80.54"/>
</a>
</g>
</g>
<!-- Node21&#45;&gt;Node15 -->
<g id="edge43_Node000021_Node000015" class="edge">
<title>Node21&#45;&gt;Node15</title>
<g id="a_edge43_Node000021_Node000015"><a xlink:title=" ">
<path fill="none" stroke="#63b8ff" d="M594.73,-226.9C528.5,-221.24 429.64,-200.49 391,-129 380.19,-109.01 402.59,-90.67 423.02,-78.89"/>
<polygon fill="#63b8ff" stroke="#63b8ff" points="424.73,-81.95 431.85,-74.11 421.39,-75.79 424.73,-81.95"/>
</a>
</g>
</g>
<!-- Node21&#45;&gt;Node18 -->
<g id="edge44_Node000021_Node000018" class="edge">
<title>Node21&#45;&gt;Node18</title>
<g id="a_edge44_Node000021_Node000018"><a xlink:title=" ">
<path fill="none" stroke="#63b8ff" d="M723.23,-220.28C796.92,-210.84 917.66,-195.39 996.24,-185.33"/>
<polygon fill="#63b8ff" stroke="#63b8ff" points="997.08,-188.75 1006.56,-184.01 996.19,-181.8 997.08,-188.75"/>
</a>
</g>
</g>
<!-- Node22 -->
<g id="Node000022" class="node">
<title>Node22</title>
<g id="a_Node000022"><a xlink:title=" ">
<polygon fill="#e0e0e0" stroke="#999999" points="684,-184 634,-184 634,-165 684,-165 684,-184"/>
<text text-anchor="middle" x="659" y="-172" font-family="Helvetica,sans-Serif" font-size="10.00">atomic</text>
</a>
</g>
</g>
<!-- Node21&#45;&gt;Node22 -->
<g id="edge36_Node000021_Node000022" class="edge">
<title>Node21&#45;&gt;Node22</title>
<g id="a_edge36_Node000021_Node000022"><a xlink:title=" ">
<path fill="none" stroke="#63b8ff" d="M659,-219.75C659,-212.8 659,-202.85 659,-194.13"/>
<polygon fill="#63b8ff" stroke="#63b8ff" points="662.5,-194.09 659,-184.09 655.5,-194.09 662.5,-194.09"/>
</a>
</g>
</g>
<!-- Node23 -->
<g id="Node000023" class="node">
<title>Node23</title>
<g id="a_Node000023"><a xlink:title=" ">
<polygon fill="#e0e0e0" stroke="#999999" points="749.5,-184 702.5,-184 702.5,-165 749.5,-165 749.5,-184"/>
<text text-anchor="middle" x="726" y="-172" font-family="Helvetica,sans-Serif" font-size="10.00">deque</text>
</a>
</g>
</g>
<!-- Node21&#45;&gt;Node23 -->
<g id="edge37_Node000021_Node000023" class="edge">
<title>Node21&#45;&gt;Node23</title>
<g id="a_edge37_Node000021_Node000023"><a xlink:title=" ">
<path fill="none" stroke="#63b8ff" d="M669.76,-219.98C679.77,-212.07 694.89,-200.11 706.93,-190.58"/>
<polygon fill="#63b8ff" stroke="#63b8ff" points="709.37,-193.12 715.04,-184.17 705.03,-187.63 709.37,-193.12"/>
</a>
</g>
</g>
<!-- Node24 -->
<g id="Node000024" class="node">
<title>Node24</title>
<g id="a_Node000024"><a xlink:title=" ">
<polygon fill="#e0e0e0" stroke="#999999" points="832.5,-184 767.5,-184 767.5,-165 832.5,-165 832.5,-184"/>
<text text-anchor="middle" x="800" y="-172" font-family="Helvetica,sans-Serif" font-size="10.00">functional</text>
</a>
</g>
</g>
<!-- Node21&#45;&gt;Node24 -->
<g id="edge38_Node000021_Node000024" class="edge">
<title>Node21&#45;&gt;Node24</title>
<g id="a_edge38_Node000021_Node000024"><a xlink:title=" ">
<path fill="none" stroke="#63b8ff" d="M681.65,-219.98C704.85,-211.27 741.12,-197.63 767.4,-187.75"/>
<polygon fill="#63b8ff" stroke="#63b8ff" points="768.8,-190.97 776.93,-184.17 766.34,-184.41 768.8,-190.97"/>
</a>
</g>
</g>
<!-- Node25 -->
<g id="Node000025" class="node">
<title>Node25</title>
<g id="a_Node000025"><a xlink:title=" ">
<polygon fill="#e0e0e0" stroke="#999999" points="899,-184 851,-184 851,-165 899,-165 899,-184"/>
<text text-anchor="middle" x="875" y="-172" font-family="Helvetica,sans-Serif" font-size="10.00">thread</text>
</a>
</g>
</g>
<!-- Node21&#45;&gt;Node25 -->
<g id="edge40_Node000021_Node000025" class="edge">
<title>Node21&#45;&gt;Node25</title>
<g id="a_edge40_Node000021_Node000025"><a xlink:title=" ">
<path fill="none" stroke="#63b8ff" d="M694.8,-219.95C729.7,-211.57 784.52,-198.33 841.04,-184.22"/>
<polygon fill="#63b8ff" stroke="#63b8ff" points="842.01,-187.58 850.86,-181.76 840.31,-180.79 842.01,-187.58"/>
</a>
</g>
</g>
<!-- Node26 -->
<g id="Node000026" class="node">
<title>Node26</title>
<g id="a_Node000026"><a xlink:href="partfile_8hpp.html" target="_top" xlink:title=" ">
<polygon fill="white" stroke="#666666" points="808,-129 736,-129 736,-110 808,-110 808,-129"/>
<text text-anchor="middle" x="772" y="-117" font-family="Helvetica,sans-Serif" font-size="10.00">partfile.hpp</text>
</a>
</g>
</g>
<!-- Node21&#45;&gt;Node26 -->
<g id="edge45_Node000021_Node000026" class="edge">
<title>Node21&#45;&gt;Node26</title>
<g id="a_edge45_Node000021_Node000026"><a xlink:title=" ">
<path fill="none" stroke="#63b8ff" d="M648.24,-219.81C633.84,-207.13 611.59,-183.08 625,-165 631.26,-156.57 685.46,-141.67 726.25,-131.45"/>
<polygon fill="#63b8ff" stroke="#63b8ff" points="727.16,-134.83 736.03,-129.02 725.48,-128.03 727.16,-134.83"/>
</a>
</g>
</g>
<!-- Node27 -->
<g id="Node000027" class="node">
<title>Node27</title>
<g id="a_Node000027"><a xlink:href="peerdb_8hpp.html" target="_top" xlink:title=" ">
<polygon fill="white" stroke="#666666" points="577.5,-184 506.5,-184 506.5,-165 577.5,-165 577.5,-184"/>
<text text-anchor="middle" x="542" y="-172" font-family="Helvetica,sans-Serif" font-size="10.00">peerdb.hpp</text>
</a>
</g>
</g>
<!-- Node21&#45;&gt;Node27 -->
<g id="edge50_Node000021_Node000027" class="edge">
<title>Node21&#45;&gt;Node27</title>
<g id="a_edge50_Node000021_Node000027"><a xlink:title=" ">
<path fill="none" stroke="#63b8ff" d="M640.2,-219.98C621.38,-211.46 592.18,-198.23 570.5,-188.41"/>
<polygon fill="#63b8ff" stroke="#63b8ff" points="571.69,-185.11 561.14,-184.17 568.8,-191.48 571.69,-185.11"/>
</a>
</g>
</g>
<!-- Node26&#45;&gt;Node4 -->
<g id="edge46_Node000026_Node000004" class="edge">
<title>Node26&#45;&gt;Node4</title>
<g id="a_edge46_Node000026_Node000004"><a xlink:title=" ">
<path fill="none" stroke="#63b8ff" d="M782.28,-109.98C791.84,-102.07 806.28,-90.11 817.78,-80.58"/>
<polygon fill="#63b8ff" stroke="#63b8ff" points="820.06,-83.24 825.53,-74.17 815.6,-77.85 820.06,-83.24"/>
</a>
</g>
</g>
<!-- Node26&#45;&gt;Node10 -->
<g id="edge47_Node000026_Node000010" class="edge">
<title>Node26&#45;&gt;Node10</title>
<g id="a_edge47_Node000026_Node000010"><a xlink:title=" ">
<path fill="none" stroke="#63b8ff" d="M773.15,-109.74C775.41,-96.06 781.72,-69.67 798,-55 831.27,-25.02 883.73,-15.17 917.5,-11.98"/>
<polygon fill="#63b8ff" stroke="#63b8ff" points="918.07,-15.45 927.76,-11.16 917.51,-8.47 918.07,-15.45"/>
</a>
</g>
</g>
<!-- Node26&#45;&gt;Node11 -->
<g id="edge48_Node000026_Node000011" class="edge">
<title>Node26&#45;&gt;Node11</title>
<g id="a_edge48_Node000026_Node000011"><a xlink:title=" ">
<path fill="none" stroke="#63b8ff" d="M756.42,-109.98C741.23,-101.69 717.9,-88.94 700.1,-79.22"/>
<polygon fill="#63b8ff" stroke="#63b8ff" points="701.32,-75.89 690.87,-74.17 697.97,-82.04 701.32,-75.89"/>
</a>
</g>
</g>
<!-- Node26&#45;&gt;Node15 -->
<g id="edge49_Node000026_Node000015" class="edge">
<title>Node26&#45;&gt;Node15</title>
<g id="a_edge49_Node000026_Node000015"><a xlink:title=" ">
<path fill="none" stroke="#63b8ff" d="M735.67,-111.55C732.74,-111.02 729.82,-110.49 727,-110 646.15,-95.85 551.69,-80.98 496.87,-72.51"/>
<polygon fill="#63b8ff" stroke="#63b8ff" points="497.2,-69.02 486.78,-70.95 496.13,-75.94 497.2,-69.02"/>
</a>
</g>
</g>
<!-- Node27&#45;&gt;Node4 -->
<g id="edge51_Node000027_Node000004" class="edge">
<title>Node27&#45;&gt;Node4</title>
<g id="a_edge51_Node000027_Node000004"><a xlink:title=" ">
<path fill="none" stroke="#63b8ff" d="M577.57,-169.86C647.84,-162.37 799.21,-144.61 817,-129 829.56,-117.98 833.98,-99.04 835.46,-84.7"/>
<polygon fill="#63b8ff" stroke="#63b8ff" points="838.97,-84.63 836.11,-74.43 831.99,-84.19 838.97,-84.63"/>
</a>
</g>
</g>
<!-- Node27&#45;&gt;Node9 -->
<g id="edge56_Node000027_Node000009" class="edge">
<title>Node27&#45;&gt;Node9</title>
<g id="a_edge56_Node000027_Node000009"><a xlink:title=" ">
<path fill="none" stroke="#63b8ff" d="M527.38,-164.98C513.14,-156.69 491.25,-143.94 474.55,-134.22"/>
<polygon fill="#63b8ff" stroke="#63b8ff" points="476.29,-131.18 465.89,-129.17 472.77,-137.23 476.29,-131.18"/>
</a>
</g>
</g>
<!-- Node27&#45;&gt;Node10 -->
<g id="edge53_Node000027_Node000010" class="edge">
<title>Node27&#45;&gt;Node10</title>
<g id="a_edge53_Node000027_Node000010"><a xlink:title=" ">
<path fill="none" stroke="#63b8ff" d="M577.62,-169.44C651.05,-160.88 814.31,-140.8 837,-129 883.28,-104.94 921.26,-54.5 939.07,-27.85"/>
<polygon fill="#63b8ff" stroke="#63b8ff" points="942.18,-29.5 944.7,-19.2 936.31,-25.68 942.18,-29.5"/>
</a>
</g>
</g>
<!-- Node27&#45;&gt;Node12 -->
<g id="edge55_Node000027_Node000012" class="edge">
<title>Node27&#45;&gt;Node12</title>
<g id="a_edge55_Node000027_Node000012"><a xlink:title=" ">
<path fill="none" stroke="#63b8ff" d="M506.38,-166.32C475.03,-159.23 428.66,-146.86 391,-129 363.07,-115.75 334.16,-94.64 316.14,-80.44"/>
<polygon fill="#63b8ff" stroke="#63b8ff" points="318.21,-77.61 308.22,-74.09 313.83,-83.07 318.21,-77.61"/>
</a>
</g>
</g>
<!-- Node27&#45;&gt;Node15 -->
<g id="edge57_Node000027_Node000015" class="edge">
<title>Node27&#45;&gt;Node15</title>
<g id="a_edge57_Node000027_Node000015"><a xlink:title=" ">
<path fill="none" stroke="#63b8ff" d="M539.3,-164.95C534.92,-152.02 525.27,-127.17 511,-110 500.96,-97.92 486.99,-87.31 475.05,-79.48"/>
<polygon fill="#63b8ff" stroke="#63b8ff" points="476.75,-76.41 466.42,-74.06 473.03,-82.34 476.75,-76.41"/>
</a>
</g>
</g>
<!-- Node28 -->
<g id="Node000028" class="node">
<title>Node28</title>
<g id="a_Node000028"><a xlink:title=" ">
<polygon fill="#e0e0e0" stroke="#999999" points="718,-129 670,-129 670,-110 718,-110 718,-129"/>
<text text-anchor="middle" x="694" y="-117" font-family="Helvetica,sans-Serif" font-size="10.00">mutex</text>
</a>
</g>
</g>
<!-- Node27&#45;&gt;Node28 -->
<g id="edge52_Node000027_Node000028" class="edge">
<title>Node27&#45;&gt;Node28</title>
<g id="a_edge52_Node000027_Node000028"><a xlink:title=" ">
<path fill="none" stroke="#63b8ff" d="M566.42,-164.98C591.87,-156.11 631.93,-142.14 660.36,-132.23"/>
<polygon fill="#63b8ff" stroke="#63b8ff" points="661.6,-135.5 669.89,-128.91 659.3,-128.89 661.6,-135.5"/>
</a>
</g>
</g>
<!-- Node29 -->
<g id="Node000029" class="node">
<title>Node29</title>
<g id="a_Node000029"><a xlink:title=" ">
<polygon fill="#e0e0e0" stroke="#999999" points="651.5,-129 558.5,-129 558.5,-110 651.5,-110 651.5,-129"/>
<text text-anchor="middle" x="605" y="-117" font-family="Helvetica,sans-Serif" font-size="10.00">unordered_map</text>
</a>
</g>
</g>
<!-- Node27&#45;&gt;Node29 -->
<g id="edge54_Node000027_Node000029" class="edge">
<title>Node27&#45;&gt;Node29</title>
<g id="a_edge54_Node000027_Node000029"><a xlink:title=" ">
<path fill="none" stroke="#63b8ff" d="M552.12,-164.98C561.44,-157.15 575.47,-145.34 586.74,-135.86"/>
<polygon fill="#63b8ff" stroke="#63b8ff" points="589.29,-138.29 594.69,-129.17 584.79,-132.93 589.29,-138.29"/>
</a>
</g>
</g>
</g>
</svg>
