<?xml version="1.0" encoding="UTF-8" standalone="no"?>
<!DOCTYPE svg PUBLIC "-//W3C//DTD SVG 1.1//EN"
 "http://www.w3.org/Graphics/SVG/1.1/DTD/svg11.dtd">
<!-- Generated by graphviz version 2.43.0 (0)
 -->
<!-- Title: src/client/process_input.cpp Pages: 1 -->
<svg width="1696pt" height="368pt"
 viewBox="0.00 0.00 1696.00 368.00" xmlns="http://www.w3.org/2000/svg" xmlns:xlink="http://www.w3.org/1999/xlink">
<g id="graph0" class="graph" transform="scale(1 1) rotate(0) translate(4 364)">
<title>src/client/process_input.cpp</title>
<!-- Node1 -->
<g id="Node000001" class="node">
<title>Node1</title>
<g id="a_Node000001"><a xlink:title=" ">
<polygon fill="#999999" stroke="#666666" points="348.5,-360 247.5,-360 247.5,-330 348.5,-330 348.5,-360"/>
<text text-anchor="start" x="255.5" y="-348" font-family="Helvetica,sans-Serif" font-size="10.00">src/client/process</text>
<text text-anchor="middle" x="298" y="-337" font-family="Helvetica,sans-Serif" font-size="10.00">_input.cpp</text>
</a>
</g>
</g>
<!-- Node2 -->
<g id="Node000002" class="node">
<title>Node2</title>
<g id="a_Node000002"><a xlink:title=" ">
<polygon fill="#e0e0e0" stroke="#999999" points="50,-294 0,-294 0,-275 50,-275 50,-294"/>
<text text-anchor="middle" x="25" y="-282" font-family="Helvetica,sans-Serif" font-size="10.00">cstring</text>
</a>
</g>
</g>
<!-- Node1&#45;&gt;Node2 -->
<g id="edge1_Node000001_Node000002" class="edge">
<title>Node1&#45;&gt;Node2</title>
<g id="a_edge1_Node000001_Node000002"><a xlink:title=" ">
<path fill="none" stroke="#63b8ff" d="M247.06,-333.94C200.76,-324.66 130.34,-310.21 60.13,-294.19"/>
<polygon fill="#63b8ff" stroke="#63b8ff" points="60.75,-290.74 50.22,-291.92 59.19,-297.57 60.75,-290.74"/>
</a>
</g>
</g>
<!-- Node3 -->
<g id="Node000003" class="node">
<title>Node3</title>
<g id="a_Node000003"><a xlink:title=" ">
<polygon fill="#e0e0e0" stroke="#999999" points="115.5,-294 68.5,-294 68.5,-275 115.5,-275 115.5,-294"/>
<text text-anchor="middle" x="92" y="-282" font-family="Helvetica,sans-Serif" font-size="10.00">fcntl.h</text>
</a>
</g>
</g>
<!-- Node1&#45;&gt;Node3 -->
<g id="edge2_Node000001_Node000003" class="edge">
<title>Node1&#45;&gt;Node3</title>
<g id="a_edge2_Node000001_Node000003"><a xlink:title=" ">
<path fill="none" stroke="#63b8ff" d="M248.66,-329.99C210.47,-319.14 158.63,-304.42 125.24,-294.94"/>
<polygon fill="#63b8ff" stroke="#63b8ff" points="126.09,-291.54 115.51,-292.18 124.17,-298.28 126.09,-291.54"/>
</a>
</g>
</g>
<!-- Node4 -->
<g id="Node000004" class="node">
<title>Node4</title>
<g id="a_Node000004"><a xlink:title=" ">
<polygon fill="#e0e0e0" stroke="#999999" points="774,-74 716,-74 716,-55 774,-55 774,-74"/>
<text text-anchor="middle" x="745" y="-62" font-family="Helvetica,sans-Serif" font-size="10.00">memory</text>
</a>
</g>
</g>
<!-- Node1&#45;&gt;Node4 -->
<g id="edge3_Node000001_Node000004" class="edge">
<title>Node1&#45;&gt;Node4</title>
<g id="a_edge3_Node000001_Node000004"><a xlink:title=" ">
<path fill="none" stroke="#63b8ff" d="M327.92,-329.9C348.57,-320.07 376.59,-306.52 401,-294 538.13,-223.66 594.07,-234.95 706,-129 719.63,-116.1 730.33,-97.44 737.05,-83.68"/>
<polygon fill="#63b8ff" stroke="#63b8ff" points="740.37,-84.84 741.39,-74.29 734.02,-81.9 740.37,-84.84"/>
</a>
</g>
</g>
<!-- Node5 -->
<g id="Node000005" class="node">
<title>Node5</title>
<g id="a_Node000005"><a xlink:title=" ">
<polygon fill="#e0e0e0" stroke="#999999" points="232,-294 172,-294 172,-275 232,-275 232,-294"/>
<text text-anchor="middle" x="202" y="-282" font-family="Helvetica,sans-Serif" font-size="10.00">iostream</text>
</a>
</g>
</g>
<!-- Node1&#45;&gt;Node5 -->
<g id="edge4_Node000001_Node000005" class="edge">
<title>Node1&#45;&gt;Node5</title>
<g id="a_edge4_Node000001_Node000005"><a xlink:title=" ">
<path fill="none" stroke="#63b8ff" d="M274.76,-329.84C259.6,-320.6 239.89,-308.59 224.81,-299.4"/>
<polygon fill="#63b8ff" stroke="#63b8ff" points="226.46,-296.31 216.1,-294.09 222.82,-302.29 226.46,-296.31"/>
</a>
</g>
</g>
<!-- Node6 -->
<g id="Node000006" class="node">
<title>Node6</title>
<g id="a_Node000006"><a xlink:title=" ">
<polygon fill="#e0e0e0" stroke="#999999" points="250,-19 194,-19 194,0 250,0 250,-19"/>
<text text-anchor="middle" x="222" y="-7" font-family="Helvetica,sans-Serif" font-size="10.00">sstream</text>
</a>
</g>
</g>
<!-- Node1&#45;&gt;Node6 -->
<g id="edge5_Node000001_Node000006" class="edge">
<title>Node1&#45;&gt;Node6</title>
<g id="a_edge5_Node000001_Node000006"><a xlink:title=" ">
<path fill="none" stroke="#63b8ff" d="M247.25,-336.58C218.9,-329.93 184.97,-317.42 163,-294 142.85,-272.51 144,-259.96 144,-230.5 144,-230.5 144,-230.5 144,-118.5 144,-78.95 178.8,-44.05 201.91,-25.23"/>
<polygon fill="#63b8ff" stroke="#63b8ff" points="204.1,-27.97 209.81,-19.05 199.78,-22.46 204.1,-27.97"/>
</a>
</g>
</g>
<!-- Node7 -->
<g id="Node000007" class="node">
<title>Node7</title>
<g id="a_Node000007"><a xlink:title=" ">
<polygon fill="#e0e0e0" stroke="#999999" points="1688,-129 1632,-129 1632,-110 1688,-110 1688,-129"/>
<text text-anchor="middle" x="1660" y="-117" font-family="Helvetica,sans-Serif" font-size="10.00">unistd.h</text>
</a>
</g>
</g>
<!-- Node1&#45;&gt;Node7 -->
<g id="edge6_Node000001_Node000007" class="edge">
<title>Node1&#45;&gt;Node7</title>
<g id="a_edge6_Node000001_Node000007"><a xlink:title=" ">
<path fill="none" stroke="#63b8ff" d="M348.73,-343.73C499.02,-341.88 954.16,-328.7 1318,-239 1436.23,-209.85 1571.44,-156.93 1630.17,-132.93"/>
<polygon fill="#63b8ff" stroke="#63b8ff" points="1631.66,-136.1 1639.58,-129.06 1629,-129.63 1631.66,-136.1"/>
</a>
</g>
</g>
<!-- Node8 -->
<g id="Node000008" class="node">
<title>Node8</title>
<g id="a_Node000008"><a xlink:title=" ">
<polygon fill="#e0e0e0" stroke="#999999" points="505.5,-19 458.5,-19 458.5,0 505.5,0 505.5,-19"/>
<text text-anchor="middle" x="482" y="-7" font-family="Helvetica,sans-Serif" font-size="10.00">vector</text>
</a>
</g>
</g>
<!-- Node1&#45;&gt;Node8 -->
<g id="edge7_Node000001_Node000008" class="edge">
<title>Node1&#45;&gt;Node8</title>
<g id="a_edge7_Node000001_Node000008"><a xlink:title=" ">
<path fill="none" stroke="#63b8ff" d="M289.94,-329.82C278.79,-308.82 260,-267.9 260,-230.5 260,-230.5 260,-230.5 260,-118.5 260,-35.85 385.97,-16.43 448.13,-11.88"/>
<polygon fill="#63b8ff" stroke="#63b8ff" points="448.49,-15.37 458.24,-11.24 448.04,-8.38 448.49,-15.37"/>
</a>
</g>
</g>
<!-- Node9 -->
<g id="Node000009" class="node">
<title>Node9</title>
<g id="a_Node000009"><a xlink:href="file_8hpp.html" target="_top" xlink:title=" ">
<polygon fill="white" stroke="#666666" points="541.5,-129 440.5,-129 440.5,-110 541.5,-110 541.5,-129"/>
<text text-anchor="middle" x="491" y="-117" font-family="Helvetica,sans-Serif" font-size="10.00">../models/file.hpp</text>
</a>
</g>
</g>
<!-- Node1&#45;&gt;Node9 -->
<g id="edge8_Node000001_Node000009" class="edge">
<title>Node1&#45;&gt;Node9</title>
<g id="a_edge8_Node000001_Node000009"><a xlink:title=" ">
<path fill="none" stroke="#63b8ff" d="M322.51,-329.89C362.25,-305.6 440.1,-251.91 478,-184 485.64,-170.32 488.81,-152.74 490.12,-139.55"/>
<polygon fill="#63b8ff" stroke="#63b8ff" points="493.63,-139.51 490.85,-129.29 486.65,-139.01 493.63,-139.51"/>
</a>
</g>
</g>
<!-- Node15 -->
<g id="Node000015" class="node">
<title>Node15</title>
<g id="a_Node000015"><a xlink:href="fileinfo_8hpp.html" target="_top" xlink:title=" ">
<polygon fill="white" stroke="#666666" points="517.5,-74 446.5,-74 446.5,-55 517.5,-55 517.5,-74"/>
<text text-anchor="middle" x="482" y="-62" font-family="Helvetica,sans-Serif" font-size="10.00">fileinfo.hpp</text>
</a>
</g>
</g>
<!-- Node1&#45;&gt;Node15 -->
<g id="edge22_Node000001_Node000015" class="edge">
<title>Node1&#45;&gt;Node15</title>
<g id="a_edge22_Node000001_Node000015"><a xlink:title=" ">
<path fill="none" stroke="#63b8ff" d="M300.44,-329.79C307.89,-290.27 333.74,-177.51 396,-110 409.24,-95.64 428.18,-85.15 444.92,-77.97"/>
<polygon fill="#63b8ff" stroke="#63b8ff" points="446.49,-81.11 454.46,-74.12 443.87,-74.62 446.49,-81.11"/>
</a>
</g>
</g>
<!-- Node16 -->
<g id="Node000016" class="node">
<title>Node16</title>
<g id="a_Node000016"><a xlink:href="file__io_8hpp.html" target="_top" xlink:title=" ">
<polygon fill="white" stroke="#666666" points="469.5,-184 402.5,-184 402.5,-165 469.5,-165 469.5,-184"/>
<text text-anchor="middle" x="436" y="-172" font-family="Helvetica,sans-Serif" font-size="10.00">file_io.hpp</text>
</a>
</g>
</g>
<!-- Node1&#45;&gt;Node16 -->
<g id="edge23_Node000001_Node000016" class="edge">
<title>Node1&#45;&gt;Node16</title>
<g id="a_edge23_Node000001_Node000016"><a xlink:title=" ">
<path fill="none" stroke="#63b8ff" d="M309.53,-329.92C334.86,-298.99 395.27,-225.23 422.4,-192.1"/>
<polygon fill="#63b8ff" stroke="#63b8ff" points="425.2,-194.21 428.83,-184.25 419.79,-189.77 425.2,-194.21"/>
</a>
</g>
</g>
<!-- Node17 -->
<g id="Node000017" class="node">
<title>Node17</title>
<g id="a_Node000017"><a xlink:href="process__input_8hpp.html" target="_top" xlink:title=" ">
<polygon fill="white" stroke="#666666" points="1001.5,-294 896.5,-294 896.5,-275 1001.5,-275 1001.5,-294"/>
<text text-anchor="middle" x="949" y="-282" font-family="Helvetica,sans-Serif" font-size="10.00">process_input.hpp</text>
</a>
</g>
</g>
<!-- Node1&#45;&gt;Node17 -->
<g id="edge27_Node000001_Node000017" class="edge">
<title>Node1&#45;&gt;Node17</title>
<g id="a_edge27_Node000001_Node000017"><a xlink:title=" ">
<path fill="none" stroke="#63b8ff" d="M348.54,-339.46C466.05,-328.9 757.41,-302.72 886.14,-291.15"/>
<polygon fill="#63b8ff" stroke="#63b8ff" points="886.58,-294.62 896.23,-290.24 885.96,-287.65 886.58,-294.62"/>
</a>
</g>
</g>
<!-- Node9&#45;&gt;Node4 -->
<g id="edge9_Node000009_Node000004" class="edge">
<title>Node9&#45;&gt;Node4</title>
<g id="a_edge9_Node000009_Node000004"><a xlink:title=" ">
<path fill="none" stroke="#63b8ff" d="M531.81,-109.98C579.76,-99.98 658.74,-83.5 705.92,-73.65"/>
<polygon fill="#63b8ff" stroke="#63b8ff" points="706.7,-77.07 715.77,-71.6 705.27,-70.22 706.7,-77.07"/>
</a>
</g>
</g>
<!-- Node9&#45;&gt;Node6 -->
<g id="edge11_Node000009_Node000006" class="edge">
<title>Node9&#45;&gt;Node6</title>
<g id="a_edge11_Node000009_Node000006"><a xlink:title=" ">
<path fill="none" stroke="#63b8ff" d="M469.44,-109.84C421.91,-90.76 307.95,-45.01 252.86,-22.89"/>
<polygon fill="#63b8ff" stroke="#63b8ff" points="253.87,-19.52 243.29,-19.05 251.26,-26.02 253.87,-19.52"/>
</a>
</g>
</g>
<!-- Node10 -->
<g id="Node000010" class="node">
<title>Node10</title>
<g id="a_Node000010"><a xlink:title=" ">
<polygon fill="#e0e0e0" stroke="#999999" points="835,-19 791,-19 791,0 835,0 835,-19"/>
<text text-anchor="middle" x="813" y="-7" font-family="Helvetica,sans-Serif" font-size="10.00">string</text>
</a>
</g>
</g>
<!-- Node9&#45;&gt;Node10 -->
<g id="edge10_Node000009_Node000010" class="edge">
<title>Node9&#45;&gt;Node10</title>
<g id="a_edge10_Node000009_Node000010"><a xlink:title=" ">
<path fill="none" stroke="#63b8ff" d="M498.19,-109.88C510.38,-95.91 536.56,-68.51 565,-55 602.76,-37.07 722.35,-21.11 780.55,-14.17"/>
<polygon fill="#63b8ff" stroke="#63b8ff" points="781.15,-17.63 790.67,-12.98 780.33,-10.67 781.15,-17.63"/>
</a>
</g>
</g>
<!-- Node11 -->
<g id="Node000011" class="node">
<title>Node11</title>
<g id="a_Node000011"><a xlink:title=" ">
<polygon fill="#e0e0e0" stroke="#999999" points="660,-74 574,-74 574,-55 660,-55 660,-74"/>
<text text-anchor="middle" x="617" y="-62" font-family="Helvetica,sans-Serif" font-size="10.00">unordered_set</text>
</a>
</g>
</g>
<!-- Node9&#45;&gt;Node11 -->
<g id="edge12_Node000009_Node000011" class="edge">
<title>Node9&#45;&gt;Node11</title>
<g id="a_edge12_Node000009_Node000011"><a xlink:title=" ">
<path fill="none" stroke="#63b8ff" d="M511.24,-109.98C531.7,-101.38 563.53,-87.99 586.93,-78.15"/>
<polygon fill="#63b8ff" stroke="#63b8ff" points="588.53,-81.27 596.39,-74.17 585.81,-74.82 588.53,-81.27"/>
</a>
</g>
</g>
<!-- Node12 -->
<g id="Node000012" class="node">
<title>Node12</title>
<g id="a_Node000012"><a xlink:href="endpoint_8hpp.html" target="_top" xlink:title=" ">
<polygon fill="white" stroke="#666666" points="920,-74 840,-74 840,-55 920,-55 920,-74"/>
<text text-anchor="middle" x="880" y="-62" font-family="Helvetica,sans-Serif" font-size="10.00">endpoint.hpp</text>
</a>
</g>
</g>
<!-- Node9&#45;&gt;Node12 -->
<g id="edge13_Node000009_Node000012" class="edge">
<title>Node9&#45;&gt;Node12</title>
<g id="a_edge13_Node000009_Node000012"><a xlink:title=" ">
<path fill="none" stroke="#63b8ff" d="M541.85,-111.57C616.6,-101.39 755.28,-82.49 829.71,-72.35"/>
<polygon fill="#63b8ff" stroke="#63b8ff" points="830.33,-75.8 839.77,-70.98 829.39,-68.86 830.33,-75.8"/>
</a>
</g>
</g>
<!-- Node9&#45;&gt;Node15 -->
<g id="edge17_Node000009_Node000015" class="edge">
<title>Node9&#45;&gt;Node15</title>
<g id="a_edge17_Node000009_Node000015"><a xlink:title=" ">
<path fill="none" stroke="#63b8ff" d="M489.51,-109.75C488.33,-102.8 486.64,-92.85 485.16,-84.13"/>
<polygon fill="#63b8ff" stroke="#63b8ff" points="488.58,-83.36 483.46,-74.09 481.68,-84.53 488.58,-83.36"/>
</a>
</g>
</g>
<!-- Node12&#45;&gt;Node10 -->
<g id="edge16_Node000012_Node000010" class="edge">
<title>Node12&#45;&gt;Node10</title>
<g id="a_edge16_Node000012_Node000010"><a xlink:title=" ">
<path fill="none" stroke="#63b8ff" d="M869.24,-54.98C859.23,-47.07 844.11,-35.11 832.07,-25.58"/>
<polygon fill="#63b8ff" stroke="#63b8ff" points="833.97,-22.63 823.96,-19.17 829.63,-28.12 833.97,-22.63"/>
</a>
</g>
</g>
<!-- Node13 -->
<g id="Node000013" class="node">
<title>Node13</title>
<g id="a_Node000013"><a xlink:title=" ">
<polygon fill="#e0e0e0" stroke="#999999" points="905,-19 855,-19 855,0 905,0 905,-19"/>
<text text-anchor="middle" x="880" y="-7" font-family="Helvetica,sans-Serif" font-size="10.00">cstdint</text>
</a>
</g>
</g>
<!-- Node12&#45;&gt;Node13 -->
<g id="edge14_Node000012_Node000013" class="edge">
<title>Node12&#45;&gt;Node13</title>
<g id="a_edge14_Node000012_Node000013"><a xlink:title=" ">
<path fill="none" stroke="#63b8ff" d="M880,-54.75C880,-47.8 880,-37.85 880,-29.13"/>
<polygon fill="#63b8ff" stroke="#63b8ff" points="883.5,-29.09 880,-19.09 876.5,-29.09 883.5,-29.09"/>
</a>
</g>
</g>
<!-- Node14 -->
<g id="Node000014" class="node">
<title>Node14</title>
<g id="a_Node000014"><a xlink:title=" ">
<polygon fill="#e0e0e0" stroke="#999999" points="685.5,-19 620.5,-19 620.5,0 685.5,0 685.5,-19"/>
<text text-anchor="middle" x="653" y="-7" font-family="Helvetica,sans-Serif" font-size="10.00">stdexcept</text>
</a>
</g>
</g>
<!-- Node12&#45;&gt;Node14 -->
<g id="edge15_Node000012_Node000014" class="edge">
<title>Node12&#45;&gt;Node14</title>
<g id="a_edge15_Node000012_Node000014"><a xlink:title=" ">
<path fill="none" stroke="#63b8ff" d="M843.53,-54.98C803.15,-45.56 738.15,-30.38 695.5,-20.42"/>
<polygon fill="#63b8ff" stroke="#63b8ff" points="696.23,-17 685.7,-18.13 694.64,-23.82 696.23,-17"/>
</a>
</g>
</g>
<!-- Node15&#45;&gt;Node6 -->
<g id="edge18_Node000015_Node000006" class="edge">
<title>Node15&#45;&gt;Node6</title>
<g id="a_edge18_Node000015_Node000006"><a xlink:title=" ">
<path fill="none" stroke="#63b8ff" d="M446.39,-56.24C397.57,-46.29 310.22,-28.48 260.12,-18.27"/>
<polygon fill="#63b8ff" stroke="#63b8ff" points="260.52,-14.78 250.02,-16.21 259.12,-21.64 260.52,-14.78"/>
</a>
</g>
</g>
<!-- Node15&#45;&gt;Node8 -->
<g id="edge21_Node000015_Node000008" class="edge">
<title>Node15&#45;&gt;Node8</title>
<g id="a_edge21_Node000015_Node000008"><a xlink:title=" ">
<path fill="none" stroke="#63b8ff" d="M482,-54.75C482,-47.8 482,-37.85 482,-29.13"/>
<polygon fill="#63b8ff" stroke="#63b8ff" points="485.5,-29.09 482,-19.09 478.5,-29.09 485.5,-29.09"/>
</a>
</g>
</g>
<!-- Node15&#45;&gt;Node10 -->
<g id="edge20_Node000015_Node000010" class="edge">
<title>Node15&#45;&gt;Node10</title>
<g id="a_edge20_Node000015_Node000010"><a xlink:title=" ">
<path fill="none" stroke="#63b8ff" d="M517.5,-57.41C522.37,-56.59 527.31,-55.77 532,-55 622.06,-40.21 728.5,-23.59 780.76,-15.48"/>
<polygon fill="#63b8ff" stroke="#63b8ff" points="781.42,-18.92 790.77,-13.93 780.35,-12.01 781.42,-18.92"/>
</a>
</g>
</g>
<!-- Node15&#45;&gt;Node14 -->
<g id="edge19_Node000015_Node000014" class="edge">
<title>Node15&#45;&gt;Node14</title>
<g id="a_edge19_Node000015_Node000014"><a xlink:title=" ">
<path fill="none" stroke="#63b8ff" d="M509.47,-54.98C538.18,-46.09 583.42,-32.07 615.42,-22.15"/>
<polygon fill="#63b8ff" stroke="#63b8ff" points="616.8,-25.39 625.31,-19.08 614.72,-18.7 616.8,-25.39"/>
</a>
</g>
</g>
<!-- Node16&#45;&gt;Node4 -->
<g id="edge24_Node000016_Node000004" class="edge">
<title>Node16&#45;&gt;Node4</title>
<g id="a_edge24_Node000016_Node000004"><a xlink:title=" ">
<path fill="none" stroke="#63b8ff" d="M469.78,-173.36C518.58,-171.86 610.49,-164.11 679,-129 700.8,-117.83 720.26,-97.11 732.3,-82.38"/>
<polygon fill="#63b8ff" stroke="#63b8ff" points="735.37,-84.15 738.8,-74.12 729.87,-79.82 735.37,-84.15"/>
</a>
</g>
</g>
<!-- Node16&#45;&gt;Node9 -->
<g id="edge25_Node000016_Node000009" class="edge">
<title>Node16&#45;&gt;Node9</title>
<g id="a_edge25_Node000016_Node000009"><a xlink:title=" ">
<path fill="none" stroke="#63b8ff" d="M445.08,-164.75C453.09,-157.03 464.96,-145.6 474.62,-136.28"/>
<polygon fill="#63b8ff" stroke="#63b8ff" points="477.31,-138.55 482.09,-129.09 472.46,-133.51 477.31,-138.55"/>
</a>
</g>
</g>
<!-- Node16&#45;&gt;Node15 -->
<g id="edge26_Node000016_Node000015" class="edge">
<title>Node16&#45;&gt;Node15</title>
<g id="a_edge26_Node000016_Node000015"><a xlink:title=" ">
<path fill="none" stroke="#63b8ff" d="M432.76,-164.82C428.58,-152.15 422.76,-128.12 431,-110 436.62,-97.63 447.57,-87.36 457.89,-79.81"/>
<polygon fill="#63b8ff" stroke="#63b8ff" points="459.96,-82.63 466.27,-74.12 456.03,-76.84 459.96,-82.63"/>
</a>
</g>
</g>
<!-- Node17&#45;&gt;Node10 -->
<g id="edge28_Node000017_Node000010" class="edge">
<title>Node17&#45;&gt;Node10</title>
<g id="a_edge28_Node000017_Node000010"><a xlink:title=" ">
<path fill="none" stroke="#63b8ff" d="M896.34,-282.53C768.37,-278.95 446.68,-262.19 381,-184 340.8,-136.14 382.88,-86.27 437,-55 466.51,-37.95 694.95,-19.32 780.66,-12.86"/>
<polygon fill="#63b8ff" stroke="#63b8ff" points="781.13,-16.33 790.84,-12.1 780.61,-9.35 781.13,-16.33"/>
</a>
</g>
</g>
<!-- Node17&#45;&gt;Node12 -->
<g id="edge29_Node000017_Node000012" class="edge">
<title>Node17&#45;&gt;Node12</title>
<g id="a_edge29_Node000017_Node000012"><a xlink:title=" ">
<path fill="none" stroke="#63b8ff" d="M1001.66,-278.45C1059.02,-269.82 1148.15,-246.55 1190,-184 1208.29,-156.66 1211.54,-134.85 1190,-110 1185.77,-105.12 1017.01,-82.97 930.31,-71.87"/>
<polygon fill="#63b8ff" stroke="#63b8ff" points="930.53,-68.37 920.16,-70.57 929.64,-75.31 930.53,-68.37"/>
</a>
</g>
</g>
<!-- Node18 -->
<g id="Node000018" class="node">
<title>Node18</title>
<g id="a_Node000018"><a xlink:href="tcp__socket_8hpp.html" target="_top" xlink:title=" ">
<polygon fill="white" stroke="#666666" points="1482.5,-184 1341.5,-184 1341.5,-165 1482.5,-165 1482.5,-184"/>
<text text-anchor="middle" x="1412" y="-172" font-family="Helvetica,sans-Serif" font-size="10.00">../network/tcp_socket.hpp</text>
</a>
</g>
</g>
<!-- Node17&#45;&gt;Node18 -->
<g id="edge30_Node000017_Node000018" class="edge">
<title>Node17&#45;&gt;Node18</title>
<g id="a_edge30_Node000017_Node000018"><a xlink:title=" ">
<path fill="none" stroke="#63b8ff" d="M1001.67,-281.51C1067.89,-277.87 1184.46,-267.61 1280,-239 1320.18,-226.97 1363.38,-204.08 1389.02,-189.32"/>
<polygon fill="#63b8ff" stroke="#63b8ff" points="1391.09,-192.17 1397.95,-184.1 1387.55,-186.13 1391.09,-192.17"/>
</a>
</g>
</g>
<!-- Node21 -->
<g id="Node000021" class="node">
<title>Node21</title>
<g id="a_Node000021"><a xlink:href="downloadmanager_8hpp.html" target="_top" xlink:title=" ">
<polygon fill="white" stroke="#666666" points="1013,-239 885,-239 885,-220 1013,-220 1013,-239"/>
<text text-anchor="middle" x="949" y="-227" font-family="Helvetica,sans-Serif" font-size="10.00">downloadmanager.hpp</text>
</a>
</g>
</g>
<!-- Node17&#45;&gt;Node21 -->
<g id="edge37_Node000017_Node000021" class="edge">
<title>Node17&#45;&gt;Node21</title>
<g id="a_edge37_Node000017_Node000021"><a xlink:title=" ">
<path fill="none" stroke="#63b8ff" d="M949,-274.75C949,-267.8 949,-257.85 949,-249.13"/>
<polygon fill="#63b8ff" stroke="#63b8ff" points="952.5,-249.09 949,-239.09 945.5,-249.09 952.5,-249.09"/>
</a>
</g>
</g>
<!-- Node18&#45;&gt;Node4 -->
<g id="edge31_Node000018_Node000004" class="edge">
<title>Node18&#45;&gt;Node4</title>
<g id="a_edge31_Node000018_Node000004"><a xlink:title=" ">
<path fill="none" stroke="#63b8ff" d="M1385.2,-164.99C1341.03,-151.29 1249.95,-124.44 1171,-110 1152.1,-106.54 886.04,-79.66 784.23,-69.43"/>
<polygon fill="#63b8ff" stroke="#63b8ff" points="784.36,-65.93 774.06,-68.41 783.66,-72.89 784.36,-65.93"/>
</a>
</g>
</g>
<!-- Node18&#45;&gt;Node7 -->
<g id="edge35_Node000018_Node000007" class="edge">
<title>Node18&#45;&gt;Node7</title>
<g id="a_edge35_Node000018_Node000007"><a xlink:title=" ">
<path fill="none" stroke="#63b8ff" d="M1451.85,-164.98C1498.69,-154.97 1575.87,-138.48 1621.93,-128.64"/>
<polygon fill="#63b8ff" stroke="#63b8ff" points="1622.78,-132.03 1631.82,-126.52 1621.31,-125.19 1622.78,-132.03"/>
</a>
</g>
</g>
<!-- Node18&#45;&gt;Node8 -->
<g id="edge36_Node000018_Node000008" class="edge">
<title>Node18&#45;&gt;Node8</title>
<g id="a_edge36_Node000018_Node000008"><a xlink:title=" ">
<path fill="none" stroke="#63b8ff" d="M1397.54,-164.78C1373.85,-150.92 1324.92,-123.99 1280,-110 1133.18,-64.28 648.17,-23.57 515.69,-13.1"/>
<polygon fill="#63b8ff" stroke="#63b8ff" points="515.96,-9.61 505.72,-12.32 515.41,-16.59 515.96,-9.61"/>
</a>
</g>
</g>
<!-- Node18&#45;&gt;Node10 -->
<g id="edge33_Node000018_Node000010" class="edge">
<title>Node18&#45;&gt;Node10</title>
<g id="a_edge33_Node000018_Node000010"><a xlink:title=" ">
<path fill="none" stroke="#63b8ff" d="M1482.58,-170.41C1542.84,-165.02 1615.3,-150.26 1585,-110 1531.88,-39.42 1481.02,-70.21 1394,-55 1153.56,-12.99 1087.01,-57.61 846,-19 845.78,-18.96 845.56,-18.93 845.34,-18.89"/>
<polygon fill="#63b8ff" stroke="#63b8ff" points="845.75,-15.4 835.25,-16.83 844.34,-22.26 845.75,-15.4"/>
</a>
</g>
</g>
<!-- Node19 -->
<g id="Node000019" class="node">
<title>Node19</title>
<g id="a_Node000019"><a xlink:title=" ">
<polygon fill="#e0e0e0" stroke="#999999" points="1480,-129 1408,-129 1408,-110 1480,-110 1480,-129"/>
<text text-anchor="middle" x="1444" y="-117" font-family="Helvetica,sans-Serif" font-size="10.00">netinet/in.h</text>
</a>
</g>
</g>
<!-- Node18&#45;&gt;Node19 -->
<g id="edge32_Node000018_Node000019" class="edge">
<title>Node18&#45;&gt;Node19</title>
<g id="a_edge32_Node000018_Node000019"><a xlink:title=" ">
<path fill="none" stroke="#63b8ff" d="M1417.28,-164.75C1421.71,-157.42 1428.16,-146.73 1433.62,-137.7"/>
<polygon fill="#63b8ff" stroke="#63b8ff" points="1436.64,-139.46 1438.81,-129.09 1430.65,-135.84 1436.64,-139.46"/>
</a>
</g>
</g>
<!-- Node20 -->
<g id="Node000020" class="node">
<title>Node20</title>
<g id="a_Node000020"><a xlink:title=" ">
<polygon fill="#e0e0e0" stroke="#999999" points="1575.5,-129 1498.5,-129 1498.5,-110 1575.5,-110 1575.5,-129"/>
<text text-anchor="middle" x="1537" y="-117" font-family="Helvetica,sans-Serif" font-size="10.00">sys/socket.h</text>
</a>
</g>
</g>
<!-- Node18&#45;&gt;Node20 -->
<g id="edge34_Node000018_Node000020" class="edge">
<title>Node18&#45;&gt;Node20</title>
<g id="a_edge34_Node000018_Node000020"><a xlink:title=" ">
<path fill="none" stroke="#63b8ff" d="M1432.08,-164.98C1452.37,-156.38 1483.96,-142.99 1507.17,-133.15"/>
<polygon fill="#63b8ff" stroke="#63b8ff" points="1508.71,-136.3 1516.55,-129.17 1505.98,-129.85 1508.71,-136.3"/>
</a>
</g>
</g>
<!-- Node21&#45;&gt;Node9 -->
<g id="edge44_Node000021_Node000009" class="edge">
<title>Node21&#45;&gt;Node9</title>
<g id="a_edge44_Node000021_Node000009"><a xlink:title=" ">
<path fill="none" stroke="#63b8ff" d="M884.94,-221.17C829.22,-214.06 746.56,-201.73 676,-184 620.46,-170.05 557.81,-146.92 521.52,-132.76"/>
<polygon fill="#63b8ff" stroke="#63b8ff" points="522.6,-129.43 512.01,-129.02 520.04,-135.94 522.6,-129.43"/>
</a>
</g>
</g>
<!-- Node21&#45;&gt;Node10 -->
<g id="edge41_Node000021_Node000010" class="edge">
<title>Node21&#45;&gt;Node10</title>
<g id="a_edge41_Node000021_Node000010"><a xlink:title=" ">
<path fill="none" stroke="#63b8ff" d="M1013.11,-225.66C1076.74,-221.34 1167.89,-210.57 1190,-184 1211.04,-158.72 1207.76,-137.68 1190,-110 1104.59,23.1 1000.81,-51.31 846,-19 845.78,-18.95 845.56,-18.91 845.35,-18.86"/>
<polygon fill="#63b8ff" stroke="#63b8ff" points="845.83,-15.38 835.3,-16.54 844.26,-22.2 845.83,-15.38"/>
</a>
</g>
</g>
<!-- Node21&#45;&gt;Node12 -->
<g id="edge43_Node000021_Node000012" class="edge">
<title>Node21&#45;&gt;Node12</title>
<g id="a_edge43_Node000021_Node000012"><a xlink:title=" ">
<path fill="none" stroke="#63b8ff" d="M1013.04,-224.49C1071.37,-219.34 1151.32,-208.02 1171,-184 1191.85,-158.56 1192.43,-134.95 1171,-110 1140.55,-74.54 1005.08,-67.04 930.19,-65.64"/>
<polygon fill="#63b8ff" stroke="#63b8ff" points="930.09,-62.14 920.04,-65.48 929.98,-69.14 930.09,-62.14"/>
</a>
</g>
</g>
<!-- Node21&#45;&gt;Node15 -->
<g id="edge45_Node000021_Node000015" class="edge">
<title>Node21&#45;&gt;Node15</title>
<g id="a_edge45_Node000021_Node000015"><a xlink:title=" ">
<path fill="none" stroke="#63b8ff" d="M884.76,-228.14C745.52,-226.7 425.78,-219.51 393,-184 360.58,-148.88 422.07,-102.34 458.25,-79.44"/>
<polygon fill="#63b8ff" stroke="#63b8ff" points="460.16,-82.37 466.83,-74.15 456.49,-76.41 460.16,-82.37"/>
</a>
</g>
</g>
<!-- Node21&#45;&gt;Node18 -->
<g id="edge46_Node000021_Node000018" class="edge">
<title>Node21&#45;&gt;Node18</title>
<g id="a_edge46_Node000021_Node000018"><a xlink:title=" ">
<path fill="none" stroke="#63b8ff" d="M1013.38,-221.13C1096.4,-211.63 1240.82,-195.09 1331.15,-184.75"/>
<polygon fill="#63b8ff" stroke="#63b8ff" points="1331.81,-188.2 1341.35,-183.59 1331.02,-181.25 1331.81,-188.2"/>
</a>
</g>
</g>
<!-- Node22 -->
<g id="Node000022" class="node">
<title>Node22</title>
<g id="a_Node000022"><a xlink:title=" ">
<polygon fill="#e0e0e0" stroke="#999999" points="1013,-184 963,-184 963,-165 1013,-165 1013,-184"/>
<text text-anchor="middle" x="988" y="-172" font-family="Helvetica,sans-Serif" font-size="10.00">atomic</text>
</a>
</g>
</g>
<!-- Node21&#45;&gt;Node22 -->
<g id="edge38_Node000021_Node000022" class="edge">
<title>Node21&#45;&gt;Node22</title>
<g id="a_edge38_Node000021_Node000022"><a xlink:title=" ">
<path fill="none" stroke="#63b8ff" d="M955.44,-219.75C960.89,-212.34 968.86,-201.5 975.56,-192.41"/>
<polygon fill="#63b8ff" stroke="#63b8ff" points="978.57,-194.22 981.68,-184.09 972.93,-190.07 978.57,-194.22"/>
</a>
</g>
</g>
<!-- Node23 -->
<g id="Node000023" class="node">
<title>Node23</title>
<g id="a_Node000023"><a xlink:title=" ">
<polygon fill="#e0e0e0" stroke="#999999" points="1078.5,-184 1031.5,-184 1031.5,-165 1078.5,-165 1078.5,-184"/>
<text text-anchor="middle" x="1055" y="-172" font-family="Helvetica,sans-Serif" font-size="10.00">deque</text>
</a>
</g>
</g>
<!-- Node21&#45;&gt;Node23 -->
<g id="edge39_Node000021_Node000023" class="edge">
<title>Node21&#45;&gt;Node23</title>
<g id="a_edge39_Node000021_Node000023"><a xlink:title=" ">
<path fill="none" stroke="#63b8ff" d="M966.03,-219.98C982.93,-211.54 1009.06,-198.47 1028.64,-188.68"/>
<polygon fill="#63b8ff" stroke="#63b8ff" points="1030.28,-191.77 1037.66,-184.17 1027.15,-185.51 1030.28,-191.77"/>
</a>
</g>
</g>
<!-- Node24 -->
<g id="Node000024" class="node">
<title>Node24</title>
<g id="a_Node000024"><a xlink:title=" ">
<polygon fill="#e0e0e0" stroke="#999999" points="1161.5,-184 1096.5,-184 1096.5,-165 1161.5,-165 1161.5,-184"/>
<text text-anchor="middle" x="1129" y="-172" font-family="Helvetica,sans-Serif" font-size="10.00">functional</text>
</a>
</g>
</g>
<!-- Node21&#45;&gt;Node24 -->
<g id="edge40_Node000021_Node000024" class="edge">
<title>Node21&#45;&gt;Node24</title>
<g id="a_edge40_Node000021_Node000024"><a xlink:title=" ">
<path fill="none" stroke="#63b8ff" d="M977.92,-219.98C1008.27,-211.05 1056.17,-196.94 1089.88,-187.02"/>
<polygon fill="#63b8ff" stroke="#63b8ff" points="1091.25,-190.26 1099.85,-184.08 1089.27,-183.55 1091.25,-190.26"/>
</a>
</g>
</g>
<!-- Node25 -->
<g id="Node000025" class="node">
<title>Node25</title>
<g id="a_Node000025"><a xlink:title=" ">
<polygon fill="#e0e0e0" stroke="#999999" points="767,-184 719,-184 719,-165 767,-165 767,-184"/>
<text text-anchor="middle" x="743" y="-172" font-family="Helvetica,sans-Serif" font-size="10.00">thread</text>
</a>
</g>
</g>
<!-- Node21&#45;&gt;Node25 -->
<g id="edge42_Node000021_Node000025" class="edge">
<title>Node21&#45;&gt;Node25</title>
<g id="a_edge42_Node000021_Node000025"><a xlink:title=" ">
<path fill="none" stroke="#63b8ff" d="M915.9,-219.98C877.69,-210.15 815.18,-194.07 776.71,-184.17"/>
<polygon fill="#63b8ff" stroke="#63b8ff" points="777.56,-180.78 767.01,-181.68 775.82,-187.56 777.56,-180.78"/>
</a>
</g>
</g>
<!-- Node26 -->
<g id="Node000026" class="node">
<title>Node26</title>
<g id="a_Node000026"><a xlink:href="filesdb_8hpp.html" target="_top" xlink:title=" ">
<polygon fill="white" stroke="#666666" points="945,-184 875,-184 875,-165 945,-165 945,-184"/>
<text text-anchor="middle" x="910" y="-172" font-family="Helvetica,sans-Serif" font-size="10.00">filesdb.hpp</text>
</a>
</g>
</g>
<!-- Node21&#45;&gt;Node26 -->
<g id="edge47_Node000021_Node000026" class="edge">
<title>Node21&#45;&gt;Node26</title>
<g id="a_edge47_Node000021_Node000026"><a xlink:title=" ">
<path fill="none" stroke="#63b8ff" d="M942.56,-219.75C937.11,-212.34 929.14,-201.5 922.44,-192.41"/>
<polygon fill="#63b8ff" stroke="#63b8ff" points="925.07,-190.07 916.32,-184.09 919.43,-194.22 925.07,-190.07"/>
</a>
</g>
</g>
<!-- Node30 -->
<g id="Node000030" class="node">
<title>Node30</title>
<g id="a_Node000030"><a xlink:href="partfile_8hpp.html" target="_top" xlink:title=" ">
<polygon fill="white" stroke="#666666" points="670,-129 598,-129 598,-110 670,-110 670,-129"/>
<text text-anchor="middle" x="634" y="-117" font-family="Helvetica,sans-Serif" font-size="10.00">partfile.hpp</text>
</a>
</g>
</g>
<!-- Node21&#45;&gt;Node30 -->
<g id="edge59_Node000021_Node000030" class="edge">
<title>Node21&#45;&gt;Node30</title>
<g id="a_edge59_Node000021_Node000030"><a xlink:title=" ">
<path fill="none" stroke="#63b8ff" d="M884.91,-225.41C835.17,-220.96 765.56,-210.16 710,-184 685.59,-172.51 662.54,-151.24 648.37,-136.5"/>
<polygon fill="#63b8ff" stroke="#63b8ff" points="650.83,-134.01 641.45,-129.09 645.71,-138.79 650.83,-134.01"/>
</a>
</g>
</g>
<!-- Node31 -->
<g id="Node000031" class="node">
<title>Node31</title>
<g id="a_Node000031"><a xlink:href="peerdb_8hpp.html" target="_top" xlink:title=" ">
<polygon fill="white" stroke="#666666" points="856.5,-184 785.5,-184 785.5,-165 856.5,-165 856.5,-184"/>
<text text-anchor="middle" x="821" y="-172" font-family="Helvetica,sans-Serif" font-size="10.00">peerdb.hpp</text>
</a>
</g>
</g>
<!-- Node21&#45;&gt;Node31 -->
<g id="edge60_Node000021_Node000031" class="edge">
<title>Node21&#45;&gt;Node31</title>
<g id="a_edge60_Node000021_Node000031"><a xlink:title=" ">
<path fill="none" stroke="#63b8ff" d="M928.43,-219.98C907.57,-211.34 875.03,-197.87 851.23,-188.02"/>
<polygon fill="#63b8ff" stroke="#63b8ff" points="852.52,-184.76 841.94,-184.17 849.84,-191.23 852.52,-184.76"/>
</a>
</g>
</g>
<!-- Node26&#45;&gt;Node4 -->
<g id="edge48_Node000026_Node000004" class="edge">
<title>Node26&#45;&gt;Node4</title>
<g id="a_edge48_Node000026_Node000004"><a xlink:title=" ">
<path fill="none" stroke="#63b8ff" d="M942.87,-164.99C981.35,-154.7 1040.7,-137.67 1047,-129 1051.96,-122.17 1052.52,-116.39 1047,-110 1038.46,-100.11 863.97,-79.06 784.19,-69.91"/>
<polygon fill="#63b8ff" stroke="#63b8ff" points="784.37,-66.41 774.04,-68.75 783.58,-73.36 784.37,-66.41"/>
</a>
</g>
</g>
<!-- Node26&#45;&gt;Node10 -->
<g id="edge50_Node000026_Node000010" class="edge">
<title>Node26&#45;&gt;Node10</title>
<g id="a_edge50_Node000026_Node000010"><a xlink:title=" ">
<path fill="none" stroke="#63b8ff" d="M945.05,-166.64C948.07,-166.08 951.09,-165.52 954,-165 1051.93,-147.42 1230.61,-189.66 1171,-110 1119.1,-40.64 1067.49,-78.13 984,-55 970.6,-51.29 890.42,-30.52 844.77,-18.71"/>
<polygon fill="#63b8ff" stroke="#63b8ff" points="845.6,-15.31 835.05,-16.2 843.85,-22.09 845.6,-15.31"/>
</a>
</g>
</g>
<!-- Node27 -->
<g id="Node000027" class="node">
<title>Node27</title>
<g id="a_Node000027"><a xlink:title=" ">
<polygon fill="#e0e0e0" stroke="#999999" points="926,-129 878,-129 878,-110 926,-110 926,-129"/>
<text text-anchor="middle" x="902" y="-117" font-family="Helvetica,sans-Serif" font-size="10.00">mutex</text>
</a>
</g>
</g>
<!-- Node26&#45;&gt;Node27 -->
<g id="edge49_Node000026_Node000027" class="edge">
<title>Node26&#45;&gt;Node27</title>
<g id="a_edge49_Node000026_Node000027"><a xlink:title=" ">
<path fill="none" stroke="#63b8ff" d="M908.68,-164.75C907.63,-157.8 906.13,-147.85 904.81,-139.13"/>
<polygon fill="#63b8ff" stroke="#63b8ff" points="908.25,-138.45 903.3,-129.09 901.33,-139.5 908.25,-138.45"/>
</a>
</g>
</g>
<!-- Node28 -->
<g id="Node000028" class="node">
<title>Node28</title>
<g id="a_Node000028"><a xlink:title=" ">
<polygon fill="#e0e0e0" stroke="#999999" points="1037.5,-129 944.5,-129 944.5,-110 1037.5,-110 1037.5,-129"/>
<text text-anchor="middle" x="991" y="-117" font-family="Helvetica,sans-Serif" font-size="10.00">unordered_map</text>
</a>
</g>
</g>
<!-- Node26&#45;&gt;Node28 -->
<g id="edge51_Node000026_Node000028" class="edge">
<title>Node26&#45;&gt;Node28</title>
<g id="a_edge51_Node000026_Node000028"><a xlink:title=" ">
<path fill="none" stroke="#63b8ff" d="M923.01,-164.98C935.46,-156.84 954.46,-144.41 969.21,-134.76"/>
<polygon fill="#63b8ff" stroke="#63b8ff" points="971.3,-137.57 977.75,-129.17 967.46,-131.72 971.3,-137.57"/>
</a>
</g>
</g>
<!-- Node29 -->
<g id="Node000029" class="node">
<title>Node29</title>
<g id="a_Node000029"><a xlink:href="file__id_8hpp.html" target="_top" xlink:title=" ">
<polygon fill="white" stroke="#666666" points="1161.5,-129 1094.5,-129 1094.5,-110 1161.5,-110 1161.5,-129"/>
<text text-anchor="middle" x="1128" y="-117" font-family="Helvetica,sans-Serif" font-size="10.00">file_id.hpp</text>
</a>
</g>
</g>
<!-- Node26&#45;&gt;Node29 -->
<g id="edge52_Node000026_Node000029" class="edge">
<title>Node26&#45;&gt;Node29</title>
<g id="a_edge52_Node000026_Node000029"><a xlink:title=" ">
<path fill="none" stroke="#63b8ff" d="M945.03,-164.98C982.97,-155.76 1043.57,-141.03 1084.53,-131.07"/>
<polygon fill="#63b8ff" stroke="#63b8ff" points="1085.6,-134.41 1094.49,-128.65 1083.95,-127.61 1085.6,-134.41"/>
</a>
</g>
</g>
<!-- Node26&#45;&gt;Node30 -->
<g id="edge54_Node000026_Node000030" class="edge">
<title>Node26&#45;&gt;Node30</title>
<g id="a_edge54_Node000026_Node000030"><a xlink:title=" ">
<path fill="none" stroke="#63b8ff" d="M874.94,-166.72C871.91,-166.14 868.9,-165.56 866,-165 801.47,-152.58 726.82,-138.27 680.01,-129.31"/>
<polygon fill="#63b8ff" stroke="#63b8ff" points="680.65,-125.87 670.17,-127.42 679.33,-132.74 680.65,-125.87"/>
</a>
</g>
</g>
<!-- Node29&#45;&gt;Node10 -->
<g id="edge53_Node000029_Node000010" class="edge">
<title>Node29&#45;&gt;Node10</title>
<g id="a_edge53_Node000029_Node000010"><a xlink:title=" ">
<path fill="none" stroke="#63b8ff" d="M1103.02,-109.94C1046.23,-90.46 907.51,-42.9 844.75,-21.39"/>
<polygon fill="#63b8ff" stroke="#63b8ff" points="845.6,-17.98 835.01,-18.05 843.33,-24.6 845.6,-17.98"/>
</a>
</g>
</g>
<!-- Node30&#45;&gt;Node4 -->
<g id="edge55_Node000030_Node000004" class="edge">
<title>Node30&#45;&gt;Node4</title>
<g id="a_edge55_Node000030_Node000004"><a xlink:title=" ">
<path fill="none" stroke="#63b8ff" d="M651.83,-109.98C669.61,-101.5 697.15,-88.35 717.68,-78.54"/>
<polygon fill="#63b8ff" stroke="#63b8ff" points="719.33,-81.64 726.84,-74.17 716.31,-75.32 719.33,-81.64"/>
</a>
</g>
</g>
<!-- Node30&#45;&gt;Node10 -->
<g id="edge56_Node000030_Node000010" class="edge">
<title>Node30&#45;&gt;Node10</title>
<g id="a_edge56_Node000030_Node000010"><a xlink:title=" ">
<path fill="none" stroke="#63b8ff" d="M642.27,-109.7C655.1,-96.43 681.04,-71.15 707,-55 730.41,-40.43 759.41,-28.63 781.16,-20.85"/>
<polygon fill="#63b8ff" stroke="#63b8ff" points="782.61,-24.05 790.9,-17.46 780.3,-17.44 782.61,-24.05"/>
</a>
</g>
</g>
<!-- Node30&#45;&gt;Node11 -->
<g id="edge57_Node000030_Node000011" class="edge">
<title>Node30&#45;&gt;Node11</title>
<g id="a_edge57_Node000030_Node000011"><a xlink:title=" ">
<path fill="none" stroke="#63b8ff" d="M631.19,-109.75C628.94,-102.72 625.7,-92.62 622.88,-83.84"/>
<polygon fill="#63b8ff" stroke="#63b8ff" points="626.14,-82.54 619.75,-74.09 619.48,-84.68 626.14,-82.54"/>
</a>
</g>
</g>
<!-- Node30&#45;&gt;Node15 -->
<g id="edge58_Node000030_Node000015" class="edge">
<title>Node30&#45;&gt;Node15</title>
<g id="a_edge58_Node000030_Node000015"><a xlink:title=" ">
<path fill="none" stroke="#63b8ff" d="M609.58,-109.98C584.28,-101.16 544.55,-87.31 516.14,-77.41"/>
<polygon fill="#63b8ff" stroke="#63b8ff" points="517.21,-74.07 506.61,-74.08 514.9,-80.68 517.21,-74.07"/>
</a>
</g>
</g>
<!-- Node31&#45;&gt;Node4 -->
<g id="edge61_Node000031_Node000004" class="edge">
<title>Node31&#45;&gt;Node4</title>
<g id="a_edge61_Node000031_Node000004"><a xlink:title=" ">
<path fill="none" stroke="#63b8ff" d="M814.78,-164.66C802.14,-146.69 773.25,-105.64 756.88,-82.38"/>
<polygon fill="#63b8ff" stroke="#63b8ff" points="759.71,-80.32 751.09,-74.16 753.99,-84.35 759.71,-80.32"/>
</a>
</g>
</g>
<!-- Node31&#45;&gt;Node9 -->
<g id="edge66_Node000031_Node000009" class="edge">
<title>Node31&#45;&gt;Node9</title>
<g id="a_edge66_Node000031_Node000009"><a xlink:title=" ">
<path fill="none" stroke="#63b8ff" d="M785.16,-166.62C782.06,-166.06 778.98,-165.51 776,-165 698.72,-151.67 609.34,-138 551.58,-129.39"/>
<polygon fill="#63b8ff" stroke="#63b8ff" points="551.94,-125.9 541.53,-127.89 550.91,-132.83 551.94,-125.9"/>
</a>
</g>
</g>
<!-- Node31&#45;&gt;Node10 -->
<g id="edge63_Node000031_Node000010" class="edge">
<title>Node31&#45;&gt;Node10</title>
<g id="a_edge63_Node000031_Node000010"><a xlink:title=" ">
<path fill="none" stroke="#63b8ff" d="M820.57,-164.74C819.32,-139.31 815.68,-65.08 813.94,-29.69"/>
<polygon fill="#63b8ff" stroke="#63b8ff" points="817.42,-29.12 813.43,-19.31 810.43,-29.47 817.42,-29.12"/>
</a>
</g>
</g>
<!-- Node31&#45;&gt;Node12 -->
<g id="edge65_Node000031_Node000012" class="edge">
<title>Node31&#45;&gt;Node12</title>
<g id="a_edge65_Node000031_Node000012"><a xlink:title=" ">
<path fill="none" stroke="#63b8ff" d="M825.83,-164.66C835.56,-146.85 857.68,-106.37 870.44,-83.01"/>
<polygon fill="#63b8ff" stroke="#63b8ff" points="873.55,-84.61 875.27,-74.16 867.4,-81.26 873.55,-84.61"/>
</a>
</g>
</g>
<!-- Node31&#45;&gt;Node15 -->
<g id="edge67_Node000031_Node000015" class="edge">
<title>Node31&#45;&gt;Node15</title>
<g id="a_edge67_Node000031_Node000015"><a xlink:title=" ">
<path fill="none" stroke="#63b8ff" d="M785.43,-166.76C720.99,-154.53 591.3,-129.87 589,-129 571.66,-122.42 529.42,-96.09 503.5,-79.47"/>
<polygon fill="#63b8ff" stroke="#63b8ff" points="505.39,-76.52 495.08,-74.04 501.59,-82.4 505.39,-76.52"/>
</a>
</g>
</g>
<!-- Node31&#45;&gt;Node27 -->
<g id="edge62_Node000031_Node000027" class="edge">
<title>Node31&#45;&gt;Node27</title>
<g id="a_edge62_Node000031_Node000027"><a xlink:title=" ">
<path fill="none" stroke="#63b8ff" d="M834.01,-164.98C846.46,-156.84 865.46,-144.41 880.21,-134.76"/>
<polygon fill="#63b8ff" stroke="#63b8ff" points="882.3,-137.57 888.75,-129.17 878.46,-131.72 882.3,-137.57"/>
</a>
</g>
</g>
<!-- Node31&#45;&gt;Node28 -->
<g id="edge64_Node000031_Node000028" class="edge">
<title>Node31&#45;&gt;Node28</title>
<g id="a_edge64_Node000031_Node000028"><a xlink:title=" ">
<path fill="none" stroke="#63b8ff" d="M848.31,-164.98C876.85,-156.09 921.83,-142.07 953.64,-132.15"/>
<polygon fill="#63b8ff" stroke="#63b8ff" points="954.97,-135.4 963.47,-129.08 952.88,-128.72 954.97,-135.4"/>
</a>
</g>
</g>
<!-- Node31&#45;&gt;Node29 -->
<g id="edge68_Node000031_Node000029" class="edge">
<title>Node31&#45;&gt;Node29</title>
<g id="a_edge68_Node000031_Node000029"><a xlink:title=" ">
<path fill="none" stroke="#63b8ff" d="M856.85,-166.67C859.94,-166.1 863.03,-165.53 866,-165 942.85,-151.22 1032.58,-136.21 1084.58,-127.62"/>
<polygon fill="#63b8ff" stroke="#63b8ff" points="1085.17,-131.07 1094.47,-125.99 1084.03,-124.17 1085.17,-131.07"/>
</a>
</g>
</g>
</g>
</svg>
