<?xml version="1.0" encoding="UTF-8" standalone="no"?>
<!DOCTYPE svg PUBLIC "-//W3C//DTD SVG 1.1//EN"
 "http://www.w3.org/Graphics/SVG/1.1/DTD/svg11.dtd">
<!-- Generated by graphviz version 2.43.0 (0)
 -->
<!-- Title: src/tracker/process_request.cpp Pages: 1 -->
<svg width="1258pt" height="258pt"
 viewBox="0.00 0.00 1258.26 258.00" xmlns="http://www.w3.org/2000/svg" xmlns:xlink="http://www.w3.org/1999/xlink">
<g id="graph0" class="graph" transform="scale(1 1) rotate(0) translate(4 254)">
<title>src/tracker/process_request.cpp</title>
<!-- Node1 -->
<g id="Node000001" class="node">
<title>Node1</title>
<g id="a_Node000001"><a xlink:title=" ">
<polygon fill="#999999" stroke="#666666" points="846.5,-250 738.5,-250 738.5,-220 846.5,-220 846.5,-250"/>
<text text-anchor="start" x="746.5" y="-238" font-family="Helvetica,sans-Serif" font-size="10.00">src/tracker/process</text>
<text text-anchor="middle" x="792.5" y="-227" font-family="Helvetica,sans-Serif" font-size="10.00">_request.cpp</text>
</a>
</g>
</g>
<!-- Node2 -->
<g id="Node000002" class="node">
<title>Node2</title>
<g id="a_Node000002"><a xlink:href="process__request_8hpp.html" target="_top" xlink:title=" ">
<polygon fill="white" stroke="#666666" points="350,-184 233,-184 233,-165 350,-165 350,-184"/>
<text text-anchor="middle" x="291.5" y="-172" font-family="Helvetica,sans-Serif" font-size="10.00">process_request.hpp</text>
</a>
</g>
</g>
<!-- Node1&#45;&gt;Node2 -->
<g id="edge1_Node000001_Node000002" class="edge">
<title>Node1&#45;&gt;Node2</title>
<g id="a_edge1_Node000001_Node000002"><a xlink:title=" ">
<path fill="none" stroke="#63b8ff" d="M738.41,-227.68C646.8,-216.99 461.27,-195.32 360.46,-183.55"/>
<polygon fill="#63b8ff" stroke="#63b8ff" points="360.72,-180.06 350.38,-182.38 359.91,-187.01 360.72,-180.06"/>
</a>
</g>
</g>
<!-- Node15 -->
<g id="Node000015" class="node">
<title>Node15</title>
<g id="a_Node000015"><a xlink:href="groupdb_8hpp.html" target="_top" xlink:title=" ">
<polygon fill="white" stroke="#666666" points="908,-184 831,-184 831,-165 908,-165 908,-184"/>
<text text-anchor="middle" x="869.5" y="-172" font-family="Helvetica,sans-Serif" font-size="10.00">groupdb.hpp</text>
</a>
</g>
</g>
<!-- Node1&#45;&gt;Node15 -->
<g id="edge18_Node000001_Node000015" class="edge">
<title>Node1&#45;&gt;Node15</title>
<g id="a_edge18_Node000001_Node000015"><a xlink:title=" ">
<path fill="none" stroke="#63b8ff" d="M811.14,-219.84C822.89,-210.91 838.03,-199.41 849.95,-190.35"/>
<polygon fill="#63b8ff" stroke="#63b8ff" points="852.12,-193.1 857.96,-184.27 847.88,-187.53 852.12,-193.1"/>
</a>
</g>
</g>
<!-- Node21 -->
<g id="Node000021" class="node">
<title>Node21</title>
<g id="a_Node000021"><a xlink:href="userdb_8hpp.html" target="_top" xlink:title=" ">
<polygon fill="white" stroke="#666666" points="828,-129 757,-129 757,-110 828,-110 828,-129"/>
<text text-anchor="middle" x="792.5" y="-117" font-family="Helvetica,sans-Serif" font-size="10.00">userdb.hpp</text>
</a>
</g>
</g>
<!-- Node1&#45;&gt;Node21 -->
<g id="edge30_Node000001_Node000021" class="edge">
<title>Node1&#45;&gt;Node21</title>
<g id="a_edge30_Node000001_Node000021"><a xlink:title=" ">
<path fill="none" stroke="#63b8ff" d="M792.5,-219.63C792.5,-199.21 792.5,-161.81 792.5,-139.24"/>
<polygon fill="#63b8ff" stroke="#63b8ff" points="796,-139.23 792.5,-129.23 789,-139.23 796,-139.23"/>
</a>
</g>
</g>
<!-- Node22 -->
<g id="Node000022" class="node">
<title>Node22</title>
<g id="a_Node000022"><a xlink:href="transactionsrecord_8hpp.html" target="_top" xlink:title=" ">
<polygon fill="white" stroke="#666666" points="669.5,-184 541.5,-184 541.5,-165 669.5,-165 669.5,-184"/>
<text text-anchor="middle" x="605.5" y="-172" font-family="Helvetica,sans-Serif" font-size="10.00">transactionsrecord.hpp</text>
</a>
</g>
</g>
<!-- Node1&#45;&gt;Node22 -->
<g id="edge37_Node000001_Node000022" class="edge">
<title>Node1&#45;&gt;Node22</title>
<g id="a_edge37_Node000001_Node000022"><a xlink:title=" ">
<path fill="none" stroke="#63b8ff" d="M747.71,-219.99C715.58,-209.94 672.8,-196.55 642.58,-187.1"/>
<polygon fill="#63b8ff" stroke="#63b8ff" points="643.43,-183.7 632.84,-184.05 641.34,-190.38 643.43,-183.7"/>
</a>
</g>
</g>
<!-- Node23 -->
<g id="Node000023" class="node">
<title>Node23</title>
<g id="a_Node000023"><a xlink:title=" ">
<polygon fill="#e0e0e0" stroke="#999999" points="982.5,-184 926.5,-184 926.5,-165 982.5,-165 982.5,-184"/>
<text text-anchor="middle" x="954.5" y="-172" font-family="Helvetica,sans-Serif" font-size="10.00">sstream</text>
</a>
</g>
</g>
<!-- Node1&#45;&gt;Node23 -->
<g id="edge41_Node000001_Node000023" class="edge">
<title>Node1&#45;&gt;Node23</title>
<g id="a_edge41_Node000001_Node000023"><a xlink:title=" ">
<path fill="none" stroke="#63b8ff" d="M831.3,-219.99C858.69,-210.1 895.02,-196.98 921.11,-187.56"/>
<polygon fill="#63b8ff" stroke="#63b8ff" points="922.36,-190.83 930.58,-184.14 919.98,-184.24 922.36,-190.83"/>
</a>
</g>
</g>
<!-- Node3 -->
<g id="Node000003" class="node">
<title>Node3</title>
<g id="a_Node000003"><a xlink:title=" ">
<polygon fill="#e0e0e0" stroke="#999999" points="743.5,-19 685.5,-19 685.5,0 743.5,0 743.5,-19"/>
<text text-anchor="middle" x="714.5" y="-7" font-family="Helvetica,sans-Serif" font-size="10.00">memory</text>
</a>
</g>
</g>
<!-- Node2&#45;&gt;Node3 -->
<g id="edge2_Node000002_Node000003" class="edge">
<title>Node2&#45;&gt;Node3</title>
<g id="a_edge2_Node000002_Node000003"><a xlink:title=" ">
<path fill="none" stroke="#63b8ff" d="M282.35,-164.99C260.78,-143.92 210.81,-88.66 241.5,-55 270.74,-22.92 587.3,-23.19 630.5,-19 645.03,-17.59 660.97,-15.99 675.03,-14.56"/>
<polygon fill="#63b8ff" stroke="#63b8ff" points="675.76,-18.01 685.35,-13.51 675.05,-11.04 675.76,-18.01"/>
</a>
</g>
</g>
<!-- Node4 -->
<g id="Node000004" class="node">
<title>Node4</title>
<g id="a_Node000004"><a xlink:href="transaction_8hpp.html" target="_top" xlink:title=" ">
<polygon fill="white" stroke="#666666" points="429.5,-129 289.5,-129 289.5,-110 429.5,-110 429.5,-129"/>
<text text-anchor="middle" x="359.5" y="-117" font-family="Helvetica,sans-Serif" font-size="10.00">../models/transaction.hpp</text>
</a>
</g>
</g>
<!-- Node2&#45;&gt;Node4 -->
<g id="edge3_Node000002_Node000004" class="edge">
<title>Node2&#45;&gt;Node4</title>
<g id="a_edge3_Node000002_Node000004"><a xlink:title=" ">
<path fill="none" stroke="#63b8ff" d="M302.43,-164.98C312.58,-157.07 327.92,-145.11 340.15,-135.58"/>
<polygon fill="#63b8ff" stroke="#63b8ff" points="342.64,-138.08 348.38,-129.17 338.34,-132.56 342.64,-138.08"/>
</a>
</g>
</g>
<!-- Node10 -->
<g id="Node000010" class="node">
<title>Node10</title>
<g id="a_Node000010"><a xlink:href="tcp__socket_8hpp.html" target="_top" xlink:title=" ">
<polygon fill="white" stroke="#666666" points="194,-74 53,-74 53,-55 194,-55 194,-74"/>
<text text-anchor="middle" x="123.5" y="-62" font-family="Helvetica,sans-Serif" font-size="10.00">../network/tcp_socket.hpp</text>
</a>
</g>
</g>
<!-- Node2&#45;&gt;Node10 -->
<g id="edge17_Node000002_Node000010" class="edge">
<title>Node2&#45;&gt;Node10</title>
<g id="a_edge17_Node000002_Node000010"><a xlink:title=" ">
<path fill="none" stroke="#63b8ff" d="M273.58,-164.87C256.47,-156.4 230.15,-142.78 208.5,-129 184.55,-113.75 158.63,-93.85 141.79,-80.42"/>
<polygon fill="#63b8ff" stroke="#63b8ff" points="143.85,-77.59 133.87,-74.05 139.47,-83.04 143.85,-77.59"/>
</a>
</g>
</g>
<!-- Node5 -->
<g id="Node000005" class="node">
<title>Node5</title>
<g id="a_Node000005"><a xlink:title=" ">
<polygon fill="#e0e0e0" stroke="#999999" points="316,-74 251,-74 251,-55 316,-55 316,-74"/>
<text text-anchor="middle" x="283.5" y="-62" font-family="Helvetica,sans-Serif" font-size="10.00">stdexcept</text>
</a>
</g>
</g>
<!-- Node4&#45;&gt;Node5 -->
<g id="edge4_Node000004_Node000005" class="edge">
<title>Node4&#45;&gt;Node5</title>
<g id="a_edge4_Node000004_Node000005"><a xlink:title=" ">
<path fill="none" stroke="#63b8ff" d="M347.29,-109.98C335.72,-101.92 318.12,-89.65 304.34,-80.03"/>
<polygon fill="#63b8ff" stroke="#63b8ff" points="306.14,-77.02 295.93,-74.17 302.13,-82.76 306.14,-77.02"/>
</a>
</g>
</g>
<!-- Node6 -->
<g id="Node000006" class="node">
<title>Node6</title>
<g id="a_Node000006"><a xlink:title=" ">
<polygon fill="#e0e0e0" stroke="#999999" points="809.5,-19 765.5,-19 765.5,0 809.5,0 809.5,-19"/>
<text text-anchor="middle" x="787.5" y="-7" font-family="Helvetica,sans-Serif" font-size="10.00">string</text>
</a>
</g>
</g>
<!-- Node4&#45;&gt;Node6 -->
<g id="edge5_Node000004_Node000006" class="edge">
<title>Node4&#45;&gt;Node6</title>
<g id="a_edge5_Node000004_Node000006"><a xlink:title=" ">
<path fill="none" stroke="#63b8ff" d="M394.56,-110C431.05,-101.12 489.82,-86.74 540.5,-74 617.75,-54.58 708.4,-31.09 755.47,-18.85"/>
<polygon fill="#63b8ff" stroke="#63b8ff" points="756.58,-22.18 765.38,-16.27 754.82,-15.4 756.58,-22.18"/>
</a>
</g>
</g>
<!-- Node7 -->
<g id="Node000007" class="node">
<title>Node7</title>
<g id="a_Node000007"><a xlink:title=" ">
<polygon fill="#e0e0e0" stroke="#999999" points="385,-74 334,-74 334,-55 385,-55 385,-74"/>
<text text-anchor="middle" x="359.5" y="-62" font-family="Helvetica,sans-Serif" font-size="10.00">variant</text>
</a>
</g>
</g>
<!-- Node4&#45;&gt;Node7 -->
<g id="edge6_Node000004_Node000007" class="edge">
<title>Node4&#45;&gt;Node7</title>
<g id="a_edge6_Node000004_Node000007"><a xlink:title=" ">
<path fill="none" stroke="#63b8ff" d="M359.5,-109.75C359.5,-102.8 359.5,-92.85 359.5,-84.13"/>
<polygon fill="#63b8ff" stroke="#63b8ff" points="363,-84.09 359.5,-74.09 356,-84.09 363,-84.09"/>
</a>
</g>
</g>
<!-- Node8 -->
<g id="Node000008" class="node">
<title>Node8</title>
<g id="a_Node000008"><a xlink:href="endpoint_8hpp.html" target="_top" xlink:title=" ">
<polygon fill="white" stroke="#666666" points="531.5,-74 403.5,-74 403.5,-55 531.5,-55 531.5,-74"/>
<text text-anchor="middle" x="467.5" y="-62" font-family="Helvetica,sans-Serif" font-size="10.00">../models/endpoint.hpp</text>
</a>
</g>
</g>
<!-- Node4&#45;&gt;Node8 -->
<g id="edge7_Node000004_Node000008" class="edge">
<title>Node4&#45;&gt;Node8</title>
<g id="a_edge7_Node000004_Node000008"><a xlink:title=" ">
<path fill="none" stroke="#63b8ff" d="M376.85,-109.98C394.07,-101.54 420.7,-88.47 440.65,-78.68"/>
<polygon fill="#63b8ff" stroke="#63b8ff" points="442.4,-81.72 449.83,-74.17 439.31,-75.43 442.4,-81.72"/>
</a>
</g>
</g>
<!-- Node4&#45;&gt;Node10 -->
<g id="edge10_Node000004_Node000010" class="edge">
<title>Node4&#45;&gt;Node10</title>
<g id="a_edge10_Node000004_Node000010"><a xlink:title=" ">
<path fill="none" stroke="#63b8ff" d="M321.58,-109.98C280.85,-100.84 216,-86.27 171.68,-76.32"/>
<polygon fill="#63b8ff" stroke="#63b8ff" points="172.24,-72.86 161.71,-74.08 170.7,-79.69 172.24,-72.86"/>
</a>
</g>
</g>
<!-- Node8&#45;&gt;Node6 -->
<g id="edge9_Node000008_Node000006" class="edge">
<title>Node8&#45;&gt;Node6</title>
<g id="a_edge9_Node000008_Node000006"><a xlink:title=" ">
<path fill="none" stroke="#63b8ff" d="M531.72,-55.03C589.66,-47.02 677.11,-34.01 752.5,-19 753.41,-18.82 754.34,-18.63 755.27,-18.43"/>
<polygon fill="#63b8ff" stroke="#63b8ff" points="756.35,-21.78 765.34,-16.18 754.82,-14.95 756.35,-21.78"/>
</a>
</g>
</g>
<!-- Node9 -->
<g id="Node000009" class="node">
<title>Node9</title>
<g id="a_Node000009"><a xlink:title=" ">
<polygon fill="#e0e0e0" stroke="#999999" points="492.5,-19 442.5,-19 442.5,0 492.5,0 492.5,-19"/>
<text text-anchor="middle" x="467.5" y="-7" font-family="Helvetica,sans-Serif" font-size="10.00">cstdint</text>
</a>
</g>
</g>
<!-- Node8&#45;&gt;Node9 -->
<g id="edge8_Node000008_Node000009" class="edge">
<title>Node8&#45;&gt;Node9</title>
<g id="a_edge8_Node000008_Node000009"><a xlink:title=" ">
<path fill="none" stroke="#63b8ff" d="M467.5,-54.75C467.5,-47.8 467.5,-37.85 467.5,-29.13"/>
<polygon fill="#63b8ff" stroke="#63b8ff" points="471,-29.09 467.5,-19.09 464,-29.09 471,-29.09"/>
</a>
</g>
</g>
<!-- Node10&#45;&gt;Node3 -->
<g id="edge11_Node000010_Node000003" class="edge">
<title>Node10&#45;&gt;Node3</title>
<g id="a_edge11_Node000010_Node000003"><a xlink:title=" ">
<path fill="none" stroke="#63b8ff" d="M194.45,-56.33C199.21,-55.87 203.92,-55.42 208.5,-55 395.93,-37.63 443.08,-36.48 630.5,-19 645.04,-17.64 660.98,-16.06 675.03,-14.62"/>
<polygon fill="#63b8ff" stroke="#63b8ff" points="675.76,-18.07 685.35,-13.56 675.05,-11.1 675.76,-18.07"/>
</a>
</g>
</g>
<!-- Node10&#45;&gt;Node6 -->
<g id="edge13_Node000010_Node000006" class="edge">
<title>Node10&#45;&gt;Node6</title>
<g id="a_edge13_Node000010_Node000006"><a xlink:title=" ">
<path fill="none" stroke="#63b8ff" d="M194.01,-58.4C209.64,-57.28 226.13,-56.09 241.5,-55 468.6,-38.82 527.53,-53.99 752.5,-19 753.42,-18.86 754.35,-18.7 755.29,-18.54"/>
<polygon fill="#63b8ff" stroke="#63b8ff" points="756.3,-21.9 765.39,-16.46 754.89,-15.04 756.3,-21.9"/>
</a>
</g>
</g>
<!-- Node11 -->
<g id="Node000011" class="node">
<title>Node11</title>
<g id="a_Node000011"><a xlink:title=" ">
<polygon fill="#e0e0e0" stroke="#999999" points="241.5,-19 169.5,-19 169.5,0 241.5,0 241.5,-19"/>
<text text-anchor="middle" x="205.5" y="-7" font-family="Helvetica,sans-Serif" font-size="10.00">netinet/in.h</text>
</a>
</g>
</g>
<!-- Node10&#45;&gt;Node11 -->
<g id="edge12_Node000010_Node000011" class="edge">
<title>Node10&#45;&gt;Node11</title>
<g id="a_edge12_Node000010_Node000011"><a xlink:title=" ">
<path fill="none" stroke="#63b8ff" d="M136.67,-54.98C149.27,-46.84 168.5,-34.41 183.44,-24.76"/>
<polygon fill="#63b8ff" stroke="#63b8ff" points="185.59,-27.54 192.09,-19.17 181.79,-21.66 185.59,-27.54"/>
</a>
</g>
</g>
<!-- Node12 -->
<g id="Node000012" class="node">
<title>Node12</title>
<g id="a_Node000012"><a xlink:title=" ">
<polygon fill="#e0e0e0" stroke="#999999" points="77,-19 0,-19 0,0 77,0 77,-19"/>
<text text-anchor="middle" x="38.5" y="-7" font-family="Helvetica,sans-Serif" font-size="10.00">sys/socket.h</text>
</a>
</g>
</g>
<!-- Node10&#45;&gt;Node12 -->
<g id="edge14_Node000010_Node000012" class="edge">
<title>Node10&#45;&gt;Node12</title>
<g id="a_edge14_Node000010_Node000012"><a xlink:title=" ">
<path fill="none" stroke="#63b8ff" d="M109.84,-54.98C96.66,-46.77 76.47,-34.18 60.93,-24.49"/>
<polygon fill="#63b8ff" stroke="#63b8ff" points="62.74,-21.49 52.41,-19.17 59.04,-27.43 62.74,-21.49"/>
</a>
</g>
</g>
<!-- Node13 -->
<g id="Node000013" class="node">
<title>Node13</title>
<g id="a_Node000013"><a xlink:title=" ">
<polygon fill="#e0e0e0" stroke="#999999" points="151.5,-19 95.5,-19 95.5,0 151.5,0 151.5,-19"/>
<text text-anchor="middle" x="123.5" y="-7" font-family="Helvetica,sans-Serif" font-size="10.00">unistd.h</text>
</a>
</g>
</g>
<!-- Node10&#45;&gt;Node13 -->
<g id="edge15_Node000010_Node000013" class="edge">
<title>Node10&#45;&gt;Node13</title>
<g id="a_edge15_Node000010_Node000013"><a xlink:title=" ">
<path fill="none" stroke="#63b8ff" d="M123.5,-54.75C123.5,-47.8 123.5,-37.85 123.5,-29.13"/>
<polygon fill="#63b8ff" stroke="#63b8ff" points="127,-29.09 123.5,-19.09 120,-29.09 127,-29.09"/>
</a>
</g>
</g>
<!-- Node14 -->
<g id="Node000014" class="node">
<title>Node14</title>
<g id="a_Node000014"><a xlink:title=" ">
<polygon fill="#e0e0e0" stroke="#999999" points="621,-19 574,-19 574,0 621,0 621,-19"/>
<text text-anchor="middle" x="597.5" y="-7" font-family="Helvetica,sans-Serif" font-size="10.00">vector</text>
</a>
</g>
</g>
<!-- Node10&#45;&gt;Node14 -->
<g id="edge16_Node000010_Node000014" class="edge">
<title>Node10&#45;&gt;Node14</title>
<g id="a_edge16_Node000010_Node000014"><a xlink:title=" ">
<path fill="none" stroke="#63b8ff" d="M194.21,-55.59C297.73,-44.02 486.59,-22.9 563.52,-14.3"/>
<polygon fill="#63b8ff" stroke="#63b8ff" points="564.07,-17.76 573.61,-13.17 563.29,-10.8 564.07,-17.76"/>
</a>
</g>
</g>
<!-- Node15&#45;&gt;Node3 -->
<g id="edge19_Node000015_Node000003" class="edge">
<title>Node15&#45;&gt;Node3</title>
<g id="a_edge19_Node000015_Node000003"><a xlink:title=" ">
<path fill="none" stroke="#63b8ff" d="M886.33,-165C922.81,-145.49 1003.18,-96.07 968.5,-55 937.67,-18.49 803.48,-27.74 756.5,-19 755.6,-18.83 754.7,-18.66 753.78,-18.49"/>
<polygon fill="#63b8ff" stroke="#63b8ff" points="754.33,-15.03 743.85,-16.56 753,-21.9 754.33,-15.03"/>
</a>
</g>
</g>
<!-- Node15&#45;&gt;Node6 -->
<g id="edge20_Node000015_Node000006" class="edge">
<title>Node15&#45;&gt;Node6</title>
<g id="a_edge20_Node000015_Node000006"><a xlink:title=" ">
<path fill="none" stroke="#63b8ff" d="M908.25,-166.53C911.38,-166 914.49,-165.48 917.5,-165 1028.34,-147.21 1063.72,-171.79 1167.5,-129 1210.5,-111.27 1272.74,-89.46 1241.5,-55 1213.2,-23.8 918.39,-13.72 819.58,-11.21"/>
<polygon fill="#63b8ff" stroke="#63b8ff" points="819.66,-7.71 809.58,-10.96 819.49,-14.71 819.66,-7.71"/>
</a>
</g>
</g>
<!-- Node15&#45;&gt;Node14 -->
<g id="edge23_Node000015_Node000014" class="edge">
<title>Node15&#45;&gt;Node14</title>
<g id="a_edge23_Node000015_Node000014"><a xlink:title=" ">
<path fill="none" stroke="#63b8ff" d="M838.25,-164.96C813.11,-157.41 777.33,-145.09 748.5,-129 694.93,-99.11 640.33,-50.94 613.87,-26.23"/>
<polygon fill="#63b8ff" stroke="#63b8ff" points="615.98,-23.41 606.31,-19.08 611.18,-28.49 615.98,-23.41"/>
</a>
</g>
</g>
<!-- Node16 -->
<g id="Node000016" class="node">
<title>Node16</title>
<g id="a_Node000016"><a xlink:title=" ">
<polygon fill="#e0e0e0" stroke="#999999" points="847.5,-74 815.5,-74 815.5,-55 847.5,-55 847.5,-74"/>
<text text-anchor="middle" x="831.5" y="-62" font-family="Helvetica,sans-Serif" font-size="10.00">set</text>
</a>
</g>
</g>
<!-- Node15&#45;&gt;Node16 -->
<g id="edge21_Node000015_Node000016" class="edge">
<title>Node15&#45;&gt;Node16</title>
<g id="a_edge21_Node000015_Node000016"><a xlink:title=" ">
<path fill="none" stroke="#63b8ff" d="M866.39,-164.66C860.18,-147.01 846.13,-107.09 837.88,-83.64"/>
<polygon fill="#63b8ff" stroke="#63b8ff" points="841.17,-82.43 834.55,-74.16 834.56,-84.75 841.17,-82.43"/>
</a>
</g>
</g>
<!-- Node17 -->
<g id="Node000017" class="node">
<title>Node17</title>
<g id="a_Node000017"><a xlink:title=" ">
<polygon fill="#e0e0e0" stroke="#999999" points="959,-74 866,-74 866,-55 959,-55 959,-74"/>
<text text-anchor="middle" x="912.5" y="-62" font-family="Helvetica,sans-Serif" font-size="10.00">unordered_map</text>
</a>
</g>
</g>
<!-- Node15&#45;&gt;Node17 -->
<g id="edge22_Node000015_Node000017" class="edge">
<title>Node15&#45;&gt;Node17</title>
<g id="a_edge22_Node000015_Node000017"><a xlink:title=" ">
<path fill="none" stroke="#63b8ff" d="M873.02,-164.66C880.05,-147.01 895.94,-107.09 905.28,-83.64"/>
<polygon fill="#63b8ff" stroke="#63b8ff" points="908.61,-84.74 909.05,-74.16 902.1,-82.15 908.61,-84.74"/>
</a>
</g>
</g>
<!-- Node18 -->
<g id="Node000018" class="node">
<title>Node18</title>
<g id="a_Node000018"><a xlink:href="group_8hpp.html" target="_top" xlink:title=" ">
<polygon fill="white" stroke="#666666" points="1158,-129 1045,-129 1045,-110 1158,-110 1158,-129"/>
<text text-anchor="middle" x="1101.5" y="-117" font-family="Helvetica,sans-Serif" font-size="10.00">../models/group.hpp</text>
</a>
</g>
</g>
<!-- Node15&#45;&gt;Node18 -->
<g id="edge24_Node000015_Node000018" class="edge">
<title>Node15&#45;&gt;Node18</title>
<g id="a_edge24_Node000015_Node000018"><a xlink:title=" ">
<path fill="none" stroke="#63b8ff" d="M906.77,-164.98C946.82,-155.84 1010.57,-141.27 1054.14,-131.32"/>
<polygon fill="#63b8ff" stroke="#63b8ff" points="1054.96,-134.72 1063.93,-129.08 1053.4,-127.9 1054.96,-134.72"/>
</a>
</g>
</g>
<!-- Node18&#45;&gt;Node3 -->
<g id="edge25_Node000018_Node000003" class="edge">
<title>Node18&#45;&gt;Node3</title>
<g id="a_edge25_Node000018_Node000003"><a xlink:title=" ">
<path fill="none" stroke="#63b8ff" d="M1101.7,-109.93C1101.52,-96.02 1098.94,-68.71 1082.5,-55 1026.52,-8.32 828.51,-30.24 756.5,-19 755.6,-18.86 754.69,-18.71 753.77,-18.56"/>
<polygon fill="#63b8ff" stroke="#63b8ff" points="754.27,-15.1 743.81,-16.78 753.04,-21.99 754.27,-15.1"/>
</a>
</g>
</g>
<!-- Node18&#45;&gt;Node6 -->
<g id="edge26_Node000018_Node000006" class="edge">
<title>Node18&#45;&gt;Node6</title>
<g id="a_edge26_Node000018_Node000006"><a xlink:title=" ">
<path fill="none" stroke="#63b8ff" d="M1153.8,-109.92C1197.8,-100.54 1249.79,-83 1224.5,-55 1197.43,-25.03 916,-14.19 819.65,-11.34"/>
<polygon fill="#63b8ff" stroke="#63b8ff" points="819.71,-7.84 809.62,-11.05 819.51,-14.84 819.71,-7.84"/>
</a>
</g>
</g>
<!-- Node19 -->
<g id="Node000019" class="node">
<title>Node19</title>
<g id="a_Node000019"><a xlink:title=" ">
<polygon fill="#e0e0e0" stroke="#999999" points="1215.5,-74 1129.5,-74 1129.5,-55 1215.5,-55 1215.5,-74"/>
<text text-anchor="middle" x="1172.5" y="-62" font-family="Helvetica,sans-Serif" font-size="10.00">unordered_set</text>
</a>
</g>
</g>
<!-- Node18&#45;&gt;Node19 -->
<g id="edge27_Node000018_Node000019" class="edge">
<title>Node18&#45;&gt;Node19</title>
<g id="a_edge27_Node000018_Node000019"><a xlink:title=" ">
<path fill="none" stroke="#63b8ff" d="M1112.91,-109.98C1123.61,-102 1139.84,-89.88 1152.66,-80.31"/>
<polygon fill="#63b8ff" stroke="#63b8ff" points="1154.97,-82.96 1160.89,-74.17 1150.78,-77.35 1154.97,-82.96"/>
</a>
</g>
</g>
<!-- Node20 -->
<g id="Node000020" class="node">
<title>Node20</title>
<g id="a_Node000020"><a xlink:href="user_8hpp.html" target="_top" xlink:title=" ">
<polygon fill="white" stroke="#666666" points="1073.5,-74 1015.5,-74 1015.5,-55 1073.5,-55 1073.5,-74"/>
<text text-anchor="middle" x="1044.5" y="-62" font-family="Helvetica,sans-Serif" font-size="10.00">user.hpp</text>
</a>
</g>
</g>
<!-- Node18&#45;&gt;Node20 -->
<g id="edge28_Node000018_Node000020" class="edge">
<title>Node18&#45;&gt;Node20</title>
<g id="a_edge28_Node000018_Node000020"><a xlink:title=" ">
<path fill="none" stroke="#63b8ff" d="M1092.34,-109.98C1084,-102.23 1071.47,-90.58 1061.32,-81.14"/>
<polygon fill="#63b8ff" stroke="#63b8ff" points="1063.53,-78.42 1053.82,-74.17 1058.76,-83.54 1063.53,-78.42"/>
</a>
</g>
</g>
<!-- Node20&#45;&gt;Node6 -->
<g id="edge29_Node000020_Node000006" class="edge">
<title>Node20&#45;&gt;Node6</title>
<g id="a_edge29_Node000020_Node000006"><a xlink:title=" ">
<path fill="none" stroke="#63b8ff" d="M1015.02,-57.42C966.4,-47.39 869.79,-27.47 819.54,-17.11"/>
<polygon fill="#63b8ff" stroke="#63b8ff" points="820.05,-13.64 809.55,-15.05 818.64,-20.5 820.05,-13.64"/>
</a>
</g>
</g>
<!-- Node21&#45;&gt;Node3 -->
<g id="edge31_Node000021_Node000003" class="edge">
<title>Node21&#45;&gt;Node3</title>
<g id="a_edge31_Node000021_Node000003"><a xlink:title=" ">
<path fill="none" stroke="#63b8ff" d="M786.12,-109.66C773.14,-91.69 743.49,-50.64 726.69,-27.38"/>
<polygon fill="#63b8ff" stroke="#63b8ff" points="729.45,-25.22 720.75,-19.16 723.77,-29.31 729.45,-25.22"/>
</a>
</g>
</g>
<!-- Node21&#45;&gt;Node6 -->
<g id="edge32_Node000021_Node000006" class="edge">
<title>Node21&#45;&gt;Node6</title>
<g id="a_edge32_Node000021_Node000006"><a xlink:title=" ">
<path fill="none" stroke="#63b8ff" d="M792.09,-109.66C791.28,-92.17 789.46,-52.8 788.37,-29.27"/>
<polygon fill="#63b8ff" stroke="#63b8ff" points="791.86,-28.99 787.9,-19.16 784.87,-29.31 791.86,-28.99"/>
</a>
</g>
</g>
<!-- Node21&#45;&gt;Node14 -->
<g id="edge35_Node000021_Node000014" class="edge">
<title>Node21&#45;&gt;Node14</title>
<g id="a_edge35_Node000021_Node000014"><a xlink:title=" ">
<path fill="none" stroke="#63b8ff" d="M776.87,-109.84C742.99,-91.08 662.54,-46.52 621.89,-24.01"/>
<polygon fill="#63b8ff" stroke="#63b8ff" points="623.38,-20.83 612.93,-19.05 619.98,-26.95 623.38,-20.83"/>
</a>
</g>
</g>
<!-- Node21&#45;&gt;Node16 -->
<g id="edge33_Node000021_Node000016" class="edge">
<title>Node21&#45;&gt;Node16</title>
<g id="a_edge33_Node000021_Node000016"><a xlink:title=" ">
<path fill="none" stroke="#63b8ff" d="M798.94,-109.75C804.39,-102.34 812.36,-91.5 819.06,-82.41"/>
<polygon fill="#63b8ff" stroke="#63b8ff" points="822.07,-84.22 825.18,-74.09 816.43,-80.07 822.07,-84.22"/>
</a>
</g>
</g>
<!-- Node21&#45;&gt;Node17 -->
<g id="edge34_Node000021_Node000017" class="edge">
<title>Node21&#45;&gt;Node17</title>
<g id="a_edge34_Node000021_Node000017"><a xlink:title=" ">
<path fill="none" stroke="#63b8ff" d="M811.78,-109.98C831.17,-101.42 861.31,-88.11 883.57,-78.28"/>
<polygon fill="#63b8ff" stroke="#63b8ff" points="885.14,-81.41 892.87,-74.17 882.31,-75.01 885.14,-81.41"/>
</a>
</g>
</g>
<!-- Node21&#45;&gt;Node20 -->
<g id="edge36_Node000021_Node000020" class="edge">
<title>Node21&#45;&gt;Node20</title>
<g id="a_edge36_Node000021_Node000020"><a xlink:title=" ">
<path fill="none" stroke="#63b8ff" d="M828.07,-111.02C874.94,-101.16 957.08,-83.89 1005.56,-73.69"/>
<polygon fill="#63b8ff" stroke="#63b8ff" points="1006.31,-77.11 1015.38,-71.63 1004.87,-70.26 1006.31,-77.11"/>
</a>
</g>
</g>
<!-- Node22&#45;&gt;Node3 -->
<g id="edge38_Node000022_Node000003" class="edge">
<title>Node22&#45;&gt;Node3</title>
<g id="a_edge38_Node000022_Node000003"><a xlink:title=" ">
<path fill="none" stroke="#63b8ff" d="M611.36,-164.74C628.66,-138.87 679.74,-62.48 702.88,-27.88"/>
<polygon fill="#63b8ff" stroke="#63b8ff" points="705.96,-29.57 708.61,-19.31 700.14,-25.67 705.96,-29.57"/>
</a>
</g>
</g>
<!-- Node22&#45;&gt;Node4 -->
<g id="edge40_Node000022_Node000004" class="edge">
<title>Node22&#45;&gt;Node4</title>
<g id="a_edge40_Node000022_Node000004"><a xlink:title=" ">
<path fill="none" stroke="#63b8ff" d="M565.98,-164.98C523.33,-155.8 455.35,-141.15 409.14,-131.19"/>
<polygon fill="#63b8ff" stroke="#63b8ff" points="409.85,-127.77 399.33,-129.08 408.37,-134.61 409.85,-127.77"/>
</a>
</g>
</g>
<!-- Node22&#45;&gt;Node14 -->
<g id="edge39_Node000022_Node000014" class="edge">
<title>Node22&#45;&gt;Node14</title>
<g id="a_edge39_Node000022_Node000014"><a xlink:title=" ">
<path fill="none" stroke="#63b8ff" d="M605.07,-164.74C603.82,-139.31 600.18,-65.08 598.44,-29.69"/>
<polygon fill="#63b8ff" stroke="#63b8ff" points="601.92,-29.12 597.93,-19.31 594.93,-29.47 601.92,-29.12"/>
</a>
</g>
</g>
</g>
</svg>
