<?xml version="1.0" encoding="UTF-8" standalone="no"?>
<!DOCTYPE svg PUBLIC "-//W3C//DTD SVG 1.1//EN"
 "http://www.w3.org/Graphics/SVG/1.1/DTD/svg11.dtd">
<!-- Generated by graphviz version 2.43.0 (0)
 -->
<!-- Title: src/client/process_input.cpp Pages: 1 -->
<svg width="838pt" height="203pt"
 viewBox="0.00 0.00 838.00 203.00" xmlns="http://www.w3.org/2000/svg" xmlns:xlink="http://www.w3.org/1999/xlink">
<g id="graph0" class="graph" transform="scale(1 1) rotate(0) translate(4 199)">
<title>src/client/process_input.cpp</title>
<!-- Node1 -->
<g id="Node000001" class="node">
<title>Node1</title>
<g id="a_Node000001"><a xlink:title=" ">
<polygon fill="#999999" stroke="#666666" points="449.5,-195 348.5,-195 348.5,-165 449.5,-165 449.5,-195"/>
<text text-anchor="start" x="356.5" y="-183" font-family="Helvetica,sans-Serif" font-size="10.00">src/client/process</text>
<text text-anchor="middle" x="399" y="-172" font-family="Helvetica,sans-Serif" font-size="10.00">_input.cpp</text>
</a>
</g>
</g>
<!-- Node2 -->
<g id="Node000002" class="node">
<title>Node2</title>
<g id="a_Node000002"><a xlink:title=" ">
<polygon fill="#e0e0e0" stroke="#999999" points="50,-129 0,-129 0,-110 50,-110 50,-129"/>
<text text-anchor="middle" x="25" y="-117" font-family="Helvetica,sans-Serif" font-size="10.00">cstring</text>
</a>
</g>
</g>
<!-- Node1&#45;&gt;Node2 -->
<g id="edge1_Node000001_Node000002" class="edge">
<title>Node1&#45;&gt;Node2</title>
<g id="a_edge1_Node000001_Node000002"><a xlink:title=" ">
<path fill="none" stroke="#63b8ff" d="M348.33,-173.14C283.67,-165.31 168.24,-150.15 60.28,-129.08"/>
<polygon fill="#63b8ff" stroke="#63b8ff" points="60.68,-125.59 50.19,-127.09 59.32,-132.46 60.68,-125.59"/>
</a>
</g>
</g>
<!-- Node3 -->
<g id="Node000003" class="node">
<title>Node3</title>
<g id="a_Node000003"><a xlink:title=" ">
<polygon fill="#e0e0e0" stroke="#999999" points="115.5,-129 68.5,-129 68.5,-110 115.5,-110 115.5,-129"/>
<text text-anchor="middle" x="92" y="-117" font-family="Helvetica,sans-Serif" font-size="10.00">fcntl.h</text>
</a>
</g>
</g>
<!-- Node1&#45;&gt;Node3 -->
<g id="edge2_Node000001_Node000003" class="edge">
<title>Node1&#45;&gt;Node3</title>
<g id="a_edge2_Node000001_Node000003"><a xlink:title=" ">
<path fill="none" stroke="#63b8ff" d="M348.32,-170.15C294.17,-160.55 205.85,-144.53 130,-129 128.55,-128.7 127.07,-128.4 125.58,-128.08"/>
<polygon fill="#63b8ff" stroke="#63b8ff" points="126.2,-124.63 115.69,-125.94 124.72,-131.48 126.2,-124.63"/>
</a>
</g>
</g>
<!-- Node4 -->
<g id="Node000004" class="node">
<title>Node4</title>
<g id="a_Node000004"><a xlink:title=" ">
<polygon fill="#e0e0e0" stroke="#999999" points="136,-19 78,-19 78,0 136,0 136,-19"/>
<text text-anchor="middle" x="107" y="-7" font-family="Helvetica,sans-Serif" font-size="10.00">memory</text>
</a>
</g>
</g>
<!-- Node1&#45;&gt;Node4 -->
<g id="edge3_Node000001_Node000004" class="edge">
<title>Node1&#45;&gt;Node4</title>
<g id="a_edge3_Node000001_Node000004"><a xlink:title=" ">
<path fill="none" stroke="#63b8ff" d="M348.47,-169.25C315.54,-161.5 272.45,-148.64 238,-129 188.93,-101.02 142.66,-51.96 120.56,-26.64"/>
<polygon fill="#63b8ff" stroke="#63b8ff" points="123.19,-24.33 114.02,-19.03 117.88,-28.89 123.19,-24.33"/>
</a>
</g>
</g>
<!-- Node5 -->
<g id="Node000005" class="node">
<title>Node5</title>
<g id="a_Node000005"><a xlink:title=" ">
<polygon fill="#e0e0e0" stroke="#999999" points="706,-129 646,-129 646,-110 706,-110 706,-129"/>
<text text-anchor="middle" x="676" y="-117" font-family="Helvetica,sans-Serif" font-size="10.00">iostream</text>
</a>
</g>
</g>
<!-- Node1&#45;&gt;Node5 -->
<g id="edge4_Node000001_Node000005" class="edge">
<title>Node1&#45;&gt;Node5</title>
<g id="a_edge4_Node000001_Node000005"><a xlink:title=" ">
<path fill="none" stroke="#63b8ff" d="M449.81,-168.27C503.32,-156.97 586.51,-139.4 635.69,-129.01"/>
<polygon fill="#63b8ff" stroke="#63b8ff" points="636.58,-132.4 645.64,-126.91 635.14,-125.55 636.58,-132.4"/>
</a>
</g>
</g>
<!-- Node6 -->
<g id="Node000006" class="node">
<title>Node6</title>
<g id="a_Node000006"><a xlink:title=" ">
<polygon fill="#e0e0e0" stroke="#999999" points="536,-19 480,-19 480,0 536,0 536,-19"/>
<text text-anchor="middle" x="508" y="-7" font-family="Helvetica,sans-Serif" font-size="10.00">sstream</text>
</a>
</g>
</g>
<!-- Node1&#45;&gt;Node6 -->
<g id="edge5_Node000001_Node000006" class="edge">
<title>Node1&#45;&gt;Node6</title>
<g id="a_edge5_Node000001_Node000006"><a xlink:title=" ">
<path fill="none" stroke="#63b8ff" d="M400.28,-164.92C403.15,-140.3 412.03,-88.84 438,-55 448.33,-41.54 463.98,-31.05 477.86,-23.64"/>
<polygon fill="#63b8ff" stroke="#63b8ff" points="479.73,-26.61 487.1,-19 476.59,-20.36 479.73,-26.61"/>
</a>
</g>
</g>
<!-- Node7 -->
<g id="Node000007" class="node">
<title>Node7</title>
<g id="a_Node000007"><a xlink:title=" ">
<polygon fill="#e0e0e0" stroke="#999999" points="210,-19 154,-19 154,0 210,0 210,-19"/>
<text text-anchor="middle" x="182" y="-7" font-family="Helvetica,sans-Serif" font-size="10.00">unistd.h</text>
</a>
</g>
</g>
<!-- Node1&#45;&gt;Node7 -->
<g id="edge6_Node000001_Node000007" class="edge">
<title>Node1&#45;&gt;Node7</title>
<g id="a_edge6_Node000001_Node000007"><a xlink:title=" ">
<path fill="none" stroke="#63b8ff" d="M349.59,-164.93C304.6,-149.65 239.49,-120.93 201,-74 190.62,-61.35 185.91,-43.16 183.77,-29.49"/>
<polygon fill="#63b8ff" stroke="#63b8ff" points="187.21,-28.79 182.52,-19.29 180.27,-29.64 187.21,-28.79"/>
</a>
</g>
</g>
<!-- Node8 -->
<g id="Node000008" class="node">
<title>Node8</title>
<g id="a_Node000008"><a xlink:title=" ">
<polygon fill="#e0e0e0" stroke="#999999" points="461.5,-19 414.5,-19 414.5,0 461.5,0 461.5,-19"/>
<text text-anchor="middle" x="438" y="-7" font-family="Helvetica,sans-Serif" font-size="10.00">vector</text>
</a>
</g>
</g>
<!-- Node1&#45;&gt;Node8 -->
<g id="edge7_Node000001_Node000008" class="edge">
<title>Node1&#45;&gt;Node8</title>
<g id="a_edge7_Node000001_Node000008"><a xlink:title=" ">
<path fill="none" stroke="#63b8ff" d="M396.87,-164.71C393.92,-141.07 390.4,-92.69 404,-55 407.82,-44.41 415.14,-34.3 422.01,-26.4"/>
<polygon fill="#63b8ff" stroke="#63b8ff" points="424.61,-28.75 428.85,-19.03 419.48,-23.98 424.61,-28.75"/>
</a>
</g>
</g>
<!-- Node9 -->
<g id="Node000009" class="node">
<title>Node9</title>
<g id="a_Node000009"><a xlink:href="fileinfo_8hpp.html" target="_top" xlink:title=" ">
<polygon fill="white" stroke="#666666" points="565.5,-74 446.5,-74 446.5,-55 565.5,-55 565.5,-74"/>
<text text-anchor="middle" x="506" y="-62" font-family="Helvetica,sans-Serif" font-size="10.00">../models/fileinfo.hpp</text>
</a>
</g>
</g>
<!-- Node1&#45;&gt;Node9 -->
<g id="edge8_Node000001_Node000009" class="edge">
<title>Node1&#45;&gt;Node9</title>
<g id="a_edge8_Node000001_Node000009"><a xlink:title=" ">
<path fill="none" stroke="#63b8ff" d="M412.55,-164.63C432.59,-143.37 469.98,-103.71 490.88,-81.54"/>
<polygon fill="#63b8ff" stroke="#63b8ff" points="493.46,-83.91 497.77,-74.23 488.36,-79.1 493.46,-83.91"/>
</a>
</g>
</g>
<!-- Node12 -->
<g id="Node000012" class="node">
<title>Node12</title>
<g id="a_Node000012"><a xlink:href="hash_8hpp.html" target="_top" xlink:title=" ">
<polygon fill="white" stroke="#666666" points="683.5,-74 622.5,-74 622.5,-55 683.5,-55 683.5,-74"/>
<text text-anchor="middle" x="653" y="-62" font-family="Helvetica,sans-Serif" font-size="10.00">hash.hpp</text>
</a>
</g>
</g>
<!-- Node1&#45;&gt;Node12 -->
<g id="edge13_Node000001_Node000012" class="edge">
<title>Node1&#45;&gt;Node12</title>
<g id="a_edge13_Node000001_Node000012"><a xlink:title=" ">
<path fill="none" stroke="#63b8ff" d="M449.59,-175C492.16,-169.7 553.23,-157.41 599,-129 617.56,-117.48 633,-97.47 642.56,-82.99"/>
<polygon fill="#63b8ff" stroke="#63b8ff" points="645.59,-84.74 647.96,-74.41 639.67,-81.01 645.59,-84.74"/>
</a>
</g>
</g>
<!-- Node13 -->
<g id="Node000013" class="node">
<title>Node13</title>
<g id="a_Node000013"><a xlink:href="process__input_8hpp.html" target="_top" xlink:title=" ">
<polygon fill="white" stroke="#666666" points="589.5,-129 484.5,-129 484.5,-110 589.5,-110 589.5,-129"/>
<text text-anchor="middle" x="537" y="-117" font-family="Helvetica,sans-Serif" font-size="10.00">process_input.hpp</text>
</a>
</g>
</g>
<!-- Node1&#45;&gt;Node13 -->
<g id="edge15_Node000001_Node000013" class="edge">
<title>Node1&#45;&gt;Node13</title>
<g id="a_edge15_Node000001_Node000013"><a xlink:title=" ">
<path fill="none" stroke="#63b8ff" d="M432.05,-164.99C454.98,-155.27 485.24,-142.44 507.38,-133.06"/>
<polygon fill="#63b8ff" stroke="#63b8ff" points="508.78,-136.26 516.62,-129.14 506.05,-129.82 508.78,-136.26"/>
</a>
</g>
</g>
<!-- Node9&#45;&gt;Node6 -->
<g id="edge9_Node000009_Node000006" class="edge">
<title>Node9&#45;&gt;Node6</title>
<g id="a_edge9_Node000009_Node000006"><a xlink:title=" ">
<path fill="none" stroke="#63b8ff" d="M506.33,-54.75C506.59,-47.8 506.97,-37.85 507.3,-29.13"/>
<polygon fill="#63b8ff" stroke="#63b8ff" points="510.8,-29.21 507.68,-19.09 503.8,-28.95 510.8,-29.21"/>
</a>
</g>
</g>
<!-- Node9&#45;&gt;Node8 -->
<g id="edge12_Node000009_Node000008" class="edge">
<title>Node9&#45;&gt;Node8</title>
<g id="a_edge12_Node000009_Node000008"><a xlink:title=" ">
<path fill="none" stroke="#63b8ff" d="M495.07,-54.98C484.92,-47.07 469.58,-35.11 457.35,-25.58"/>
<polygon fill="#63b8ff" stroke="#63b8ff" points="459.16,-22.56 449.12,-19.17 454.86,-28.08 459.16,-22.56"/>
</a>
</g>
</g>
<!-- Node10 -->
<g id="Node000010" class="node">
<title>Node10</title>
<g id="a_Node000010"><a xlink:title=" ">
<polygon fill="#e0e0e0" stroke="#999999" points="711.5,-19 646.5,-19 646.5,0 711.5,0 711.5,-19"/>
<text text-anchor="middle" x="679" y="-7" font-family="Helvetica,sans-Serif" font-size="10.00">stdexcept</text>
</a>
</g>
</g>
<!-- Node9&#45;&gt;Node10 -->
<g id="edge10_Node000009_Node000010" class="edge">
<title>Node9&#45;&gt;Node10</title>
<g id="a_edge10_Node000009_Node000010"><a xlink:title=" ">
<path fill="none" stroke="#63b8ff" d="M533.8,-54.98C562.97,-46.05 609,-31.94 641.4,-22.02"/>
<polygon fill="#63b8ff" stroke="#63b8ff" points="642.45,-25.36 650.99,-19.08 640.4,-18.66 642.45,-25.36"/>
</a>
</g>
</g>
<!-- Node11 -->
<g id="Node000011" class="node">
<title>Node11</title>
<g id="a_Node000011"><a xlink:title=" ">
<polygon fill="#e0e0e0" stroke="#999999" points="616,-19 572,-19 572,0 616,0 616,-19"/>
<text text-anchor="middle" x="594" y="-7" font-family="Helvetica,sans-Serif" font-size="10.00">string</text>
</a>
</g>
</g>
<!-- Node9&#45;&gt;Node11 -->
<g id="edge11_Node000009_Node000011" class="edge">
<title>Node9&#45;&gt;Node11</title>
<g id="a_edge11_Node000009_Node000011"><a xlink:title=" ">
<path fill="none" stroke="#63b8ff" d="M520.14,-54.98C533.79,-46.77 554.69,-34.18 570.78,-24.49"/>
<polygon fill="#63b8ff" stroke="#63b8ff" points="572.84,-27.33 579.6,-19.17 569.23,-21.33 572.84,-27.33"/>
</a>
</g>
</g>
<!-- Node12&#45;&gt;Node11 -->
<g id="edge14_Node000012_Node000011" class="edge">
<title>Node12&#45;&gt;Node11</title>
<g id="a_edge14_Node000012_Node000011"><a xlink:title=" ">
<path fill="none" stroke="#63b8ff" d="M643.52,-54.98C634.8,-47.15 621.66,-35.34 611.1,-25.86"/>
<polygon fill="#63b8ff" stroke="#63b8ff" points="613.43,-23.25 603.65,-19.17 608.75,-28.46 613.43,-23.25"/>
</a>
</g>
</g>
<!-- Node13&#45;&gt;Node11 -->
<g id="edge16_Node000013_Node000011" class="edge">
<title>Node13&#45;&gt;Node11</title>
<g id="a_edge16_Node000013_Node000011"><a xlink:title=" ">
<path fill="none" stroke="#63b8ff" d="M546.39,-109.81C554.97,-101.4 567.42,-87.92 575,-74 582.66,-59.93 587.61,-42.38 590.53,-29.3"/>
<polygon fill="#63b8ff" stroke="#63b8ff" points="594.03,-29.65 592.59,-19.16 587.17,-28.26 594.03,-29.65"/>
</a>
</g>
</g>
<!-- Node14 -->
<g id="Node000014" class="node">
<title>Node14</title>
<g id="a_Node000014"><a xlink:href="endpoint_8hpp.html" target="_top" xlink:title=" ">
<polygon fill="white" stroke="#666666" points="830,-74 702,-74 702,-55 830,-55 830,-74"/>
<text text-anchor="middle" x="766" y="-62" font-family="Helvetica,sans-Serif" font-size="10.00">../models/endpoint.hpp</text>
</a>
</g>
</g>
<!-- Node13&#45;&gt;Node14 -->
<g id="edge17_Node000013_Node000014" class="edge">
<title>Node13&#45;&gt;Node14</title>
<g id="a_edge17_Node000013_Node000014"><a xlink:title=" ">
<path fill="none" stroke="#63b8ff" d="M573.79,-109.98C613.24,-100.86 675.98,-86.33 718.98,-76.38"/>
<polygon fill="#63b8ff" stroke="#63b8ff" points="719.97,-79.75 728.92,-74.08 718.39,-72.93 719.97,-79.75"/>
</a>
</g>
</g>
<!-- Node16 -->
<g id="Node000016" class="node">
<title>Node16</title>
<g id="a_Node000016"><a xlink:href="tcp__socket_8hpp.html" target="_top" xlink:title=" ">
<polygon fill="white" stroke="#666666" points="351.5,-74 210.5,-74 210.5,-55 351.5,-55 351.5,-74"/>
<text text-anchor="middle" x="281" y="-62" font-family="Helvetica,sans-Serif" font-size="10.00">../network/tcp_socket.hpp</text>
</a>
</g>
</g>
<!-- Node13&#45;&gt;Node16 -->
<g id="edge21_Node000013_Node000016" class="edge">
<title>Node13&#45;&gt;Node16</title>
<g id="a_edge21_Node000013_Node000016"><a xlink:title=" ">
<path fill="none" stroke="#63b8ff" d="M495.87,-109.98C451.4,-100.78 380.45,-86.09 332.35,-76.13"/>
<polygon fill="#63b8ff" stroke="#63b8ff" points="332.96,-72.68 322.45,-74.08 331.54,-79.54 332.96,-72.68"/>
</a>
</g>
</g>
<!-- Node14&#45;&gt;Node10 -->
<g id="edge19_Node000014_Node000010" class="edge">
<title>Node14&#45;&gt;Node10</title>
<g id="a_edge19_Node000014_Node000010"><a xlink:title=" ">
<path fill="none" stroke="#63b8ff" d="M752.02,-54.98C738.53,-46.77 717.87,-34.18 701.96,-24.49"/>
<polygon fill="#63b8ff" stroke="#63b8ff" points="703.59,-21.38 693.23,-19.17 699.95,-27.36 703.59,-21.38"/>
</a>
</g>
</g>
<!-- Node14&#45;&gt;Node11 -->
<g id="edge20_Node000014_Node000011" class="edge">
<title>Node14&#45;&gt;Node11</title>
<g id="a_edge20_Node000014_Node000011"><a xlink:title=" ">
<path fill="none" stroke="#63b8ff" d="M738.37,-54.98C707.69,-45.53 658.25,-30.3 625.94,-20.34"/>
<polygon fill="#63b8ff" stroke="#63b8ff" points="626.69,-16.91 616.1,-17.31 624.62,-23.6 626.69,-16.91"/>
</a>
</g>
</g>
<!-- Node15 -->
<g id="Node000015" class="node">
<title>Node15</title>
<g id="a_Node000015"><a xlink:title=" ">
<polygon fill="#e0e0e0" stroke="#999999" points="791,-19 741,-19 741,0 791,0 791,-19"/>
<text text-anchor="middle" x="766" y="-7" font-family="Helvetica,sans-Serif" font-size="10.00">cstdint</text>
</a>
</g>
</g>
<!-- Node14&#45;&gt;Node15 -->
<g id="edge18_Node000014_Node000015" class="edge">
<title>Node14&#45;&gt;Node15</title>
<g id="a_edge18_Node000014_Node000015"><a xlink:title=" ">
<path fill="none" stroke="#63b8ff" d="M766,-54.75C766,-47.8 766,-37.85 766,-29.13"/>
<polygon fill="#63b8ff" stroke="#63b8ff" points="769.5,-29.09 766,-19.09 762.5,-29.09 769.5,-29.09"/>
</a>
</g>
</g>
<!-- Node16&#45;&gt;Node4 -->
<g id="edge22_Node000016_Node000004" class="edge">
<title>Node16&#45;&gt;Node4</title>
<g id="a_edge22_Node000016_Node000004"><a xlink:title=" ">
<path fill="none" stroke="#63b8ff" d="M253.04,-54.98C223.7,-46.05 177.4,-31.94 144.81,-22.02"/>
<polygon fill="#63b8ff" stroke="#63b8ff" points="145.76,-18.65 135.18,-19.08 143.72,-25.34 145.76,-18.65"/>
</a>
</g>
</g>
<!-- Node16&#45;&gt;Node7 -->
<g id="edge26_Node000016_Node000007" class="edge">
<title>Node16&#45;&gt;Node7</title>
<g id="a_edge26_Node000016_Node000007"><a xlink:title=" ">
<path fill="none" stroke="#63b8ff" d="M265.09,-54.98C249.45,-46.61 225.34,-33.7 207.12,-23.95"/>
<polygon fill="#63b8ff" stroke="#63b8ff" points="208.66,-20.8 198.2,-19.17 205.36,-26.98 208.66,-20.8"/>
</a>
</g>
</g>
<!-- Node16&#45;&gt;Node8 -->
<g id="edge27_Node000016_Node000008" class="edge">
<title>Node16&#45;&gt;Node8</title>
<g id="a_edge27_Node000016_Node000008"><a xlink:title=" ">
<path fill="none" stroke="#63b8ff" d="M306.22,-54.98C332.9,-45.98 375.11,-31.73 404.55,-21.79"/>
<polygon fill="#63b8ff" stroke="#63b8ff" points="406.02,-24.99 414.38,-18.47 403.78,-18.36 406.02,-24.99"/>
</a>
</g>
</g>
<!-- Node16&#45;&gt;Node11 -->
<g id="edge24_Node000016_Node000011" class="edge">
<title>Node16&#45;&gt;Node11</title>
<g id="a_edge24_Node000016_Node000011"><a xlink:title=" ">
<path fill="none" stroke="#63b8ff" d="M332.12,-54.96C385.31,-46.05 471.01,-31.65 545,-19 550.29,-18.1 555.9,-17.13 561.36,-16.18"/>
<polygon fill="#63b8ff" stroke="#63b8ff" points="562.31,-19.57 571.56,-14.42 561.11,-12.68 562.31,-19.57"/>
</a>
</g>
</g>
<!-- Node17 -->
<g id="Node000017" class="node">
<title>Node17</title>
<g id="a_Node000017"><a xlink:title=" ">
<polygon fill="#e0e0e0" stroke="#999999" points="396,-19 324,-19 324,0 396,0 396,-19"/>
<text text-anchor="middle" x="360" y="-7" font-family="Helvetica,sans-Serif" font-size="10.00">netinet/in.h</text>
</a>
</g>
</g>
<!-- Node16&#45;&gt;Node17 -->
<g id="edge23_Node000016_Node000017" class="edge">
<title>Node16&#45;&gt;Node17</title>
<g id="a_edge23_Node000016_Node000017"><a xlink:title=" ">
<path fill="none" stroke="#63b8ff" d="M293.69,-54.98C305.83,-46.84 324.36,-34.41 338.75,-24.76"/>
<polygon fill="#63b8ff" stroke="#63b8ff" points="340.72,-27.65 347.08,-19.17 336.82,-21.84 340.72,-27.65"/>
</a>
</g>
</g>
<!-- Node18 -->
<g id="Node000018" class="node">
<title>Node18</title>
<g id="a_Node000018"><a xlink:title=" ">
<polygon fill="#e0e0e0" stroke="#999999" points="305.5,-19 228.5,-19 228.5,0 305.5,0 305.5,-19"/>
<text text-anchor="middle" x="267" y="-7" font-family="Helvetica,sans-Serif" font-size="10.00">sys/socket.h</text>
</a>
</g>
</g>
<!-- Node16&#45;&gt;Node18 -->
<g id="edge25_Node000016_Node000018" class="edge">
<title>Node16&#45;&gt;Node18</title>
<g id="a_edge25_Node000016_Node000018"><a xlink:title=" ">
<path fill="none" stroke="#63b8ff" d="M278.69,-54.75C276.83,-47.72 274.16,-37.62 271.85,-28.84"/>
<polygon fill="#63b8ff" stroke="#63b8ff" points="275.21,-27.86 269.27,-19.09 268.44,-29.65 275.21,-27.86"/>
</a>
</g>
</g>
</g>
</svg>
