<?xml version="1.0" encoding="UTF-8" standalone="no"?>
<!DOCTYPE svg PUBLIC "-//W3C//DTD SVG 1.1//EN"
 "http://www.w3.org/Graphics/SVG/1.1/DTD/svg11.dtd">
<!-- Generated by graphviz version 2.43.0 (0)
 -->
<!-- Title: src/tracker/process_request.cpp Pages: 1 -->
<svg width="898pt" height="258pt"
 viewBox="0.00 0.00 898.37 258.00" xmlns="http://www.w3.org/2000/svg" xmlns:xlink="http://www.w3.org/1999/xlink">
<g id="graph0" class="graph" transform="scale(1 1) rotate(0) translate(4 254)">
<title>src/tracker/process_request.cpp</title>
<!-- Node1 -->
<g id="Node000001" class="node">
<title>Node1</title>
<g id="a_Node000001"><a xlink:title=" ">
<polygon fill="#999999" stroke="#666666" points="580.5,-250 472.5,-250 472.5,-220 580.5,-220 580.5,-250"/>
<text text-anchor="start" x="480.5" y="-238" font-family="Helvetica,sans-Serif" font-size="10.00">src/tracker/process</text>
<text text-anchor="middle" x="526.5" y="-227" font-family="Helvetica,sans-Serif" font-size="10.00">_request.cpp</text>
</a>
</g>
</g>
<!-- Node2 -->
<g id="Node000002" class="node">
<title>Node2</title>
<g id="a_Node000002"><a xlink:href="process__request_8hpp.html" target="_top" xlink:title=" ">
<polygon fill="white" stroke="#666666" points="384,-184 267,-184 267,-165 384,-165 384,-184"/>
<text text-anchor="middle" x="325.5" y="-172" font-family="Helvetica,sans-Serif" font-size="10.00">process_request.hpp</text>
</a>
</g>
</g>
<!-- Node1&#45;&gt;Node2 -->
<g id="edge1_Node000001_Node000002" class="edge">
<title>Node1&#45;&gt;Node2</title>
<g id="a_edge1_Node000001_Node000002"><a xlink:title=" ">
<path fill="none" stroke="#63b8ff" d="M478.36,-219.99C443.52,-209.85 397.03,-196.32 364.51,-186.85"/>
<polygon fill="#63b8ff" stroke="#63b8ff" points="365.47,-183.49 354.89,-184.05 363.51,-190.21 365.47,-183.49"/>
</a>
</g>
</g>
<!-- Node10 -->
<g id="Node000010" class="node">
<title>Node10</title>
<g id="a_Node000010"><a xlink:href="groupdb_8hpp.html" target="_top" xlink:title=" ">
<polygon fill="white" stroke="#666666" points="599,-184 522,-184 522,-165 599,-165 599,-184"/>
<text text-anchor="middle" x="560.5" y="-172" font-family="Helvetica,sans-Serif" font-size="10.00">groupdb.hpp</text>
</a>
</g>
</g>
<!-- Node1&#45;&gt;Node10 -->
<g id="edge11_Node000001_Node000010" class="edge">
<title>Node1&#45;&gt;Node10</title>
<g id="a_edge11_Node000001_Node000010"><a xlink:title=" ">
<path fill="none" stroke="#63b8ff" d="M534.73,-219.84C539.41,-211.78 545.32,-201.62 550.3,-193.06"/>
<polygon fill="#63b8ff" stroke="#63b8ff" points="553.41,-194.67 555.41,-184.27 547.35,-191.15 553.41,-194.67"/>
</a>
</g>
</g>
<!-- Node16 -->
<g id="Node000016" class="node">
<title>Node16</title>
<g id="a_Node000016"><a xlink:href="userdb_8hpp.html" target="_top" xlink:title=" ">
<polygon fill="white" stroke="#666666" points="530,-129 459,-129 459,-110 530,-110 530,-129"/>
<text text-anchor="middle" x="494.5" y="-117" font-family="Helvetica,sans-Serif" font-size="10.00">userdb.hpp</text>
</a>
</g>
</g>
<!-- Node1&#45;&gt;Node16 -->
<g id="edge23_Node000001_Node000016" class="edge">
<title>Node1&#45;&gt;Node16</title>
<g id="a_edge23_Node000001_Node000016"><a xlink:title=" ">
<path fill="none" stroke="#63b8ff" d="M522.45,-219.63C516.67,-199.12 506.05,-161.47 499.7,-138.93"/>
<polygon fill="#63b8ff" stroke="#63b8ff" points="503.04,-137.9 496.96,-129.23 496.31,-139.8 503.04,-137.9"/>
</a>
</g>
</g>
<!-- Node17 -->
<g id="Node000017" class="node">
<title>Node17</title>
<g id="a_Node000017"><a xlink:title=" ">
<polygon fill="#e0e0e0" stroke="#999999" points="673.5,-184 617.5,-184 617.5,-165 673.5,-165 673.5,-184"/>
<text text-anchor="middle" x="645.5" y="-172" font-family="Helvetica,sans-Serif" font-size="10.00">sstream</text>
</a>
</g>
</g>
<!-- Node1&#45;&gt;Node17 -->
<g id="edge30_Node000001_Node000017" class="edge">
<title>Node1&#45;&gt;Node17</title>
<g id="a_edge30_Node000001_Node000017"><a xlink:title=" ">
<path fill="none" stroke="#63b8ff" d="M555,-219.99C574.41,-210.45 599.93,-197.9 618.92,-188.57"/>
<polygon fill="#63b8ff" stroke="#63b8ff" points="620.5,-191.69 627.93,-184.14 617.41,-185.41 620.5,-191.69"/>
</a>
</g>
</g>
<!-- Node3 -->
<g id="Node000003" class="node">
<title>Node3</title>
<g id="a_Node000003"><a xlink:title=" ">
<polygon fill="#e0e0e0" stroke="#999999" points="459.5,-74 401.5,-74 401.5,-55 459.5,-55 459.5,-74"/>
<text text-anchor="middle" x="430.5" y="-62" font-family="Helvetica,sans-Serif" font-size="10.00">memory</text>
</a>
</g>
</g>
<!-- Node2&#45;&gt;Node3 -->
<g id="edge2_Node000002_Node000003" class="edge">
<title>Node2&#45;&gt;Node3</title>
<g id="a_edge2_Node000002_Node000003"><a xlink:title=" ">
<path fill="none" stroke="#63b8ff" d="M334.09,-164.66C351.79,-146.46 392.54,-104.55 414.98,-81.47"/>
<polygon fill="#63b8ff" stroke="#63b8ff" points="417.62,-83.77 422.08,-74.16 412.6,-78.89 417.62,-83.77"/>
</a>
</g>
</g>
<!-- Node4 -->
<g id="Node000004" class="node">
<title>Node4</title>
<g id="a_Node000004"><a xlink:title=" ">
<polygon fill="#e0e0e0" stroke="#999999" points="618.5,-19 574.5,-19 574.5,0 618.5,0 618.5,-19"/>
<text text-anchor="middle" x="596.5" y="-7" font-family="Helvetica,sans-Serif" font-size="10.00">string</text>
</a>
</g>
</g>
<!-- Node2&#45;&gt;Node4 -->
<g id="edge3_Node000002_Node000004" class="edge">
<title>Node2&#45;&gt;Node4</title>
<g id="a_edge3_Node000002_Node000004"><a xlink:title=" ">
<path fill="none" stroke="#63b8ff" d="M322.23,-164.77C314.78,-143.2 299.21,-86.88 326.5,-55 356.79,-19.62 499.08,-12.33 564.03,-10.86"/>
<polygon fill="#63b8ff" stroke="#63b8ff" points="564.2,-14.35 574.13,-10.66 564.06,-7.36 564.2,-14.35"/>
</a>
</g>
</g>
<!-- Node5 -->
<g id="Node000005" class="node">
<title>Node5</title>
<g id="a_Node000005"><a xlink:href="tcp__socket_8hpp.html" target="_top" xlink:title=" ">
<polygon fill="white" stroke="#666666" points="279,-129 138,-129 138,-110 279,-110 279,-129"/>
<text text-anchor="middle" x="208.5" y="-117" font-family="Helvetica,sans-Serif" font-size="10.00">../network/tcp_socket.hpp</text>
</a>
</g>
</g>
<!-- Node2&#45;&gt;Node5 -->
<g id="edge4_Node000002_Node000005" class="edge">
<title>Node2&#45;&gt;Node5</title>
<g id="a_edge4_Node000002_Node000005"><a xlink:title=" ">
<path fill="none" stroke="#63b8ff" d="M306.7,-164.98C287.88,-156.46 258.68,-143.23 237,-133.41"/>
<polygon fill="#63b8ff" stroke="#63b8ff" points="238.19,-130.11 227.64,-129.17 235.3,-136.48 238.19,-130.11"/>
</a>
</g>
</g>
<!-- Node5&#45;&gt;Node3 -->
<g id="edge5_Node000005_Node000003" class="edge">
<title>Node5&#45;&gt;Node3</title>
<g id="a_edge5_Node000005_Node000003"><a xlink:title=" ">
<path fill="none" stroke="#63b8ff" d="M244.17,-109.98C284.48,-100.36 349.88,-84.75 391.51,-74.81"/>
<polygon fill="#63b8ff" stroke="#63b8ff" points="392.39,-78.2 401.3,-72.47 390.76,-71.39 392.39,-78.2"/>
</a>
</g>
</g>
<!-- Node5&#45;&gt;Node4 -->
<g id="edge7_Node000005_Node000004" class="edge">
<title>Node5&#45;&gt;Node4</title>
<g id="a_edge7_Node000005_Node000004"><a xlink:title=" ">
<path fill="none" stroke="#63b8ff" d="M216.99,-109.8C231.33,-95.71 261.86,-68.14 293.5,-55 386.22,-16.48 507.01,-10.58 564.02,-10.13"/>
<polygon fill="#63b8ff" stroke="#63b8ff" points="564.23,-13.63 574.22,-10.1 564.21,-6.63 564.23,-13.63"/>
</a>
</g>
</g>
<!-- Node6 -->
<g id="Node000006" class="node">
<title>Node6</title>
<g id="a_Node000006"><a xlink:title=" ">
<polygon fill="#e0e0e0" stroke="#999999" points="241.5,-74 169.5,-74 169.5,-55 241.5,-55 241.5,-74"/>
<text text-anchor="middle" x="205.5" y="-62" font-family="Helvetica,sans-Serif" font-size="10.00">netinet/in.h</text>
</a>
</g>
</g>
<!-- Node5&#45;&gt;Node6 -->
<g id="edge6_Node000005_Node000006" class="edge">
<title>Node5&#45;&gt;Node6</title>
<g id="a_edge6_Node000005_Node000006"><a xlink:title=" ">
<path fill="none" stroke="#63b8ff" d="M208,-109.75C207.61,-102.8 207.05,-92.85 206.55,-84.13"/>
<polygon fill="#63b8ff" stroke="#63b8ff" points="210.05,-83.88 205.99,-74.09 203.06,-84.27 210.05,-83.88"/>
</a>
</g>
</g>
<!-- Node7 -->
<g id="Node000007" class="node">
<title>Node7</title>
<g id="a_Node000007"><a xlink:title=" ">
<polygon fill="#e0e0e0" stroke="#999999" points="77,-74 0,-74 0,-55 77,-55 77,-74"/>
<text text-anchor="middle" x="38.5" y="-62" font-family="Helvetica,sans-Serif" font-size="10.00">sys/socket.h</text>
</a>
</g>
</g>
<!-- Node5&#45;&gt;Node7 -->
<g id="edge8_Node000005_Node000007" class="edge">
<title>Node5&#45;&gt;Node7</title>
<g id="a_edge8_Node000005_Node000007"><a xlink:title=" ">
<path fill="none" stroke="#63b8ff" d="M181.19,-109.98C152.65,-101.09 107.67,-87.07 75.86,-77.15"/>
<polygon fill="#63b8ff" stroke="#63b8ff" points="76.62,-73.72 66.03,-74.08 74.53,-80.4 76.62,-73.72"/>
</a>
</g>
</g>
<!-- Node8 -->
<g id="Node000008" class="node">
<title>Node8</title>
<g id="a_Node000008"><a xlink:title=" ">
<polygon fill="#e0e0e0" stroke="#999999" points="151.5,-74 95.5,-74 95.5,-55 151.5,-55 151.5,-74"/>
<text text-anchor="middle" x="123.5" y="-62" font-family="Helvetica,sans-Serif" font-size="10.00">unistd.h</text>
</a>
</g>
</g>
<!-- Node5&#45;&gt;Node8 -->
<g id="edge9_Node000005_Node000008" class="edge">
<title>Node5&#45;&gt;Node8</title>
<g id="a_edge9_Node000005_Node000008"><a xlink:title=" ">
<path fill="none" stroke="#63b8ff" d="M194.84,-109.98C181.66,-101.77 161.47,-89.18 145.93,-79.49"/>
<polygon fill="#63b8ff" stroke="#63b8ff" points="147.74,-76.49 137.41,-74.17 144.04,-82.43 147.74,-76.49"/>
</a>
</g>
</g>
<!-- Node9 -->
<g id="Node000009" class="node">
<title>Node9</title>
<g id="a_Node000009"><a xlink:title=" ">
<polygon fill="#e0e0e0" stroke="#999999" points="383,-74 336,-74 336,-55 383,-55 383,-74"/>
<text text-anchor="middle" x="359.5" y="-62" font-family="Helvetica,sans-Serif" font-size="10.00">vector</text>
</a>
</g>
</g>
<!-- Node5&#45;&gt;Node9 -->
<g id="edge10_Node000005_Node000009" class="edge">
<title>Node5&#45;&gt;Node9</title>
<g id="a_edge10_Node000005_Node000009"><a xlink:title=" ">
<path fill="none" stroke="#63b8ff" d="M232.76,-109.98C258.12,-101.09 298.07,-87.06 326.33,-77.14"/>
<polygon fill="#63b8ff" stroke="#63b8ff" points="327.52,-80.43 335.8,-73.82 325.2,-73.83 327.52,-80.43"/>
</a>
</g>
</g>
<!-- Node10&#45;&gt;Node3 -->
<g id="edge12_Node000010_Node000003" class="edge">
<title>Node10&#45;&gt;Node3</title>
<g id="a_edge12_Node000010_Node000003"><a xlink:title=" ">
<path fill="none" stroke="#63b8ff" d="M521.95,-166.88C498.02,-160.86 468.33,-149.62 449.5,-129 438.34,-116.79 433.73,-98.27 431.82,-84.37"/>
<polygon fill="#63b8ff" stroke="#63b8ff" points="435.26,-83.63 430.77,-74.03 428.3,-84.33 435.26,-83.63"/>
</a>
</g>
</g>
<!-- Node10&#45;&gt;Node4 -->
<g id="edge13_Node000010_Node000004" class="edge">
<title>Node10&#45;&gt;Node4</title>
<g id="a_edge13_Node000010_Node000004"><a xlink:title=" ">
<path fill="none" stroke="#63b8ff" d="M599.16,-166.55C651.2,-156.99 740.9,-139.76 772.5,-129 825.75,-110.87 856.59,-121.64 886.5,-74 890.99,-66.85 892,-61.41 886.5,-55 853.59,-16.66 697.53,-11.02 628.95,-10.42"/>
<polygon fill="#63b8ff" stroke="#63b8ff" points="628.75,-6.92 618.73,-10.36 628.71,-13.92 628.75,-6.92"/>
</a>
</g>
</g>
<!-- Node10&#45;&gt;Node9 -->
<g id="edge16_Node000010_Node000009" class="edge">
<title>Node10&#45;&gt;Node9</title>
<g id="a_edge16_Node000010_Node000009"><a xlink:title=" ">
<path fill="none" stroke="#63b8ff" d="M525.89,-164.95C499.72,-157.63 463.47,-145.63 434.5,-129 411.74,-115.94 389.26,-95.65 374.93,-81.53"/>
<polygon fill="#63b8ff" stroke="#63b8ff" points="377.03,-78.67 367.5,-74.04 372.05,-83.6 377.03,-78.67"/>
</a>
</g>
</g>
<!-- Node11 -->
<g id="Node000011" class="node">
<title>Node11</title>
<g id="a_Node000011"><a xlink:title=" ">
<polygon fill="#e0e0e0" stroke="#999999" points="547.5,-74 515.5,-74 515.5,-55 547.5,-55 547.5,-74"/>
<text text-anchor="middle" x="531.5" y="-62" font-family="Helvetica,sans-Serif" font-size="10.00">set</text>
</a>
</g>
</g>
<!-- Node10&#45;&gt;Node11 -->
<g id="edge14_Node000010_Node000011" class="edge">
<title>Node10&#45;&gt;Node11</title>
<g id="a_edge14_Node000010_Node000011"><a xlink:title=" ">
<path fill="none" stroke="#63b8ff" d="M558.13,-164.66C553.41,-147.09 542.76,-107.45 536.46,-83.95"/>
<polygon fill="#63b8ff" stroke="#63b8ff" points="539.8,-82.91 533.82,-74.16 533.04,-84.72 539.8,-82.91"/>
</a>
</g>
</g>
<!-- Node12 -->
<g id="Node000012" class="node">
<title>Node12</title>
<g id="a_Node000012"><a xlink:title=" ">
<polygon fill="#e0e0e0" stroke="#999999" points="659,-74 566,-74 566,-55 659,-55 659,-74"/>
<text text-anchor="middle" x="612.5" y="-62" font-family="Helvetica,sans-Serif" font-size="10.00">unordered_map</text>
</a>
</g>
</g>
<!-- Node10&#45;&gt;Node12 -->
<g id="edge15_Node000010_Node000012" class="edge">
<title>Node10&#45;&gt;Node12</title>
<g id="a_edge15_Node000010_Node000012"><a xlink:title=" ">
<path fill="none" stroke="#63b8ff" d="M564.76,-164.66C573.29,-146.93 592.65,-106.73 603.92,-83.32"/>
<polygon fill="#63b8ff" stroke="#63b8ff" points="607.15,-84.69 608.33,-74.16 600.84,-81.65 607.15,-84.69"/>
</a>
</g>
</g>
<!-- Node13 -->
<g id="Node000013" class="node">
<title>Node13</title>
<g id="a_Node000013"><a xlink:href="group_8hpp.html" target="_top" xlink:title=" ">
<polygon fill="white" stroke="#666666" points="763,-129 650,-129 650,-110 763,-110 763,-129"/>
<text text-anchor="middle" x="706.5" y="-117" font-family="Helvetica,sans-Serif" font-size="10.00">../models/group.hpp</text>
</a>
</g>
</g>
<!-- Node10&#45;&gt;Node13 -->
<g id="edge17_Node000010_Node000013" class="edge">
<title>Node10&#45;&gt;Node13</title>
<g id="a_edge17_Node000010_Node000013"><a xlink:title=" ">
<path fill="none" stroke="#63b8ff" d="M583.96,-164.98C608.08,-156.23 645.87,-142.51 673.1,-132.62"/>
<polygon fill="#63b8ff" stroke="#63b8ff" points="674.41,-135.87 682.62,-129.17 672.02,-129.29 674.41,-135.87"/>
</a>
</g>
</g>
<!-- Node13&#45;&gt;Node3 -->
<g id="edge18_Node000013_Node000003" class="edge">
<title>Node13&#45;&gt;Node3</title>
<g id="a_edge18_Node000013_Node000003"><a xlink:title=" ">
<path fill="none" stroke="#63b8ff" d="M662.16,-109.98C608.98,-99.77 520.68,-82.82 469.84,-73.05"/>
<polygon fill="#63b8ff" stroke="#63b8ff" points="470.36,-69.59 459.88,-71.14 469.04,-76.47 470.36,-69.59"/>
</a>
</g>
</g>
<!-- Node13&#45;&gt;Node4 -->
<g id="edge19_Node000013_Node000004" class="edge">
<title>Node13&#45;&gt;Node4</title>
<g id="a_edge19_Node000013_Node000004"><a xlink:title=" ">
<path fill="none" stroke="#63b8ff" d="M718.21,-109.94C733.91,-97.41 758.3,-73.56 744.5,-55 717.95,-19.29 663.69,-11.17 628.76,-9.88"/>
<polygon fill="#63b8ff" stroke="#63b8ff" points="628.66,-6.38 618.59,-9.68 628.52,-13.38 628.66,-6.38"/>
</a>
</g>
</g>
<!-- Node14 -->
<g id="Node000014" class="node">
<title>Node14</title>
<g id="a_Node000014"><a xlink:title=" ">
<polygon fill="#e0e0e0" stroke="#999999" points="877.5,-74 791.5,-74 791.5,-55 877.5,-55 877.5,-74"/>
<text text-anchor="middle" x="834.5" y="-62" font-family="Helvetica,sans-Serif" font-size="10.00">unordered_set</text>
</a>
</g>
</g>
<!-- Node13&#45;&gt;Node14 -->
<g id="edge20_Node000013_Node000014" class="edge">
<title>Node13&#45;&gt;Node14</title>
<g id="a_edge20_Node000013_Node000014"><a xlink:title=" ">
<path fill="none" stroke="#63b8ff" d="M727.07,-109.98C747.93,-101.34 780.47,-87.87 804.27,-78.02"/>
<polygon fill="#63b8ff" stroke="#63b8ff" points="805.66,-81.23 813.56,-74.17 802.98,-74.76 805.66,-81.23"/>
</a>
</g>
</g>
<!-- Node15 -->
<g id="Node000015" class="node">
<title>Node15</title>
<g id="a_Node000015"><a xlink:href="user_8hpp.html" target="_top" xlink:title=" ">
<polygon fill="white" stroke="#666666" points="735.5,-74 677.5,-74 677.5,-55 735.5,-55 735.5,-74"/>
<text text-anchor="middle" x="706.5" y="-62" font-family="Helvetica,sans-Serif" font-size="10.00">user.hpp</text>
</a>
</g>
</g>
<!-- Node13&#45;&gt;Node15 -->
<g id="edge21_Node000013_Node000015" class="edge">
<title>Node13&#45;&gt;Node15</title>
<g id="a_edge21_Node000013_Node000015"><a xlink:title=" ">
<path fill="none" stroke="#63b8ff" d="M706.5,-109.75C706.5,-102.8 706.5,-92.85 706.5,-84.13"/>
<polygon fill="#63b8ff" stroke="#63b8ff" points="710,-84.09 706.5,-74.09 703,-84.09 710,-84.09"/>
</a>
</g>
</g>
<!-- Node15&#45;&gt;Node4 -->
<g id="edge22_Node000015_Node000004" class="edge">
<title>Node15&#45;&gt;Node4</title>
<g id="a_edge22_Node000015_Node000004"><a xlink:title=" ">
<path fill="none" stroke="#63b8ff" d="M688.83,-54.98C671.21,-46.5 643.92,-33.35 623.57,-23.54"/>
<polygon fill="#63b8ff" stroke="#63b8ff" points="625.02,-20.36 614.49,-19.17 621.98,-26.66 625.02,-20.36"/>
</a>
</g>
</g>
<!-- Node16&#45;&gt;Node3 -->
<g id="edge24_Node000016_Node000003" class="edge">
<title>Node16&#45;&gt;Node3</title>
<g id="a_edge24_Node000016_Node000003"><a xlink:title=" ">
<path fill="none" stroke="#63b8ff" d="M484.22,-109.98C474.66,-102.07 460.22,-90.11 448.72,-80.58"/>
<polygon fill="#63b8ff" stroke="#63b8ff" points="450.9,-77.85 440.97,-74.17 446.44,-83.24 450.9,-77.85"/>
</a>
</g>
</g>
<!-- Node16&#45;&gt;Node4 -->
<g id="edge25_Node000016_Node000004" class="edge">
<title>Node16&#45;&gt;Node4</title>
<g id="a_edge25_Node000016_Node000004"><a xlink:title=" ">
<path fill="none" stroke="#63b8ff" d="M493.83,-109.73C493.3,-96.5 494.16,-71.27 506.5,-55 520.68,-36.32 544.81,-24.98 564.52,-18.43"/>
<polygon fill="#63b8ff" stroke="#63b8ff" points="565.81,-21.7 574.35,-15.43 563.76,-15 565.81,-21.7"/>
</a>
</g>
</g>
<!-- Node16&#45;&gt;Node9 -->
<g id="edge28_Node000016_Node000009" class="edge">
<title>Node16&#45;&gt;Node9</title>
<g id="a_edge28_Node000016_Node000009"><a xlink:title=" ">
<path fill="none" stroke="#63b8ff" d="M472.81,-109.98C450.7,-101.3 416.18,-87.75 391.05,-77.88"/>
<polygon fill="#63b8ff" stroke="#63b8ff" points="392.17,-74.57 381.58,-74.17 389.61,-81.08 392.17,-74.57"/>
</a>
</g>
</g>
<!-- Node16&#45;&gt;Node11 -->
<g id="edge26_Node000016_Node000011" class="edge">
<title>Node16&#45;&gt;Node11</title>
<g id="a_edge26_Node000016_Node000011"><a xlink:title=" ">
<path fill="none" stroke="#63b8ff" d="M500.61,-109.75C505.78,-102.34 513.35,-91.5 519.69,-82.41"/>
<polygon fill="#63b8ff" stroke="#63b8ff" points="522.65,-84.29 525.5,-74.09 516.91,-80.29 522.65,-84.29"/>
</a>
</g>
</g>
<!-- Node16&#45;&gt;Node12 -->
<g id="edge27_Node000016_Node000012" class="edge">
<title>Node16&#45;&gt;Node12</title>
<g id="a_edge27_Node000016_Node000012"><a xlink:title=" ">
<path fill="none" stroke="#63b8ff" d="M513.46,-109.98C532.53,-101.42 562.16,-88.11 584.05,-78.28"/>
<polygon fill="#63b8ff" stroke="#63b8ff" points="585.51,-81.46 593.2,-74.17 582.64,-75.07 585.51,-81.46"/>
</a>
</g>
</g>
<!-- Node16&#45;&gt;Node15 -->
<g id="edge29_Node000016_Node000015" class="edge">
<title>Node16&#45;&gt;Node15</title>
<g id="a_edge29_Node000016_Node000015"><a xlink:title=" ">
<path fill="none" stroke="#63b8ff" d="M528.56,-109.98C566.46,-100.51 627.6,-85.23 667.42,-75.27"/>
<polygon fill="#63b8ff" stroke="#63b8ff" points="668.45,-78.62 677.3,-72.8 666.75,-71.83 668.45,-78.62"/>
</a>
</g>
</g>
</g>
</svg>
