<?xml version="1.0" encoding="UTF-8" standalone="no"?>
<!DOCTYPE svg PUBLIC "-//W3C//DTD SVG 1.1//EN"
 "http://www.w3.org/Graphics/SVG/1.1/DTD/svg11.dtd">
<!-- Generated by graphviz version 2.43.0 (0)
 -->
<!-- Title: src/client/process_input.hpp Pages: 1 -->
<svg width="1008pt" height="313pt"
 viewBox="0.00 0.00 1008.24 313.00" xmlns="http://www.w3.org/2000/svg" xmlns:xlink="http://www.w3.org/1999/xlink">
<g id="graph0" class="graph" transform="scale(1 1) rotate(0) translate(4 309)">
<title>src/client/process_input.hpp</title>
<!-- Node1 -->
<g id="Node000001" class="node">
<title>Node1</title>
<g id="a_Node000001"><a xlink:title=" ">
<polygon fill="#999999" stroke="#666666" points="492.5,-305 391.5,-305 391.5,-275 492.5,-275 492.5,-305"/>
<text text-anchor="start" x="399.5" y="-293" font-family="Helvetica,sans-Serif" font-size="10.00">src/client/process</text>
<text text-anchor="middle" x="442" y="-282" font-family="Helvetica,sans-Serif" font-size="10.00">_input.hpp</text>
</a>
</g>
</g>
<!-- Node2 -->
<g id="Node000002" class="node">
<title>Node2</title>
<g id="a_Node000002"><a xlink:title=" ">
<polygon fill="#e0e0e0" stroke="#999999" points="581,-19 537,-19 537,0 581,0 581,-19"/>
<text text-anchor="middle" x="559" y="-7" font-family="Helvetica,sans-Serif" font-size="10.00">string</text>
</a>
</g>
</g>
<!-- Node1&#45;&gt;Node2 -->
<g id="edge1_Node000001_Node000002" class="edge">
<title>Node1&#45;&gt;Node2</title>
<g id="a_edge1_Node000001_Node000002"><a xlink:title=" ">
<path fill="none" stroke="#63b8ff" d="M391.3,-286.66C275.2,-279.92 0,-255.52 0,-175.5 0,-175.5 0,-175.5 0,-118.5 0,-71.34 40.99,-71.95 85,-55 166.06,-23.78 433.52,-13.83 526.67,-11.27"/>
<polygon fill="#63b8ff" stroke="#63b8ff" points="526.99,-14.76 536.89,-11 526.8,-7.76 526.99,-14.76"/>
</a>
</g>
</g>
<!-- Node3 -->
<g id="Node000003" class="node">
<title>Node3</title>
<g id="a_Node000003"><a xlink:href="endpoint_8hpp.html" target="_top" xlink:title=" ">
<polygon fill="white" stroke="#666666" points="967,-74 839,-74 839,-55 967,-55 967,-74"/>
<text text-anchor="middle" x="903" y="-62" font-family="Helvetica,sans-Serif" font-size="10.00">../models/endpoint.hpp</text>
</a>
</g>
</g>
<!-- Node1&#45;&gt;Node3 -->
<g id="edge2_Node000001_Node000003" class="edge">
<title>Node1&#45;&gt;Node3</title>
<g id="a_edge2_Node000001_Node000003"><a xlink:title=" ">
<path fill="none" stroke="#63b8ff" d="M492.76,-287.27C616.93,-281.87 930.48,-260.75 994,-184 1007.2,-168.05 996.39,-132.7 979,-110 968.25,-95.96 951.7,-85.52 936.78,-78.3"/>
<polygon fill="#63b8ff" stroke="#63b8ff" points="937.85,-74.94 927.29,-74.01 934.96,-81.32 937.85,-74.94"/>
</a>
</g>
</g>
<!-- Node6 -->
<g id="Node000006" class="node">
<title>Node6</title>
<g id="a_Node000006"><a xlink:href="tcp__socket_8hpp.html" target="_top" xlink:title=" ">
<polygon fill="white" stroke="#666666" points="294.5,-129 153.5,-129 153.5,-110 294.5,-110 294.5,-129"/>
<text text-anchor="middle" x="224" y="-117" font-family="Helvetica,sans-Serif" font-size="10.00">../network/tcp_socket.hpp</text>
</a>
</g>
</g>
<!-- Node1&#45;&gt;Node6 -->
<g id="edge6_Node000001_Node000006" class="edge">
<title>Node1&#45;&gt;Node6</title>
<g id="a_edge6_Node000001_Node000006"><a xlink:title=" ">
<path fill="none" stroke="#63b8ff" d="M423.79,-274.92C383.09,-243.47 285.07,-167.7 243.34,-135.45"/>
<polygon fill="#63b8ff" stroke="#63b8ff" points="245.38,-132.6 235.33,-129.25 241.1,-138.14 245.38,-132.6"/>
</a>
</g>
</g>
<!-- Node12 -->
<g id="Node000012" class="node">
<title>Node12</title>
<g id="a_Node000012"><a xlink:href="downloadmanager_8hpp.html" target="_top" xlink:title=" ">
<polygon fill="white" stroke="#666666" points="668,-239 540,-239 540,-220 668,-220 668,-239"/>
<text text-anchor="middle" x="604" y="-227" font-family="Helvetica,sans-Serif" font-size="10.00">downloadmanager.hpp</text>
</a>
</g>
</g>
<!-- Node1&#45;&gt;Node12 -->
<g id="edge13_Node000001_Node000012" class="edge">
<title>Node1&#45;&gt;Node12</title>
<g id="a_edge13_Node000001_Node000012"><a xlink:title=" ">
<path fill="none" stroke="#63b8ff" d="M480.8,-274.99C508.19,-265.1 544.52,-251.98 570.61,-242.56"/>
<polygon fill="#63b8ff" stroke="#63b8ff" points="571.86,-245.83 580.08,-239.14 569.48,-239.24 571.86,-245.83"/>
</a>
</g>
</g>
<!-- Node3&#45;&gt;Node2 -->
<g id="edge5_Node000003_Node000002" class="edge">
<title>Node3&#45;&gt;Node2</title>
<g id="a_edge5_Node000003_Node000002"><a xlink:title=" ">
<path fill="none" stroke="#63b8ff" d="M847.73,-54.98C775.14,-43.8 650.03,-24.52 591.26,-15.47"/>
<polygon fill="#63b8ff" stroke="#63b8ff" points="591.5,-11.97 581.09,-13.9 590.44,-18.88 591.5,-11.97"/>
</a>
</g>
</g>
<!-- Node4 -->
<g id="Node000004" class="node">
<title>Node4</title>
<g id="a_Node000004"><a xlink:title=" ">
<polygon fill="#e0e0e0" stroke="#999999" points="928,-19 878,-19 878,0 928,0 928,-19"/>
<text text-anchor="middle" x="903" y="-7" font-family="Helvetica,sans-Serif" font-size="10.00">cstdint</text>
</a>
</g>
</g>
<!-- Node3&#45;&gt;Node4 -->
<g id="edge3_Node000003_Node000004" class="edge">
<title>Node3&#45;&gt;Node4</title>
<g id="a_edge3_Node000003_Node000004"><a xlink:title=" ">
<path fill="none" stroke="#63b8ff" d="M903,-54.75C903,-47.8 903,-37.85 903,-29.13"/>
<polygon fill="#63b8ff" stroke="#63b8ff" points="906.5,-29.09 903,-19.09 899.5,-29.09 906.5,-29.09"/>
</a>
</g>
</g>
<!-- Node5 -->
<g id="Node000005" class="node">
<title>Node5</title>
<g id="a_Node000005"><a xlink:title=" ">
<polygon fill="#e0e0e0" stroke="#999999" points="859.5,-19 794.5,-19 794.5,0 859.5,0 859.5,-19"/>
<text text-anchor="middle" x="827" y="-7" font-family="Helvetica,sans-Serif" font-size="10.00">stdexcept</text>
</a>
</g>
</g>
<!-- Node3&#45;&gt;Node5 -->
<g id="edge4_Node000003_Node000005" class="edge">
<title>Node3&#45;&gt;Node5</title>
<g id="a_edge4_Node000003_Node000005"><a xlink:title=" ">
<path fill="none" stroke="#63b8ff" d="M890.79,-54.98C879.22,-46.92 861.62,-34.65 847.84,-25.03"/>
<polygon fill="#63b8ff" stroke="#63b8ff" points="849.64,-22.02 839.43,-19.17 845.63,-27.76 849.64,-22.02"/>
</a>
</g>
</g>
<!-- Node6&#45;&gt;Node2 -->
<g id="edge9_Node000006_Node000002" class="edge">
<title>Node6&#45;&gt;Node2</title>
<g id="a_edge9_Node000006_Node000002"><a xlink:title=" ">
<path fill="none" stroke="#63b8ff" d="M167.01,-109.93C121.42,-100.76 69.06,-83.54 95,-55 109.55,-38.98 423.81,-18.66 526.7,-12.41"/>
<polygon fill="#63b8ff" stroke="#63b8ff" points="527.04,-15.9 536.81,-11.8 526.62,-8.91 527.04,-15.9"/>
</a>
</g>
</g>
<!-- Node7 -->
<g id="Node000007" class="node">
<title>Node7</title>
<g id="a_Node000007"><a xlink:title=" ">
<polygon fill="#e0e0e0" stroke="#999999" points="460,-74 402,-74 402,-55 460,-55 460,-74"/>
<text text-anchor="middle" x="431" y="-62" font-family="Helvetica,sans-Serif" font-size="10.00">memory</text>
</a>
</g>
</g>
<!-- Node6&#45;&gt;Node7 -->
<g id="edge7_Node000006_Node000007" class="edge">
<title>Node6&#45;&gt;Node7</title>
<g id="a_edge7_Node000006_Node000007"><a xlink:title=" ">
<path fill="none" stroke="#63b8ff" d="M257.26,-109.98C293.98,-100.58 353.03,-85.46 391.92,-75.5"/>
<polygon fill="#63b8ff" stroke="#63b8ff" points="393.02,-78.84 401.84,-72.97 391.28,-72.06 393.02,-78.84"/>
</a>
</g>
</g>
<!-- Node8 -->
<g id="Node000008" class="node">
<title>Node8</title>
<g id="a_Node000008"><a xlink:title=" ">
<polygon fill="#e0e0e0" stroke="#999999" points="250,-74 178,-74 178,-55 250,-55 250,-74"/>
<text text-anchor="middle" x="214" y="-62" font-family="Helvetica,sans-Serif" font-size="10.00">netinet/in.h</text>
</a>
</g>
</g>
<!-- Node6&#45;&gt;Node8 -->
<g id="edge8_Node000006_Node000008" class="edge">
<title>Node6&#45;&gt;Node8</title>
<g id="a_edge8_Node000006_Node000008"><a xlink:title=" ">
<path fill="none" stroke="#63b8ff" d="M222.35,-109.75C221.04,-102.8 219.16,-92.85 217.52,-84.13"/>
<polygon fill="#63b8ff" stroke="#63b8ff" points="220.91,-83.27 215.62,-74.09 214.04,-84.56 220.91,-83.27"/>
</a>
</g>
</g>
<!-- Node9 -->
<g id="Node000009" class="node">
<title>Node9</title>
<g id="a_Node000009"><a xlink:title=" ">
<polygon fill="#e0e0e0" stroke="#999999" points="345.5,-74 268.5,-74 268.5,-55 345.5,-55 345.5,-74"/>
<text text-anchor="middle" x="307" y="-62" font-family="Helvetica,sans-Serif" font-size="10.00">sys/socket.h</text>
</a>
</g>
</g>
<!-- Node6&#45;&gt;Node9 -->
<g id="edge10_Node000006_Node000009" class="edge">
<title>Node6&#45;&gt;Node9</title>
<g id="a_edge10_Node000006_Node000009"><a xlink:title=" ">
<path fill="none" stroke="#63b8ff" d="M237.34,-109.98C250.09,-101.84 269.55,-89.41 284.67,-79.76"/>
<polygon fill="#63b8ff" stroke="#63b8ff" points="286.88,-82.5 293.42,-74.17 283.11,-76.6 286.88,-82.5"/>
</a>
</g>
</g>
<!-- Node10 -->
<g id="Node000010" class="node">
<title>Node10</title>
<g id="a_Node000010"><a xlink:title=" ">
<polygon fill="#e0e0e0" stroke="#999999" points="160,-74 104,-74 104,-55 160,-55 160,-74"/>
<text text-anchor="middle" x="132" y="-62" font-family="Helvetica,sans-Serif" font-size="10.00">unistd.h</text>
</a>
</g>
</g>
<!-- Node6&#45;&gt;Node10 -->
<g id="edge11_Node000006_Node000010" class="edge">
<title>Node6&#45;&gt;Node10</title>
<g id="a_edge11_Node000006_Node000010"><a xlink:title=" ">
<path fill="none" stroke="#63b8ff" d="M209.22,-109.98C194.82,-101.69 172.69,-88.94 155.81,-79.22"/>
<polygon fill="#63b8ff" stroke="#63b8ff" points="157.46,-76.13 147.05,-74.17 153.97,-82.19 157.46,-76.13"/>
</a>
</g>
</g>
<!-- Node11 -->
<g id="Node000011" class="node">
<title>Node11</title>
<g id="a_Node000011"><a xlink:title=" ">
<polygon fill="#e0e0e0" stroke="#999999" points="325.5,-19 278.5,-19 278.5,0 325.5,0 325.5,-19"/>
<text text-anchor="middle" x="302" y="-7" font-family="Helvetica,sans-Serif" font-size="10.00">vector</text>
</a>
</g>
</g>
<!-- Node6&#45;&gt;Node11 -->
<g id="edge12_Node000006_Node000011" class="edge">
<title>Node6&#45;&gt;Node11</title>
<g id="a_edge12_Node000006_Node000011"><a xlink:title=" ">
<path fill="none" stroke="#63b8ff" d="M153.45,-113.36C97.13,-106.53 32.21,-90.83 62,-55 87.82,-23.96 208.18,-14.47 268.03,-11.65"/>
<polygon fill="#63b8ff" stroke="#63b8ff" points="268.28,-15.14 278.12,-11.21 267.98,-8.15 268.28,-15.14"/>
</a>
</g>
</g>
<!-- Node12&#45;&gt;Node2 -->
<g id="edge17_Node000012_Node000002" class="edge">
<title>Node12&#45;&gt;Node2</title>
<g id="a_edge17_Node000012_Node000002"><a xlink:title=" ">
<path fill="none" stroke="#63b8ff" d="M574.24,-219.93C521.34,-202.67 414.43,-158.03 393,-74 378.7,-17.92 474.48,-9.93 526.7,-9.66"/>
<polygon fill="#63b8ff" stroke="#63b8ff" points="526.81,-13.16 536.82,-9.71 526.84,-6.16 526.81,-13.16"/>
</a>
</g>
</g>
<!-- Node12&#45;&gt;Node3 -->
<g id="edge19_Node000012_Node000003" class="edge">
<title>Node12&#45;&gt;Node3</title>
<g id="a_edge19_Node000012_Node000003"><a xlink:title=" ">
<path fill="none" stroke="#63b8ff" d="M668.37,-225.35C769.21,-219.76 955.03,-206.5 975,-184 1004.37,-150.89 954.42,-104.22 923.93,-80.54"/>
<polygon fill="#63b8ff" stroke="#63b8ff" points="925.66,-77.46 915.57,-74.24 921.45,-83.05 925.66,-77.46"/>
</a>
</g>
</g>
<!-- Node12&#45;&gt;Node6 -->
<g id="edge32_Node000012_Node000006" class="edge">
<title>Node12&#45;&gt;Node6</title>
<g id="a_edge32_Node000012_Node000006"><a xlink:title=" ">
<path fill="none" stroke="#63b8ff" d="M539.97,-221.39C490.11,-214.76 419.59,-203 360,-184 319.09,-170.96 274.51,-148.4 247.92,-133.98"/>
<polygon fill="#63b8ff" stroke="#63b8ff" points="249.43,-130.81 238.98,-129.07 246.06,-136.95 249.43,-130.81"/>
</a>
</g>
</g>
<!-- Node13 -->
<g id="Node000013" class="node">
<title>Node13</title>
<g id="a_Node000013"><a xlink:title=" ">
<polygon fill="#e0e0e0" stroke="#999999" points="596,-184 546,-184 546,-165 596,-165 596,-184"/>
<text text-anchor="middle" x="571" y="-172" font-family="Helvetica,sans-Serif" font-size="10.00">atomic</text>
</a>
</g>
</g>
<!-- Node12&#45;&gt;Node13 -->
<g id="edge14_Node000012_Node000013" class="edge">
<title>Node12&#45;&gt;Node13</title>
<g id="a_edge14_Node000012_Node000013"><a xlink:title=" ">
<path fill="none" stroke="#63b8ff" d="M598.55,-219.75C593.99,-212.42 587.33,-201.73 581.71,-192.7"/>
<polygon fill="#63b8ff" stroke="#63b8ff" points="584.6,-190.73 576.35,-184.09 578.66,-194.43 584.6,-190.73"/>
</a>
</g>
</g>
<!-- Node14 -->
<g id="Node000014" class="node">
<title>Node14</title>
<g id="a_Node000014"><a xlink:title=" ">
<polygon fill="#e0e0e0" stroke="#999999" points="661.5,-184 614.5,-184 614.5,-165 661.5,-165 661.5,-184"/>
<text text-anchor="middle" x="638" y="-172" font-family="Helvetica,sans-Serif" font-size="10.00">deque</text>
</a>
</g>
</g>
<!-- Node12&#45;&gt;Node14 -->
<g id="edge15_Node000012_Node000014" class="edge">
<title>Node12&#45;&gt;Node14</title>
<g id="a_edge15_Node000012_Node000014"><a xlink:title=" ">
<path fill="none" stroke="#63b8ff" d="M609.61,-219.75C614.32,-212.42 621.17,-201.73 626.97,-192.7"/>
<polygon fill="#63b8ff" stroke="#63b8ff" points="630.04,-194.4 632.49,-184.09 624.14,-190.62 630.04,-194.4"/>
</a>
</g>
</g>
<!-- Node15 -->
<g id="Node000015" class="node">
<title>Node15</title>
<g id="a_Node000015"><a xlink:title=" ">
<polygon fill="#e0e0e0" stroke="#999999" points="744.5,-184 679.5,-184 679.5,-165 744.5,-165 744.5,-184"/>
<text text-anchor="middle" x="712" y="-172" font-family="Helvetica,sans-Serif" font-size="10.00">functional</text>
</a>
</g>
</g>
<!-- Node12&#45;&gt;Node15 -->
<g id="edge16_Node000012_Node000015" class="edge">
<title>Node12&#45;&gt;Node15</title>
<g id="a_edge16_Node000012_Node000015"><a xlink:title=" ">
<path fill="none" stroke="#63b8ff" d="M621.35,-219.98C638.57,-211.54 665.2,-198.47 685.15,-188.68"/>
<polygon fill="#63b8ff" stroke="#63b8ff" points="686.9,-191.72 694.33,-184.17 683.81,-185.43 686.9,-191.72"/>
</a>
</g>
</g>
<!-- Node16 -->
<g id="Node000016" class="node">
<title>Node16</title>
<g id="a_Node000016"><a xlink:title=" ">
<polygon fill="#e0e0e0" stroke="#999999" points="966,-184 918,-184 918,-165 966,-165 966,-184"/>
<text text-anchor="middle" x="942" y="-172" font-family="Helvetica,sans-Serif" font-size="10.00">thread</text>
</a>
</g>
</g>
<!-- Node12&#45;&gt;Node16 -->
<g id="edge18_Node000012_Node000016" class="edge">
<title>Node12&#45;&gt;Node16</title>
<g id="a_edge18_Node000012_Node000016"><a xlink:title=" ">
<path fill="none" stroke="#63b8ff" d="M668.01,-220.38C728.91,-212.33 822.98,-199.05 904,-184 905.27,-183.76 906.56,-183.52 907.87,-183.26"/>
<polygon fill="#63b8ff" stroke="#63b8ff" points="908.86,-186.63 917.93,-181.16 907.43,-179.78 908.86,-186.63"/>
</a>
</g>
</g>
<!-- Node17 -->
<g id="Node000017" class="node">
<title>Node17</title>
<g id="a_Node000017"><a xlink:href="file_8hpp.html" target="_top" xlink:title=" ">
<polygon fill="white" stroke="#666666" points="635.5,-129 534.5,-129 534.5,-110 635.5,-110 635.5,-129"/>
<text text-anchor="middle" x="585" y="-117" font-family="Helvetica,sans-Serif" font-size="10.00">../models/file.hpp</text>
</a>
</g>
</g>
<!-- Node12&#45;&gt;Node17 -->
<g id="edge20_Node000012_Node000017" class="edge">
<title>Node12&#45;&gt;Node17</title>
<g id="a_edge20_Node000012_Node000017"><a xlink:title=" ">
<path fill="none" stroke="#63b8ff" d="M580.89,-219.98C565.41,-212.92 546.24,-201.23 537,-184 527.27,-165.85 545.13,-147.31 561.76,-134.99"/>
<polygon fill="#63b8ff" stroke="#63b8ff" points="563.97,-137.72 570.19,-129.15 559.98,-131.97 563.97,-137.72"/>
</a>
</g>
</g>
<!-- Node20 -->
<g id="Node000020" class="node">
<title>Node20</title>
<g id="a_Node000020"><a xlink:href="fileinfo_8hpp.html" target="_top" xlink:title=" ">
<polygon fill="white" stroke="#666666" points="767.5,-74 696.5,-74 696.5,-55 767.5,-55 767.5,-74"/>
<text text-anchor="middle" x="732" y="-62" font-family="Helvetica,sans-Serif" font-size="10.00">fileinfo.hpp</text>
</a>
</g>
</g>
<!-- Node12&#45;&gt;Node20 -->
<g id="edge31_Node000012_Node000020" class="edge">
<title>Node12&#45;&gt;Node20</title>
<g id="a_edge31_Node000012_Node000020"><a xlink:title=" ">
<path fill="none" stroke="#63b8ff" d="M668.12,-222.3C728.67,-215.43 814.23,-202.77 842,-184 866,-167.77 868.9,-156.82 877,-129 889.78,-85.12 824.77,-71.45 777.64,-67.26"/>
<polygon fill="#63b8ff" stroke="#63b8ff" points="777.83,-63.77 767.59,-66.49 777.29,-70.75 777.83,-63.77"/>
</a>
</g>
</g>
<!-- Node21 -->
<g id="Node000021" class="node">
<title>Node21</title>
<g id="a_Node000021"><a xlink:href="partfile_8hpp.html" target="_top" xlink:title=" ">
<polygon fill="white" stroke="#666666" points="516,-129 444,-129 444,-110 516,-110 516,-129"/>
<text text-anchor="middle" x="480" y="-117" font-family="Helvetica,sans-Serif" font-size="10.00">partfile.hpp</text>
</a>
</g>
</g>
<!-- Node12&#45;&gt;Node21 -->
<g id="edge33_Node000012_Node000021" class="edge">
<title>Node12&#45;&gt;Node21</title>
<g id="a_edge33_Node000012_Node000021"><a xlink:title=" ">
<path fill="none" stroke="#63b8ff" d="M586.34,-219.96C570.8,-211.96 548.06,-198.99 531,-184 515.29,-170.2 500.71,-151.16 491.2,-137.53"/>
<polygon fill="#63b8ff" stroke="#63b8ff" points="493.99,-135.4 485.47,-129.09 488.2,-139.33 493.99,-135.4"/>
</a>
</g>
</g>
<!-- Node22 -->
<g id="Node000022" class="node">
<title>Node22</title>
<g id="a_Node000022"><a xlink:href="peerdb_8hpp.html" target="_top" xlink:title=" ">
<polygon fill="white" stroke="#666666" points="833.5,-184 762.5,-184 762.5,-165 833.5,-165 833.5,-184"/>
<text text-anchor="middle" x="798" y="-172" font-family="Helvetica,sans-Serif" font-size="10.00">peerdb.hpp</text>
</a>
</g>
</g>
<!-- Node12&#45;&gt;Node22 -->
<g id="edge38_Node000012_Node000022" class="edge">
<title>Node12&#45;&gt;Node22</title>
<g id="a_edge38_Node000012_Node000022"><a xlink:title=" ">
<path fill="none" stroke="#63b8ff" d="M635.17,-219.98C668.16,-210.97 720.4,-196.7 756.77,-186.76"/>
<polygon fill="#63b8ff" stroke="#63b8ff" points="757.86,-190.09 766.59,-184.08 756.02,-183.34 757.86,-190.09"/>
</a>
</g>
</g>
<!-- Node17&#45;&gt;Node2 -->
<g id="edge22_Node000017_Node000002" class="edge">
<title>Node17&#45;&gt;Node2</title>
<g id="a_edge22_Node000017_Node000002"><a xlink:title=" ">
<path fill="none" stroke="#63b8ff" d="M593.24,-109.77C603.83,-97.44 619.87,-74.26 611,-55 605.25,-42.52 594.09,-32.24 583.58,-24.71"/>
<polygon fill="#63b8ff" stroke="#63b8ff" points="585.3,-21.65 575.03,-19.05 581.43,-27.49 585.3,-21.65"/>
</a>
</g>
</g>
<!-- Node17&#45;&gt;Node3 -->
<g id="edge25_Node000017_Node000003" class="edge">
<title>Node17&#45;&gt;Node3</title>
<g id="a_edge25_Node000017_Node000003"><a xlink:title=" ">
<path fill="none" stroke="#63b8ff" d="M635.74,-110.04C691.77,-100.71 781.95,-85.68 841.84,-75.69"/>
<polygon fill="#63b8ff" stroke="#63b8ff" points="842.63,-79.11 851.91,-74.01 841.48,-72.21 842.63,-79.11"/>
</a>
</g>
</g>
<!-- Node17&#45;&gt;Node7 -->
<g id="edge21_Node000017_Node000007" class="edge">
<title>Node17&#45;&gt;Node7</title>
<g id="a_edge21_Node000017_Node000007"><a xlink:title=" ">
<path fill="none" stroke="#63b8ff" d="M560.26,-109.98C534.63,-101.16 494.37,-87.31 465.59,-77.41"/>
<polygon fill="#63b8ff" stroke="#63b8ff" points="466.53,-74.03 455.94,-74.08 464.25,-80.65 466.53,-74.03"/>
</a>
</g>
</g>
<!-- Node18 -->
<g id="Node000018" class="node">
<title>Node18</title>
<g id="a_Node000018"><a xlink:title=" ">
<polygon fill="#e0e0e0" stroke="#999999" points="768,-19 712,-19 712,0 768,0 768,-19"/>
<text text-anchor="middle" x="740" y="-7" font-family="Helvetica,sans-Serif" font-size="10.00">sstream</text>
</a>
</g>
</g>
<!-- Node17&#45;&gt;Node18 -->
<g id="edge23_Node000017_Node000018" class="edge">
<title>Node17&#45;&gt;Node18</title>
<g id="a_edge23_Node000017_Node000018"><a xlink:title=" ">
<path fill="none" stroke="#63b8ff" d="M635.94,-113.7C686.48,-107.76 758.8,-95.67 776,-74 788.03,-58.84 772.9,-39.17 758.73,-25.77"/>
<polygon fill="#63b8ff" stroke="#63b8ff" points="760.94,-23.05 751.13,-19.03 756.29,-28.28 760.94,-23.05"/>
</a>
</g>
</g>
<!-- Node19 -->
<g id="Node000019" class="node">
<title>Node19</title>
<g id="a_Node000019"><a xlink:title=" ">
<polygon fill="#e0e0e0" stroke="#999999" points="602,-74 516,-74 516,-55 602,-55 602,-74"/>
<text text-anchor="middle" x="559" y="-62" font-family="Helvetica,sans-Serif" font-size="10.00">unordered_set</text>
</a>
</g>
</g>
<!-- Node17&#45;&gt;Node19 -->
<g id="edge24_Node000017_Node000019" class="edge">
<title>Node17&#45;&gt;Node19</title>
<g id="a_edge24_Node000017_Node000019"><a xlink:title=" ">
<path fill="none" stroke="#63b8ff" d="M580.71,-109.75C577.19,-102.57 572.09,-92.18 567.72,-83.27"/>
<polygon fill="#63b8ff" stroke="#63b8ff" points="570.76,-81.53 563.21,-74.09 564.48,-84.61 570.76,-81.53"/>
</a>
</g>
</g>
<!-- Node17&#45;&gt;Node20 -->
<g id="edge26_Node000017_Node000020" class="edge">
<title>Node17&#45;&gt;Node20</title>
<g id="a_edge26_Node000017_Node000020"><a xlink:title=" ">
<path fill="none" stroke="#63b8ff" d="M608.62,-109.98C632.9,-101.23 670.95,-87.51 698.37,-77.62"/>
<polygon fill="#63b8ff" stroke="#63b8ff" points="699.73,-80.85 707.95,-74.17 697.36,-74.27 699.73,-80.85"/>
</a>
</g>
</g>
<!-- Node20&#45;&gt;Node2 -->
<g id="edge29_Node000020_Node000002" class="edge">
<title>Node20&#45;&gt;Node2</title>
<g id="a_edge29_Node000020_Node000002"><a xlink:title=" ">
<path fill="none" stroke="#63b8ff" d="M704.2,-54.98C673.35,-45.53 623.63,-30.3 591.13,-20.34"/>
<polygon fill="#63b8ff" stroke="#63b8ff" points="591.81,-16.89 581.23,-17.31 589.76,-23.59 591.81,-16.89"/>
</a>
</g>
</g>
<!-- Node20&#45;&gt;Node5 -->
<g id="edge28_Node000020_Node000005" class="edge">
<title>Node20&#45;&gt;Node5</title>
<g id="a_edge28_Node000020_Node000005"><a xlink:title=" ">
<path fill="none" stroke="#63b8ff" d="M747.26,-54.98C762.13,-46.69 784.98,-33.94 802.42,-24.22"/>
<polygon fill="#63b8ff" stroke="#63b8ff" points="804.43,-27.1 811.46,-19.17 801.02,-20.99 804.43,-27.1"/>
</a>
</g>
</g>
<!-- Node20&#45;&gt;Node11 -->
<g id="edge30_Node000020_Node000011" class="edge">
<title>Node20&#45;&gt;Node11</title>
<g id="a_edge30_Node000020_Node000011"><a xlink:title=" ">
<path fill="none" stroke="#63b8ff" d="M696.45,-59.12C614.89,-49.07 415.28,-24.46 335.63,-14.64"/>
<polygon fill="#63b8ff" stroke="#63b8ff" points="336,-11.16 325.64,-13.41 335.14,-18.11 336,-11.16"/>
</a>
</g>
</g>
<!-- Node20&#45;&gt;Node18 -->
<g id="edge27_Node000020_Node000018" class="edge">
<title>Node20&#45;&gt;Node18</title>
<g id="a_edge27_Node000020_Node000018"><a xlink:title=" ">
<path fill="none" stroke="#63b8ff" d="M733.32,-54.75C734.37,-47.8 735.87,-37.85 737.19,-29.13"/>
<polygon fill="#63b8ff" stroke="#63b8ff" points="740.67,-29.5 738.7,-19.09 733.75,-28.45 740.67,-29.5"/>
</a>
</g>
</g>
<!-- Node21&#45;&gt;Node2 -->
<g id="edge35_Node000021_Node000002" class="edge">
<title>Node21&#45;&gt;Node2</title>
<g id="a_edge35_Node000021_Node000002"><a xlink:title=" ">
<path fill="none" stroke="#63b8ff" d="M482.36,-109.63C486.08,-96.72 494.25,-72.39 507,-55 515.45,-43.47 527.44,-32.95 537.78,-25.03"/>
<polygon fill="#63b8ff" stroke="#63b8ff" points="539.97,-27.77 545.96,-19.03 535.83,-22.13 539.97,-27.77"/>
</a>
</g>
</g>
<!-- Node21&#45;&gt;Node7 -->
<g id="edge34_Node000021_Node000007" class="edge">
<title>Node21&#45;&gt;Node7</title>
<g id="a_edge34_Node000021_Node000007"><a xlink:title=" ">
<path fill="none" stroke="#63b8ff" d="M471.91,-109.75C464.84,-102.11 454.41,-90.82 445.85,-81.56"/>
<polygon fill="#63b8ff" stroke="#63b8ff" points="448.3,-79.06 438.94,-74.09 443.16,-83.81 448.3,-79.06"/>
</a>
</g>
</g>
<!-- Node21&#45;&gt;Node19 -->
<g id="edge36_Node000021_Node000019" class="edge">
<title>Node21&#45;&gt;Node19</title>
<g id="a_edge36_Node000021_Node000019"><a xlink:title=" ">
<path fill="none" stroke="#63b8ff" d="M492.69,-109.98C504.83,-101.84 523.36,-89.41 537.75,-79.76"/>
<polygon fill="#63b8ff" stroke="#63b8ff" points="539.72,-82.65 546.08,-74.17 535.82,-76.84 539.72,-82.65"/>
</a>
</g>
</g>
<!-- Node21&#45;&gt;Node20 -->
<g id="edge37_Node000021_Node000020" class="edge">
<title>Node21&#45;&gt;Node20</title>
<g id="a_edge37_Node000021_Node000020"><a xlink:title=" ">
<path fill="none" stroke="#63b8ff" d="M516.11,-110.91C560.96,-101.47 637.52,-85.37 686.38,-75.09"/>
<polygon fill="#63b8ff" stroke="#63b8ff" points="687.3,-78.48 696.37,-72.99 685.86,-71.63 687.3,-78.48"/>
</a>
</g>
</g>
<!-- Node22&#45;&gt;Node2 -->
<g id="edge41_Node000022_Node000002" class="edge">
<title>Node22&#45;&gt;Node2</title>
<g id="a_edge41_Node000022_Node000002"><a xlink:title=" ">
<path fill="none" stroke="#63b8ff" d="M762.26,-165.19C738.16,-158.33 706.59,-146.79 683,-129 650.07,-104.17 657.14,-83.15 627,-55 614.1,-42.95 597.56,-32.05 584.03,-24.05"/>
<polygon fill="#63b8ff" stroke="#63b8ff" points="585.64,-20.94 575.22,-19 582.15,-27.01 585.64,-20.94"/>
</a>
</g>
</g>
<!-- Node22&#45;&gt;Node3 -->
<g id="edge43_Node000022_Node000003" class="edge">
<title>Node22&#45;&gt;Node3</title>
<g id="a_edge43_Node000022_Node000003"><a xlink:title=" ">
<path fill="none" stroke="#63b8ff" d="M822.24,-164.86C839.52,-157.62 862.21,-145.76 877,-129 888.32,-116.17 895.12,-97.76 898.91,-84.06"/>
<polygon fill="#63b8ff" stroke="#63b8ff" points="902.33,-84.82 901.34,-74.28 895.53,-83.14 902.33,-84.82"/>
</a>
</g>
</g>
<!-- Node22&#45;&gt;Node7 -->
<g id="edge39_Node000022_Node000007" class="edge">
<title>Node22&#45;&gt;Node7</title>
<g id="a_edge39_Node000022_Node000007"><a xlink:title=" ">
<path fill="none" stroke="#63b8ff" d="M762.18,-166.49C759.08,-165.95 755.99,-165.45 753,-165 682.68,-154.39 484.02,-180.52 435,-129 423.95,-117.38 424.14,-98.52 426.39,-84.36"/>
<polygon fill="#63b8ff" stroke="#63b8ff" points="429.88,-84.75 428.45,-74.25 423.02,-83.35 429.88,-84.75"/>
</a>
</g>
</g>
<!-- Node22&#45;&gt;Node17 -->
<g id="edge44_Node000022_Node000017" class="edge">
<title>Node22&#45;&gt;Node17</title>
<g id="a_edge44_Node000022_Node000017"><a xlink:title=" ">
<path fill="none" stroke="#63b8ff" d="M763.78,-164.98C727.24,-155.89 669.22,-141.46 629.24,-131.51"/>
<polygon fill="#63b8ff" stroke="#63b8ff" points="630.04,-128.1 619.49,-129.08 628.35,-134.89 630.04,-128.1"/>
</a>
</g>
</g>
<!-- Node22&#45;&gt;Node20 -->
<g id="edge45_Node000022_Node000020" class="edge">
<title>Node22&#45;&gt;Node20</title>
<g id="a_edge45_Node000022_Node000020"><a xlink:title=" ">
<path fill="none" stroke="#63b8ff" d="M818.08,-164.9C841.94,-153.43 876.69,-132 861,-110 842.18,-83.6 806.61,-72.71 777.58,-68.29"/>
<polygon fill="#63b8ff" stroke="#63b8ff" points="778,-64.81 767.63,-66.98 777.08,-71.75 778,-64.81"/>
</a>
</g>
</g>
<!-- Node23 -->
<g id="Node000023" class="node">
<title>Node23</title>
<g id="a_Node000023"><a xlink:title=" ">
<polygon fill="#e0e0e0" stroke="#999999" points="852,-129 804,-129 804,-110 852,-110 852,-129"/>
<text text-anchor="middle" x="828" y="-117" font-family="Helvetica,sans-Serif" font-size="10.00">mutex</text>
</a>
</g>
</g>
<!-- Node22&#45;&gt;Node23 -->
<g id="edge40_Node000022_Node000023" class="edge">
<title>Node22&#45;&gt;Node23</title>
<g id="a_edge40_Node000022_Node000023"><a xlink:title=" ">
<path fill="none" stroke="#63b8ff" d="M802.95,-164.75C807.06,-157.49 813.03,-146.95 818.1,-137.98"/>
<polygon fill="#63b8ff" stroke="#63b8ff" points="821.26,-139.52 823.14,-129.09 815.17,-136.07 821.26,-139.52"/>
</a>
</g>
</g>
<!-- Node24 -->
<g id="Node000024" class="node">
<title>Node24</title>
<g id="a_Node000024"><a xlink:title=" ">
<polygon fill="#e0e0e0" stroke="#999999" points="785.5,-129 692.5,-129 692.5,-110 785.5,-110 785.5,-129"/>
<text text-anchor="middle" x="739" y="-117" font-family="Helvetica,sans-Serif" font-size="10.00">unordered_map</text>
</a>
</g>
</g>
<!-- Node22&#45;&gt;Node24 -->
<g id="edge42_Node000022_Node000024" class="edge">
<title>Node22&#45;&gt;Node24</title>
<g id="a_edge42_Node000022_Node000024"><a xlink:title=" ">
<path fill="none" stroke="#63b8ff" d="M788.52,-164.98C779.8,-157.15 766.66,-145.34 756.1,-135.86"/>
<polygon fill="#63b8ff" stroke="#63b8ff" points="758.43,-133.25 748.65,-129.17 753.75,-138.46 758.43,-133.25"/>
</a>
</g>
</g>
</g>
</svg>
