<?xml version="1.0" encoding="UTF-8" standalone="no"?>
<!DOCTYPE svg PUBLIC "-//W3C//DTD SVG 1.1//EN"
 "http://www.w3.org/Graphics/SVG/1.1/DTD/svg11.dtd">
<!-- Generated by graphviz version 2.43.0 (0)
 -->
<!-- Title: src/network/tcp_socket.hpp Pages: 1 -->
<svg width="580pt" height="159pt"
 viewBox="0.00 0.00 579.50 159.00" xmlns="http://www.w3.org/2000/svg" xmlns:xlink="http://www.w3.org/1999/xlink">
<g id="graph0" class="graph" transform="scale(1 1) rotate(0) translate(4 155)">
<title>src/network/tcp_socket.hpp</title>
<!-- Node1 -->
<g id="Node000001" class="node">
<title>Node1</title>
<g id="a_Node000001"><a xlink:title=" ">
<polygon fill="#999999" stroke="#666666" points="361,-151 212,-151 212,-132 361,-132 361,-151"/>
<text text-anchor="middle" x="286.5" y="-139" font-family="Helvetica,sans-Serif" font-size="10.00">src/network/tcp_socket.hpp</text>
</a>
</g>
</g>
<!-- Node2 -->
<g id="Node000002" class="node">
<title>Node2</title>
<g id="a_Node000002"><a xlink:href="client_8cpp.html" target="_top" xlink:title="The entrypoint to the client.">
<polygon fill="white" stroke="#666666" points="111,-90.5 0,-90.5 0,-71.5 111,-71.5 111,-90.5"/>
<text text-anchor="middle" x="55.5" y="-78.5" font-family="Helvetica,sans-Serif" font-size="10.00">src/client/client.cpp</text>
</a>
</g>
</g>
<!-- Node1&#45;&gt;Node2 -->
<g id="edge1_Node000001_Node000002" class="edge">
<title>Node1&#45;&gt;Node2</title>
<g id="a_edge1_Node000001_Node000002"><a xlink:title=" ">
<path fill="none" stroke="#63b8ff" d="M243.21,-129.54C198.56,-118.23 129.87,-100.83 89.13,-90.52"/>
<polygon fill="#63b8ff" stroke="#63b8ff" points="242.36,-132.93 252.91,-131.99 244.08,-126.15 242.36,-132.93"/>
</a>
</g>
</g>
<!-- Node3 -->
<g id="Node000003" class="node">
<title>Node3</title>
<g id="a_Node000003"><a xlink:href="tcp__server_8hpp.html" target="_top" xlink:title=" ">
<polygon fill="white" stroke="#666666" points="277.5,-90.5 129.5,-90.5 129.5,-71.5 277.5,-71.5 277.5,-90.5"/>
<text text-anchor="middle" x="203.5" y="-78.5" font-family="Helvetica,sans-Serif" font-size="10.00">src/network/tcp_server.hpp</text>
</a>
</g>
</g>
<!-- Node1&#45;&gt;Node3 -->
<g id="edge2_Node000001_Node000003" class="edge">
<title>Node1&#45;&gt;Node3</title>
<g id="a_edge2_Node000001_Node000003"><a xlink:title=" ">
<path fill="none" stroke="#63b8ff" d="M265.71,-125.85C249.99,-114.77 228.94,-99.93 215.8,-90.67"/>
<polygon fill="#63b8ff" stroke="#63b8ff" points="264.06,-128.97 274.25,-131.87 268.1,-123.25 264.06,-128.97"/>
</a>
</g>
</g>
<!-- Node6 -->
<g id="Node000006" class="node">
<title>Node6</title>
<g id="a_Node000006"><a xlink:href="tcp__socket_8cpp.html" target="_top" xlink:title=" ">
<polygon fill="white" stroke="#666666" points="445,-90.5 296,-90.5 296,-71.5 445,-71.5 445,-90.5"/>
<text text-anchor="middle" x="370.5" y="-78.5" font-family="Helvetica,sans-Serif" font-size="10.00">src/network/tcp_socket.cpp</text>
</a>
</g>
</g>
<!-- Node1&#45;&gt;Node6 -->
<g id="edge5_Node000001_Node000006" class="edge">
<title>Node1&#45;&gt;Node6</title>
<g id="a_edge5_Node000001_Node000006"><a xlink:title=" ">
<path fill="none" stroke="#63b8ff" d="M307.54,-125.85C323.45,-114.77 344.76,-99.93 358.05,-90.67"/>
<polygon fill="#63b8ff" stroke="#63b8ff" points="305.1,-123.28 298.89,-131.87 309.1,-129.03 305.1,-123.28"/>
</a>
</g>
</g>
<!-- Node7 -->
<g id="Node000007" class="node">
<title>Node7</title>
<g id="a_Node000007"><a xlink:href="process__request_8hpp.html" target="_top" xlink:title=" ">
<polygon fill="white" stroke="#666666" points="571.5,-96 463.5,-96 463.5,-66 571.5,-66 571.5,-96"/>
<text text-anchor="start" x="471.5" y="-84" font-family="Helvetica,sans-Serif" font-size="10.00">src/tracker/process</text>
<text text-anchor="middle" x="517.5" y="-73" font-family="Helvetica,sans-Serif" font-size="10.00">_request.hpp</text>
</a>
</g>
</g>
<!-- Node1&#45;&gt;Node7 -->
<g id="edge6_Node000001_Node000007" class="edge">
<title>Node1&#45;&gt;Node7</title>
<g id="a_edge6_Node000001_Node000007"><a xlink:title=" ">
<path fill="none" stroke="#63b8ff" d="M329.79,-129.54C367.58,-119.97 422.59,-106.04 463.3,-95.73"/>
<polygon fill="#63b8ff" stroke="#63b8ff" points="328.92,-126.15 320.09,-131.99 330.64,-132.93 328.92,-126.15"/>
</a>
</g>
</g>
<!-- Node4 -->
<g id="Node000004" class="node">
<title>Node4</title>
<g id="a_Node000004"><a xlink:href="tcp__server_8cpp.html" target="_top" xlink:title=" ">
<polygon fill="white" stroke="#666666" points="277,-24.5 130,-24.5 130,-5.5 277,-5.5 277,-24.5"/>
<text text-anchor="middle" x="203.5" y="-12.5" font-family="Helvetica,sans-Serif" font-size="10.00">src/network/tcp_server.cpp</text>
</a>
</g>
</g>
<!-- Node3&#45;&gt;Node4 -->
<g id="edge3_Node000003_Node000004" class="edge">
<title>Node3&#45;&gt;Node4</title>
<g id="a_edge3_Node000003_Node000004"><a xlink:title=" ">
<path fill="none" stroke="#63b8ff" d="M203.5,-61.08C203.5,-49.13 203.5,-34.22 203.5,-24.91"/>
<polygon fill="#63b8ff" stroke="#63b8ff" points="200,-61.37 203.5,-71.37 207,-61.37 200,-61.37"/>
</a>
</g>
</g>
<!-- Node5 -->
<g id="Node000005" class="node">
<title>Node5</title>
<g id="a_Node000005"><a xlink:href="tracker_8cpp.html" target="_top" xlink:title="The tracker.">
<polygon fill="white" stroke="#666666" points="432.5,-24.5 308.5,-24.5 308.5,-5.5 432.5,-5.5 432.5,-24.5"/>
<text text-anchor="middle" x="370.5" y="-12.5" font-family="Helvetica,sans-Serif" font-size="10.00">src/tracker/tracker.cpp</text>
</a>
</g>
</g>
<!-- Node3&#45;&gt;Node5 -->
<g id="edge4_Node000003_Node000005" class="edge">
<title>Node3&#45;&gt;Node5</title>
<g id="a_edge4_Node000003_Node000005"><a xlink:title=" ">
<path fill="none" stroke="#63b8ff" d="M235.66,-67.68C268.66,-55.03 319.15,-35.68 348.07,-24.6"/>
<polygon fill="#63b8ff" stroke="#63b8ff" points="234.11,-64.52 226.02,-71.37 236.61,-71.06 234.11,-64.52"/>
</a>
</g>
</g>
<!-- Node7&#45;&gt;Node5 -->
<g id="edge8_Node000007_Node000005" class="edge">
<title>Node7&#45;&gt;Node5</title>
<g id="a_edge8_Node000007_Node000005"><a xlink:title=" ">
<path fill="none" stroke="#63b8ff" d="M476.02,-61.94C447.86,-49.68 411.9,-34.02 390.06,-24.52"/>
<polygon fill="#63b8ff" stroke="#63b8ff" points="474.67,-65.17 485.24,-65.95 477.47,-58.75 474.67,-65.17"/>
</a>
</g>
</g>
<!-- Node8 -->
<g id="Node000008" class="node">
<title>Node8</title>
<g id="a_Node000008"><a xlink:href="process__request_8cpp.html" target="_top" xlink:title=" ">
<polygon fill="white" stroke="#666666" points="571.5,-30 463.5,-30 463.5,0 571.5,0 571.5,-30"/>
<text text-anchor="start" x="471.5" y="-18" font-family="Helvetica,sans-Serif" font-size="10.00">src/tracker/process</text>
<text text-anchor="middle" x="517.5" y="-7" font-family="Helvetica,sans-Serif" font-size="10.00">_request.cpp</text>
</a>
</g>
</g>
<!-- Node7&#45;&gt;Node8 -->
<g id="edge7_Node000007_Node000008" class="edge">
<title>Node7&#45;&gt;Node8</title>
<g id="a_edge7_Node000007_Node000008"><a xlink:title=" ">
<path fill="none" stroke="#63b8ff" d="M517.5,-55.54C517.5,-46.96 517.5,-37.61 517.5,-30.16"/>
<polygon fill="#63b8ff" stroke="#63b8ff" points="514,-55.8 517.5,-65.8 521,-55.8 514,-55.8"/>
</a>
</g>
</g>
</g>
</svg>
