<?xml version="1.0" encoding="UTF-8" standalone="no"?>
<!DOCTYPE svg PUBLIC "-//W3C//DTD SVG 1.1//EN"
 "http://www.w3.org/Graphics/SVG/1.1/DTD/svg11.dtd">
<!-- Generated by graphviz version 2.43.0 (0)
 -->
<!-- Title: src/network/tcp_socket.hpp Pages: 1 -->
<svg width="948pt" height="225pt"
 viewBox="0.00 0.00 947.50 225.00" xmlns="http://www.w3.org/2000/svg" xmlns:xlink="http://www.w3.org/1999/xlink">
<g id="graph0" class="graph" transform="scale(1 1) rotate(0) translate(4 221)">
<title>src/network/tcp_socket.hpp</title>
<!-- Node1 -->
<g id="Node000001" class="node">
<title>Node1</title>
<g id="a_Node000001"><a xlink:title=" ">
<polygon fill="#999999" stroke="#666666" points="571,-217 422,-217 422,-198 571,-198 571,-217"/>
<text text-anchor="middle" x="496.5" y="-205" font-family="Helvetica,sans-Serif" font-size="10.00">src/network/tcp_socket.hpp</text>
</a>
</g>
</g>
<!-- Node2 -->
<g id="Node000002" class="node">
<title>Node2</title>
<g id="a_Node000002"><a xlink:href="client_8cpp.html" target="_top" xlink:title="The entrypoint to the client.">
<polygon fill="white" stroke="#666666" points="230,-90.5 119,-90.5 119,-71.5 230,-71.5 230,-90.5"/>
<text text-anchor="middle" x="174.5" y="-78.5" font-family="Helvetica,sans-Serif" font-size="10.00">src/client/client.cpp</text>
</a>
</g>
</g>
<!-- Node1&#45;&gt;Node2 -->
<g id="edge1_Node000001_Node000002" class="edge">
<title>Node1&#45;&gt;Node2</title>
<g id="a_edge1_Node000001_Node000002"><a xlink:title=" ">
<path fill="none" stroke="#63b8ff" d="M411.85,-198.92C369.43,-192.8 318.15,-181.78 275.5,-162 265.25,-157.25 208.29,-110.19 184.72,-90.54"/>
<polygon fill="#63b8ff" stroke="#63b8ff" points="411.49,-202.4 421.88,-200.3 412.45,-195.47 411.49,-202.4"/>
</a>
</g>
</g>
<!-- Node3 -->
<g id="Node000003" class="node">
<title>Node3</title>
<g id="a_Node000003"><a xlink:href="process__input_8hpp.html" target="_top" xlink:title=" ">
<polygon fill="white" stroke="#666666" points="225,-162 124,-162 124,-132 225,-132 225,-162"/>
<text text-anchor="start" x="132" y="-150" font-family="Helvetica,sans-Serif" font-size="10.00">src/client/process</text>
<text text-anchor="middle" x="174.5" y="-139" font-family="Helvetica,sans-Serif" font-size="10.00">_input.hpp</text>
</a>
</g>
</g>
<!-- Node1&#45;&gt;Node3 -->
<g id="edge2_Node000001_Node000003" class="edge">
<title>Node1&#45;&gt;Node3</title>
<g id="a_edge2_Node000001_Node000003"><a xlink:title=" ">
<path fill="none" stroke="#63b8ff" d="M434.63,-196.29C382.92,-187.62 307.29,-174.61 241.5,-162 236.25,-160.99 230.77,-159.91 225.31,-158.8"/>
<polygon fill="#63b8ff" stroke="#63b8ff" points="434.2,-199.77 444.64,-197.97 435.35,-192.87 434.2,-199.77"/>
</a>
</g>
</g>
<!-- Node5 -->
<g id="Node000005" class="node">
<title>Node5</title>
<g id="a_Node000005"><a xlink:href="transaction_8hpp.html" target="_top" xlink:title=" ">
<polygon fill="white" stroke="#666666" points="673,-156.5 524,-156.5 524,-137.5 673,-137.5 673,-156.5"/>
<text text-anchor="middle" x="598.5" y="-144.5" font-family="Helvetica,sans-Serif" font-size="10.00">src/models/transaction.hpp</text>
</a>
</g>
</g>
<!-- Node1&#45;&gt;Node5 -->
<g id="edge5_Node000001_Node000005" class="edge">
<title>Node1&#45;&gt;Node5</title>
<g id="a_edge5_Node000001_Node000005"><a xlink:title=" ">
<path fill="none" stroke="#63b8ff" d="M520.44,-192.77C539.91,-181.6 566.79,-166.19 583.39,-156.67"/>
<polygon fill="#63b8ff" stroke="#63b8ff" points="518.48,-189.86 511.55,-197.87 521.97,-195.93 518.48,-189.86"/>
</a>
</g>
</g>
<!-- Node6 -->
<g id="Node000006" class="node">
<title>Node6</title>
<g id="a_Node000006"><a xlink:href="parse__request_8hpp.html" target="_top" xlink:title=" ">
<polygon fill="white" stroke="#666666" points="613,-90.5 452,-90.5 452,-71.5 613,-71.5 613,-90.5"/>
<text text-anchor="middle" x="532.5" y="-78.5" font-family="Helvetica,sans-Serif" font-size="10.00">src/tracker/parse_request.hpp</text>
</a>
</g>
</g>
<!-- Node1&#45;&gt;Node6 -->
<g id="edge21_Node000001_Node000006" class="edge">
<title>Node1&#45;&gt;Node6</title>
<g id="a_edge21_Node000001_Node000006"><a xlink:title=" ">
<path fill="none" stroke="#63b8ff" d="M500.89,-187.6C504.51,-172.47 509.93,-150.76 515.5,-132 519.83,-117.41 525.7,-100.72 529.28,-90.78"/>
<polygon fill="#63b8ff" stroke="#63b8ff" points="497.39,-187.19 498.5,-197.72 504.2,-188.79 497.39,-187.19"/>
</a>
</g>
</g>
<!-- Node9 -->
<g id="Node000009" class="node">
<title>Node9</title>
<g id="a_Node000009"><a xlink:href="process__request_8hpp.html" target="_top" xlink:title=" ">
<polygon fill="white" stroke="#666666" points="939.5,-96 831.5,-96 831.5,-66 939.5,-66 939.5,-96"/>
<text text-anchor="start" x="839.5" y="-84" font-family="Helvetica,sans-Serif" font-size="10.00">src/tracker/process</text>
<text text-anchor="middle" x="885.5" y="-73" font-family="Helvetica,sans-Serif" font-size="10.00">_request.hpp</text>
</a>
</g>
</g>
<!-- Node1&#45;&gt;Node9 -->
<g id="edge22_Node000001_Node000009" class="edge">
<title>Node1&#45;&gt;Node9</title>
<g id="a_edge22_Node000001_Node000009"><a xlink:title=" ">
<path fill="none" stroke="#63b8ff" d="M571.41,-196.08C606.11,-189.37 647.15,-178.68 681.5,-162 700.86,-152.6 700.42,-141.94 719.5,-132 739.05,-121.81 790.59,-106.91 831.1,-96.03"/>
<polygon fill="#63b8ff" stroke="#63b8ff" points="570.53,-192.68 561.34,-197.95 571.81,-199.57 570.53,-192.68"/>
</a>
</g>
</g>
<!-- Node13 -->
<g id="Node000013" class="node">
<title>Node13</title>
<g id="a_Node000013"><a xlink:href="tcp__server_8hpp.html" target="_top" xlink:title=" ">
<polygon fill="white" stroke="#666666" points="432.5,-156.5 284.5,-156.5 284.5,-137.5 432.5,-137.5 432.5,-156.5"/>
<text text-anchor="middle" x="358.5" y="-144.5" font-family="Helvetica,sans-Serif" font-size="10.00">src/network/tcp_server.hpp</text>
</a>
</g>
</g>
<!-- Node1&#45;&gt;Node13 -->
<g id="edge16_Node000001_Node000013" class="edge">
<title>Node1&#45;&gt;Node13</title>
<g id="a_edge16_Node000001_Node000013"><a xlink:title=" ">
<path fill="none" stroke="#63b8ff" d="M467.21,-194.08C440.55,-182.78 401.9,-166.4 378.59,-156.52"/>
<polygon fill="#63b8ff" stroke="#63b8ff" points="465.86,-197.31 476.43,-197.99 468.59,-190.87 465.86,-197.31"/>
</a>
</g>
</g>
<!-- Node15 -->
<g id="Node000015" class="node">
<title>Node15</title>
<g id="a_Node000015"><a xlink:href="tcp__socket_8cpp.html" target="_top" xlink:title=" ">
<polygon fill="white" stroke="#666666" points="877,-156.5 728,-156.5 728,-137.5 877,-137.5 877,-156.5"/>
<text text-anchor="middle" x="802.5" y="-144.5" font-family="Helvetica,sans-Serif" font-size="10.00">src/network/tcp_socket.cpp</text>
</a>
</g>
</g>
<!-- Node1&#45;&gt;Node15 -->
<g id="edge20_Node000001_Node000015" class="edge">
<title>Node1&#45;&gt;Node15</title>
<g id="a_edge20_Node000001_Node000015"><a xlink:title=" ">
<path fill="none" stroke="#63b8ff" d="M550.88,-196.1C609.92,-184.82 703.08,-167.01 757.95,-156.52"/>
<polygon fill="#63b8ff" stroke="#63b8ff" points="550.16,-192.68 541,-197.99 551.47,-199.55 550.16,-192.68"/>
</a>
</g>
</g>
<!-- Node3&#45;&gt;Node2 -->
<g id="edge3_Node000003_Node000002" class="edge">
<title>Node3&#45;&gt;Node2</title>
<g id="a_edge3_Node000003_Node000002"><a xlink:title=" ">
<path fill="none" stroke="#63b8ff" d="M174.5,-121.6C174.5,-110.8 174.5,-98.78 174.5,-90.84"/>
<polygon fill="#63b8ff" stroke="#63b8ff" points="171,-121.8 174.5,-131.8 178,-121.8 171,-121.8"/>
</a>
</g>
</g>
<!-- Node4 -->
<g id="Node000004" class="node">
<title>Node4</title>
<g id="a_Node000004"><a xlink:href="process__input_8cpp.html" target="_top" xlink:title=" ">
<polygon fill="white" stroke="#666666" points="101,-96 0,-96 0,-66 101,-66 101,-96"/>
<text text-anchor="start" x="8" y="-84" font-family="Helvetica,sans-Serif" font-size="10.00">src/client/process</text>
<text text-anchor="middle" x="50.5" y="-73" font-family="Helvetica,sans-Serif" font-size="10.00">_input.cpp</text>
</a>
</g>
</g>
<!-- Node3&#45;&gt;Node4 -->
<g id="edge4_Node000003_Node000004" class="edge">
<title>Node3&#45;&gt;Node4</title>
<g id="a_edge4_Node000003_Node000004"><a xlink:title=" ">
<path fill="none" stroke="#63b8ff" d="M138.16,-127.24C118.8,-117.25 95.4,-105.18 77.65,-96.01"/>
<polygon fill="#63b8ff" stroke="#63b8ff" points="136.8,-130.48 147.29,-131.95 140.01,-124.26 136.8,-130.48"/>
</a>
</g>
</g>
<!-- Node5&#45;&gt;Node6 -->
<g id="edge6_Node000005_Node000006" class="edge">
<title>Node5&#45;&gt;Node6</title>
<g id="a_edge6_Node000005_Node000006"><a xlink:title=" ">
<path fill="none" stroke="#63b8ff" d="M582.34,-130.33C569.56,-117.94 552.18,-101.09 541.68,-90.91"/>
<polygon fill="#63b8ff" stroke="#63b8ff" points="579.98,-132.92 589.6,-137.37 584.86,-127.89 579.98,-132.92"/>
</a>
</g>
</g>
<!-- Node5&#45;&gt;Node9 -->
<g id="edge9_Node000005_Node000009" class="edge">
<title>Node5&#45;&gt;Node9</title>
<g id="a_edge9_Node000005_Node000009"><a xlink:title=" ">
<path fill="none" stroke="#63b8ff" d="M646.71,-135.25C697.78,-123.86 778.22,-105.92 831.41,-94.06"/>
<polygon fill="#63b8ff" stroke="#63b8ff" points="645.91,-131.84 636.91,-137.44 647.43,-138.67 645.91,-131.84"/>
</a>
</g>
</g>
<!-- Node11 -->
<g id="Node000011" class="node">
<title>Node11</title>
<g id="a_Node000011"><a xlink:href="transactionsrecord_8hpp.html" target="_top" xlink:title=" ">
<polygon fill="white" stroke="#666666" points="813.5,-90.5 631.5,-90.5 631.5,-71.5 813.5,-71.5 813.5,-90.5"/>
<text text-anchor="middle" x="722.5" y="-78.5" font-family="Helvetica,sans-Serif" font-size="10.00">src/tracker/transactionsrecord.hpp</text>
</a>
</g>
</g>
<!-- Node5&#45;&gt;Node11 -->
<g id="edge12_Node000005_Node000011" class="edge">
<title>Node5&#45;&gt;Node11</title>
<g id="a_edge12_Node000005_Node000011"><a xlink:title=" ">
<path fill="none" stroke="#63b8ff" d="M624.28,-132.69C648.71,-120.09 684.69,-101.51 705.65,-90.7"/>
<polygon fill="#63b8ff" stroke="#63b8ff" points="622.5,-129.67 615.22,-137.37 625.71,-135.89 622.5,-129.67"/>
</a>
</g>
</g>
<!-- Node7 -->
<g id="Node000007" class="node">
<title>Node7</title>
<g id="a_Node000007"><a xlink:href="parse__request_8cpp.html" target="_top" xlink:title=" ">
<polygon fill="white" stroke="#666666" points="471.5,-24.5 311.5,-24.5 311.5,-5.5 471.5,-5.5 471.5,-24.5"/>
<text text-anchor="middle" x="391.5" y="-12.5" font-family="Helvetica,sans-Serif" font-size="10.00">src/tracker/parse_request.cpp</text>
</a>
</g>
</g>
<!-- Node6&#45;&gt;Node7 -->
<g id="edge7_Node000006_Node000007" class="edge">
<title>Node6&#45;&gt;Node7</title>
<g id="a_edge7_Node000006_Node000007"><a xlink:title=" ">
<path fill="none" stroke="#63b8ff" d="M504.29,-67.19C476.5,-54.58 434.81,-35.66 410.66,-24.7"/>
<polygon fill="#63b8ff" stroke="#63b8ff" points="502.93,-70.42 513.48,-71.37 505.82,-64.05 502.93,-70.42"/>
</a>
</g>
</g>
<!-- Node8 -->
<g id="Node000008" class="node">
<title>Node8</title>
<g id="a_Node000008"><a xlink:href="tracker_8cpp.html" target="_top" xlink:title="The tracker.">
<polygon fill="white" stroke="#666666" points="613.5,-24.5 489.5,-24.5 489.5,-5.5 613.5,-5.5 613.5,-24.5"/>
<text text-anchor="middle" x="551.5" y="-12.5" font-family="Helvetica,sans-Serif" font-size="10.00">src/tracker/tracker.cpp</text>
</a>
</g>
</g>
<!-- Node6&#45;&gt;Node8 -->
<g id="edge8_Node000006_Node000008" class="edge">
<title>Node6&#45;&gt;Node8</title>
<g id="a_edge8_Node000006_Node000008"><a xlink:title=" ">
<path fill="none" stroke="#63b8ff" d="M538.01,-61.45C541.57,-49.43 546.06,-34.32 548.86,-24.91"/>
<polygon fill="#63b8ff" stroke="#63b8ff" points="534.55,-60.79 535.06,-71.37 541.26,-62.78 534.55,-60.79"/>
</a>
</g>
</g>
<!-- Node9&#45;&gt;Node8 -->
<g id="edge11_Node000009_Node000008" class="edge">
<title>Node9&#45;&gt;Node8</title>
<g id="a_edge11_Node000009_Node000008"><a xlink:title=" ">
<path fill="none" stroke="#63b8ff" d="M821.24,-65.79C732.28,-48.08 708.13,-46.15 622.5,-30 613.36,-28.28 603.58,-26.38 594.28,-24.55"/>
<polygon fill="#63b8ff" stroke="#63b8ff" points="820.74,-69.26 831.23,-67.79 822.12,-62.4 820.74,-69.26"/>
</a>
</g>
</g>
<!-- Node10 -->
<g id="Node000010" class="node">
<title>Node10</title>
<g id="a_Node000010"><a xlink:href="process__request_8cpp.html" target="_top" xlink:title=" ">
<polygon fill="white" stroke="#666666" points="939.5,-30 831.5,-30 831.5,0 939.5,0 939.5,-30"/>
<text text-anchor="start" x="839.5" y="-18" font-family="Helvetica,sans-Serif" font-size="10.00">src/tracker/process</text>
<text text-anchor="middle" x="885.5" y="-7" font-family="Helvetica,sans-Serif" font-size="10.00">_request.cpp</text>
</a>
</g>
</g>
<!-- Node9&#45;&gt;Node10 -->
<g id="edge10_Node000009_Node000010" class="edge">
<title>Node9&#45;&gt;Node10</title>
<g id="a_edge10_Node000009_Node000010"><a xlink:title=" ">
<path fill="none" stroke="#63b8ff" d="M885.5,-55.54C885.5,-46.96 885.5,-37.61 885.5,-30.16"/>
<polygon fill="#63b8ff" stroke="#63b8ff" points="882,-55.8 885.5,-65.8 889,-55.8 882,-55.8"/>
</a>
</g>
</g>
<!-- Node11&#45;&gt;Node8 -->
<g id="edge14_Node000011_Node000008" class="edge">
<title>Node11&#45;&gt;Node8</title>
<g id="a_edge14_Node000011_Node000008"><a xlink:title=" ">
<path fill="none" stroke="#63b8ff" d="M690.01,-67.84C656.22,-55.2 604.21,-35.73 574.47,-24.6"/>
<polygon fill="#63b8ff" stroke="#63b8ff" points="688.85,-71.14 699.44,-71.37 691.3,-64.59 688.85,-71.14"/>
</a>
</g>
</g>
<!-- Node11&#45;&gt;Node10 -->
<g id="edge13_Node000011_Node000010" class="edge">
<title>Node11&#45;&gt;Node10</title>
<g id="a_edge13_Node000011_Node000010"><a xlink:title=" ">
<path fill="none" stroke="#63b8ff" d="M753.96,-67.65C781.32,-56.9 820.95,-41.35 849.55,-30.12"/>
<polygon fill="#63b8ff" stroke="#63b8ff" points="752.51,-64.46 744.48,-71.37 755.07,-70.97 752.51,-64.46"/>
</a>
</g>
</g>
<!-- Node12 -->
<g id="Node000012" class="node">
<title>Node12</title>
<g id="a_Node000012"><a xlink:href="transactionsrecord_8cpp.html" target="_top" xlink:title=" ">
<polygon fill="white" stroke="#666666" points="813.5,-24.5 631.5,-24.5 631.5,-5.5 813.5,-5.5 813.5,-24.5"/>
<text text-anchor="middle" x="722.5" y="-12.5" font-family="Helvetica,sans-Serif" font-size="10.00">src/tracker/transactionsrecord.cpp</text>
</a>
</g>
</g>
<!-- Node11&#45;&gt;Node12 -->
<g id="edge15_Node000011_Node000012" class="edge">
<title>Node11&#45;&gt;Node12</title>
<g id="a_edge15_Node000011_Node000012"><a xlink:title=" ">
<path fill="none" stroke="#63b8ff" d="M722.5,-61.08C722.5,-49.13 722.5,-34.22 722.5,-24.91"/>
<polygon fill="#63b8ff" stroke="#63b8ff" points="719,-61.37 722.5,-71.37 726,-61.37 719,-61.37"/>
</a>
</g>
</g>
<!-- Node13&#45;&gt;Node2 -->
<g id="edge17_Node000013_Node000002" class="edge">
<title>Node13&#45;&gt;Node2</title>
<g id="a_edge17_Node000013_Node000002"><a xlink:title=" ">
<path fill="none" stroke="#63b8ff" d="M324,-134C287.67,-121.36 231.35,-101.78 199.22,-90.6"/>
<polygon fill="#63b8ff" stroke="#63b8ff" points="323.09,-137.39 333.68,-137.37 325.39,-130.78 323.09,-137.39"/>
</a>
</g>
</g>
<!-- Node13&#45;&gt;Node8 -->
<g id="edge19_Node000013_Node000008" class="edge">
<title>Node13&#45;&gt;Node8</title>
<g id="a_edge19_Node000013_Node000008"><a xlink:title=" ">
<path fill="none" stroke="#63b8ff" d="M328.61,-133.07C297.55,-117.84 256.21,-91.4 277.5,-66 306.93,-30.89 435.47,-38.43 480.5,-30 489.64,-28.29 499.43,-26.4 508.72,-24.57"/>
<polygon fill="#63b8ff" stroke="#63b8ff" points="327.31,-136.32 337.84,-137.42 330.29,-129.99 327.31,-136.32"/>
</a>
</g>
</g>
<!-- Node14 -->
<g id="Node000014" class="node">
<title>Node14</title>
<g id="a_Node000014"><a xlink:href="tcp__server_8cpp.html" target="_top" xlink:title=" ">
<polygon fill="white" stroke="#666666" points="434,-90.5 287,-90.5 287,-71.5 434,-71.5 434,-90.5"/>
<text text-anchor="middle" x="360.5" y="-78.5" font-family="Helvetica,sans-Serif" font-size="10.00">src/network/tcp_server.cpp</text>
</a>
</g>
</g>
<!-- Node13&#45;&gt;Node14 -->
<g id="edge18_Node000013_Node000014" class="edge">
<title>Node13&#45;&gt;Node14</title>
<g id="a_edge18_Node000013_Node000014"><a xlink:title=" ">
<path fill="none" stroke="#63b8ff" d="M359.09,-127.08C359.46,-115.13 359.93,-100.22 360.22,-90.91"/>
<polygon fill="#63b8ff" stroke="#63b8ff" points="355.58,-127.26 358.77,-137.37 362.58,-127.48 355.58,-127.26"/>
</a>
</g>
</g>
</g>
</svg>
