<?xml version="1.0" encoding="UTF-8" standalone="no"?>
<!DOCTYPE svg PUBLIC "-//W3C//DTD SVG 1.1//EN"
 "http://www.w3.org/Graphics/SVG/1.1/DTD/svg11.dtd">
<!-- Generated by graphviz version 2.43.0 (0)
 -->
<!-- Title: src/network/tcp_socket.hpp Pages: 1 -->
<svg width="1266pt" height="225pt"
 viewBox="0.00 0.00 1266.00 225.00" xmlns="http://www.w3.org/2000/svg" xmlns:xlink="http://www.w3.org/1999/xlink">
<g id="graph0" class="graph" transform="scale(1 1) rotate(0) translate(4 221)">
<title>src/network/tcp_socket.hpp</title>
<!-- Node1 -->
<g id="Node000001" class="node">
<title>Node1</title>
<g id="a_Node000001"><a xlink:title=" ">
<polygon fill="#999999" stroke="#666666" points="618.5,-217 469.5,-217 469.5,-198 618.5,-198 618.5,-217"/>
<text text-anchor="middle" x="544" y="-205" font-family="Helvetica,sans-Serif" font-size="10.00">src/network/tcp_socket.hpp</text>
</a>
</g>
</g>
<!-- Node2 -->
<g id="Node000002" class="node">
<title>Node2</title>
<g id="a_Node000002"><a xlink:href="downloadmanager_8hpp.html" target="_top" xlink:title=" ">
<polygon fill="white" stroke="#666666" points="330.5,-156.5 155.5,-156.5 155.5,-137.5 330.5,-137.5 330.5,-156.5"/>
<text text-anchor="middle" x="243" y="-144.5" font-family="Helvetica,sans-Serif" font-size="10.00">src/client/downloadmanager.hpp</text>
</a>
</g>
</g>
<!-- Node1&#45;&gt;Node2 -->
<g id="edge1_Node000001_Node000002" class="edge">
<title>Node1&#45;&gt;Node2</title>
<g id="a_edge1_Node000001_Node000002"><a xlink:title=" ">
<path fill="none" stroke="#63b8ff" d="M490.14,-196.03C432.06,-184.74 340.68,-166.98 286.82,-156.52"/>
<polygon fill="#63b8ff" stroke="#63b8ff" points="489.75,-199.52 500.23,-197.99 491.08,-192.65 489.75,-199.52"/>
</a>
</g>
</g>
<!-- Node7 -->
<g id="Node000007" class="node">
<title>Node7</title>
<g id="a_Node000007"><a xlink:href="client_2process__request_8hpp.html" target="_top" xlink:title=" ">
<polygon fill="white" stroke="#666666" points="451.5,-162 350.5,-162 350.5,-132 451.5,-132 451.5,-162"/>
<text text-anchor="start" x="358.5" y="-150" font-family="Helvetica,sans-Serif" font-size="10.00">src/client/process</text>
<text text-anchor="middle" x="401" y="-139" font-family="Helvetica,sans-Serif" font-size="10.00">_request.hpp</text>
</a>
</g>
</g>
<!-- Node1&#45;&gt;Node7 -->
<g id="edge6_Node000001_Node000007" class="edge">
<title>Node1&#45;&gt;Node7</title>
<g id="a_edge6_Node000001_Node000007"><a xlink:title=" ">
<path fill="none" stroke="#63b8ff" d="M513.95,-194.21C491,-184.82 459.34,-171.87 435.38,-162.06"/>
<polygon fill="#63b8ff" stroke="#63b8ff" points="512.63,-197.45 523.21,-197.99 515.28,-190.97 512.63,-197.45"/>
</a>
</g>
</g>
<!-- Node9 -->
<g id="Node000009" class="node">
<title>Node9</title>
<g id="a_Node000009"><a xlink:href="transaction_8hpp.html" target="_top" xlink:title=" ">
<polygon fill="white" stroke="#666666" points="791.5,-156.5 642.5,-156.5 642.5,-137.5 791.5,-137.5 791.5,-156.5"/>
<text text-anchor="middle" x="717" y="-144.5" font-family="Helvetica,sans-Serif" font-size="10.00">src/models/transaction.hpp</text>
</a>
</g>
</g>
<!-- Node1&#45;&gt;Node9 -->
<g id="edge9_Node000001_Node000009" class="edge">
<title>Node1&#45;&gt;Node9</title>
<g id="a_edge9_Node000001_Node000009"><a xlink:title=" ">
<path fill="none" stroke="#63b8ff" d="M578.98,-194.67C612.44,-183.36 662.08,-166.57 691.81,-156.52"/>
<polygon fill="#63b8ff" stroke="#63b8ff" points="577.51,-191.47 569.16,-197.99 579.75,-198.11 577.51,-191.47"/>
</a>
</g>
</g>
<!-- Node17 -->
<g id="Node000017" class="node">
<title>Node17</title>
<g id="a_Node000017"><a xlink:href="tcp__server_8hpp.html" target="_top" xlink:title=" ">
<polygon fill="white" stroke="#666666" points="618,-90.5 470,-90.5 470,-71.5 618,-71.5 618,-90.5"/>
<text text-anchor="middle" x="544" y="-78.5" font-family="Helvetica,sans-Serif" font-size="10.00">src/network/tcp_server.hpp</text>
</a>
</g>
</g>
<!-- Node1&#45;&gt;Node17 -->
<g id="edge20_Node000001_Node000017" class="edge">
<title>Node1&#45;&gt;Node17</title>
<g id="a_edge20_Node000001_Node000017"><a xlink:title=" ">
<path fill="none" stroke="#63b8ff" d="M544,-187.74C544,-160.36 544,-110.58 544,-90.62"/>
<polygon fill="#63b8ff" stroke="#63b8ff" points="540.5,-187.94 544,-197.94 547.5,-187.94 540.5,-187.94"/>
</a>
</g>
</g>
<!-- Node19 -->
<g id="Node000019" class="node">
<title>Node19</title>
<g id="a_Node000019"><a xlink:href="tcp__socket_8cpp.html" target="_top" xlink:title=" ">
<polygon fill="white" stroke="#666666" points="958.5,-156.5 809.5,-156.5 809.5,-137.5 958.5,-137.5 958.5,-156.5"/>
<text text-anchor="middle" x="884" y="-144.5" font-family="Helvetica,sans-Serif" font-size="10.00">src/network/tcp_socket.cpp</text>
</a>
</g>
</g>
<!-- Node1&#45;&gt;Node19 -->
<g id="edge24_Node000001_Node000019" class="edge">
<title>Node1&#45;&gt;Node19</title>
<g id="a_edge24_Node000001_Node000019"><a xlink:title=" ">
<path fill="none" stroke="#63b8ff" d="M603.62,-196.24C669.16,-184.96 773.29,-167.05 834.5,-156.52"/>
<polygon fill="#63b8ff" stroke="#63b8ff" points="602.7,-192.85 593.44,-197.99 603.89,-199.75 602.7,-192.85"/>
</a>
</g>
</g>
<!-- Node3 -->
<g id="Node000003" class="node">
<title>Node3</title>
<g id="a_Node000003"><a xlink:href="downloadmanager_8cpp.html" target="_top" xlink:title=" ">
<polygon fill="white" stroke="#666666" points="174,-90.5 0,-90.5 0,-71.5 174,-71.5 174,-90.5"/>
<text text-anchor="middle" x="87" y="-78.5" font-family="Helvetica,sans-Serif" font-size="10.00">src/client/downloadmanager.cpp</text>
</a>
</g>
</g>
<!-- Node2&#45;&gt;Node3 -->
<g id="edge2_Node000002_Node000003" class="edge">
<title>Node2&#45;&gt;Node3</title>
<g id="a_edge2_Node000002_Node000003"><a xlink:title=" ">
<path fill="none" stroke="#63b8ff" d="M212.56,-133.51C181.72,-120.86 134.85,-101.63 107.95,-90.6"/>
<polygon fill="#63b8ff" stroke="#63b8ff" points="211.38,-136.81 221.96,-137.37 214.04,-130.33 211.38,-136.81"/>
</a>
</g>
</g>
<!-- Node4 -->
<g id="Node000004" class="node">
<title>Node4</title>
<g id="a_Node000004"><a xlink:href="process__input_8hpp.html" target="_top" xlink:title=" ">
<polygon fill="white" stroke="#666666" points="293.5,-96 192.5,-96 192.5,-66 293.5,-66 293.5,-96"/>
<text text-anchor="start" x="200.5" y="-84" font-family="Helvetica,sans-Serif" font-size="10.00">src/client/process</text>
<text text-anchor="middle" x="243" y="-73" font-family="Helvetica,sans-Serif" font-size="10.00">_input.hpp</text>
</a>
</g>
</g>
<!-- Node2&#45;&gt;Node4 -->
<g id="edge3_Node000002_Node000004" class="edge">
<title>Node2&#45;&gt;Node4</title>
<g id="a_edge3_Node000002_Node000004"><a xlink:title=" ">
<path fill="none" stroke="#63b8ff" d="M243,-127.35C243,-117.47 243,-105.51 243,-96.36"/>
<polygon fill="#63b8ff" stroke="#63b8ff" points="239.5,-127.37 243,-137.37 246.5,-127.37 239.5,-127.37"/>
</a>
</g>
</g>
<!-- Node5 -->
<g id="Node000005" class="node">
<title>Node5</title>
<g id="a_Node000005"><a xlink:href="client_8cpp.html" target="_top" xlink:title="The entrypoint to the client.">
<polygon fill="white" stroke="#666666" points="400.5,-24.5 289.5,-24.5 289.5,-5.5 400.5,-5.5 400.5,-24.5"/>
<text text-anchor="middle" x="345" y="-12.5" font-family="Helvetica,sans-Serif" font-size="10.00">src/client/client.cpp</text>
</a>
</g>
</g>
<!-- Node4&#45;&gt;Node5 -->
<g id="edge4_Node000004_Node000005" class="edge">
<title>Node4&#45;&gt;Node5</title>
<g id="a_edge4_Node000004_Node000005"><a xlink:title=" ">
<path fill="none" stroke="#63b8ff" d="M274.1,-60.49C293.26,-48.46 316.87,-33.65 331.43,-24.52"/>
<polygon fill="#63b8ff" stroke="#63b8ff" points="271.99,-57.68 265.38,-65.95 275.72,-63.6 271.99,-57.68"/>
</a>
</g>
</g>
<!-- Node6 -->
<g id="Node000006" class="node">
<title>Node6</title>
<g id="a_Node000006"><a xlink:href="process__input_8cpp.html" target="_top" xlink:title=" ">
<polygon fill="white" stroke="#666666" points="271.5,-30 170.5,-30 170.5,0 271.5,0 271.5,-30"/>
<text text-anchor="start" x="178.5" y="-18" font-family="Helvetica,sans-Serif" font-size="10.00">src/client/process</text>
<text text-anchor="middle" x="221" y="-7" font-family="Helvetica,sans-Serif" font-size="10.00">_input.cpp</text>
</a>
</g>
</g>
<!-- Node4&#45;&gt;Node6 -->
<g id="edge5_Node000004_Node000006" class="edge">
<title>Node4&#45;&gt;Node6</title>
<g id="a_edge5_Node000004_Node000006"><a xlink:title=" ">
<path fill="none" stroke="#63b8ff" d="M234.79,-56.11C231.79,-47.38 228.49,-37.78 225.87,-30.16"/>
<polygon fill="#63b8ff" stroke="#63b8ff" points="231.56,-57.48 238.12,-65.8 238.18,-55.2 231.56,-57.48"/>
</a>
</g>
</g>
<!-- Node7&#45;&gt;Node5 -->
<g id="edge7_Node000007_Node000005" class="edge">
<title>Node7&#45;&gt;Node5</title>
<g id="a_edge7_Node000007_Node000005"><a xlink:title=" ">
<path fill="none" stroke="#63b8ff" d="M367.04,-126.09C356.72,-118.15 346.63,-108.01 341,-96 329.91,-72.32 337.27,-40.28 341.96,-24.92"/>
<polygon fill="#63b8ff" stroke="#63b8ff" points="365.11,-129.01 375.28,-131.97 369.18,-123.31 365.11,-129.01"/>
</a>
</g>
</g>
<!-- Node8 -->
<g id="Node000008" class="node">
<title>Node8</title>
<g id="a_Node000008"><a xlink:href="client_2process__request_8cpp.html" target="_top" xlink:title=" ">
<polygon fill="white" stroke="#666666" points="451.5,-96 350.5,-96 350.5,-66 451.5,-66 451.5,-96"/>
<text text-anchor="start" x="358.5" y="-84" font-family="Helvetica,sans-Serif" font-size="10.00">src/client/process</text>
<text text-anchor="middle" x="401" y="-73" font-family="Helvetica,sans-Serif" font-size="10.00">_request.cpp</text>
</a>
</g>
</g>
<!-- Node7&#45;&gt;Node8 -->
<g id="edge8_Node000007_Node000008" class="edge">
<title>Node7&#45;&gt;Node8</title>
<g id="a_edge8_Node000007_Node000008"><a xlink:title=" ">
<path fill="none" stroke="#63b8ff" d="M401,-121.54C401,-112.96 401,-103.61 401,-96.16"/>
<polygon fill="#63b8ff" stroke="#63b8ff" points="397.5,-121.8 401,-131.8 404.5,-121.8 397.5,-121.8"/>
</a>
</g>
</g>
<!-- Node10 -->
<g id="Node000010" class="node">
<title>Node10</title>
<g id="a_Node000010"><a xlink:href="parse__request_8hpp.html" target="_top" xlink:title=" ">
<polygon fill="white" stroke="#666666" points="797.5,-90.5 636.5,-90.5 636.5,-71.5 797.5,-71.5 797.5,-90.5"/>
<text text-anchor="middle" x="717" y="-78.5" font-family="Helvetica,sans-Serif" font-size="10.00">src/tracker/parse_request.hpp</text>
</a>
</g>
</g>
<!-- Node9&#45;&gt;Node10 -->
<g id="edge10_Node000009_Node000010" class="edge">
<title>Node9&#45;&gt;Node10</title>
<g id="a_edge10_Node000009_Node000010"><a xlink:title=" ">
<path fill="none" stroke="#63b8ff" d="M717,-127.08C717,-115.13 717,-100.22 717,-90.91"/>
<polygon fill="#63b8ff" stroke="#63b8ff" points="713.5,-127.37 717,-137.37 720.5,-127.37 713.5,-127.37"/>
</a>
</g>
</g>
<!-- Node13 -->
<g id="Node000013" class="node">
<title>Node13</title>
<g id="a_Node000013"><a xlink:href="tracker_2process__request_8hpp.html" target="_top" xlink:title=" ">
<polygon fill="white" stroke="#666666" points="924,-96 816,-96 816,-66 924,-66 924,-96"/>
<text text-anchor="start" x="824" y="-84" font-family="Helvetica,sans-Serif" font-size="10.00">src/tracker/process</text>
<text text-anchor="middle" x="870" y="-73" font-family="Helvetica,sans-Serif" font-size="10.00">_request.hpp</text>
</a>
</g>
</g>
<!-- Node9&#45;&gt;Node13 -->
<g id="edge13_Node000009_Node000013" class="edge">
<title>Node9&#45;&gt;Node13</title>
<g id="a_edge13_Node000009_Node000013"><a xlink:title=" ">
<path fill="none" stroke="#63b8ff" d="M746.87,-133.5C772.54,-122.77 809.53,-107.3 836.25,-96.12"/>
<polygon fill="#63b8ff" stroke="#63b8ff" points="745.51,-130.28 737.63,-137.37 748.21,-136.74 745.51,-130.28"/>
</a>
</g>
</g>
<!-- Node15 -->
<g id="Node000015" class="node">
<title>Node15</title>
<g id="a_Node000015"><a xlink:href="transactionsrecord_8hpp.html" target="_top" xlink:title=" ">
<polygon fill="white" stroke="#666666" points="1124,-90.5 942,-90.5 942,-71.5 1124,-71.5 1124,-90.5"/>
<text text-anchor="middle" x="1033" y="-78.5" font-family="Helvetica,sans-Serif" font-size="10.00">src/tracker/transactionsrecord.hpp</text>
</a>
</g>
</g>
<!-- Node9&#45;&gt;Node15 -->
<g id="edge16_Node000009_Node000015" class="edge">
<title>Node9&#45;&gt;Node15</title>
<g id="a_edge16_Node000009_Node000015"><a xlink:title=" ">
<path fill="none" stroke="#63b8ff" d="M769.27,-135.41C831.37,-122.84 933.74,-102.1 990.96,-90.51"/>
<polygon fill="#63b8ff" stroke="#63b8ff" points="768.4,-132.02 759.29,-137.44 769.79,-138.88 768.4,-132.02"/>
</a>
</g>
</g>
<!-- Node11 -->
<g id="Node000011" class="node">
<title>Node11</title>
<g id="a_Node000011"><a xlink:href="parse__request_8cpp.html" target="_top" xlink:title=" ">
<polygon fill="white" stroke="#666666" points="790,-24.5 630,-24.5 630,-5.5 790,-5.5 790,-24.5"/>
<text text-anchor="middle" x="710" y="-12.5" font-family="Helvetica,sans-Serif" font-size="10.00">src/tracker/parse_request.cpp</text>
</a>
</g>
</g>
<!-- Node10&#45;&gt;Node11 -->
<g id="edge11_Node000010_Node000011" class="edge">
<title>Node10&#45;&gt;Node11</title>
<g id="a_edge11_Node000010_Node000011"><a xlink:title=" ">
<path fill="none" stroke="#63b8ff" d="M714.93,-61.08C713.62,-49.13 711.99,-34.22 710.97,-24.91"/>
<polygon fill="#63b8ff" stroke="#63b8ff" points="711.49,-61.81 716.06,-71.37 718.45,-61.05 711.49,-61.81"/>
</a>
</g>
</g>
<!-- Node12 -->
<g id="Node000012" class="node">
<title>Node12</title>
<g id="a_Node000012"><a xlink:href="tracker_8cpp.html" target="_top" xlink:title="The tracker.">
<polygon fill="white" stroke="#666666" points="932,-24.5 808,-24.5 808,-5.5 932,-5.5 932,-24.5"/>
<text text-anchor="middle" x="870" y="-12.5" font-family="Helvetica,sans-Serif" font-size="10.00">src/tracker/tracker.cpp</text>
</a>
</g>
</g>
<!-- Node10&#45;&gt;Node12 -->
<g id="edge12_Node000010_Node000012" class="edge">
<title>Node10&#45;&gt;Node12</title>
<g id="a_edge12_Node000010_Node000012"><a xlink:title=" ">
<path fill="none" stroke="#63b8ff" d="M747.22,-67.36C777.37,-54.75 822.89,-35.71 849.2,-24.7"/>
<polygon fill="#63b8ff" stroke="#63b8ff" points="745.51,-64.28 737.63,-71.37 748.21,-70.74 745.51,-64.28"/>
</a>
</g>
</g>
<!-- Node13&#45;&gt;Node12 -->
<g id="edge15_Node000013_Node000012" class="edge">
<title>Node13&#45;&gt;Node12</title>
<g id="a_edge15_Node000013_Node000012"><a xlink:title=" ">
<path fill="none" stroke="#63b8ff" d="M870,-55.6C870,-44.8 870,-32.78 870,-24.84"/>
<polygon fill="#63b8ff" stroke="#63b8ff" points="866.5,-55.8 870,-65.8 873.5,-55.8 866.5,-55.8"/>
</a>
</g>
</g>
<!-- Node14 -->
<g id="Node000014" class="node">
<title>Node14</title>
<g id="a_Node000014"><a xlink:href="tracker_2process__request_8cpp.html" target="_top" xlink:title=" ">
<polygon fill="white" stroke="#666666" points="1058,-30 950,-30 950,0 1058,0 1058,-30"/>
<text text-anchor="start" x="958" y="-18" font-family="Helvetica,sans-Serif" font-size="10.00">src/tracker/process</text>
<text text-anchor="middle" x="1004" y="-7" font-family="Helvetica,sans-Serif" font-size="10.00">_request.cpp</text>
</a>
</g>
</g>
<!-- Node13&#45;&gt;Node14 -->
<g id="edge14_Node000013_Node000014" class="edge">
<title>Node13&#45;&gt;Node14</title>
<g id="a_edge14_Node000013_Node000014"><a xlink:title=" ">
<path fill="none" stroke="#63b8ff" d="M908.71,-61.51C929.73,-51.47 955.3,-39.26 974.66,-30.01"/>
<polygon fill="#63b8ff" stroke="#63b8ff" points="906.92,-58.49 899.41,-65.95 909.94,-64.8 906.92,-58.49"/>
</a>
</g>
</g>
<!-- Node15&#45;&gt;Node12 -->
<g id="edge18_Node000015_Node000012" class="edge">
<title>Node15&#45;&gt;Node12</title>
<g id="a_edge18_Node000015_Node000012"><a xlink:title=" ">
<path fill="none" stroke="#63b8ff" d="M1001.61,-67.68C969.4,-55.03 920.12,-35.68 891.89,-24.6"/>
<polygon fill="#63b8ff" stroke="#63b8ff" points="1000.43,-70.97 1011.02,-71.37 1002.99,-64.46 1000.43,-70.97"/>
</a>
</g>
</g>
<!-- Node15&#45;&gt;Node14 -->
<g id="edge17_Node000015_Node000014" class="edge">
<title>Node15&#45;&gt;Node14</title>
<g id="a_edge17_Node000015_Node000014"><a xlink:title=" ">
<path fill="none" stroke="#63b8ff" d="M1024.84,-61.98C1020.3,-51.98 1014.74,-39.71 1010.51,-30.36"/>
<polygon fill="#63b8ff" stroke="#63b8ff" points="1021.77,-63.7 1029.09,-71.37 1028.15,-60.82 1021.77,-63.7"/>
</a>
</g>
</g>
<!-- Node16 -->
<g id="Node000016" class="node">
<title>Node16</title>
<g id="a_Node000016"><a xlink:href="transactionsrecord_8cpp.html" target="_top" xlink:title=" ">
<polygon fill="white" stroke="#666666" points="1258,-24.5 1076,-24.5 1076,-5.5 1258,-5.5 1258,-24.5"/>
<text text-anchor="middle" x="1167" y="-12.5" font-family="Helvetica,sans-Serif" font-size="10.00">src/tracker/transactionsrecord.cpp</text>
</a>
</g>
</g>
<!-- Node15&#45;&gt;Node16 -->
<g id="edge19_Node000015_Node000016" class="edge">
<title>Node15&#45;&gt;Node16</title>
<g id="a_edge19_Node000015_Node000016"><a xlink:title=" ">
<path fill="none" stroke="#63b8ff" d="M1060.16,-67.03C1086.57,-54.42 1125.94,-35.61 1148.79,-24.7"/>
<polygon fill="#63b8ff" stroke="#63b8ff" points="1058.59,-63.9 1051.07,-71.37 1061.6,-70.22 1058.59,-63.9"/>
</a>
</g>
</g>
<!-- Node17&#45;&gt;Node5 -->
<g id="edge21_Node000017_Node000005" class="edge">
<title>Node17&#45;&gt;Node5</title>
<g id="a_edge21_Node000017_Node000005"><a xlink:title=" ">
<path fill="none" stroke="#63b8ff" d="M507.44,-68.24C468.17,-55.61 406.71,-35.85 371.73,-24.6"/>
<polygon fill="#63b8ff" stroke="#63b8ff" points="506.57,-71.64 517.16,-71.37 508.71,-64.98 506.57,-71.64"/>
</a>
</g>
</g>
<!-- Node17&#45;&gt;Node12 -->
<g id="edge23_Node000017_Node000012" class="edge">
<title>Node17&#45;&gt;Node12</title>
<g id="a_edge23_Node000017_Node000012"><a xlink:title=" ">
<path fill="none" stroke="#63b8ff" d="M597.7,-69.49C649.31,-59.38 729.49,-43.67 799,-30 808,-28.23 817.64,-26.33 826.82,-24.52"/>
<polygon fill="#63b8ff" stroke="#63b8ff" points="596.91,-66.08 587.77,-71.43 598.26,-72.95 596.91,-66.08"/>
</a>
</g>
</g>
<!-- Node18 -->
<g id="Node000018" class="node">
<title>Node18</title>
<g id="a_Node000018"><a xlink:href="tcp__server_8cpp.html" target="_top" xlink:title=" ">
<polygon fill="white" stroke="#666666" points="611.5,-24.5 464.5,-24.5 464.5,-5.5 611.5,-5.5 611.5,-24.5"/>
<text text-anchor="middle" x="538" y="-12.5" font-family="Helvetica,sans-Serif" font-size="10.00">src/network/tcp_server.cpp</text>
</a>
</g>
</g>
<!-- Node17&#45;&gt;Node18 -->
<g id="edge22_Node000017_Node000018" class="edge">
<title>Node17&#45;&gt;Node18</title>
<g id="a_edge22_Node000017_Node000018"><a xlink:title=" ">
<path fill="none" stroke="#63b8ff" d="M542.23,-61.08C541.11,-49.13 539.71,-34.22 538.83,-24.91"/>
<polygon fill="#63b8ff" stroke="#63b8ff" points="538.77,-61.74 543.19,-71.37 545.74,-61.09 538.77,-61.74"/>
</a>
</g>
</g>
</g>
</svg>
