<?xml version="1.0" encoding="UTF-8" standalone="no"?>
<!DOCTYPE svg PUBLIC "-//W3C//DTD SVG 1.1//EN"
 "http://www.w3.org/Graphics/SVG/1.1/DTD/svg11.dtd">
<!-- Generated by graphviz version 2.43.0 (0)
 -->
<!-- Title: src/network/tcp_socket.hpp Pages: 1 -->
<svg width="839pt" height="214pt"
 viewBox="0.00 0.00 838.50 214.00" xmlns="http://www.w3.org/2000/svg" xmlns:xlink="http://www.w3.org/1999/xlink">
<g id="graph0" class="graph" transform="scale(1 1) rotate(0) translate(4 210)">
<title>src/network/tcp_socket.hpp</title>
<!-- Node1 -->
<g id="Node000001" class="node">
<title>Node1</title>
<g id="a_Node000001"><a xlink:title=" ">
<polygon fill="#999999" stroke="#666666" points="510.5,-206 361.5,-206 361.5,-187 510.5,-187 510.5,-206"/>
<text text-anchor="middle" x="436" y="-194" font-family="Helvetica,sans-Serif" font-size="10.00">src/network/tcp_socket.hpp</text>
</a>
</g>
</g>
<!-- Node2 -->
<g id="Node000002" class="node">
<title>Node2</title>
<g id="a_Node000002"><a xlink:href="client_8cpp.html" target="_top" xlink:title="The entrypoint to the client.">
<polygon fill="white" stroke="#666666" points="254.5,-151 143.5,-151 143.5,-132 254.5,-132 254.5,-151"/>
<text text-anchor="middle" x="199" y="-139" font-family="Helvetica,sans-Serif" font-size="10.00">src/client/client.cpp</text>
</a>
</g>
</g>
<!-- Node1&#45;&gt;Node2 -->
<g id="edge1_Node000001_Node000002" class="edge">
<title>Node1&#45;&gt;Node2</title>
<g id="a_edge1_Node000001_Node000002"><a xlink:title=" ">
<path fill="none" stroke="#63b8ff" d="M387.94,-184.75C343.53,-174.82 278.4,-160.26 237.38,-151.08"/>
<polygon fill="#63b8ff" stroke="#63b8ff" points="387.4,-188.22 397.92,-186.98 388.93,-181.39 387.4,-188.22"/>
</a>
</g>
</g>
<!-- Node3 -->
<g id="Node000003" class="node">
<title>Node3</title>
<g id="a_Node000003"><a xlink:href="transaction_8hpp.html" target="_top" xlink:title=" ">
<polygon fill="white" stroke="#666666" points="459.5,-151 310.5,-151 310.5,-132 459.5,-132 459.5,-151"/>
<text text-anchor="middle" x="385" y="-139" font-family="Helvetica,sans-Serif" font-size="10.00">src/models/transaction.hpp</text>
</a>
</g>
</g>
<!-- Node1&#45;&gt;Node3 -->
<g id="edge2_Node000001_Node000003" class="edge">
<title>Node1&#45;&gt;Node3</title>
<g id="a_edge2_Node000001_Node000003"><a xlink:title=" ">
<path fill="none" stroke="#63b8ff" d="M420.62,-179.52C411.63,-170.18 400.64,-158.75 393.26,-151.09"/>
<polygon fill="#63b8ff" stroke="#63b8ff" points="418.12,-181.97 427.58,-186.75 423.17,-177.12 418.12,-181.97"/>
</a>
</g>
</g>
<!-- Node4 -->
<g id="Node000004" class="node">
<title>Node4</title>
<g id="a_Node000004"><a xlink:href="parse__request_8hpp.html" target="_top" xlink:title=" ">
<polygon fill="white" stroke="#666666" points="234.5,-90.5 73.5,-90.5 73.5,-71.5 234.5,-71.5 234.5,-90.5"/>
<text text-anchor="middle" x="154" y="-78.5" font-family="Helvetica,sans-Serif" font-size="10.00">src/tracker/parse_request.hpp</text>
</a>
</g>
</g>
<!-- Node1&#45;&gt;Node4 -->
<g id="edge17_Node000001_Node000004" class="edge">
<title>Node1&#45;&gt;Node4</title>
<g id="a_edge17_Node000001_Node000004"><a xlink:title=" ">
<path fill="none" stroke="#63b8ff" d="M396.13,-184.03C368.96,-175.8 332.36,-163.93 301,-151 283.54,-143.8 280.03,-140.16 263,-132 231.83,-117.07 195.25,-100.48 173.39,-90.66"/>
<polygon fill="#63b8ff" stroke="#63b8ff" points="395.47,-187.48 406.05,-186.99 397.48,-180.77 395.47,-187.48"/>
</a>
</g>
</g>
<!-- Node7 -->
<g id="Node000007" class="node">
<title>Node7</title>
<g id="a_Node000007"><a xlink:href="process__request_8hpp.html" target="_top" xlink:title=" ">
<polygon fill="white" stroke="#666666" points="561,-96 453,-96 453,-66 561,-66 561,-96"/>
<text text-anchor="start" x="461" y="-84" font-family="Helvetica,sans-Serif" font-size="10.00">src/tracker/process</text>
<text text-anchor="middle" x="507" y="-73" font-family="Helvetica,sans-Serif" font-size="10.00">_request.hpp</text>
</a>
</g>
</g>
<!-- Node1&#45;&gt;Node7 -->
<g id="edge18_Node000001_Node000007" class="edge">
<title>Node1&#45;&gt;Node7</title>
<g id="a_edge18_Node000001_Node000007"><a xlink:title=" ">
<path fill="none" stroke="#63b8ff" d="M448.67,-178.79C454.74,-170.57 461.98,-160.42 468,-151 479.86,-132.45 492.13,-110.14 499.66,-96.01"/>
<polygon fill="#63b8ff" stroke="#63b8ff" points="445.85,-176.73 442.66,-186.83 451.45,-180.92 445.85,-176.73"/>
</a>
</g>
</g>
<!-- Node11 -->
<g id="Node000011" class="node">
<title>Node11</title>
<g id="a_Node000011"><a xlink:href="tcp__server_8hpp.html" target="_top" xlink:title=" ">
<polygon fill="white" stroke="#666666" points="663,-151 515,-151 515,-132 663,-132 663,-151"/>
<text text-anchor="middle" x="589" y="-139" font-family="Helvetica,sans-Serif" font-size="10.00">src/network/tcp_server.hpp</text>
</a>
</g>
</g>
<!-- Node1&#45;&gt;Node11 -->
<g id="edge13_Node000001_Node000011" class="edge">
<title>Node1&#45;&gt;Node11</title>
<g id="a_edge13_Node000001_Node000011"><a xlink:title=" ">
<path fill="none" stroke="#63b8ff" d="M470.15,-183.67C498.68,-173.79 538.69,-159.93 564.23,-151.08"/>
<polygon fill="#63b8ff" stroke="#63b8ff" points="468.89,-180.4 460.58,-186.98 471.18,-187.02 468.89,-180.4"/>
</a>
</g>
</g>
<!-- Node13 -->
<g id="Node000013" class="node">
<title>Node13</title>
<g id="a_Node000013"><a xlink:href="tcp__socket_8cpp.html" target="_top" xlink:title=" ">
<polygon fill="white" stroke="#666666" points="830.5,-151 681.5,-151 681.5,-132 830.5,-132 830.5,-151"/>
<text text-anchor="middle" x="756" y="-139" font-family="Helvetica,sans-Serif" font-size="10.00">src/network/tcp_socket.cpp</text>
</a>
</g>
</g>
<!-- Node1&#45;&gt;Node13 -->
<g id="edge16_Node000001_Node000013" class="edge">
<title>Node1&#45;&gt;Node13</title>
<g id="a_edge16_Node000001_Node000013"><a xlink:title=" ">
<path fill="none" stroke="#63b8ff" d="M497.53,-185.31C557.62,-175.36 648.03,-160.38 704.45,-151.04"/>
<polygon fill="#63b8ff" stroke="#63b8ff" points="496.71,-181.9 487.41,-186.98 497.85,-188.8 496.71,-181.9"/>
</a>
</g>
</g>
<!-- Node3&#45;&gt;Node4 -->
<g id="edge3_Node000003_Node000004" class="edge">
<title>Node3&#45;&gt;Node4</title>
<g id="a_edge3_Node000003_Node000004"><a xlink:title=" ">
<path fill="none" stroke="#63b8ff" d="M341.71,-129.54C297.06,-118.23 228.37,-100.83 187.63,-90.52"/>
<polygon fill="#63b8ff" stroke="#63b8ff" points="340.86,-132.93 351.41,-131.99 342.58,-126.15 340.86,-132.93"/>
</a>
</g>
</g>
<!-- Node3&#45;&gt;Node7 -->
<g id="edge6_Node000003_Node000007" class="edge">
<title>Node3&#45;&gt;Node7</title>
<g id="a_edge6_Node000003_Node000007"><a xlink:title=" ">
<path fill="none" stroke="#63b8ff" d="M411.93,-127.59C431.31,-118.29 457.47,-105.75 477.43,-96.18"/>
<polygon fill="#63b8ff" stroke="#63b8ff" points="410.24,-124.51 402.74,-131.99 413.27,-130.83 410.24,-124.51"/>
</a>
</g>
</g>
<!-- Node9 -->
<g id="Node000009" class="node">
<title>Node9</title>
<g id="a_Node000009"><a xlink:href="transactionsrecord_8hpp.html" target="_top" xlink:title=" ">
<polygon fill="white" stroke="#666666" points="435,-90.5 253,-90.5 253,-71.5 435,-71.5 435,-90.5"/>
<text text-anchor="middle" x="344" y="-78.5" font-family="Helvetica,sans-Serif" font-size="10.00">src/tracker/transactionsrecord.hpp</text>
</a>
</g>
</g>
<!-- Node3&#45;&gt;Node9 -->
<g id="edge9_Node000003_Node000009" class="edge">
<title>Node3&#45;&gt;Node9</title>
<g id="a_edge9_Node000003_Node000009"><a xlink:title=" ">
<path fill="none" stroke="#63b8ff" d="M373.18,-123.63C365.62,-112.85 356.14,-99.32 350.07,-90.67"/>
<polygon fill="#63b8ff" stroke="#63b8ff" points="370.34,-125.69 378.95,-131.87 376.08,-121.67 370.34,-125.69"/>
</a>
</g>
</g>
<!-- Node5 -->
<g id="Node000005" class="node">
<title>Node5</title>
<g id="a_Node000005"><a xlink:href="parse__request_8cpp.html" target="_top" xlink:title=" ">
<polygon fill="white" stroke="#666666" points="160,-24.5 0,-24.5 0,-5.5 160,-5.5 160,-24.5"/>
<text text-anchor="middle" x="80" y="-12.5" font-family="Helvetica,sans-Serif" font-size="10.00">src/tracker/parse_request.cpp</text>
</a>
</g>
</g>
<!-- Node4&#45;&gt;Node5 -->
<g id="edge4_Node000004_Node000005" class="edge">
<title>Node4&#45;&gt;Node5</title>
<g id="a_edge4_Node000004_Node000005"><a xlink:title=" ">
<path fill="none" stroke="#63b8ff" d="M136.29,-64.68C121.92,-52.26 102.18,-35.18 90.3,-24.91"/>
<polygon fill="#63b8ff" stroke="#63b8ff" points="134.17,-67.47 144.02,-71.37 138.75,-62.18 134.17,-67.47"/>
</a>
</g>
</g>
<!-- Node6 -->
<g id="Node000006" class="node">
<title>Node6</title>
<g id="a_Node000006"><a xlink:href="tracker_8cpp.html" target="_top" xlink:title="The tracker.">
<polygon fill="white" stroke="#666666" points="502,-24.5 378,-24.5 378,-5.5 502,-5.5 502,-24.5"/>
<text text-anchor="middle" x="440" y="-12.5" font-family="Helvetica,sans-Serif" font-size="10.00">src/tracker/tracker.cpp</text>
</a>
</g>
</g>
<!-- Node4&#45;&gt;Node6 -->
<g id="edge5_Node000004_Node000006" class="edge">
<title>Node4&#45;&gt;Node6</title>
<g id="a_edge5_Node000004_Node000006"><a xlink:title=" ">
<path fill="none" stroke="#63b8ff" d="M202.36,-69.18C258.66,-56.58 350.48,-36.03 401.95,-24.51"/>
<polygon fill="#63b8ff" stroke="#63b8ff" points="201.27,-65.84 192.27,-71.44 202.8,-72.67 201.27,-65.84"/>
</a>
</g>
</g>
<!-- Node7&#45;&gt;Node6 -->
<g id="edge8_Node000007_Node000006" class="edge">
<title>Node7&#45;&gt;Node6</title>
<g id="a_edge8_Node000007_Node000006"><a xlink:title=" ">
<path fill="none" stroke="#63b8ff" d="M484.6,-58.6C472.55,-47.1 458.34,-33.52 449.26,-24.84"/>
<polygon fill="#63b8ff" stroke="#63b8ff" points="482.48,-61.42 492.13,-65.8 487.32,-56.36 482.48,-61.42"/>
</a>
</g>
</g>
<!-- Node8 -->
<g id="Node000008" class="node">
<title>Node8</title>
<g id="a_Node000008"><a xlink:href="process__request_8cpp.html" target="_top" xlink:title=" ">
<polygon fill="white" stroke="#666666" points="628,-30 520,-30 520,0 628,0 628,-30"/>
<text text-anchor="start" x="528" y="-18" font-family="Helvetica,sans-Serif" font-size="10.00">src/tracker/process</text>
<text text-anchor="middle" x="574" y="-7" font-family="Helvetica,sans-Serif" font-size="10.00">_request.cpp</text>
</a>
</g>
</g>
<!-- Node7&#45;&gt;Node8 -->
<g id="edge7_Node000007_Node000008" class="edge">
<title>Node7&#45;&gt;Node8</title>
<g id="a_edge7_Node000007_Node000008"><a xlink:title=" ">
<path fill="none" stroke="#63b8ff" d="M529.35,-58.65C539.17,-49.27 550.42,-38.53 559.17,-30.16"/>
<polygon fill="#63b8ff" stroke="#63b8ff" points="526.68,-56.36 521.87,-65.8 531.52,-61.42 526.68,-56.36"/>
</a>
</g>
</g>
<!-- Node9&#45;&gt;Node6 -->
<g id="edge11_Node000009_Node000006" class="edge">
<title>Node9&#45;&gt;Node6</title>
<g id="a_edge11_Node000009_Node000006"><a xlink:title=" ">
<path fill="none" stroke="#63b8ff" d="M365.48,-65.68C384.34,-53.11 411.16,-35.23 426.95,-24.7"/>
<polygon fill="#63b8ff" stroke="#63b8ff" points="363.33,-62.91 356.95,-71.37 367.21,-68.73 363.33,-62.91"/>
</a>
</g>
</g>
<!-- Node9&#45;&gt;Node8 -->
<g id="edge10_Node000009_Node000008" class="edge">
<title>Node9&#45;&gt;Node8</title>
<g id="a_edge10_Node000009_Node000008"><a xlink:title=" ">
<path fill="none" stroke="#63b8ff" d="M384.89,-68.62C423.55,-57.86 481.67,-41.69 523.27,-30.12"/>
<polygon fill="#63b8ff" stroke="#63b8ff" points="383.71,-65.32 375.02,-71.37 385.59,-72.06 383.71,-65.32"/>
</a>
</g>
</g>
<!-- Node10 -->
<g id="Node000010" class="node">
<title>Node10</title>
<g id="a_Node000010"><a xlink:href="transactionsrecord_8cpp.html" target="_top" xlink:title=" ">
<polygon fill="white" stroke="#666666" points="360,-24.5 178,-24.5 178,-5.5 360,-5.5 360,-24.5"/>
<text text-anchor="middle" x="269" y="-12.5" font-family="Helvetica,sans-Serif" font-size="10.00">src/tracker/transactionsrecord.cpp</text>
</a>
</g>
</g>
<!-- Node9&#45;&gt;Node10 -->
<g id="edge12_Node000009_Node000010" class="edge">
<title>Node9&#45;&gt;Node10</title>
<g id="a_edge12_Node000009_Node000010"><a xlink:title=" ">
<path fill="none" stroke="#63b8ff" d="M326.05,-64.68C311.49,-52.26 291.48,-35.18 279.44,-24.91"/>
<polygon fill="#63b8ff" stroke="#63b8ff" points="324.01,-67.54 333.89,-71.37 328.55,-62.22 324.01,-67.54"/>
</a>
</g>
</g>
<!-- Node11&#45;&gt;Node6 -->
<g id="edge15_Node000011_Node000006" class="edge">
<title>Node11&#45;&gt;Node6</title>
<g id="a_edge15_Node000011_Node000006"><a xlink:title=" ">
<path fill="none" stroke="#63b8ff" d="M588.87,-121.88C587.78,-105.32 583.69,-81.4 570,-66 556.63,-50.95 505.66,-34.33 471.65,-24.54"/>
<polygon fill="#63b8ff" stroke="#63b8ff" points="585.37,-122.11 589.22,-131.98 592.37,-121.86 585.37,-122.11"/>
</a>
</g>
</g>
<!-- Node12 -->
<g id="Node000012" class="node">
<title>Node12</title>
<g id="a_Node000012"><a xlink:href="tcp__server_8cpp.html" target="_top" xlink:title=" ">
<polygon fill="white" stroke="#666666" points="764.5,-90.5 617.5,-90.5 617.5,-71.5 764.5,-71.5 764.5,-90.5"/>
<text text-anchor="middle" x="691" y="-78.5" font-family="Helvetica,sans-Serif" font-size="10.00">src/network/tcp_server.cpp</text>
</a>
</g>
</g>
<!-- Node11&#45;&gt;Node12 -->
<g id="edge14_Node000011_Node000012" class="edge">
<title>Node11&#45;&gt;Node12</title>
<g id="a_edge14_Node000011_Node000012"><a xlink:title=" ">
<path fill="none" stroke="#63b8ff" d="M612.94,-126.77C632.41,-115.6 659.29,-100.19 675.89,-90.67"/>
<polygon fill="#63b8ff" stroke="#63b8ff" points="610.98,-123.86 604.05,-131.87 614.47,-129.93 610.98,-123.86"/>
</a>
</g>
</g>
</g>
</svg>
