<?xml version="1.0" encoding="UTF-8" standalone="no"?>
<!DOCTYPE svg PUBLIC "-//W3C//DTD SVG 1.1//EN"
 "http://www.w3.org/Graphics/SVG/1.1/DTD/svg11.dtd">
<!-- Generated by graphviz version 2.43.0 (0)
 -->
<!-- Title: src/network/tcp_server.hpp Pages: 1 -->
<svg width="427pt" height="82pt"
 viewBox="0.00 0.00 426.50 82.00" xmlns="http://www.w3.org/2000/svg" xmlns:xlink="http://www.w3.org/1999/xlink">
<g id="graph0" class="graph" transform="scale(1 1) rotate(0) translate(4 78)">
<title>src/network/tcp_server.hpp</title>
<!-- Node1 -->
<g id="Node000001" class="node">
<title>Node1</title>
<g id="a_Node000001"><a xlink:title=" ">
<polygon fill="#999999" stroke="#666666" points="276.5,-74 128.5,-74 128.5,-55 276.5,-55 276.5,-74"/>
<text text-anchor="middle" x="202.5" y="-62" font-family="Helvetica,sans-Serif" font-size="10.00">src/network/tcp_server.hpp</text>
</a>
</g>
</g>
<!-- Node2 -->
<g id="Node000002" class="node">
<title>Node2</title>
<g id="a_Node000002"><a xlink:href="client_8cpp.html" target="_top" xlink:title="The entrypoint to the client.">
<polygon fill="white" stroke="#666666" points="111,-19 0,-19 0,0 111,0 111,-19"/>
<text text-anchor="middle" x="55.5" y="-7" font-family="Helvetica,sans-Serif" font-size="10.00">src/client/client.cpp</text>
</a>
</g>
</g>
<!-- Node1&#45;&gt;Node2 -->
<g id="edge1_Node000001_Node000002" class="edge">
<title>Node1&#45;&gt;Node2</title>
<g id="a_edge1_Node000001_Node000002"><a xlink:title=" ">
<path fill="none" stroke="#63b8ff" d="M169.36,-51.55C142.06,-41.71 104,-27.98 79.55,-19.17"/>
<polygon fill="#63b8ff" stroke="#63b8ff" points="168.29,-54.89 178.88,-54.98 170.66,-48.3 168.29,-54.89"/>
</a>
</g>
</g>
<!-- Node3 -->
<g id="Node000003" class="node">
<title>Node3</title>
<g id="a_Node000003"><a xlink:href="tcp__server_8cpp.html" target="_top" xlink:title=" ">
<polygon fill="white" stroke="#666666" points="276,-19 129,-19 129,0 276,0 276,-19"/>
<text text-anchor="middle" x="202.5" y="-7" font-family="Helvetica,sans-Serif" font-size="10.00">src/network/tcp_server.cpp</text>
</a>
</g>
</g>
<!-- Node1&#45;&gt;Node3 -->
<g id="edge2_Node000001_Node000003" class="edge">
<title>Node1&#45;&gt;Node3</title>
<g id="a_edge2_Node000001_Node000003"><a xlink:title=" ">
<path fill="none" stroke="#63b8ff" d="M202.5,-44.66C202.5,-35.93 202.5,-25.99 202.5,-19.09"/>
<polygon fill="#63b8ff" stroke="#63b8ff" points="199,-44.75 202.5,-54.75 206,-44.75 199,-44.75"/>
</a>
</g>
</g>
<!-- Node4 -->
<g id="Node000004" class="node">
<title>Node4</title>
<g id="a_Node000004"><a xlink:href="tracker_8cpp.html" target="_top" xlink:title="The tracker.">
<polygon fill="white" stroke="#666666" points="418.5,-19 294.5,-19 294.5,0 418.5,0 418.5,-19"/>
<text text-anchor="middle" x="356.5" y="-7" font-family="Helvetica,sans-Serif" font-size="10.00">src/tracker/tracker.cpp</text>
</a>
</g>
</g>
<!-- Node1&#45;&gt;Node4 -->
<g id="edge3_Node000001_Node000004" class="edge">
<title>Node1&#45;&gt;Node4</title>
<g id="a_edge3_Node000001_Node000004"><a xlink:title=" ">
<path fill="none" stroke="#63b8ff" d="M236.88,-51.67C265.59,-41.79 305.86,-27.93 331.56,-19.08"/>
<polygon fill="#63b8ff" stroke="#63b8ff" points="235.56,-48.42 227.24,-54.98 237.84,-55.04 235.56,-48.42"/>
</a>
</g>
</g>
</g>
</svg>
