<?xml version="1.0" encoding="UTF-8" standalone="no"?>
<!DOCTYPE svg PUBLIC "-//W3C//DTD SVG 1.1//EN"
 "http://www.w3.org/Graphics/SVG/1.1/DTD/svg11.dtd">
<!-- Generated by graphviz version 2.43.0 (0)
 -->
<!-- Title: src/network/tcp_socket.hpp Pages: 1 -->
<svg width="1221pt" height="225pt"
 viewBox="0.00 0.00 1220.50 225.00" xmlns="http://www.w3.org/2000/svg" xmlns:xlink="http://www.w3.org/1999/xlink">
<g id="graph0" class="graph" transform="scale(1 1) rotate(0) translate(4 221)">
<title>src/network/tcp_socket.hpp</title>
<!-- Node1 -->
<g id="Node000001" class="node">
<title>Node1</title>
<g id="a_Node000001"><a xlink:title=" ">
<polygon fill="#999999" stroke="#666666" points="694,-217 545,-217 545,-198 694,-198 694,-217"/>
<text text-anchor="middle" x="619.5" y="-205" font-family="Helvetica,sans-Serif" font-size="10.00">src/network/tcp_socket.hpp</text>
</a>
</g>
</g>
<!-- Node2 -->
<g id="Node000002" class="node">
<title>Node2</title>
<g id="a_Node000002"><a xlink:href="client_8cpp.html" target="_top" xlink:title="The entrypoint to the client.">
<polygon fill="white" stroke="#666666" points="401,-24.5 290,-24.5 290,-5.5 401,-5.5 401,-24.5"/>
<text text-anchor="middle" x="345.5" y="-12.5" font-family="Helvetica,sans-Serif" font-size="10.00">src/client/client.cpp</text>
</a>
</g>
</g>
<!-- Node1&#45;&gt;Node2 -->
<g id="edge1_Node000001_Node000002" class="edge">
<title>Node1&#45;&gt;Node2</title>
<g id="a_edge1_Node000001_Node000002"><a xlink:title=" ">
<path fill="none" stroke="#63b8ff" d="M541.09,-196.47C492.54,-188.93 435.89,-177.27 416.5,-162 369.77,-125.21 351.84,-49.88 346.98,-24.54"/>
<polygon fill="#63b8ff" stroke="#63b8ff" points="540.58,-199.94 550.99,-197.98 541.63,-193.02 540.58,-199.94"/>
</a>
</g>
</g>
<!-- Node3 -->
<g id="Node000003" class="node">
<title>Node3</title>
<g id="a_Node000003"><a xlink:href="downloadmanager_8hpp.html" target="_top" xlink:title=" ">
<polygon fill="white" stroke="#666666" points="313,-156.5 138,-156.5 138,-137.5 313,-137.5 313,-156.5"/>
<text text-anchor="middle" x="225.5" y="-144.5" font-family="Helvetica,sans-Serif" font-size="10.00">src/client/downloadmanager.hpp</text>
</a>
</g>
</g>
<!-- Node1&#45;&gt;Node3 -->
<g id="edge2_Node000001_Node000003" class="edge">
<title>Node1&#45;&gt;Node3</title>
<g id="a_edge2_Node000001_Node000003"><a xlink:title=" ">
<path fill="none" stroke="#63b8ff" d="M552.28,-196.52C476.45,-185.26 354.38,-167.14 282.86,-156.52"/>
<polygon fill="#63b8ff" stroke="#63b8ff" points="551.8,-199.99 562.21,-197.99 552.83,-193.06 551.8,-199.99"/>
</a>
</g>
</g>
<!-- Node5 -->
<g id="Node000005" class="node">
<title>Node5</title>
<g id="a_Node000005"><a xlink:href="process__input_8hpp.html" target="_top" xlink:title=" ">
<polygon fill="white" stroke="#666666" points="101,-96 0,-96 0,-66 101,-66 101,-96"/>
<text text-anchor="start" x="8" y="-84" font-family="Helvetica,sans-Serif" font-size="10.00">src/client/process</text>
<text text-anchor="middle" x="50.5" y="-73" font-family="Helvetica,sans-Serif" font-size="10.00">_input.hpp</text>
</a>
</g>
</g>
<!-- Node1&#45;&gt;Node5 -->
<g id="edge8_Node000001_Node000005" class="edge">
<title>Node1&#45;&gt;Node5</title>
<g id="a_edge8_Node000001_Node000005"><a xlink:title=" ">
<path fill="none" stroke="#63b8ff" d="M534.26,-205.82C413.13,-203.68 198.15,-195.15 128.5,-162 97.67,-147.33 72.37,-115.02 59.56,-96.26"/>
<polygon fill="#63b8ff" stroke="#63b8ff" points="534.55,-209.33 544.61,-206 534.67,-202.33 534.55,-209.33"/>
</a>
</g>
</g>
<!-- Node7 -->
<g id="Node000007" class="node">
<title>Node7</title>
<g id="a_Node000007"><a xlink:href="client_2process__request_8hpp.html" target="_top" xlink:title=" ">
<polygon fill="white" stroke="#666666" points="527,-162 426,-162 426,-132 527,-132 527,-162"/>
<text text-anchor="start" x="434" y="-150" font-family="Helvetica,sans-Serif" font-size="10.00">src/client/process</text>
<text text-anchor="middle" x="476.5" y="-139" font-family="Helvetica,sans-Serif" font-size="10.00">_request.hpp</text>
</a>
</g>
</g>
<!-- Node1&#45;&gt;Node7 -->
<g id="edge9_Node000001_Node000007" class="edge">
<title>Node1&#45;&gt;Node7</title>
<g id="a_edge9_Node000001_Node000007"><a xlink:title=" ">
<path fill="none" stroke="#63b8ff" d="M589.45,-194.21C566.5,-184.82 534.84,-171.87 510.88,-162.06"/>
<polygon fill="#63b8ff" stroke="#63b8ff" points="588.13,-197.45 598.71,-197.99 590.78,-190.97 588.13,-197.45"/>
</a>
</g>
</g>
<!-- Node9 -->
<g id="Node000009" class="node">
<title>Node9</title>
<g id="a_Node000009"><a xlink:href="transaction_8hpp.html" target="_top" xlink:title=" ">
<polygon fill="white" stroke="#666666" points="867,-156.5 718,-156.5 718,-137.5 867,-137.5 867,-156.5"/>
<text text-anchor="middle" x="792.5" y="-144.5" font-family="Helvetica,sans-Serif" font-size="10.00">src/models/transaction.hpp</text>
</a>
</g>
</g>
<!-- Node1&#45;&gt;Node9 -->
<g id="edge12_Node000001_Node000009" class="edge">
<title>Node1&#45;&gt;Node9</title>
<g id="a_edge12_Node000001_Node000009"><a xlink:title=" ">
<path fill="none" stroke="#63b8ff" d="M654.48,-194.67C687.94,-183.36 737.58,-166.57 767.31,-156.52"/>
<polygon fill="#63b8ff" stroke="#63b8ff" points="653.01,-191.47 644.66,-197.99 655.25,-198.11 653.01,-191.47"/>
</a>
</g>
</g>
<!-- Node10 -->
<g id="Node000010" class="node">
<title>Node10</title>
<g id="a_Node000010"><a xlink:href="parse__request_8hpp.html" target="_top" xlink:title=" ">
<polygon fill="white" stroke="#666666" points="873,-90.5 712,-90.5 712,-71.5 873,-71.5 873,-90.5"/>
<text text-anchor="middle" x="792.5" y="-78.5" font-family="Helvetica,sans-Serif" font-size="10.00">src/tracker/parse_request.hpp</text>
</a>
</g>
</g>
<!-- Node1&#45;&gt;Node10 -->
<g id="edge28_Node000001_Node000010" class="edge">
<title>Node1&#45;&gt;Node10</title>
<g id="a_edge28_Node000001_Node000010"><a xlink:title=" ">
<path fill="none" stroke="#63b8ff" d="M636.34,-191C653.76,-175.31 682.09,-150.73 708.5,-132 731.06,-116 758.95,-100.1 776.23,-90.67"/>
<polygon fill="#63b8ff" stroke="#63b8ff" points="633.76,-188.62 628.71,-197.93 638.47,-193.8 633.76,-188.62"/>
</a>
</g>
</g>
<!-- Node13 -->
<g id="Node000013" class="node">
<title>Node13</title>
<g id="a_Node000013"><a xlink:href="tracker_2process__request_8hpp.html" target="_top" xlink:title=" ">
<polygon fill="white" stroke="#666666" points="1199.5,-96 1091.5,-96 1091.5,-66 1199.5,-66 1199.5,-96"/>
<text text-anchor="start" x="1099.5" y="-84" font-family="Helvetica,sans-Serif" font-size="10.00">src/tracker/process</text>
<text text-anchor="middle" x="1145.5" y="-73" font-family="Helvetica,sans-Serif" font-size="10.00">_request.hpp</text>
</a>
</g>
</g>
<!-- Node1&#45;&gt;Node13 -->
<g id="edge29_Node000001_Node000013" class="edge">
<title>Node1&#45;&gt;Node13</title>
<g id="a_edge29_Node000001_Node000013"><a xlink:title=" ">
<path fill="none" stroke="#63b8ff" d="M704.12,-202.3C755.52,-197.24 821.44,-186.15 875.5,-162 895.15,-153.22 894.02,-141.15 913.5,-132 983.01,-99.35 1007.46,-112.33 1082.5,-96 1085.35,-95.38 1088.26,-94.74 1091.21,-94.1"/>
<polygon fill="#63b8ff" stroke="#63b8ff" points="703.67,-198.83 694.04,-203.24 704.32,-205.8 703.67,-198.83"/>
</a>
</g>
</g>
<!-- Node17 -->
<g id="Node000017" class="node">
<title>Node17</title>
<g id="a_Node000017"><a xlink:href="tcp__server_8hpp.html" target="_top" xlink:title=" ">
<polygon fill="white" stroke="#666666" points="693.5,-90.5 545.5,-90.5 545.5,-71.5 693.5,-71.5 693.5,-90.5"/>
<text text-anchor="middle" x="619.5" y="-78.5" font-family="Helvetica,sans-Serif" font-size="10.00">src/network/tcp_server.hpp</text>
</a>
</g>
</g>
<!-- Node1&#45;&gt;Node17 -->
<g id="edge23_Node000001_Node000017" class="edge">
<title>Node1&#45;&gt;Node17</title>
<g id="a_edge23_Node000001_Node000017"><a xlink:title=" ">
<path fill="none" stroke="#63b8ff" d="M619.5,-187.74C619.5,-160.36 619.5,-110.58 619.5,-90.62"/>
<polygon fill="#63b8ff" stroke="#63b8ff" points="616,-187.94 619.5,-197.94 623,-187.94 616,-187.94"/>
</a>
</g>
</g>
<!-- Node19 -->
<g id="Node000019" class="node">
<title>Node19</title>
<g id="a_Node000019"><a xlink:href="tcp__socket_8cpp.html" target="_top" xlink:title=" ">
<polygon fill="white" stroke="#666666" points="1071,-156.5 922,-156.5 922,-137.5 1071,-137.5 1071,-156.5"/>
<text text-anchor="middle" x="996.5" y="-144.5" font-family="Helvetica,sans-Serif" font-size="10.00">src/network/tcp_socket.cpp</text>
</a>
</g>
</g>
<!-- Node1&#45;&gt;Node19 -->
<g id="edge27_Node000001_Node000019" class="edge">
<title>Node1&#45;&gt;Node19</title>
<g id="a_edge27_Node000001_Node000019"><a xlink:title=" ">
<path fill="none" stroke="#63b8ff" d="M685.68,-196.41C744.27,-187.45 832.09,-173.96 908.5,-162 919.66,-160.25 931.61,-158.36 942.99,-156.56"/>
<polygon fill="#63b8ff" stroke="#63b8ff" points="684.81,-193 675.46,-197.97 685.87,-199.92 684.81,-193"/>
</a>
</g>
</g>
<!-- Node3&#45;&gt;Node2 -->
<g id="edge3_Node000003_Node000002" class="edge">
<title>Node3&#45;&gt;Node2</title>
<g id="a_edge3_Node000003_Node000002"><a xlink:title=" ">
<path fill="none" stroke="#63b8ff" d="M252.75,-132.75C268.71,-123.98 288.42,-111.29 302.5,-96 322.9,-73.84 336.79,-40.22 342.54,-24.57"/>
<polygon fill="#63b8ff" stroke="#63b8ff" points="251.06,-129.68 243.86,-137.45 254.34,-135.87 251.06,-129.68"/>
</a>
</g>
</g>
<!-- Node4 -->
<g id="Node000004" class="node">
<title>Node4</title>
<g id="a_Node000004"><a xlink:href="downloadmanager_8cpp.html" target="_top" xlink:title=" ">
<polygon fill="white" stroke="#666666" points="293.5,-90.5 119.5,-90.5 119.5,-71.5 293.5,-71.5 293.5,-90.5"/>
<text text-anchor="middle" x="206.5" y="-78.5" font-family="Helvetica,sans-Serif" font-size="10.00">src/client/downloadmanager.cpp</text>
</a>
</g>
</g>
<!-- Node3&#45;&gt;Node4 -->
<g id="edge4_Node000003_Node000004" class="edge">
<title>Node3&#45;&gt;Node4</title>
<g id="a_edge4_Node000003_Node000004"><a xlink:title=" ">
<path fill="none" stroke="#63b8ff" d="M219.99,-127.45C216.43,-115.43 211.94,-100.32 209.14,-90.91"/>
<polygon fill="#63b8ff" stroke="#63b8ff" points="216.74,-128.78 222.94,-137.37 223.45,-126.79 216.74,-128.78"/>
</a>
</g>
</g>
<!-- Node3&#45;&gt;Node5 -->
<g id="edge5_Node000003_Node000005" class="edge">
<title>Node3&#45;&gt;Node5</title>
<g id="a_edge5_Node000003_Node000005"><a xlink:title=" ">
<path fill="none" stroke="#63b8ff" d="M192.49,-133.93C163.1,-123.18 120.07,-107.44 89.1,-96.12"/>
<polygon fill="#63b8ff" stroke="#63b8ff" points="191.3,-137.22 201.9,-137.37 193.71,-130.65 191.3,-137.22"/>
</a>
</g>
</g>
<!-- Node5&#45;&gt;Node2 -->
<g id="edge6_Node000005_Node000002" class="edge">
<title>Node5&#45;&gt;Node2</title>
<g id="a_edge6_Node000005_Node000002"><a xlink:title=" ">
<path fill="none" stroke="#63b8ff" d="M111.16,-65.88C185.02,-49.47 259.32,-33.86 304.27,-24.52"/>
<polygon fill="#63b8ff" stroke="#63b8ff" points="110.22,-62.5 101.22,-68.09 111.74,-69.33 110.22,-62.5"/>
</a>
</g>
</g>
<!-- Node6 -->
<g id="Node000006" class="node">
<title>Node6</title>
<g id="a_Node000006"><a xlink:href="process__input_8cpp.html" target="_top" xlink:title=" ">
<polygon fill="white" stroke="#666666" points="101,-30 0,-30 0,0 101,0 101,-30"/>
<text text-anchor="start" x="8" y="-18" font-family="Helvetica,sans-Serif" font-size="10.00">src/client/process</text>
<text text-anchor="middle" x="50.5" y="-7" font-family="Helvetica,sans-Serif" font-size="10.00">_input.cpp</text>
</a>
</g>
</g>
<!-- Node5&#45;&gt;Node6 -->
<g id="edge7_Node000005_Node000006" class="edge">
<title>Node5&#45;&gt;Node6</title>
<g id="a_edge7_Node000005_Node000006"><a xlink:title=" ">
<path fill="none" stroke="#63b8ff" d="M50.5,-55.54C50.5,-46.96 50.5,-37.61 50.5,-30.16"/>
<polygon fill="#63b8ff" stroke="#63b8ff" points="47,-55.8 50.5,-65.8 54,-55.8 47,-55.8"/>
</a>
</g>
</g>
<!-- Node7&#45;&gt;Node2 -->
<g id="edge10_Node000007_Node000002" class="edge">
<title>Node7&#45;&gt;Node2</title>
<g id="a_edge10_Node000007_Node000002"><a xlink:title=" ">
<path fill="none" stroke="#63b8ff" d="M450.18,-125.5C439.42,-116.76 427.05,-106.23 416.5,-96 391.43,-71.7 364.89,-39.95 352.56,-24.79"/>
<polygon fill="#63b8ff" stroke="#63b8ff" points="448.05,-128.27 458.04,-131.8 452.43,-122.81 448.05,-128.27"/>
</a>
</g>
</g>
<!-- Node8 -->
<g id="Node000008" class="node">
<title>Node8</title>
<g id="a_Node000008"><a xlink:href="client_2process__request_8cpp.html" target="_top" xlink:title=" ">
<polygon fill="white" stroke="#666666" points="527,-96 426,-96 426,-66 527,-66 527,-96"/>
<text text-anchor="start" x="434" y="-84" font-family="Helvetica,sans-Serif" font-size="10.00">src/client/process</text>
<text text-anchor="middle" x="476.5" y="-73" font-family="Helvetica,sans-Serif" font-size="10.00">_request.cpp</text>
</a>
</g>
</g>
<!-- Node7&#45;&gt;Node8 -->
<g id="edge11_Node000007_Node000008" class="edge">
<title>Node7&#45;&gt;Node8</title>
<g id="a_edge11_Node000007_Node000008"><a xlink:title=" ">
<path fill="none" stroke="#63b8ff" d="M476.5,-121.54C476.5,-112.96 476.5,-103.61 476.5,-96.16"/>
<polygon fill="#63b8ff" stroke="#63b8ff" points="473,-121.8 476.5,-131.8 480,-121.8 473,-121.8"/>
</a>
</g>
</g>
<!-- Node9&#45;&gt;Node10 -->
<g id="edge13_Node000009_Node000010" class="edge">
<title>Node9&#45;&gt;Node10</title>
<g id="a_edge13_Node000009_Node000010"><a xlink:title=" ">
<path fill="none" stroke="#63b8ff" d="M792.5,-127.08C792.5,-115.13 792.5,-100.22 792.5,-90.91"/>
<polygon fill="#63b8ff" stroke="#63b8ff" points="789,-127.37 792.5,-137.37 796,-127.37 789,-127.37"/>
</a>
</g>
</g>
<!-- Node9&#45;&gt;Node13 -->
<g id="edge16_Node000009_Node000013" class="edge">
<title>Node9&#45;&gt;Node13</title>
<g id="a_edge16_Node000009_Node000013"><a xlink:title=" ">
<path fill="none" stroke="#63b8ff" d="M856.53,-135.87C915.4,-126.33 1005.03,-111.28 1082.5,-96 1085.36,-95.44 1088.29,-94.84 1091.24,-94.23"/>
<polygon fill="#63b8ff" stroke="#63b8ff" points="855.94,-132.41 846.63,-137.46 857.06,-139.33 855.94,-132.41"/>
</a>
</g>
</g>
<!-- Node15 -->
<g id="Node000015" class="node">
<title>Node15</title>
<g id="a_Node000015"><a xlink:href="transactionsrecord_8hpp.html" target="_top" xlink:title=" ">
<polygon fill="white" stroke="#666666" points="1073.5,-90.5 891.5,-90.5 891.5,-71.5 1073.5,-71.5 1073.5,-90.5"/>
<text text-anchor="middle" x="982.5" y="-78.5" font-family="Helvetica,sans-Serif" font-size="10.00">src/tracker/transactionsrecord.hpp</text>
</a>
</g>
</g>
<!-- Node9&#45;&gt;Node15 -->
<g id="edge19_Node000009_Node000015" class="edge">
<title>Node9&#45;&gt;Node15</title>
<g id="a_edge19_Node000009_Node000015"><a xlink:title=" ">
<path fill="none" stroke="#63b8ff" d="M827.64,-134.16C865.15,-121.53 923.65,-101.82 956.98,-90.6"/>
<polygon fill="#63b8ff" stroke="#63b8ff" points="826.48,-130.86 818.12,-137.37 828.72,-137.49 826.48,-130.86"/>
</a>
</g>
</g>
<!-- Node11 -->
<g id="Node000011" class="node">
<title>Node11</title>
<g id="a_Node000011"><a xlink:href="parse__request_8cpp.html" target="_top" xlink:title=" ">
<polygon fill="white" stroke="#666666" points="744.5,-24.5 584.5,-24.5 584.5,-5.5 744.5,-5.5 744.5,-24.5"/>
<text text-anchor="middle" x="664.5" y="-12.5" font-family="Helvetica,sans-Serif" font-size="10.00">src/tracker/parse_request.cpp</text>
</a>
</g>
</g>
<!-- Node10&#45;&gt;Node11 -->
<g id="edge14_Node000010_Node000011" class="edge">
<title>Node10&#45;&gt;Node11</title>
<g id="a_edge14_Node000010_Node000011"><a xlink:title=" ">
<path fill="none" stroke="#63b8ff" d="M766.22,-66.86C741,-54.25 703.63,-35.56 681.9,-24.7"/>
<polygon fill="#63b8ff" stroke="#63b8ff" points="764.73,-70.03 775.24,-71.37 767.86,-63.77 764.73,-70.03"/>
</a>
</g>
</g>
<!-- Node12 -->
<g id="Node000012" class="node">
<title>Node12</title>
<g id="a_Node000012"><a xlink:href="tracker_8cpp.html" target="_top" xlink:title="The tracker.">
<polygon fill="white" stroke="#666666" points="886.5,-24.5 762.5,-24.5 762.5,-5.5 886.5,-5.5 886.5,-24.5"/>
<text text-anchor="middle" x="824.5" y="-12.5" font-family="Helvetica,sans-Serif" font-size="10.00">src/tracker/tracker.cpp</text>
</a>
</g>
</g>
<!-- Node10&#45;&gt;Node12 -->
<g id="edge15_Node000010_Node000012" class="edge">
<title>Node10&#45;&gt;Node12</title>
<g id="a_edge15_Node000010_Node000012"><a xlink:title=" ">
<path fill="none" stroke="#63b8ff" d="M801.41,-62.18C807.47,-50.05 815.25,-34.51 820.05,-24.91"/>
<polygon fill="#63b8ff" stroke="#63b8ff" points="798.16,-60.86 796.82,-71.37 804.42,-63.99 798.16,-60.86"/>
</a>
</g>
</g>
<!-- Node13&#45;&gt;Node12 -->
<g id="edge18_Node000013_Node000012" class="edge">
<title>Node13&#45;&gt;Node12</title>
<g id="a_edge18_Node000013_Node000012"><a xlink:title=" ">
<path fill="none" stroke="#63b8ff" d="M1081.31,-65.78C997.98,-48.6 975.49,-45.59 895.5,-30 886.5,-28.25 876.86,-26.35 867.67,-24.55"/>
<polygon fill="#63b8ff" stroke="#63b8ff" points="1080.72,-69.24 1091.22,-67.84 1082.14,-62.38 1080.72,-69.24"/>
</a>
</g>
</g>
<!-- Node14 -->
<g id="Node000014" class="node">
<title>Node14</title>
<g id="a_Node000014"><a xlink:href="tracker_2process__request_8cpp.html" target="_top" xlink:title=" ">
<polygon fill="white" stroke="#666666" points="1212.5,-30 1104.5,-30 1104.5,0 1212.5,0 1212.5,-30"/>
<text text-anchor="start" x="1112.5" y="-18" font-family="Helvetica,sans-Serif" font-size="10.00">src/tracker/process</text>
<text text-anchor="middle" x="1158.5" y="-7" font-family="Helvetica,sans-Serif" font-size="10.00">_request.cpp</text>
</a>
</g>
</g>
<!-- Node13&#45;&gt;Node14 -->
<g id="edge17_Node000013_Node000014" class="edge">
<title>Node13&#45;&gt;Node14</title>
<g id="a_edge17_Node000013_Node000014"><a xlink:title=" ">
<path fill="none" stroke="#63b8ff" d="M1150.41,-55.83C1152.17,-47.17 1154.09,-37.7 1155.62,-30.16"/>
<polygon fill="#63b8ff" stroke="#63b8ff" points="1146.95,-55.3 1148.39,-65.8 1153.81,-56.69 1146.95,-55.3"/>
</a>
</g>
</g>
<!-- Node15&#45;&gt;Node12 -->
<g id="edge21_Node000015_Node000012" class="edge">
<title>Node15&#45;&gt;Node12</title>
<g id="a_edge21_Node000015_Node000012"><a xlink:title=" ">
<path fill="none" stroke="#63b8ff" d="M951.67,-67.51C920.44,-54.86 872.97,-35.63 845.72,-24.6"/>
<polygon fill="#63b8ff" stroke="#63b8ff" points="950.61,-70.86 961.19,-71.37 953.24,-64.37 950.61,-70.86"/>
</a>
</g>
</g>
<!-- Node15&#45;&gt;Node14 -->
<g id="edge20_Node000015_Node000014" class="edge">
<title>Node15&#45;&gt;Node14</title>
<g id="a_edge20_Node000015_Node000014"><a xlink:title=" ">
<path fill="none" stroke="#63b8ff" d="M1015.7,-67.93C1045.26,-57.18 1088.53,-41.44 1119.68,-30.12"/>
<polygon fill="#63b8ff" stroke="#63b8ff" points="1014.44,-64.66 1006.24,-71.37 1016.83,-71.24 1014.44,-64.66"/>
</a>
</g>
</g>
<!-- Node16 -->
<g id="Node000016" class="node">
<title>Node16</title>
<g id="a_Node000016"><a xlink:href="transactionsrecord_8cpp.html" target="_top" xlink:title=" ">
<polygon fill="white" stroke="#666666" points="1086.5,-24.5 904.5,-24.5 904.5,-5.5 1086.5,-5.5 1086.5,-24.5"/>
<text text-anchor="middle" x="995.5" y="-12.5" font-family="Helvetica,sans-Serif" font-size="10.00">src/tracker/transactionsrecord.cpp</text>
</a>
</g>
</g>
<!-- Node15&#45;&gt;Node16 -->
<g id="edge22_Node000015_Node000016" class="edge">
<title>Node15&#45;&gt;Node16</title>
<g id="a_edge22_Node000015_Node000016"><a xlink:title=" ">
<path fill="none" stroke="#63b8ff" d="M986.27,-61.45C988.71,-49.43 991.78,-34.32 993.69,-24.91"/>
<polygon fill="#63b8ff" stroke="#63b8ff" points="982.81,-60.87 984.25,-71.37 989.67,-62.27 982.81,-60.87"/>
</a>
</g>
</g>
<!-- Node17&#45;&gt;Node2 -->
<g id="edge24_Node000017_Node000002" class="edge">
<title>Node17&#45;&gt;Node2</title>
<g id="a_edge24_Node000017_Node000002"><a xlink:title=" ">
<path fill="none" stroke="#63b8ff" d="M572.84,-69.1C518.87,-56.49 431.16,-36.01 381.95,-24.51"/>
<polygon fill="#63b8ff" stroke="#63b8ff" points="572.3,-72.57 582.83,-71.44 573.89,-65.75 572.3,-72.57"/>
</a>
</g>
</g>
<!-- Node17&#45;&gt;Node12 -->
<g id="edge26_Node000017_Node000012" class="edge">
<title>Node17&#45;&gt;Node12</title>
<g id="a_edge26_Node000017_Node000012"><a xlink:title=" ">
<path fill="none" stroke="#63b8ff" d="M656.9,-68.32C697.34,-55.7 760.85,-35.87 796.96,-24.6"/>
<polygon fill="#63b8ff" stroke="#63b8ff" points="655.65,-65.05 647.15,-71.37 657.74,-71.73 655.65,-65.05"/>
</a>
</g>
</g>
<!-- Node18 -->
<g id="Node000018" class="node">
<title>Node18</title>
<g id="a_Node000018"><a xlink:href="tcp__server_8cpp.html" target="_top" xlink:title=" ">
<polygon fill="white" stroke="#666666" points="566,-24.5 419,-24.5 419,-5.5 566,-5.5 566,-24.5"/>
<text text-anchor="middle" x="492.5" y="-12.5" font-family="Helvetica,sans-Serif" font-size="10.00">src/network/tcp_server.cpp</text>
</a>
</g>
</g>
<!-- Node17&#45;&gt;Node18 -->
<g id="edge25_Node000017_Node000018" class="edge">
<title>Node17&#45;&gt;Node18</title>
<g id="a_edge25_Node000017_Node000018"><a xlink:title=" ">
<path fill="none" stroke="#63b8ff" d="M593.43,-66.86C568.4,-54.25 531.32,-35.56 509.76,-24.7"/>
<polygon fill="#63b8ff" stroke="#63b8ff" points="591.87,-69.99 602.37,-71.37 595.02,-63.74 591.87,-69.99"/>
</a>
</g>
</g>
</g>
</svg>
