<?xml version="1.0" encoding="UTF-8" standalone="no"?>
<!DOCTYPE svg PUBLIC "-//W3C//DTD SVG 1.1//EN"
 "http://www.w3.org/Graphics/SVG/1.1/DTD/svg11.dtd">
<!-- Generated by graphviz version 2.43.0 (0)
 -->
<!-- Title: src/network/tcp_socket.hpp Pages: 1 -->
<svg width="1002pt" height="225pt"
 viewBox="0.00 0.00 1002.00 225.00" xmlns="http://www.w3.org/2000/svg" xmlns:xlink="http://www.w3.org/1999/xlink">
<g id="graph0" class="graph" transform="scale(1 1) rotate(0) translate(4 221)">
<title>src/network/tcp_socket.hpp</title>
<!-- Node1 -->
<g id="Node000001" class="node">
<title>Node1</title>
<g id="a_Node000001"><a xlink:title=" ">
<polygon fill="#999999" stroke="#666666" points="593,-217 444,-217 444,-198 593,-198 593,-217"/>
<text text-anchor="middle" x="518.5" y="-205" font-family="Helvetica,sans-Serif" font-size="10.00">src/network/tcp_socket.hpp</text>
</a>
</g>
</g>
<!-- Node2 -->
<g id="Node000002" class="node">
<title>Node2</title>
<g id="a_Node000002"><a xlink:href="client_8cpp.html" target="_top" xlink:title="The entrypoint to the client.">
<polygon fill="white" stroke="#666666" points="111,-90.5 0,-90.5 0,-71.5 111,-71.5 111,-90.5"/>
<text text-anchor="middle" x="55.5" y="-78.5" font-family="Helvetica,sans-Serif" font-size="10.00">src/client/client.cpp</text>
</a>
</g>
</g>
<!-- Node1&#45;&gt;Node2 -->
<g id="edge1_Node000001_Node000002" class="edge">
<title>Node1&#45;&gt;Node2</title>
<g id="a_edge1_Node000001_Node000002"><a xlink:title=" ">
<path fill="none" stroke="#63b8ff" d="M433.66,-204.57C332.87,-200.99 171.81,-190.82 119.5,-162 89.12,-145.26 67.89,-107.61 59.5,-90.61"/>
<polygon fill="#63b8ff" stroke="#63b8ff" points="433.71,-208.08 443.82,-204.92 433.94,-201.08 433.71,-208.08"/>
</a>
</g>
</g>
<!-- Node3 -->
<g id="Node000003" class="node">
<title>Node3</title>
<g id="a_Node000003"><a xlink:href="process__input_8hpp.html" target="_top" xlink:title=" ">
<polygon fill="white" stroke="#666666" points="230,-162 129,-162 129,-132 230,-132 230,-162"/>
<text text-anchor="start" x="137" y="-150" font-family="Helvetica,sans-Serif" font-size="10.00">src/client/process</text>
<text text-anchor="middle" x="179.5" y="-139" font-family="Helvetica,sans-Serif" font-size="10.00">_input.hpp</text>
</a>
</g>
</g>
<!-- Node1&#45;&gt;Node3 -->
<g id="edge2_Node000001_Node000003" class="edge">
<title>Node1&#45;&gt;Node3</title>
<g id="a_edge2_Node000001_Node000003"><a xlink:title=" ">
<path fill="none" stroke="#63b8ff" d="M459.13,-196.26C394.28,-185.06 291.47,-167.32 230.24,-156.76"/>
<polygon fill="#63b8ff" stroke="#63b8ff" points="458.76,-199.74 469.21,-197.99 459.95,-192.84 458.76,-199.74"/>
</a>
</g>
</g>
<!-- Node5 -->
<g id="Node000005" class="node">
<title>Node5</title>
<g id="a_Node000005"><a xlink:href="transaction_8hpp.html" target="_top" xlink:title=" ">
<polygon fill="white" stroke="#666666" points="593,-156.5 444,-156.5 444,-137.5 593,-137.5 593,-156.5"/>
<text text-anchor="middle" x="518.5" y="-144.5" font-family="Helvetica,sans-Serif" font-size="10.00">src/models/transaction.hpp</text>
</a>
</g>
</g>
<!-- Node1&#45;&gt;Node5 -->
<g id="edge5_Node000001_Node000005" class="edge">
<title>Node1&#45;&gt;Node5</title>
<g id="a_edge5_Node000001_Node000005"><a xlink:title=" ">
<path fill="none" stroke="#63b8ff" d="M518.5,-187.66C518.5,-177.24 518.5,-164.8 518.5,-156.67"/>
<polygon fill="#63b8ff" stroke="#63b8ff" points="515,-187.87 518.5,-197.87 522,-187.87 515,-187.87"/>
</a>
</g>
</g>
<!-- Node6 -->
<g id="Node000006" class="node">
<title>Node6</title>
<g id="a_Node000006"><a xlink:href="parse__request_8hpp.html" target="_top" xlink:title=" ">
<polygon fill="white" stroke="#666666" points="409,-90.5 248,-90.5 248,-71.5 409,-71.5 409,-90.5"/>
<text text-anchor="middle" x="328.5" y="-78.5" font-family="Helvetica,sans-Serif" font-size="10.00">src/tracker/parse_request.hpp</text>
</a>
</g>
</g>
<!-- Node1&#45;&gt;Node6 -->
<g id="edge20_Node000001_Node000006" class="edge">
<title>Node1&#45;&gt;Node6</title>
<g id="a_edge20_Node000001_Node000006"><a xlink:title=" ">
<path fill="none" stroke="#63b8ff" d="M491.11,-193.38C474.39,-185.03 452.77,-173.63 434.5,-162 397.55,-138.48 357.06,-105.8 338.63,-90.52"/>
<polygon fill="#63b8ff" stroke="#63b8ff" points="489.82,-196.65 500.34,-197.92 492.91,-190.37 489.82,-196.65"/>
</a>
</g>
</g>
<!-- Node9 -->
<g id="Node000009" class="node">
<title>Node9</title>
<g id="a_Node000009"><a xlink:href="process__request_8hpp.html" target="_top" xlink:title=" ">
<polygon fill="white" stroke="#666666" points="735.5,-96 627.5,-96 627.5,-66 735.5,-66 735.5,-96"/>
<text text-anchor="start" x="635.5" y="-84" font-family="Helvetica,sans-Serif" font-size="10.00">src/tracker/process</text>
<text text-anchor="middle" x="681.5" y="-73" font-family="Helvetica,sans-Serif" font-size="10.00">_request.hpp</text>
</a>
</g>
</g>
<!-- Node1&#45;&gt;Node9 -->
<g id="edge21_Node000001_Node000009" class="edge">
<title>Node1&#45;&gt;Node9</title>
<g id="a_edge21_Node000001_Node000009"><a xlink:title=" ">
<path fill="none" stroke="#63b8ff" d="M547.44,-193.59C563.98,-185.58 584.71,-174.47 601.5,-162 628.31,-142.09 654.79,-113.35 669.56,-96.28"/>
<polygon fill="#63b8ff" stroke="#63b8ff" points="545.79,-190.5 538.24,-197.93 548.78,-196.83 545.79,-190.5"/>
</a>
</g>
</g>
<!-- Node13 -->
<g id="Node000013" class="node">
<title>Node13</title>
<g id="a_Node000013"><a xlink:href="tcp__server_8hpp.html" target="_top" xlink:title=" ">
<polygon fill="white" stroke="#666666" points="826.5,-156.5 678.5,-156.5 678.5,-137.5 826.5,-137.5 826.5,-156.5"/>
<text text-anchor="middle" x="752.5" y="-144.5" font-family="Helvetica,sans-Serif" font-size="10.00">src/network/tcp_server.hpp</text>
</a>
</g>
</g>
<!-- Node1&#45;&gt;Node13 -->
<g id="edge16_Node000001_Node000013" class="edge">
<title>Node1&#45;&gt;Node13</title>
<g id="a_edge16_Node000001_Node000013"><a xlink:title=" ">
<path fill="none" stroke="#63b8ff" d="M562.35,-195.54C607.58,-184.23 677.17,-166.83 718.43,-156.52"/>
<polygon fill="#63b8ff" stroke="#63b8ff" points="561.38,-192.17 552.53,-197.99 563.08,-198.96 561.38,-192.17"/>
</a>
</g>
</g>
<!-- Node15 -->
<g id="Node000015" class="node">
<title>Node15</title>
<g id="a_Node000015"><a xlink:href="tcp__socket_8cpp.html" target="_top" xlink:title=" ">
<polygon fill="white" stroke="#666666" points="994,-156.5 845,-156.5 845,-137.5 994,-137.5 994,-156.5"/>
<text text-anchor="middle" x="919.5" y="-144.5" font-family="Helvetica,sans-Serif" font-size="10.00">src/network/tcp_socket.cpp</text>
</a>
</g>
</g>
<!-- Node1&#45;&gt;Node15 -->
<g id="edge19_Node000001_Node000015" class="edge">
<title>Node1&#45;&gt;Node15</title>
<g id="a_edge19_Node000001_Node000015"><a xlink:title=" ">
<path fill="none" stroke="#63b8ff" d="M592.67,-196.64C656.96,-187.95 752.46,-174.75 835.5,-162 846.61,-160.3 858.52,-158.37 869.79,-156.5"/>
<polygon fill="#63b8ff" stroke="#63b8ff" points="592.07,-193.19 582.63,-197.99 593,-200.12 592.07,-193.19"/>
</a>
</g>
</g>
<!-- Node3&#45;&gt;Node2 -->
<g id="edge3_Node000003_Node000002" class="edge">
<title>Node3&#45;&gt;Node2</title>
<g id="a_edge3_Node000003_Node000002"><a xlink:title=" ">
<path fill="none" stroke="#63b8ff" d="M143.26,-127.3C119.7,-115.14 90.1,-99.86 72,-90.52"/>
<polygon fill="#63b8ff" stroke="#63b8ff" points="141.8,-130.48 152.29,-131.95 145.01,-124.26 141.8,-130.48"/>
</a>
</g>
</g>
<!-- Node4 -->
<g id="Node000004" class="node">
<title>Node4</title>
<g id="a_Node000004"><a xlink:href="process__input_8cpp.html" target="_top" xlink:title=" ">
<polygon fill="white" stroke="#666666" points="230,-96 129,-96 129,-66 230,-66 230,-96"/>
<text text-anchor="start" x="137" y="-84" font-family="Helvetica,sans-Serif" font-size="10.00">src/client/process</text>
<text text-anchor="middle" x="179.5" y="-73" font-family="Helvetica,sans-Serif" font-size="10.00">_input.cpp</text>
</a>
</g>
</g>
<!-- Node3&#45;&gt;Node4 -->
<g id="edge4_Node000003_Node000004" class="edge">
<title>Node3&#45;&gt;Node4</title>
<g id="a_edge4_Node000003_Node000004"><a xlink:title=" ">
<path fill="none" stroke="#63b8ff" d="M179.5,-121.54C179.5,-112.96 179.5,-103.61 179.5,-96.16"/>
<polygon fill="#63b8ff" stroke="#63b8ff" points="176,-121.8 179.5,-131.8 183,-121.8 176,-121.8"/>
</a>
</g>
</g>
<!-- Node5&#45;&gt;Node6 -->
<g id="edge6_Node000005_Node000006" class="edge">
<title>Node5&#45;&gt;Node6</title>
<g id="a_edge6_Node000005_Node000006"><a xlink:title=" ">
<path fill="none" stroke="#63b8ff" d="M483.36,-134.16C445.85,-121.53 387.35,-101.82 354.02,-90.6"/>
<polygon fill="#63b8ff" stroke="#63b8ff" points="482.28,-137.49 492.88,-137.37 484.52,-130.86 482.28,-137.49"/>
</a>
</g>
</g>
<!-- Node5&#45;&gt;Node9 -->
<g id="edge9_Node000005_Node000009" class="edge">
<title>Node5&#45;&gt;Node9</title>
<g id="a_edge9_Node000005_Node000009"><a xlink:title=" ">
<path fill="none" stroke="#63b8ff" d="M549.96,-133.65C577.32,-122.9 616.95,-107.35 645.55,-96.12"/>
<polygon fill="#63b8ff" stroke="#63b8ff" points="548.51,-130.46 540.48,-137.37 551.07,-136.97 548.51,-130.46"/>
</a>
</g>
</g>
<!-- Node11 -->
<g id="Node000011" class="node">
<title>Node11</title>
<g id="a_Node000011"><a xlink:href="transactionsrecord_8hpp.html" target="_top" xlink:title=" ">
<polygon fill="white" stroke="#666666" points="609.5,-90.5 427.5,-90.5 427.5,-71.5 609.5,-71.5 609.5,-90.5"/>
<text text-anchor="middle" x="518.5" y="-78.5" font-family="Helvetica,sans-Serif" font-size="10.00">src/tracker/transactionsrecord.hpp</text>
</a>
</g>
</g>
<!-- Node5&#45;&gt;Node11 -->
<g id="edge12_Node000005_Node000011" class="edge">
<title>Node5&#45;&gt;Node11</title>
<g id="a_edge12_Node000005_Node000011"><a xlink:title=" ">
<path fill="none" stroke="#63b8ff" d="M518.5,-127.08C518.5,-115.13 518.5,-100.22 518.5,-90.91"/>
<polygon fill="#63b8ff" stroke="#63b8ff" points="515,-127.37 518.5,-137.37 522,-127.37 515,-127.37"/>
</a>
</g>
</g>
<!-- Node7 -->
<g id="Node000007" class="node">
<title>Node7</title>
<g id="a_Node000007"><a xlink:href="parse__request_8cpp.html" target="_top" xlink:title=" ">
<polygon fill="white" stroke="#666666" points="334.5,-24.5 174.5,-24.5 174.5,-5.5 334.5,-5.5 334.5,-24.5"/>
<text text-anchor="middle" x="254.5" y="-12.5" font-family="Helvetica,sans-Serif" font-size="10.00">src/tracker/parse_request.cpp</text>
</a>
</g>
</g>
<!-- Node6&#45;&gt;Node7 -->
<g id="edge7_Node000006_Node000007" class="edge">
<title>Node6&#45;&gt;Node7</title>
<g id="a_edge7_Node000006_Node000007"><a xlink:title=" ">
<path fill="none" stroke="#63b8ff" d="M310.79,-64.68C296.42,-52.26 276.68,-35.18 264.8,-24.91"/>
<polygon fill="#63b8ff" stroke="#63b8ff" points="308.67,-67.47 318.52,-71.37 313.25,-62.18 308.67,-67.47"/>
</a>
</g>
</g>
<!-- Node8 -->
<g id="Node000008" class="node">
<title>Node8</title>
<g id="a_Node000008"><a xlink:href="tracker_8cpp.html" target="_top" xlink:title="The tracker.">
<polygon fill="white" stroke="#666666" points="676.5,-24.5 552.5,-24.5 552.5,-5.5 676.5,-5.5 676.5,-24.5"/>
<text text-anchor="middle" x="614.5" y="-12.5" font-family="Helvetica,sans-Serif" font-size="10.00">src/tracker/tracker.cpp</text>
</a>
</g>
</g>
<!-- Node6&#45;&gt;Node8 -->
<g id="edge8_Node000006_Node000008" class="edge">
<title>Node6&#45;&gt;Node8</title>
<g id="a_edge8_Node000006_Node000008"><a xlink:title=" ">
<path fill="none" stroke="#63b8ff" d="M376.86,-69.18C433.16,-56.58 524.98,-36.03 576.45,-24.51"/>
<polygon fill="#63b8ff" stroke="#63b8ff" points="375.77,-65.84 366.77,-71.44 377.3,-72.67 375.77,-65.84"/>
</a>
</g>
</g>
<!-- Node9&#45;&gt;Node8 -->
<g id="edge11_Node000009_Node000008" class="edge">
<title>Node9&#45;&gt;Node8</title>
<g id="a_edge11_Node000009_Node000008"><a xlink:title=" ">
<path fill="none" stroke="#63b8ff" d="M659.1,-58.6C647.05,-47.1 632.84,-33.52 623.76,-24.84"/>
<polygon fill="#63b8ff" stroke="#63b8ff" points="656.98,-61.42 666.63,-65.8 661.82,-56.36 656.98,-61.42"/>
</a>
</g>
</g>
<!-- Node10 -->
<g id="Node000010" class="node">
<title>Node10</title>
<g id="a_Node000010"><a xlink:href="process__request_8cpp.html" target="_top" xlink:title=" ">
<polygon fill="white" stroke="#666666" points="802.5,-30 694.5,-30 694.5,0 802.5,0 802.5,-30"/>
<text text-anchor="start" x="702.5" y="-18" font-family="Helvetica,sans-Serif" font-size="10.00">src/tracker/process</text>
<text text-anchor="middle" x="748.5" y="-7" font-family="Helvetica,sans-Serif" font-size="10.00">_request.cpp</text>
</a>
</g>
</g>
<!-- Node9&#45;&gt;Node10 -->
<g id="edge10_Node000009_Node000010" class="edge">
<title>Node9&#45;&gt;Node10</title>
<g id="a_edge10_Node000009_Node000010"><a xlink:title=" ">
<path fill="none" stroke="#63b8ff" d="M703.85,-58.65C713.67,-49.27 724.92,-38.53 733.67,-30.16"/>
<polygon fill="#63b8ff" stroke="#63b8ff" points="701.18,-56.36 696.37,-65.8 706.02,-61.42 701.18,-56.36"/>
</a>
</g>
</g>
<!-- Node11&#45;&gt;Node8 -->
<g id="edge14_Node000011_Node000008" class="edge">
<title>Node11&#45;&gt;Node8</title>
<g id="a_edge14_Node000011_Node000008"><a xlink:title=" ">
<path fill="none" stroke="#63b8ff" d="M539.98,-65.68C558.84,-53.11 585.66,-35.23 601.45,-24.7"/>
<polygon fill="#63b8ff" stroke="#63b8ff" points="537.83,-62.91 531.45,-71.37 541.71,-68.73 537.83,-62.91"/>
</a>
</g>
</g>
<!-- Node11&#45;&gt;Node10 -->
<g id="edge13_Node000011_Node000010" class="edge">
<title>Node11&#45;&gt;Node10</title>
<g id="a_edge13_Node000011_Node000010"><a xlink:title=" ">
<path fill="none" stroke="#63b8ff" d="M559.39,-68.62C598.05,-57.86 656.17,-41.69 697.77,-30.12"/>
<polygon fill="#63b8ff" stroke="#63b8ff" points="558.21,-65.32 549.52,-71.37 560.09,-72.06 558.21,-65.32"/>
</a>
</g>
</g>
<!-- Node12 -->
<g id="Node000012" class="node">
<title>Node12</title>
<g id="a_Node000012"><a xlink:href="transactionsrecord_8cpp.html" target="_top" xlink:title=" ">
<polygon fill="white" stroke="#666666" points="534.5,-24.5 352.5,-24.5 352.5,-5.5 534.5,-5.5 534.5,-24.5"/>
<text text-anchor="middle" x="443.5" y="-12.5" font-family="Helvetica,sans-Serif" font-size="10.00">src/tracker/transactionsrecord.cpp</text>
</a>
</g>
</g>
<!-- Node11&#45;&gt;Node12 -->
<g id="edge15_Node000011_Node000012" class="edge">
<title>Node11&#45;&gt;Node12</title>
<g id="a_edge15_Node000011_Node000012"><a xlink:title=" ">
<path fill="none" stroke="#63b8ff" d="M500.55,-64.68C485.99,-52.26 465.98,-35.18 453.94,-24.91"/>
<polygon fill="#63b8ff" stroke="#63b8ff" points="498.51,-67.54 508.39,-71.37 503.05,-62.22 498.51,-67.54"/>
</a>
</g>
</g>
<!-- Node13&#45;&gt;Node8 -->
<g id="edge18_Node000013_Node000008" class="edge">
<title>Node13&#45;&gt;Node8</title>
<g id="a_edge18_Node000013_Node000008"><a xlink:title=" ">
<path fill="none" stroke="#63b8ff" d="M755.75,-127.6C757.79,-109.98 757.9,-83.56 744.5,-66 732.44,-50.19 682.2,-34.05 647.83,-24.54"/>
<polygon fill="#63b8ff" stroke="#63b8ff" points="752.29,-127.09 754.3,-137.5 759.21,-128.11 752.29,-127.09"/>
</a>
</g>
</g>
<!-- Node14 -->
<g id="Node000014" class="node">
<title>Node14</title>
<g id="a_Node000014"><a xlink:href="tcp__server_8cpp.html" target="_top" xlink:title=" ">
<polygon fill="white" stroke="#666666" points="939,-90.5 792,-90.5 792,-71.5 939,-71.5 939,-90.5"/>
<text text-anchor="middle" x="865.5" y="-78.5" font-family="Helvetica,sans-Serif" font-size="10.00">src/network/tcp_server.cpp</text>
</a>
</g>
</g>
<!-- Node13&#45;&gt;Node14 -->
<g id="edge17_Node000013_Node000014" class="edge">
<title>Node13&#45;&gt;Node14</title>
<g id="a_edge17_Node000013_Node000014"><a xlink:title=" ">
<path fill="none" stroke="#63b8ff" d="M776.59,-132.36C798.83,-119.76 831.21,-101.42 850.14,-90.7"/>
<polygon fill="#63b8ff" stroke="#63b8ff" points="774.72,-129.39 767.74,-137.37 778.17,-135.49 774.72,-129.39"/>
</a>
</g>
</g>
</g>
</svg>
