<?xml version="1.0" encoding="UTF-8" standalone="no"?>
<!DOCTYPE svg PUBLIC "-//W3C//DTD SVG 1.1//EN"
 "http://www.w3.org/Graphics/SVG/1.1/DTD/svg11.dtd">
<!-- Generated by graphviz version 2.43.0 (0)
 -->
<!-- Title: src/tracker/tracker.cpp Pages: 1 -->
<svg width="1478pt" height="280pt"
 viewBox="0.00 0.00 1478.00 280.00" xmlns="http://www.w3.org/2000/svg" xmlns:xlink="http://www.w3.org/1999/xlink">
<g id="graph0" class="graph" transform="scale(1 1) rotate(0) translate(4 276)">
<title>src/tracker/tracker.cpp</title>
<!-- Node1 -->
<g id="Node000001" class="node">
<title>Node1</title>
<g id="a_Node000001"><a xlink:title="The tracker.">
<polygon fill="#999999" stroke="#666666" points="648,-272 524,-272 524,-253 648,-253 648,-272"/>
<text text-anchor="middle" x="586" y="-260" font-family="Helvetica,sans-Serif" font-size="10.00">src/tracker/tracker.cpp</text>
</a>
</g>
</g>
<!-- Node2 -->
<g id="Node000002" class="node">
<title>Node2</title>
<g id="a_Node000002"><a xlink:title=" ">
<polygon fill="#e0e0e0" stroke="#999999" points="50,-145.5 0,-145.5 0,-126.5 50,-126.5 50,-145.5"/>
<text text-anchor="middle" x="25" y="-133.5" font-family="Helvetica,sans-Serif" font-size="10.00">cstring</text>
</a>
</g>
</g>
<!-- Node1&#45;&gt;Node2 -->
<g id="edge1_Node000001_Node000002" class="edge">
<title>Node1&#45;&gt;Node2</title>
<g id="a_edge1_Node000001_Node000002"><a xlink:title=" ">
<path fill="none" stroke="#63b8ff" d="M523.93,-260.67C412.25,-258.36 182.33,-249.66 110,-217 78.91,-202.96 51.95,-172.79 37.14,-153.78"/>
<polygon fill="#63b8ff" stroke="#63b8ff" points="39.86,-151.57 31.04,-145.69 34.27,-155.78 39.86,-151.57"/>
</a>
</g>
</g>
<!-- Node3 -->
<g id="Node000003" class="node">
<title>Node3</title>
<g id="a_Node000003"><a xlink:title=" ">
<polygon fill="#e0e0e0" stroke="#999999" points="128,-145.5 68,-145.5 68,-126.5 128,-126.5 128,-145.5"/>
<text text-anchor="middle" x="98" y="-133.5" font-family="Helvetica,sans-Serif" font-size="10.00">iostream</text>
</a>
</g>
</g>
<!-- Node1&#45;&gt;Node3 -->
<g id="edge2_Node000001_Node000003" class="edge">
<title>Node1&#45;&gt;Node3</title>
<g id="a_edge2_Node000001_Node000003"><a xlink:title=" ">
<path fill="none" stroke="#63b8ff" d="M523.6,-258.63C407.92,-252.82 169.06,-238.39 138,-217 117.15,-202.64 106.64,-174.13 101.75,-155.32"/>
<polygon fill="#63b8ff" stroke="#63b8ff" points="105.15,-154.49 99.48,-145.54 98.33,-156.07 105.15,-154.49"/>
</a>
</g>
</g>
<!-- Node4 -->
<g id="Node000004" class="node">
<title>Node4</title>
<g id="a_Node000004"><a xlink:title=" ">
<polygon fill="#e0e0e0" stroke="#999999" points="193.5,-145.5 146.5,-145.5 146.5,-126.5 193.5,-126.5 193.5,-145.5"/>
<text text-anchor="middle" x="170" y="-133.5" font-family="Helvetica,sans-Serif" font-size="10.00">fcntl.h</text>
</a>
</g>
</g>
<!-- Node1&#45;&gt;Node4 -->
<g id="edge3_Node000001_Node000004" class="edge">
<title>Node1&#45;&gt;Node4</title>
<g id="a_edge3_Node000001_Node000004"><a xlink:title=" ">
<path fill="none" stroke="#63b8ff" d="M523.66,-259.69C408.91,-255.7 173.63,-244.27 149,-217 133.26,-199.58 146.19,-171.78 157.59,-153.96"/>
<polygon fill="#63b8ff" stroke="#63b8ff" points="160.51,-155.9 163.25,-145.66 154.73,-151.95 160.51,-155.9"/>
</a>
</g>
</g>
<!-- Node5 -->
<g id="Node000005" class="node">
<title>Node5</title>
<g id="a_Node000005"><a xlink:title=" ">
<polygon fill="#e0e0e0" stroke="#999999" points="479,-19 421,-19 421,0 479,0 479,-19"/>
<text text-anchor="middle" x="450" y="-7" font-family="Helvetica,sans-Serif" font-size="10.00">memory</text>
</a>
</g>
</g>
<!-- Node1&#45;&gt;Node5 -->
<g id="edge4_Node000001_Node000005" class="edge">
<title>Node1&#45;&gt;Node5</title>
<g id="a_edge4_Node000001_Node000005"><a xlink:title=" ">
<path fill="none" stroke="#63b8ff" d="M523.84,-256.76C469.07,-251.13 395.24,-239.53 377,-217 328.96,-157.65 401.2,-64.35 434.59,-26.88"/>
<polygon fill="#63b8ff" stroke="#63b8ff" points="437.28,-29.12 441.43,-19.37 432.1,-24.41 437.28,-29.12"/>
</a>
</g>
</g>
<!-- Node6 -->
<g id="Node000006" class="node">
<title>Node6</title>
<g id="a_Node000006"><a xlink:title=" ">
<polygon fill="#e0e0e0" stroke="#999999" points="1388,-211.5 1332,-211.5 1332,-192.5 1388,-192.5 1388,-211.5"/>
<text text-anchor="middle" x="1360" y="-199.5" font-family="Helvetica,sans-Serif" font-size="10.00">sstream</text>
</a>
</g>
</g>
<!-- Node1&#45;&gt;Node6 -->
<g id="edge5_Node000001_Node000006" class="edge">
<title>Node1&#45;&gt;Node6</title>
<g id="a_edge5_Node000001_Node000006"><a xlink:title=" ">
<path fill="none" stroke="#63b8ff" d="M648.27,-259.8C800.9,-255.3 1190.42,-241.7 1318,-217 1321.42,-216.34 1324.95,-215.47 1328.44,-214.49"/>
<polygon fill="#63b8ff" stroke="#63b8ff" points="1329.54,-217.82 1338.06,-211.51 1327.47,-211.13 1329.54,-217.82"/>
</a>
</g>
</g>
<!-- Node7 -->
<g id="Node000007" class="node">
<title>Node7</title>
<g id="a_Node000007"><a xlink:title=" ">
<polygon fill="#e0e0e0" stroke="#999999" points="1470,-211.5 1406,-211.5 1406,-192.5 1470,-192.5 1470,-211.5"/>
<text text-anchor="middle" x="1438" y="-199.5" font-family="Helvetica,sans-Serif" font-size="10.00">sys/stat.h</text>
</a>
</g>
</g>
<!-- Node1&#45;&gt;Node7 -->
<g id="edge6_Node000001_Node000007" class="edge">
<title>Node1&#45;&gt;Node7</title>
<g id="a_edge6_Node000001_Node000007"><a xlink:title=" ">
<path fill="none" stroke="#63b8ff" d="M648.02,-260.29C811.9,-256.75 1253.73,-244.84 1397,-217 1400.25,-216.37 1403.59,-215.54 1406.9,-214.6"/>
<polygon fill="#63b8ff" stroke="#63b8ff" points="1408.11,-217.89 1416.6,-211.54 1406.01,-211.21 1408.11,-217.89"/>
</a>
</g>
</g>
<!-- Node8 -->
<g id="Node000008" class="node">
<title>Node8</title>
<g id="a_Node000008"><a xlink:title=" ">
<polygon fill="#e0e0e0" stroke="#999999" points="288,-19 232,-19 232,0 288,0 288,-19"/>
<text text-anchor="middle" x="260" y="-7" font-family="Helvetica,sans-Serif" font-size="10.00">unistd.h</text>
</a>
</g>
</g>
<!-- Node1&#45;&gt;Node8 -->
<g id="edge7_Node000001_Node000008" class="edge">
<title>Node1&#45;&gt;Node8</title>
<g id="a_edge7_Node000001_Node000008"><a xlink:title=" ">
<path fill="none" stroke="#63b8ff" d="M523.8,-255.59C465.7,-248.97 384.25,-236.54 359,-217 296.35,-168.51 271.25,-70.39 263.2,-29.29"/>
<polygon fill="#63b8ff" stroke="#63b8ff" points="266.61,-28.5 261.37,-19.29 259.73,-29.76 266.61,-28.5"/>
</a>
</g>
</g>
<!-- Node9 -->
<g id="Node000009" class="node">
<title>Node9</title>
<g id="a_Node000009"><a xlink:title=" ">
<polygon fill="#e0e0e0" stroke="#999999" points="836,-145.5 788,-145.5 788,-126.5 836,-126.5 836,-145.5"/>
<text text-anchor="middle" x="812" y="-133.5" font-family="Helvetica,sans-Serif" font-size="10.00">thread</text>
</a>
</g>
</g>
<!-- Node1&#45;&gt;Node9 -->
<g id="edge8_Node000001_Node000009" class="edge">
<title>Node1&#45;&gt;Node9</title>
<g id="a_edge8_Node000001_Node000009"><a xlink:title=" ">
<path fill="none" stroke="#63b8ff" d="M648.22,-254.02C698.17,-246.84 763.14,-234.51 783,-217 800.71,-201.38 807.61,-174.08 810.3,-155.78"/>
<polygon fill="#63b8ff" stroke="#63b8ff" points="813.79,-156.07 811.48,-145.72 806.83,-155.25 813.79,-156.07"/>
</a>
</g>
</g>
<!-- Node10 -->
<g id="Node000010" class="node">
<title>Node10</title>
<g id="a_Node000010"><a xlink:href="generate__id_8cpp.html" target="_top" xlink:title=" ">
<polygon fill="white" stroke="#666666" points="1007.5,-151 892.5,-151 892.5,-121 1007.5,-121 1007.5,-151"/>
<text text-anchor="start" x="900.5" y="-139" font-family="Helvetica,sans-Serif" font-size="10.00">../common/generate</text>
<text text-anchor="middle" x="950" y="-128" font-family="Helvetica,sans-Serif" font-size="10.00">_id.cpp</text>
</a>
</g>
</g>
<!-- Node1&#45;&gt;Node10 -->
<g id="edge9_Node000001_Node000010" class="edge">
<title>Node1&#45;&gt;Node10</title>
<g id="a_edge9_Node000001_Node000010"><a xlink:title=" ">
<path fill="none" stroke="#63b8ff" d="M648.39,-254.22C693.46,-247.7 755.24,-236.15 807,-217 848.89,-201.5 893.19,-174.92 921.18,-156.68"/>
<polygon fill="#63b8ff" stroke="#63b8ff" points="923.25,-159.51 929.67,-151.08 919.4,-153.67 923.25,-159.51"/>
</a>
</g>
</g>
<!-- Node15 -->
<g id="Node000015" class="node">
<title>Node15</title>
<g id="a_Node000015"><a xlink:href="load__tracker__info_8cpp.html" target="_top" xlink:title=" ">
<polygon fill="white" stroke="#666666" points="289.5,-217 158.5,-217 158.5,-187 289.5,-187 289.5,-217"/>
<text text-anchor="start" x="166.5" y="-205" font-family="Helvetica,sans-Serif" font-size="10.00">../common/load_tracker</text>
<text text-anchor="middle" x="224" y="-194" font-family="Helvetica,sans-Serif" font-size="10.00">_info.cpp</text>
</a>
</g>
</g>
<!-- Node1&#45;&gt;Node15 -->
<g id="edge16_Node000001_Node000015" class="edge">
<title>Node1&#45;&gt;Node15</title>
<g id="a_edge16_Node000001_Node000015"><a xlink:title=" ">
<path fill="none" stroke="#63b8ff" d="M530.31,-252.99C473.39,-244.23 382.47,-230.06 304,-217 302.71,-216.79 301.41,-216.57 300.1,-216.35"/>
<polygon fill="#63b8ff" stroke="#63b8ff" points="300.35,-212.84 289.91,-214.62 299.18,-219.74 300.35,-212.84"/>
</a>
</g>
</g>
<!-- Node17 -->
<g id="Node000017" class="node">
<title>Node17</title>
<g id="a_Node000017"><a xlink:href="network__errors_8hpp.html" target="_top" xlink:title=" ">
<polygon fill="white" stroke="#666666" points="1247,-85 1139,-85 1139,-55 1247,-55 1247,-85"/>
<text text-anchor="start" x="1147" y="-73" font-family="Helvetica,sans-Serif" font-size="10.00">../network/network</text>
<text text-anchor="middle" x="1193" y="-62" font-family="Helvetica,sans-Serif" font-size="10.00">_errors.hpp</text>
</a>
</g>
</g>
<!-- Node1&#45;&gt;Node17 -->
<g id="edge23_Node000001_Node000017" class="edge">
<title>Node1&#45;&gt;Node17</title>
<g id="a_edge23_Node000001_Node000017"><a xlink:title=" ">
<path fill="none" stroke="#63b8ff" d="M648.32,-262.31C749.1,-262.29 953.45,-256.72 1121,-217 1197.45,-198.87 1241.02,-216.11 1285,-151 1292.46,-139.95 1291.81,-132.46 1285,-121 1276.84,-107.29 1263.47,-97.1 1249.41,-89.63"/>
<polygon fill="#63b8ff" stroke="#63b8ff" points="1250.64,-86.34 1240.12,-85.11 1247.57,-92.63 1250.64,-86.34"/>
</a>
</g>
</g>
<!-- Node18 -->
<g id="Node000018" class="node">
<title>Node18</title>
<g id="a_Node000018"><a xlink:href="tcp__server_8hpp.html" target="_top" xlink:title=" ">
<polygon fill="white" stroke="#666666" points="1112,-211.5 972,-211.5 972,-192.5 1112,-192.5 1112,-211.5"/>
<text text-anchor="middle" x="1042" y="-199.5" font-family="Helvetica,sans-Serif" font-size="10.00">../network/tcp_server.hpp</text>
</a>
</g>
</g>
<!-- Node1&#45;&gt;Node18 -->
<g id="edge25_Node000001_Node000018" class="edge">
<title>Node1&#45;&gt;Node18</title>
<g id="a_edge25_Node000001_Node000018"><a xlink:title=" ">
<path fill="none" stroke="#63b8ff" d="M648.45,-253.49C731,-242.9 876.39,-224.25 965.46,-212.82"/>
<polygon fill="#63b8ff" stroke="#63b8ff" points="966.03,-216.28 975.5,-211.53 965.14,-209.33 966.03,-216.28"/>
</a>
</g>
</g>
<!-- Node26 -->
<g id="Node000026" class="node">
<title>Node26</title>
<g id="a_Node000026"><a xlink:href="parse__request_8hpp.html" target="_top" xlink:title=" ">
<polygon fill="white" stroke="#666666" points="639.5,-211.5 532.5,-211.5 532.5,-192.5 639.5,-192.5 639.5,-211.5"/>
<text text-anchor="middle" x="586" y="-199.5" font-family="Helvetica,sans-Serif" font-size="10.00">parse_request.hpp</text>
</a>
</g>
</g>
<!-- Node1&#45;&gt;Node26 -->
<g id="edge38_Node000001_Node000026" class="edge">
<title>Node1&#45;&gt;Node26</title>
<g id="a_edge38_Node000001_Node000026"><a xlink:title=" ">
<path fill="none" stroke="#63b8ff" d="M586,-252.87C586,-244.75 586,-232.31 586,-221.89"/>
<polygon fill="#63b8ff" stroke="#63b8ff" points="589.5,-221.67 586,-211.67 582.5,-221.67 589.5,-221.67"/>
</a>
</g>
</g>
<!-- Node29 -->
<g id="Node000029" class="node">
<title>Node29</title>
<g id="a_Node000029"><a xlink:href="process__request_8hpp.html" target="_top" xlink:title=" ">
<polygon fill="white" stroke="#666666" points="774.5,-211.5 657.5,-211.5 657.5,-192.5 774.5,-192.5 774.5,-211.5"/>
<text text-anchor="middle" x="716" y="-199.5" font-family="Helvetica,sans-Serif" font-size="10.00">process_request.hpp</text>
</a>
</g>
</g>
<!-- Node1&#45;&gt;Node29 -->
<g id="edge47_Node000001_Node000029" class="edge">
<title>Node1&#45;&gt;Node29</title>
<g id="a_edge47_Node000001_Node000029"><a xlink:title=" ">
<path fill="none" stroke="#63b8ff" d="M604.9,-252.99C626.66,-243.2 662.62,-227.02 687.71,-215.73"/>
<polygon fill="#63b8ff" stroke="#63b8ff" points="689.39,-218.81 697.07,-211.52 686.52,-212.43 689.39,-218.81"/>
</a>
</g>
</g>
<!-- Node30 -->
<g id="Node000030" class="node">
<title>Node30</title>
<g id="a_Node000030"><a xlink:href="transactionsrecord_8hpp.html" target="_top" xlink:title=" ">
<polygon fill="white" stroke="#666666" points="514,-211.5 386,-211.5 386,-192.5 514,-192.5 514,-211.5"/>
<text text-anchor="middle" x="450" y="-199.5" font-family="Helvetica,sans-Serif" font-size="10.00">transactionsrecord.hpp</text>
</a>
</g>
</g>
<!-- Node1&#45;&gt;Node30 -->
<g id="edge51_Node000001_Node000030" class="edge">
<title>Node1&#45;&gt;Node30</title>
<g id="a_edge51_Node000001_Node000030"><a xlink:title=" ">
<path fill="none" stroke="#63b8ff" d="M566.22,-252.99C543.36,-243.16 505.51,-226.88 479.24,-215.58"/>
<polygon fill="#63b8ff" stroke="#63b8ff" points="480.37,-212.25 469.8,-211.52 477.6,-218.68 480.37,-212.25"/>
</a>
</g>
</g>
<!-- Node11 -->
<g id="Node000011" class="node">
<title>Node11</title>
<g id="a_Node000011"><a xlink:title=" ">
<polygon fill="#e0e0e0" stroke="#999999" points="880,-19 830,-19 830,0 880,0 880,-19"/>
<text text-anchor="middle" x="855" y="-7" font-family="Helvetica,sans-Serif" font-size="10.00">cstdint</text>
</a>
</g>
</g>
<!-- Node10&#45;&gt;Node11 -->
<g id="edge10_Node000010_Node000011" class="edge">
<title>Node10&#45;&gt;Node11</title>
<g id="a_edge10_Node000010_Node000011"><a xlink:title=" ">
<path fill="none" stroke="#63b8ff" d="M951.71,-120.9C953.03,-103.74 952.74,-74.65 939,-55 927.27,-38.22 907.19,-27.26 889.6,-20.41"/>
<polygon fill="#63b8ff" stroke="#63b8ff" points="890.75,-17.1 880.16,-17.02 888.39,-23.69 890.75,-17.1"/>
</a>
</g>
</g>
<!-- Node12 -->
<g id="Node000012" class="node">
<title>Node12</title>
<g id="a_Node000012"><a xlink:title=" ">
<polygon fill="#e0e0e0" stroke="#999999" points="799,-19 755,-19 755,0 799,0 799,-19"/>
<text text-anchor="middle" x="777" y="-7" font-family="Helvetica,sans-Serif" font-size="10.00">string</text>
</a>
</g>
</g>
<!-- Node10&#45;&gt;Node12 -->
<g id="edge11_Node000010_Node000012" class="edge">
<title>Node10&#45;&gt;Node12</title>
<g id="a_edge11_Node000010_Node000012"><a xlink:title=" ">
<path fill="none" stroke="#63b8ff" d="M945.74,-120.8C939.69,-102.99 926.97,-72.67 906,-55 891.1,-42.45 842.09,-27.65 808.96,-18.68"/>
<polygon fill="#63b8ff" stroke="#63b8ff" points="809.8,-15.29 799.24,-16.09 808,-22.05 809.8,-15.29"/>
</a>
</g>
</g>
<!-- Node13 -->
<g id="Node000013" class="node">
<title>Node13</title>
<g id="a_Node000013"><a xlink:href="endpoint_8hpp.html" target="_top" xlink:title=" ">
<polygon fill="white" stroke="#666666" points="897,-79.5 769,-79.5 769,-60.5 897,-60.5 897,-79.5"/>
<text text-anchor="middle" x="833" y="-67.5" font-family="Helvetica,sans-Serif" font-size="10.00">../models/endpoint.hpp</text>
</a>
</g>
</g>
<!-- Node10&#45;&gt;Node13 -->
<g id="edge12_Node000010_Node000013" class="edge">
<title>Node10&#45;&gt;Node13</title>
<g id="a_edge12_Node000010_Node000013"><a xlink:title=" ">
<path fill="none" stroke="#63b8ff" d="M924.32,-120.95C904.44,-110.08 877.07,-95.11 857.49,-84.4"/>
<polygon fill="#63b8ff" stroke="#63b8ff" points="859.02,-81.25 848.57,-79.52 855.66,-87.39 859.02,-81.25"/>
</a>
</g>
</g>
<!-- Node13&#45;&gt;Node11 -->
<g id="edge13_Node000013_Node000011" class="edge">
<title>Node13&#45;&gt;Node11</title>
<g id="a_edge13_Node000013_Node000011"><a xlink:title=" ">
<path fill="none" stroke="#63b8ff" d="M836.25,-60.37C839.37,-52.07 844.18,-39.28 848.15,-28.72"/>
<polygon fill="#63b8ff" stroke="#63b8ff" points="851.5,-29.76 851.74,-19.17 844.94,-27.3 851.5,-29.76"/>
</a>
</g>
</g>
<!-- Node13&#45;&gt;Node12 -->
<g id="edge15_Node000013_Node000012" class="edge">
<title>Node13&#45;&gt;Node12</title>
<g id="a_edge15_Node000013_Node000012"><a xlink:title=" ">
<path fill="none" stroke="#63b8ff" d="M824.74,-60.37C816.22,-51.47 802.74,-37.39 792.27,-26.45"/>
<polygon fill="#63b8ff" stroke="#63b8ff" points="794.74,-23.97 785.3,-19.17 789.68,-28.81 794.74,-23.97"/>
</a>
</g>
</g>
<!-- Node14 -->
<g id="Node000014" class="node">
<title>Node14</title>
<g id="a_Node000014"><a xlink:title=" ">
<polygon fill="#e0e0e0" stroke="#999999" points="995.5,-19 930.5,-19 930.5,0 995.5,0 995.5,-19"/>
<text text-anchor="middle" x="963" y="-7" font-family="Helvetica,sans-Serif" font-size="10.00">stdexcept</text>
</a>
</g>
</g>
<!-- Node13&#45;&gt;Node14 -->
<g id="edge14_Node000013_Node000014" class="edge">
<title>Node13&#45;&gt;Node14</title>
<g id="a_edge14_Node000013_Node000014"><a xlink:title=" ">
<path fill="none" stroke="#63b8ff" d="M851.9,-60.49C873.66,-50.7 909.62,-34.52 934.71,-23.23"/>
<polygon fill="#63b8ff" stroke="#63b8ff" points="936.39,-26.31 944.07,-19.02 933.52,-19.93 936.39,-26.31"/>
</a>
</g>
</g>
<!-- Node15&#45;&gt;Node2 -->
<g id="edge18_Node000015_Node000002" class="edge">
<title>Node15&#45;&gt;Node2</title>
<g id="a_edge18_Node000015_Node000002"><a xlink:title=" ">
<path fill="none" stroke="#63b8ff" d="M173.04,-186.93C140.22,-177.54 96.78,-164.47 59,-151 57.57,-150.49 56.12,-149.96 54.65,-149.4"/>
<polygon fill="#63b8ff" stroke="#63b8ff" points="55.6,-146.02 45.01,-145.61 53.04,-152.53 55.6,-146.02"/>
</a>
</g>
</g>
<!-- Node15&#45;&gt;Node3 -->
<g id="edge20_Node000015_Node000003" class="edge">
<title>Node15&#45;&gt;Node3</title>
<g id="a_edge20_Node000015_Node000003"><a xlink:title=" ">
<path fill="none" stroke="#63b8ff" d="M196.35,-186.95C174.74,-175.98 144.92,-160.83 123.8,-150.11"/>
<polygon fill="#63b8ff" stroke="#63b8ff" points="125.27,-146.93 114.77,-145.52 122.1,-153.17 125.27,-146.93"/>
</a>
</g>
</g>
<!-- Node15&#45;&gt;Node4 -->
<g id="edge19_Node000015_Node000004" class="edge">
<title>Node15&#45;&gt;Node4</title>
<g id="a_edge19_Node000015_Node000004"><a xlink:title=" ">
<path fill="none" stroke="#63b8ff" d="M212.02,-186.8C203.76,-177.01 192.76,-163.98 184.09,-153.7"/>
<polygon fill="#63b8ff" stroke="#63b8ff" points="186.59,-151.23 177.46,-145.84 181.24,-155.74 186.59,-151.23"/>
</a>
</g>
</g>
<!-- Node15&#45;&gt;Node8 -->
<g id="edge21_Node000015_Node000008" class="edge">
<title>Node15&#45;&gt;Node8</title>
<g id="a_edge21_Node000015_Node000008"><a xlink:title=" ">
<path fill="none" stroke="#63b8ff" d="M225.4,-186.77C228.15,-160.5 234.97,-102.7 246,-55 248.01,-46.32 250.87,-36.88 253.49,-28.94"/>
<polygon fill="#63b8ff" stroke="#63b8ff" points="256.88,-29.85 256.8,-19.25 250.26,-27.58 256.88,-29.85"/>
</a>
</g>
</g>
<!-- Node15&#45;&gt;Node13 -->
<g id="edge17_Node000015_Node000013" class="edge">
<title>Node15&#45;&gt;Node13</title>
<g id="a_edge17_Node000015_Node000013"><a xlink:title=" ">
<path fill="none" stroke="#63b8ff" d="M289.75,-186.96C412.48,-160.77 673.89,-104.96 783.26,-81.62"/>
<polygon fill="#63b8ff" stroke="#63b8ff" points="784,-85.04 793.05,-79.53 782.54,-78.19 784,-85.04"/>
</a>
</g>
</g>
<!-- Node16 -->
<g id="Node000016" class="node">
<title>Node16</title>
<g id="a_Node000016"><a xlink:title=" ">
<polygon fill="#e0e0e0" stroke="#999999" points="359.5,-19 312.5,-19 312.5,0 359.5,0 359.5,-19"/>
<text text-anchor="middle" x="336" y="-7" font-family="Helvetica,sans-Serif" font-size="10.00">vector</text>
</a>
</g>
</g>
<!-- Node15&#45;&gt;Node16 -->
<g id="edge22_Node000015_Node000016" class="edge">
<title>Node15&#45;&gt;Node16</title>
<g id="a_edge22_Node000015_Node000016"><a xlink:title=" ">
<path fill="none" stroke="#63b8ff" d="M232.24,-186.99C252.27,-152.92 303.52,-65.75 325.61,-28.17"/>
<polygon fill="#63b8ff" stroke="#63b8ff" points="328.74,-29.76 330.79,-19.36 322.7,-26.21 328.74,-29.76"/>
</a>
</g>
</g>
<!-- Node17&#45;&gt;Node14 -->
<g id="edge24_Node000017_Node000014" class="edge">
<title>Node17&#45;&gt;Node14</title>
<g id="a_edge24_Node000017_Node000014"><a xlink:title=" ">
<path fill="none" stroke="#63b8ff" d="M1138.78,-55.21C1098.12,-44.87 1043.22,-30.9 1005.66,-21.35"/>
<polygon fill="#63b8ff" stroke="#63b8ff" points="1006.1,-17.85 995.55,-18.78 1004.38,-24.64 1006.1,-17.85"/>
</a>
</g>
</g>
<!-- Node18&#45;&gt;Node9 -->
<g id="edge30_Node000018_Node000009" class="edge">
<title>Node18&#45;&gt;Node9</title>
<g id="a_edge30_Node000018_Node000009"><a xlink:title=" ">
<path fill="none" stroke="#63b8ff" d="M1004.89,-192.48C965.99,-183.28 903.24,-167.7 850,-151 847.87,-150.33 845.69,-149.62 843.5,-148.87"/>
<polygon fill="#63b8ff" stroke="#63b8ff" points="844.57,-145.54 833.98,-145.51 842.24,-152.14 844.57,-145.54"/>
</a>
</g>
</g>
<!-- Node19 -->
<g id="Node000019" class="node">
<title>Node19</title>
<g id="a_Node000019"><a xlink:title=" ">
<polygon fill="#e0e0e0" stroke="#999999" points="1192,-145.5 1142,-145.5 1142,-126.5 1192,-126.5 1192,-145.5"/>
<text text-anchor="middle" x="1167" y="-133.5" font-family="Helvetica,sans-Serif" font-size="10.00">atomic</text>
</a>
</g>
</g>
<!-- Node18&#45;&gt;Node19 -->
<g id="edge26_Node000018_Node000019" class="edge">
<title>Node18&#45;&gt;Node19</title>
<g id="a_edge26_Node000018_Node000019"><a xlink:title=" ">
<path fill="none" stroke="#63b8ff" d="M1058.86,-192.37C1079.92,-181.59 1116.18,-163.02 1140.86,-150.38"/>
<polygon fill="#63b8ff" stroke="#63b8ff" points="1142.7,-153.37 1150.01,-145.7 1139.51,-147.14 1142.7,-153.37"/>
</a>
</g>
</g>
<!-- Node20 -->
<g id="Node000020" class="node">
<title>Node20</title>
<g id="a_Node000020"><a xlink:title=" ">
<polygon fill="#e0e0e0" stroke="#999999" points="1275.5,-145.5 1210.5,-145.5 1210.5,-126.5 1275.5,-126.5 1275.5,-145.5"/>
<text text-anchor="middle" x="1243" y="-133.5" font-family="Helvetica,sans-Serif" font-size="10.00">functional</text>
</a>
</g>
</g>
<!-- Node18&#45;&gt;Node20 -->
<g id="edge27_Node000018_Node000020" class="edge">
<title>Node18&#45;&gt;Node20</title>
<g id="a_edge27_Node000018_Node000020"><a xlink:title=" ">
<path fill="none" stroke="#63b8ff" d="M1069.62,-192.47C1101.37,-182.63 1155.03,-165.89 1201,-151 1203.28,-150.26 1205.63,-149.49 1208,-148.72"/>
<polygon fill="#63b8ff" stroke="#63b8ff" points="1209.31,-151.97 1217.7,-145.51 1207.11,-145.32 1209.31,-151.97"/>
</a>
</g>
</g>
<!-- Node21 -->
<g id="Node000021" class="node">
<title>Node21</title>
<g id="a_Node000021"><a xlink:title=" ">
<polygon fill="#e0e0e0" stroke="#999999" points="1058,-145.5 1026,-145.5 1026,-126.5 1058,-126.5 1058,-145.5"/>
<text text-anchor="middle" x="1042" y="-133.5" font-family="Helvetica,sans-Serif" font-size="10.00">list</text>
</a>
</g>
</g>
<!-- Node18&#45;&gt;Node21 -->
<g id="edge28_Node000018_Node000021" class="edge">
<title>Node18&#45;&gt;Node21</title>
<g id="a_edge28_Node000018_Node000021"><a xlink:title=" ">
<path fill="none" stroke="#63b8ff" d="M1042,-192.37C1042,-183.16 1042,-168.29 1042,-156.27"/>
<polygon fill="#63b8ff" stroke="#63b8ff" points="1045.5,-155.91 1042,-145.91 1038.5,-155.91 1045.5,-155.91"/>
</a>
</g>
</g>
<!-- Node22 -->
<g id="Node000022" class="node">
<title>Node22</title>
<g id="a_Node000022"><a xlink:title=" ">
<polygon fill="#e0e0e0" stroke="#999999" points="1124,-145.5 1076,-145.5 1076,-126.5 1124,-126.5 1124,-145.5"/>
<text text-anchor="middle" x="1100" y="-133.5" font-family="Helvetica,sans-Serif" font-size="10.00">mutex</text>
</a>
</g>
</g>
<!-- Node18&#45;&gt;Node22 -->
<g id="edge29_Node000018_Node000022" class="edge">
<title>Node18&#45;&gt;Node22</title>
<g id="a_edge29_Node000018_Node000022"><a xlink:title=" ">
<path fill="none" stroke="#63b8ff" d="M1049.82,-192.37C1058.85,-182.4 1073.91,-165.79 1085.17,-153.36"/>
<polygon fill="#63b8ff" stroke="#63b8ff" points="1087.81,-155.67 1091.93,-145.91 1082.62,-150.96 1087.81,-155.67"/>
</a>
</g>
</g>
<!-- Node23 -->
<g id="Node000023" class="node">
<title>Node23</title>
<g id="a_Node000023"><a xlink:href="tcp__socket_8hpp.html" target="_top" xlink:title=" ">
<polygon fill="white" stroke="#666666" points="643.5,-79.5 554.5,-79.5 554.5,-60.5 643.5,-60.5 643.5,-79.5"/>
<text text-anchor="middle" x="599" y="-67.5" font-family="Helvetica,sans-Serif" font-size="10.00">tcp_socket.hpp</text>
</a>
</g>
</g>
<!-- Node18&#45;&gt;Node23 -->
<g id="edge31_Node000018_Node000023" class="edge">
<title>Node18&#45;&gt;Node23</title>
<g id="a_edge31_Node000018_Node000023"><a xlink:title=" ">
<path fill="none" stroke="#63b8ff" d="M1002.18,-192.49C969.29,-184.52 922,-170.84 884,-151 864.61,-140.88 864.97,-129.92 845,-121 765.33,-85.42 737.13,-104.16 652,-85 647.93,-84.08 643.69,-83.07 639.47,-82.02"/>
<polygon fill="#63b8ff" stroke="#63b8ff" points="640.29,-78.62 629.73,-79.53 638.56,-85.4 640.29,-78.62"/>
</a>
</g>
</g>
<!-- Node23&#45;&gt;Node5 -->
<g id="edge32_Node000023_Node000005" class="edge">
<title>Node23&#45;&gt;Node5</title>
<g id="a_edge32_Node000023_Node000005"><a xlink:title=" ">
<path fill="none" stroke="#63b8ff" d="M577.33,-60.49C552.06,-50.57 510.09,-34.09 481.28,-22.78"/>
<polygon fill="#63b8ff" stroke="#63b8ff" points="482.28,-19.41 471.69,-19.02 479.72,-25.93 482.28,-19.41"/>
</a>
</g>
</g>
<!-- Node23&#45;&gt;Node8 -->
<g id="edge36_Node000023_Node000008" class="edge">
<title>Node23&#45;&gt;Node8</title>
<g id="a_edge36_Node000023_Node000008"><a xlink:title=" ">
<path fill="none" stroke="#63b8ff" d="M554.3,-61.85C496.29,-52.47 391.94,-35.3 303,-19 301.5,-18.73 299.98,-18.44 298.44,-18.15"/>
<polygon fill="#63b8ff" stroke="#63b8ff" points="298.68,-14.64 288.2,-16.19 297.36,-21.51 298.68,-14.64"/>
</a>
</g>
</g>
<!-- Node23&#45;&gt;Node12 -->
<g id="edge34_Node000023_Node000012" class="edge">
<title>Node23&#45;&gt;Node12</title>
<g id="a_edge34_Node000023_Node000012"><a xlink:title=" ">
<path fill="none" stroke="#63b8ff" d="M624.88,-60.49C656.74,-50.02 710.82,-32.25 745.18,-20.96"/>
<polygon fill="#63b8ff" stroke="#63b8ff" points="746.34,-24.26 754.74,-17.81 744.15,-17.61 746.34,-24.26"/>
</a>
</g>
</g>
<!-- Node23&#45;&gt;Node16 -->
<g id="edge37_Node000023_Node000016" class="edge">
<title>Node23&#45;&gt;Node16</title>
<g id="a_edge37_Node000023_Node000016"><a xlink:title=" ">
<path fill="none" stroke="#63b8ff" d="M560.76,-60.49C509.28,-49.04 418.54,-28.86 369.57,-17.97"/>
<polygon fill="#63b8ff" stroke="#63b8ff" points="370.31,-14.55 359.79,-15.79 368.79,-21.38 370.31,-14.55"/>
</a>
</g>
</g>
<!-- Node24 -->
<g id="Node000024" class="node">
<title>Node24</title>
<g id="a_Node000024"><a xlink:title=" ">
<polygon fill="#e0e0e0" stroke="#999999" points="706,-19 634,-19 634,0 706,0 706,-19"/>
<text text-anchor="middle" x="670" y="-7" font-family="Helvetica,sans-Serif" font-size="10.00">netinet/in.h</text>
</a>
</g>
</g>
<!-- Node23&#45;&gt;Node24 -->
<g id="edge33_Node000023_Node000024" class="edge">
<title>Node23&#45;&gt;Node24</title>
<g id="a_edge33_Node000023_Node000024"><a xlink:title=" ">
<path fill="none" stroke="#63b8ff" d="M609.48,-60.37C620.49,-51.3 638.04,-36.84 651.41,-25.82"/>
<polygon fill="#63b8ff" stroke="#63b8ff" points="653.99,-28.23 659.48,-19.17 649.54,-22.83 653.99,-28.23"/>
</a>
</g>
</g>
<!-- Node25 -->
<g id="Node000025" class="node">
<title>Node25</title>
<g id="a_Node000025"><a xlink:title=" ">
<polygon fill="#e0e0e0" stroke="#999999" points="615.5,-19 538.5,-19 538.5,0 615.5,0 615.5,-19"/>
<text text-anchor="middle" x="577" y="-7" font-family="Helvetica,sans-Serif" font-size="10.00">sys/socket.h</text>
</a>
</g>
</g>
<!-- Node23&#45;&gt;Node25 -->
<g id="edge35_Node000023_Node000025" class="edge">
<title>Node23&#45;&gt;Node25</title>
<g id="a_edge35_Node000023_Node000025"><a xlink:title=" ">
<path fill="none" stroke="#63b8ff" d="M595.75,-60.37C592.63,-52.07 587.82,-39.28 583.85,-28.72"/>
<polygon fill="#63b8ff" stroke="#63b8ff" points="587.06,-27.3 580.26,-19.17 580.5,-29.76 587.06,-27.3"/>
</a>
</g>
</g>
<!-- Node26&#45;&gt;Node5 -->
<g id="edge39_Node000026_Node000005" class="edge">
<title>Node26&#45;&gt;Node5</title>
<g id="a_edge39_Node000026_Node000005"><a xlink:title=" ">
<path fill="none" stroke="#63b8ff" d="M579.8,-192.32C558.83,-162.94 490.25,-66.88 462.16,-27.54"/>
<polygon fill="#63b8ff" stroke="#63b8ff" points="464.89,-25.34 456.23,-19.23 459.2,-29.4 464.89,-25.34"/>
</a>
</g>
</g>
<!-- Node26&#45;&gt;Node23 -->
<g id="edge40_Node000026_Node000023" class="edge">
<title>Node26&#45;&gt;Node23</title>
<g id="a_edge40_Node000026_Node000023"><a xlink:title=" ">
<path fill="none" stroke="#63b8ff" d="M585.67,-192.08C585.24,-177.26 584.89,-146.65 588,-121 589.28,-110.47 591.75,-98.9 594.03,-89.54"/>
<polygon fill="#63b8ff" stroke="#63b8ff" points="597.45,-90.32 596.54,-79.76 590.67,-88.58 597.45,-90.32"/>
</a>
</g>
</g>
<!-- Node27 -->
<g id="Node000027" class="node">
<title>Node27</title>
<g id="a_Node000027"><a xlink:href="transaction_8hpp.html" target="_top" xlink:title=" ">
<polygon fill="white" stroke="#666666" points="770,-145.5 630,-145.5 630,-126.5 770,-126.5 770,-145.5"/>
<text text-anchor="middle" x="700" y="-133.5" font-family="Helvetica,sans-Serif" font-size="10.00">../models/transaction.hpp</text>
</a>
</g>
</g>
<!-- Node26&#45;&gt;Node27 -->
<g id="edge41_Node000026_Node000027" class="edge">
<title>Node26&#45;&gt;Node27</title>
<g id="a_edge41_Node000026_Node000027"><a xlink:title=" ">
<path fill="none" stroke="#63b8ff" d="M601.37,-192.37C620.41,-181.68 653.07,-163.35 675.56,-150.72"/>
<polygon fill="#63b8ff" stroke="#63b8ff" points="677.5,-153.65 684.5,-145.7 674.07,-147.54 677.5,-153.65"/>
</a>
</g>
</g>
<!-- Node27&#45;&gt;Node12 -->
<g id="edge43_Node000027_Node000012" class="edge">
<title>Node27&#45;&gt;Node12</title>
<g id="a_edge43_Node000027_Node000012"><a xlink:title=" ">
<path fill="none" stroke="#63b8ff" d="M705.29,-126.44C717.82,-106.19 749.49,-54.97 766.24,-27.9"/>
<polygon fill="#63b8ff" stroke="#63b8ff" points="769.39,-29.46 771.67,-19.12 763.43,-25.78 769.39,-29.46"/>
</a>
</g>
</g>
<!-- Node27&#45;&gt;Node13 -->
<g id="edge45_Node000027_Node000013" class="edge">
<title>Node27&#45;&gt;Node13</title>
<g id="a_edge45_Node000027_Node000013"><a xlink:title=" ">
<path fill="none" stroke="#63b8ff" d="M717.94,-126.37C740.54,-115.49 779.62,-96.69 805.88,-84.05"/>
<polygon fill="#63b8ff" stroke="#63b8ff" points="807.43,-87.19 814.92,-79.7 804.39,-80.88 807.43,-87.19"/>
</a>
</g>
</g>
<!-- Node27&#45;&gt;Node14 -->
<g id="edge42_Node000027_Node000014" class="edge">
<title>Node27&#45;&gt;Node14</title>
<g id="a_edge42_Node000027_Node000014"><a xlink:title=" ">
<path fill="none" stroke="#63b8ff" d="M741.43,-126.49C797.52,-114.74 892.24,-93.97 906,-85 927.78,-70.8 944.56,-45.33 954.11,-28.18"/>
<polygon fill="#63b8ff" stroke="#63b8ff" points="957.29,-29.66 958.88,-19.18 951.1,-26.38 957.29,-29.66"/>
</a>
</g>
</g>
<!-- Node27&#45;&gt;Node23 -->
<g id="edge46_Node000027_Node000023" class="edge">
<title>Node27&#45;&gt;Node23</title>
<g id="a_edge46_Node000027_Node000023"><a xlink:title=" ">
<path fill="none" stroke="#63b8ff" d="M686.38,-126.37C669.66,-115.78 641.09,-97.67 621.19,-85.06"/>
<polygon fill="#63b8ff" stroke="#63b8ff" points="623.05,-82.1 612.73,-79.7 619.3,-88.01 623.05,-82.1"/>
</a>
</g>
</g>
<!-- Node28 -->
<g id="Node000028" class="node">
<title>Node28</title>
<g id="a_Node000028"><a xlink:title=" ">
<polygon fill="#e0e0e0" stroke="#999999" points="712.5,-79.5 661.5,-79.5 661.5,-60.5 712.5,-60.5 712.5,-79.5"/>
<text text-anchor="middle" x="687" y="-67.5" font-family="Helvetica,sans-Serif" font-size="10.00">variant</text>
</a>
</g>
</g>
<!-- Node27&#45;&gt;Node28 -->
<g id="edge44_Node000027_Node000028" class="edge">
<title>Node27&#45;&gt;Node28</title>
<g id="a_edge44_Node000027_Node000028"><a xlink:title=" ">
<path fill="none" stroke="#63b8ff" d="M698.25,-126.37C696.36,-117.07 693.29,-101.98 690.84,-89.9"/>
<polygon fill="#63b8ff" stroke="#63b8ff" points="694.23,-89.01 688.81,-79.91 687.37,-90.4 694.23,-89.01"/>
</a>
</g>
</g>
<!-- Node29&#45;&gt;Node5 -->
<g id="edge48_Node000029_Node000005" class="edge">
<title>Node29&#45;&gt;Node5</title>
<g id="a_edge48_Node000029_Node000005"><a xlink:title=" ">
<path fill="none" stroke="#63b8ff" d="M689.48,-192.38C665.64,-183.92 630.3,-169.61 603,-151 552.88,-116.83 551.37,-95.26 506,-55 494.27,-44.59 480.49,-33.63 469.54,-25.19"/>
<polygon fill="#63b8ff" stroke="#63b8ff" points="471.52,-22.3 461.45,-19.02 467.28,-27.86 471.52,-22.3"/>
</a>
</g>
</g>
<!-- Node29&#45;&gt;Node23 -->
<g id="edge50_Node000029_Node000023" class="edge">
<title>Node29&#45;&gt;Node23</title>
<g id="a_edge50_Node000029_Node000023"><a xlink:title=" ">
<path fill="none" stroke="#63b8ff" d="M686.13,-192.35C665,-184.75 637.59,-171.62 621,-151 606.86,-133.41 601.78,-107.39 599.98,-89.84"/>
<polygon fill="#63b8ff" stroke="#63b8ff" points="603.46,-89.41 599.2,-79.71 596.48,-89.95 603.46,-89.41"/>
</a>
</g>
</g>
<!-- Node29&#45;&gt;Node27 -->
<g id="edge49_Node000029_Node000027" class="edge">
<title>Node29&#45;&gt;Node27</title>
<g id="a_edge49_Node000029_Node000027"><a xlink:title=" ">
<path fill="none" stroke="#63b8ff" d="M713.84,-192.37C711.52,-183.07 707.74,-167.98 704.72,-155.9"/>
<polygon fill="#63b8ff" stroke="#63b8ff" points="708.05,-154.76 702.23,-145.91 701.26,-156.46 708.05,-154.76"/>
</a>
</g>
</g>
<!-- Node30&#45;&gt;Node5 -->
<g id="edge52_Node000030_Node000005" class="edge">
<title>Node30&#45;&gt;Node5</title>
<g id="a_edge52_Node000030_Node000005"><a xlink:title=" ">
<path fill="none" stroke="#63b8ff" d="M446.78,-192.3C443.32,-182.45 438.04,-165.82 436,-151 430.19,-108.73 429.52,-97.17 436,-55 437.35,-46.19 440.13,-36.74 442.85,-28.82"/>
<polygon fill="#63b8ff" stroke="#63b8ff" points="446.23,-29.77 446.4,-19.18 439.66,-27.35 446.23,-29.77"/>
</a>
</g>
</g>
<!-- Node30&#45;&gt;Node16 -->
<g id="edge53_Node000030_Node000016" class="edge">
<title>Node30&#45;&gt;Node16</title>
<g id="a_edge53_Node000030_Node000016"><a xlink:title=" ">
<path fill="none" stroke="#63b8ff" d="M444.81,-192.32C427.3,-163.06 370.22,-67.69 346.5,-28.04"/>
<polygon fill="#63b8ff" stroke="#63b8ff" points="349.36,-26.02 341.23,-19.23 343.36,-29.61 349.36,-26.02"/>
</a>
</g>
</g>
<!-- Node30&#45;&gt;Node27 -->
<g id="edge54_Node000030_Node000027" class="edge">
<title>Node30&#45;&gt;Node27</title>
<g id="a_edge54_Node000030_Node000027"><a xlink:title=" ">
<path fill="none" stroke="#63b8ff" d="M483.46,-192.44C528.27,-180.96 607.83,-160.6 657.03,-148"/>
<polygon fill="#63b8ff" stroke="#63b8ff" points="657.92,-151.38 666.74,-145.51 656.19,-144.6 657.92,-151.38"/>
</a>
</g>
</g>
</g>
</svg>
