<?xml version="1.0" encoding="UTF-8" standalone="no"?>
<!DOCTYPE svg PUBLIC "-//W3C//DTD SVG 1.1//EN"
 "http://www.w3.org/Graphics/SVG/1.1/DTD/svg11.dtd">
<!-- Generated by graphviz version 2.43.0 (0)
 -->
<!-- Title: src/tracker/process_request.cpp Pages: 1 -->
<svg width="1517pt" height="313pt"
 viewBox="0.00 0.00 1516.50 313.00" xmlns="http://www.w3.org/2000/svg" xmlns:xlink="http://www.w3.org/1999/xlink">
<g id="graph0" class="graph" transform="scale(1 1) rotate(0) translate(4 309)">
<title>src/tracker/process_request.cpp</title>
<!-- Node1 -->
<g id="Node000001" class="node">
<title>Node1</title>
<g id="a_Node000001"><a xlink:title=" ">
<polygon fill="#999999" stroke="#666666" points="790.5,-305 682.5,-305 682.5,-275 790.5,-275 790.5,-305"/>
<text text-anchor="start" x="690.5" y="-293" font-family="Helvetica,sans-Serif" font-size="10.00">src/tracker/process</text>
<text text-anchor="middle" x="736.5" y="-282" font-family="Helvetica,sans-Serif" font-size="10.00">_request.cpp</text>
</a>
</g>
</g>
<!-- Node2 -->
<g id="Node000002" class="node">
<title>Node2</title>
<g id="a_Node000002"><a xlink:href="tracker_2process__request_8hpp.html" target="_top" xlink:title=" ">
<polygon fill="white" stroke="#666666" points="397,-239 280,-239 280,-220 397,-220 397,-239"/>
<text text-anchor="middle" x="338.5" y="-227" font-family="Helvetica,sans-Serif" font-size="10.00">process_request.hpp</text>
</a>
</g>
</g>
<!-- Node1&#45;&gt;Node2 -->
<g id="edge1_Node000001_Node000002" class="edge">
<title>Node1&#45;&gt;Node2</title>
<g id="a_edge1_Node000001_Node000002"><a xlink:title=" ">
<path fill="none" stroke="#63b8ff" d="M682.41,-281.05C610.81,-270.53 484.55,-251.97 406.55,-240.5"/>
<polygon fill="#63b8ff" stroke="#63b8ff" points="406.75,-236.99 396.35,-239 405.73,-243.92 406.75,-236.99"/>
</a>
</g>
</g>
<!-- Node15 -->
<g id="Node000015" class="node">
<title>Node15</title>
<g id="a_Node000015"><a xlink:href="groupdb_8hpp.html" target="_top" xlink:title=" ">
<polygon fill="white" stroke="#666666" points="850,-239 773,-239 773,-220 850,-220 850,-239"/>
<text text-anchor="middle" x="811.5" y="-227" font-family="Helvetica,sans-Serif" font-size="10.00">groupdb.hpp</text>
</a>
</g>
</g>
<!-- Node1&#45;&gt;Node15 -->
<g id="edge19_Node000001_Node000015" class="edge">
<title>Node1&#45;&gt;Node15</title>
<g id="a_edge19_Node000001_Node000015"><a xlink:title=" ">
<path fill="none" stroke="#63b8ff" d="M754.66,-274.84C765.99,-266 780.56,-254.63 792.12,-245.62"/>
<polygon fill="#63b8ff" stroke="#63b8ff" points="794.53,-248.18 800.26,-239.27 790.22,-242.66 794.53,-248.18"/>
</a>
</g>
</g>
<!-- Node21 -->
<g id="Node000021" class="node">
<title>Node21</title>
<g id="a_Node000021"><a xlink:title=" ">
<polygon fill="#e0e0e0" stroke="#999999" points="1498.5,-19 1442.5,-19 1442.5,0 1498.5,0 1498.5,-19"/>
<text text-anchor="middle" x="1470.5" y="-7" font-family="Helvetica,sans-Serif" font-size="10.00">sstream</text>
</a>
</g>
</g>
<!-- Node1&#45;&gt;Node21 -->
<g id="edge55_Node000001_Node000021" class="edge">
<title>Node1&#45;&gt;Node21</title>
<g id="a_edge55_Node000001_Node000021"><a xlink:title=" ">
<path fill="none" stroke="#63b8ff" d="M790.79,-286.75C966.51,-278.74 1508.5,-248.15 1508.5,-175.5 1508.5,-175.5 1508.5,-175.5 1508.5,-118.5 1508.5,-85.02 1492.05,-48.84 1480.8,-28.01"/>
<polygon fill="#63b8ff" stroke="#63b8ff" points="1483.74,-26.1 1475.78,-19.1 1477.63,-29.53 1483.74,-26.1"/>
</a>
</g>
</g>
<!-- Node24 -->
<g id="Node000024" class="node">
<title>Node24</title>
<g id="a_Node000024"><a xlink:href="userdb_8hpp.html" target="_top" xlink:title=" ">
<polygon fill="white" stroke="#666666" points="772,-184 701,-184 701,-165 772,-165 772,-184"/>
<text text-anchor="middle" x="736.5" y="-172" font-family="Helvetica,sans-Serif" font-size="10.00">userdb.hpp</text>
</a>
</g>
</g>
<!-- Node1&#45;&gt;Node24 -->
<g id="edge44_Node000001_Node000024" class="edge">
<title>Node1&#45;&gt;Node24</title>
<g id="a_edge44_Node000001_Node000024"><a xlink:title=" ">
<path fill="none" stroke="#63b8ff" d="M736.5,-274.63C736.5,-254.21 736.5,-216.81 736.5,-194.24"/>
<polygon fill="#63b8ff" stroke="#63b8ff" points="740,-194.23 736.5,-184.23 733,-194.23 740,-194.23"/>
</a>
</g>
</g>
<!-- Node25 -->
<g id="Node000025" class="node">
<title>Node25</title>
<g id="a_Node000025"><a xlink:href="transactionsrecord_8hpp.html" target="_top" xlink:title=" ">
<polygon fill="white" stroke="#666666" points="608.5,-239 480.5,-239 480.5,-220 608.5,-220 608.5,-239"/>
<text text-anchor="middle" x="544.5" y="-227" font-family="Helvetica,sans-Serif" font-size="10.00">transactionsrecord.hpp</text>
</a>
</g>
</g>
<!-- Node1&#45;&gt;Node25 -->
<g id="edge51_Node000001_Node000025" class="edge">
<title>Node1&#45;&gt;Node25</title>
<g id="a_edge51_Node000001_Node000025"><a xlink:title=" ">
<path fill="none" stroke="#63b8ff" d="M690.51,-274.99C657.38,-264.89 613.21,-251.44 582.16,-241.98"/>
<polygon fill="#63b8ff" stroke="#63b8ff" points="583.16,-238.62 572.57,-239.05 581.12,-245.32 583.16,-238.62"/>
</a>
</g>
</g>
<!-- Node3 -->
<g id="Node000003" class="node">
<title>Node3</title>
<g id="a_Node000003"><a xlink:title=" ">
<polygon fill="#e0e0e0" stroke="#999999" points="644.5,-74 586.5,-74 586.5,-55 644.5,-55 644.5,-74"/>
<text text-anchor="middle" x="615.5" y="-62" font-family="Helvetica,sans-Serif" font-size="10.00">memory</text>
</a>
</g>
</g>
<!-- Node2&#45;&gt;Node3 -->
<g id="edge2_Node000002_Node000003" class="edge">
<title>Node2&#45;&gt;Node3</title>
<g id="a_edge2_Node000002_Node000003"><a xlink:title=" ">
<path fill="none" stroke="#63b8ff" d="M338.3,-219.76C338.32,-197.69 341.63,-139.37 374.5,-110 403.68,-83.93 515.37,-72.35 575.92,-67.89"/>
<polygon fill="#63b8ff" stroke="#63b8ff" points="576.51,-71.36 586.24,-67.17 576.02,-64.38 576.51,-71.36"/>
</a>
</g>
</g>
<!-- Node4 -->
<g id="Node000004" class="node">
<title>Node4</title>
<g id="a_Node000004"><a xlink:href="transaction_8hpp.html" target="_top" xlink:title=" ">
<polygon fill="white" stroke="#666666" points="511.5,-184 371.5,-184 371.5,-165 511.5,-165 511.5,-184"/>
<text text-anchor="middle" x="441.5" y="-172" font-family="Helvetica,sans-Serif" font-size="10.00">../models/transaction.hpp</text>
</a>
</g>
</g>
<!-- Node2&#45;&gt;Node4 -->
<g id="edge3_Node000002_Node000004" class="edge">
<title>Node2&#45;&gt;Node4</title>
<g id="a_edge3_Node000002_Node000004"><a xlink:title=" ">
<path fill="none" stroke="#63b8ff" d="M355.05,-219.98C371.39,-211.57 396.63,-198.59 415.63,-188.81"/>
<polygon fill="#63b8ff" stroke="#63b8ff" points="417.36,-191.86 424.65,-184.17 414.16,-185.63 417.36,-191.86"/>
</a>
</g>
</g>
<!-- Node10 -->
<g id="Node000010" class="node">
<title>Node10</title>
<g id="a_Node000010"><a xlink:href="tcp__socket_8hpp.html" target="_top" xlink:title=" ">
<polygon fill="white" stroke="#666666" points="277,-129 136,-129 136,-110 277,-110 277,-129"/>
<text text-anchor="middle" x="206.5" y="-117" font-family="Helvetica,sans-Serif" font-size="10.00">../network/tcp_socket.hpp</text>
</a>
</g>
</g>
<!-- Node2&#45;&gt;Node10 -->
<g id="edge18_Node000002_Node000010" class="edge">
<title>Node2&#45;&gt;Node10</title>
<g id="a_edge18_Node000002_Node000010"><a xlink:title=" ">
<path fill="none" stroke="#63b8ff" d="M327.7,-219.66C305.15,-201.22 252.88,-158.45 224.92,-135.57"/>
<polygon fill="#63b8ff" stroke="#63b8ff" points="227.04,-132.78 217.08,-129.16 222.61,-138.2 227.04,-132.78"/>
</a>
</g>
</g>
<!-- Node5 -->
<g id="Node000005" class="node">
<title>Node5</title>
<g id="a_Node000005"><a xlink:title=" ">
<polygon fill="#e0e0e0" stroke="#999999" points="1359,-19 1294,-19 1294,0 1359,0 1359,-19"/>
<text text-anchor="middle" x="1326.5" y="-7" font-family="Helvetica,sans-Serif" font-size="10.00">stdexcept</text>
</a>
</g>
</g>
<!-- Node4&#45;&gt;Node5 -->
<g id="edge4_Node000004_Node000005" class="edge">
<title>Node4&#45;&gt;Node5</title>
<g id="a_edge4_Node000004_Node000005"><a xlink:title=" ">
<path fill="none" stroke="#63b8ff" d="M449.79,-164.95C474.34,-139.85 546.86,-67.37 577.5,-55 720.52,2.76 1112.69,-37.03 1283.61,-18.81"/>
<polygon fill="#63b8ff" stroke="#63b8ff" points="1284.03,-22.28 1293.56,-17.65 1283.22,-15.33 1284.03,-22.28"/>
</a>
</g>
</g>
<!-- Node6 -->
<g id="Node000006" class="node">
<title>Node6</title>
<g id="a_Node000006"><a xlink:title=" ">
<polygon fill="#e0e0e0" stroke="#999999" points="1038.5,-19 994.5,-19 994.5,0 1038.5,0 1038.5,-19"/>
<text text-anchor="middle" x="1016.5" y="-7" font-family="Helvetica,sans-Serif" font-size="10.00">string</text>
</a>
</g>
</g>
<!-- Node4&#45;&gt;Node6 -->
<g id="edge5_Node000004_Node000006" class="edge">
<title>Node4&#45;&gt;Node6</title>
<g id="a_edge5_Node000004_Node000006"><a xlink:title=" ">
<path fill="none" stroke="#63b8ff" d="M444.58,-165C453.26,-142.45 480.26,-81.04 525.5,-55 603.97,-9.83 888.09,-8.93 984.35,-9.97"/>
<polygon fill="#63b8ff" stroke="#63b8ff" points="984.32,-13.47 994.37,-10.1 984.41,-6.47 984.32,-13.47"/>
</a>
</g>
</g>
<!-- Node7 -->
<g id="Node000007" class="node">
<title>Node7</title>
<g id="a_Node000007"><a xlink:title=" ">
<polygon fill="#e0e0e0" stroke="#999999" points="435,-129 384,-129 384,-110 435,-110 435,-129"/>
<text text-anchor="middle" x="409.5" y="-117" font-family="Helvetica,sans-Serif" font-size="10.00">variant</text>
</a>
</g>
</g>
<!-- Node4&#45;&gt;Node7 -->
<g id="edge6_Node000004_Node000007" class="edge">
<title>Node4&#45;&gt;Node7</title>
<g id="a_edge6_Node000004_Node000007"><a xlink:title=" ">
<path fill="none" stroke="#63b8ff" d="M436.22,-164.75C431.79,-157.42 425.34,-146.73 419.88,-137.7"/>
<polygon fill="#63b8ff" stroke="#63b8ff" points="422.85,-135.84 414.69,-129.09 416.86,-139.46 422.85,-135.84"/>
</a>
</g>
</g>
<!-- Node8 -->
<g id="Node000008" class="node">
<title>Node8</title>
<g id="a_Node000008"><a xlink:href="endpoint_8hpp.html" target="_top" xlink:title=" ">
<polygon fill="white" stroke="#666666" points="1352.5,-74 1224.5,-74 1224.5,-55 1352.5,-55 1352.5,-74"/>
<text text-anchor="middle" x="1288.5" y="-62" font-family="Helvetica,sans-Serif" font-size="10.00">../models/endpoint.hpp</text>
</a>
</g>
</g>
<!-- Node4&#45;&gt;Node8 -->
<g id="edge7_Node000004_Node000008" class="edge">
<title>Node4&#45;&gt;Node8</title>
<g id="a_edge7_Node000004_Node000008"><a xlink:title=" ">
<path fill="none" stroke="#63b8ff" d="M481.15,-164.95C545.11,-151.44 675.16,-125.15 786.5,-110 867.06,-99.04 1095.19,-80.54 1214.19,-71.23"/>
<polygon fill="#63b8ff" stroke="#63b8ff" points="1214.62,-74.7 1224.31,-70.44 1214.07,-67.73 1214.62,-74.7"/>
</a>
</g>
</g>
<!-- Node4&#45;&gt;Node10 -->
<g id="edge11_Node000004_Node000010" class="edge">
<title>Node4&#45;&gt;Node10</title>
<g id="a_edge11_Node000004_Node000010"><a xlink:title=" ">
<path fill="none" stroke="#63b8ff" d="M403.74,-164.98C363.18,-155.84 298.61,-141.27 254.47,-131.32"/>
<polygon fill="#63b8ff" stroke="#63b8ff" points="255.08,-127.87 244.55,-129.08 253.54,-134.7 255.08,-127.87"/>
</a>
</g>
</g>
<!-- Node8&#45;&gt;Node5 -->
<g id="edge9_Node000008_Node000005" class="edge">
<title>Node8&#45;&gt;Node5</title>
<g id="a_edge9_Node000008_Node000005"><a xlink:title=" ">
<path fill="none" stroke="#63b8ff" d="M1294.77,-54.75C1300.09,-47.34 1307.86,-36.5 1314.38,-27.41"/>
<polygon fill="#63b8ff" stroke="#63b8ff" points="1317.36,-29.26 1320.34,-19.09 1311.67,-25.18 1317.36,-29.26"/>
</a>
</g>
</g>
<!-- Node8&#45;&gt;Node6 -->
<g id="edge10_Node000008_Node000006" class="edge">
<title>Node8&#45;&gt;Node6</title>
<g id="a_edge10_Node000008_Node000006"><a xlink:title=" ">
<path fill="none" stroke="#63b8ff" d="M1244.8,-54.98C1189.96,-44.3 1097.2,-26.22 1048.51,-16.74"/>
<polygon fill="#63b8ff" stroke="#63b8ff" points="1049.03,-13.27 1038.54,-14.8 1047.69,-20.14 1049.03,-13.27"/>
</a>
</g>
</g>
<!-- Node9 -->
<g id="Node000009" class="node">
<title>Node9</title>
<g id="a_Node000009"><a xlink:title=" ">
<polygon fill="#e0e0e0" stroke="#999999" points="1275.5,-19 1225.5,-19 1225.5,0 1275.5,0 1275.5,-19"/>
<text text-anchor="middle" x="1250.5" y="-7" font-family="Helvetica,sans-Serif" font-size="10.00">cstdint</text>
</a>
</g>
</g>
<!-- Node8&#45;&gt;Node9 -->
<g id="edge8_Node000008_Node000009" class="edge">
<title>Node8&#45;&gt;Node9</title>
<g id="a_edge8_Node000008_Node000009"><a xlink:title=" ">
<path fill="none" stroke="#63b8ff" d="M1282.23,-54.75C1276.91,-47.34 1269.14,-36.5 1262.62,-27.41"/>
<polygon fill="#63b8ff" stroke="#63b8ff" points="1265.33,-25.18 1256.66,-19.09 1259.64,-29.26 1265.33,-25.18"/>
</a>
</g>
</g>
<!-- Node10&#45;&gt;Node3 -->
<g id="edge12_Node000010_Node000003" class="edge">
<title>Node10&#45;&gt;Node3</title>
<g id="a_edge12_Node000010_Node000003"><a xlink:title=" ">
<path fill="none" stroke="#63b8ff" d="M272.21,-109.98C358.13,-98.85 505.92,-79.7 576.18,-70.59"/>
<polygon fill="#63b8ff" stroke="#63b8ff" points="576.91,-74.03 586.37,-69.27 576.01,-67.09 576.91,-74.03"/>
</a>
</g>
</g>
<!-- Node10&#45;&gt;Node6 -->
<g id="edge14_Node000010_Node000006" class="edge">
<title>Node10&#45;&gt;Node6</title>
<g id="a_edge14_Node000010_Node000006"><a xlink:title=" ">
<path fill="none" stroke="#63b8ff" d="M237.83,-109.92C289.46,-96.13 395.81,-69.15 487.5,-55 674.46,-26.15 901.68,-14.96 984.42,-11.65"/>
<polygon fill="#63b8ff" stroke="#63b8ff" points="984.59,-15.15 994.45,-11.26 984.32,-8.15 984.59,-15.15"/>
</a>
</g>
</g>
<!-- Node11 -->
<g id="Node000011" class="node">
<title>Node11</title>
<g id="a_Node000011"><a xlink:title=" ">
<polygon fill="#e0e0e0" stroke="#999999" points="241.5,-74 169.5,-74 169.5,-55 241.5,-55 241.5,-74"/>
<text text-anchor="middle" x="205.5" y="-62" font-family="Helvetica,sans-Serif" font-size="10.00">netinet/in.h</text>
</a>
</g>
</g>
<!-- Node10&#45;&gt;Node11 -->
<g id="edge13_Node000010_Node000011" class="edge">
<title>Node10&#45;&gt;Node11</title>
<g id="a_edge13_Node000010_Node000011"><a xlink:title=" ">
<path fill="none" stroke="#63b8ff" d="M206.33,-109.75C206.2,-102.8 206.02,-92.85 205.85,-84.13"/>
<polygon fill="#63b8ff" stroke="#63b8ff" points="209.35,-84.02 205.66,-74.09 202.35,-84.15 209.35,-84.02"/>
</a>
</g>
</g>
<!-- Node12 -->
<g id="Node000012" class="node">
<title>Node12</title>
<g id="a_Node000012"><a xlink:title=" ">
<polygon fill="#e0e0e0" stroke="#999999" points="77,-74 0,-74 0,-55 77,-55 77,-74"/>
<text text-anchor="middle" x="38.5" y="-62" font-family="Helvetica,sans-Serif" font-size="10.00">sys/socket.h</text>
</a>
</g>
</g>
<!-- Node10&#45;&gt;Node12 -->
<g id="edge15_Node000010_Node000012" class="edge">
<title>Node10&#45;&gt;Node12</title>
<g id="a_edge15_Node000010_Node000012"><a xlink:title=" ">
<path fill="none" stroke="#63b8ff" d="M179.51,-109.98C151.3,-101.09 106.86,-87.07 75.42,-77.15"/>
<polygon fill="#63b8ff" stroke="#63b8ff" points="76.29,-73.75 65.7,-74.08 74.19,-80.43 76.29,-73.75"/>
</a>
</g>
</g>
<!-- Node13 -->
<g id="Node000013" class="node">
<title>Node13</title>
<g id="a_Node000013"><a xlink:title=" ">
<polygon fill="#e0e0e0" stroke="#999999" points="151.5,-74 95.5,-74 95.5,-55 151.5,-55 151.5,-74"/>
<text text-anchor="middle" x="123.5" y="-62" font-family="Helvetica,sans-Serif" font-size="10.00">unistd.h</text>
</a>
</g>
</g>
<!-- Node10&#45;&gt;Node13 -->
<g id="edge16_Node000010_Node000013" class="edge">
<title>Node10&#45;&gt;Node13</title>
<g id="a_edge16_Node000010_Node000013"><a xlink:title=" ">
<path fill="none" stroke="#63b8ff" d="M193.16,-109.98C180.41,-101.84 160.95,-89.41 145.83,-79.76"/>
<polygon fill="#63b8ff" stroke="#63b8ff" points="147.39,-76.6 137.08,-74.17 143.62,-82.5 147.39,-76.6"/>
</a>
</g>
</g>
<!-- Node14 -->
<g id="Node000014" class="node">
<title>Node14</title>
<g id="a_Node000014"><a xlink:title=" ">
<polygon fill="#e0e0e0" stroke="#999999" points="487,-19 440,-19 440,0 487,0 487,-19"/>
<text text-anchor="middle" x="463.5" y="-7" font-family="Helvetica,sans-Serif" font-size="10.00">vector</text>
</a>
</g>
</g>
<!-- Node10&#45;&gt;Node14 -->
<g id="edge17_Node000010_Node000014" class="edge">
<title>Node10&#45;&gt;Node14</title>
<g id="a_edge17_Node000010_Node000014"><a xlink:title=" ">
<path fill="none" stroke="#63b8ff" d="M215.9,-109.76C231.07,-96.1 262.42,-69.76 293.5,-55 338.08,-33.83 394.2,-21.65 429.48,-15.55"/>
<polygon fill="#63b8ff" stroke="#63b8ff" points="430.43,-18.94 439.72,-13.84 429.28,-12.03 430.43,-18.94"/>
</a>
</g>
</g>
<!-- Node15&#45;&gt;Node3 -->
<g id="edge20_Node000015_Node000003" class="edge">
<title>Node15&#45;&gt;Node3</title>
<g id="a_edge20_Node000015_Node000003"><a xlink:title=" ">
<path fill="none" stroke="#63b8ff" d="M772.77,-220.65C747.63,-214.08 715.24,-202.69 691.5,-184 656.9,-156.76 633.36,-109.17 622.45,-83.36"/>
<polygon fill="#63b8ff" stroke="#63b8ff" points="625.67,-81.99 618.66,-74.05 619.18,-84.63 625.67,-81.99"/>
</a>
</g>
</g>
<!-- Node15&#45;&gt;Node6 -->
<g id="edge21_Node000015_Node000006" class="edge">
<title>Node15&#45;&gt;Node6</title>
<g id="a_edge21_Node000015_Node000006"><a xlink:title=" ">
<path fill="none" stroke="#63b8ff" d="M850.03,-223.1C900.2,-213.76 986.03,-189.43 1024.5,-129 1044.08,-98.24 1032.79,-53.44 1023.94,-28.66"/>
<polygon fill="#63b8ff" stroke="#63b8ff" points="1027.12,-27.18 1020.28,-19.09 1020.58,-29.68 1027.12,-27.18"/>
</a>
</g>
</g>
<!-- Node15&#45;&gt;Node14 -->
<g id="edge24_Node000015_Node000014" class="edge">
<title>Node15&#45;&gt;Node14</title>
<g id="a_edge24_Node000015_Node000014"><a xlink:title=" ">
<path fill="none" stroke="#63b8ff" d="M772.8,-220.89C743.04,-214.01 701.55,-202.14 668.5,-184 587.87,-139.74 509.77,-60.66 478.18,-26.71"/>
<polygon fill="#63b8ff" stroke="#63b8ff" points="480.53,-24.09 471.18,-19.1 475.38,-28.83 480.53,-24.09"/>
</a>
</g>
</g>
<!-- Node16 -->
<g id="Node000016" class="node">
<title>Node16</title>
<g id="a_Node000016"><a xlink:title=" ">
<polygon fill="#e0e0e0" stroke="#999999" points="827.5,-129 795.5,-129 795.5,-110 827.5,-110 827.5,-129"/>
<text text-anchor="middle" x="811.5" y="-117" font-family="Helvetica,sans-Serif" font-size="10.00">set</text>
</a>
</g>
</g>
<!-- Node15&#45;&gt;Node16 -->
<g id="edge22_Node000015_Node000016" class="edge">
<title>Node15&#45;&gt;Node16</title>
<g id="a_edge22_Node000015_Node000016"><a xlink:title=" ">
<path fill="none" stroke="#63b8ff" d="M811.5,-219.66C811.5,-202.17 811.5,-162.8 811.5,-139.27"/>
<polygon fill="#63b8ff" stroke="#63b8ff" points="815,-139.16 811.5,-129.16 808,-139.16 815,-139.16"/>
</a>
</g>
</g>
<!-- Node17 -->
<g id="Node000017" class="node">
<title>Node17</title>
<g id="a_Node000017"><a xlink:title=" ">
<polygon fill="#e0e0e0" stroke="#999999" points="939,-129 846,-129 846,-110 939,-110 939,-129"/>
<text text-anchor="middle" x="892.5" y="-117" font-family="Helvetica,sans-Serif" font-size="10.00">unordered_map</text>
</a>
</g>
</g>
<!-- Node15&#45;&gt;Node17 -->
<g id="edge23_Node000015_Node000017" class="edge">
<title>Node15&#45;&gt;Node17</title>
<g id="a_edge23_Node000015_Node000017"><a xlink:title=" ">
<path fill="none" stroke="#63b8ff" d="M818.13,-219.66C831.6,-201.69 862.39,-160.64 879.84,-137.38"/>
<polygon fill="#63b8ff" stroke="#63b8ff" points="882.81,-139.26 886.01,-129.16 877.21,-135.06 882.81,-139.26"/>
</a>
</g>
</g>
<!-- Node18 -->
<g id="Node000018" class="node">
<title>Node18</title>
<g id="a_Node000018"><a xlink:href="group_8hpp.html" target="_top" xlink:title=" ">
<polygon fill="white" stroke="#666666" points="1223,-184 1110,-184 1110,-165 1223,-165 1223,-184"/>
<text text-anchor="middle" x="1166.5" y="-172" font-family="Helvetica,sans-Serif" font-size="10.00">../models/group.hpp</text>
</a>
</g>
</g>
<!-- Node15&#45;&gt;Node18 -->
<g id="edge25_Node000015_Node000018" class="edge">
<title>Node15&#45;&gt;Node18</title>
<g id="a_edge25_Node000015_Node000018"><a xlink:title=" ">
<path fill="none" stroke="#63b8ff" d="M850.17,-222.73C910.07,-213.78 1026.04,-196.47 1099.7,-185.47"/>
<polygon fill="#63b8ff" stroke="#63b8ff" points="1100.43,-188.9 1109.8,-183.97 1099.39,-181.98 1100.43,-188.9"/>
</a>
</g>
</g>
<!-- Node18&#45;&gt;Node3 -->
<g id="edge26_Node000018_Node000003" class="edge">
<title>Node18&#45;&gt;Node3</title>
<g id="a_edge26_Node000018_Node000003"><a xlink:title=" ">
<path fill="none" stroke="#63b8ff" d="M1151.33,-164.8C1125.98,-150.7 1072.98,-123.13 1024.5,-110 892.26,-74.19 728.57,-67.06 654.8,-65.74"/>
<polygon fill="#63b8ff" stroke="#63b8ff" points="654.63,-62.23 644.58,-65.58 654.53,-69.23 654.63,-62.23"/>
</a>
</g>
</g>
<!-- Node18&#45;&gt;Node6 -->
<g id="edge27_Node000018_Node000006" class="edge">
<title>Node18&#45;&gt;Node6</title>
<g id="a_edge27_Node000018_Node000006"><a xlink:title=" ">
<path fill="none" stroke="#63b8ff" d="M1158.23,-164.77C1141.92,-147.53 1104.48,-107.83 1073.5,-74 1058.89,-58.05 1042.4,-39.64 1030.93,-26.76"/>
<polygon fill="#63b8ff" stroke="#63b8ff" points="1033.45,-24.32 1024.19,-19.18 1028.22,-28.98 1033.45,-24.32"/>
</a>
</g>
</g>
<!-- Node18&#45;&gt;Node8 -->
<g id="edge29_Node000018_Node000008" class="edge">
<title>Node18&#45;&gt;Node8</title>
<g id="a_edge29_Node000018_Node000008"><a xlink:title=" ">
<path fill="none" stroke="#63b8ff" d="M1188.66,-164.91C1206.1,-157.36 1230.24,-145.08 1247.5,-129 1261.56,-115.9 1272.95,-97.01 1280.13,-83.24"/>
<polygon fill="#63b8ff" stroke="#63b8ff" points="1283.27,-84.78 1284.58,-74.27 1277,-81.67 1283.27,-84.78"/>
</a>
</g>
</g>
<!-- Node19 -->
<g id="Node000019" class="node">
<title>Node19</title>
<g id="a_Node000019"><a xlink:title=" ">
<polygon fill="#e0e0e0" stroke="#999999" points="1168.5,-74 1082.5,-74 1082.5,-55 1168.5,-55 1168.5,-74"/>
<text text-anchor="middle" x="1125.5" y="-62" font-family="Helvetica,sans-Serif" font-size="10.00">unordered_set</text>
</a>
</g>
</g>
<!-- Node18&#45;&gt;Node19 -->
<g id="edge28_Node000018_Node000019" class="edge">
<title>Node18&#45;&gt;Node19</title>
<g id="a_edge28_Node000018_Node000019"><a xlink:title=" ">
<path fill="none" stroke="#63b8ff" d="M1163.14,-164.66C1156.44,-147.01 1141.29,-107.09 1132.38,-83.64"/>
<polygon fill="#63b8ff" stroke="#63b8ff" points="1135.61,-82.27 1128.79,-74.16 1129.06,-84.75 1135.61,-82.27"/>
</a>
</g>
</g>
<!-- Node20 -->
<g id="Node000020" class="node">
<title>Node20</title>
<g id="a_Node000020"><a xlink:href="file_8hpp.html" target="_top" xlink:title=" ">
<polygon fill="white" stroke="#666666" points="1239,-129 1186,-129 1186,-110 1239,-110 1239,-129"/>
<text text-anchor="middle" x="1212.5" y="-117" font-family="Helvetica,sans-Serif" font-size="10.00">file.hpp</text>
</a>
</g>
</g>
<!-- Node18&#45;&gt;Node20 -->
<g id="edge30_Node000018_Node000020" class="edge">
<title>Node18&#45;&gt;Node20</title>
<g id="a_edge30_Node000018_Node000020"><a xlink:title=" ">
<path fill="none" stroke="#63b8ff" d="M1174.1,-164.75C1180.66,-157.18 1190.32,-146.05 1198.31,-136.84"/>
<polygon fill="#63b8ff" stroke="#63b8ff" points="1201.13,-138.94 1205.05,-129.09 1195.85,-134.35 1201.13,-138.94"/>
</a>
</g>
</g>
<!-- Node22 -->
<g id="Node000022" class="node">
<title>Node22</title>
<g id="a_Node000022"><a xlink:href="fileinfo_8hpp.html" target="_top" xlink:title=" ">
<polygon fill="white" stroke="#666666" points="1442,-74 1371,-74 1371,-55 1442,-55 1442,-74"/>
<text text-anchor="middle" x="1406.5" y="-62" font-family="Helvetica,sans-Serif" font-size="10.00">fileinfo.hpp</text>
</a>
</g>
</g>
<!-- Node18&#45;&gt;Node22 -->
<g id="edge41_Node000018_Node000022" class="edge">
<title>Node18&#45;&gt;Node22</title>
<g id="a_edge41_Node000018_Node000022"><a xlink:title=" ">
<path fill="none" stroke="#63b8ff" d="M1186.7,-164.96C1207.52,-156.11 1240.88,-141.81 1269.5,-129 1307.65,-111.92 1351.41,-91.49 1379,-78.5"/>
<polygon fill="#63b8ff" stroke="#63b8ff" points="1380.84,-81.5 1388.4,-74.07 1377.86,-75.17 1380.84,-81.5"/>
</a>
</g>
</g>
<!-- Node23 -->
<g id="Node000023" class="node">
<title>Node23</title>
<g id="a_Node000023"><a xlink:href="user_8hpp.html" target="_top" xlink:title=" ">
<polygon fill="white" stroke="#666666" points="1015.5,-129 957.5,-129 957.5,-110 1015.5,-110 1015.5,-129"/>
<text text-anchor="middle" x="986.5" y="-117" font-family="Helvetica,sans-Serif" font-size="10.00">user.hpp</text>
</a>
</g>
</g>
<!-- Node18&#45;&gt;Node23 -->
<g id="edge42_Node000018_Node000023" class="edge">
<title>Node18&#45;&gt;Node23</title>
<g id="a_edge42_Node000018_Node000023"><a xlink:title=" ">
<path fill="none" stroke="#63b8ff" d="M1137.58,-164.98C1107.23,-156.05 1059.33,-141.94 1025.62,-132.02"/>
<polygon fill="#63b8ff" stroke="#63b8ff" points="1026.23,-128.55 1015.65,-129.08 1024.25,-135.26 1026.23,-128.55"/>
</a>
</g>
</g>
<!-- Node20&#45;&gt;Node3 -->
<g id="edge31_Node000020_Node000003" class="edge">
<title>Node20&#45;&gt;Node3</title>
<g id="a_edge31_Node000020_Node000003"><a xlink:title=" ">
<path fill="none" stroke="#63b8ff" d="M1185.69,-116.12C1090.41,-107.66 767.83,-79.02 654.92,-69"/>
<polygon fill="#63b8ff" stroke="#63b8ff" points="654.93,-65.49 644.66,-68.09 654.32,-72.46 654.93,-65.49"/>
</a>
</g>
</g>
<!-- Node20&#45;&gt;Node6 -->
<g id="edge32_Node000020_Node000006" class="edge">
<title>Node20&#45;&gt;Node6</title>
<g id="a_edge32_Node000020_Node000006"><a xlink:title=" ">
<path fill="none" stroke="#63b8ff" d="M1210.07,-109.66C1205.81,-95.88 1195.68,-69.35 1177.5,-55 1139.96,-25.36 1083.96,-15.44 1048.87,-12.13"/>
<polygon fill="#63b8ff" stroke="#63b8ff" points="1048.95,-8.63 1038.7,-11.31 1048.38,-15.61 1048.95,-8.63"/>
</a>
</g>
</g>
<!-- Node20&#45;&gt;Node8 -->
<g id="edge35_Node000020_Node000008" class="edge">
<title>Node20&#45;&gt;Node8</title>
<g id="a_edge35_Node000020_Node000008"><a xlink:title=" ">
<path fill="none" stroke="#63b8ff" d="M1224.71,-109.98C1236.28,-101.92 1253.88,-89.65 1267.66,-80.03"/>
<polygon fill="#63b8ff" stroke="#63b8ff" points="1269.87,-82.76 1276.07,-74.17 1265.86,-77.02 1269.87,-82.76"/>
</a>
</g>
</g>
<!-- Node20&#45;&gt;Node19 -->
<g id="edge34_Node000020_Node000019" class="edge">
<title>Node20&#45;&gt;Node19</title>
<g id="a_edge34_Node000020_Node000019"><a xlink:title=" ">
<path fill="none" stroke="#63b8ff" d="M1198.52,-109.98C1185.03,-101.77 1164.37,-89.18 1148.46,-79.49"/>
<polygon fill="#63b8ff" stroke="#63b8ff" points="1150.09,-76.38 1139.73,-74.17 1146.45,-82.36 1150.09,-76.38"/>
</a>
</g>
</g>
<!-- Node20&#45;&gt;Node21 -->
<g id="edge33_Node000020_Node000021" class="edge">
<title>Node20&#45;&gt;Node21</title>
<g id="a_edge33_Node000020_Node000021"><a xlink:title=" ">
<path fill="none" stroke="#63b8ff" d="M1239.38,-116.96C1295.08,-113.22 1420.5,-101.86 1451.5,-74 1463.93,-62.83 1468.37,-43.91 1469.89,-29.62"/>
<polygon fill="#63b8ff" stroke="#63b8ff" points="1473.4,-29.6 1470.57,-19.38 1466.41,-29.13 1473.4,-29.6"/>
</a>
</g>
</g>
<!-- Node20&#45;&gt;Node22 -->
<g id="edge36_Node000020_Node000022" class="edge">
<title>Node20&#45;&gt;Node22</title>
<g id="a_edge36_Node000020_Node000022"><a xlink:title=" ">
<path fill="none" stroke="#63b8ff" d="M1239.07,-111.24C1271.65,-102.34 1327.22,-87.16 1365.35,-76.74"/>
<polygon fill="#63b8ff" stroke="#63b8ff" points="1366.4,-80.08 1375.12,-74.07 1364.55,-73.33 1366.4,-80.08"/>
</a>
</g>
</g>
<!-- Node22&#45;&gt;Node5 -->
<g id="edge38_Node000022_Node000005" class="edge">
<title>Node22&#45;&gt;Node5</title>
<g id="a_edge38_Node000022_Node000005"><a xlink:title=" ">
<path fill="none" stroke="#63b8ff" d="M1393.65,-54.98C1381.36,-46.84 1362.59,-34.41 1348.02,-24.76"/>
<polygon fill="#63b8ff" stroke="#63b8ff" points="1349.86,-21.78 1339.59,-19.17 1345.99,-27.61 1349.86,-21.78"/>
</a>
</g>
</g>
<!-- Node22&#45;&gt;Node6 -->
<g id="edge39_Node000022_Node000006" class="edge">
<title>Node22&#45;&gt;Node6</title>
<g id="a_edge39_Node000022_Node000006"><a xlink:title=" ">
<path fill="none" stroke="#63b8ff" d="M1370.67,-56.54C1367.57,-55.99 1364.48,-55.47 1361.5,-55 1247,-36.82 1110.22,-20.88 1048.96,-14.05"/>
<polygon fill="#63b8ff" stroke="#63b8ff" points="1049.09,-10.54 1038.76,-12.92 1048.32,-17.5 1049.09,-10.54"/>
</a>
</g>
</g>
<!-- Node22&#45;&gt;Node14 -->
<g id="edge40_Node000022_Node000014" class="edge">
<title>Node22&#45;&gt;Node14</title>
<g id="a_edge40_Node000022_Node000014"><a xlink:title=" ">
<path fill="none" stroke="#63b8ff" d="M1370.71,-56.28C1367.6,-55.79 1364.5,-55.36 1361.5,-55 1026.3,-15.23 616.63,-10.9 497.48,-10.51"/>
<polygon fill="#63b8ff" stroke="#63b8ff" points="497.2,-7.01 487.19,-10.48 497.18,-14.01 497.2,-7.01"/>
</a>
</g>
</g>
<!-- Node22&#45;&gt;Node21 -->
<g id="edge37_Node000022_Node000021" class="edge">
<title>Node22&#45;&gt;Node21</title>
<g id="a_edge37_Node000022_Node000021"><a xlink:title=" ">
<path fill="none" stroke="#63b8ff" d="M1416.78,-54.98C1426.34,-47.07 1440.78,-35.11 1452.28,-25.58"/>
<polygon fill="#63b8ff" stroke="#63b8ff" points="1454.56,-28.24 1460.03,-19.17 1450.1,-22.85 1454.56,-28.24"/>
</a>
</g>
</g>
<!-- Node23&#45;&gt;Node6 -->
<g id="edge43_Node000023_Node000006" class="edge">
<title>Node23&#45;&gt;Node6</title>
<g id="a_edge43_Node000023_Node000006"><a xlink:title=" ">
<path fill="none" stroke="#63b8ff" d="M988.52,-109.83C991.41,-97.57 996.99,-74.47 1002.5,-55 1004.93,-46.43 1007.85,-37.01 1010.4,-29.05"/>
<polygon fill="#63b8ff" stroke="#63b8ff" points="1013.8,-29.91 1013.56,-19.32 1007.14,-27.75 1013.8,-29.91"/>
</a>
</g>
</g>
<!-- Node24&#45;&gt;Node3 -->
<g id="edge45_Node000024_Node000003" class="edge">
<title>Node24&#45;&gt;Node3</title>
<g id="a_edge45_Node000024_Node000003"><a xlink:title=" ">
<path fill="none" stroke="#63b8ff" d="M723.87,-164.82C711.62,-156.21 692.72,-142.39 677.5,-129 660.26,-113.83 642.08,-94.79 629.89,-81.54"/>
<polygon fill="#63b8ff" stroke="#63b8ff" points="632.46,-79.16 623.14,-74.12 627.28,-83.87 632.46,-79.16"/>
</a>
</g>
</g>
<!-- Node24&#45;&gt;Node6 -->
<g id="edge46_Node000024_Node000006" class="edge">
<title>Node24&#45;&gt;Node6</title>
<g id="a_edge46_Node000024_Node000006"><a xlink:title=" ">
<path fill="none" stroke="#63b8ff" d="M741.29,-164.99C749.16,-151.66 766.04,-125.75 786.5,-110 848.68,-62.14 937.41,-32.33 984.41,-18.89"/>
<polygon fill="#63b8ff" stroke="#63b8ff" points="985.64,-22.18 994.33,-16.12 983.76,-15.44 985.64,-22.18"/>
</a>
</g>
</g>
<!-- Node24&#45;&gt;Node14 -->
<g id="edge49_Node000024_Node000014" class="edge">
<title>Node24&#45;&gt;Node14</title>
<g id="a_edge49_Node000024_Node000014"><a xlink:title=" ">
<path fill="none" stroke="#63b8ff" d="M731.54,-164.83C717.2,-140.05 675.34,-69.78 653.5,-55 605.85,-22.76 537.81,-13.71 497.4,-11.27"/>
<polygon fill="#63b8ff" stroke="#63b8ff" points="497.42,-7.77 487.26,-10.76 497.07,-14.76 497.42,-7.77"/>
</a>
</g>
</g>
<!-- Node24&#45;&gt;Node16 -->
<g id="edge47_Node000024_Node000016" class="edge">
<title>Node24&#45;&gt;Node16</title>
<g id="a_edge47_Node000024_Node000016"><a xlink:title=" ">
<path fill="none" stroke="#63b8ff" d="M748.55,-164.98C759.96,-156.92 777.33,-144.65 790.93,-135.03"/>
<polygon fill="#63b8ff" stroke="#63b8ff" points="793.08,-137.8 799.23,-129.17 789.04,-132.08 793.08,-137.8"/>
</a>
</g>
</g>
<!-- Node24&#45;&gt;Node17 -->
<g id="edge48_Node000024_Node000017" class="edge">
<title>Node24&#45;&gt;Node17</title>
<g id="a_edge48_Node000024_Node000017"><a xlink:title=" ">
<path fill="none" stroke="#63b8ff" d="M761.56,-164.98C787.53,-156.16 828.31,-142.31 857.46,-132.41"/>
<polygon fill="#63b8ff" stroke="#63b8ff" points="858.9,-135.61 867.24,-129.08 856.65,-128.99 858.9,-135.61"/>
</a>
</g>
</g>
<!-- Node24&#45;&gt;Node23 -->
<g id="edge50_Node000024_Node000023" class="edge">
<title>Node24&#45;&gt;Node23</title>
<g id="a_edge50_Node000024_Node000023"><a xlink:title=" ">
<path fill="none" stroke="#63b8ff" d="M772.36,-166.01C812.38,-157.64 879.35,-143.58 947.12,-129.07"/>
<polygon fill="#63b8ff" stroke="#63b8ff" points="948.07,-132.44 957.12,-126.93 946.61,-125.6 948.07,-132.44"/>
</a>
</g>
</g>
<!-- Node25&#45;&gt;Node3 -->
<g id="edge52_Node000025_Node000003" class="edge">
<title>Node25&#45;&gt;Node3</title>
<g id="a_edge52_Node000025_Node000003"><a xlink:title=" ">
<path fill="none" stroke="#63b8ff" d="M548.32,-219.74C559.49,-194.09 592.29,-118.78 607.54,-83.78"/>
<polygon fill="#63b8ff" stroke="#63b8ff" points="610.88,-84.87 611.66,-74.31 604.46,-82.08 610.88,-84.87"/>
</a>
</g>
</g>
<!-- Node25&#45;&gt;Node4 -->
<g id="edge54_Node000025_Node000004" class="edge">
<title>Node25&#45;&gt;Node4</title>
<g id="a_edge54_Node000025_Node000004"><a xlink:title=" ">
<path fill="none" stroke="#63b8ff" d="M527.95,-219.98C511.61,-211.57 486.37,-198.59 467.37,-188.81"/>
<polygon fill="#63b8ff" stroke="#63b8ff" points="468.84,-185.63 458.35,-184.17 465.64,-191.86 468.84,-185.63"/>
</a>
</g>
</g>
<!-- Node25&#45;&gt;Node14 -->
<g id="edge53_Node000025_Node000014" class="edge">
<title>Node25&#45;&gt;Node14</title>
<g id="a_edge53_Node000025_Node000014"><a xlink:title=" ">
<path fill="none" stroke="#63b8ff" d="M480.21,-221.19C433.91,-214.44 377.11,-202.61 362.5,-184 320.1,-129.98 402.8,-56.33 443.15,-25.27"/>
<polygon fill="#63b8ff" stroke="#63b8ff" points="445.4,-27.96 451.28,-19.15 441.19,-22.37 445.4,-27.96"/>
</a>
</g>
</g>
</g>
</svg>
