<?xml version="1.0" encoding="UTF-8" standalone="no"?>
<!DOCTYPE svg PUBLIC "-//W3C//DTD SVG 1.1//EN"
 "http://www.w3.org/Graphics/SVG/1.1/DTD/svg11.dtd">
<!-- Generated by graphviz version 2.43.0 (0)
 -->
<!-- Title: src/tracker/tracker.cpp Pages: 1 -->
<svg width="1136pt" height="269pt"
 viewBox="0.00 0.00 1136.22 269.00" xmlns="http://www.w3.org/2000/svg" xmlns:xlink="http://www.w3.org/1999/xlink">
<g id="graph0" class="graph" transform="scale(1 1) rotate(0) translate(4 265)">
<title>src/tracker/tracker.cpp</title>
<!-- Node1 -->
<g id="Node000001" class="node">
<title>Node1</title>
<g id="a_Node000001"><a xlink:title="The tracker.">
<polygon fill="#999999" stroke="#666666" points="493.85,-261 369.85,-261 369.85,-242 493.85,-242 493.85,-261"/>
<text text-anchor="middle" x="431.85" y="-249" font-family="Helvetica,sans-Serif" font-size="10.00">src/tracker/tracker.cpp</text>
</a>
</g>
</g>
<!-- Node2 -->
<g id="Node000002" class="node">
<title>Node2</title>
<g id="a_Node000002"><a xlink:title=" ">
<polygon fill="#e0e0e0" stroke="#999999" points="65.85,-140 15.85,-140 15.85,-121 65.85,-121 65.85,-140"/>
<text text-anchor="middle" x="40.85" y="-128" font-family="Helvetica,sans-Serif" font-size="10.00">cstring</text>
</a>
</g>
</g>
<!-- Node1&#45;&gt;Node2 -->
<g id="edge1_Node000001_Node000002" class="edge">
<title>Node1&#45;&gt;Node2</title>
<g id="a_edge1_Node000001_Node000002"><a xlink:title=" ">
<path fill="none" stroke="#63b8ff" d="M369.54,-249.62C280.73,-247.21 123.43,-238.36 77.85,-206 59.31,-192.83 49.58,-167.67 44.83,-150.25"/>
<polygon fill="#63b8ff" stroke="#63b8ff" points="48.14,-149.03 42.4,-140.13 41.34,-150.67 48.14,-149.03"/>
</a>
</g>
</g>
<!-- Node3 -->
<g id="Node000003" class="node">
<title>Node3</title>
<g id="a_Node000003"><a xlink:title=" ">
<polygon fill="#e0e0e0" stroke="#999999" points="143.85,-140 83.85,-140 83.85,-121 143.85,-121 143.85,-140"/>
<text text-anchor="middle" x="113.85" y="-128" font-family="Helvetica,sans-Serif" font-size="10.00">iostream</text>
</a>
</g>
</g>
<!-- Node1&#45;&gt;Node3 -->
<g id="edge2_Node000001_Node000003" class="edge">
<title>Node1&#45;&gt;Node3</title>
<g id="a_edge2_Node000001_Node000003"><a xlink:title=" ">
<path fill="none" stroke="#63b8ff" d="M369.48,-246.83C275.39,-240.65 106.12,-226.78 87.85,-206 73.51,-189.68 86.92,-164.98 99.2,-148.55"/>
<polygon fill="#63b8ff" stroke="#63b8ff" points="102.22,-150.38 105.73,-140.38 96.75,-146.01 102.22,-150.38"/>
</a>
</g>
</g>
<!-- Node4 -->
<g id="Node000004" class="node">
<title>Node4</title>
<g id="a_Node000004"><a xlink:title=" ">
<polygon fill="#e0e0e0" stroke="#999999" points="323.35,-140 276.35,-140 276.35,-121 323.35,-121 323.35,-140"/>
<text text-anchor="middle" x="299.85" y="-128" font-family="Helvetica,sans-Serif" font-size="10.00">fcntl.h</text>
</a>
</g>
</g>
<!-- Node1&#45;&gt;Node4 -->
<g id="edge3_Node000001_Node000004" class="edge">
<title>Node1&#45;&gt;Node4</title>
<g id="a_edge3_Node000001_Node000004"><a xlink:title=" ">
<path fill="none" stroke="#63b8ff" d="M429.38,-241.55C424.75,-226.28 413.44,-195.01 393.85,-176 376.9,-159.54 352.71,-148.28 333.11,-141.2"/>
<polygon fill="#63b8ff" stroke="#63b8ff" points="334.23,-137.88 323.63,-137.97 331.97,-144.51 334.23,-137.88"/>
</a>
</g>
</g>
<!-- Node5 -->
<g id="Node000005" class="node">
<title>Node5</title>
<g id="a_Node000005"><a xlink:title=" ">
<polygon fill="#e0e0e0" stroke="#999999" points="1100.85,-19 1042.85,-19 1042.85,0 1100.85,0 1100.85,-19"/>
<text text-anchor="middle" x="1071.85" y="-7" font-family="Helvetica,sans-Serif" font-size="10.00">memory</text>
</a>
</g>
</g>
<!-- Node1&#45;&gt;Node5 -->
<g id="edge4_Node000001_Node000005" class="edge">
<title>Node1&#45;&gt;Node5</title>
<g id="a_edge4_Node000001_Node000005"><a xlink:title=" ">
<path fill="none" stroke="#63b8ff" d="M493.98,-251.02C651.95,-251.71 1059.38,-249.24 1100.85,-206 1147.32,-157.56 1124.44,-118.89 1103.85,-55 1100.51,-44.62 1093.75,-34.62 1087.3,-26.74"/>
<polygon fill="#63b8ff" stroke="#63b8ff" points="1089.83,-24.31 1080.6,-19.1 1084.56,-28.92 1089.83,-24.31"/>
</a>
</g>
</g>
<!-- Node6 -->
<g id="Node000006" class="node">
<title>Node6</title>
<g id="a_Node000006"><a xlink:title=" ">
<polygon fill="#e0e0e0" stroke="#999999" points="302.85,-200.5 246.85,-200.5 246.85,-181.5 302.85,-181.5 302.85,-200.5"/>
<text text-anchor="middle" x="274.85" y="-188.5" font-family="Helvetica,sans-Serif" font-size="10.00">sstream</text>
</a>
</g>
</g>
<!-- Node1&#45;&gt;Node6 -->
<g id="edge5_Node000001_Node000006" class="edge">
<title>Node1&#45;&gt;Node6</title>
<g id="a_edge5_Node000001_Node000006"><a xlink:title=" ">
<path fill="none" stroke="#63b8ff" d="M408.38,-241.85C384.18,-232.91 345.35,-218.55 311.85,-206 310.26,-205.4 308.63,-204.79 306.99,-204.17"/>
<polygon fill="#63b8ff" stroke="#63b8ff" points="308.13,-200.87 297.54,-200.61 305.67,-207.42 308.13,-200.87"/>
</a>
</g>
</g>
<!-- Node7 -->
<g id="Node000007" class="node">
<title>Node7</title>
<g id="a_Node000007"><a xlink:title=" ">
<polygon fill="#e0e0e0" stroke="#999999" points="384.85,-200.5 320.85,-200.5 320.85,-181.5 384.85,-181.5 384.85,-200.5"/>
<text text-anchor="middle" x="352.85" y="-188.5" font-family="Helvetica,sans-Serif" font-size="10.00">sys/stat.h</text>
</a>
</g>
</g>
<!-- Node1&#45;&gt;Node7 -->
<g id="edge6_Node000001_Node000007" class="edge">
<title>Node1&#45;&gt;Node7</title>
<g id="a_edge6_Node000001_Node000007"><a xlink:title=" ">
<path fill="none" stroke="#63b8ff" d="M420.2,-241.87C407.71,-232.62 387.67,-217.78 372.7,-206.69"/>
<polygon fill="#63b8ff" stroke="#63b8ff" points="374.68,-203.81 364.56,-200.67 370.51,-209.43 374.68,-203.81"/>
</a>
</g>
</g>
<!-- Node8 -->
<g id="Node000008" class="node">
<title>Node8</title>
<g id="a_Node000008"><a xlink:title=" ">
<polygon fill="#e0e0e0" stroke="#999999" points="199.85,-19 143.85,-19 143.85,0 199.85,0 199.85,-19"/>
<text text-anchor="middle" x="171.85" y="-7" font-family="Helvetica,sans-Serif" font-size="10.00">unistd.h</text>
</a>
</g>
</g>
<!-- Node1&#45;&gt;Node8 -->
<g id="edge7_Node000001_Node000008" class="edge">
<title>Node1&#45;&gt;Node8</title>
<g id="a_edge7_Node000001_Node000008"><a xlink:title=" ">
<path fill="none" stroke="#63b8ff" d="M369.64,-249.48C275.65,-246.91 102.89,-237.87 50.85,-206 14.58,-183.78 -13.18,-158.53 6.85,-121 34.08,-70 96.42,-38.41 136.2,-22.67"/>
<polygon fill="#63b8ff" stroke="#63b8ff" points="137.46,-25.94 145.55,-19.1 134.96,-19.4 137.46,-25.94"/>
</a>
</g>
</g>
<!-- Node9 -->
<g id="Node000009" class="node">
<title>Node9</title>
<g id="a_Node000009"><a xlink:title=" ">
<polygon fill="#e0e0e0" stroke="#999999" points="427.85,-140 379.85,-140 379.85,-121 427.85,-121 427.85,-140"/>
<text text-anchor="middle" x="403.85" y="-128" font-family="Helvetica,sans-Serif" font-size="10.00">thread</text>
</a>
</g>
</g>
<!-- Node1&#45;&gt;Node9 -->
<g id="edge8_Node000001_Node000009" class="edge">
<title>Node1&#45;&gt;Node9</title>
<g id="a_edge8_Node000001_Node000009"><a xlink:title=" ">
<path fill="none" stroke="#63b8ff" d="M441.02,-241.64C454.44,-227.54 476.65,-199.2 464.85,-176 458.08,-162.68 445.26,-152.41 433.1,-145.1"/>
<polygon fill="#63b8ff" stroke="#63b8ff" points="434.5,-141.87 424.05,-140.09 431.11,-147.99 434.5,-141.87"/>
</a>
</g>
</g>
<!-- Node10 -->
<g id="Node000010" class="node">
<title>Node10</title>
<g id="a_Node000010"><a xlink:href="load__tracker__info_8cpp.html" target="_top" xlink:title=" ">
<polygon fill="white" stroke="#666666" points="228.35,-206 97.35,-206 97.35,-176 228.35,-176 228.35,-206"/>
<text text-anchor="start" x="105.35" y="-194" font-family="Helvetica,sans-Serif" font-size="10.00">../common/load_tracker</text>
<text text-anchor="middle" x="162.85" y="-183" font-family="Helvetica,sans-Serif" font-size="10.00">_info.cpp</text>
</a>
</g>
</g>
<!-- Node1&#45;&gt;Node10 -->
<g id="edge9_Node000001_Node000010" class="edge">
<title>Node1&#45;&gt;Node10</title>
<g id="a_edge9_Node000001_Node000010"><a xlink:title=" ">
<path fill="none" stroke="#63b8ff" d="M392.74,-241.99C352.1,-233.16 287.52,-219.11 237.14,-208.16"/>
<polygon fill="#63b8ff" stroke="#63b8ff" points="237.78,-204.71 227.27,-206.01 236.29,-211.55 237.78,-204.71"/>
</a>
</g>
</g>
<!-- Node16 -->
<g id="Node000016" class="node">
<title>Node16</title>
<g id="a_Node000016"><a xlink:href="network__errors_8hpp.html" target="_top" xlink:title=" ">
<polygon fill="white" stroke="#666666" points="356.85,-85 248.85,-85 248.85,-55 356.85,-55 356.85,-85"/>
<text text-anchor="start" x="256.85" y="-73" font-family="Helvetica,sans-Serif" font-size="10.00">../network/network</text>
<text text-anchor="middle" x="302.85" y="-62" font-family="Helvetica,sans-Serif" font-size="10.00">_errors.hpp</text>
</a>
</g>
</g>
<!-- Node1&#45;&gt;Node16 -->
<g id="edge19_Node000001_Node000016" class="edge">
<title>Node1&#45;&gt;Node16</title>
<g id="a_edge19_Node000001_Node000016"><a xlink:title=" ">
<path fill="none" stroke="#63b8ff" d="M432.32,-241.98C432.72,-227.36 431.76,-197.04 418.85,-176 404.91,-153.27 390.94,-157.55 370.85,-140 353.81,-125.11 335.89,-106.8 322.73,-92.79"/>
<polygon fill="#63b8ff" stroke="#63b8ff" points="324.95,-90.03 315.57,-85.09 319.82,-94.8 324.95,-90.03"/>
</a>
</g>
</g>
<!-- Node17 -->
<g id="Node000017" class="node">
<title>Node17</title>
<g id="a_Node000017"><a xlink:href="tcp__server_8hpp.html" target="_top" xlink:title=" ">
<polygon fill="white" stroke="#666666" points="656.85,-200.5 516.85,-200.5 516.85,-181.5 656.85,-181.5 656.85,-200.5"/>
<text text-anchor="middle" x="586.85" y="-188.5" font-family="Helvetica,sans-Serif" font-size="10.00">../network/tcp_server.hpp</text>
</a>
</g>
</g>
<!-- Node1&#45;&gt;Node17 -->
<g id="edge21_Node000001_Node000017" class="edge">
<title>Node1&#45;&gt;Node17</title>
<g id="a_edge21_Node000001_Node000017"><a xlink:title=" ">
<path fill="none" stroke="#63b8ff" d="M454.39,-241.99C480.79,-232.03 524.73,-215.45 554.7,-204.13"/>
<polygon fill="#63b8ff" stroke="#63b8ff" points="556.17,-207.32 564.29,-200.52 553.7,-200.77 556.17,-207.32"/>
</a>
</g>
</g>
<!-- Node25 -->
<g id="Node000025" class="node">
<title>Node25</title>
<g id="a_Node000025"><a xlink:href="parse__request_8hpp.html" target="_top" xlink:title=" ">
<polygon fill="white" stroke="#666666" points="810.35,-200.5 703.35,-200.5 703.35,-181.5 810.35,-181.5 810.35,-200.5"/>
<text text-anchor="middle" x="756.85" y="-188.5" font-family="Helvetica,sans-Serif" font-size="10.00">parse_request.hpp</text>
</a>
</g>
</g>
<!-- Node1&#45;&gt;Node25 -->
<g id="edge34_Node000001_Node000025" class="edge">
<title>Node1&#45;&gt;Node25</title>
<g id="a_edge34_Node000001_Node000025"><a xlink:title=" ">
<path fill="none" stroke="#63b8ff" d="M479.11,-241.99C537.48,-231.49 636.72,-213.62 699.42,-202.34"/>
<polygon fill="#63b8ff" stroke="#63b8ff" points="700.32,-205.73 709.54,-200.52 699.08,-198.84 700.32,-205.73"/>
</a>
</g>
</g>
<!-- Node28 -->
<g id="Node000028" class="node">
<title>Node28</title>
<g id="a_Node000028"><a xlink:href="tracker_2process__request_8hpp.html" target="_top" xlink:title=" ">
<polygon fill="white" stroke="#666666" points="945.35,-200.5 828.35,-200.5 828.35,-181.5 945.35,-181.5 945.35,-200.5"/>
<text text-anchor="middle" x="886.85" y="-188.5" font-family="Helvetica,sans-Serif" font-size="10.00">process_request.hpp</text>
</a>
</g>
</g>
<!-- Node1&#45;&gt;Node28 -->
<g id="edge43_Node000001_Node000028" class="edge">
<title>Node1&#45;&gt;Node28</title>
<g id="a_edge43_Node000001_Node000028"><a xlink:title=" ">
<path fill="none" stroke="#63b8ff" d="M493.92,-245.15C570.73,-238.13 705.39,-224.48 819.85,-206 826.09,-204.99 832.62,-203.8 839.07,-202.54"/>
<polygon fill="#63b8ff" stroke="#63b8ff" points="839.94,-205.94 849.05,-200.53 838.56,-199.08 839.94,-205.94"/>
</a>
</g>
</g>
<!-- Node29 -->
<g id="Node000029" class="node">
<title>Node29</title>
<g id="a_Node000029"><a xlink:href="transactionsrecord_8hpp.html" target="_top" xlink:title=" ">
<polygon fill="white" stroke="#666666" points="1091.85,-200.5 963.85,-200.5 963.85,-181.5 1091.85,-181.5 1091.85,-200.5"/>
<text text-anchor="middle" x="1027.85" y="-188.5" font-family="Helvetica,sans-Serif" font-size="10.00">transactionsrecord.hpp</text>
</a>
</g>
</g>
<!-- Node1&#45;&gt;Node29 -->
<g id="edge47_Node000001_Node000029" class="edge">
<title>Node1&#45;&gt;Node29</title>
<g id="a_edge47_Node000001_Node000029"><a xlink:title=" ">
<path fill="none" stroke="#63b8ff" d="M494.08,-247.32C592.31,-241.82 789.21,-228.87 954.85,-206 962.23,-204.98 969.99,-203.71 977.59,-202.35"/>
<polygon fill="#63b8ff" stroke="#63b8ff" points="978.24,-205.79 987.44,-200.53 976.97,-198.91 978.24,-205.79"/>
</a>
</g>
</g>
<!-- Node10&#45;&gt;Node2 -->
<g id="edge14_Node000010_Node000002" class="edge">
<title>Node10&#45;&gt;Node2</title>
<g id="a_edge14_Node000010_Node000002"><a xlink:title=" ">
<path fill="none" stroke="#63b8ff" d="M133.63,-175.99C113.73,-166.45 87.57,-153.9 68.1,-144.57"/>
<polygon fill="#63b8ff" stroke="#63b8ff" points="69.4,-141.31 58.87,-140.14 66.37,-147.62 69.4,-141.31"/>
</a>
</g>
</g>
<!-- Node10&#45;&gt;Node3 -->
<g id="edge16_Node000010_Node000003" class="edge">
<title>Node10&#45;&gt;Node3</title>
<g id="a_edge16_Node000010_Node000003"><a xlink:title=" ">
<path fill="none" stroke="#63b8ff" d="M150.99,-175.84C143.95,-167.43 134.99,-156.74 127.64,-147.96"/>
<polygon fill="#63b8ff" stroke="#63b8ff" points="130.3,-145.68 121.2,-140.27 124.93,-150.18 130.3,-145.68"/>
</a>
</g>
</g>
<!-- Node10&#45;&gt;Node4 -->
<g id="edge15_Node000010_Node000004" class="edge">
<title>Node10&#45;&gt;Node4</title>
<g id="a_edge15_Node000010_Node000004"><a xlink:title=" ">
<path fill="none" stroke="#63b8ff" d="M195.67,-175.99C218.32,-166.31 248.2,-153.56 270.15,-144.18"/>
<polygon fill="#63b8ff" stroke="#63b8ff" points="271.8,-147.29 279.62,-140.14 269.05,-140.85 271.8,-147.29"/>
</a>
</g>
</g>
<!-- Node10&#45;&gt;Node8 -->
<g id="edge17_Node000010_Node000008" class="edge">
<title>Node10&#45;&gt;Node8</title>
<g id="a_edge17_Node000010_Node000008"><a xlink:title=" ">
<path fill="none" stroke="#63b8ff" d="M163.56,-175.91C165.17,-143.85 169.1,-65.38 170.91,-29.26"/>
<polygon fill="#63b8ff" stroke="#63b8ff" points="174.42,-29.3 171.42,-19.13 167.42,-28.95 174.42,-29.3"/>
</a>
</g>
</g>
<!-- Node11 -->
<g id="Node000011" class="node">
<title>Node11</title>
<g id="a_Node000011"><a xlink:href="endpoint_8hpp.html" target="_top" xlink:title=" ">
<polygon fill="white" stroke="#666666" points="540.85,-79.5 412.85,-79.5 412.85,-60.5 540.85,-60.5 540.85,-79.5"/>
<text text-anchor="middle" x="476.85" y="-67.5" font-family="Helvetica,sans-Serif" font-size="10.00">../models/endpoint.hpp</text>
</a>
</g>
</g>
<!-- Node10&#45;&gt;Node11 -->
<g id="edge10_Node000010_Node000011" class="edge">
<title>Node10&#45;&gt;Node11</title>
<g id="a_edge10_Node000010_Node000011"><a xlink:title=" ">
<path fill="none" stroke="#63b8ff" d="M173.21,-175.94C185.73,-160.01 208.33,-134.51 233.85,-121 263.19,-105.46 345.32,-90.51 406.02,-81.06"/>
<polygon fill="#63b8ff" stroke="#63b8ff" points="406.59,-84.52 415.95,-79.54 405.53,-77.6 406.59,-84.52"/>
</a>
</g>
</g>
<!-- Node15 -->
<g id="Node000015" class="node">
<title>Node15</title>
<g id="a_Node000015"><a xlink:title=" ">
<polygon fill="#e0e0e0" stroke="#999999" points="991.35,-19 944.35,-19 944.35,0 991.35,0 991.35,-19"/>
<text text-anchor="middle" x="967.85" y="-7" font-family="Helvetica,sans-Serif" font-size="10.00">vector</text>
</a>
</g>
</g>
<!-- Node10&#45;&gt;Node15 -->
<g id="edge18_Node000010_Node000015" class="edge">
<title>Node10&#45;&gt;Node15</title>
<g id="a_edge18_Node000010_Node000015"><a xlink:title=" ">
<path fill="none" stroke="#63b8ff" d="M182.95,-175.95C210.54,-156.77 257.77,-124.38 266.85,-121 385.69,-76.79 424.45,-103.69 549.85,-85 632.98,-72.61 836.29,-39.87 934.16,-19.2"/>
<polygon fill="#63b8ff" stroke="#63b8ff" points="935.11,-22.58 944.15,-17.05 933.63,-15.73 935.11,-22.58"/>
</a>
</g>
</g>
<!-- Node12 -->
<g id="Node000012" class="node">
<title>Node12</title>
<g id="a_Node000012"><a xlink:title=" ">
<polygon fill="#e0e0e0" stroke="#999999" points="501.85,-19 451.85,-19 451.85,0 501.85,0 501.85,-19"/>
<text text-anchor="middle" x="476.85" y="-7" font-family="Helvetica,sans-Serif" font-size="10.00">cstdint</text>
</a>
</g>
</g>
<!-- Node11&#45;&gt;Node12 -->
<g id="edge11_Node000011_Node000012" class="edge">
<title>Node11&#45;&gt;Node12</title>
<g id="a_edge11_Node000011_Node000012"><a xlink:title=" ">
<path fill="none" stroke="#63b8ff" d="M476.85,-60.37C476.85,-52.25 476.85,-39.81 476.85,-29.39"/>
<polygon fill="#63b8ff" stroke="#63b8ff" points="480.35,-29.17 476.85,-19.17 473.35,-29.17 480.35,-29.17"/>
</a>
</g>
</g>
<!-- Node13 -->
<g id="Node000013" class="node">
<title>Node13</title>
<g id="a_Node000013"><a xlink:title=" ">
<polygon fill="#e0e0e0" stroke="#999999" points="417.35,-19 352.35,-19 352.35,0 417.35,0 417.35,-19"/>
<text text-anchor="middle" x="384.85" y="-7" font-family="Helvetica,sans-Serif" font-size="10.00">stdexcept</text>
</a>
</g>
</g>
<!-- Node11&#45;&gt;Node13 -->
<g id="edge12_Node000011_Node000013" class="edge">
<title>Node11&#45;&gt;Node13</title>
<g id="a_edge12_Node000011_Node000013"><a xlink:title=" ">
<path fill="none" stroke="#63b8ff" d="M463.28,-60.37C448.47,-50.95 424.53,-35.73 406.99,-24.58"/>
<polygon fill="#63b8ff" stroke="#63b8ff" points="408.8,-21.58 398.48,-19.17 405.04,-27.49 408.8,-21.58"/>
</a>
</g>
</g>
<!-- Node14 -->
<g id="Node000014" class="node">
<title>Node14</title>
<g id="a_Node000014"><a xlink:title=" ">
<polygon fill="#e0e0e0" stroke="#999999" points="740.85,-19 696.85,-19 696.85,0 740.85,0 740.85,-19"/>
<text text-anchor="middle" x="718.85" y="-7" font-family="Helvetica,sans-Serif" font-size="10.00">string</text>
</a>
</g>
</g>
<!-- Node11&#45;&gt;Node14 -->
<g id="edge13_Node000011_Node000014" class="edge">
<title>Node11&#45;&gt;Node14</title>
<g id="a_edge13_Node000011_Node000014"><a xlink:title=" ">
<path fill="none" stroke="#63b8ff" d="M512.04,-60.49C558.99,-49.15 641.43,-29.22 686.76,-18.26"/>
<polygon fill="#63b8ff" stroke="#63b8ff" points="687.74,-21.62 696.64,-15.87 686.09,-14.82 687.74,-21.62"/>
</a>
</g>
</g>
<!-- Node16&#45;&gt;Node13 -->
<g id="edge20_Node000016_Node000013" class="edge">
<title>Node16&#45;&gt;Node13</title>
<g id="a_edge20_Node000016_Node000013"><a xlink:title=" ">
<path fill="none" stroke="#63b8ff" d="M322.7,-54.84C335.34,-45.83 351.66,-34.18 364.4,-25.09"/>
<polygon fill="#63b8ff" stroke="#63b8ff" points="366.46,-27.92 372.57,-19.27 362.39,-22.22 366.46,-27.92"/>
</a>
</g>
</g>
<!-- Node17&#45;&gt;Node9 -->
<g id="edge26_Node000017_Node000009" class="edge">
<title>Node17&#45;&gt;Node9</title>
<g id="a_edge26_Node000017_Node000009"><a xlink:title=" ">
<path fill="none" stroke="#63b8ff" d="M560.24,-181.49C527.85,-171.14 473.11,-153.64 437.74,-142.33"/>
<polygon fill="#63b8ff" stroke="#63b8ff" points="438.46,-138.89 427.87,-139.18 436.33,-145.56 438.46,-138.89"/>
</a>
</g>
</g>
<!-- Node18 -->
<g id="Node000018" class="node">
<title>Node18</title>
<g id="a_Node000018"><a xlink:title=" ">
<polygon fill="#e0e0e0" stroke="#999999" points="611.85,-140 561.85,-140 561.85,-121 611.85,-121 611.85,-140"/>
<text text-anchor="middle" x="586.85" y="-128" font-family="Helvetica,sans-Serif" font-size="10.00">atomic</text>
</a>
</g>
</g>
<!-- Node17&#45;&gt;Node18 -->
<g id="edge22_Node000017_Node000018" class="edge">
<title>Node17&#45;&gt;Node18</title>
<g id="a_edge22_Node000017_Node000018"><a xlink:title=" ">
<path fill="none" stroke="#63b8ff" d="M586.85,-181.37C586.85,-173.25 586.85,-160.81 586.85,-150.39"/>
<polygon fill="#63b8ff" stroke="#63b8ff" points="590.35,-150.17 586.85,-140.17 583.35,-150.17 590.35,-150.17"/>
</a>
</g>
</g>
<!-- Node19 -->
<g id="Node000019" class="node">
<title>Node19</title>
<g id="a_Node000019"><a xlink:title=" ">
<polygon fill="#e0e0e0" stroke="#999999" points="695.35,-140 630.35,-140 630.35,-121 695.35,-121 695.35,-140"/>
<text text-anchor="middle" x="662.85" y="-128" font-family="Helvetica,sans-Serif" font-size="10.00">functional</text>
</a>
</g>
</g>
<!-- Node17&#45;&gt;Node19 -->
<g id="edge23_Node000017_Node000019" class="edge">
<title>Node17&#45;&gt;Node19</title>
<g id="a_edge23_Node000017_Node000019"><a xlink:title=" ">
<path fill="none" stroke="#63b8ff" d="M598.07,-181.37C609.97,-172.21 629,-157.56 643.36,-146.51"/>
<polygon fill="#63b8ff" stroke="#63b8ff" points="645.8,-149.04 651.59,-140.17 641.53,-143.49 645.8,-149.04"/>
</a>
</g>
</g>
<!-- Node20 -->
<g id="Node000020" class="node">
<title>Node20</title>
<g id="a_Node000020"><a xlink:title=" ">
<polygon fill="#e0e0e0" stroke="#999999" points="477.85,-140 445.85,-140 445.85,-121 477.85,-121 477.85,-140"/>
<text text-anchor="middle" x="461.85" y="-128" font-family="Helvetica,sans-Serif" font-size="10.00">list</text>
</a>
</g>
</g>
<!-- Node17&#45;&gt;Node20 -->
<g id="edge24_Node000017_Node000020" class="edge">
<title>Node17&#45;&gt;Node20</title>
<g id="a_edge24_Node000017_Node000020"><a xlink:title=" ">
<path fill="none" stroke="#63b8ff" d="M568.68,-181.49C547.25,-171.47 511.51,-154.74 487.33,-143.42"/>
<polygon fill="#63b8ff" stroke="#63b8ff" points="488.6,-140.15 478.06,-139.09 485.64,-146.49 488.6,-140.15"/>
</a>
</g>
</g>
<!-- Node21 -->
<g id="Node000021" class="node">
<title>Node21</title>
<g id="a_Node000021"><a xlink:title=" ">
<polygon fill="#e0e0e0" stroke="#999999" points="543.85,-140 495.85,-140 495.85,-121 543.85,-121 543.85,-140"/>
<text text-anchor="middle" x="519.85" y="-128" font-family="Helvetica,sans-Serif" font-size="10.00">mutex</text>
</a>
</g>
</g>
<!-- Node17&#45;&gt;Node21 -->
<g id="edge25_Node000017_Node000021" class="edge">
<title>Node17&#45;&gt;Node21</title>
<g id="a_edge25_Node000017_Node000021"><a xlink:title=" ">
<path fill="none" stroke="#63b8ff" d="M576.97,-181.37C566.58,-172.3 550.02,-157.84 537.4,-146.82"/>
<polygon fill="#63b8ff" stroke="#63b8ff" points="539.62,-144.11 529.78,-140.17 535.01,-149.38 539.62,-144.11"/>
</a>
</g>
</g>
<!-- Node22 -->
<g id="Node000022" class="node">
<title>Node22</title>
<g id="a_Node000022"><a xlink:href="tcp__socket_8hpp.html" target="_top" xlink:title=" ">
<polygon fill="white" stroke="#666666" points="928.35,-79.5 839.35,-79.5 839.35,-60.5 928.35,-60.5 928.35,-79.5"/>
<text text-anchor="middle" x="883.85" y="-67.5" font-family="Helvetica,sans-Serif" font-size="10.00">tcp_socket.hpp</text>
</a>
</g>
</g>
<!-- Node17&#45;&gt;Node22 -->
<g id="edge27_Node000017_Node000022" class="edge">
<title>Node17&#45;&gt;Node22</title>
<g id="a_edge27_Node000017_Node000022"><a xlink:title=" ">
<path fill="none" stroke="#63b8ff" d="M654.47,-181.48C731.1,-171.24 847.42,-153.74 862.85,-140 877,-127.41 881.76,-105.6 883.29,-89.87"/>
<polygon fill="#63b8ff" stroke="#63b8ff" points="886.79,-89.9 883.92,-79.71 879.81,-89.47 886.79,-89.9"/>
</a>
</g>
</g>
<!-- Node22&#45;&gt;Node5 -->
<g id="edge28_Node000022_Node000005" class="edge">
<title>Node22&#45;&gt;Node5</title>
<g id="a_edge28_Node000022_Node000005"><a xlink:title=" ">
<path fill="none" stroke="#63b8ff" d="M911.19,-60.49C943.77,-50.36 998.36,-33.37 1034.74,-22.05"/>
<polygon fill="#63b8ff" stroke="#63b8ff" points="1035.98,-25.33 1044.48,-19.02 1033.9,-18.65 1035.98,-25.33"/>
</a>
</g>
</g>
<!-- Node22&#45;&gt;Node8 -->
<g id="edge32_Node000022_Node000008" class="edge">
<title>Node22&#45;&gt;Node8</title>
<g id="a_edge32_Node000022_Node000008"><a xlink:title=" ">
<path fill="none" stroke="#63b8ff" d="M848.6,-60.44C839,-58.38 828.57,-56.37 818.85,-55 700.08,-38.21 330.82,-18.54 210.32,-12.42"/>
<polygon fill="#63b8ff" stroke="#63b8ff" points="210.26,-8.91 200.1,-11.9 209.91,-15.9 210.26,-8.91"/>
</a>
</g>
</g>
<!-- Node22&#45;&gt;Node14 -->
<g id="edge30_Node000022_Node000014" class="edge">
<title>Node22&#45;&gt;Node14</title>
<g id="a_edge30_Node000022_Node000014"><a xlink:title=" ">
<path fill="none" stroke="#63b8ff" d="M859.86,-60.49C831.07,-50.29 782.69,-33.13 750.77,-21.81"/>
<polygon fill="#63b8ff" stroke="#63b8ff" points="751.62,-18.4 741.03,-18.36 749.28,-25 751.62,-18.4"/>
</a>
</g>
</g>
<!-- Node22&#45;&gt;Node15 -->
<g id="edge33_Node000022_Node000015" class="edge">
<title>Node22&#45;&gt;Node15</title>
<g id="a_edge33_Node000022_Node000015"><a xlink:title=" ">
<path fill="none" stroke="#63b8ff" d="M896.25,-60.37C909.65,-51.04 931.23,-36.01 947.2,-24.88"/>
<polygon fill="#63b8ff" stroke="#63b8ff" points="949.2,-27.75 955.41,-19.17 945.2,-22.01 949.2,-27.75"/>
</a>
</g>
</g>
<!-- Node23 -->
<g id="Node000023" class="node">
<title>Node23</title>
<g id="a_Node000023"><a xlink:title=" ">
<polygon fill="#e0e0e0" stroke="#999999" points="830.85,-19 758.85,-19 758.85,0 830.85,0 830.85,-19"/>
<text text-anchor="middle" x="794.85" y="-7" font-family="Helvetica,sans-Serif" font-size="10.00">netinet/in.h</text>
</a>
</g>
</g>
<!-- Node22&#45;&gt;Node23 -->
<g id="edge29_Node000022_Node000023" class="edge">
<title>Node22&#45;&gt;Node23</title>
<g id="a_edge29_Node000022_Node000023"><a xlink:title=" ">
<path fill="none" stroke="#63b8ff" d="M870.72,-60.37C856.52,-51.04 833.66,-36.01 816.74,-24.88"/>
<polygon fill="#63b8ff" stroke="#63b8ff" points="818.32,-21.74 808.04,-19.17 814.47,-27.58 818.32,-21.74"/>
</a>
</g>
</g>
<!-- Node24 -->
<g id="Node000024" class="node">
<title>Node24</title>
<g id="a_Node000024"><a xlink:title=" ">
<polygon fill="#e0e0e0" stroke="#999999" points="926.35,-19 849.35,-19 849.35,0 926.35,0 926.35,-19"/>
<text text-anchor="middle" x="887.85" y="-7" font-family="Helvetica,sans-Serif" font-size="10.00">sys/socket.h</text>
</a>
</g>
</g>
<!-- Node22&#45;&gt;Node24 -->
<g id="edge31_Node000022_Node000024" class="edge">
<title>Node22&#45;&gt;Node24</title>
<g id="a_edge31_Node000022_Node000024"><a xlink:title=" ">
<path fill="none" stroke="#63b8ff" d="M884.44,-60.37C885,-52.25 885.85,-39.81 886.56,-29.39"/>
<polygon fill="#63b8ff" stroke="#63b8ff" points="890.07,-29.38 887.26,-19.17 883.09,-28.91 890.07,-29.38"/>
</a>
</g>
</g>
<!-- Node25&#45;&gt;Node5 -->
<g id="edge35_Node000025_Node000005" class="edge">
<title>Node25&#45;&gt;Node5</title>
<g id="a_edge35_Node000025_Node000005"><a xlink:title=" ">
<path fill="none" stroke="#63b8ff" d="M796.69,-181.45C829,-173.52 875.05,-159.92 911.85,-140 970.81,-108.08 1029.28,-53.4 1056.31,-26.46"/>
<polygon fill="#63b8ff" stroke="#63b8ff" points="1059.11,-28.61 1063.66,-19.05 1054.14,-23.69 1059.11,-28.61"/>
</a>
</g>
</g>
<!-- Node25&#45;&gt;Node22 -->
<g id="edge36_Node000025_Node000022" class="edge">
<title>Node25&#45;&gt;Node22</title>
<g id="a_edge36_Node000025_Node000022"><a xlink:title=" ">
<path fill="none" stroke="#63b8ff" d="M795.17,-181.43C832.06,-172.31 883.98,-156.89 895.85,-140 906.42,-124.97 900.33,-103.64 893.57,-88.68"/>
<polygon fill="#63b8ff" stroke="#63b8ff" points="896.58,-86.88 888.97,-79.51 890.32,-90.01 896.58,-86.88"/>
</a>
</g>
</g>
<!-- Node26 -->
<g id="Node000026" class="node">
<title>Node26</title>
<g id="a_Node000026"><a xlink:href="transaction_8hpp.html" target="_top" xlink:title=" ">
<polygon fill="white" stroke="#666666" points="853.85,-140 713.85,-140 713.85,-121 853.85,-121 853.85,-140"/>
<text text-anchor="middle" x="783.85" y="-128" font-family="Helvetica,sans-Serif" font-size="10.00">../models/transaction.hpp</text>
</a>
</g>
</g>
<!-- Node25&#45;&gt;Node26 -->
<g id="edge37_Node000025_Node000026" class="edge">
<title>Node25&#45;&gt;Node26</title>
<g id="a_edge37_Node000025_Node000026"><a xlink:title=" ">
<path fill="none" stroke="#63b8ff" d="M760.84,-181.37C764.71,-172.99 770.7,-160.01 775.6,-149.39"/>
<polygon fill="#63b8ff" stroke="#63b8ff" points="778.84,-150.71 779.85,-140.17 772.48,-147.78 778.84,-150.71"/>
</a>
</g>
</g>
<!-- Node26&#45;&gt;Node11 -->
<g id="edge41_Node000026_Node000011" class="edge">
<title>Node26&#45;&gt;Node11</title>
<g id="a_edge41_Node000026_Node000011"><a xlink:title=" ">
<path fill="none" stroke="#63b8ff" d="M739.21,-120.99C684.19,-110.51 590.72,-92.7 531.47,-81.41"/>
<polygon fill="#63b8ff" stroke="#63b8ff" points="532.03,-77.95 521.55,-79.52 530.72,-84.83 532.03,-77.95"/>
</a>
</g>
</g>
<!-- Node26&#45;&gt;Node13 -->
<g id="edge38_Node000026_Node000013" class="edge">
<title>Node26&#45;&gt;Node13</title>
<g id="a_edge38_Node000026_Node000013"><a xlink:title=" ">
<path fill="none" stroke="#63b8ff" d="M713.49,-121.76C604.44,-109.7 406.75,-87.53 403.85,-85 388.26,-71.36 384.59,-46.88 384.12,-29.71"/>
<polygon fill="#63b8ff" stroke="#63b8ff" points="387.62,-29.25 384.2,-19.22 380.62,-29.2 387.62,-29.25"/>
</a>
</g>
</g>
<!-- Node26&#45;&gt;Node14 -->
<g id="edge39_Node000026_Node000014" class="edge">
<title>Node26&#45;&gt;Node14</title>
<g id="a_edge39_Node000026_Node000014"><a xlink:title=" ">
<path fill="none" stroke="#63b8ff" d="M776.1,-120.78C768.68,-112.14 757.53,-98.31 749.85,-85 739.37,-66.84 730.55,-44.45 725.03,-28.98"/>
<polygon fill="#63b8ff" stroke="#63b8ff" points="728.19,-27.41 721.62,-19.1 721.58,-29.7 728.19,-27.41"/>
</a>
</g>
</g>
<!-- Node26&#45;&gt;Node22 -->
<g id="edge42_Node000026_Node000022" class="edge">
<title>Node26&#45;&gt;Node22</title>
<g id="a_edge42_Node000026_Node000022"><a xlink:title=" ">
<path fill="none" stroke="#63b8ff" d="M798.61,-120.87C814.86,-111.36 841.21,-95.95 860.32,-84.77"/>
<polygon fill="#63b8ff" stroke="#63b8ff" points="862.17,-87.74 869.04,-79.67 858.64,-81.7 862.17,-87.74"/>
</a>
</g>
</g>
<!-- Node27 -->
<g id="Node000027" class="node">
<title>Node27</title>
<g id="a_Node000027"><a xlink:title=" ">
<polygon fill="#e0e0e0" stroke="#999999" points="809.35,-79.5 758.35,-79.5 758.35,-60.5 809.35,-60.5 809.35,-79.5"/>
<text text-anchor="middle" x="783.85" y="-67.5" font-family="Helvetica,sans-Serif" font-size="10.00">variant</text>
</a>
</g>
</g>
<!-- Node26&#45;&gt;Node27 -->
<g id="edge40_Node000026_Node000027" class="edge">
<title>Node26&#45;&gt;Node27</title>
<g id="a_edge40_Node000026_Node000027"><a xlink:title=" ">
<path fill="none" stroke="#63b8ff" d="M783.85,-120.87C783.85,-112.75 783.85,-100.31 783.85,-89.89"/>
<polygon fill="#63b8ff" stroke="#63b8ff" points="787.35,-89.67 783.85,-79.67 780.35,-89.67 787.35,-89.67"/>
</a>
</g>
</g>
<!-- Node28&#45;&gt;Node5 -->
<g id="edge44_Node000028_Node000005" class="edge">
<title>Node28&#45;&gt;Node5</title>
<g id="a_edge44_Node000028_Node000005"><a xlink:title=" ">
<path fill="none" stroke="#63b8ff" d="M920.93,-181.42C965.58,-169.88 1039.25,-149.68 1047.85,-140 1075.36,-109.04 1075.96,-57.06 1073.96,-29.31"/>
<polygon fill="#63b8ff" stroke="#63b8ff" points="1077.41,-28.66 1073.01,-19.03 1070.44,-29.31 1077.41,-28.66"/>
</a>
</g>
</g>
<!-- Node28&#45;&gt;Node22 -->
<g id="edge46_Node000028_Node000022" class="edge">
<title>Node28&#45;&gt;Node22</title>
<g id="a_edge46_Node000028_Node000022"><a xlink:title=" ">
<path fill="none" stroke="#63b8ff" d="M900.03,-181.33C917.15,-168.88 943.73,-144.84 933.85,-121 928.07,-107.04 916.29,-94.94 905.61,-86.15"/>
<polygon fill="#63b8ff" stroke="#63b8ff" points="907.48,-83.17 897.43,-79.83 903.2,-88.71 907.48,-83.17"/>
</a>
</g>
</g>
<!-- Node28&#45;&gt;Node26 -->
<g id="edge45_Node000028_Node000026" class="edge">
<title>Node28&#45;&gt;Node26</title>
<g id="a_edge45_Node000028_Node000026"><a xlink:title=" ">
<path fill="none" stroke="#63b8ff" d="M871.66,-181.37C854.84,-171.82 827.53,-156.31 807.83,-145.12"/>
<polygon fill="#63b8ff" stroke="#63b8ff" points="809.54,-142.06 799.11,-140.17 806.08,-148.15 809.54,-142.06"/>
</a>
</g>
</g>
<!-- Node29&#45;&gt;Node5 -->
<g id="edge48_Node000029_Node000005" class="edge">
<title>Node29&#45;&gt;Node5</title>
<g id="a_edge48_Node000029_Node000005"><a xlink:title=" ">
<path fill="none" stroke="#63b8ff" d="M1044.08,-181.38C1058.07,-172.93 1077.33,-158.61 1085.85,-140 1102.74,-103.14 1089.11,-54.39 1079.42,-28.48"/>
<polygon fill="#63b8ff" stroke="#63b8ff" points="1082.67,-27.18 1075.73,-19.17 1076.16,-29.75 1082.67,-27.18"/>
</a>
</g>
</g>
<!-- Node29&#45;&gt;Node15 -->
<g id="edge49_Node000029_Node000015" class="edge">
<title>Node29&#45;&gt;Node15</title>
<g id="a_edge49_Node000029_Node000015"><a xlink:title=" ">
<path fill="none" stroke="#63b8ff" d="M1024.96,-181.34C1015.71,-153.68 986.74,-67.01 973.99,-28.85"/>
<polygon fill="#63b8ff" stroke="#63b8ff" points="977.21,-27.45 970.72,-19.07 970.57,-29.66 977.21,-27.45"/>
</a>
</g>
</g>
<!-- Node29&#45;&gt;Node26 -->
<g id="edge50_Node000029_Node000026" class="edge">
<title>Node29&#45;&gt;Node26</title>
<g id="a_edge50_Node000029_Node000026"><a xlink:title=" ">
<path fill="none" stroke="#63b8ff" d="M992.37,-181.49C949.28,-171.16 876.5,-153.71 829.32,-142.4"/>
<polygon fill="#63b8ff" stroke="#63b8ff" points="829.92,-138.94 819.38,-140.02 828.28,-145.75 829.92,-138.94"/>
</a>
</g>
</g>
</g>
</svg>
