<?xml version="1.0" encoding="UTF-8" standalone="no"?>
<!DOCTYPE svg PUBLIC "-//W3C//DTD SVG 1.1//EN"
 "http://www.w3.org/Graphics/SVG/1.1/DTD/svg11.dtd">
<!-- Generated by graphviz version 2.43.0 (0)
 -->
<!-- Title: src/tracker/tracker.cpp Pages: 1 -->
<svg width="1456pt" height="269pt"
 viewBox="0.00 0.00 1455.50 269.00" xmlns="http://www.w3.org/2000/svg" xmlns:xlink="http://www.w3.org/1999/xlink">
<g id="graph0" class="graph" transform="scale(1 1) rotate(0) translate(4 265)">
<title>src/tracker/tracker.cpp</title>
<!-- Node1 -->
<g id="Node000001" class="node">
<title>Node1</title>
<g id="a_Node000001"><a xlink:title="The tracker.">
<polygon fill="#999999" stroke="#666666" points="560,-261 436,-261 436,-242 560,-242 560,-261"/>
<text text-anchor="middle" x="498" y="-249" font-family="Helvetica,sans-Serif" font-size="10.00">src/tracker/tracker.cpp</text>
</a>
</g>
</g>
<!-- Node2 -->
<g id="Node000002" class="node">
<title>Node2</title>
<g id="a_Node000002"><a xlink:title=" ">
<polygon fill="#e0e0e0" stroke="#999999" points="50,-134.5 0,-134.5 0,-115.5 50,-115.5 50,-134.5"/>
<text text-anchor="middle" x="25" y="-122.5" font-family="Helvetica,sans-Serif" font-size="10.00">cstring</text>
</a>
</g>
</g>
<!-- Node1&#45;&gt;Node2 -->
<g id="edge1_Node000001_Node000002" class="edge">
<title>Node1&#45;&gt;Node2</title>
<g id="a_edge1_Node000001_Node000002"><a xlink:title=" ">
<path fill="none" stroke="#63b8ff" d="M435.6,-251.38C330.17,-251.68 122.53,-246.88 64,-206 43.45,-191.65 33.28,-163.35 28.59,-144.55"/>
<polygon fill="#63b8ff" stroke="#63b8ff" points="31.95,-143.54 26.38,-134.52 25.12,-145.04 31.95,-143.54"/>
</a>
</g>
</g>
<!-- Node3 -->
<g id="Node000003" class="node">
<title>Node3</title>
<g id="a_Node000003"><a xlink:title=" ">
<polygon fill="#e0e0e0" stroke="#999999" points="174,-134.5 114,-134.5 114,-115.5 174,-115.5 174,-134.5"/>
<text text-anchor="middle" x="144" y="-122.5" font-family="Helvetica,sans-Serif" font-size="10.00">iostream</text>
</a>
</g>
</g>
<!-- Node1&#45;&gt;Node3 -->
<g id="edge2_Node000001_Node000003" class="edge">
<title>Node1&#45;&gt;Node3</title>
<g id="a_edge2_Node000001_Node000003"><a xlink:title=" ">
<path fill="none" stroke="#63b8ff" d="M435.81,-247.3C337.32,-241.58 154.57,-228.11 135,-206 120.06,-189.12 127.52,-161.77 135.08,-143.83"/>
<polygon fill="#63b8ff" stroke="#63b8ff" points="138.26,-145.28 139.26,-134.73 131.9,-142.35 138.26,-145.28"/>
</a>
</g>
</g>
<!-- Node4 -->
<g id="Node000004" class="node">
<title>Node4</title>
<g id="a_Node000004"><a xlink:title=" ">
<polygon fill="#e0e0e0" stroke="#999999" points="418.5,-134.5 371.5,-134.5 371.5,-115.5 418.5,-115.5 418.5,-134.5"/>
<text text-anchor="middle" x="395" y="-122.5" font-family="Helvetica,sans-Serif" font-size="10.00">fcntl.h</text>
</a>
</g>
</g>
<!-- Node1&#45;&gt;Node4 -->
<g id="edge3_Node000001_Node000004" class="edge">
<title>Node1&#45;&gt;Node4</title>
<g id="a_edge3_Node000001_Node000004"><a xlink:title=" ">
<path fill="none" stroke="#63b8ff" d="M491.58,-241.58C481.28,-227.4 460.27,-198.95 441,-176 431.16,-164.28 419.49,-151.61 410.36,-141.95"/>
<polygon fill="#63b8ff" stroke="#63b8ff" points="412.82,-139.46 403.39,-134.63 407.76,-144.29 412.82,-139.46"/>
</a>
</g>
</g>
<!-- Node5 -->
<g id="Node000005" class="node">
<title>Node5</title>
<g id="a_Node000005"><a xlink:title=" ">
<polygon fill="#e0e0e0" stroke="#999999" points="978,-19 920,-19 920,0 978,0 978,-19"/>
<text text-anchor="middle" x="949" y="-7" font-family="Helvetica,sans-Serif" font-size="10.00">memory</text>
</a>
</g>
</g>
<!-- Node1&#45;&gt;Node5 -->
<g id="edge4_Node000001_Node000005" class="edge">
<title>Node1&#45;&gt;Node5</title>
<g id="a_edge4_Node000001_Node000005"><a xlink:title=" ">
<path fill="none" stroke="#63b8ff" d="M560.12,-250.12C697.27,-248.62 1016.4,-241.34 1049,-206 1101.12,-149.51 1009.12,-60.74 967.68,-25.57"/>
<polygon fill="#63b8ff" stroke="#63b8ff" points="969.82,-22.8 959.9,-19.1 965.35,-28.18 969.82,-22.8"/>
</a>
</g>
</g>
<!-- Node6 -->
<g id="Node000006" class="node">
<title>Node6</title>
<g id="a_Node000006"><a xlink:title=" ">
<polygon fill="#e0e0e0" stroke="#999999" points="350,-200.5 294,-200.5 294,-181.5 350,-181.5 350,-200.5"/>
<text text-anchor="middle" x="322" y="-188.5" font-family="Helvetica,sans-Serif" font-size="10.00">sstream</text>
</a>
</g>
</g>
<!-- Node1&#45;&gt;Node6 -->
<g id="edge5_Node000001_Node000006" class="edge">
<title>Node1&#45;&gt;Node6</title>
<g id="a_edge5_Node000001_Node000006"><a xlink:title=" ">
<path fill="none" stroke="#63b8ff" d="M469.9,-241.97C441.73,-233.31 397.16,-219.32 359,-206 357.35,-205.42 355.66,-204.82 353.96,-204.21"/>
<polygon fill="#63b8ff" stroke="#63b8ff" points="354.83,-200.8 344.24,-200.63 352.41,-207.37 354.83,-200.8"/>
</a>
</g>
</g>
<!-- Node7 -->
<g id="Node000007" class="node">
<title>Node7</title>
<g id="a_Node000007"><a xlink:title=" ">
<polygon fill="#e0e0e0" stroke="#999999" points="432,-200.5 368,-200.5 368,-181.5 432,-181.5 432,-200.5"/>
<text text-anchor="middle" x="400" y="-188.5" font-family="Helvetica,sans-Serif" font-size="10.00">sys/stat.h</text>
</a>
</g>
</g>
<!-- Node1&#45;&gt;Node7 -->
<g id="edge6_Node000001_Node000007" class="edge">
<title>Node1&#45;&gt;Node7</title>
<g id="a_edge6_Node000001_Node000007"><a xlink:title=" ">
<path fill="none" stroke="#63b8ff" d="M483.54,-241.87C467.69,-232.41 442.03,-217.09 423.32,-205.92"/>
<polygon fill="#63b8ff" stroke="#63b8ff" points="424.9,-202.79 414.52,-200.67 421.31,-208.8 424.9,-202.79"/>
</a>
</g>
</g>
<!-- Node8 -->
<g id="Node000008" class="node">
<title>Node8</title>
<g id="a_Node000008"><a xlink:title=" ">
<polygon fill="#e0e0e0" stroke="#999999" points="238,-19 182,-19 182,0 238,0 238,-19"/>
<text text-anchor="middle" x="210" y="-7" font-family="Helvetica,sans-Serif" font-size="10.00">unistd.h</text>
</a>
</g>
</g>
<!-- Node1&#45;&gt;Node8 -->
<g id="edge7_Node000001_Node000008" class="edge">
<title>Node1&#45;&gt;Node8</title>
<g id="a_edge7_Node000001_Node000008"><a xlink:title=" ">
<path fill="none" stroke="#63b8ff" d="M435.77,-251.26C341.48,-251.11 168.56,-245.27 123,-206 90.12,-177.66 87.85,-149.88 105,-110 121.44,-71.78 160.57,-41.36 186.14,-24.65"/>
<polygon fill="#63b8ff" stroke="#63b8ff" points="188.3,-27.43 194.88,-19.12 184.56,-21.51 188.3,-27.43"/>
</a>
</g>
</g>
<!-- Node9 -->
<g id="Node000009" class="node">
<title>Node9</title>
<g id="a_Node000009"><a xlink:title=" ">
<polygon fill="#e0e0e0" stroke="#999999" points="1142,-134.5 1094,-134.5 1094,-115.5 1142,-115.5 1142,-134.5"/>
<text text-anchor="middle" x="1118" y="-122.5" font-family="Helvetica,sans-Serif" font-size="10.00">thread</text>
</a>
</g>
</g>
<!-- Node1&#45;&gt;Node9 -->
<g id="edge8_Node000001_Node000009" class="edge">
<title>Node1&#45;&gt;Node9</title>
<g id="a_edge8_Node000001_Node000009"><a xlink:title=" ">
<path fill="none" stroke="#63b8ff" d="M560.03,-249.36C701.91,-246.24 1041.1,-235.73 1083,-206 1103.06,-191.77 1111.75,-163.44 1115.43,-144.6"/>
<polygon fill="#63b8ff" stroke="#63b8ff" points="1118.91,-144.99 1117.09,-134.55 1112,-143.84 1118.91,-144.99"/>
</a>
</g>
</g>
<!-- Node10 -->
<g id="Node000010" class="node">
<title>Node10</title>
<g id="a_Node000010"><a xlink:href="generate__id_8cpp.html" target="_top" xlink:title=" ">
<polygon fill="white" stroke="#666666" points="551.5,-140 436.5,-140 436.5,-110 551.5,-110 551.5,-140"/>
<text text-anchor="start" x="444.5" y="-128" font-family="Helvetica,sans-Serif" font-size="10.00">../common/generate</text>
<text text-anchor="middle" x="494" y="-117" font-family="Helvetica,sans-Serif" font-size="10.00">_id.cpp</text>
</a>
</g>
</g>
<!-- Node1&#45;&gt;Node10 -->
<g id="edge9_Node000001_Node000010" class="edge">
<title>Node1&#45;&gt;Node10</title>
<g id="a_edge9_Node000001_Node000010"><a xlink:title=" ">
<path fill="none" stroke="#63b8ff" d="M497.73,-241.94C497.13,-223.32 495.69,-178.53 494.78,-150.39"/>
<polygon fill="#63b8ff" stroke="#63b8ff" points="498.27,-150.04 494.45,-140.16 491.28,-150.27 498.27,-150.04"/>
</a>
</g>
</g>
<!-- Node14 -->
<g id="Node000014" class="node">
<title>Node14</title>
<g id="a_Node000014"><a xlink:href="load__tracker__info_8cpp.html" target="_top" xlink:title=" ">
<polygon fill="white" stroke="#666666" points="275.5,-206 144.5,-206 144.5,-176 275.5,-176 275.5,-206"/>
<text text-anchor="start" x="152.5" y="-194" font-family="Helvetica,sans-Serif" font-size="10.00">../common/load_tracker</text>
<text text-anchor="middle" x="210" y="-183" font-family="Helvetica,sans-Serif" font-size="10.00">_info.cpp</text>
</a>
</g>
</g>
<!-- Node1&#45;&gt;Node14 -->
<g id="edge15_Node000001_Node000014" class="edge">
<title>Node1&#45;&gt;Node14</title>
<g id="a_edge15_Node000001_Node000014"><a xlink:title=" ">
<path fill="none" stroke="#63b8ff" d="M456.12,-241.99C411.55,-232.94 340.08,-218.42 285.61,-207.36"/>
<polygon fill="#63b8ff" stroke="#63b8ff" points="286.14,-203.9 275.65,-205.33 284.75,-210.76 286.14,-203.9"/>
</a>
</g>
</g>
<!-- Node16 -->
<g id="Node000016" class="node">
<title>Node16</title>
<g id="a_Node000016"><a xlink:href="network__errors_8hpp.html" target="_top" xlink:title=" ">
<polygon fill="white" stroke="#666666" points="634,-206 526,-206 526,-176 634,-176 634,-206"/>
<text text-anchor="start" x="534" y="-194" font-family="Helvetica,sans-Serif" font-size="10.00">../network/network</text>
<text text-anchor="middle" x="580" y="-183" font-family="Helvetica,sans-Serif" font-size="10.00">_errors.hpp</text>
</a>
</g>
</g>
<!-- Node1&#45;&gt;Node16 -->
<g id="edge22_Node000001_Node000016" class="edge">
<title>Node1&#45;&gt;Node16</title>
<g id="a_edge22_Node000001_Node000016"><a xlink:title=" ">
<path fill="none" stroke="#63b8ff" d="M510.1,-241.87C521.02,-234.08 537.51,-222.32 551.72,-212.17"/>
<polygon fill="#63b8ff" stroke="#63b8ff" points="554.11,-214.77 560.22,-206.11 550.04,-209.07 554.11,-214.77"/>
</a>
</g>
</g>
<!-- Node18 -->
<g id="Node000018" class="node">
<title>Node18</title>
<g id="a_Node000018"><a xlink:href="tcp__server_8hpp.html" target="_top" xlink:title=" ">
<polygon fill="white" stroke="#666666" points="1284,-200.5 1144,-200.5 1144,-181.5 1284,-181.5 1284,-200.5"/>
<text text-anchor="middle" x="1214" y="-188.5" font-family="Helvetica,sans-Serif" font-size="10.00">../network/tcp_server.hpp</text>
</a>
</g>
</g>
<!-- Node1&#45;&gt;Node18 -->
<g id="edge24_Node000001_Node000018" class="edge">
<title>Node1&#45;&gt;Node18</title>
<g id="a_edge24_Node000001_Node000018"><a xlink:title=" ">
<path fill="none" stroke="#63b8ff" d="M560.12,-247.89C673.04,-242.75 919.41,-229.71 1126,-206 1135.47,-204.91 1145.47,-203.54 1155.21,-202.08"/>
<polygon fill="#63b8ff" stroke="#63b8ff" points="1155.88,-205.52 1165.23,-200.53 1154.81,-198.6 1155.88,-205.52"/>
</a>
</g>
</g>
<!-- Node26 -->
<g id="Node000026" class="node">
<title>Node26</title>
<g id="a_Node000026"><a xlink:href="parse__request_8hpp.html" target="_top" xlink:title=" ">
<polygon fill="white" stroke="#666666" points="1040.5,-200.5 933.5,-200.5 933.5,-181.5 1040.5,-181.5 1040.5,-200.5"/>
<text text-anchor="middle" x="987" y="-188.5" font-family="Helvetica,sans-Serif" font-size="10.00">parse_request.hpp</text>
</a>
</g>
</g>
<!-- Node1&#45;&gt;Node26 -->
<g id="edge37_Node000001_Node000026" class="edge">
<title>Node1&#45;&gt;Node26</title>
<g id="a_edge37_Node000001_Node000026"><a xlink:title=" ">
<path fill="none" stroke="#63b8ff" d="M560.02,-246.26C643.22,-240.06 795.38,-226.94 924,-206 929.81,-205.05 935.89,-203.91 941.88,-202.68"/>
<polygon fill="#63b8ff" stroke="#63b8ff" points="942.77,-206.07 951.82,-200.57 941.31,-199.22 942.77,-206.07"/>
</a>
</g>
</g>
<!-- Node29 -->
<g id="Node000029" class="node">
<title>Node29</title>
<g id="a_Node000029"><a xlink:href="process__request_8hpp.html" target="_top" xlink:title=" ">
<polygon fill="white" stroke="#666666" points="915.5,-200.5 798.5,-200.5 798.5,-181.5 915.5,-181.5 915.5,-200.5"/>
<text text-anchor="middle" x="857" y="-188.5" font-family="Helvetica,sans-Serif" font-size="10.00">process_request.hpp</text>
</a>
</g>
</g>
<!-- Node1&#45;&gt;Node29 -->
<g id="edge46_Node000001_Node000029" class="edge">
<title>Node1&#45;&gt;Node29</title>
<g id="a_edge46_Node000001_Node000029"><a xlink:title=" ">
<path fill="none" stroke="#63b8ff" d="M559.75,-242C618.76,-233.65 710.15,-220.14 789,-206 794.85,-204.95 800.97,-203.79 807.04,-202.59"/>
<polygon fill="#63b8ff" stroke="#63b8ff" points="808.04,-205.96 817.15,-200.56 806.66,-199.1 808.04,-205.96"/>
</a>
</g>
</g>
<!-- Node30 -->
<g id="Node000030" class="node">
<title>Node30</title>
<g id="a_Node000030"><a xlink:href="transactionsrecord_8hpp.html" target="_top" xlink:title=" ">
<polygon fill="white" stroke="#666666" points="780,-200.5 652,-200.5 652,-181.5 780,-181.5 780,-200.5"/>
<text text-anchor="middle" x="716" y="-188.5" font-family="Helvetica,sans-Serif" font-size="10.00">transactionsrecord.hpp</text>
</a>
</g>
</g>
<!-- Node1&#45;&gt;Node30 -->
<g id="edge50_Node000001_Node000030" class="edge">
<title>Node1&#45;&gt;Node30</title>
<g id="a_edge50_Node000001_Node000030"><a xlink:title=" ">
<path fill="none" stroke="#63b8ff" d="M529.7,-241.99C567.96,-231.73 632.41,-214.43 674.58,-203.12"/>
<polygon fill="#63b8ff" stroke="#63b8ff" points="675.51,-206.49 684.26,-200.52 673.7,-199.73 675.51,-206.49"/>
</a>
</g>
</g>
<!-- Node11 -->
<g id="Node000011" class="node">
<title>Node11</title>
<g id="a_Node000011"><a xlink:title=" ">
<polygon fill="#e0e0e0" stroke="#999999" points="388,-19 338,-19 338,0 388,0 388,-19"/>
<text text-anchor="middle" x="363" y="-7" font-family="Helvetica,sans-Serif" font-size="10.00">cstdint</text>
</a>
</g>
</g>
<!-- Node10&#45;&gt;Node11 -->
<g id="edge10_Node000010_Node000011" class="edge">
<title>Node10&#45;&gt;Node11</title>
<g id="a_edge10_Node000010_Node000011"><a xlink:title=" ">
<path fill="none" stroke="#63b8ff" d="M445.87,-109.96C415.67,-100.16 380.69,-86.61 371,-74 361.38,-61.47 359.97,-43.27 360.63,-29.56"/>
<polygon fill="#63b8ff" stroke="#63b8ff" points="364.14,-29.6 361.53,-19.33 357.17,-28.98 364.14,-29.6"/>
</a>
</g>
</g>
<!-- Node12 -->
<g id="Node000012" class="node">
<title>Node12</title>
<g id="a_Node000012"><a xlink:title=" ">
<polygon fill="#e0e0e0" stroke="#999999" points="688,-19 644,-19 644,0 688,0 688,-19"/>
<text text-anchor="middle" x="666" y="-7" font-family="Helvetica,sans-Serif" font-size="10.00">string</text>
</a>
</g>
</g>
<!-- Node10&#45;&gt;Node12 -->
<g id="edge11_Node000010_Node000012" class="edge">
<title>Node10&#45;&gt;Node12</title>
<g id="a_edge11_Node000010_Node000012"><a xlink:title=" ">
<path fill="none" stroke="#63b8ff" d="M513.48,-109.89C533.27,-95.69 564.93,-73.32 593,-55 609.32,-44.36 628.09,-32.93 642.51,-24.32"/>
<polygon fill="#63b8ff" stroke="#63b8ff" points="644.48,-27.22 651.29,-19.11 640.91,-21.2 644.48,-27.22"/>
</a>
</g>
</g>
<!-- Node13 -->
<g id="Node000013" class="node">
<title>Node13</title>
<g id="a_Node000013"><a xlink:href="endpoint_8hpp.html" target="_top" xlink:title=" ">
<polygon fill="white" stroke="#666666" points="508,-74 380,-74 380,-55 508,-55 508,-74"/>
<text text-anchor="middle" x="444" y="-62" font-family="Helvetica,sans-Serif" font-size="10.00">../models/endpoint.hpp</text>
</a>
</g>
</g>
<!-- Node10&#45;&gt;Node13 -->
<g id="edge12_Node000010_Node000013" class="edge">
<title>Node10&#45;&gt;Node13</title>
<g id="a_edge12_Node000010_Node000013"><a xlink:title=" ">
<path fill="none" stroke="#63b8ff" d="M481.9,-109.84C474.71,-101.43 465.57,-90.74 458.07,-81.96"/>
<polygon fill="#63b8ff" stroke="#63b8ff" points="460.65,-79.59 451.49,-74.27 455.33,-84.14 460.65,-79.59"/>
</a>
</g>
</g>
<!-- Node13&#45;&gt;Node11 -->
<g id="edge13_Node000013_Node000011" class="edge">
<title>Node13&#45;&gt;Node11</title>
<g id="a_edge13_Node000013_Node000011"><a xlink:title=" ">
<path fill="none" stroke="#63b8ff" d="M430.99,-54.98C418.54,-46.84 399.54,-34.41 384.79,-24.76"/>
<polygon fill="#63b8ff" stroke="#63b8ff" points="386.54,-21.72 376.25,-19.17 382.7,-27.57 386.54,-21.72"/>
</a>
</g>
</g>
<!-- Node13&#45;&gt;Node12 -->
<g id="edge14_Node000013_Node000012" class="edge">
<title>Node13&#45;&gt;Node12</title>
<g id="a_edge14_Node000013_Node000012"><a xlink:title=" ">
<path fill="none" stroke="#63b8ff" d="M479.67,-54.98C522.29,-44.81 592.96,-27.94 633.93,-18.16"/>
<polygon fill="#63b8ff" stroke="#63b8ff" points="635,-21.5 643.91,-15.77 633.37,-14.69 635,-21.5"/>
</a>
</g>
</g>
<!-- Node14&#45;&gt;Node2 -->
<g id="edge17_Node000014_Node000002" class="edge">
<title>Node14&#45;&gt;Node2</title>
<g id="a_edge17_Node000014_Node000002"><a xlink:title=" ">
<path fill="none" stroke="#63b8ff" d="M169.4,-175.95C136.39,-164.53 90.33,-148.6 59.18,-137.82"/>
<polygon fill="#63b8ff" stroke="#63b8ff" points="60.22,-134.48 49.62,-134.52 57.93,-141.09 60.22,-134.48"/>
</a>
</g>
</g>
<!-- Node14&#45;&gt;Node3 -->
<g id="edge19_Node000014_Node000003" class="edge">
<title>Node14&#45;&gt;Node3</title>
<g id="a_edge19_Node000014_Node000003"><a xlink:title=" ">
<path fill="none" stroke="#63b8ff" d="M195.35,-175.8C185.06,-165.82 171.28,-152.46 160.59,-142.09"/>
<polygon fill="#63b8ff" stroke="#63b8ff" points="162.74,-139.29 153.12,-134.84 157.86,-144.32 162.74,-139.29"/>
</a>
</g>
</g>
<!-- Node14&#45;&gt;Node4 -->
<g id="edge18_Node000014_Node000004" class="edge">
<title>Node14&#45;&gt;Node4</title>
<g id="a_edge18_Node000014_Node000004"><a xlink:title=" ">
<path fill="none" stroke="#63b8ff" d="M252.23,-175.95C281.67,-166.08 321.81,-152.47 357,-140 358.84,-139.35 360.73,-138.67 362.63,-137.99"/>
<polygon fill="#63b8ff" stroke="#63b8ff" points="363.93,-141.24 372.13,-134.53 361.53,-134.66 363.93,-141.24"/>
</a>
</g>
</g>
<!-- Node14&#45;&gt;Node8 -->
<g id="edge20_Node000014_Node000008" class="edge">
<title>Node14&#45;&gt;Node8</title>
<g id="a_edge20_Node000014_Node000008"><a xlink:title=" ">
<path fill="none" stroke="#63b8ff" d="M210,-175.91C210,-143.85 210,-65.38 210,-29.26"/>
<polygon fill="#63b8ff" stroke="#63b8ff" points="213.5,-29.13 210,-19.13 206.5,-29.13 213.5,-29.13"/>
</a>
</g>
</g>
<!-- Node14&#45;&gt;Node13 -->
<g id="edge16_Node000014_Node000013" class="edge">
<title>Node14&#45;&gt;Node13</title>
<g id="a_edge16_Node000014_Node000013"><a xlink:title=" ">
<path fill="none" stroke="#63b8ff" d="M244.66,-175.99C266.48,-166.71 294.96,-153.75 319,-140 339.23,-128.43 342.17,-122.24 362,-110 380.2,-98.76 401.45,-87.27 417.75,-78.79"/>
<polygon fill="#63b8ff" stroke="#63b8ff" points="419.44,-81.85 426.72,-74.16 416.23,-75.63 419.44,-81.85"/>
</a>
</g>
</g>
<!-- Node15 -->
<g id="Node000015" class="node">
<title>Node15</title>
<g id="a_Node000015"><a xlink:title=" ">
<polygon fill="#e0e0e0" stroke="#999999" points="597.5,-19 550.5,-19 550.5,0 597.5,0 597.5,-19"/>
<text text-anchor="middle" x="574" y="-7" font-family="Helvetica,sans-Serif" font-size="10.00">vector</text>
</a>
</g>
</g>
<!-- Node14&#45;&gt;Node15 -->
<g id="edge21_Node000014_Node000015" class="edge">
<title>Node14&#45;&gt;Node15</title>
<g id="a_edge21_Node000014_Node000015"><a xlink:title=" ">
<path fill="none" stroke="#63b8ff" d="M222.58,-175.57C247.78,-147.65 307.49,-86.21 371,-55 426.41,-27.77 498.43,-17.06 540.11,-12.95"/>
<polygon fill="#63b8ff" stroke="#63b8ff" points="540.64,-16.42 550.28,-12.02 540,-9.45 540.64,-16.42"/>
</a>
</g>
</g>
<!-- Node17 -->
<g id="Node000017" class="node">
<title>Node17</title>
<g id="a_Node000017"><a xlink:title=" ">
<polygon fill="#e0e0e0" stroke="#999999" points="667.5,-74 602.5,-74 602.5,-55 667.5,-55 667.5,-74"/>
<text text-anchor="middle" x="635" y="-62" font-family="Helvetica,sans-Serif" font-size="10.00">stdexcept</text>
</a>
</g>
</g>
<!-- Node16&#45;&gt;Node17 -->
<g id="edge23_Node000016_Node000017" class="edge">
<title>Node16&#45;&gt;Node17</title>
<g id="a_edge23_Node000016_Node000017"><a xlink:title=" ">
<path fill="none" stroke="#63b8ff" d="M586.31,-175.72C596.38,-152.92 616.08,-108.33 627.08,-83.42"/>
<polygon fill="#63b8ff" stroke="#63b8ff" points="630.37,-84.63 631.21,-74.07 623.97,-81.8 630.37,-84.63"/>
</a>
</g>
</g>
<!-- Node18&#45;&gt;Node9 -->
<g id="edge29_Node000018_Node000009" class="edge">
<title>Node18&#45;&gt;Node9</title>
<g id="a_edge29_Node000018_Node000009"><a xlink:title=" ">
<path fill="none" stroke="#63b8ff" d="M1201.05,-181.37C1185.31,-170.87 1158.5,-153 1139.6,-140.4"/>
<polygon fill="#63b8ff" stroke="#63b8ff" points="1141.31,-137.33 1131.05,-134.7 1137.43,-143.16 1141.31,-137.33"/>
</a>
</g>
</g>
<!-- Node19 -->
<g id="Node000019" class="node">
<title>Node19</title>
<g id="a_Node000019"><a xlink:title=" ">
<polygon fill="#e0e0e0" stroke="#999999" points="1364,-134.5 1314,-134.5 1314,-115.5 1364,-115.5 1364,-134.5"/>
<text text-anchor="middle" x="1339" y="-122.5" font-family="Helvetica,sans-Serif" font-size="10.00">atomic</text>
</a>
</g>
</g>
<!-- Node18&#45;&gt;Node19 -->
<g id="edge25_Node000018_Node000019" class="edge">
<title>Node18&#45;&gt;Node19</title>
<g id="a_edge25_Node000018_Node000019"><a xlink:title=" ">
<path fill="none" stroke="#63b8ff" d="M1230.86,-181.37C1251.92,-170.59 1288.18,-152.02 1312.86,-139.38"/>
<polygon fill="#63b8ff" stroke="#63b8ff" points="1314.7,-142.37 1322.01,-134.7 1311.51,-136.14 1314.7,-142.37"/>
</a>
</g>
</g>
<!-- Node20 -->
<g id="Node000020" class="node">
<title>Node20</title>
<g id="a_Node000020"><a xlink:title=" ">
<polygon fill="#e0e0e0" stroke="#999999" points="1447.5,-134.5 1382.5,-134.5 1382.5,-115.5 1447.5,-115.5 1447.5,-134.5"/>
<text text-anchor="middle" x="1415" y="-122.5" font-family="Helvetica,sans-Serif" font-size="10.00">functional</text>
</a>
</g>
</g>
<!-- Node18&#45;&gt;Node20 -->
<g id="edge26_Node000018_Node000020" class="edge">
<title>Node18&#45;&gt;Node20</title>
<g id="a_edge26_Node000018_Node000020"><a xlink:title=" ">
<path fill="none" stroke="#63b8ff" d="M1241.62,-181.47C1273.37,-171.63 1327.03,-154.89 1373,-140 1375.28,-139.26 1377.63,-138.49 1380,-137.72"/>
<polygon fill="#63b8ff" stroke="#63b8ff" points="1381.31,-140.97 1389.7,-134.51 1379.11,-134.32 1381.31,-140.97"/>
</a>
</g>
</g>
<!-- Node21 -->
<g id="Node000021" class="node">
<title>Node21</title>
<g id="a_Node000021"><a xlink:title=" ">
<polygon fill="#e0e0e0" stroke="#999999" points="1230,-134.5 1198,-134.5 1198,-115.5 1230,-115.5 1230,-134.5"/>
<text text-anchor="middle" x="1214" y="-122.5" font-family="Helvetica,sans-Serif" font-size="10.00">list</text>
</a>
</g>
</g>
<!-- Node18&#45;&gt;Node21 -->
<g id="edge27_Node000018_Node000021" class="edge">
<title>Node18&#45;&gt;Node21</title>
<g id="a_edge27_Node000018_Node000021"><a xlink:title=" ">
<path fill="none" stroke="#63b8ff" d="M1214,-181.37C1214,-172.16 1214,-157.29 1214,-145.27"/>
<polygon fill="#63b8ff" stroke="#63b8ff" points="1217.5,-144.91 1214,-134.91 1210.5,-144.91 1217.5,-144.91"/>
</a>
</g>
</g>
<!-- Node22 -->
<g id="Node000022" class="node">
<title>Node22</title>
<g id="a_Node000022"><a xlink:title=" ">
<polygon fill="#e0e0e0" stroke="#999999" points="1296,-134.5 1248,-134.5 1248,-115.5 1296,-115.5 1296,-134.5"/>
<text text-anchor="middle" x="1272" y="-122.5" font-family="Helvetica,sans-Serif" font-size="10.00">mutex</text>
</a>
</g>
</g>
<!-- Node18&#45;&gt;Node22 -->
<g id="edge28_Node000018_Node000022" class="edge">
<title>Node18&#45;&gt;Node22</title>
<g id="a_edge28_Node000018_Node000022"><a xlink:title=" ">
<path fill="none" stroke="#63b8ff" d="M1221.82,-181.37C1230.85,-171.4 1245.91,-154.79 1257.17,-142.36"/>
<polygon fill="#63b8ff" stroke="#63b8ff" points="1259.81,-144.67 1263.93,-134.91 1254.62,-139.96 1259.81,-144.67"/>
</a>
</g>
</g>
<!-- Node23 -->
<g id="Node000023" class="node">
<title>Node23</title>
<g id="a_Node000023"><a xlink:href="tcp__socket_8hpp.html" target="_top" xlink:title=" ">
<polygon fill="white" stroke="#666666" points="882.5,-74 793.5,-74 793.5,-55 882.5,-55 882.5,-74"/>
<text text-anchor="middle" x="838" y="-62" font-family="Helvetica,sans-Serif" font-size="10.00">tcp_socket.hpp</text>
</a>
</g>
</g>
<!-- Node18&#45;&gt;Node23 -->
<g id="edge30_Node000018_Node000023" class="edge">
<title>Node18&#45;&gt;Node23</title>
<g id="a_edge30_Node000018_Node000023"><a xlink:title=" ">
<path fill="none" stroke="#63b8ff" d="M1210.06,-181.47C1201.79,-164.62 1180.87,-127.2 1151,-110 1108.15,-85.33 970.59,-73.34 892.85,-68.41"/>
<polygon fill="#63b8ff" stroke="#63b8ff" points="892.95,-64.91 882.76,-67.78 892.52,-71.89 892.95,-64.91"/>
</a>
</g>
</g>
<!-- Node23&#45;&gt;Node5 -->
<g id="edge31_Node000023_Node000005" class="edge">
<title>Node23&#45;&gt;Node5</title>
<g id="a_edge31_Node000023_Node000005"><a xlink:title=" ">
<path fill="none" stroke="#63b8ff" d="M855.83,-54.98C873.61,-46.5 901.15,-33.35 921.68,-23.54"/>
<polygon fill="#63b8ff" stroke="#63b8ff" points="923.33,-26.64 930.84,-19.17 920.31,-20.32 923.33,-26.64"/>
</a>
</g>
</g>
<!-- Node23&#45;&gt;Node8 -->
<g id="edge35_Node000023_Node000008" class="edge">
<title>Node23&#45;&gt;Node8</title>
<g id="a_edge35_Node000023_Node000008"><a xlink:title=" ">
<path fill="none" stroke="#63b8ff" d="M793.25,-56.18C790.12,-55.75 787.02,-55.35 784,-55 731.12,-48.8 368.64,-22.09 248.55,-13.31"/>
<polygon fill="#63b8ff" stroke="#63b8ff" points="248.58,-9.8 238.36,-12.57 248.07,-16.79 248.58,-9.8"/>
</a>
</g>
</g>
<!-- Node23&#45;&gt;Node12 -->
<g id="edge33_Node000023_Node000012" class="edge">
<title>Node23&#45;&gt;Node12</title>
<g id="a_edge33_Node000023_Node000012"><a xlink:title=" ">
<path fill="none" stroke="#63b8ff" d="M810.37,-54.98C779.69,-45.53 730.25,-30.3 697.94,-20.34"/>
<polygon fill="#63b8ff" stroke="#63b8ff" points="698.69,-16.91 688.1,-17.31 696.62,-23.6 698.69,-16.91"/>
</a>
</g>
</g>
<!-- Node23&#45;&gt;Node15 -->
<g id="edge36_Node000023_Node000015" class="edge">
<title>Node23&#45;&gt;Node15</title>
<g id="a_edge36_Node000023_Node000015"><a xlink:title=" ">
<path fill="none" stroke="#63b8ff" d="M795.58,-54.98C743.3,-44.49 655.53,-26.87 607.64,-17.25"/>
<polygon fill="#63b8ff" stroke="#63b8ff" points="608.27,-13.81 597.78,-15.27 606.89,-20.67 608.27,-13.81"/>
</a>
</g>
</g>
<!-- Node24 -->
<g id="Node000024" class="node">
<title>Node24</title>
<g id="a_Node000024"><a xlink:title=" ">
<polygon fill="#e0e0e0" stroke="#999999" points="888,-19 816,-19 816,0 888,0 888,-19"/>
<text text-anchor="middle" x="852" y="-7" font-family="Helvetica,sans-Serif" font-size="10.00">netinet/in.h</text>
</a>
</g>
</g>
<!-- Node23&#45;&gt;Node24 -->
<g id="edge32_Node000023_Node000024" class="edge">
<title>Node23&#45;&gt;Node24</title>
<g id="a_edge32_Node000023_Node000024"><a xlink:title=" ">
<path fill="none" stroke="#63b8ff" d="M840.31,-54.75C842.17,-47.72 844.84,-37.62 847.15,-28.84"/>
<polygon fill="#63b8ff" stroke="#63b8ff" points="850.56,-29.65 849.73,-19.09 843.79,-27.86 850.56,-29.65"/>
</a>
</g>
</g>
<!-- Node25 -->
<g id="Node000025" class="node">
<title>Node25</title>
<g id="a_Node000025"><a xlink:title=" ">
<polygon fill="#e0e0e0" stroke="#999999" points="797.5,-19 720.5,-19 720.5,0 797.5,0 797.5,-19"/>
<text text-anchor="middle" x="759" y="-7" font-family="Helvetica,sans-Serif" font-size="10.00">sys/socket.h</text>
</a>
</g>
</g>
<!-- Node23&#45;&gt;Node25 -->
<g id="edge34_Node000023_Node000025" class="edge">
<title>Node23&#45;&gt;Node25</title>
<g id="a_edge34_Node000023_Node000025"><a xlink:title=" ">
<path fill="none" stroke="#63b8ff" d="M825.31,-54.98C813.17,-46.84 794.64,-34.41 780.25,-24.76"/>
<polygon fill="#63b8ff" stroke="#63b8ff" points="782.18,-21.84 771.92,-19.17 778.28,-27.65 782.18,-21.84"/>
</a>
</g>
</g>
<!-- Node26&#45;&gt;Node5 -->
<g id="edge38_Node000026_Node000005" class="edge">
<title>Node26&#45;&gt;Node5</title>
<g id="a_edge38_Node000026_Node000005"><a xlink:title=" ">
<path fill="none" stroke="#63b8ff" d="M985.86,-181.39C982.94,-159.89 974.56,-102.17 963,-55 960.88,-46.35 958,-36.91 955.4,-28.97"/>
<polygon fill="#63b8ff" stroke="#63b8ff" points="958.64,-27.63 952.13,-19.27 952.01,-29.86 958.64,-27.63"/>
</a>
</g>
</g>
<!-- Node26&#45;&gt;Node23 -->
<g id="edge39_Node000026_Node000023" class="edge">
<title>Node26&#45;&gt;Node23</title>
<g id="a_edge39_Node000026_Node000023"><a xlink:title=" ">
<path fill="none" stroke="#63b8ff" d="M976.76,-181.44C951.88,-160.65 887.98,-107.26 856.33,-80.81"/>
<polygon fill="#63b8ff" stroke="#63b8ff" points="858.23,-77.84 848.31,-74.12 853.74,-83.22 858.23,-77.84"/>
</a>
</g>
</g>
<!-- Node27 -->
<g id="Node000027" class="node">
<title>Node27</title>
<g id="a_Node000027"><a xlink:href="transaction_8hpp.html" target="_top" xlink:title=" ">
<polygon fill="white" stroke="#666666" points="803,-134.5 663,-134.5 663,-115.5 803,-115.5 803,-134.5"/>
<text text-anchor="middle" x="733" y="-122.5" font-family="Helvetica,sans-Serif" font-size="10.00">../models/transaction.hpp</text>
</a>
</g>
</g>
<!-- Node26&#45;&gt;Node27 -->
<g id="edge40_Node000026_Node000027" class="edge">
<title>Node26&#45;&gt;Node27</title>
<g id="a_edge40_Node000026_Node000027"><a xlink:title=" ">
<path fill="none" stroke="#63b8ff" d="M953.01,-181.44C907.48,-169.96 826.65,-149.6 776.66,-137"/>
<polygon fill="#63b8ff" stroke="#63b8ff" points="777.34,-133.56 766.79,-134.51 775.63,-140.35 777.34,-133.56"/>
</a>
</g>
</g>
<!-- Node27&#45;&gt;Node12 -->
<g id="edge42_Node000027_Node000012" class="edge">
<title>Node27&#45;&gt;Node12</title>
<g id="a_edge42_Node000027_Node000012"><a xlink:title=" ">
<path fill="none" stroke="#63b8ff" d="M727.96,-115.47C717,-96.9 690.8,-52.51 676.22,-27.82"/>
<polygon fill="#63b8ff" stroke="#63b8ff" points="679.19,-25.96 671.09,-19.13 673.16,-29.52 679.19,-25.96"/>
</a>
</g>
</g>
<!-- Node27&#45;&gt;Node13 -->
<g id="edge44_Node000027_Node000013" class="edge">
<title>Node27&#45;&gt;Node13</title>
<g id="a_edge44_Node000027_Node000013"><a xlink:title=" ">
<path fill="none" stroke="#63b8ff" d="M690.98,-115.49C639.4,-105.05 551.92,-87.35 496.11,-76.05"/>
<polygon fill="#63b8ff" stroke="#63b8ff" points="496.57,-72.57 486.07,-74.02 495.18,-79.43 496.57,-72.57"/>
</a>
</g>
</g>
<!-- Node27&#45;&gt;Node17 -->
<g id="edge41_Node000027_Node000017" class="edge">
<title>Node27&#45;&gt;Node17</title>
<g id="a_edge41_Node000027_Node000017"><a xlink:title=" ">
<path fill="none" stroke="#63b8ff" d="M718.54,-115.37C702.69,-105.91 677.03,-90.59 658.32,-79.42"/>
<polygon fill="#63b8ff" stroke="#63b8ff" points="659.9,-76.29 649.52,-74.17 656.31,-82.3 659.9,-76.29"/>
</a>
</g>
</g>
<!-- Node27&#45;&gt;Node23 -->
<g id="edge45_Node000027_Node000023" class="edge">
<title>Node27&#45;&gt;Node23</title>
<g id="a_edge45_Node000027_Node000023"><a xlink:title=" ">
<path fill="none" stroke="#63b8ff" d="M748.49,-115.37C765.63,-105.82 793.47,-90.31 813.56,-79.12"/>
<polygon fill="#63b8ff" stroke="#63b8ff" points="815.41,-82.09 822.44,-74.17 812,-75.98 815.41,-82.09"/>
</a>
</g>
</g>
<!-- Node28 -->
<g id="Node000028" class="node">
<title>Node28</title>
<g id="a_Node000028"><a xlink:title=" ">
<polygon fill="#e0e0e0" stroke="#999999" points="775.5,-74 724.5,-74 724.5,-55 775.5,-55 775.5,-74"/>
<text text-anchor="middle" x="750" y="-62" font-family="Helvetica,sans-Serif" font-size="10.00">variant</text>
</a>
</g>
</g>
<!-- Node27&#45;&gt;Node28 -->
<g id="edge43_Node000027_Node000028" class="edge">
<title>Node27&#45;&gt;Node28</title>
<g id="a_edge43_Node000027_Node000028"><a xlink:title=" ">
<path fill="none" stroke="#63b8ff" d="M735.51,-115.37C737.89,-107.16 741.56,-94.54 744.61,-84.05"/>
<polygon fill="#63b8ff" stroke="#63b8ff" points="748.05,-84.75 747.48,-74.17 741.33,-82.79 748.05,-84.75"/>
</a>
</g>
</g>
<!-- Node29&#45;&gt;Node5 -->
<g id="edge47_Node000029_Node000005" class="edge">
<title>Node29&#45;&gt;Node5</title>
<g id="a_edge47_Node000029_Node000005"><a xlink:title=" ">
<path fill="none" stroke="#63b8ff" d="M875.38,-181.46C891.13,-173.14 913.09,-159 925,-140 946.69,-105.41 949.8,-56.06 949.69,-29.38"/>
<polygon fill="#63b8ff" stroke="#63b8ff" points="953.19,-29.07 949.49,-19.14 946.19,-29.21 953.19,-29.07"/>
</a>
</g>
</g>
<!-- Node29&#45;&gt;Node23 -->
<g id="edge49_Node000029_Node000023" class="edge">
<title>Node29&#45;&gt;Node23</title>
<g id="a_edge49_Node000029_Node000023"><a xlink:title=" ">
<path fill="none" stroke="#63b8ff" d="M855.69,-181.44C852.66,-161.54 845.06,-111.76 840.88,-84.35"/>
<polygon fill="#63b8ff" stroke="#63b8ff" points="844.28,-83.47 839.32,-74.12 837.36,-84.53 844.28,-83.47"/>
</a>
</g>
</g>
<!-- Node29&#45;&gt;Node27 -->
<g id="edge48_Node000029_Node000027" class="edge">
<title>Node29&#45;&gt;Node27</title>
<g id="a_edge48_Node000029_Node000027"><a xlink:title=" ">
<path fill="none" stroke="#63b8ff" d="M840.28,-181.37C819.38,-170.59 783.41,-152.02 758.93,-139.38"/>
<polygon fill="#63b8ff" stroke="#63b8ff" points="760.35,-136.18 749.85,-134.7 757.14,-142.4 760.35,-136.18"/>
</a>
</g>
</g>
<!-- Node30&#45;&gt;Node5 -->
<g id="edge51_Node000030_Node000005" class="edge">
<title>Node30&#45;&gt;Node5</title>
<g id="a_edge51_Node000030_Node000005"><a xlink:title=" ">
<path fill="none" stroke="#63b8ff" d="M735.45,-181.39C755.35,-172.23 786.83,-156.78 812,-140 850.07,-114.62 857.94,-105.63 891,-74 906.93,-58.76 923.78,-39.97 935.19,-26.8"/>
<polygon fill="#63b8ff" stroke="#63b8ff" points="937.98,-28.92 941.83,-19.05 932.67,-24.37 937.98,-28.92"/>
</a>
</g>
</g>
<!-- Node30&#45;&gt;Node15 -->
<g id="edge52_Node000030_Node000015" class="edge">
<title>Node30&#45;&gt;Node15</title>
<g id="a_edge52_Node000030_Node000015"><a xlink:title=" ">
<path fill="none" stroke="#63b8ff" d="M702.42,-181.32C676.73,-164.15 621.07,-123.21 593,-74 585.06,-60.08 580.14,-42.52 577.3,-29.4"/>
<polygon fill="#63b8ff" stroke="#63b8ff" points="580.66,-28.36 575.32,-19.21 573.79,-29.69 580.66,-28.36"/>
</a>
</g>
</g>
<!-- Node30&#45;&gt;Node27 -->
<g id="edge53_Node000030_Node000027" class="edge">
<title>Node30&#45;&gt;Node27</title>
<g id="a_edge53_Node000030_Node000027"><a xlink:title=" ">
<path fill="none" stroke="#63b8ff" d="M718.29,-181.37C720.76,-172.07 724.77,-156.98 727.98,-144.9"/>
<polygon fill="#63b8ff" stroke="#63b8ff" points="731.45,-145.47 730.63,-134.91 724.68,-143.67 731.45,-145.47"/>
</a>
</g>
</g>
</g>
</svg>
