<?xml version="1.0" encoding="UTF-8" standalone="no"?>
<!DOCTYPE svg PUBLIC "-//W3C//DTD SVG 1.1//EN"
 "http://www.w3.org/Graphics/SVG/1.1/DTD/svg11.dtd">
<!-- Generated by graphviz version 2.43.0 (0)
 -->
<!-- Title: src/tracker/tracker.cpp Pages: 1 -->
<svg width="997pt" height="203pt"
 viewBox="0.00 0.00 997.34 203.00" xmlns="http://www.w3.org/2000/svg" xmlns:xlink="http://www.w3.org/1999/xlink">
<g id="graph0" class="graph" transform="scale(1 1) rotate(0) translate(4 199)">
<title>src/tracker/tracker.cpp</title>
<!-- Node1 -->
<g id="Node000001" class="node">
<title>Node1</title>
<g id="a_Node000001"><a xlink:title="The tracker.">
<polygon fill="#999999" stroke="#666666" points="445.34,-195 321.34,-195 321.34,-176 445.34,-176 445.34,-195"/>
<text text-anchor="middle" x="383.34" y="-183" font-family="Helvetica,sans-Serif" font-size="10.00">src/tracker/tracker.cpp</text>
</a>
</g>
</g>
<!-- Node2 -->
<g id="Node000002" class="node">
<title>Node2</title>
<g id="a_Node000002"><a xlink:title=" ">
<polygon fill="#e0e0e0" stroke="#999999" points="62.34,-74 12.34,-74 12.34,-55 62.34,-55 62.34,-74"/>
<text text-anchor="middle" x="37.34" y="-62" font-family="Helvetica,sans-Serif" font-size="10.00">cstring</text>
</a>
</g>
</g>
<!-- Node1&#45;&gt;Node2 -->
<g id="edge1_Node000001_Node000002" class="edge">
<title>Node1&#45;&gt;Node2</title>
<g id="a_edge1_Node000001_Node000002"><a xlink:title=" ">
<path fill="none" stroke="#63b8ff" d="M321.32,-179.63C250.28,-173.2 138.97,-160.26 102.34,-140 78,-126.54 58.44,-100.28 47.35,-82.81"/>
<polygon fill="#63b8ff" stroke="#63b8ff" points="50.27,-80.88 42.09,-74.15 44.29,-84.51 50.27,-80.88"/>
</a>
</g>
</g>
<!-- Node3 -->
<g id="Node000003" class="node">
<title>Node3</title>
<g id="a_Node000003"><a xlink:title=" ">
<polygon fill="#e0e0e0" stroke="#999999" points="140.34,-74 80.34,-74 80.34,-55 140.34,-55 140.34,-74"/>
<text text-anchor="middle" x="110.34" y="-62" font-family="Helvetica,sans-Serif" font-size="10.00">iostream</text>
</a>
</g>
</g>
<!-- Node1&#45;&gt;Node3 -->
<g id="edge2_Node000001_Node000003" class="edge">
<title>Node1&#45;&gt;Node3</title>
<g id="a_edge2_Node000001_Node000003"><a xlink:title=" ">
<path fill="none" stroke="#63b8ff" d="M321.07,-182.48C251.57,-178.83 145.29,-168.6 118.34,-140 104.56,-125.38 104.49,-101.3 106.61,-84.49"/>
<polygon fill="#63b8ff" stroke="#63b8ff" points="110.13,-84.65 108.28,-74.22 103.22,-83.52 110.13,-84.65"/>
</a>
</g>
</g>
<!-- Node4 -->
<g id="Node000004" class="node">
<title>Node4</title>
<g id="a_Node000004"><a xlink:title=" ">
<polygon fill="#e0e0e0" stroke="#999999" points="427.84,-74 380.84,-74 380.84,-55 427.84,-55 427.84,-74"/>
<text text-anchor="middle" x="404.34" y="-62" font-family="Helvetica,sans-Serif" font-size="10.00">fcntl.h</text>
</a>
</g>
</g>
<!-- Node1&#45;&gt;Node4 -->
<g id="edge3_Node000001_Node000004" class="edge">
<title>Node1&#45;&gt;Node4</title>
<g id="a_edge3_Node000001_Node000004"><a xlink:title=" ">
<path fill="none" stroke="#63b8ff" d="M395.26,-175.8C405.16,-167.77 418.53,-154.87 424.34,-140 431.69,-121.17 423.42,-98.65 415.39,-83.33"/>
<polygon fill="#63b8ff" stroke="#63b8ff" points="418.31,-81.38 410.32,-74.42 412.22,-84.84 418.31,-81.38"/>
</a>
</g>
</g>
<!-- Node5 -->
<g id="Node000005" class="node">
<title>Node5</title>
<g id="a_Node000005"><a xlink:title=" ">
<polygon fill="#e0e0e0" stroke="#999999" points="989.34,-19 931.34,-19 931.34,0 989.34,0 989.34,-19"/>
<text text-anchor="middle" x="960.34" y="-7" font-family="Helvetica,sans-Serif" font-size="10.00">memory</text>
</a>
</g>
</g>
<!-- Node1&#45;&gt;Node5 -->
<g id="edge4_Node000001_Node000005" class="edge">
<title>Node1&#45;&gt;Node5</title>
<g id="a_edge4_Node000001_Node000005"><a xlink:title=" ">
<path fill="none" stroke="#63b8ff" d="M445.73,-182.05C573.57,-176.6 856.44,-162.19 894.34,-140 934.69,-116.37 951.21,-59.09 957.25,-29.26"/>
<polygon fill="#63b8ff" stroke="#63b8ff" points="960.72,-29.77 959.08,-19.3 953.83,-28.5 960.72,-29.77"/>
</a>
</g>
</g>
<!-- Node6 -->
<g id="Node000006" class="node">
<title>Node6</title>
<g id="a_Node000006"><a xlink:title=" ">
<polygon fill="#e0e0e0" stroke="#999999" points="333.34,-134.5 277.34,-134.5 277.34,-115.5 333.34,-115.5 333.34,-134.5"/>
<text text-anchor="middle" x="305.34" y="-122.5" font-family="Helvetica,sans-Serif" font-size="10.00">sstream</text>
</a>
</g>
</g>
<!-- Node1&#45;&gt;Node6 -->
<g id="edge5_Node000001_Node000006" class="edge">
<title>Node1&#45;&gt;Node6</title>
<g id="a_edge5_Node000001_Node000006"><a xlink:title=" ">
<path fill="none" stroke="#63b8ff" d="M371.83,-175.87C359.5,-166.62 339.72,-151.78 324.93,-140.69"/>
<polygon fill="#63b8ff" stroke="#63b8ff" points="326.99,-137.87 316.89,-134.67 322.79,-143.47 326.99,-137.87"/>
</a>
</g>
</g>
<!-- Node7 -->
<g id="Node000007" class="node">
<title>Node7</title>
<g id="a_Node000007"><a xlink:title=" ">
<polygon fill="#e0e0e0" stroke="#999999" points="415.34,-134.5 351.34,-134.5 351.34,-115.5 415.34,-115.5 415.34,-134.5"/>
<text text-anchor="middle" x="383.34" y="-122.5" font-family="Helvetica,sans-Serif" font-size="10.00">sys/stat.h</text>
</a>
</g>
</g>
<!-- Node1&#45;&gt;Node7 -->
<g id="edge6_Node000001_Node000007" class="edge">
<title>Node1&#45;&gt;Node7</title>
<g id="a_edge6_Node000001_Node000007"><a xlink:title=" ">
<path fill="none" stroke="#63b8ff" d="M383.34,-175.87C383.34,-167.75 383.34,-155.31 383.34,-144.89"/>
<polygon fill="#63b8ff" stroke="#63b8ff" points="386.84,-144.67 383.34,-134.67 379.84,-144.67 386.84,-144.67"/>
</a>
</g>
</g>
<!-- Node8 -->
<g id="Node000008" class="node">
<title>Node8</title>
<g id="a_Node000008"><a xlink:title=" ">
<polygon fill="#e0e0e0" stroke="#999999" points="196.34,-19 140.34,-19 140.34,0 196.34,0 196.34,-19"/>
<text text-anchor="middle" x="168.34" y="-7" font-family="Helvetica,sans-Serif" font-size="10.00">unistd.h</text>
</a>
</g>
</g>
<!-- Node1&#45;&gt;Node8 -->
<g id="edge7_Node000001_Node000008" class="edge">
<title>Node1&#45;&gt;Node8</title>
<g id="a_edge7_Node000001_Node000008"><a xlink:title=" ">
<path fill="none" stroke="#63b8ff" d="M321.1,-180.79C241.23,-175.17 107.76,-162.7 64.34,-140 28.94,-121.5 17.89,-111.2 3.34,-74 -17.05,-21.91 75.22,-11.8 130.07,-10.3"/>
<polygon fill="#63b8ff" stroke="#63b8ff" points="130.24,-13.8 140.17,-10.11 130.11,-6.8 130.24,-13.8"/>
</a>
</g>
</g>
<!-- Node9 -->
<g id="Node000009" class="node">
<title>Node9</title>
<g id="a_Node000009"><a xlink:title=" ">
<polygon fill="#e0e0e0" stroke="#999999" points="494.34,-74 446.34,-74 446.34,-55 494.34,-55 494.34,-74"/>
<text text-anchor="middle" x="470.34" y="-62" font-family="Helvetica,sans-Serif" font-size="10.00">thread</text>
</a>
</g>
</g>
<!-- Node1&#45;&gt;Node9 -->
<g id="edge8_Node000001_Node000009" class="edge">
<title>Node1&#45;&gt;Node9</title>
<g id="a_edge8_Node000001_Node000009"><a xlink:title=" ">
<path fill="none" stroke="#63b8ff" d="M398.23,-175.98C410.92,-168.07 428.86,-155.24 440.34,-140 453.15,-122.99 461.35,-99.75 465.88,-83.78"/>
<polygon fill="#63b8ff" stroke="#63b8ff" points="469.29,-84.61 468.45,-74.04 462.52,-82.82 469.29,-84.61"/>
</a>
</g>
</g>
<!-- Node10 -->
<g id="Node000010" class="node">
<title>Node10</title>
<g id="a_Node000010"><a xlink:href="load__tracker__info_8cpp.html" target="_top" xlink:title="This file should be included directly in the source file. This is to prevent having to create yet ano...">
<polygon fill="white" stroke="#666666" points="258.84,-140 127.84,-140 127.84,-110 258.84,-110 258.84,-140"/>
<text text-anchor="start" x="135.84" y="-128" font-family="Helvetica,sans-Serif" font-size="10.00">../common/load_tracker</text>
<text text-anchor="middle" x="193.34" y="-117" font-family="Helvetica,sans-Serif" font-size="10.00">_info.cpp</text>
</a>
</g>
</g>
<!-- Node1&#45;&gt;Node10 -->
<g id="edge9_Node000001_Node000010" class="edge">
<title>Node1&#45;&gt;Node10</title>
<g id="a_edge9_Node000001_Node000010"><a xlink:title=" ">
<path fill="none" stroke="#63b8ff" d="M355.71,-175.99C327.77,-167.39 283.81,-153.86 248.67,-143.04"/>
<polygon fill="#63b8ff" stroke="#63b8ff" points="249.6,-139.66 239.02,-140.06 247.54,-146.35 249.6,-139.66"/>
</a>
</g>
</g>
<!-- Node15 -->
<g id="Node000015" class="node">
<title>Node15</title>
<g id="a_Node000015"><a xlink:href="tcp__server_8hpp.html" target="_top" xlink:title=" ">
<polygon fill="white" stroke="#666666" points="683.34,-134.5 543.34,-134.5 543.34,-115.5 683.34,-115.5 683.34,-134.5"/>
<text text-anchor="middle" x="613.34" y="-122.5" font-family="Helvetica,sans-Serif" font-size="10.00">../network/tcp_server.hpp</text>
</a>
</g>
</g>
<!-- Node1&#45;&gt;Node15 -->
<g id="edge18_Node000001_Node000015" class="edge">
<title>Node1&#45;&gt;Node15</title>
<g id="a_edge18_Node000001_Node000015"><a xlink:title=" ">
<path fill="none" stroke="#63b8ff" d="M416.78,-175.99C457.24,-165.7 525.43,-148.36 569.91,-137.04"/>
<polygon fill="#63b8ff" stroke="#63b8ff" points="571.02,-140.37 579.85,-134.52 569.3,-133.59 571.02,-140.37"/>
</a>
</g>
</g>
<!-- Node23 -->
<g id="Node000023" class="node">
<title>Node23</title>
<g id="a_Node000023"><a xlink:href="process__request_8hpp.html" target="_top" xlink:title=" ">
<polygon fill="white" stroke="#666666" points="884.84,-134.5 767.84,-134.5 767.84,-115.5 884.84,-115.5 884.84,-134.5"/>
<text text-anchor="middle" x="826.34" y="-122.5" font-family="Helvetica,sans-Serif" font-size="10.00">process_request.hpp</text>
</a>
</g>
</g>
<!-- Node1&#45;&gt;Node23 -->
<g id="edge31_Node000001_Node000023" class="edge">
<title>Node1&#45;&gt;Node23</title>
<g id="a_edge31_Node000001_Node000023"><a xlink:title=" ">
<path fill="none" stroke="#63b8ff" d="M445.4,-176.3C527.55,-165.46 671.93,-146.39 757.4,-135.1"/>
<polygon fill="#63b8ff" stroke="#63b8ff" points="758.06,-138.55 767.52,-133.77 757.15,-131.61 758.06,-138.55"/>
</a>
</g>
</g>
<!-- Node10&#45;&gt;Node2 -->
<g id="edge13_Node000010_Node000002" class="edge">
<title>Node10&#45;&gt;Node2</title>
<g id="a_edge13_Node000010_Node000002"><a xlink:title=" ">
<path fill="none" stroke="#63b8ff" d="M155.97,-109.99C129.71,-100.14 94.93,-87.1 69.82,-77.68"/>
<polygon fill="#63b8ff" stroke="#63b8ff" points="70.97,-74.37 60.37,-74.14 68.51,-80.93 70.97,-74.37"/>
</a>
</g>
</g>
<!-- Node10&#45;&gt;Node3 -->
<g id="edge15_Node000010_Node000003" class="edge">
<title>Node10&#45;&gt;Node3</title>
<g id="a_edge15_Node000010_Node000003"><a xlink:title=" ">
<path fill="none" stroke="#63b8ff" d="M173.24,-109.84C160.46,-100.83 143.94,-89.18 131.04,-80.09"/>
<polygon fill="#63b8ff" stroke="#63b8ff" points="132.96,-77.17 122.77,-74.27 128.93,-82.89 132.96,-77.17"/>
</a>
</g>
</g>
<!-- Node10&#45;&gt;Node4 -->
<g id="edge14_Node000010_Node000004" class="edge">
<title>Node10&#45;&gt;Node4</title>
<g id="a_edge14_Node000010_Node000004"><a xlink:title=" ">
<path fill="none" stroke="#63b8ff" d="M243.88,-109.99C283.21,-99.08 336.69,-84.26 370.86,-74.78"/>
<polygon fill="#63b8ff" stroke="#63b8ff" points="372.11,-78.07 380.81,-72.02 370.24,-71.32 372.11,-78.07"/>
</a>
</g>
</g>
<!-- Node10&#45;&gt;Node8 -->
<g id="edge16_Node000010_Node000008" class="edge">
<title>Node10&#45;&gt;Node8</title>
<g id="a_edge16_Node000010_Node000008"><a xlink:title=" ">
<path fill="none" stroke="#63b8ff" d="M190.17,-109.63C185.67,-89.21 177.44,-51.81 172.46,-29.24"/>
<polygon fill="#63b8ff" stroke="#63b8ff" points="175.83,-28.24 170.26,-19.23 168.99,-29.75 175.83,-28.24"/>
</a>
</g>
</g>
<!-- Node11 -->
<g id="Node000011" class="node">
<title>Node11</title>
<g id="a_Node000011"><a xlink:href="endpoint_8hpp.html" target="_top" xlink:title=" ">
<polygon fill="white" stroke="#666666" points="324.34,-74 196.34,-74 196.34,-55 324.34,-55 324.34,-74"/>
<text text-anchor="middle" x="260.34" y="-62" font-family="Helvetica,sans-Serif" font-size="10.00">../models/endpoint.hpp</text>
</a>
</g>
</g>
<!-- Node10&#45;&gt;Node11 -->
<g id="edge10_Node000010_Node000011" class="edge">
<title>Node10&#45;&gt;Node11</title>
<g id="a_edge10_Node000010_Node000011"><a xlink:title=" ">
<path fill="none" stroke="#63b8ff" d="M209.56,-109.84C219.58,-101.09 232.44,-89.85 242.72,-80.88"/>
<polygon fill="#63b8ff" stroke="#63b8ff" points="245.07,-83.48 250.3,-74.27 240.46,-78.21 245.07,-83.48"/>
</a>
</g>
</g>
<!-- Node14 -->
<g id="Node000014" class="node">
<title>Node14</title>
<g id="a_Node000014"><a xlink:title=" ">
<polygon fill="#e0e0e0" stroke="#999999" points="727.84,-19 680.84,-19 680.84,0 727.84,0 727.84,-19"/>
<text text-anchor="middle" x="704.34" y="-7" font-family="Helvetica,sans-Serif" font-size="10.00">vector</text>
</a>
</g>
</g>
<!-- Node10&#45;&gt;Node14 -->
<g id="edge17_Node000010_Node000014" class="edge">
<title>Node10&#45;&gt;Node14</title>
<g id="a_edge17_Node000010_Node000014"><a xlink:title=" ">
<path fill="none" stroke="#63b8ff" d="M237.06,-109.9C264.94,-100.54 301.65,-87.52 333.34,-74 350.7,-66.59 353.25,-60.43 371.34,-55 496.82,-17.34 537.38,-42.5 670.46,-18.88"/>
<polygon fill="#63b8ff" stroke="#63b8ff" points="671.42,-22.26 680.63,-17.01 670.16,-15.37 671.42,-22.26"/>
</a>
</g>
</g>
<!-- Node12 -->
<g id="Node000012" class="node">
<title>Node12</title>
<g id="a_Node000012"><a xlink:title=" ">
<polygon fill="#e0e0e0" stroke="#999999" points="285.34,-19 235.34,-19 235.34,0 285.34,0 285.34,-19"/>
<text text-anchor="middle" x="260.34" y="-7" font-family="Helvetica,sans-Serif" font-size="10.00">cstdint</text>
</a>
</g>
</g>
<!-- Node11&#45;&gt;Node12 -->
<g id="edge11_Node000011_Node000012" class="edge">
<title>Node11&#45;&gt;Node12</title>
<g id="a_edge11_Node000011_Node000012"><a xlink:title=" ">
<path fill="none" stroke="#63b8ff" d="M260.34,-54.75C260.34,-47.8 260.34,-37.85 260.34,-29.13"/>
<polygon fill="#63b8ff" stroke="#63b8ff" points="263.84,-29.09 260.34,-19.09 256.84,-29.09 263.84,-29.09"/>
</a>
</g>
</g>
<!-- Node13 -->
<g id="Node000013" class="node">
<title>Node13</title>
<g id="a_Node000013"><a xlink:title=" ">
<polygon fill="#e0e0e0" stroke="#999999" points="662.34,-19 618.34,-19 618.34,0 662.34,0 662.34,-19"/>
<text text-anchor="middle" x="640.34" y="-7" font-family="Helvetica,sans-Serif" font-size="10.00">string</text>
</a>
</g>
</g>
<!-- Node11&#45;&gt;Node13 -->
<g id="edge12_Node000011_Node000013" class="edge">
<title>Node11&#45;&gt;Node13</title>
<g id="a_edge12_Node000011_Node000013"><a xlink:title=" ">
<path fill="none" stroke="#63b8ff" d="M321.39,-54.98C402.9,-43.62 544.36,-23.89 607.86,-15.03"/>
<polygon fill="#63b8ff" stroke="#63b8ff" points="608.64,-18.45 618.07,-13.61 607.68,-11.52 608.64,-18.45"/>
</a>
</g>
</g>
<!-- Node15&#45;&gt;Node9 -->
<g id="edge23_Node000015_Node000009" class="edge">
<title>Node15&#45;&gt;Node9</title>
<g id="a_edge23_Node000015_Node000009"><a xlink:title=" ">
<path fill="none" stroke="#63b8ff" d="M592.54,-115.49C568.4,-105.62 528.35,-89.23 500.72,-77.93"/>
<polygon fill="#63b8ff" stroke="#63b8ff" points="501.74,-74.56 491.15,-74.02 499.09,-81.04 501.74,-74.56"/>
</a>
</g>
</g>
<!-- Node16 -->
<g id="Node000016" class="node">
<title>Node16</title>
<g id="a_Node000016"><a xlink:title=" ">
<polygon fill="#e0e0e0" stroke="#999999" points="562.34,-74 512.34,-74 512.34,-55 562.34,-55 562.34,-74"/>
<text text-anchor="middle" x="537.34" y="-62" font-family="Helvetica,sans-Serif" font-size="10.00">atomic</text>
</a>
</g>
</g>
<!-- Node15&#45;&gt;Node16 -->
<g id="edge19_Node000015_Node000016" class="edge">
<title>Node15&#45;&gt;Node16</title>
<g id="a_edge19_Node000015_Node000016"><a xlink:title=" ">
<path fill="none" stroke="#63b8ff" d="M602.12,-115.37C590.22,-106.21 571.19,-91.56 556.83,-80.51"/>
<polygon fill="#63b8ff" stroke="#63b8ff" points="558.66,-77.49 548.6,-74.17 554.39,-83.04 558.66,-77.49"/>
</a>
</g>
</g>
<!-- Node17 -->
<g id="Node000017" class="node">
<title>Node17</title>
<g id="a_Node000017"><a xlink:title=" ">
<polygon fill="#e0e0e0" stroke="#999999" points="645.84,-74 580.84,-74 580.84,-55 645.84,-55 645.84,-74"/>
<text text-anchor="middle" x="613.34" y="-62" font-family="Helvetica,sans-Serif" font-size="10.00">functional</text>
</a>
</g>
</g>
<!-- Node15&#45;&gt;Node17 -->
<g id="edge20_Node000015_Node000017" class="edge">
<title>Node15&#45;&gt;Node17</title>
<g id="a_edge20_Node000015_Node000017"><a xlink:title=" ">
<path fill="none" stroke="#63b8ff" d="M613.34,-115.37C613.34,-107.25 613.34,-94.81 613.34,-84.39"/>
<polygon fill="#63b8ff" stroke="#63b8ff" points="616.84,-84.17 613.34,-74.17 609.84,-84.17 616.84,-84.17"/>
</a>
</g>
</g>
<!-- Node18 -->
<g id="Node000018" class="node">
<title>Node18</title>
<g id="a_Node000018"><a xlink:title=" ">
<polygon fill="#e0e0e0" stroke="#999999" points="696.34,-74 664.34,-74 664.34,-55 696.34,-55 696.34,-74"/>
<text text-anchor="middle" x="680.34" y="-62" font-family="Helvetica,sans-Serif" font-size="10.00">list</text>
</a>
</g>
</g>
<!-- Node15&#45;&gt;Node18 -->
<g id="edge21_Node000015_Node000018" class="edge">
<title>Node15&#45;&gt;Node18</title>
<g id="a_edge21_Node000015_Node000018"><a xlink:title=" ">
<path fill="none" stroke="#63b8ff" d="M623.22,-115.37C633.61,-106.3 650.17,-91.84 662.79,-80.82"/>
<polygon fill="#63b8ff" stroke="#63b8ff" points="665.18,-83.38 670.41,-74.17 660.58,-78.11 665.18,-83.38"/>
</a>
</g>
</g>
<!-- Node19 -->
<g id="Node000019" class="node">
<title>Node19</title>
<g id="a_Node000019"><a xlink:title=" ">
<polygon fill="#e0e0e0" stroke="#999999" points="762.34,-74 714.34,-74 714.34,-55 762.34,-55 762.34,-74"/>
<text text-anchor="middle" x="738.34" y="-62" font-family="Helvetica,sans-Serif" font-size="10.00">mutex</text>
</a>
</g>
</g>
<!-- Node15&#45;&gt;Node19 -->
<g id="edge22_Node000015_Node000019" class="edge">
<title>Node15&#45;&gt;Node19</title>
<g id="a_edge22_Node000015_Node000019"><a xlink:title=" ">
<path fill="none" stroke="#63b8ff" d="M631.51,-115.49C652.34,-105.75 686.7,-89.66 710.82,-78.38"/>
<polygon fill="#63b8ff" stroke="#63b8ff" points="712.56,-81.43 720.14,-74.02 709.6,-75.09 712.56,-81.43"/>
</a>
</g>
</g>
<!-- Node20 -->
<g id="Node000020" class="node">
<title>Node20</title>
<g id="a_Node000020"><a xlink:href="tcp__socket_8hpp.html" target="_top" xlink:title=" ">
<polygon fill="white" stroke="#666666" points="907.84,-74 818.84,-74 818.84,-55 907.84,-55 907.84,-74"/>
<text text-anchor="middle" x="863.34" y="-62" font-family="Helvetica,sans-Serif" font-size="10.00">tcp_socket.hpp</text>
</a>
</g>
</g>
<!-- Node15&#45;&gt;Node20 -->
<g id="edge24_Node000015_Node000020" class="edge">
<title>Node15&#45;&gt;Node20</title>
<g id="a_edge24_Node000015_Node000020"><a xlink:title=" ">
<path fill="none" stroke="#63b8ff" d="M649.69,-115.49C693.94,-105.14 768.73,-87.64 817.05,-76.33"/>
<polygon fill="#63b8ff" stroke="#63b8ff" points="818,-79.7 826.94,-74.02 816.41,-72.89 818,-79.7"/>
</a>
</g>
</g>
<!-- Node20&#45;&gt;Node5 -->
<g id="edge25_Node000020_Node000005" class="edge">
<title>Node20&#45;&gt;Node5</title>
<g id="a_edge25_Node000020_Node000005"><a xlink:title=" ">
<path fill="none" stroke="#63b8ff" d="M878.92,-54.98C894.1,-46.69 917.43,-33.94 935.23,-24.22"/>
<polygon fill="#63b8ff" stroke="#63b8ff" points="937.37,-27.04 944.47,-19.17 934.01,-20.89 937.37,-27.04"/>
</a>
</g>
</g>
<!-- Node20&#45;&gt;Node8 -->
<g id="edge29_Node000020_Node000008" class="edge">
<title>Node20&#45;&gt;Node8</title>
<g id="a_edge29_Node000020_Node000008"><a xlink:title=" ">
<path fill="none" stroke="#63b8ff" d="M818.43,-59.11C803.46,-57.72 786.69,-56.22 771.34,-55 529.34,-35.83 467.73,-44.62 226.34,-19 219.96,-18.32 213.21,-17.46 206.66,-16.56"/>
<polygon fill="#63b8ff" stroke="#63b8ff" points="207,-13.07 196.6,-15.1 206,-20 207,-13.07"/>
</a>
</g>
</g>
<!-- Node20&#45;&gt;Node13 -->
<g id="edge27_Node000020_Node000013" class="edge">
<title>Node20&#45;&gt;Node13</title>
<g id="a_edge27_Node000020_Node000013"><a xlink:title=" ">
<path fill="none" stroke="#63b8ff" d="M825.2,-54.98C786.59,-46.26 725.2,-32.17 672.34,-19 672.24,-18.97 672.13,-18.95 672.03,-18.92"/>
<polygon fill="#63b8ff" stroke="#63b8ff" points="672.9,-15.53 662.35,-16.44 671.17,-22.32 672.9,-15.53"/>
</a>
</g>
</g>
<!-- Node20&#45;&gt;Node14 -->
<g id="edge30_Node000020_Node000014" class="edge">
<title>Node20&#45;&gt;Node14</title>
<g id="a_edge30_Node000020_Node000014"><a xlink:title=" ">
<path fill="none" stroke="#63b8ff" d="M837.79,-54.98C810.58,-45.91 767.41,-31.52 737.57,-21.58"/>
<polygon fill="#63b8ff" stroke="#63b8ff" points="738.6,-18.23 728,-18.39 736.38,-24.87 738.6,-18.23"/>
</a>
</g>
</g>
<!-- Node21 -->
<g id="Node000021" class="node">
<title>Node21</title>
<g id="a_Node000021"><a xlink:title=" ">
<polygon fill="#e0e0e0" stroke="#999999" points="913.34,-19 841.34,-19 841.34,0 913.34,0 913.34,-19"/>
<text text-anchor="middle" x="877.34" y="-7" font-family="Helvetica,sans-Serif" font-size="10.00">netinet/in.h</text>
</a>
</g>
</g>
<!-- Node20&#45;&gt;Node21 -->
<g id="edge26_Node000020_Node000021" class="edge">
<title>Node20&#45;&gt;Node21</title>
<g id="a_edge26_Node000020_Node000021"><a xlink:title=" ">
<path fill="none" stroke="#63b8ff" d="M865.65,-54.75C867.5,-47.72 870.17,-37.62 872.49,-28.84"/>
<polygon fill="#63b8ff" stroke="#63b8ff" points="875.9,-29.65 875.07,-19.09 869.13,-27.86 875.9,-29.65"/>
</a>
</g>
</g>
<!-- Node22 -->
<g id="Node000022" class="node">
<title>Node22</title>
<g id="a_Node000022"><a xlink:title=" ">
<polygon fill="#e0e0e0" stroke="#999999" points="822.84,-19 745.84,-19 745.84,0 822.84,0 822.84,-19"/>
<text text-anchor="middle" x="784.34" y="-7" font-family="Helvetica,sans-Serif" font-size="10.00">sys/socket.h</text>
</a>
</g>
</g>
<!-- Node20&#45;&gt;Node22 -->
<g id="edge28_Node000020_Node000022" class="edge">
<title>Node20&#45;&gt;Node22</title>
<g id="a_edge28_Node000020_Node000022"><a xlink:title=" ">
<path fill="none" stroke="#63b8ff" d="M850.64,-54.98C838.51,-46.84 819.98,-34.41 805.59,-24.76"/>
<polygon fill="#63b8ff" stroke="#63b8ff" points="807.51,-21.84 797.26,-19.17 803.61,-27.65 807.51,-21.84"/>
</a>
</g>
</g>
<!-- Node23&#45;&gt;Node5 -->
<g id="edge32_Node000023_Node000005" class="edge">
<title>Node23&#45;&gt;Node5</title>
<g id="a_edge32_Node000023_Node000005"><a xlink:title=" ">
<path fill="none" stroke="#63b8ff" d="M848.39,-115.42C868.05,-106.99 896.82,-92.7 917.34,-74 931.75,-60.87 943.74,-41.98 951.37,-28.22"/>
<polygon fill="#63b8ff" stroke="#63b8ff" points="954.53,-29.73 956.12,-19.26 948.35,-26.45 954.53,-29.73"/>
</a>
</g>
</g>
<!-- Node23&#45;&gt;Node13 -->
<g id="edge33_Node000023_Node000013" class="edge">
<title>Node23&#45;&gt;Node13</title>
<g id="a_edge33_Node000023_Node000013"><a xlink:title=" ">
<path fill="none" stroke="#63b8ff" d="M821.74,-115.49C813.52,-101.01 794.9,-71.56 771.34,-55 755.13,-43.61 705.43,-28.42 672.12,-19.06"/>
<polygon fill="#63b8ff" stroke="#63b8ff" points="672.94,-15.66 662.36,-16.35 671.06,-22.4 672.94,-15.66"/>
</a>
</g>
</g>
<!-- Node23&#45;&gt;Node20 -->
<g id="edge34_Node000023_Node000020" class="edge">
<title>Node23&#45;&gt;Node20</title>
<g id="a_edge34_Node000023_Node000020"><a xlink:title=" ">
<path fill="none" stroke="#63b8ff" d="M831.8,-115.37C837.21,-106.81 845.64,-93.47 852.43,-82.74"/>
<polygon fill="#63b8ff" stroke="#63b8ff" points="855.47,-84.49 857.85,-74.17 849.55,-80.75 855.47,-84.49"/>
</a>
</g>
</g>
</g>
</svg>
