<?xml version="1.0" encoding="UTF-8" standalone="no"?>
<!DOCTYPE svg PUBLIC "-//W3C//DTD SVG 1.1//EN"
 "http://www.w3.org/Graphics/SVG/1.1/DTD/svg11.dtd">
<!-- Generated by graphviz version 2.43.0 (0)
 -->
<!-- Title: src/tracker/tracker.cpp Pages: 1 -->
<svg width="808pt" height="269pt"
 viewBox="0.00 0.00 808.35 269.00" xmlns="http://www.w3.org/2000/svg" xmlns:xlink="http://www.w3.org/1999/xlink">
<g id="graph0" class="graph" transform="scale(1 1) rotate(0) translate(4 265)">
<title>src/tracker/tracker.cpp</title>
<!-- Node1 -->
<g id="Node000001" class="node">
<title>Node1</title>
<g id="a_Node000001"><a xlink:title="The tracker.">
<polygon fill="#999999" stroke="#666666" points="374,-261 250,-261 250,-242 374,-242 374,-261"/>
<text text-anchor="middle" x="312" y="-249" font-family="Helvetica,sans-Serif" font-size="10.00">src/tracker/tracker.cpp</text>
</a>
</g>
</g>
<!-- Node2 -->
<g id="Node000002" class="node">
<title>Node2</title>
<g id="a_Node000002"><a xlink:href="load__tracker__info_8cpp.html" target="_top" xlink:title=" ">
<polygon fill="white" stroke="#666666" points="241.5,-140 110.5,-140 110.5,-110 241.5,-110 241.5,-140"/>
<text text-anchor="start" x="118.5" y="-128" font-family="Helvetica,sans-Serif" font-size="10.00">../common/load_tracker</text>
<text text-anchor="middle" x="176" y="-117" font-family="Helvetica,sans-Serif" font-size="10.00">_info.cpp</text>
</a>
</g>
</g>
<!-- Node1&#45;&gt;Node2 -->
<g id="edge1_Node000001_Node000002" class="edge">
<title>Node1&#45;&gt;Node2</title>
<g id="a_edge1_Node000001_Node000002"><a xlink:title=" ">
<path fill="none" stroke="#63b8ff" d="M249.96,-247.14C221.06,-242.08 189.13,-230.74 171,-206 159.35,-190.11 162.12,-167.32 166.92,-150.12"/>
<polygon fill="#63b8ff" stroke="#63b8ff" points="170.36,-150.84 170.06,-140.25 163.69,-148.72 170.36,-150.84"/>
</a>
</g>
</g>
<!-- Node12 -->
<g id="Node000012" class="node">
<title>Node12</title>
<g id="a_Node000012"><a xlink:href="network__errors_8hpp.html" target="_top" xlink:title=" ">
<polygon fill="white" stroke="#666666" points="108,-206 0,-206 0,-176 108,-176 108,-206"/>
<text text-anchor="start" x="8" y="-194" font-family="Helvetica,sans-Serif" font-size="10.00">../network/network</text>
<text text-anchor="middle" x="54" y="-183" font-family="Helvetica,sans-Serif" font-size="10.00">_errors.hpp</text>
</a>
</g>
</g>
<!-- Node1&#45;&gt;Node12 -->
<g id="edge11_Node000001_Node000012" class="edge">
<title>Node1&#45;&gt;Node12</title>
<g id="a_edge11_Node000001_Node000012"><a xlink:title=" ">
<path fill="none" stroke="#63b8ff" d="M274.48,-241.99C233.56,-232.71 167.33,-217.7 118.12,-206.54"/>
<polygon fill="#63b8ff" stroke="#63b8ff" points="118.73,-203.09 108.21,-204.29 117.19,-209.92 118.73,-203.09"/>
</a>
</g>
</g>
<!-- Node13 -->
<g id="Node000013" class="node">
<title>Node13</title>
<g id="a_Node000013"><a xlink:href="tcp__server_8hpp.html" target="_top" xlink:title=" ">
<polygon fill="white" stroke="#666666" points="727,-200.5 587,-200.5 587,-181.5 727,-181.5 727,-200.5"/>
<text text-anchor="middle" x="657" y="-188.5" font-family="Helvetica,sans-Serif" font-size="10.00">../network/tcp_server.hpp</text>
</a>
</g>
</g>
<!-- Node1&#45;&gt;Node13 -->
<g id="edge13_Node000001_Node000013" class="edge">
<title>Node1&#45;&gt;Node13</title>
<g id="a_edge13_Node000001_Node000013"><a xlink:title=" ">
<path fill="none" stroke="#63b8ff" d="M364.01,-241.95C417.65,-233.1 503.71,-218.8 578,-206 584.82,-204.82 591.98,-203.58 599.08,-202.33"/>
<polygon fill="#63b8ff" stroke="#63b8ff" points="600.15,-205.7 609.39,-200.51 598.93,-198.8 600.15,-205.7"/>
</a>
</g>
</g>
<!-- Node23 -->
<g id="Node000023" class="node">
<title>Node23</title>
<g id="a_Node000023"><a xlink:href="parse__request_8hpp.html" target="_top" xlink:title=" ">
<polygon fill="white" stroke="#666666" points="433.5,-200.5 326.5,-200.5 326.5,-181.5 433.5,-181.5 433.5,-200.5"/>
<text text-anchor="middle" x="380" y="-188.5" font-family="Helvetica,sans-Serif" font-size="10.00">parse_request.hpp</text>
</a>
</g>
</g>
<!-- Node1&#45;&gt;Node23 -->
<g id="edge26_Node000001_Node000023" class="edge">
<title>Node1&#45;&gt;Node23</title>
<g id="a_edge26_Node000001_Node000023"><a xlink:title=" ">
<path fill="none" stroke="#63b8ff" d="M322.03,-241.87C332.58,-232.8 349.39,-218.34 362.19,-207.32"/>
<polygon fill="#63b8ff" stroke="#63b8ff" points="364.63,-209.84 369.93,-200.67 360.06,-204.54 364.63,-209.84"/>
</a>
</g>
</g>
<!-- Node26 -->
<g id="Node000026" class="node">
<title>Node26</title>
<g id="a_Node000026"><a xlink:href="tracker_2process__request_8hpp.html" target="_top" xlink:title=" ">
<polygon fill="white" stroke="#666666" points="568.5,-200.5 451.5,-200.5 451.5,-181.5 568.5,-181.5 568.5,-200.5"/>
<text text-anchor="middle" x="510" y="-188.5" font-family="Helvetica,sans-Serif" font-size="10.00">process_request.hpp</text>
</a>
</g>
</g>
<!-- Node1&#45;&gt;Node26 -->
<g id="edge31_Node000001_Node000026" class="edge">
<title>Node1&#45;&gt;Node26</title>
<g id="a_edge31_Node000001_Node000026"><a xlink:title=" ">
<path fill="none" stroke="#63b8ff" d="M340.79,-241.99C375.25,-231.81 433.09,-214.72 471.4,-203.4"/>
<polygon fill="#63b8ff" stroke="#63b8ff" points="472.58,-206.71 481.17,-200.52 470.59,-199.99 472.58,-206.71"/>
</a>
</g>
</g>
<!-- Node27 -->
<g id="Node000027" class="node">
<title>Node27</title>
<g id="a_Node000027"><a xlink:href="transactionsrecord_8hpp.html" target="_top" xlink:title=" ">
<polygon fill="white" stroke="#666666" points="308,-200.5 180,-200.5 180,-181.5 308,-181.5 308,-200.5"/>
<text text-anchor="middle" x="244" y="-188.5" font-family="Helvetica,sans-Serif" font-size="10.00">transactionsrecord.hpp</text>
</a>
</g>
</g>
<!-- Node1&#45;&gt;Node27 -->
<g id="edge33_Node000001_Node000027" class="edge">
<title>Node1&#45;&gt;Node27</title>
<g id="a_edge33_Node000001_Node000027"><a xlink:title=" ">
<path fill="none" stroke="#63b8ff" d="M301.97,-241.87C291.42,-232.8 274.61,-218.34 261.81,-207.32"/>
<polygon fill="#63b8ff" stroke="#63b8ff" points="263.94,-204.54 254.07,-200.67 259.37,-209.84 263.94,-204.54"/>
</a>
</g>
</g>
<!-- Node3 -->
<g id="Node000003" class="node">
<title>Node3</title>
<g id="a_Node000003"><a xlink:href="endpoint_8hpp.html" target="_top" xlink:title=" ">
<polygon fill="white" stroke="#666666" points="420,-74 292,-74 292,-55 420,-55 420,-74"/>
<text text-anchor="middle" x="356" y="-62" font-family="Helvetica,sans-Serif" font-size="10.00">../models/endpoint.hpp</text>
</a>
</g>
</g>
<!-- Node2&#45;&gt;Node3 -->
<g id="edge2_Node000002_Node000003" class="edge">
<title>Node2&#45;&gt;Node3</title>
<g id="a_edge2_Node000002_Node000003"><a xlink:title=" ">
<path fill="none" stroke="#63b8ff" d="M219.11,-109.99C249.91,-99.98 290.87,-86.67 319.93,-77.22"/>
<polygon fill="#63b8ff" stroke="#63b8ff" points="321.25,-80.47 329.68,-74.05 319.09,-73.82 321.25,-80.47"/>
</a>
</g>
</g>
<!-- Node7 -->
<g id="Node000007" class="node">
<title>Node7</title>
<g id="a_Node000007"><a xlink:title=" ">
<polygon fill="#e0e0e0" stroke="#999999" points="274,-74 224,-74 224,-55 274,-55 274,-74"/>
<text text-anchor="middle" x="249" y="-62" font-family="Helvetica,sans-Serif" font-size="10.00">cstring</text>
</a>
</g>
</g>
<!-- Node2&#45;&gt;Node7 -->
<g id="edge6_Node000002_Node000007" class="edge">
<title>Node2&#45;&gt;Node7</title>
<g id="a_edge6_Node000002_Node000007"><a xlink:title=" ">
<path fill="none" stroke="#63b8ff" d="M193.67,-109.84C204.7,-101 218.89,-89.63 230.13,-80.62"/>
<polygon fill="#63b8ff" stroke="#63b8ff" points="232.45,-83.25 238.06,-74.27 228.07,-77.79 232.45,-83.25"/>
</a>
</g>
</g>
<!-- Node8 -->
<g id="Node000008" class="node">
<title>Node8</title>
<g id="a_Node000008"><a xlink:title=" ">
<polygon fill="#e0e0e0" stroke="#999999" points="127.5,-74 80.5,-74 80.5,-55 127.5,-55 127.5,-74"/>
<text text-anchor="middle" x="104" y="-62" font-family="Helvetica,sans-Serif" font-size="10.00">fcntl.h</text>
</a>
</g>
</g>
<!-- Node2&#45;&gt;Node8 -->
<g id="edge7_Node000002_Node000008" class="edge">
<title>Node2&#45;&gt;Node8</title>
<g id="a_edge7_Node000002_Node000008"><a xlink:title=" ">
<path fill="none" stroke="#63b8ff" d="M158.57,-109.84C147.69,-101 133.7,-89.63 122.61,-80.62"/>
<polygon fill="#63b8ff" stroke="#63b8ff" points="124.76,-77.86 114.79,-74.27 120.34,-83.29 124.76,-77.86"/>
</a>
</g>
</g>
<!-- Node9 -->
<g id="Node000009" class="node">
<title>Node9</title>
<g id="a_Node000009"><a xlink:title=" ">
<polygon fill="#e0e0e0" stroke="#999999" points="206,-74 146,-74 146,-55 206,-55 206,-74"/>
<text text-anchor="middle" x="176" y="-62" font-family="Helvetica,sans-Serif" font-size="10.00">iostream</text>
</a>
</g>
</g>
<!-- Node2&#45;&gt;Node9 -->
<g id="edge8_Node000002_Node000009" class="edge">
<title>Node2&#45;&gt;Node9</title>
<g id="a_edge8_Node000002_Node000009"><a xlink:title=" ">
<path fill="none" stroke="#63b8ff" d="M176,-109.84C176,-102.21 176,-92.7 176,-84.45"/>
<polygon fill="#63b8ff" stroke="#63b8ff" points="179.5,-84.27 176,-74.27 172.5,-84.27 179.5,-84.27"/>
</a>
</g>
</g>
<!-- Node10 -->
<g id="Node000010" class="node">
<title>Node10</title>
<g id="a_Node000010"><a xlink:title=" ">
<polygon fill="#e0e0e0" stroke="#999999" points="379,-19 323,-19 323,0 379,0 379,-19"/>
<text text-anchor="middle" x="351" y="-7" font-family="Helvetica,sans-Serif" font-size="10.00">unistd.h</text>
</a>
</g>
</g>
<!-- Node2&#45;&gt;Node10 -->
<g id="edge9_Node000002_Node000010" class="edge">
<title>Node2&#45;&gt;Node10</title>
<g id="a_edge9_Node000002_Node000010"><a xlink:title=" ">
<path fill="none" stroke="#63b8ff" d="M122.61,-109.96C87.02,-98.03 50.27,-79.03 71,-55 104.85,-15.77 245.05,-27.7 312.58,-18.84"/>
<polygon fill="#63b8ff" stroke="#63b8ff" points="313.44,-22.25 322.77,-17.23 312.34,-15.33 313.44,-22.25"/>
</a>
</g>
</g>
<!-- Node11 -->
<g id="Node000011" class="node">
<title>Node11</title>
<g id="a_Node000011"><a xlink:title=" ">
<polygon fill="#e0e0e0" stroke="#999999" points="506.5,-19 459.5,-19 459.5,0 506.5,0 506.5,-19"/>
<text text-anchor="middle" x="483" y="-7" font-family="Helvetica,sans-Serif" font-size="10.00">vector</text>
</a>
</g>
</g>
<!-- Node2&#45;&gt;Node11 -->
<g id="edge10_Node000002_Node000011" class="edge">
<title>Node2&#45;&gt;Node11</title>
<g id="a_edge10_Node000002_Node000011"><a xlink:title=" ">
<path fill="none" stroke="#63b8ff" d="M241.52,-116.03C305.57,-107.36 397.86,-92.27 429,-74 448.04,-62.83 463.57,-42.41 473.01,-27.75"/>
<polygon fill="#63b8ff" stroke="#63b8ff" points="476.07,-29.45 478.3,-19.09 470.1,-25.79 476.07,-29.45"/>
</a>
</g>
</g>
<!-- Node4 -->
<g id="Node000004" class="node">
<title>Node4</title>
<g id="a_Node000004"><a xlink:title=" ">
<polygon fill="#e0e0e0" stroke="#999999" points="305,-19 255,-19 255,0 305,0 305,-19"/>
<text text-anchor="middle" x="280" y="-7" font-family="Helvetica,sans-Serif" font-size="10.00">cstdint</text>
</a>
</g>
</g>
<!-- Node3&#45;&gt;Node4 -->
<g id="edge3_Node000003_Node000004" class="edge">
<title>Node3&#45;&gt;Node4</title>
<g id="a_edge3_Node000003_Node000004"><a xlink:title=" ">
<path fill="none" stroke="#63b8ff" d="M343.79,-54.98C332.22,-46.92 314.62,-34.65 300.84,-25.03"/>
<polygon fill="#63b8ff" stroke="#63b8ff" points="302.64,-22.02 292.43,-19.17 298.63,-27.76 302.64,-22.02"/>
</a>
</g>
</g>
<!-- Node5 -->
<g id="Node000005" class="node">
<title>Node5</title>
<g id="a_Node000005"><a xlink:title=" ">
<polygon fill="#e0e0e0" stroke="#999999" points="159.5,-19 94.5,-19 94.5,0 159.5,0 159.5,-19"/>
<text text-anchor="middle" x="127" y="-7" font-family="Helvetica,sans-Serif" font-size="10.00">stdexcept</text>
</a>
</g>
</g>
<!-- Node3&#45;&gt;Node5 -->
<g id="edge4_Node000003_Node000005" class="edge">
<title>Node3&#45;&gt;Node5</title>
<g id="a_edge4_Node000003_Node000005"><a xlink:title=" ">
<path fill="none" stroke="#63b8ff" d="M319.21,-54.98C278.36,-45.53 212.52,-30.29 169.5,-20.34"/>
<polygon fill="#63b8ff" stroke="#63b8ff" points="170.15,-16.9 159.62,-18.05 168.58,-23.71 170.15,-16.9"/>
</a>
</g>
</g>
<!-- Node6 -->
<g id="Node000006" class="node">
<title>Node6</title>
<g id="a_Node000006"><a xlink:title=" ">
<polygon fill="#e0e0e0" stroke="#999999" points="441,-19 397,-19 397,0 441,0 441,-19"/>
<text text-anchor="middle" x="419" y="-7" font-family="Helvetica,sans-Serif" font-size="10.00">string</text>
</a>
</g>
</g>
<!-- Node3&#45;&gt;Node6 -->
<g id="edge5_Node000003_Node000006" class="edge">
<title>Node3&#45;&gt;Node6</title>
<g id="a_edge5_Node000003_Node000006"><a xlink:title=" ">
<path fill="none" stroke="#63b8ff" d="M366.12,-54.98C375.44,-47.15 389.47,-35.34 400.74,-25.86"/>
<polygon fill="#63b8ff" stroke="#63b8ff" points="403.29,-28.29 408.69,-19.17 398.79,-22.93 403.29,-28.29"/>
</a>
</g>
</g>
<!-- Node12&#45;&gt;Node5 -->
<g id="edge12_Node000012_Node000005" class="edge">
<title>Node12&#45;&gt;Node5</title>
<g id="a_edge12_Node000012_Node000005"><a xlink:title=" ">
<path fill="none" stroke="#63b8ff" d="M51.01,-175.86C46.33,-149.97 39.92,-94.03 62,-55 69.69,-41.4 83.47,-31.07 96.36,-23.81"/>
<polygon fill="#63b8ff" stroke="#63b8ff" points="98.24,-26.78 105.5,-19.06 95.01,-20.57 98.24,-26.78"/>
</a>
</g>
</g>
<!-- Node14 -->
<g id="Node000014" class="node">
<title>Node14</title>
<g id="a_Node000014"><a xlink:title=" ">
<polygon fill="#e0e0e0" stroke="#999999" points="650,-134.5 600,-134.5 600,-115.5 650,-115.5 650,-134.5"/>
<text text-anchor="middle" x="625" y="-122.5" font-family="Helvetica,sans-Serif" font-size="10.00">atomic</text>
</a>
</g>
</g>
<!-- Node13&#45;&gt;Node14 -->
<g id="edge14_Node000013_Node000014" class="edge">
<title>Node13&#45;&gt;Node14</title>
<g id="a_edge14_Node000013_Node000014"><a xlink:title=" ">
<path fill="none" stroke="#63b8ff" d="M652.68,-181.37C647.94,-171.88 640.18,-156.36 634.08,-144.16"/>
<polygon fill="#63b8ff" stroke="#63b8ff" points="637.06,-142.28 629.45,-134.91 630.79,-145.41 637.06,-142.28"/>
</a>
</g>
</g>
<!-- Node15 -->
<g id="Node000015" class="node">
<title>Node15</title>
<g id="a_Node000015"><a xlink:title=" ">
<polygon fill="#e0e0e0" stroke="#999999" points="733.5,-134.5 668.5,-134.5 668.5,-115.5 733.5,-115.5 733.5,-134.5"/>
<text text-anchor="middle" x="701" y="-122.5" font-family="Helvetica,sans-Serif" font-size="10.00">functional</text>
</a>
</g>
</g>
<!-- Node13&#45;&gt;Node15 -->
<g id="edge15_Node000013_Node000015" class="edge">
<title>Node13&#45;&gt;Node15</title>
<g id="a_edge15_Node000013_Node000015"><a xlink:title=" ">
<path fill="none" stroke="#63b8ff" d="M662.93,-181.37C669.59,-171.69 680.56,-155.74 689.01,-143.44"/>
<polygon fill="#63b8ff" stroke="#63b8ff" points="692.1,-145.13 694.88,-134.91 686.33,-141.16 692.1,-145.13"/>
</a>
</g>
</g>
<!-- Node16 -->
<g id="Node000016" class="node">
<title>Node16</title>
<g id="a_Node000016"><a xlink:title=" ">
<polygon fill="#e0e0e0" stroke="#999999" points="784,-134.5 752,-134.5 752,-115.5 784,-115.5 784,-134.5"/>
<text text-anchor="middle" x="768" y="-122.5" font-family="Helvetica,sans-Serif" font-size="10.00">list</text>
</a>
</g>
</g>
<!-- Node13&#45;&gt;Node16 -->
<g id="edge16_Node000013_Node000016" class="edge">
<title>Node13&#45;&gt;Node16</title>
<g id="a_edge16_Node000013_Node000016"><a xlink:title=" ">
<path fill="none" stroke="#63b8ff" d="M671.97,-181.37C690.51,-170.68 722.31,-152.35 744.2,-139.72"/>
<polygon fill="#63b8ff" stroke="#63b8ff" points="746,-142.73 752.91,-134.7 742.5,-136.66 746,-142.73"/>
</a>
</g>
</g>
<!-- Node17 -->
<g id="Node000017" class="node">
<title>Node17</title>
<g id="a_Node000017"><a xlink:title=" ">
<polygon fill="#e0e0e0" stroke="#999999" points="516,-134.5 468,-134.5 468,-115.5 516,-115.5 516,-134.5"/>
<text text-anchor="middle" x="492" y="-122.5" font-family="Helvetica,sans-Serif" font-size="10.00">mutex</text>
</a>
</g>
</g>
<!-- Node13&#45;&gt;Node17 -->
<g id="edge17_Node000013_Node000017" class="edge">
<title>Node13&#45;&gt;Node17</title>
<g id="a_edge17_Node000013_Node000017"><a xlink:title=" ">
<path fill="none" stroke="#63b8ff" d="M633.53,-181.42C607.05,-171.68 562.75,-155.15 525,-140 523.8,-139.52 522.57,-139.02 521.34,-138.52"/>
<polygon fill="#63b8ff" stroke="#63b8ff" points="522.42,-135.17 511.84,-134.57 519.73,-141.64 522.42,-135.17"/>
</a>
</g>
</g>
<!-- Node18 -->
<g id="Node000018" class="node">
<title>Node18</title>
<g id="a_Node000018"><a xlink:title=" ">
<polygon fill="#e0e0e0" stroke="#999999" points="582,-134.5 534,-134.5 534,-115.5 582,-115.5 582,-134.5"/>
<text text-anchor="middle" x="558" y="-122.5" font-family="Helvetica,sans-Serif" font-size="10.00">thread</text>
</a>
</g>
</g>
<!-- Node13&#45;&gt;Node18 -->
<g id="edge18_Node000013_Node000018" class="edge">
<title>Node13&#45;&gt;Node18</title>
<g id="a_edge18_Node000013_Node000018"><a xlink:title=" ">
<path fill="none" stroke="#63b8ff" d="M643.65,-181.37C627.34,-170.82 599.51,-152.84 580.01,-140.23"/>
<polygon fill="#63b8ff" stroke="#63b8ff" points="581.75,-137.19 571.46,-134.7 577.95,-143.07 581.75,-137.19"/>
</a>
</g>
</g>
<!-- Node19 -->
<g id="Node000019" class="node">
<title>Node19</title>
<g id="a_Node000019"><a xlink:href="tcp__socket_8hpp.html" target="_top" xlink:title=" ">
<polygon fill="white" stroke="#666666" points="634.5,-74 545.5,-74 545.5,-55 634.5,-55 634.5,-74"/>
<text text-anchor="middle" x="590" y="-62" font-family="Helvetica,sans-Serif" font-size="10.00">tcp_socket.hpp</text>
</a>
</g>
</g>
<!-- Node13&#45;&gt;Node19 -->
<g id="edge19_Node000013_Node000019" class="edge">
<title>Node13&#45;&gt;Node19</title>
<g id="a_edge19_Node000013_Node000019"><a xlink:title=" ">
<path fill="none" stroke="#63b8ff" d="M701.73,-181.47C751.82,-169.93 822.36,-146.5 793,-110 774.73,-87.29 698.65,-75.52 645.01,-69.93"/>
<polygon fill="#63b8ff" stroke="#63b8ff" points="645.24,-66.43 634.94,-68.92 644.55,-73.4 645.24,-66.43"/>
</a>
</g>
</g>
<!-- Node19&#45;&gt;Node6 -->
<g id="edge22_Node000019_Node000006" class="edge">
<title>Node19&#45;&gt;Node6</title>
<g id="a_edge22_Node000019_Node000006"><a xlink:title=" ">
<path fill="none" stroke="#63b8ff" d="M562.53,-54.98C532.11,-45.56 483.15,-30.38 451.03,-20.43"/>
<polygon fill="#63b8ff" stroke="#63b8ff" points="451.82,-17.01 441.23,-17.39 449.75,-23.69 451.82,-17.01"/>
</a>
</g>
</g>
<!-- Node19&#45;&gt;Node10 -->
<g id="edge24_Node000019_Node000010" class="edge">
<title>Node19&#45;&gt;Node10</title>
<g id="a_edge24_Node000019_Node000010"><a xlink:title=" ">
<path fill="none" stroke="#63b8ff" d="M550.87,-54.99C512.23,-46.56 451.18,-33.18 389.22,-19.26"/>
<polygon fill="#63b8ff" stroke="#63b8ff" points="389.8,-15.8 379.28,-17.02 388.26,-22.63 389.8,-15.8"/>
</a>
</g>
</g>
<!-- Node19&#45;&gt;Node11 -->
<g id="edge25_Node000019_Node000011" class="edge">
<title>Node19&#45;&gt;Node11</title>
<g id="a_edge25_Node000019_Node000011"><a xlink:title=" ">
<path fill="none" stroke="#63b8ff" d="M572.81,-54.98C555.75,-46.54 529.37,-33.47 509.6,-23.68"/>
<polygon fill="#63b8ff" stroke="#63b8ff" points="511.02,-20.47 500.5,-19.17 507.91,-26.75 511.02,-20.47"/>
</a>
</g>
</g>
<!-- Node20 -->
<g id="Node000020" class="node">
<title>Node20</title>
<g id="a_Node000020"><a xlink:title=" ">
<polygon fill="#e0e0e0" stroke="#999999" points="583,-19 525,-19 525,0 583,0 583,-19"/>
<text text-anchor="middle" x="554" y="-7" font-family="Helvetica,sans-Serif" font-size="10.00">memory</text>
</a>
</g>
</g>
<!-- Node19&#45;&gt;Node20 -->
<g id="edge20_Node000019_Node000020" class="edge">
<title>Node19&#45;&gt;Node20</title>
<g id="a_edge20_Node000019_Node000020"><a xlink:title=" ">
<path fill="none" stroke="#63b8ff" d="M584.06,-54.75C579.02,-47.34 571.66,-36.5 565.49,-27.41"/>
<polygon fill="#63b8ff" stroke="#63b8ff" points="568.35,-25.39 559.83,-19.09 562.56,-29.33 568.35,-25.39"/>
</a>
</g>
</g>
<!-- Node21 -->
<g id="Node000021" class="node">
<title>Node21</title>
<g id="a_Node000021"><a xlink:title=" ">
<polygon fill="#e0e0e0" stroke="#999999" points="673,-19 601,-19 601,0 673,0 673,-19"/>
<text text-anchor="middle" x="637" y="-7" font-family="Helvetica,sans-Serif" font-size="10.00">netinet/in.h</text>
</a>
</g>
</g>
<!-- Node19&#45;&gt;Node21 -->
<g id="edge21_Node000019_Node000021" class="edge">
<title>Node19&#45;&gt;Node21</title>
<g id="a_edge21_Node000019_Node000021"><a xlink:title=" ">
<path fill="none" stroke="#63b8ff" d="M597.76,-54.75C604.47,-47.18 614.34,-36.05 622.51,-26.84"/>
<polygon fill="#63b8ff" stroke="#63b8ff" points="625.37,-28.89 629.38,-19.09 620.13,-24.25 625.37,-28.89"/>
</a>
</g>
</g>
<!-- Node22 -->
<g id="Node000022" class="node">
<title>Node22</title>
<g id="a_Node000022"><a xlink:title=" ">
<polygon fill="#e0e0e0" stroke="#999999" points="768.5,-19 691.5,-19 691.5,0 768.5,0 768.5,-19"/>
<text text-anchor="middle" x="730" y="-7" font-family="Helvetica,sans-Serif" font-size="10.00">sys/socket.h</text>
</a>
</g>
</g>
<!-- Node19&#45;&gt;Node22 -->
<g id="edge23_Node000019_Node000022" class="edge">
<title>Node19&#45;&gt;Node22</title>
<g id="a_edge23_Node000019_Node000022"><a xlink:title=" ">
<path fill="none" stroke="#63b8ff" d="M612.49,-54.98C635.52,-46.27 671.54,-32.63 697.63,-22.75"/>
<polygon fill="#63b8ff" stroke="#63b8ff" points="698.98,-25.98 707.1,-19.17 696.51,-19.44 698.98,-25.98"/>
</a>
</g>
</g>
<!-- Node24 -->
<g id="Node000024" class="node">
<title>Node24</title>
<g id="a_Node000024"><a xlink:href="transaction_8hpp.html" target="_top" xlink:title=" ">
<polygon fill="white" stroke="#666666" points="450,-134.5 310,-134.5 310,-115.5 450,-115.5 450,-134.5"/>
<text text-anchor="middle" x="380" y="-122.5" font-family="Helvetica,sans-Serif" font-size="10.00">../models/transaction.hpp</text>
</a>
</g>
</g>
<!-- Node23&#45;&gt;Node24 -->
<g id="edge27_Node000023_Node000024" class="edge">
<title>Node23&#45;&gt;Node24</title>
<g id="a_edge27_Node000023_Node000024"><a xlink:title=" ">
<path fill="none" stroke="#63b8ff" d="M380,-181.37C380,-172.16 380,-157.29 380,-145.27"/>
<polygon fill="#63b8ff" stroke="#63b8ff" points="383.5,-144.91 380,-134.91 376.5,-144.91 383.5,-144.91"/>
</a>
</g>
</g>
<!-- Node24&#45;&gt;Node3 -->
<g id="edge29_Node000024_Node000003" class="edge">
<title>Node24&#45;&gt;Node3</title>
<g id="a_edge29_Node000024_Node000003"><a xlink:title=" ">
<path fill="none" stroke="#63b8ff" d="M376.46,-115.37C373.06,-107.07 367.81,-94.28 363.48,-83.72"/>
<polygon fill="#63b8ff" stroke="#63b8ff" points="366.59,-82.09 359.56,-74.17 360.11,-84.75 366.59,-82.09"/>
</a>
</g>
</g>
<!-- Node24&#45;&gt;Node19 -->
<g id="edge30_Node000024_Node000019" class="edge">
<title>Node24&#45;&gt;Node19</title>
<g id="a_edge30_Node000024_Node000019"><a xlink:title=" ">
<path fill="none" stroke="#63b8ff" d="M410.54,-115.49C447.24,-105.27 508.95,-88.08 549.58,-76.76"/>
<polygon fill="#63b8ff" stroke="#63b8ff" points="550.73,-80.07 559.43,-74.02 548.85,-73.33 550.73,-80.07"/>
</a>
</g>
</g>
<!-- Node25 -->
<g id="Node000025" class="node">
<title>Node25</title>
<g id="a_Node000025"><a xlink:title=" ">
<polygon fill="#e0e0e0" stroke="#999999" points="527.5,-74 476.5,-74 476.5,-55 527.5,-55 527.5,-74"/>
<text text-anchor="middle" x="502" y="-62" font-family="Helvetica,sans-Serif" font-size="10.00">variant</text>
</a>
</g>
</g>
<!-- Node24&#45;&gt;Node25 -->
<g id="edge28_Node000024_Node000025" class="edge">
<title>Node24&#45;&gt;Node25</title>
<g id="a_edge28_Node000024_Node000025"><a xlink:title=" ">
<path fill="none" stroke="#63b8ff" d="M397.74,-115.49C418.07,-105.75 451.61,-89.66 475.14,-78.38"/>
<polygon fill="#63b8ff" stroke="#63b8ff" points="476.74,-81.5 484.24,-74.02 473.71,-75.18 476.74,-81.5"/>
</a>
</g>
</g>
<!-- Node26&#45;&gt;Node24 -->
<g id="edge32_Node000026_Node000024" class="edge">
<title>Node26&#45;&gt;Node24</title>
<g id="a_edge32_Node000026_Node000024"><a xlink:title=" ">
<path fill="none" stroke="#63b8ff" d="M492.47,-181.37C470.47,-170.54 432.51,-151.85 406.85,-139.22"/>
<polygon fill="#63b8ff" stroke="#63b8ff" points="408.19,-135.98 397.67,-134.7 405.1,-142.26 408.19,-135.98"/>
</a>
</g>
</g>
<!-- Node27&#45;&gt;Node24 -->
<g id="edge34_Node000027_Node000024" class="edge">
<title>Node27&#45;&gt;Node24</title>
<g id="a_edge34_Node000027_Node000024"><a xlink:title=" ">
<path fill="none" stroke="#63b8ff" d="M262.34,-181.37C285.46,-170.49 325.41,-151.69 352.27,-139.05"/>
<polygon fill="#63b8ff" stroke="#63b8ff" points="353.96,-142.12 361.51,-134.7 350.98,-135.79 353.96,-142.12"/>
</a>
</g>
</g>
</g>
</svg>
