<?xml version="1.0" encoding="UTF-8" standalone="no"?>
<!DOCTYPE svg PUBLIC "-//W3C//DTD SVG 1.1//EN"
 "http://www.w3.org/Graphics/SVG/1.1/DTD/svg11.dtd">
<!-- Generated by graphviz version 2.43.0 (0)
 -->
<!-- Title: src/tracker/process_request.cpp Pages: 1 -->
<svg width="846pt" height="313pt"
 viewBox="0.00 0.00 845.50 313.00" xmlns="http://www.w3.org/2000/svg" xmlns:xlink="http://www.w3.org/1999/xlink">
<g id="graph0" class="graph" transform="scale(1 1) rotate(0) translate(4 309)">
<title>src/tracker/process_request.cpp</title>
<!-- Node1 -->
<g id="Node000001" class="node">
<title>Node1</title>
<g id="a_Node000001"><a xlink:title=" ">
<polygon fill="#999999" stroke="#666666" points="526.5,-305 418.5,-305 418.5,-275 526.5,-275 526.5,-305"/>
<text text-anchor="start" x="426.5" y="-293" font-family="Helvetica,sans-Serif" font-size="10.00">src/tracker/process</text>
<text text-anchor="middle" x="472.5" y="-282" font-family="Helvetica,sans-Serif" font-size="10.00">_request.cpp</text>
</a>
</g>
</g>
<!-- Node2 -->
<g id="Node000002" class="node">
<title>Node2</title>
<g id="a_Node000002"><a xlink:href="tracker_2process__request_8hpp.html" target="_top" xlink:title=" ">
<polygon fill="white" stroke="#666666" points="419,-239 302,-239 302,-220 419,-220 419,-239"/>
<text text-anchor="middle" x="360.5" y="-227" font-family="Helvetica,sans-Serif" font-size="10.00">process_request.hpp</text>
</a>
</g>
</g>
<!-- Node1&#45;&gt;Node2 -->
<g id="edge1_Node000001_Node000002" class="edge">
<title>Node1&#45;&gt;Node2</title>
<g id="a_edge1_Node000001_Node000002"><a xlink:title=" ">
<path fill="none" stroke="#63b8ff" d="M445.67,-274.99C427.65,-265.58 404.04,-253.24 386.25,-243.95"/>
<polygon fill="#63b8ff" stroke="#63b8ff" points="387.52,-240.67 377.04,-239.14 384.28,-246.87 387.52,-240.67"/>
</a>
</g>
</g>
<!-- Node15 -->
<g id="Node000015" class="node">
<title>Node15</title>
<g id="a_Node000015"><a xlink:href="groupdb_8hpp.html" target="_top" xlink:title=" ">
<polygon fill="white" stroke="#666666" points="615,-239 538,-239 538,-220 615,-220 615,-239"/>
<text text-anchor="middle" x="576.5" y="-227" font-family="Helvetica,sans-Serif" font-size="10.00">groupdb.hpp</text>
</a>
</g>
</g>
<!-- Node1&#45;&gt;Node15 -->
<g id="edge15_Node000001_Node000015" class="edge">
<title>Node1&#45;&gt;Node15</title>
<g id="a_edge15_Node000001_Node000015"><a xlink:title=" ">
<path fill="none" stroke="#63b8ff" d="M497.41,-274.99C513.99,-265.66 535.66,-253.47 552.13,-244.21"/>
<polygon fill="#63b8ff" stroke="#63b8ff" points="554.14,-247.09 561.14,-239.14 550.71,-240.99 554.14,-247.09"/>
</a>
</g>
</g>
<!-- Node22 -->
<g id="Node000022" class="node">
<title>Node22</title>
<g id="a_Node000022"><a xlink:title=" ">
<polygon fill="#e0e0e0" stroke="#999999" points="810.5,-19 754.5,-19 754.5,0 810.5,0 810.5,-19"/>
<text text-anchor="middle" x="782.5" y="-7" font-family="Helvetica,sans-Serif" font-size="10.00">sstream</text>
</a>
</g>
</g>
<!-- Node1&#45;&gt;Node22 -->
<g id="edge38_Node000001_Node000022" class="edge">
<title>Node1&#45;&gt;Node22</title>
<g id="a_edge38_Node000001_Node000022"><a xlink:title=" ">
<path fill="none" stroke="#63b8ff" d="M526.75,-283.53C628.43,-271.78 837.5,-239.79 837.5,-175.5 837.5,-175.5 837.5,-175.5 837.5,-118.5 837.5,-89.04 832.25,-81.05 818.5,-55 813.13,-44.82 805.26,-34.75 798.24,-26.77"/>
<polygon fill="#63b8ff" stroke="#63b8ff" points="800.72,-24.29 791.38,-19.29 795.56,-29.02 800.72,-24.29"/>
</a>
</g>
</g>
<!-- Node24 -->
<g id="Node000024" class="node">
<title>Node24</title>
<g id="a_Node000024"><a xlink:href="userdb_8hpp.html" target="_top" xlink:title=" ">
<polygon fill="white" stroke="#666666" points="508,-239 437,-239 437,-220 508,-220 508,-239"/>
<text text-anchor="middle" x="472.5" y="-227" font-family="Helvetica,sans-Serif" font-size="10.00">userdb.hpp</text>
</a>
</g>
</g>
<!-- Node1&#45;&gt;Node24 -->
<g id="edge30_Node000001_Node000024" class="edge">
<title>Node1&#45;&gt;Node24</title>
<g id="a_edge30_Node000001_Node000024"><a xlink:title=" ">
<path fill="none" stroke="#63b8ff" d="M472.5,-274.84C472.5,-267.21 472.5,-257.7 472.5,-249.45"/>
<polygon fill="#63b8ff" stroke="#63b8ff" points="476,-249.27 472.5,-239.27 469,-249.27 476,-249.27"/>
</a>
</g>
</g>
<!-- Node25 -->
<g id="Node000025" class="node">
<title>Node25</title>
<g id="a_Node000025"><a xlink:href="transactionsrecord_8hpp.html" target="_top" xlink:title=" ">
<polygon fill="white" stroke="#666666" points="283.5,-239 155.5,-239 155.5,-220 283.5,-220 283.5,-239"/>
<text text-anchor="middle" x="219.5" y="-227" font-family="Helvetica,sans-Serif" font-size="10.00">transactionsrecord.hpp</text>
</a>
</g>
</g>
<!-- Node1&#45;&gt;Node25 -->
<g id="edge36_Node000001_Node000025" class="edge">
<title>Node1&#45;&gt;Node25</title>
<g id="a_edge36_Node000001_Node000025"><a xlink:title=" ">
<path fill="none" stroke="#63b8ff" d="M418.23,-276.45C373.06,-266.01 309.42,-251.29 266.43,-241.35"/>
<polygon fill="#63b8ff" stroke="#63b8ff" points="267.04,-237.9 256.51,-239.06 265.46,-244.72 267.04,-237.9"/>
</a>
</g>
</g>
<!-- Node3 -->
<g id="Node000003" class="node">
<title>Node3</title>
<g id="a_Node000003"><a xlink:href="transaction_8hpp.html" target="_top" xlink:title=" ">
<polygon fill="white" stroke="#666666" points="289.5,-184 149.5,-184 149.5,-165 289.5,-165 289.5,-184"/>
<text text-anchor="middle" x="219.5" y="-172" font-family="Helvetica,sans-Serif" font-size="10.00">../models/transaction.hpp</text>
</a>
</g>
</g>
<!-- Node2&#45;&gt;Node3 -->
<g id="edge2_Node000002_Node000003" class="edge">
<title>Node2&#45;&gt;Node3</title>
<g id="a_edge2_Node000002_Node000003"><a xlink:title=" ">
<path fill="none" stroke="#63b8ff" d="M337.85,-219.98C314.65,-211.27 278.38,-197.63 252.1,-187.75"/>
<polygon fill="#63b8ff" stroke="#63b8ff" points="253.16,-184.41 242.57,-184.17 250.7,-190.97 253.16,-184.41"/>
</a>
</g>
</g>
<!-- Node4 -->
<g id="Node000004" class="node">
<title>Node4</title>
<g id="a_Node000004"><a xlink:title=" ">
<polygon fill="#e0e0e0" stroke="#999999" points="289,-129 238,-129 238,-110 289,-110 289,-129"/>
<text text-anchor="middle" x="263.5" y="-117" font-family="Helvetica,sans-Serif" font-size="10.00">variant</text>
</a>
</g>
</g>
<!-- Node3&#45;&gt;Node4 -->
<g id="edge3_Node000003_Node000004" class="edge">
<title>Node3&#45;&gt;Node4</title>
<g id="a_edge3_Node000003_Node000004"><a xlink:title=" ">
<path fill="none" stroke="#63b8ff" d="M226.77,-164.75C233.04,-157.18 242.29,-146.05 249.93,-136.84"/>
<polygon fill="#63b8ff" stroke="#63b8ff" points="252.67,-139.02 256.37,-129.09 247.29,-134.55 252.67,-139.02"/>
</a>
</g>
</g>
<!-- Node5 -->
<g id="Node000005" class="node">
<title>Node5</title>
<g id="a_Node000005"><a xlink:href="endpoint_8hpp.html" target="_top" xlink:title=" ">
<polygon fill="white" stroke="#666666" points="615.5,-74 487.5,-74 487.5,-55 615.5,-55 615.5,-74"/>
<text text-anchor="middle" x="551.5" y="-62" font-family="Helvetica,sans-Serif" font-size="10.00">../models/endpoint.hpp</text>
</a>
</g>
</g>
<!-- Node3&#45;&gt;Node5 -->
<g id="edge4_Node000003_Node000005" class="edge">
<title>Node3&#45;&gt;Node5</title>
<g id="a_edge4_Node000003_Node000005"><a xlink:title=" ">
<path fill="none" stroke="#63b8ff" d="M245.83,-164.94C304.91,-145.72 448.13,-99.13 515.43,-77.24"/>
<polygon fill="#63b8ff" stroke="#63b8ff" points="516.74,-80.49 525.17,-74.07 514.58,-73.83 516.74,-80.49"/>
</a>
</g>
</g>
<!-- Node9 -->
<g id="Node000009" class="node">
<title>Node9</title>
<g id="a_Node000009"><a xlink:href="tcp__socket_8hpp.html" target="_top" xlink:title=" ">
<polygon fill="white" stroke="#666666" points="220,-129 79,-129 79,-110 220,-110 220,-129"/>
<text text-anchor="middle" x="149.5" y="-117" font-family="Helvetica,sans-Serif" font-size="10.00">../network/tcp_socket.hpp</text>
</a>
</g>
</g>
<!-- Node3&#45;&gt;Node9 -->
<g id="edge8_Node000003_Node000009" class="edge">
<title>Node3&#45;&gt;Node9</title>
<g id="a_edge8_Node000003_Node000009"><a xlink:title=" ">
<path fill="none" stroke="#63b8ff" d="M208.25,-164.98C197.7,-157 181.7,-144.88 169.06,-135.31"/>
<polygon fill="#63b8ff" stroke="#63b8ff" points="171.04,-132.42 160.95,-129.17 166.81,-138 171.04,-132.42"/>
</a>
</g>
</g>
<!-- Node6 -->
<g id="Node000006" class="node">
<title>Node6</title>
<g id="a_Node000006"><a xlink:title=" ">
<polygon fill="#e0e0e0" stroke="#999999" points="576.5,-19 526.5,-19 526.5,0 576.5,0 576.5,-19"/>
<text text-anchor="middle" x="551.5" y="-7" font-family="Helvetica,sans-Serif" font-size="10.00">cstdint</text>
</a>
</g>
</g>
<!-- Node5&#45;&gt;Node6 -->
<g id="edge5_Node000005_Node000006" class="edge">
<title>Node5&#45;&gt;Node6</title>
<g id="a_edge5_Node000005_Node000006"><a xlink:title=" ">
<path fill="none" stroke="#63b8ff" d="M551.5,-54.75C551.5,-47.8 551.5,-37.85 551.5,-29.13"/>
<polygon fill="#63b8ff" stroke="#63b8ff" points="555,-29.09 551.5,-19.09 548,-29.09 555,-29.09"/>
</a>
</g>
</g>
<!-- Node7 -->
<g id="Node000007" class="node">
<title>Node7</title>
<g id="a_Node000007"><a xlink:title=" ">
<polygon fill="#e0e0e0" stroke="#999999" points="681,-19 616,-19 616,0 681,0 681,-19"/>
<text text-anchor="middle" x="648.5" y="-7" font-family="Helvetica,sans-Serif" font-size="10.00">stdexcept</text>
</a>
</g>
</g>
<!-- Node5&#45;&gt;Node7 -->
<g id="edge6_Node000005_Node000007" class="edge">
<title>Node5&#45;&gt;Node7</title>
<g id="a_edge6_Node000005_Node000007"><a xlink:title=" ">
<path fill="none" stroke="#63b8ff" d="M567.08,-54.98C582.27,-46.69 605.6,-33.94 623.4,-24.22"/>
<polygon fill="#63b8ff" stroke="#63b8ff" points="625.53,-27.04 632.63,-19.17 622.18,-20.89 625.53,-27.04"/>
</a>
</g>
</g>
<!-- Node8 -->
<g id="Node000008" class="node">
<title>Node8</title>
<g id="a_Node000008"><a xlink:title=" ">
<polygon fill="#e0e0e0" stroke="#999999" points="494.5,-19 450.5,-19 450.5,0 494.5,0 494.5,-19"/>
<text text-anchor="middle" x="472.5" y="-7" font-family="Helvetica,sans-Serif" font-size="10.00">string</text>
</a>
</g>
</g>
<!-- Node5&#45;&gt;Node8 -->
<g id="edge7_Node000005_Node000008" class="edge">
<title>Node5&#45;&gt;Node8</title>
<g id="a_edge7_Node000005_Node000008"><a xlink:title=" ">
<path fill="none" stroke="#63b8ff" d="M538.81,-54.98C526.67,-46.84 508.14,-34.41 493.75,-24.76"/>
<polygon fill="#63b8ff" stroke="#63b8ff" points="495.68,-21.84 485.42,-19.17 491.78,-27.65 495.68,-21.84"/>
</a>
</g>
</g>
<!-- Node9&#45;&gt;Node8 -->
<g id="edge11_Node000009_Node000008" class="edge">
<title>Node9&#45;&gt;Node8</title>
<g id="a_edge11_Node000009_Node000008"><a xlink:title=" ">
<path fill="none" stroke="#63b8ff" d="M176.73,-109.98C204.79,-101.16 249.79,-86.87 288.5,-74 342.14,-56.16 404.24,-34.52 440.84,-21.67"/>
<polygon fill="#63b8ff" stroke="#63b8ff" points="442.19,-24.9 450.46,-18.28 439.87,-18.3 442.19,-24.9"/>
</a>
</g>
</g>
<!-- Node10 -->
<g id="Node000010" class="node">
<title>Node10</title>
<g id="a_Node000010"><a xlink:title=" ">
<polygon fill="#e0e0e0" stroke="#999999" points="431.5,-74 373.5,-74 373.5,-55 431.5,-55 431.5,-74"/>
<text text-anchor="middle" x="402.5" y="-62" font-family="Helvetica,sans-Serif" font-size="10.00">memory</text>
</a>
</g>
</g>
<!-- Node9&#45;&gt;Node10 -->
<g id="edge9_Node000009_Node000010" class="edge">
<title>Node9&#45;&gt;Node10</title>
<g id="a_edge9_Node000009_Node000010"><a xlink:title=" ">
<path fill="none" stroke="#63b8ff" d="M190.15,-109.98C237.91,-99.98 316.58,-83.5 363.58,-73.65"/>
<polygon fill="#63b8ff" stroke="#63b8ff" points="364.32,-77.07 373.39,-71.6 362.88,-70.22 364.32,-77.07"/>
</a>
</g>
</g>
<!-- Node11 -->
<g id="Node000011" class="node">
<title>Node11</title>
<g id="a_Node000011"><a xlink:title=" ">
<polygon fill="#e0e0e0" stroke="#999999" points="279.5,-74 207.5,-74 207.5,-55 279.5,-55 279.5,-74"/>
<text text-anchor="middle" x="243.5" y="-62" font-family="Helvetica,sans-Serif" font-size="10.00">netinet/in.h</text>
</a>
</g>
</g>
<!-- Node9&#45;&gt;Node11 -->
<g id="edge10_Node000009_Node000011" class="edge">
<title>Node9&#45;&gt;Node11</title>
<g id="a_edge10_Node000009_Node000011"><a xlink:title=" ">
<path fill="none" stroke="#63b8ff" d="M164.6,-109.98C179.32,-101.69 201.92,-88.94 219.17,-79.22"/>
<polygon fill="#63b8ff" stroke="#63b8ff" points="221.13,-82.13 228.12,-74.17 217.69,-76.03 221.13,-82.13"/>
</a>
</g>
</g>
<!-- Node12 -->
<g id="Node000012" class="node">
<title>Node12</title>
<g id="a_Node000012"><a xlink:title=" ">
<polygon fill="#e0e0e0" stroke="#999999" points="77,-74 0,-74 0,-55 77,-55 77,-74"/>
<text text-anchor="middle" x="38.5" y="-62" font-family="Helvetica,sans-Serif" font-size="10.00">sys/socket.h</text>
</a>
</g>
</g>
<!-- Node9&#45;&gt;Node12 -->
<g id="edge12_Node000009_Node000012" class="edge">
<title>Node9&#45;&gt;Node12</title>
<g id="a_edge12_Node000009_Node000012"><a xlink:title=" ">
<path fill="none" stroke="#63b8ff" d="M131.67,-109.98C113.89,-101.5 86.35,-88.35 65.82,-78.54"/>
<polygon fill="#63b8ff" stroke="#63b8ff" points="67.19,-75.32 56.66,-74.17 64.17,-81.64 67.19,-75.32"/>
</a>
</g>
</g>
<!-- Node13 -->
<g id="Node000013" class="node">
<title>Node13</title>
<g id="a_Node000013"><a xlink:title=" ">
<polygon fill="#e0e0e0" stroke="#999999" points="151.5,-74 95.5,-74 95.5,-55 151.5,-55 151.5,-74"/>
<text text-anchor="middle" x="123.5" y="-62" font-family="Helvetica,sans-Serif" font-size="10.00">unistd.h</text>
</a>
</g>
</g>
<!-- Node9&#45;&gt;Node13 -->
<g id="edge13_Node000009_Node000013" class="edge">
<title>Node9&#45;&gt;Node13</title>
<g id="a_edge13_Node000009_Node000013"><a xlink:title=" ">
<path fill="none" stroke="#63b8ff" d="M145.21,-109.75C141.69,-102.57 136.59,-92.18 132.22,-83.27"/>
<polygon fill="#63b8ff" stroke="#63b8ff" points="135.26,-81.53 127.71,-74.09 128.98,-84.61 135.26,-81.53"/>
</a>
</g>
</g>
<!-- Node14 -->
<g id="Node000014" class="node">
<title>Node14</title>
<g id="a_Node000014"><a xlink:title=" ">
<polygon fill="#e0e0e0" stroke="#999999" points="331,-19 284,-19 284,0 331,0 331,-19"/>
<text text-anchor="middle" x="307.5" y="-7" font-family="Helvetica,sans-Serif" font-size="10.00">vector</text>
</a>
</g>
</g>
<!-- Node9&#45;&gt;Node14 -->
<g id="edge14_Node000009_Node000014" class="edge">
<title>Node9&#45;&gt;Node14</title>
<g id="a_edge14_Node000009_Node000014"><a xlink:title=" ">
<path fill="none" stroke="#63b8ff" d="M154.11,-109.94C161.72,-96.53 178.11,-70.52 198.5,-55 221.17,-37.75 251.46,-26.09 274.36,-19.05"/>
<polygon fill="#63b8ff" stroke="#63b8ff" points="275.38,-22.4 283.99,-16.22 273.41,-15.68 275.38,-22.4"/>
</a>
</g>
</g>
<!-- Node16 -->
<g id="Node000016" class="node">
<title>Node16</title>
<g id="a_Node000016"><a xlink:title=" ">
<polygon fill="#e0e0e0" stroke="#999999" points="603.5,-184 571.5,-184 571.5,-165 603.5,-165 603.5,-184"/>
<text text-anchor="middle" x="587.5" y="-172" font-family="Helvetica,sans-Serif" font-size="10.00">set</text>
</a>
</g>
</g>
<!-- Node15&#45;&gt;Node16 -->
<g id="edge16_Node000015_Node000016" class="edge">
<title>Node15&#45;&gt;Node16</title>
<g id="a_edge16_Node000015_Node000016"><a xlink:title=" ">
<path fill="none" stroke="#63b8ff" d="M578.32,-219.75C579.76,-212.8 581.82,-202.85 583.63,-194.13"/>
<polygon fill="#63b8ff" stroke="#63b8ff" points="587.11,-194.59 585.72,-184.09 580.26,-193.17 587.11,-194.59"/>
</a>
</g>
</g>
<!-- Node17 -->
<g id="Node000017" class="node">
<title>Node17</title>
<g id="a_Node000017"><a xlink:title=" ">
<polygon fill="#e0e0e0" stroke="#999999" points="553,-184 460,-184 460,-165 553,-165 553,-184"/>
<text text-anchor="middle" x="506.5" y="-172" font-family="Helvetica,sans-Serif" font-size="10.00">unordered_map</text>
</a>
</g>
</g>
<!-- Node15&#45;&gt;Node17 -->
<g id="edge17_Node000015_Node000017" class="edge">
<title>Node15&#45;&gt;Node17</title>
<g id="a_edge17_Node000015_Node000017"><a xlink:title=" ">
<path fill="none" stroke="#63b8ff" d="M565.25,-219.98C554.7,-212 538.7,-199.88 526.06,-190.31"/>
<polygon fill="#63b8ff" stroke="#63b8ff" points="528.04,-187.42 517.95,-184.17 523.81,-193 528.04,-187.42"/>
</a>
</g>
</g>
<!-- Node18 -->
<g id="Node000018" class="node">
<title>Node18</title>
<g id="a_Node000018"><a xlink:href="group_8hpp.html" target="_top" xlink:title=" ">
<polygon fill="white" stroke="#666666" points="735,-184 622,-184 622,-165 735,-165 735,-184"/>
<text text-anchor="middle" x="678.5" y="-172" font-family="Helvetica,sans-Serif" font-size="10.00">../models/group.hpp</text>
</a>
</g>
</g>
<!-- Node15&#45;&gt;Node18 -->
<g id="edge18_Node000015_Node000018" class="edge">
<title>Node15&#45;&gt;Node18</title>
<g id="a_edge18_Node000015_Node000018"><a xlink:title=" ">
<path fill="none" stroke="#63b8ff" d="M592.89,-219.98C609.07,-211.57 634.07,-198.59 652.88,-188.81"/>
<polygon fill="#63b8ff" stroke="#63b8ff" points="654.55,-191.89 661.81,-184.17 651.33,-185.68 654.55,-191.89"/>
</a>
</g>
</g>
<!-- Node19 -->
<g id="Node000019" class="node">
<title>Node19</title>
<g id="a_Node000019"><a xlink:href="file_8hpp.html" target="_top" xlink:title=" ">
<polygon fill="white" stroke="#666666" points="696,-129 643,-129 643,-110 696,-110 696,-129"/>
<text text-anchor="middle" x="669.5" y="-117" font-family="Helvetica,sans-Serif" font-size="10.00">file.hpp</text>
</a>
</g>
</g>
<!-- Node18&#45;&gt;Node19 -->
<g id="edge19_Node000018_Node000019" class="edge">
<title>Node18&#45;&gt;Node19</title>
<g id="a_edge19_Node000018_Node000019"><a xlink:title=" ">
<path fill="none" stroke="#63b8ff" d="M677.01,-164.75C675.83,-157.8 674.14,-147.85 672.66,-139.13"/>
<polygon fill="#63b8ff" stroke="#63b8ff" points="676.08,-138.36 670.96,-129.09 669.18,-139.53 676.08,-138.36"/>
</a>
</g>
</g>
<!-- Node23 -->
<g id="Node000023" class="node">
<title>Node23</title>
<g id="a_Node000023"><a xlink:href="user_8hpp.html" target="_top" xlink:title=" ">
<polygon fill="white" stroke="#666666" points="488.5,-129 430.5,-129 430.5,-110 488.5,-110 488.5,-129"/>
<text text-anchor="middle" x="459.5" y="-117" font-family="Helvetica,sans-Serif" font-size="10.00">user.hpp</text>
</a>
</g>
</g>
<!-- Node18&#45;&gt;Node23 -->
<g id="edge28_Node000018_Node000023" class="edge">
<title>Node18&#45;&gt;Node23</title>
<g id="a_edge28_Node000018_Node000023"><a xlink:title=" ">
<path fill="none" stroke="#63b8ff" d="M643.31,-164.98C603.74,-155.41 539.66,-139.9 498.57,-129.95"/>
<polygon fill="#63b8ff" stroke="#63b8ff" points="499.19,-126.5 488.64,-127.55 497.54,-133.31 499.19,-126.5"/>
</a>
</g>
</g>
<!-- Node19&#45;&gt;Node5 -->
<g id="edge22_Node000019_Node000005" class="edge">
<title>Node19&#45;&gt;Node5</title>
<g id="a_edge22_Node000019_Node000005"><a xlink:title=" ">
<path fill="none" stroke="#63b8ff" d="M650.54,-109.98C631.47,-101.42 601.84,-88.11 579.95,-78.28"/>
<polygon fill="#63b8ff" stroke="#63b8ff" points="581.36,-75.07 570.8,-74.17 578.49,-81.46 581.36,-75.07"/>
</a>
</g>
</g>
<!-- Node19&#45;&gt;Node10 -->
<g id="edge20_Node000019_Node000010" class="edge">
<title>Node19&#45;&gt;Node10</title>
<g id="a_edge20_Node000019_Node000010"><a xlink:title=" ">
<path fill="none" stroke="#63b8ff" d="M642.92,-113.22C595.71,-103.85 497.01,-84.26 441.88,-73.32"/>
<polygon fill="#63b8ff" stroke="#63b8ff" points="442.28,-69.83 431.79,-71.31 440.92,-76.69 442.28,-69.83"/>
</a>
</g>
</g>
<!-- Node20 -->
<g id="Node000020" class="node">
<title>Node20</title>
<g id="a_Node000020"><a xlink:title=" ">
<polygon fill="#e0e0e0" stroke="#999999" points="809.5,-74 723.5,-74 723.5,-55 809.5,-55 809.5,-74"/>
<text text-anchor="middle" x="766.5" y="-62" font-family="Helvetica,sans-Serif" font-size="10.00">unordered_set</text>
</a>
</g>
</g>
<!-- Node19&#45;&gt;Node20 -->
<g id="edge21_Node000019_Node000020" class="edge">
<title>Node19&#45;&gt;Node20</title>
<g id="a_edge21_Node000019_Node000020"><a xlink:title=" ">
<path fill="none" stroke="#63b8ff" d="M685.08,-109.98C700.27,-101.69 723.6,-88.94 741.4,-79.22"/>
<polygon fill="#63b8ff" stroke="#63b8ff" points="743.53,-82.04 750.63,-74.17 740.18,-75.89 743.53,-82.04"/>
</a>
</g>
</g>
<!-- Node21 -->
<g id="Node000021" class="node">
<title>Node21</title>
<g id="a_Node000021"><a xlink:href="fileinfo_8hpp.html" target="_top" xlink:title=" ">
<polygon fill="white" stroke="#666666" points="705,-74 634,-74 634,-55 705,-55 705,-74"/>
<text text-anchor="middle" x="669.5" y="-62" font-family="Helvetica,sans-Serif" font-size="10.00">fileinfo.hpp</text>
</a>
</g>
</g>
<!-- Node19&#45;&gt;Node21 -->
<g id="edge23_Node000019_Node000021" class="edge">
<title>Node19&#45;&gt;Node21</title>
<g id="a_edge23_Node000019_Node000021"><a xlink:title=" ">
<path fill="none" stroke="#63b8ff" d="M669.5,-109.75C669.5,-102.8 669.5,-92.85 669.5,-84.13"/>
<polygon fill="#63b8ff" stroke="#63b8ff" points="673,-84.09 669.5,-74.09 666,-84.09 673,-84.09"/>
</a>
</g>
</g>
<!-- Node21&#45;&gt;Node7 -->
<g id="edge25_Node000021_Node000007" class="edge">
<title>Node21&#45;&gt;Node7</title>
<g id="a_edge25_Node000021_Node000007"><a xlink:title=" ">
<path fill="none" stroke="#63b8ff" d="M666.03,-54.75C663.22,-47.65 659.16,-37.4 655.65,-28.56"/>
<polygon fill="#63b8ff" stroke="#63b8ff" points="658.84,-27.1 651.9,-19.09 652.33,-29.68 658.84,-27.1"/>
</a>
</g>
</g>
<!-- Node21&#45;&gt;Node8 -->
<g id="edge26_Node000021_Node000008" class="edge">
<title>Node21&#45;&gt;Node8</title>
<g id="a_edge26_Node000021_Node000008"><a xlink:title=" ">
<path fill="none" stroke="#63b8ff" d="M637.85,-54.98C601.16,-45.12 541.06,-28.94 504.3,-19.06"/>
<polygon fill="#63b8ff" stroke="#63b8ff" points="505.16,-15.66 494.6,-16.45 503.35,-22.42 505.16,-15.66"/>
</a>
</g>
</g>
<!-- Node21&#45;&gt;Node14 -->
<g id="edge27_Node000021_Node000014" class="edge">
<title>Node21&#45;&gt;Node14</title>
<g id="a_edge27_Node000021_Node000014"><a xlink:title=" ">
<path fill="none" stroke="#63b8ff" d="M633.67,-56.57C630.57,-56.02 627.48,-55.49 624.5,-55 521.51,-38.05 399.02,-22.02 341.07,-14.68"/>
<polygon fill="#63b8ff" stroke="#63b8ff" points="341.38,-11.19 331.02,-13.42 340.5,-18.14 341.38,-11.19"/>
</a>
</g>
</g>
<!-- Node21&#45;&gt;Node22 -->
<g id="edge24_Node000021_Node000022" class="edge">
<title>Node21&#45;&gt;Node22</title>
<g id="a_edge24_Node000021_Node000022"><a xlink:title=" ">
<path fill="none" stroke="#63b8ff" d="M687.66,-54.98C705.75,-46.5 733.78,-33.35 754.69,-23.54"/>
<polygon fill="#63b8ff" stroke="#63b8ff" points="756.45,-26.59 764.01,-19.17 753.47,-20.25 756.45,-26.59"/>
</a>
</g>
</g>
<!-- Node23&#45;&gt;Node8 -->
<g id="edge29_Node000023_Node000008" class="edge">
<title>Node23&#45;&gt;Node8</title>
<g id="a_edge29_Node000023_Node000008"><a xlink:title=" ">
<path fill="none" stroke="#63b8ff" d="M460.56,-109.66C462.67,-92.17 467.41,-52.8 470.24,-29.27"/>
<polygon fill="#63b8ff" stroke="#63b8ff" points="473.74,-29.51 471.46,-19.16 466.79,-28.67 473.74,-29.51"/>
</a>
</g>
</g>
<!-- Node24&#45;&gt;Node10 -->
<g id="edge31_Node000024_Node000010" class="edge">
<title>Node24&#45;&gt;Node10</title>
<g id="a_edge31_Node000024_Node000010"><a xlink:title=" ">
<path fill="none" stroke="#63b8ff" d="M466.77,-219.83C461.04,-211.01 452.16,-196.84 445.5,-184 433.22,-160.32 430.67,-154.04 421.5,-129 416.05,-114.12 410.97,-96.88 407.43,-84.12"/>
<polygon fill="#63b8ff" stroke="#63b8ff" points="410.75,-82.97 404.75,-74.24 403.99,-84.8 410.75,-82.97"/>
</a>
</g>
</g>
<!-- Node24&#45;&gt;Node14 -->
<g id="edge34_Node000024_Node000014" class="edge">
<title>Node24&#45;&gt;Node14</title>
<g id="a_edge34_Node000024_Node000014"><a xlink:title=" ">
<path fill="none" stroke="#63b8ff" d="M464.24,-219.88C455.95,-211.09 442.93,-196.94 432.5,-184 387.96,-128.72 340.22,-59.22 318.91,-27.59"/>
<polygon fill="#63b8ff" stroke="#63b8ff" points="321.65,-25.4 313.17,-19.04 315.84,-29.3 321.65,-25.4"/>
</a>
</g>
</g>
<!-- Node24&#45;&gt;Node16 -->
<g id="edge32_Node000024_Node000016" class="edge">
<title>Node24&#45;&gt;Node16</title>
<g id="a_edge32_Node000024_Node000016"><a xlink:title=" ">
<path fill="none" stroke="#63b8ff" d="M490.98,-219.98C510.25,-211.1 540.59,-197.12 562.11,-187.2"/>
<polygon fill="#63b8ff" stroke="#63b8ff" points="563.68,-190.33 571.3,-182.97 560.75,-183.97 563.68,-190.33"/>
</a>
</g>
</g>
<!-- Node24&#45;&gt;Node17 -->
<g id="edge33_Node000024_Node000017" class="edge">
<title>Node24&#45;&gt;Node17</title>
<g id="a_edge33_Node000024_Node000017"><a xlink:title=" ">
<path fill="none" stroke="#63b8ff" d="M478.11,-219.75C482.82,-212.42 489.67,-201.73 495.47,-192.7"/>
<polygon fill="#63b8ff" stroke="#63b8ff" points="498.54,-194.4 500.99,-184.09 492.64,-190.62 498.54,-194.4"/>
</a>
</g>
</g>
<!-- Node24&#45;&gt;Node23 -->
<g id="edge35_Node000024_Node000023" class="edge">
<title>Node24&#45;&gt;Node23</title>
<g id="a_edge35_Node000024_Node000023"><a xlink:title=" ">
<path fill="none" stroke="#63b8ff" d="M466.66,-219.76C461.25,-211.1 453.6,-197.26 450.5,-184 447.01,-169.07 449.88,-151.84 453.27,-139.09"/>
<polygon fill="#63b8ff" stroke="#63b8ff" points="456.71,-139.8 456.25,-129.22 450.01,-137.78 456.71,-139.8"/>
</a>
</g>
</g>
<!-- Node25&#45;&gt;Node3 -->
<g id="edge37_Node000025_Node000003" class="edge">
<title>Node25&#45;&gt;Node3</title>
<g id="a_edge37_Node000025_Node000003"><a xlink:title=" ">
<path fill="none" stroke="#63b8ff" d="M219.5,-219.75C219.5,-212.8 219.5,-202.85 219.5,-194.13"/>
<polygon fill="#63b8ff" stroke="#63b8ff" points="223,-194.09 219.5,-184.09 216,-194.09 223,-194.09"/>
</a>
</g>
</g>
</g>
</svg>
