<?xml version="1.0" encoding="UTF-8" standalone="no"?>
<!DOCTYPE svg PUBLIC "-//W3C//DTD SVG 1.1//EN"
 "http://www.w3.org/Graphics/SVG/1.1/DTD/svg11.dtd">
<!-- Generated by graphviz version 2.43.0 (0)
 -->
<!-- Title: src/tracker/transactionsrecord.hpp Pages: 1 -->
<svg width="606pt" height="192pt"
 viewBox="0.00 0.00 605.50 192.00" xmlns="http://www.w3.org/2000/svg" xmlns:xlink="http://www.w3.org/1999/xlink">
<g id="graph0" class="graph" transform="scale(1 1) rotate(0) translate(4 188)">
<title>src/tracker/transactionsrecord.hpp</title>
<!-- Node1 -->
<g id="Node000001" class="node">
<title>Node1</title>
<g id="a_Node000001"><a xlink:title=" ">
<polygon fill="#999999" stroke="#666666" points="191,-184 9,-184 9,-165 191,-165 191,-184"/>
<text text-anchor="middle" x="100" y="-172" font-family="Helvetica,sans-Serif" font-size="10.00">src/tracker/transactionsrecord.hpp</text>
</a>
</g>
</g>
<!-- Node2 -->
<g id="Node000002" class="node">
<title>Node2</title>
<g id="a_Node000002"><a xlink:title=" ">
<polygon fill="#e0e0e0" stroke="#999999" points="58,-19 0,-19 0,0 58,0 58,-19"/>
<text text-anchor="middle" x="29" y="-7" font-family="Helvetica,sans-Serif" font-size="10.00">memory</text>
</a>
</g>
</g>
<!-- Node1&#45;&gt;Node2 -->
<g id="edge1_Node000001_Node000002" class="edge">
<title>Node1&#45;&gt;Node2</title>
<g id="a_edge1_Node000001_Node000002"><a xlink:title=" ">
<path fill="none" stroke="#63b8ff" d="M96.18,-164.74C85.01,-139.09 52.21,-63.78 36.96,-28.78"/>
<polygon fill="#63b8ff" stroke="#63b8ff" points="40.04,-27.08 32.84,-19.31 33.62,-29.87 40.04,-27.08"/>
</a>
</g>
</g>
<!-- Node3 -->
<g id="Node000003" class="node">
<title>Node3</title>
<g id="a_Node000003"><a xlink:title=" ">
<polygon fill="#e0e0e0" stroke="#999999" points="123.5,-19 76.5,-19 76.5,0 123.5,0 123.5,-19"/>
<text text-anchor="middle" x="100" y="-7" font-family="Helvetica,sans-Serif" font-size="10.00">vector</text>
</a>
</g>
</g>
<!-- Node1&#45;&gt;Node3 -->
<g id="edge2_Node000001_Node000003" class="edge">
<title>Node1&#45;&gt;Node3</title>
<g id="a_edge2_Node000001_Node000003"><a xlink:title=" ">
<path fill="none" stroke="#63b8ff" d="M100,-164.74C100,-139.31 100,-65.08 100,-29.69"/>
<polygon fill="#63b8ff" stroke="#63b8ff" points="103.5,-29.31 100,-19.31 96.5,-29.31 103.5,-29.31"/>
</a>
</g>
</g>
<!-- Node4 -->
<g id="Node000004" class="node">
<title>Node4</title>
<g id="a_Node000004"><a xlink:href="transaction_8hpp.html" target="_top" xlink:title=" ">
<polygon fill="white" stroke="#666666" points="396,-129 256,-129 256,-110 396,-110 396,-129"/>
<text text-anchor="middle" x="326" y="-117" font-family="Helvetica,sans-Serif" font-size="10.00">../models/transaction.hpp</text>
</a>
</g>
</g>
<!-- Node1&#45;&gt;Node4 -->
<g id="edge3_Node000001_Node000004" class="edge">
<title>Node1&#45;&gt;Node4</title>
<g id="a_edge3_Node000001_Node000004"><a xlink:title=" ">
<path fill="none" stroke="#63b8ff" d="M136.31,-164.98C175.24,-155.86 237.16,-141.33 279.6,-131.38"/>
<polygon fill="#63b8ff" stroke="#63b8ff" points="280.47,-134.77 289.4,-129.08 278.87,-127.96 280.47,-134.77"/>
</a>
</g>
</g>
<!-- Node5 -->
<g id="Node000005" class="node">
<title>Node5</title>
<g id="a_Node000005"><a xlink:title=" ">
<polygon fill="#e0e0e0" stroke="#999999" points="597.5,-19 532.5,-19 532.5,0 597.5,0 597.5,-19"/>
<text text-anchor="middle" x="565" y="-7" font-family="Helvetica,sans-Serif" font-size="10.00">stdexcept</text>
</a>
</g>
</g>
<!-- Node4&#45;&gt;Node5 -->
<g id="edge4_Node000004_Node000005" class="edge">
<title>Node4&#45;&gt;Node5</title>
<g id="a_edge4_Node000004_Node000005"><a xlink:title=" ">
<path fill="none" stroke="#63b8ff" d="M396.04,-111.83C451.22,-105.21 522.34,-93.24 544,-74 556.6,-62.8 561.67,-43.88 563.69,-29.6"/>
<polygon fill="#63b8ff" stroke="#63b8ff" points="567.2,-29.68 564.74,-19.38 560.23,-28.96 567.2,-29.68"/>
</a>
</g>
</g>
<!-- Node6 -->
<g id="Node000006" class="node">
<title>Node6</title>
<g id="a_Node000006"><a xlink:title=" ">
<polygon fill="#e0e0e0" stroke="#999999" points="446,-19 402,-19 402,0 446,0 446,-19"/>
<text text-anchor="middle" x="424" y="-7" font-family="Helvetica,sans-Serif" font-size="10.00">string</text>
</a>
</g>
</g>
<!-- Node4&#45;&gt;Node6 -->
<g id="edge5_Node000004_Node000006" class="edge">
<title>Node4&#45;&gt;Node6</title>
<g id="a_edge5_Node000004_Node000006"><a xlink:title=" ">
<path fill="none" stroke="#63b8ff" d="M334.02,-109.66C350.47,-91.54 388.24,-49.91 409.24,-26.77"/>
<polygon fill="#63b8ff" stroke="#63b8ff" points="412.02,-28.92 416.14,-19.16 406.83,-24.21 412.02,-28.92"/>
</a>
</g>
</g>
<!-- Node7 -->
<g id="Node000007" class="node">
<title>Node7</title>
<g id="a_Node000007"><a xlink:title=" ">
<polygon fill="#e0e0e0" stroke="#999999" points="186.5,-74 135.5,-74 135.5,-55 186.5,-55 186.5,-74"/>
<text text-anchor="middle" x="161" y="-62" font-family="Helvetica,sans-Serif" font-size="10.00">variant</text>
</a>
</g>
</g>
<!-- Node4&#45;&gt;Node7 -->
<g id="edge6_Node000004_Node000007" class="edge">
<title>Node4&#45;&gt;Node7</title>
<g id="a_edge6_Node000004_Node000007"><a xlink:title=" ">
<path fill="none" stroke="#63b8ff" d="M299.49,-109.98C271.46,-100.98 227.1,-86.73 196.16,-76.8"/>
<polygon fill="#63b8ff" stroke="#63b8ff" points="197.22,-73.46 186.63,-73.73 195.08,-80.12 197.22,-73.46"/>
</a>
</g>
</g>
<!-- Node8 -->
<g id="Node000008" class="node">
<title>Node8</title>
<g id="a_Node000008"><a xlink:href="endpoint_8hpp.html" target="_top" xlink:title=" ">
<polygon fill="white" stroke="#666666" points="535,-74 407,-74 407,-55 535,-55 535,-74"/>
<text text-anchor="middle" x="471" y="-62" font-family="Helvetica,sans-Serif" font-size="10.00">../models/endpoint.hpp</text>
</a>
</g>
</g>
<!-- Node4&#45;&gt;Node8 -->
<g id="edge7_Node000004_Node000008" class="edge">
<title>Node4&#45;&gt;Node8</title>
<g id="a_edge7_Node000004_Node000008"><a xlink:title=" ">
<path fill="none" stroke="#63b8ff" d="M349.3,-109.98C373.25,-101.23 410.78,-87.51 437.83,-77.62"/>
<polygon fill="#63b8ff" stroke="#63b8ff" points="439.09,-80.89 447.28,-74.17 436.69,-74.32 439.09,-80.89"/>
</a>
</g>
</g>
<!-- Node10 -->
<g id="Node000010" class="node">
<title>Node10</title>
<g id="a_Node000010"><a xlink:href="tcp__socket_8hpp.html" target="_top" xlink:title=" ">
<polygon fill="white" stroke="#666666" points="345.5,-74 204.5,-74 204.5,-55 345.5,-55 345.5,-74"/>
<text text-anchor="middle" x="275" y="-62" font-family="Helvetica,sans-Serif" font-size="10.00">../network/tcp_socket.hpp</text>
</a>
</g>
</g>
<!-- Node4&#45;&gt;Node10 -->
<g id="edge11_Node000004_Node000010" class="edge">
<title>Node4&#45;&gt;Node10</title>
<g id="a_edge11_Node000004_Node000010"><a xlink:title=" ">
<path fill="none" stroke="#63b8ff" d="M317.58,-109.75C310.23,-102.11 299.37,-90.82 290.46,-81.56"/>
<polygon fill="#63b8ff" stroke="#63b8ff" points="292.72,-78.87 283.26,-74.09 287.68,-83.72 292.72,-78.87"/>
</a>
</g>
</g>
<!-- Node8&#45;&gt;Node5 -->
<g id="edge9_Node000008_Node000005" class="edge">
<title>Node8&#45;&gt;Node5</title>
<g id="a_edge9_Node000008_Node000005"><a xlink:title=" ">
<path fill="none" stroke="#63b8ff" d="M486.1,-54.98C500.82,-46.69 523.42,-33.94 540.67,-24.22"/>
<polygon fill="#63b8ff" stroke="#63b8ff" points="542.63,-27.13 549.62,-19.17 539.19,-21.03 542.63,-27.13"/>
</a>
</g>
</g>
<!-- Node8&#45;&gt;Node6 -->
<g id="edge10_Node000008_Node000006" class="edge">
<title>Node8&#45;&gt;Node6</title>
<g id="a_edge10_Node000008_Node000006"><a xlink:title=" ">
<path fill="none" stroke="#63b8ff" d="M463.24,-54.75C456.53,-47.18 446.66,-36.05 438.49,-26.84"/>
<polygon fill="#63b8ff" stroke="#63b8ff" points="440.87,-24.25 431.62,-19.09 435.63,-28.89 440.87,-24.25"/>
</a>
</g>
</g>
<!-- Node9 -->
<g id="Node000009" class="node">
<title>Node9</title>
<g id="a_Node000009"><a xlink:title=" ">
<polygon fill="#e0e0e0" stroke="#999999" points="514,-19 464,-19 464,0 514,0 514,-19"/>
<text text-anchor="middle" x="489" y="-7" font-family="Helvetica,sans-Serif" font-size="10.00">cstdint</text>
</a>
</g>
</g>
<!-- Node8&#45;&gt;Node9 -->
<g id="edge8_Node000008_Node000009" class="edge">
<title>Node8&#45;&gt;Node9</title>
<g id="a_edge8_Node000008_Node000009"><a xlink:title=" ">
<path fill="none" stroke="#63b8ff" d="M473.97,-54.75C476.36,-47.72 479.79,-37.62 482.77,-28.84"/>
<polygon fill="#63b8ff" stroke="#63b8ff" points="486.18,-29.68 486.08,-19.09 479.55,-27.43 486.18,-29.68"/>
</a>
</g>
</g>
<!-- Node10&#45;&gt;Node2 -->
<g id="edge12_Node000010_Node000002" class="edge">
<title>Node10&#45;&gt;Node2</title>
<g id="a_edge12_Node000010_Node000002"><a xlink:title=" ">
<path fill="none" stroke="#63b8ff" d="M234.71,-55C194.84,-46.56 131.79,-33.14 67.89,-19.18"/>
<polygon fill="#63b8ff" stroke="#63b8ff" points="68.56,-15.74 58.04,-17.02 67.06,-22.58 68.56,-15.74"/>
</a>
</g>
</g>
<!-- Node10&#45;&gt;Node3 -->
<g id="edge17_Node000010_Node000003" class="edge">
<title>Node10&#45;&gt;Node3</title>
<g id="a_edge17_Node000010_Node000003"><a xlink:title=" ">
<path fill="none" stroke="#63b8ff" d="M246.88,-54.98C215.89,-45.6 166.07,-30.51 133.18,-20.55"/>
<polygon fill="#63b8ff" stroke="#63b8ff" points="134.14,-17.18 123.56,-17.63 132.11,-23.88 134.14,-17.18"/>
</a>
</g>
</g>
<!-- Node10&#45;&gt;Node6 -->
<g id="edge14_Node000010_Node000006" class="edge">
<title>Node10&#45;&gt;Node6</title>
<g id="a_edge14_Node000010_Node000006"><a xlink:title=" ">
<path fill="none" stroke="#63b8ff" d="M298.94,-54.98C324.14,-46.02 363.96,-31.86 391.88,-21.92"/>
<polygon fill="#63b8ff" stroke="#63b8ff" points="393.33,-25.12 401.58,-18.47 390.99,-18.53 393.33,-25.12"/>
</a>
</g>
</g>
<!-- Node11 -->
<g id="Node000011" class="node">
<title>Node11</title>
<g id="a_Node000011"><a xlink:title=" ">
<polygon fill="#e0e0e0" stroke="#999999" points="288,-19 216,-19 216,0 288,0 288,-19"/>
<text text-anchor="middle" x="252" y="-7" font-family="Helvetica,sans-Serif" font-size="10.00">netinet/in.h</text>
</a>
</g>
</g>
<!-- Node10&#45;&gt;Node11 -->
<g id="edge13_Node000010_Node000011" class="edge">
<title>Node10&#45;&gt;Node11</title>
<g id="a_edge13_Node000010_Node000011"><a xlink:title=" ">
<path fill="none" stroke="#63b8ff" d="M271.2,-54.75C268.09,-47.57 263.58,-37.18 259.71,-28.27"/>
<polygon fill="#63b8ff" stroke="#63b8ff" points="262.92,-26.87 255.73,-19.09 256.5,-29.66 262.92,-26.87"/>
</a>
</g>
</g>
<!-- Node12 -->
<g id="Node000012" class="node">
<title>Node12</title>
<g id="a_Node000012"><a xlink:title=" ">
<polygon fill="#e0e0e0" stroke="#999999" points="383.5,-19 306.5,-19 306.5,0 383.5,0 383.5,-19"/>
<text text-anchor="middle" x="345" y="-7" font-family="Helvetica,sans-Serif" font-size="10.00">sys/socket.h</text>
</a>
</g>
</g>
<!-- Node10&#45;&gt;Node12 -->
<g id="edge15_Node000010_Node000012" class="edge">
<title>Node10&#45;&gt;Node12</title>
<g id="a_edge15_Node000010_Node000012"><a xlink:title=" ">
<path fill="none" stroke="#63b8ff" d="M286.25,-54.98C296.8,-47 312.8,-34.88 325.44,-25.31"/>
<polygon fill="#63b8ff" stroke="#63b8ff" points="327.69,-28 333.55,-19.17 323.46,-22.42 327.69,-28"/>
</a>
</g>
</g>
<!-- Node13 -->
<g id="Node000013" class="node">
<title>Node13</title>
<g id="a_Node000013"><a xlink:title=" ">
<polygon fill="#e0e0e0" stroke="#999999" points="198,-19 142,-19 142,0 198,0 198,-19"/>
<text text-anchor="middle" x="170" y="-7" font-family="Helvetica,sans-Serif" font-size="10.00">unistd.h</text>
</a>
</g>
</g>
<!-- Node10&#45;&gt;Node13 -->
<g id="edge16_Node000010_Node000013" class="edge">
<title>Node10&#45;&gt;Node13</title>
<g id="a_edge16_Node000010_Node000013"><a xlink:title=" ">
<path fill="none" stroke="#63b8ff" d="M258.13,-54.98C241.39,-46.54 215.5,-33.47 196.11,-23.68"/>
<polygon fill="#63b8ff" stroke="#63b8ff" points="197.68,-20.55 187.18,-19.17 194.53,-26.8 197.68,-20.55"/>
</a>
</g>
</g>
</g>
</svg>
