<?xml version="1.0" encoding="UTF-8" standalone="no"?>
<!DOCTYPE svg PUBLIC "-//W3C//DTD SVG 1.1//EN"
 "http://www.w3.org/Graphics/SVG/1.1/DTD/svg11.dtd">
<!-- Generated by graphviz version 2.43.0 (0)
 -->
<!-- Title: src/models/transaction.hpp Pages: 1 -->
<svg width="636pt" height="159pt"
 viewBox="0.00 0.00 636.00 159.00" xmlns="http://www.w3.org/2000/svg" xmlns:xlink="http://www.w3.org/1999/xlink">
<g id="graph0" class="graph" transform="scale(1 1) rotate(0) translate(4 155)">
<title>src/models/transaction.hpp</title>
<!-- Node1 -->
<g id="Node000001" class="node">
<title>Node1</title>
<g id="a_Node000001"><a xlink:title=" ">
<polygon fill="#999999" stroke="#666666" points="314.5,-151 165.5,-151 165.5,-132 314.5,-132 314.5,-151"/>
<text text-anchor="middle" x="240" y="-139" font-family="Helvetica,sans-Serif" font-size="10.00">src/models/transaction.hpp</text>
</a>
</g>
</g>
<!-- Node2 -->
<g id="Node000002" class="node">
<title>Node2</title>
<g id="a_Node000002"><a xlink:href="parse__request_8hpp.html" target="_top" xlink:title=" ">
<polygon fill="white" stroke="#666666" points="167.5,-90.5 6.5,-90.5 6.5,-71.5 167.5,-71.5 167.5,-90.5"/>
<text text-anchor="middle" x="87" y="-78.5" font-family="Helvetica,sans-Serif" font-size="10.00">src/tracker/parse_request.hpp</text>
</a>
</g>
</g>
<!-- Node1&#45;&gt;Node2 -->
<g id="edge1_Node000001_Node000002" class="edge">
<title>Node1&#45;&gt;Node2</title>
<g id="a_edge1_Node000001_Node000002"><a xlink:title=" ">
<path fill="none" stroke="#63b8ff" d="M208.3,-128.38C178.72,-117.07 135.35,-100.49 109.27,-90.52"/>
<polygon fill="#63b8ff" stroke="#63b8ff" points="207.16,-131.69 217.75,-131.99 209.66,-125.15 207.16,-131.69"/>
</a>
</g>
</g>
<!-- Node5 -->
<g id="Node000005" class="node">
<title>Node5</title>
<g id="a_Node000005"><a xlink:href="process__request_8hpp.html" target="_top" xlink:title=" ">
<polygon fill="white" stroke="#666666" points="294,-96 186,-96 186,-66 294,-66 294,-96"/>
<text text-anchor="start" x="194" y="-84" font-family="Helvetica,sans-Serif" font-size="10.00">src/tracker/process</text>
<text text-anchor="middle" x="240" y="-73" font-family="Helvetica,sans-Serif" font-size="10.00">_request.hpp</text>
</a>
</g>
</g>
<!-- Node1&#45;&gt;Node5 -->
<g id="edge4_Node000001_Node000005" class="edge">
<title>Node1&#45;&gt;Node5</title>
<g id="a_edge4_Node000001_Node000005"><a xlink:title=" ">
<path fill="none" stroke="#63b8ff" d="M240,-121.65C240,-113.36 240,-103.78 240,-96.11"/>
<polygon fill="#63b8ff" stroke="#63b8ff" points="236.5,-121.87 240,-131.87 243.5,-121.87 236.5,-121.87"/>
</a>
</g>
</g>
<!-- Node7 -->
<g id="Node000007" class="node">
<title>Node7</title>
<g id="a_Node000007"><a xlink:href="transactionsrecord_8hpp.html" target="_top" xlink:title=" ">
<polygon fill="white" stroke="#666666" points="494,-90.5 312,-90.5 312,-71.5 494,-71.5 494,-90.5"/>
<text text-anchor="middle" x="403" y="-78.5" font-family="Helvetica,sans-Serif" font-size="10.00">src/tracker/transactionsrecord.hpp</text>
</a>
</g>
</g>
<!-- Node1&#45;&gt;Node7 -->
<g id="edge7_Node000001_Node000007" class="edge">
<title>Node1&#45;&gt;Node7</title>
<g id="a_edge7_Node000001_Node000007"><a xlink:title=" ">
<path fill="none" stroke="#63b8ff" d="M273.37,-128.52C304.88,-117.21 351.37,-100.53 379.27,-90.52"/>
<polygon fill="#63b8ff" stroke="#63b8ff" points="271.93,-125.32 263.7,-131.99 274.3,-131.91 271.93,-125.32"/>
</a>
</g>
</g>
<!-- Node3 -->
<g id="Node000003" class="node">
<title>Node3</title>
<g id="a_Node000003"><a xlink:href="parse__request_8cpp.html" target="_top" xlink:title=" ">
<polygon fill="white" stroke="#666666" points="160,-24.5 0,-24.5 0,-5.5 160,-5.5 160,-24.5"/>
<text text-anchor="middle" x="80" y="-12.5" font-family="Helvetica,sans-Serif" font-size="10.00">src/tracker/parse_request.cpp</text>
</a>
</g>
</g>
<!-- Node2&#45;&gt;Node3 -->
<g id="edge2_Node000002_Node000003" class="edge">
<title>Node2&#45;&gt;Node3</title>
<g id="a_edge2_Node000002_Node000003"><a xlink:title=" ">
<path fill="none" stroke="#63b8ff" d="M84.93,-61.08C83.62,-49.13 81.99,-34.22 80.97,-24.91"/>
<polygon fill="#63b8ff" stroke="#63b8ff" points="81.49,-61.81 86.06,-71.37 88.45,-61.05 81.49,-61.81"/>
</a>
</g>
</g>
<!-- Node4 -->
<g id="Node000004" class="node">
<title>Node4</title>
<g id="a_Node000004"><a xlink:href="tracker_8cpp.html" target="_top" xlink:title="The tracker.">
<polygon fill="white" stroke="#666666" points="302,-24.5 178,-24.5 178,-5.5 302,-5.5 302,-24.5"/>
<text text-anchor="middle" x="240" y="-12.5" font-family="Helvetica,sans-Serif" font-size="10.00">src/tracker/tracker.cpp</text>
</a>
</g>
</g>
<!-- Node2&#45;&gt;Node4 -->
<g id="edge3_Node000002_Node000004" class="edge">
<title>Node2&#45;&gt;Node4</title>
<g id="a_edge3_Node000002_Node000004"><a xlink:title=" ">
<path fill="none" stroke="#63b8ff" d="M117.22,-67.36C147.37,-54.75 192.89,-35.71 219.2,-24.7"/>
<polygon fill="#63b8ff" stroke="#63b8ff" points="115.51,-64.28 107.63,-71.37 118.21,-70.74 115.51,-64.28"/>
</a>
</g>
</g>
<!-- Node5&#45;&gt;Node4 -->
<g id="edge6_Node000005_Node000004" class="edge">
<title>Node5&#45;&gt;Node4</title>
<g id="a_edge6_Node000005_Node000004"><a xlink:title=" ">
<path fill="none" stroke="#63b8ff" d="M240,-55.6C240,-44.8 240,-32.78 240,-24.84"/>
<polygon fill="#63b8ff" stroke="#63b8ff" points="236.5,-55.8 240,-65.8 243.5,-55.8 236.5,-55.8"/>
</a>
</g>
</g>
<!-- Node6 -->
<g id="Node000006" class="node">
<title>Node6</title>
<g id="a_Node000006"><a xlink:href="process__request_8cpp.html" target="_top" xlink:title=" ">
<polygon fill="white" stroke="#666666" points="428,-30 320,-30 320,0 428,0 428,-30"/>
<text text-anchor="start" x="328" y="-18" font-family="Helvetica,sans-Serif" font-size="10.00">src/tracker/process</text>
<text text-anchor="middle" x="374" y="-7" font-family="Helvetica,sans-Serif" font-size="10.00">_request.cpp</text>
</a>
</g>
</g>
<!-- Node5&#45;&gt;Node6 -->
<g id="edge5_Node000005_Node000006" class="edge">
<title>Node5&#45;&gt;Node6</title>
<g id="a_edge5_Node000005_Node000006"><a xlink:title=" ">
<path fill="none" stroke="#63b8ff" d="M278.71,-61.51C299.73,-51.47 325.3,-39.26 344.66,-30.01"/>
<polygon fill="#63b8ff" stroke="#63b8ff" points="276.92,-58.49 269.41,-65.95 279.94,-64.8 276.92,-58.49"/>
</a>
</g>
</g>
<!-- Node7&#45;&gt;Node4 -->
<g id="edge9_Node000007_Node000004" class="edge">
<title>Node7&#45;&gt;Node4</title>
<g id="a_edge9_Node000007_Node000004"><a xlink:title=" ">
<path fill="none" stroke="#63b8ff" d="M371.61,-67.68C339.4,-55.03 290.12,-35.68 261.89,-24.6"/>
<polygon fill="#63b8ff" stroke="#63b8ff" points="370.43,-70.97 381.02,-71.37 372.99,-64.46 370.43,-70.97"/>
</a>
</g>
</g>
<!-- Node7&#45;&gt;Node6 -->
<g id="edge8_Node000007_Node000006" class="edge">
<title>Node7&#45;&gt;Node6</title>
<g id="a_edge8_Node000007_Node000006"><a xlink:title=" ">
<path fill="none" stroke="#63b8ff" d="M394.84,-61.98C390.3,-51.98 384.74,-39.71 380.51,-30.36"/>
<polygon fill="#63b8ff" stroke="#63b8ff" points="391.77,-63.7 399.09,-71.37 398.15,-60.82 391.77,-63.7"/>
</a>
</g>
</g>
<!-- Node8 -->
<g id="Node000008" class="node">
<title>Node8</title>
<g id="a_Node000008"><a xlink:href="transactionsrecord_8cpp.html" target="_top" xlink:title=" ">
<polygon fill="white" stroke="#666666" points="628,-24.5 446,-24.5 446,-5.5 628,-5.5 628,-24.5"/>
<text text-anchor="middle" x="537" y="-12.5" font-family="Helvetica,sans-Serif" font-size="10.00">src/tracker/transactionsrecord.cpp</text>
</a>
</g>
</g>
<!-- Node7&#45;&gt;Node8 -->
<g id="edge10_Node000007_Node000008" class="edge">
<title>Node7&#45;&gt;Node8</title>
<g id="a_edge10_Node000007_Node000008"><a xlink:title=" ">
<path fill="none" stroke="#63b8ff" d="M430.16,-67.03C456.57,-54.42 495.94,-35.61 518.79,-24.7"/>
<polygon fill="#63b8ff" stroke="#63b8ff" points="428.59,-63.9 421.07,-71.37 431.6,-70.22 428.59,-63.9"/>
</a>
</g>
</g>
</g>
</svg>
