<?xml version="1.0" encoding="UTF-8" standalone="no"?>
<!DOCTYPE svg PUBLIC "-//W3C//DTD SVG 1.1//EN"
 "http://www.w3.org/Graphics/SVG/1.1/DTD/svg11.dtd">
<!-- Generated by graphviz version 2.43.0 (0)
 -->
<!-- Title: src/models/user.hpp Pages: 1 -->
<svg width="364pt" height="203pt"
 viewBox="0.00 0.00 363.50 203.00" xmlns="http://www.w3.org/2000/svg" xmlns:xlink="http://www.w3.org/1999/xlink">
<g id="graph0" class="graph" transform="scale(1 1) rotate(0) translate(4 199)">
<title>src/models/user.hpp</title>
<!-- Node1 -->
<g id="Node000001" class="node">
<title>Node1</title>
<g id="a_Node000001"><a xlink:title=" ">
<polygon fill="#999999" stroke="#666666" points="215.5,-195 101.5,-195 101.5,-176 215.5,-176 215.5,-195"/>
<text text-anchor="middle" x="158.5" y="-183" font-family="Helvetica,sans-Serif" font-size="10.00">src/models/user.hpp</text>
</a>
</g>
</g>
<!-- Node2 -->
<g id="Node000002" class="node">
<title>Node2</title>
<g id="a_Node000002"><a xlink:href="group_8hpp.html" target="_top" xlink:title=" ">
<polygon fill="white" stroke="#666666" points="148.5,-140 26.5,-140 26.5,-121 148.5,-121 148.5,-140"/>
<text text-anchor="middle" x="87.5" y="-128" font-family="Helvetica,sans-Serif" font-size="10.00">src/models/group.hpp</text>
</a>
</g>
</g>
<!-- Node1&#45;&gt;Node2 -->
<g id="edge1_Node000001_Node000002" class="edge">
<title>Node1&#45;&gt;Node2</title>
<g id="a_edge1_Node000001_Node000002"><a xlink:title=" ">
<path fill="none" stroke="#63b8ff" d="M138.91,-169.88C126.13,-160.34 109.89,-148.21 99.11,-140.17"/>
<polygon fill="#63b8ff" stroke="#63b8ff" points="136.99,-172.81 147.09,-175.98 141.17,-167.2 136.99,-172.81"/>
</a>
</g>
</g>
<!-- Node6 -->
<g id="Node000006" class="node">
<title>Node6</title>
<g id="a_Node000006"><a xlink:href="userdb_8hpp.html" target="_top" xlink:title=" ">
<polygon fill="white" stroke="#666666" points="292,-140 167,-140 167,-121 292,-121 292,-140"/>
<text text-anchor="middle" x="229.5" y="-128" font-family="Helvetica,sans-Serif" font-size="10.00">src/tracker/userdb.hpp</text>
</a>
</g>
</g>
<!-- Node1&#45;&gt;Node6 -->
<g id="edge5_Node000001_Node000006" class="edge">
<title>Node1&#45;&gt;Node6</title>
<g id="a_edge5_Node000001_Node000006"><a xlink:title=" ">
<path fill="none" stroke="#63b8ff" d="M178.09,-169.88C190.87,-160.34 207.11,-148.21 217.89,-140.17"/>
<polygon fill="#63b8ff" stroke="#63b8ff" points="175.83,-167.2 169.91,-175.98 180.01,-172.81 175.83,-167.2"/>
</a>
</g>
</g>
<!-- Node3 -->
<g id="Node000003" class="node">
<title>Node3</title>
<g id="a_Node000003"><a xlink:href="groupdb_8hpp.html" target="_top" xlink:title=" ">
<polygon fill="white" stroke="#666666" points="153,-85 22,-85 22,-66 153,-66 153,-85"/>
<text text-anchor="middle" x="87.5" y="-73" font-family="Helvetica,sans-Serif" font-size="10.00">src/tracker/groupdb.hpp</text>
</a>
</g>
</g>
<!-- Node2&#45;&gt;Node3 -->
<g id="edge2_Node000002_Node000003" class="edge">
<title>Node2&#45;&gt;Node3</title>
<g id="a_edge2_Node000002_Node000003"><a xlink:title=" ">
<path fill="none" stroke="#63b8ff" d="M87.5,-110.66C87.5,-101.93 87.5,-91.99 87.5,-85.09"/>
<polygon fill="#63b8ff" stroke="#63b8ff" points="84,-110.75 87.5,-120.75 91,-110.75 84,-110.75"/>
</a>
</g>
</g>
<!-- Node4 -->
<g id="Node000004" class="node">
<title>Node4</title>
<g id="a_Node000004"><a xlink:href="groupdb_8cpp.html" target="_top" xlink:title=" ">
<polygon fill="white" stroke="#666666" points="131,-24.5 0,-24.5 0,-5.5 131,-5.5 131,-24.5"/>
<text text-anchor="middle" x="65.5" y="-12.5" font-family="Helvetica,sans-Serif" font-size="10.00">src/tracker/groupdb.cpp</text>
</a>
</g>
</g>
<!-- Node3&#45;&gt;Node4 -->
<g id="edge3_Node000003_Node000004" class="edge">
<title>Node3&#45;&gt;Node4</title>
<g id="a_edge3_Node000003_Node000004"><a xlink:title=" ">
<path fill="none" stroke="#63b8ff" d="M80.66,-56.32C76.7,-45.78 71.88,-32.98 68.76,-24.67"/>
<polygon fill="#63b8ff" stroke="#63b8ff" points="77.46,-57.74 84.25,-65.87 84.01,-55.28 77.46,-57.74"/>
</a>
</g>
</g>
<!-- Node5 -->
<g id="Node000005" class="node">
<title>Node5</title>
<g id="a_Node000005"><a xlink:href="process__request_8cpp.html" target="_top" xlink:title=" ">
<polygon fill="white" stroke="#666666" points="257.5,-30 149.5,-30 149.5,0 257.5,0 257.5,-30"/>
<text text-anchor="start" x="157.5" y="-18" font-family="Helvetica,sans-Serif" font-size="10.00">src/tracker/process</text>
<text text-anchor="middle" x="203.5" y="-7" font-family="Helvetica,sans-Serif" font-size="10.00">_request.cpp</text>
</a>
</g>
</g>
<!-- Node3&#45;&gt;Node5 -->
<g id="edge4_Node000003_Node000005" class="edge">
<title>Node3&#45;&gt;Node5</title>
<g id="a_edge4_Node000003_Node000005"><a xlink:title=" ">
<path fill="none" stroke="#63b8ff" d="M113.62,-61.33C132.04,-52.04 156.69,-39.61 175.51,-30.11"/>
<polygon fill="#63b8ff" stroke="#63b8ff" points="111.97,-58.24 104.62,-65.87 115.12,-64.49 111.97,-58.24"/>
</a>
</g>
</g>
<!-- Node6&#45;&gt;Node5 -->
<g id="edge6_Node000006_Node000005" class="edge">
<title>Node6&#45;&gt;Node5</title>
<g id="a_edge6_Node000006_Node000005"><a xlink:title=" ">
<path fill="none" stroke="#63b8ff" d="M225.25,-110.96C220.07,-88.34 211.43,-50.61 206.75,-30.18"/>
<polygon fill="#63b8ff" stroke="#63b8ff" points="221.9,-112 227.55,-120.97 228.72,-110.44 221.9,-112"/>
</a>
</g>
</g>
<!-- Node7 -->
<g id="Node000007" class="node">
<title>Node7</title>
<g id="a_Node000007"><a xlink:href="userdb_8cpp.html" target="_top" xlink:title=" ">
<polygon fill="white" stroke="#666666" points="355.5,-85 231.5,-85 231.5,-66 355.5,-66 355.5,-85"/>
<text text-anchor="middle" x="293.5" y="-73" font-family="Helvetica,sans-Serif" font-size="10.00">src/tracker/userdb.cpp</text>
</a>
</g>
</g>
<!-- Node6&#45;&gt;Node7 -->
<g id="edge7_Node000006_Node000007" class="edge">
<title>Node6&#45;&gt;Node7</title>
<g id="a_edge7_Node000006_Node000007"><a xlink:title=" ">
<path fill="none" stroke="#63b8ff" d="M247.49,-114.6C258.96,-105.11 273.41,-93.13 283.03,-85.17"/>
<polygon fill="#63b8ff" stroke="#63b8ff" points="245.25,-111.91 239.78,-120.98 249.72,-117.3 245.25,-111.91"/>
</a>
</g>
</g>
</g>
</svg>
